<?xml version="1.0" standalone="no"?>
<!DOCTYPE svg PUBLIC "-//W3C//DTD SVG 20010904//EN"
 "http://www.w3.org/TR/2001/REC-SVG-20010904/DTD/svg10.dtd">
<svg version="1.0" xmlns="http://www.w3.org/2000/svg"
 width="512.000000pt" height="512.000000pt" viewBox="0 0 512.000000 512.000000"
 preserveAspectRatio="xMidYMid meet">
<metadata>
Created by potrace 1.14, written by Peter Selinger 2001-2017
</metadata>
<g transform="translate(0.000000,512.000000) scale(0.100000,-0.100000)"
fill="#000000" stroke="none">
<path d="M2631 5053 c-8 -3 -49 -29 -92 -57 -43 -28 -117 -76 -165 -106 -49
-30 -121 -76 -161 -102 -41 -27 -78 -48 -83 -48 -6 0 -10 -4 -10 -8 0 -5 -11
-14 -25 -20 -14 -7 -31 -16 -38 -22 -26 -22 -359 -230 -368 -230 -5 0 -9 -4
-9 -8 0 -5 -15 -16 -32 -25 -18 -9 -85 -50 -148 -91 -63 -41 -146 -94 -183
-118 -38 -24 -79 -50 -92 -58 -13 -8 -84 -53 -157 -100 -73 -47 -140 -89 -149
-95 -123 -74 -129 -79 -129 -110 -1 -51 1 -874 2 -1162 1 -150 3 -273 5 -273
5 0 277 163 283 170 3 3 19 12 35 21 25 13 290 173 400 240 17 11 37 22 45 26
8 3 17 9 20 12 3 4 87 55 188 115 l182 110 1 60 c1 78 8 262 12 300 2 25 15
37 87 82 47 29 90 56 95 61 6 5 33 22 60 38 28 16 52 33 53 37 2 4 8 8 14 8 5
0 29 14 53 30 24 17 48 30 53 30 6 0 12 3 14 8 2 4 39 30 83 57 44 27 131 82
192 122 62 40 117 73 122 73 5 0 11 4 13 8 2 4 48 36 103 69 55 34 107 69 116
77 9 9 19 16 22 16 10 0 121 73 125 83 2 4 8 7 14 7 5 0 35 18 67 40 31 22 62
40 69 40 7 0 12 3 12 8 0 4 50 39 110 77 60 39 109 72 109 75 1 3 -11 12 -27
21 -15 9 -76 46 -135 83 -60 36 -113 66 -118 66 -5 0 -9 3 -9 8 0 4 -9 12 -20
17 -41 20 -335 200 -338 207 -2 5 -7 8 -12 8 -5 0 -56 29 -113 65 -102 63
-117 69 -146 58z"/>
<path d="M3290 3780 c-14 -10 -110 -72 -215 -139 -104 -66 -194 -124 -200
-129 -5 -4 -53 -34 -105 -67 -122 -76 -160 -101 -185 -121 -11 -8 -34 -22 -52
-30 -18 -9 -44 -27 -58 -40 -22 -21 -26 -30 -21 -62 3 -20 8 -116 12 -212 12
-352 24 -675 27 -730 2 -19 18 -34 72 -68 39 -23 77 -46 85 -49 8 -4 85 -47
170 -96 85 -50 179 -103 208 -120 30 -16 99 -56 154 -88 55 -32 102 -59 104
-59 2 0 22 -11 43 -24 l39 -25 166 107 c92 59 178 114 191 122 13 8 92 59 175
113 82 53 155 97 160 97 6 0 10 4 10 9 0 5 14 14 30 21 17 7 30 15 30 19 0 3
23 19 51 36 l50 30 -6 130 c-2 71 -7 192 -10 267 -12 281 -13 307 -19 317 -4
5 -2 12 4 16 6 4 8 11 4 16 -6 11 -11 103 -13 231 l-1 67 -119 65 c-66 36
-125 66 -130 66 -6 0 -11 5 -11 10 0 6 -4 10 -8 10 -7 0 -339 179 -552 297
-54 30 -56 30 -80 13z"/>
<path d="M1927 2715 c-9 -8 -22 -15 -30 -15 -9 0 -17 -3 -19 -8 -3 -7 -44 -32
-703 -425 -231 -137 -432 -257 -447 -266 -15 -9 -113 -68 -219 -131 -106 -63
-197 -117 -203 -119 -6 -2 -15 -8 -21 -13 -5 -5 -45 -30 -88 -55 -59 -33 -77
-49 -72 -61 3 -8 65 -111 138 -229 73 -117 137 -221 142 -230 6 -10 44 -72 85
-138 41 -66 80 -128 85 -137 45 -77 101 -164 107 -166 5 -2 8 -9 8 -15 0 -7
18 -38 40 -70 22 -31 40 -60 40 -62 0 -3 21 -39 48 -80 26 -40 52 -82 58 -92
11 -16 13 -17 30 -2 24 20 212 139 220 139 3 0 11 6 19 13 7 6 59 41 116 77
57 36 149 95 206 132 57 38 105 68 107 68 6 0 138 86 153 99 7 6 15 11 18 11
5 0 64 38 173 111 23 16 45 29 49 29 3 0 20 10 37 23 17 13 92 61 166 107 74
47 140 88 145 93 6 4 30 20 55 36 25 16 98 63 163 105 65 42 122 76 126 76 5
0 11 7 15 15 3 8 12 15 21 15 8 0 15 7 15 15 0 8 -8 15 -18 15 -10 0 -22 4
-28 9 -5 6 -40 26 -79 46 -38 19 -110 57 -160 83 -49 27 -157 83 -240 127 -82
43 -151 78 -152 79 -4 3 -14 95 -28 266 -2 25 -6 72 -10 105 -6 60 -10 105
-20 220 -15 166 -20 203 -28 212 -3 2 -12 -3 -20 -12z"/>
<path d="M4830 2094 c-30 -18 -66 -39 -80 -46 -14 -7 -29 -16 -35 -21 -5 -4
-80 -51 -165 -103 -85 -53 -171 -106 -190 -118 -19 -13 -132 -83 -250 -156
-118 -72 -234 -145 -257 -161 -23 -16 -46 -29 -52 -29 -6 0 -11 -4 -11 -10 0
-5 -4 -10 -10 -10 -9 0 -160 -89 -170 -100 -3 -3 -27 -19 -55 -35 -70 -42 -76
-45 -157 -94 -39 -24 -77 -44 -83 -44 -5 0 -58 23 -117 52 -59 28 -110 52
-113 52 -2 0 -28 12 -57 28 l-53 29 -180 -115 c-99 -64 -189 -121 -200 -127
-11 -6 -22 -13 -25 -16 -5 -6 -507 -327 -647 -414 -63 -39 -79 -54 -70 -62 14
-13 159 -91 487 -262 80 -41 150 -78 155 -82 6 -5 60 -34 120 -65 61 -32 137
-73 171 -91 l61 -34 245 0 c230 0 247 1 271 20 14 11 28 20 32 20 3 0 32 17
63 37 32 21 66 43 77 50 11 7 52 32 90 56 39 24 133 83 210 131 77 48 187 116
245 152 58 36 157 98 220 137 63 39 117 74 120 77 3 4 12 9 20 13 8 3 137 82
285 175 l270 169 1 73 c1 40 -2 105 -8 144 -5 39 -11 91 -14 116 -6 63 -13
123 -18 162 -8 52 -17 130 -22 172 -2 21 -6 59 -10 85 -3 25 -8 66 -9 91 -2
25 -4 45 -5 45 -1 0 -8 48 -14 103 -2 18 -5 34 -7 36 -2 3 -29 -11 -59 -30z"/>
</g>
</svg>
