<?xml version="1.0" standalone="no"?>
<!DOCTYPE svg PUBLIC "-//W3C//DTD SVG 1.1//EN" "http://www.w3.org/Graphics/SVG/1.1/DTD/svg11.dtd" >
<svg xmlns="http://www.w3.org/2000/svg" xmlns:xlink="http://www.w3.org/1999/xlink" version="1.1">
<metadata>
Created by FontForge 20201107 at Thu Sep 30 21:20:51 2021
 By 
Copyright 2016 The Mulish Project Authors (https://github.com/googlefonts/mulish)
</metadata>
<defs>
<font id="Mulish-Bold" horiz-adv-x="0" >
  <font-face 
    font-family="Mulish"
    font-weight="700"
    font-stretch="normal"
    units-per-em="1000"
    panose-1="0 0 0 0 0 0 0 0 0 0"
    ascent="800"
    descent="-200"
    x-height="505"
    cap-height="705"
    bbox="-268 -278 1323 1051"
    underline-thickness="44"
    underline-position="-107"
    unicode-range="U+000D-FB02"
  />
<missing-glyph horiz-adv-x="500" 
 />
    <glyph glyph-name="fi" unicode="fi" horiz-adv-x="627" 
d="M102 0v411h-97v94h132l-35 -32v77q0 94 47.5 142t138.5 48q22 0 46.5 -3t42.5 -11v-98q-13 5 -31 8t-35 3q-39 0 -62 -22.5t-23 -72.5v-61l-18 22h351v-505h-125v411h-207v-411h-125zM427 600v122h139v-122h-139z" />
    <glyph glyph-name="fl" unicode="fl" horiz-adv-x="628" 
d="M102 0v411h-97v94h132l-35 -32v77q0 94 48.5 142t142.5 48q22 0 46.5 -3t42.5 -11v-98q-13 5 -31 8t-35 3q-26 0 -46.5 -10t-32 -30.5t-11.5 -54.5v-61l-18 22h151v-94h-132v-411h-125zM436 0v736h125v-736h-125z" />
    <glyph glyph-name=".notdef" horiz-adv-x="500" 
 />
    <glyph glyph-name="uni0000" 
 />
    <glyph glyph-name="uni0000" 
 />
    <glyph glyph-name="nonmarkingreturn" horiz-adv-x="333" 
 />
    <glyph glyph-name="CR" unicode="&#xd;" horiz-adv-x="274" 
 />
    <glyph glyph-name="space" unicode=" " horiz-adv-x="274" 
 />
    <glyph glyph-name="exclam" unicode="!" horiz-adv-x="248" 
d="M86 209l-39 496h154l-39 -496h-76zM54 0v139h140v-139h-140z" />
    <glyph glyph-name="quotedbl" unicode="&#x22;" horiz-adv-x="448" 
d="M80 415l-31 290h145l-30 -290h-84zM285 415l-31 290h145l-30 -290h-84z" />
    <glyph glyph-name="numbersign" unicode="#" horiz-adv-x="600" 
d="M78 0l34 172h-75v80h90l43 209h-111v81h127l33 163h87l-33 -163h129l33 163h87l-33 -163h74v-81h-91l-42 -209h112v-80h-128l-34 -172h-88l35 172h-128l-33 -172h-88zM215 252h128l42 209h-128z" />
    <glyph glyph-name="dollar" unicode="$" horiz-adv-x="600" 
d="M260 -115v131l23 -22q-73 2 -137.5 22.5t-111.5 57.5l39 101q47 -35 103 -54t123 -19q75 0 109.5 26.5t34.5 66.5q0 33 -24.5 53t-83.5 33l-106 23q-92 20 -136.5 67.5t-44.5 124.5q0 59 29 105.5t81 74.5t122 33l-20 -15v126h100v-126l-21 16q57 -3 112.5 -23t92.5 -58
l-38 -96q-38 35 -87 52.5t-107 17.5q-66 0 -104 -28.5t-38 -74.5q0 -34 23.5 -55.5t78.5 -33.5l106 -23q96 -20 142.5 -65.5t46.5 -119.5q0 -58 -29 -102.5t-79.5 -71t-117.5 -33.5l19 21v-132h-100z" />
    <glyph glyph-name="percent" unicode="%" horiz-adv-x="950" 
d="M321 0h-107l416 705h107zM222 284q-85 0 -133 58t-48 158q0 101 48.5 158t132.5 57q85 0 133 -58t48 -157q0 -100 -48 -158t-133 -58zM222 364q37 0 57.5 33t20.5 103q0 71 -20.5 102.5t-57.5 31.5t-57.5 -31t-20.5 -103t20.5 -104t57.5 -32zM729 -10q-85 0 -133 58.5
t-48 158.5q0 101 48.5 157.5t132.5 56.5q85 0 133 -57.5t48 -156.5q0 -100 -48 -158.5t-133 -58.5zM729 71q37 0 57.5 32.5t20.5 103.5t-20.5 102.5t-57.5 31.5t-57.5 -31.5t-20.5 -102.5q0 -72 20.5 -104t57.5 -32z" />
    <glyph glyph-name="ampersand" unicode="&#x26;" horiz-adv-x="688" 
d="M658 -10q-46 16 -88 43.5t-76 58.5l27 -1q-46 -47 -107 -74t-130 -27q-77 0 -133 24t-86 66.5t-30 99.5q0 68 40 116t110 90l34 19l-19 -23q-43 43 -64 83t-21 83q0 50 24.5 87.5t69 58.5t104.5 21q78 0 127 -41.5t49 -112.5q0 -38 -15 -71t-48.5 -63t-87.5 -60l3 25
l175 -181h-26q26 41 40 96t17 116h105q-3 -82 -26 -155t-62 -129l-1 30q27 -28 62 -51t76 -38zM291 87q50 0 89.5 19t70.5 56l-3 -30l-210 213l51 -1l-29 -16q-34 -21 -56.5 -42t-33.5 -44.5t-11 -53.5q0 -47 34 -74t98 -27zM313 630q-38 0 -61 -22t-23 -58q0 -19 7 -36
t23 -36.5t42 -47.5l-30 -2q62 34 90.5 62.5t28.5 65.5q0 35 -21 54.5t-56 19.5z" />
    <glyph glyph-name="quotesingle" unicode="'" horiz-adv-x="243" 
d="M80 415l-31 290h145l-30 -290h-84z" />
    <glyph glyph-name="parenleft" unicode="(" horiz-adv-x="356" 
d="M233 -180q-47 74 -76.5 145t-42.5 144.5t-13 153.5q0 81 13 154t42.5 144t76.5 144h100q-52 -115 -77.5 -223.5t-25.5 -218.5q0 -109 25.5 -218t77.5 -225h-100z" />
    <glyph glyph-name="parenright" unicode=")" horiz-adv-x="356" 
d="M123 -180h-100q52 115 77.5 224.5t25.5 218.5t-25.5 218t-77.5 224h100q48 -73 77 -144t42 -144.5t13 -153.5t-13 -154t-42 -145t-77 -144z" />
    <glyph glyph-name="asterisk" unicode="*" horiz-adv-x="457" 
d="M147 349l-71 52l93 116l-144 40l28 84l138 -53l-7 148h89l-7 -148l139 53l27 -84l-143 -39l93 -117l-72 -52l-81 125z" />
    <glyph glyph-name="plus" unicode="+" horiz-adv-x="600" 
d="M255 39v204h-201v88h201v199h91v-199h200v-88h-200v-204h-91z" />
    <glyph glyph-name="comma" unicode="," horiz-adv-x="248" 
d="M115 -133l-51 40q32 33 44.5 61.5t12.5 60.5l27 -29h-94v139h140v-92q0 -51 -17.5 -93.5t-61.5 -86.5z" />
    <glyph glyph-name="hyphen" unicode="-" horiz-adv-x="438" 
d="M67 226v99h304v-99h-304z" />
    <glyph glyph-name="period" unicode="." horiz-adv-x="248" 
d="M54 0v139h140v-139h-140z" />
    <glyph glyph-name="slash" unicode="/" horiz-adv-x="316" 
d="M78 -59h-103l263 811h103z" />
    <glyph glyph-name="zero" unicode="0" horiz-adv-x="600" 
d="M300 -10q-124 0 -191 94.5t-67 269.5q0 177 67 269t191 92q125 0 191.5 -92t66.5 -268t-66.5 -270.5t-191.5 -94.5zM300 96q68 0 101 62.5t33 196.5t-33 194.5t-101 60.5q-67 0 -100.5 -60.5t-33.5 -194.5t33.5 -196.5t100.5 -62.5z" />
    <glyph glyph-name="one" unicode="1" horiz-adv-x="600" 
d="M111 0v107h162v490h62l-208 -124v122l183 110h92v-598h152v-107h-443z" />
    <glyph glyph-name="two" unicode="2" horiz-adv-x="600" 
d="M78 0v95l234 244q44 46 65 85t21 80q0 51 -32 77t-93 26q-49 0 -94 -17.5t-88 -54.5l-42 96q43 38 106.5 61t133.5 23q114 0 175 -51t61 -146q0 -66 -31 -125.5t-96 -124.5l-195 -195v34h350v-107h-475z" />
    <glyph glyph-name="three" unicode="3" horiz-adv-x="600" 
d="M289 -10q-73 0 -140 21.5t-110 59.5l42 97q47 -36 97.5 -53t106.5 -17q68 0 103 27t35 79q0 50 -34.5 75.5t-100.5 25.5h-114v103h103q57 0 91 28t34 77q0 46 -31.5 70t-90.5 24q-106 0 -187 -72l-42 96q43 40 106.5 62t133.5 22q110 0 172.5 -49.5t62.5 -137.5
q0 -63 -35.5 -108.5t-97.5 -60.5v12q73 -12 113.5 -59.5t40.5 -118.5q0 -94 -69 -148.5t-189 -54.5z" />
    <glyph glyph-name="four" unicode="4" horiz-adv-x="600" 
d="M356 0v138h-315v90l335 477h104v-469h101v-98h-101v-138h-124zM356 236v317h24l-243 -347v30h219z" />
    <glyph glyph-name="five" unicode="5" horiz-adv-x="600" 
d="M305 -10q-46 0 -91.5 10t-85 28t-67.5 43l42 97q47 -35 96.5 -52.5t103.5 -17.5q65 0 101.5 32.5t36.5 87.5q0 56 -35 90.5t-96 34.5q-43 0 -78.5 -16.5t-63.5 -50.5h-85v429h438v-106h-316v-224h-31q26 35 69.5 54t97.5 19q68 0 118 -28t78 -78.5t28 -118.5
q0 -69 -31.5 -121.5t-90 -82t-138.5 -29.5z" />
    <glyph glyph-name="six" unicode="6" horiz-adv-x="600" 
d="M325 -10q-133 0 -205.5 92t-72.5 258q0 120 37 203.5t105.5 127.5t164.5 44q57 0 113 -20.5t96 -58.5l-43 -96q-37 34 -80 50.5t-87 16.5q-90 0 -137 -61t-47 -182v-75h-12q8 51 34 87.5t67 56t91 19.5q62 0 110 -29t75.5 -80t27.5 -117q0 -68 -30.5 -121.5t-83.5 -84
t-123 -30.5zM318 92q37 0 65 16t43.5 45.5t15.5 67.5q0 39 -15.5 68t-43.5 45.5t-65 16.5t-65 -16.5t-44 -45.5t-16 -68q0 -38 16 -67.5t44 -45.5t65 -16z" />
    <glyph glyph-name="seven" unicode="7" horiz-adv-x="600" 
d="M86 0l342 642v-45h-374v108h493v-96l-320 -609h-141z" />
    <glyph glyph-name="eight" unicode="8" horiz-adv-x="600" 
d="M300 -10q-124 0 -193.5 53t-69.5 147q0 74 45 123t117 58v-21q-65 14 -104.5 61t-39.5 114q0 89 65.5 139.5t179.5 50.5q115 0 180.5 -50.5t65.5 -139.5q0 -67 -37.5 -115t-101.5 -59v20q71 -10 114 -58.5t43 -122.5q0 -94 -69.5 -147t-194.5 -53zM300 90q73 0 109 27.5
t36 81.5t-36 81t-109 27q-72 0 -108.5 -27t-36.5 -81t36.5 -81.5t108.5 -27.5zM300 407q62 0 94.5 28t32.5 77q0 48 -32.5 75.5t-94.5 27.5q-61 0 -93.5 -27.5t-32.5 -75.5q0 -49 32.5 -77t93.5 -28z" />
    <glyph glyph-name="nine" unicode="9" horiz-adv-x="600" 
d="M247 -10q-57 0 -113 21.5t-96 58.5l43 96q37 -34 80 -51t87 -17q89 0 136.5 61t47.5 182v75h12q-7 -50 -34 -87t-67.5 -56.5t-90.5 -19.5q-61 0 -109.5 29t-76 80.5t-27.5 116.5q0 69 30.5 122t83.5 83.5t122 30.5q134 0 206.5 -91.5t72.5 -258.5q0 -119 -36.5 -203
t-105.5 -128t-165 -44zM283 355q37 0 65 16t44 45.5t16 67.5q0 39 -16 68t-44 45.5t-65 16.5t-65 -16.5t-43.5 -45.5t-15.5 -68q0 -38 15.5 -67.5t43.5 -45.5t65 -16z" />
    <glyph glyph-name="colon" unicode=":" horiz-adv-x="248" 
d="M54 367v138h140v-138h-140zM54 0v139h140v-139h-140z" />
    <glyph glyph-name="semicolon" unicode=";" horiz-adv-x="248" 
d="M115 -133l-51 40q32 33 44.5 61.5t12.5 60.5l32 -29h-99v139h140v-92q0 -51 -17.5 -93.5t-61.5 -86.5zM54 367v138h140v-138h-140z" />
    <glyph glyph-name="less" unicode="&#x3c;" horiz-adv-x="600" 
d="M546 32l-492 208v95l492 207v-97l-454 -189v62l454 -189v-97z" />
    <glyph glyph-name="equal" unicode="=" horiz-adv-x="600" 
d="M54 343v88h492v-88h-492zM54 144v87h492v-87h-492z" />
    <glyph glyph-name="greater" unicode="&#x3e;" horiz-adv-x="600" 
d="M55 32v97l453 189v-62l-453 189v97l491 -207v-95z" />
    <glyph glyph-name="question" unicode="?" horiz-adv-x="464" 
d="M171 209v40q0 47 18 87t62 87q33 35 46.5 61.5t13.5 53.5q0 34 -25.5 53t-70.5 19q-39 0 -77 -12t-72 -32v108q35 20 79.5 30.5t87.5 10.5q59 0 105.5 -17.5t73 -53t26.5 -90.5q0 -33 -11.5 -63.5t-32.5 -58.5t-52 -56q-49 -43 -68 -75t-23 -64l-4 -28h-76zM139 0v139
h140v-139h-140z" />
    <glyph glyph-name="at" unicode="@" horiz-adv-x="965" 
d="M493 -165q-98 0 -178.5 30.5t-138.5 88t-89.5 137t-31.5 176.5q0 101 32.5 183.5t93 141.5t144 91t185.5 32q121 0 211 -46t140 -130t50 -198q0 -86 -25 -149.5t-69.5 -98t-104.5 -34.5q-61 0 -95 33.5t-35 93.5l30 10q-25 -68 -71.5 -102.5t-102.5 -34.5
q-81 0 -125.5 50t-44.5 137q0 74 28 131t77 89.5t112 32.5q55 0 89.5 -26.5t46.5 -77.5h-17l18 94h93l-43 -241q-3 -16 -4.5 -29.5t-1.5 -24.5q0 -31 13 -46t40 -15q33 0 58.5 26t40 73t14.5 109q0 94 -39 160t-111 101.5t-172 35.5q-111 0 -194 -45.5t-128.5 -129
t-45.5 -196.5q0 -110 43 -190t122 -122.5t186 -42.5q77 0 140 21.5t109 62.5l39 -67q-48 -45 -123 -69.5t-165 -24.5zM456 138q39 0 69.5 23t47.5 64.5t17 95.5q0 49 -21.5 73.5t-66.5 24.5q-39 0 -70 -21.5t-48.5 -60.5t-17.5 -90q0 -53 23.5 -81t66.5 -28z" />
    <glyph glyph-name="A" unicode="A" horiz-adv-x="750" 
d="M0 0l319 705h108l323 -705h-131l-86 198l52 -35h-423l54 35l-86 -198h-130zM372 567l-141 -334l-26 31h336l-21 -31l-144 334h-4z" />
    <glyph glyph-name="B" unicode="B" horiz-adv-x="690" 
d="M78 0v705h309q115 0 177 -48.5t62 -134.5q0 -64 -38 -108t-105 -59v15q77 -11 119.5 -55.5t42.5 -117.5q0 -94 -65 -145.5t-181 -51.5h-321zM202 98h182q65 0 101 24.5t36 80.5q0 57 -36 81.5t-101 24.5h-182v-211zM202 406h163q69 0 102.5 25.5t33.5 75.5t-33.5 75.5
t-102.5 25.5h-163v-202z" />
    <glyph glyph-name="C" unicode="C" horiz-adv-x="685" 
d="M406 -10q-110 0 -188.5 44.5t-120.5 126t-42 192.5t42 192t120.5 125.5t188.5 44.5q74 0 133.5 -21t102.5 -62l-42 -102q-47 38 -90.5 54.5t-99.5 16.5q-107 0 -163.5 -64.5t-56.5 -183.5t56.5 -184t163.5 -65q56 0 99.5 16.5t90.5 55.5l42 -102q-43 -40 -102.5 -62
t-133.5 -22z" />
    <glyph glyph-name="D" unicode="D" horiz-adv-x="762" 
d="M78 0v705h256q121 0 204.5 -41.5t126.5 -120t43 -190.5q0 -111 -43 -190t-126.5 -121t-204.5 -42h-256zM207 107h119q128 0 190 61t62 185q0 125 -62 185.5t-190 60.5h-119v-492z" />
    <glyph glyph-name="E" unicode="E" horiz-adv-x="595" 
d="M78 0v705h475v-101h-351v-195h328v-102h-328v-205h351v-102h-475z" />
    <glyph glyph-name="F" unicode="F" horiz-adv-x="572" 
d="M78 0v705h465v-101h-336v-200h313v-101h-313v-303h-129z" />
    <glyph glyph-name="G" unicode="G" horiz-adv-x="740" 
d="M418 -10q-119 0 -200 44t-122 125t-41 192q0 112 44 193.5t126.5 126t198.5 44.5q77 0 135 -20.5t102 -59.5l-43 -100q-32 25 -61 40t-60 21.5t-72 6.5q-116 0 -175.5 -65.5t-59.5 -187.5t56.5 -186t177.5 -64q41 0 82.5 8t81.5 23l-24 -54v211h-165v94h272v-339
q-49 -25 -117 -39t-136 -14z" />
    <glyph glyph-name="H" unicode="H" horiz-adv-x="774" 
d="M78 0v705h129v-294h361v294h129v-705h-129v304h-361v-304h-129z" />
    <glyph glyph-name="I" unicode="I" horiz-adv-x="284" 
d="M78 0v705h129v-705h-129z" />
    <glyph glyph-name="J" unicode="J" horiz-adv-x="362" 
d="M90 -187q-17 0 -40.5 2t-47.5 7v102q19 -4 36.5 -6t29.5 -2q46 0 66.5 27t20.5 86v676h129v-676q0 -72 -20 -120t-62.5 -72t-111.5 -24z" />
    <glyph glyph-name="K" unicode="K" horiz-adv-x="666" 
d="M78 0v705h129v-312h2l307 312h156l-368 -367l1 56l391 -394h-161l-326 326h-2v-326h-129z" />
    <glyph glyph-name="L" unicode="L" horiz-adv-x="560" 
d="M78 0v705h129v-596h332v-109h-461z" />
    <glyph glyph-name="M" unicode="M" horiz-adv-x="870" 
d="M79 0v705h113l259 -583h-31l259 583h112v-705h-117v523h36l-237 -523h-77l-237 523h37v-523h-117z" />
    <glyph glyph-name="N" unicode="N" horiz-adv-x="755" 
d="M78 0v705h97l409 -529h-26v529h120v-705h-97l-408 529h25v-529h-120z" />
    <glyph glyph-name="O" unicode="O" horiz-adv-x="787" 
d="M55 353q0 111 40.5 192t116.5 125.5t181 44.5q104 0 180 -44.5t117.5 -125.5t41.5 -191q0 -111 -41.5 -192.5t-117.5 -126.5t-180 -45q-105 0 -180.5 45t-116.5 126.5t-41 191.5zM190 353q0 -119 51 -186t152 -67q98 0 151 67t53 186q0 120 -52.5 186t-151.5 66
q-101 0 -152 -66t-51 -186z" />
    <glyph glyph-name="P" unicode="P" horiz-adv-x="666" 
d="M78 0v705h313q116 0 177 -56t61 -154q0 -97 -61 -154t-177 -57h-184v-284h-129zM207 386h169q64 0 96 28.5t32 80.5t-32 80.5t-96 28.5h-169v-218z" />
    <glyph glyph-name="Q" unicode="Q" horiz-adv-x="787" 
d="M582 -192q-32 18 -64.5 47.5t-60.5 66.5t-48 75l103 44q25 -52 68 -94t89 -71zM55 353q0 111 40.5 192t116.5 125.5t181 44.5q104 0 180 -44.5t117.5 -125.5t41.5 -191q0 -111 -41.5 -192.5t-117.5 -126.5t-180 -45q-105 0 -180.5 45t-116.5 126.5t-41 191.5zM190 353
q0 -119 51 -186t152 -67q98 0 151 67t53 186q0 120 -52.5 186t-151.5 66q-101 0 -152 -66t-51 -186z" />
    <glyph glyph-name="R" unicode="R" horiz-adv-x="702" 
d="M78 0v705h308q116 0 179.5 -55t63.5 -153q0 -65 -28.5 -111t-81.5 -70.5t-125 -24.5l14 19h34q42 0 75 -22t54 -67l103 -221h-142l-104 229q-14 35 -42.5 46t-68.5 11h-110v-286h-129zM207 381h158q68 0 103.5 28.5t35.5 83.5t-35.5 83t-103.5 28h-158v-223z" />
    <glyph glyph-name="S" unicode="S" horiz-adv-x="645" 
d="M324 -10q-85 0 -156.5 21.5t-122.5 59.5l40 101q34 -24 71 -40.5t79 -25t89 -8.5q79 0 114 26t35 68q0 37 -24 56.5t-86 32.5l-113 23q-97 20 -145 67t-48 126q0 66 35 115t98 76t147 27q75 0 139 -21.5t107 -61.5l-40 -96q-43 36 -94 53.5t-114 17.5q-71 0 -110.5 -27.5
t-39.5 -75.5q0 -37 24.5 -59t83.5 -34l112 -22q100 -20 148 -65.5t48 -122.5q0 -63 -34 -110.5t-96 -74t-147 -26.5z" />
    <glyph glyph-name="T" unicode="T" horiz-adv-x="619" 
d="M244 0v599h-233v106h595v-106h-233v-599h-129z" />
    <glyph glyph-name="U" unicode="U" horiz-adv-x="740" 
d="M372 -10q-151 0 -224.5 75.5t-73.5 223.5v416h129v-415q0 -94 40.5 -142t128.5 -48q84 0 126.5 48t42.5 142v415h127v-416q0 -148 -74.5 -223.5t-221.5 -75.5z" />
    <glyph glyph-name="V" unicode="V" horiz-adv-x="721" 
d="M306 0l-314 705h139l253 -592h-42l253 592h134l-314 -705h-109z" />
    <glyph glyph-name="W" unicode="W" horiz-adv-x="1121" 
d="M274 0l-249 705h134l192 -578h-40l207 578h96l192 -578h-37l201 578h126l-251 -705h-107l-186 542h22l-193 -542h-107z" />
    <glyph glyph-name="X" unicode="X" horiz-adv-x="671" 
d="M-8 0l290 386v-55l-280 374h151l203 -281h-41l202 281h152l-281 -374v55l291 -386h-152l-214 294h44l-214 -294h-151z" />
    <glyph glyph-name="Y" unicode="Y" horiz-adv-x="629" 
d="M250 0v333l27 -77l-303 449h149l208 -320h-28l208 320h144l-302 -449l26 77v-333h-129z" />
    <glyph glyph-name="Z" unicode="Z" horiz-adv-x="608" 
d="M45 0v95l395 544v-41h-395v107h518v-94l-396 -544v40h409v-107h-531z" />
    <glyph glyph-name="bracketleft" unicode="[" horiz-adv-x="354" 
d="M102 -180v885h239v-94h-116v-697h116v-94h-239z" />
    <glyph glyph-name="backslash" unicode="\" horiz-adv-x="316" 
d="M238 -59l-263 811h103l263 -811h-103z" />
    <glyph glyph-name="bracketright" unicode="]" horiz-adv-x="354" 
d="M14 -180v94h115v697h-115v94h238v-885h-238z" />
    <glyph glyph-name="asciicircum" unicode="^" horiz-adv-x="600" 
d="M44 141l209 487h94l209 -487h-96l-191 449h61l-190 -449h-96z" />
    <glyph glyph-name="underscore" unicode="_" horiz-adv-x="505" 
d="M12 -75v75h481v-75h-481z" />
    <glyph glyph-name="grave" unicode="`" horiz-adv-x="500" 
d="M208 554l-142 203h123l103 -203h-84z" />
    <glyph glyph-name="a" unicode="a" horiz-adv-x="620" 
d="M263 -10q-66 0 -116 31.5t-78 90.5t-28 141t28 140.5t78 90t116 31.5q64 0 112.5 -31.5t64.5 -84.5h-11l11 106h120q-3 -31 -5.5 -63t-2.5 -63v-379h-124l-1 104h12q-16 -52 -65 -83t-111 -31zM298 86q59 0 95 41.5t36 125.5t-36 125t-95 41t-95 -41t-36 -125
t35.5 -125.5t95.5 -41.5z" />
    <glyph glyph-name="b" unicode="b" horiz-adv-x="620" 
d="M357 -10q-64 0 -112 31.5t-64 85.5h11v-107h-124v736h125v-334h-12q17 52 65 82.5t111 30.5q67 0 117 -32t78 -90.5t28 -140.5t-28 -140.5t-78.5 -90t-116.5 -31.5zM322 86q59 0 95.5 41t36.5 125t-36.5 125.5t-95.5 41.5t-95 -41t-36 -125t36 -125.5t95 -41.5z" />
    <glyph glyph-name="c" unicode="c" horiz-adv-x="504" 
d="M300 -10q-78 0 -136.5 32t-90.5 91.5t-32 141.5t32.5 140t90.5 89t136 31q50 0 97.5 -15.5t77.5 -44.5l-38 -87q-27 25 -60.5 37.5t-65.5 12.5q-67 0 -104.5 -42t-37.5 -122t37.5 -123t104.5 -43q31 0 64.5 12t61.5 37l38 -86q-31 -29 -78.5 -45t-96.5 -16z" />
    <glyph glyph-name="d" unicode="d" horiz-adv-x="620" 
d="M264 -10q-66 0 -116.5 31.5t-78.5 90.5t-28 141t28 140.5t78.5 90t116.5 31.5q63 0 111.5 -30.5t64.5 -82.5h-13v334h125v-736h-123v107h12q-16 -54 -64.5 -85.5t-112.5 -31.5zM299 86q59 0 95 41.5t36 125.5t-36 125t-95 41t-95.5 -41t-36.5 -125t36.5 -125.5
t95.5 -41.5z" />
    <glyph glyph-name="e" unicode="e" horiz-adv-x="548" 
d="M312 -10q-127 0 -199 70t-72 192q0 79 31 138t86.5 92t129.5 33q73 0 122 -31t74.5 -87t25.5 -131v-33h-368v66h279l-17 -14q0 70 -29.5 107t-85.5 37q-62 0 -95.5 -44t-33.5 -123v-13q0 -82 40.5 -122.5t114.5 -40.5q43 0 80.5 11.5t71.5 37.5l37 -84q-36 -29 -86 -45
t-106 -16z" />
    <glyph glyph-name="f" unicode="f" horiz-adv-x="368" 
d="M102 0v411h-97v94h132l-35 -32v77q0 94 48.5 142t142.5 48q22 0 46.5 -3t42.5 -11v-98q-13 5 -31 8t-35 3q-26 0 -46.5 -10t-32 -30.5t-11.5 -54.5v-61l-18 22h151v-94h-132v-411h-125z" />
    <glyph glyph-name="g" unicode="g" horiz-adv-x="622" 
d="M302 -224q-70 0 -126.5 15t-100.5 46l27 90q29 -19 60 -31t64 -18t67 -6q70 0 104.5 34.5t34.5 98.5v121h10q-16 -52 -64.5 -83t-111.5 -31q-68 0 -118.5 30.5t-78.5 87.5t-28 134t28 133.5t78.5 87t118.5 30.5q64 0 111.5 -30.5t63.5 -82.5l-9 6l10 97h121
q-4 -31 -6 -63t-2 -63v-359q0 -119 -64.5 -181.5t-188.5 -62.5zM300 108q60 0 95.5 40.5t35.5 115.5t-35.5 115t-95.5 40q-61 0 -97 -40t-36 -115t36 -115.5t97 -40.5z" />
    <glyph glyph-name="h" unicode="h" horiz-adv-x="603" 
d="M68 0v736h125v-332h-14q23 54 71 82.5t110 28.5q90 0 134 -50.5t44 -153.5v-311h-125v305q0 59 -22.5 85.5t-71.5 26.5q-57 0 -91.5 -35.5t-34.5 -94.5v-287h-125z" />
    <glyph glyph-name="i" unicode="i" horiz-adv-x="261" 
d="M68 0v505h125v-505h-125zM61 600v122h139v-122h-139z" />
    <glyph glyph-name="j" unicode="j" horiz-adv-x="261" 
d="M18 -222q-19 0 -41.5 3t-39.5 10v99q13 -4 28 -7t29 -3q36 0 56.5 22t20.5 74v529h125v-536q0 -94 -43 -142.5t-135 -48.5zM63 600v122h139v-122h-139z" />
    <glyph glyph-name="k" unicode="k" horiz-adv-x="552" 
d="M68 0v736h125v-446h2l205 215h151l-255 -267l1 50l272 -288h-155l-219 226h-2v-226h-125z" />
    <glyph glyph-name="l" unicode="l" horiz-adv-x="261" 
d="M68 0v736h125v-736h-125z" />
    <glyph glyph-name="m" unicode="m" horiz-adv-x="899" 
d="M68 0v379q0 31 -2 63t-6 63h121l10 -100h-12q21 52 64.5 81t103.5 29t99.5 -28.5t55.5 -88.5h-16q21 54 69 85.5t110 31.5q85 0 127 -50t42 -156v-309h-125v304q0 60 -20 86.5t-64 26.5q-52 0 -82 -36.5t-30 -98.5v-282h-125v304q0 60 -20 86.5t-64 26.5
q-52 0 -81.5 -36.5t-29.5 -98.5v-282h-125z" />
    <glyph glyph-name="n" unicode="n" horiz-adv-x="603" 
d="M68 0v379q0 31 -2 63t-6 63h121l10 -100h-12q24 53 71 81.5t109 28.5q89 0 134 -50t45 -156v-309h-125v303q0 61 -23.5 87.5t-70.5 26.5q-58 0 -92 -36t-34 -96v-285h-125z" />
    <glyph glyph-name="o" unicode="o" horiz-adv-x="592" 
d="M296 -10q-78 0 -135 32t-88.5 91t-31.5 140t31.5 139.5t88.5 90.5t135 32t135.5 -32t89 -90.5t31.5 -139.5t-31.5 -140t-89 -91t-135.5 -32zM296 86q59 0 94 41.5t35 125.5t-35 125t-94 41t-94 -41t-35 -125t35 -125.5t94 -41.5z" />
    <glyph glyph-name="p" unicode="p" horiz-adv-x="620" 
d="M68 -216v595q0 31 -2 63t-6 63h121l11 -106h-11q15 53 63.5 84.5t112.5 31.5q67 0 117 -31.5t78 -90t28 -140.5t-28 -141t-78 -90.5t-117 -31.5q-63 0 -111 31t-64 83h11v-320h-125zM322 86q60 0 96 41.5t36 125.5t-36 125t-96 41q-59 0 -95 -41t-36 -125t36 -125.5
t95 -41.5z" />
    <glyph glyph-name="q" unicode="q" horiz-adv-x="620" 
d="M427 -216v320h12q-16 -52 -65 -83t-111 -31q-66 0 -116 31.5t-78 90.5t-28 141t28 140.5t78 90t116 31.5q64 0 112.5 -31.5t64.5 -84.5h-11l11 106h120q-3 -31 -5.5 -63t-2.5 -63v-595h-125zM298 86q59 0 95 41.5t36 125.5t-36 125t-95 41t-95 -41t-36 -125t35.5 -125.5
t95.5 -41.5z" />
    <glyph glyph-name="r" unicode="r" horiz-adv-x="393" 
d="M67 0v376q0 32 -1.5 65t-5.5 64h121l14 -138h-20q10 50 33.5 83t57.5 49t74 16q18 0 29 -1.5t22 -5.5l-1 -110q-19 8 -32.5 10t-33.5 2q-43 0 -72.5 -18t-44 -50t-14.5 -73v-269h-126z" />
    <glyph glyph-name="s" unicode="s" horiz-adv-x="501" 
d="M248 -10q-65 0 -119.5 15.5t-91.5 43.5l35 84q38 -26 84 -40t93 -14q50 0 74.5 17t24.5 46q0 23 -15.5 36.5t-49.5 20.5l-100 19q-64 14 -97.5 48t-33.5 89q0 47 25.5 83t73 56.5t111.5 20.5q56 0 105.5 -15t83.5 -45l-36 -81q-31 25 -71 39t-78 14q-52 0 -76 -18.5
t-24 -47.5q0 -22 14.5 -36.5t45.5 -21.5l100 -19q67 -13 101.5 -45.5t34.5 -88.5q0 -50 -27 -86t-75 -55t-112 -19z" />
    <glyph glyph-name="t" unicode="t" horiz-adv-x="379" 
d="M284 -10q-90 0 -136 47t-46 141v233h-97v94h97v129l125 32v-161h135v-94h-135v-225q0 -52 20 -73t55 -21q19 0 32.5 3t26.5 8v-99q-17 -7 -37.5 -10.5t-39.5 -3.5z" />
    <glyph glyph-name="u" unicode="u" horiz-adv-x="596" 
d="M250 -10q-93 0 -139 51t-46 156v308h125v-307q0 -56 23 -82.5t70 -26.5q53 0 86.5 36t33.5 95v285h125v-505h-122v103h14q-22 -54 -66.5 -83.5t-103.5 -29.5z" />
    <glyph glyph-name="v" unicode="v" horiz-adv-x="544" 
d="M216 0l-218 505h133l158 -395h-31l162 395h125l-219 -505h-110z" />
    <glyph glyph-name="w" unicode="w" horiz-adv-x="883" 
d="M208 0l-197 505h129l142 -393h-26l144 393h89l143 -393h-23l141 393h122l-197 -505h-110l-151 402h53l-148 -402h-111z" />
    <glyph glyph-name="x" unicode="x" horiz-adv-x="549" 
d="M-10 0l235 289v-57l-222 273h148l145 -187h-45l145 187h147l-220 -273v57l234 -289h-149l-157 201h45l-158 -201h-148z" />
    <glyph glyph-name="y" unicode="y" horiz-adv-x="543" 
d="M58 -227l-29 99q47 10 79 23t53 34t35 54l25 59l-3 -49l-220 512h133l158 -394h-29l159 394h126l-230 -533q-23 -54 -50 -89.5t-58 -57t-68 -33.5t-81 -19z" />
    <glyph glyph-name="z" unicode="z" horiz-adv-x="526" 
d="M48 0v82l316 359v-30h-316v94h429v-82l-319 -362l-1 33h331v-94h-440z" />
    <glyph glyph-name="braceleft" unicode="{" horiz-adv-x="392" 
d="M267 -180q-58 0 -89 32t-31 90v193q0 41 -15 58.5t-52 20.5l-39 3v91l39 3q37 3 52 20.5t15 58.5v193q0 59 31 90.5t89 31.5h113v-94h-67q-22 0 -32.5 -11t-10.5 -34v-191q0 -31 -13.5 -57.5t-36 -42t-49.5 -15.5v4q27 0 49.5 -15.5t36 -41t13.5 -57.5v-191
q0 -22 10.5 -33.5t32.5 -11.5h67v-94h-113z" />
    <glyph glyph-name="bar" unicode="|" horiz-adv-x="282" 
d="M79 -184v893h125v-893h-125z" />
    <glyph glyph-name="braceright" unicode="}" horiz-adv-x="392" 
d="M12 -180v94h67q23 0 33 11.5t10 33.5v191q0 32 13.5 58t36 41.5t49.5 15.5v-4q-27 0 -49.5 15.5t-36 42t-13.5 57.5v190q0 23 -10 34t-33 11h-67v94h113q59 0 89.5 -31.5t30.5 -90.5v-193q0 -40 15 -58t52 -20l39 -3v-92l-39 -3q-37 -2 -52 -19.5t-15 -58.5v-194
q0 -58 -30.5 -90t-89.5 -32h-113z" />
    <glyph glyph-name="asciitilde" unicode="~" horiz-adv-x="600" 
d="M411 209q-24 0 -51 8t-68 30q-37 20 -58.5 27.5t-36.5 7.5q-51 0 -76 -62l-67 41q18 49 54 77t81 28q25 0 52.5 -8.5t66.5 -28.5q36 -19 57.5 -27.5t37.5 -8.5q51 0 76 62l67 -42q-18 -49 -53.5 -76.5t-81.5 -27.5z" />
    <glyph glyph-name="uni00A0" unicode="&#xa0;" horiz-adv-x="274" 
 />
    <glyph glyph-name="exclamdown" unicode="&#xa1;" horiz-adv-x="248" 
d="M47 -180l39 477h76l39 -477h-154zM54 367v138h140v-138h-140z" />
    <glyph glyph-name="cent" unicode="&#xa2;" horiz-adv-x="600" 
d="M266 -115v140l24 -30q-63 10 -110 43.5t-72.5 86.5t-25.5 120q0 64 26 116t72.5 86.5t109.5 43.5l-24 -32v150h100v-143l-26 29q52 0 100.5 -16t77.5 -45l-35 -86q-28 23 -63 36.5t-71 13.5q-65 0 -102 -42t-37 -109q0 -68 36.5 -111t101.5 -43q36 0 71.5 13.5t63.5 36.5
l35 -86q-31 -28 -78.5 -45.5t-101.5 -19.5l28 27v-134h-100z" />
    <glyph glyph-name="sterling" unicode="&#xa3;" horiz-adv-x="600" 
d="M43 0v86q41 15 63.5 37.5t22.5 59.5v132h-87v77h87v105q0 67 26.5 116t79.5 75.5t134 26.5q62 0 115.5 -19t93.5 -54l-45 -93q-36 33 -75 48t-83 15q-60 0 -88.5 -28t-28.5 -83v-109h169v-77h-168v-102q0 -45 -18.5 -72.5t-52.5 -40.5v5h380v-105h-525z" />
    <glyph glyph-name="currency" unicode="&#xa4;" horiz-adv-x="600" 
d="M82 -30l-51 52l73 75q-22 31 -34.5 69t-12.5 79q0 42 12.5 80t34.5 69l-73 75l51 51l74 -75q30 23 66.5 35.5t76.5 12.5t76 -12t66 -35l73 76l54 -55l-74 -75q23 -31 34.5 -68.5t11.5 -78.5t-12 -78.5t-35 -69.5l74 -75l-51 -51l-73 75q-30 -23 -66.5 -36t-77.5 -13
q-40 0 -77 13t-67 35zM299 98q38 0 69.5 20t50 53.5t18.5 73.5q0 41 -18.5 74.5t-50 53.5t-69.5 20t-70 -20t-50.5 -53.5t-18.5 -74.5q0 -40 18.5 -73.5t50 -53.5t70.5 -20z" />
    <glyph glyph-name="yen" unicode="&#xa5;" horiz-adv-x="600" 
d="M236 0v166h-168v74h168v82h-168v74h141v-15l-225 324h140l190 -284h-28l191 284h139l-224 -324v15h140v-74h-168v-82h168v-74h-168v-166h-128z" />
    <glyph glyph-name="brokenbar" unicode="&#xa6;" horiz-adv-x="282" 
d="M79 372v337h125v-337h-125zM79 -184v338h125v-338h-125z" />
    <glyph glyph-name="section" unicode="&#xa7;" horiz-adv-x="570" 
d="M264 -190q-69 0 -126 16.5t-95 45.5l37 84q22 -17 52.5 -30t65.5 -20.5t68 -7.5q53 0 84 22.5t31 65.5q0 29 -17.5 50.5t-60.5 41.5l-130 57q-52 24 -83 49.5t-45 56t-14 67.5q0 47 24 87t68 68l-10 -34q-19 18 -29.5 43t-10.5 58q0 58 29.5 99t82.5 63.5t123 22.5
q65 0 118.5 -15t87.5 -44l-35 -82q-34 24 -81.5 38t-91.5 14q-51 0 -82 -22.5t-31 -64.5q0 -29 18 -50.5t61 -41.5l129 -57q52 -23 83 -49t45 -56.5t14 -67.5q0 -47 -23.5 -87t-67.5 -68l10 34q18 -18 28.5 -43.5t10.5 -58.5q0 -57 -29.5 -98.5t-82.5 -63.5t-125 -22z
M143 330q0 -31 20.5 -56t72.5 -49l111 -50q28 -13 48.5 -26.5t33.5 -27.5l-31 -3q34 34 34 77q0 32 -21 57t-72 48l-112 50q-27 13 -47.5 27t-33.5 27l30 3q-16 -16 -24.5 -36t-8.5 -41z" />
    <glyph glyph-name="dieresis" unicode="&#xa8;" horiz-adv-x="500" 
d="M287 597v115h115v-115h-115zM98 597v115h115v-115h-115z" />
    <glyph glyph-name="copyright" unicode="&#xa9;" horiz-adv-x="815" 
d="M408 -10q-77 0 -143 27.5t-115.5 77t-77 115.5t-27.5 143t27.5 143t77 115t115.5 76.5t143 27.5t143 -27.5t115 -76.5t76.5 -115t27.5 -143t-27.5 -143t-76.5 -115.5t-115 -77t-143 -27.5zM426 137q-100 0 -158.5 59t-58.5 159q0 99 58.5 156t158.5 57q40 0 79.5 -12.5
t64.5 -35.5l-31 -75q-22 20 -49.5 30t-55.5 10q-55 0 -87 -34.5t-32 -96.5t32 -97.5t87 -35.5q28 0 55.5 10t49.5 30l31 -75q-25 -22 -65 -35.5t-79 -13.5zM408 43q66 0 122 23.5t97 65.5t64 98.5t23 122.5t-23 122.5t-64 98t-97 65t-122 23.5t-122 -23.5t-97.5 -65
t-64.5 -98t-23 -122.5t23 -122.5t64.5 -98.5t97.5 -65.5t122 -23.5z" />
    <glyph glyph-name="ordfeminine" unicode="&#xaa;" horiz-adv-x="341" 
d="M134 408q-50 0 -81.5 27t-31.5 67q0 47 41.5 67t121.5 20h52v-44h-49q-45 0 -65 -10t-20 -31q0 -17 12.5 -29t40.5 -12q31 0 51.5 21t20.5 58v58q0 28 -16 41t-50 13q-25 0 -53.5 -6.5t-52.5 -20.5l-20 57q25 15 61.5 23t70.5 8q140 0 140 -119v-182h-77v55h-2
q-16 -31 -38 -46t-56 -15z" />
    <glyph glyph-name="guillemotleft" unicode="&#xab;" horiz-adv-x="498" 
d="M155 86l-131 182l131 182h104l-123 -182l123 -182h-104zM363 86l-131 182l131 182h104l-123 -182l123 -182h-104z" />
    <glyph glyph-name="logicalnot" unicode="&#xac;" horiz-adv-x="600" 
d="M455 140v204h-401v88h492v-292h-91z" />
    <glyph glyph-name="uni00AD" unicode="&#xad;" horiz-adv-x="438" 
d="M67 226v99h304v-99h-304z" />
    <glyph glyph-name="registered" unicode="&#xae;" horiz-adv-x="815" 
d="M408 -10q-77 0 -143 27.5t-115.5 77t-77 115.5t-27.5 143t27.5 143t77 115t115.5 76.5t143 27.5t143 -27.5t115 -76.5t76.5 -115t27.5 -143t-27.5 -143t-76.5 -115.5t-115 -77t-143 -27.5zM408 43q66 0 122 23.5t97 65.5t64 98.5t23 122.5t-23 122.5t-64 98t-97 65
t-122 23.5t-122 -23.5t-97.5 -65t-64.5 -98t-23 -122.5t23 -122.5t64.5 -98.5t97.5 -65.5t122 -23.5zM253 142v423h183q71 0 108.5 -34.5t37.5 -90.5q0 -58 -37 -88.5t-104 -30.5l22 11q32 0 53 -15.5t33 -59.5l38 -115h-98l-39 125q-7 22 -22 29.5t-35 7.5h-60l16 11v-173
h-96zM348 376h75q34 0 51 14t17 45q0 30 -17 44t-51 14h-75v-117z" />
    <glyph glyph-name="macron" unicode="&#xaf;" horiz-adv-x="500" 
d="M92 616v74h316v-74h-316z" />
    <glyph glyph-name="degree" unicode="&#xb0;" horiz-adv-x="379" 
d="M190 406q-45 0 -80.5 20.5t-56 55.5t-20.5 79t20.5 78.5t56 55t80.5 20.5t80 -20t55.5 -55t20.5 -79t-20.5 -79.5t-55.5 -55.5t-80 -20zM190 477q35 0 57 24t22 60q0 35 -22 59t-57 24t-57.5 -24t-22.5 -59q0 -36 22.5 -60t57.5 -24z" />
    <glyph glyph-name="plusminus" unicode="&#xb1;" horiz-adv-x="600" 
d="M255 139v152h-201v88h201v152h91v-152h200v-88h-200v-152h-91zM54 0v88h492v-88h-492z" />
    <glyph glyph-name="uni00B2" unicode="&#xb2;" horiz-adv-x="380" 
d="M46 282v73l131 130q25 26 36.5 46.5t11.5 42.5q0 52 -62 52q-25 0 -54 -10t-51 -27l-22 76q27 20 65.5 32t84.5 12q68 0 107.5 -32.5t39.5 -88.5q0 -34 -16.5 -66t-53.5 -67l-102 -99v10h188v-84h-303z" />
    <glyph glyph-name="uni00B3" unicode="&#xb3;" horiz-adv-x="380" 
d="M187 277q-49 0 -89.5 10.5t-69.5 30.5l20 73q26 -17 59 -26t70 -9q35 0 55 13.5t20 40.5q0 25 -19 36.5t-51 11.5h-84v74h72q33 0 51 13t18 38q0 23 -17.5 35.5t-50.5 12.5q-31 0 -62.5 -10.5t-53.5 -27.5l-22 74q27 20 67 31t88 11q69 0 109 -30t40 -81
q0 -41 -26.5 -68.5t-65.5 -35.5v11q47 -5 75 -32t28 -74q0 -57 -45 -89.5t-116 -32.5z" />
    <glyph glyph-name="acute" unicode="&#xb4;" horiz-adv-x="500" 
d="M208 554l103 203h123l-142 -203h-84z" />
    <glyph glyph-name="uni00B5" unicode="&#xb5;" horiz-adv-x="581" 
d="M61 -198v703h125v-312q0 -53 22 -78t68 -25q53 0 85.5 34.5t32.5 92.5v288h125v-505h-122v102h4q-13 -54 -48 -83t-79 -29q-36 0 -62 13.5t-42 47.5h6l10 -249h-125z" />
    <glyph glyph-name="paragraph" unicode="&#xb6;" horiz-adv-x="632" 
d="M252 -180v462q-65 0 -113.5 27t-75.5 74.5t-27 110.5t27 110.5t76.5 74t115.5 26.5h299v-885h-91v796h-120v-796h-91z" />
    <glyph glyph-name="periodcentered" unicode="&#xb7;" horiz-adv-x="251" 
d="M55 206v139h141v-139h-141z" />
    <glyph glyph-name="cedilla" unicode="&#xb8;" horiz-adv-x="500" 
d="M251 -195q-30 0 -56.5 5.5t-46.5 15.5l18 56q18 -8 36 -12.5t38 -4.5q27 0 41 7.5t14 22.5q0 23 -37 23q-10 0 -19.5 -1t-22.5 -5l-19 18l14 90h67l-13 -76l-32 11q11 4 23.5 6t22.5 2q41 0 66 -19t25 -53q0 -39 -33 -62.5t-86 -23.5z" />
    <glyph glyph-name="uni00B9" unicode="&#xb9;" horiz-adv-x="380" 
d="M61 282v84h99v252h42l-131 -71v95l116 63h74v-339h85v-84h-285z" />
    <glyph glyph-name="ordmasculine" unicode="&#xba;" horiz-adv-x="356" 
d="M178 409q-45 0 -80.5 19t-56 53.5t-20.5 81.5t20.5 81t56 52.5t81.5 18.5q45 0 80.5 -18.5t56 -52.5t20.5 -81t-20.5 -81.5t-56 -53.5t-81.5 -19zM178 472q35 0 55 23.5t20 67.5t-20 67t-55 23q-34 0 -54 -22.5t-20 -67.5t20 -68t54 -23z" />
    <glyph glyph-name="guillemotright" unicode="&#xbb;" horiz-adv-x="498" 
d="M135 86h-104l123 182l-123 182h105l130 -182zM343 86h-104l123 182l-123 182h105l130 -182z" />
    <glyph glyph-name="onequarter" unicode="&#xbc;" horiz-adv-x="914" 
d="M61 282v84h99v252h42l-131 -71v95l116 63h74v-339h85v-84h-285zM326 -10h-107l427 725h106zM751 0v75h-195v69l203 279h84v-272h59v-76h-59v-75h-92zM754 151v173h10l-136 -188v15h126z" />
    <glyph glyph-name="onehalf" unicode="&#xbd;" horiz-adv-x="962" 
d="M61 282v84h99v252h42l-131 -71v95l116 63h74v-339h85v-84h-285zM326 -10h-107l427 725h106zM628 0v73l131 130q25 26 36.5 46.5t11.5 42.5q0 52 -62 52q-25 0 -54 -10t-51 -27l-22 76q27 20 65.5 32t84.5 12q68 0 107.5 -32.5t39.5 -88.5q0 -34 -16.5 -66t-53.5 -67
l-102 -99v10h188v-84h-303z" />
    <glyph glyph-name="threequarters" unicode="&#xbe;" horiz-adv-x="914" 
d="M187 277q-49 0 -89.5 10.5t-69.5 30.5l20 73q26 -17 59 -26t70 -9q35 0 55 13.5t20 40.5q0 25 -19 36.5t-51 11.5h-84v74h72q33 0 51 13t18 38q0 23 -17.5 35.5t-50.5 12.5q-31 0 -62.5 -10.5t-53.5 -27.5l-22 74q27 20 67 31t88 11q69 0 109 -30t40 -81
q0 -41 -26.5 -68.5t-65.5 -35.5v11q47 -5 75 -32t28 -74q0 -57 -45 -89.5t-116 -32.5zM326 -10h-107l427 725h106zM751 0v75h-195v69l203 279h84v-272h59v-76h-59v-75h-92zM754 151v173h10l-136 -188v15h126z" />
    <glyph glyph-name="questiondown" unicode="&#xbf;" horiz-adv-x="464" 
d="M231 -203q-59 0 -105.5 18.5t-73 55.5t-26.5 90q0 33 9 60.5t30.5 55.5t56.5 59q49 44 67.5 76t23.5 64l4 20h76v-33q0 -46 -18 -86t-62 -87q-33 -35 -46.5 -61.5t-13.5 -54.5q0 -34 25.5 -53t70.5 -19q39 0 77 12t72 32v-108q-34 -19 -78.5 -30t-88.5 -11zM325 505v-139
h-140v139h140z" />
    <glyph glyph-name="Agrave" unicode="&#xc0;" horiz-adv-x="750" 
d="M0 0l319 705h108l323 -705h-131l-86 198l52 -35h-423l54 35l-86 -198h-130zM372 567l-141 -334l-26 31h336l-21 -31l-144 334h-4zM329 765l-159 174h130l119 -174h-90z" />
    <glyph glyph-name="Aacute" unicode="&#xc1;" horiz-adv-x="750" 
d="M0 0l319 705h108l323 -705h-131l-86 198l52 -35h-423l54 35l-86 -198h-130zM372 567l-141 -334l-26 31h336l-21 -31l-144 334h-4zM329 765l119 174h130l-159 -174h-90z" />
    <glyph glyph-name="Acircumflex" unicode="&#xc2;" horiz-adv-x="750" 
d="M0 0l319 705h108l323 -705h-131l-86 198l52 -35h-423l54 35l-86 -198h-130zM372 567l-141 -334l-26 31h336l-21 -31l-144 334h-4zM196 765l124 174h108l124 -174h-87l-91 104l-91 -104h-87z" />
    <glyph glyph-name="Atilde" unicode="&#xc3;" horiz-adv-x="750" 
d="M0 0l319 705h108l323 -705h-131l-86 198l52 -35h-423l54 35l-86 -198h-130zM372 567l-141 -334l-26 31h336l-21 -31l-144 334h-4zM213 772l-62 4q5 71 42 109.5t92 38.5q23 0 47 -8.5t57 -27.5q29 -16 46 -23t31 -7q29 0 46 18t23 52l62 -4q-5 -71 -41.5 -109.5
t-91.5 -38.5q-24 0 -48.5 9t-59.5 29q-27 16 -43 22t-31 6q-29 0 -46 -17.5t-23 -52.5z" />
    <glyph glyph-name="Adieresis" unicode="&#xc4;" horiz-adv-x="750" 
d="M0 0l319 705h108l323 -705h-131l-86 198l52 -35h-423l54 35l-86 -198h-130zM372 567l-141 -334l-26 31h336l-21 -31l-144 334h-4zM411 790v115h115v-115h-115zM222 790v115h115v-115h-115z" />
    <glyph glyph-name="Aring" unicode="&#xc5;" horiz-adv-x="750" 
d="M0 0l319 705h108l323 -705h-131l-86 198l52 -35h-423l54 35l-86 -198h-130zM372 567l-141 -334l-26 31h336l-21 -31l-144 334h-4zM374 755q-35 0 -64 16.5t-45.5 44.5t-16.5 62q0 35 16.5 62.5t45.5 43.5t64 16q36 0 64.5 -16t45 -43.5t16.5 -62.5q0 -34 -16.5 -62
t-45 -44.5t-64.5 -16.5zM374 812q29 0 47 19t18 47t-18 46.5t-47 18.5q-28 0 -46.5 -18.5t-18.5 -46.5t18.5 -47t46.5 -19z" />
    <glyph glyph-name="AE" unicode="&#xc6;" horiz-adv-x="1017" 
d="M-20 0l440 705h555v-101h-377l23 21l21 -251l-18 35h329v-102h-326l19 10l21 -243l-16 28h324v-102h-419l-16 194l28 -31h-369l39 34l-119 -197h-139zM482 603l-222 -369l-10 31h298l-10 -35l-32 373h-24z" />
    <glyph glyph-name="Ccedilla" unicode="&#xc7;" horiz-adv-x="685" 
d="M406 -10q-110 0 -188.5 44.5t-120.5 126t-42 192.5t42 192t120.5 125.5t188.5 44.5q74 0 133.5 -21t102.5 -62l-42 -102q-47 38 -90.5 54.5t-99.5 16.5q-107 0 -163.5 -64.5t-56.5 -183.5t56.5 -184t163.5 -65q56 0 99.5 16.5t90.5 55.5l42 -102q-43 -40 -102.5 -62
t-133.5 -22zM399 -195q-30 0 -56.5 5.5t-46.5 15.5l18 56q18 -8 36 -12.5t38 -4.5q27 0 41 7.5t14 22.5q0 23 -37 23q-10 0 -19.5 -1t-22.5 -5l-19 18l14 90h67l-13 -76l-32 11q11 4 23.5 6t22.5 2q41 0 66 -19t25 -53q0 -39 -33 -62.5t-86 -23.5z" />
    <glyph glyph-name="Egrave" unicode="&#xc8;" horiz-adv-x="595" 
d="M78 0v705h475v-101h-351v-195h328v-102h-328v-205h351v-102h-475zM288 765l-159 174h130l119 -174h-90z" />
    <glyph glyph-name="Eacute" unicode="&#xc9;" horiz-adv-x="595" 
d="M78 0v705h475v-101h-351v-195h328v-102h-328v-205h351v-102h-475zM288 765l119 174h130l-159 -174h-90z" />
    <glyph glyph-name="Ecircumflex" unicode="&#xca;" horiz-adv-x="595" 
d="M78 0v705h475v-101h-351v-195h328v-102h-328v-205h351v-102h-475zM155 765l124 174h108l124 -174h-87l-91 104l-91 -104h-87z" />
    <glyph glyph-name="Edieresis" unicode="&#xcb;" horiz-adv-x="595" 
d="M78 0v705h475v-101h-351v-195h328v-102h-328v-205h351v-102h-475zM370 790v115h115v-115h-115zM181 790v115h115v-115h-115z" />
    <glyph glyph-name="Igrave" unicode="&#xcc;" horiz-adv-x="284" 
d="M78 0v705h129v-705h-129zM97 765l-159 174h130l119 -174h-90z" />
    <glyph glyph-name="Iacute" unicode="&#xcd;" horiz-adv-x="284" 
d="M78 0v705h129v-705h-129zM97 765l119 174h130l-159 -174h-90z" />
    <glyph glyph-name="Icircumflex" unicode="&#xce;" horiz-adv-x="284" 
d="M78 0v705h129v-705h-129zM-36 765l124 174h108l124 -174h-87l-91 104l-91 -104h-87z" />
    <glyph glyph-name="Idieresis" unicode="&#xcf;" horiz-adv-x="284" 
d="M78 0v705h129v-705h-129zM179 790v115h115v-115h-115zM-10 790v115h115v-115h-115z" />
    <glyph glyph-name="Eth" unicode="&#xd0;" horiz-adv-x="762" 
d="M78 0v705h256q121 0 204.5 -41.5t126.5 -120t43 -190.5q0 -111 -43 -190t-126.5 -121t-204.5 -42h-256zM207 107h119q128 0 190 61t62 185q0 125 -62 185.5t-190 60.5h-119v-492zM-6 310v94h405v-94h-405z" />
    <glyph glyph-name="Ntilde" unicode="&#xd1;" horiz-adv-x="755" 
d="M78 0v705h97l409 -529h-26v529h120v-705h-97l-408 529h25v-529h-120zM219 772l-62 4q5 71 42 109.5t92 38.5q23 0 47 -8.5t57 -27.5q29 -16 46 -23t31 -7q29 0 46 18t23 52l62 -4q-5 -71 -41.5 -109.5t-91.5 -38.5q-24 0 -48.5 9t-59.5 29q-27 16 -43 22t-31 6
q-29 0 -46 -17.5t-23 -52.5z" />
    <glyph glyph-name="Ograve" unicode="&#xd2;" horiz-adv-x="787" 
d="M55 353q0 111 40.5 192t116.5 125.5t181 44.5q104 0 180 -44.5t117.5 -125.5t41.5 -191q0 -111 -41.5 -192.5t-117.5 -126.5t-180 -45q-105 0 -180.5 45t-116.5 126.5t-41 191.5zM190 353q0 -119 51 -186t152 -67q98 0 151 67t53 186q0 120 -52.5 186t-151.5 66
q-101 0 -152 -66t-51 -186zM348 765l-159 174h130l119 -174h-90z" />
    <glyph glyph-name="Oacute" unicode="&#xd3;" horiz-adv-x="787" 
d="M55 353q0 111 40.5 192t116.5 125.5t181 44.5q104 0 180 -44.5t117.5 -125.5t41.5 -191q0 -111 -41.5 -192.5t-117.5 -126.5t-180 -45q-105 0 -180.5 45t-116.5 126.5t-41 191.5zM190 353q0 -119 51 -186t152 -67q98 0 151 67t53 186q0 120 -52.5 186t-151.5 66
q-101 0 -152 -66t-51 -186zM348 765l119 174h130l-159 -174h-90z" />
    <glyph glyph-name="Ocircumflex" unicode="&#xd4;" horiz-adv-x="787" 
d="M55 353q0 111 40.5 192t116.5 125.5t181 44.5q104 0 180 -44.5t117.5 -125.5t41.5 -191q0 -111 -41.5 -192.5t-117.5 -126.5t-180 -45q-105 0 -180.5 45t-116.5 126.5t-41 191.5zM190 353q0 -119 51 -186t152 -67q98 0 151 67t53 186q0 120 -52.5 186t-151.5 66
q-101 0 -152 -66t-51 -186zM215 765l124 174h108l124 -174h-87l-91 104l-91 -104h-87z" />
    <glyph glyph-name="Otilde" unicode="&#xd5;" horiz-adv-x="787" 
d="M55 353q0 111 40.5 192t116.5 125.5t181 44.5q104 0 180 -44.5t117.5 -125.5t41.5 -191q0 -111 -41.5 -192.5t-117.5 -126.5t-180 -45q-105 0 -180.5 45t-116.5 126.5t-41 191.5zM190 353q0 -119 51 -186t152 -67q98 0 151 67t53 186q0 120 -52.5 186t-151.5 66
q-101 0 -152 -66t-51 -186zM232 772l-62 4q5 71 42 109.5t92 38.5q23 0 47 -8.5t57 -27.5q29 -16 46 -23t31 -7q29 0 46 18t23 52l62 -4q-5 -71 -41.5 -109.5t-91.5 -38.5q-24 0 -48.5 9t-59.5 29q-27 16 -43 22t-31 6q-29 0 -46 -17.5t-23 -52.5z" />
    <glyph glyph-name="Odieresis" unicode="&#xd6;" horiz-adv-x="787" 
d="M55 353q0 111 40.5 192t116.5 125.5t181 44.5q104 0 180 -44.5t117.5 -125.5t41.5 -191q0 -111 -41.5 -192.5t-117.5 -126.5t-180 -45q-105 0 -180.5 45t-116.5 126.5t-41 191.5zM190 353q0 -119 51 -186t152 -67q98 0 151 67t53 186q0 120 -52.5 186t-151.5 66
q-101 0 -152 -66t-51 -186zM430 790v115h115v-115h-115zM241 790v115h115v-115h-115z" />
    <glyph glyph-name="multiply" unicode="&#xd7;" horiz-adv-x="600" 
d="M128 51l-62 62l172 173l-172 172l62 62l172 -172l173 172l62 -62l-173 -172l173 -173l-62 -62l-173 172z" />
    <glyph glyph-name="Oslash" unicode="&#xd8;" horiz-adv-x="787" 
d="M55 353q0 111 40.5 192t116.5 125.5t181 44.5q104 0 180 -44.5t117.5 -125.5t41.5 -191q0 -111 -41.5 -192.5t-117.5 -126.5t-180 -45q-105 0 -180.5 45t-116.5 126.5t-41 191.5zM190 353q0 -119 51 -186t152 -67q98 0 151 67t53 186q0 120 -52.5 186t-151.5 66
q-101 0 -152 -66t-51 -186zM277 49l-63 -109l-83 49l63 109l41 54l264 451l21 54l63 108l83 -49l-63 -109l-41 -53l-264 -452z" />
    <glyph glyph-name="Ugrave" unicode="&#xd9;" horiz-adv-x="740" 
d="M372 -10q-151 0 -224.5 75.5t-73.5 223.5v416h129v-415q0 -94 40.5 -142t128.5 -48q84 0 126.5 48t42.5 142v415h127v-416q0 -148 -74.5 -223.5t-221.5 -75.5zM327 765l-159 174h130l119 -174h-90z" />
    <glyph glyph-name="Uacute" unicode="&#xda;" horiz-adv-x="740" 
d="M372 -10q-151 0 -224.5 75.5t-73.5 223.5v416h129v-415q0 -94 40.5 -142t128.5 -48q84 0 126.5 48t42.5 142v415h127v-416q0 -148 -74.5 -223.5t-221.5 -75.5zM327 765l119 174h130l-159 -174h-90z" />
    <glyph glyph-name="Ucircumflex" unicode="&#xdb;" horiz-adv-x="740" 
d="M372 -10q-151 0 -224.5 75.5t-73.5 223.5v416h129v-415q0 -94 40.5 -142t128.5 -48q84 0 126.5 48t42.5 142v415h127v-416q0 -148 -74.5 -223.5t-221.5 -75.5zM194 765l124 174h108l124 -174h-87l-91 104l-91 -104h-87z" />
    <glyph glyph-name="Udieresis" unicode="&#xdc;" horiz-adv-x="740" 
d="M372 -10q-151 0 -224.5 75.5t-73.5 223.5v416h129v-415q0 -94 40.5 -142t128.5 -48q84 0 126.5 48t42.5 142v415h127v-416q0 -148 -74.5 -223.5t-221.5 -75.5zM409 790v115h115v-115h-115zM220 790v115h115v-115h-115z" />
    <glyph glyph-name="Yacute" unicode="&#xdd;" horiz-adv-x="629" 
d="M250 0v333l27 -77l-303 449h149l208 -320h-28l208 320h144l-302 -449l26 77v-333h-129zM270 765l119 174h130l-159 -174h-90z" />
    <glyph glyph-name="Thorn" unicode="&#xde;" horiz-adv-x="667" 
d="M78 0v705h129v-123h180q115 0 178.5 -56t63.5 -154q0 -97 -63.5 -154t-178.5 -57h-180v-161h-129zM207 263h170q62 0 94.5 28.5t32.5 80.5t-32.5 80.5t-94.5 28.5h-170v-218z" />
    <glyph glyph-name="germandbls" unicode="&#xdf;" horiz-adv-x="674" 
d="M68 0v474q0 133 68 201.5t201 68.5q69 0 119 -21.5t77.5 -62t27.5 -98.5q0 -61 -36.5 -112t-131.5 -89v23q86 -23 142.5 -52.5t84.5 -69.5t28 -96q0 -54 -26 -93.5t-73.5 -61t-111.5 -21.5q-42 0 -75.5 7t-61 19.5t-52.5 31.5l33 84q38 -25 74 -38t79 -13q46 0 70.5 21
t24.5 60q0 31 -20.5 58t-70.5 51.5t-140 46.5v95q55 19 87 41t45.5 47.5t13.5 56.5q0 42 -28.5 67.5t-78.5 25.5q-73 0 -108.5 -39.5t-35.5 -121.5v-490h-125z" />
    <glyph glyph-name="agrave" unicode="&#xe0;" horiz-adv-x="620" 
d="M263 -10q-66 0 -116 31.5t-78 90.5t-28 141t28 140.5t78 90t116 31.5q64 0 112.5 -31.5t64.5 -84.5h-11l11 106h120q-3 -31 -5.5 -63t-2.5 -63v-379h-124l-1 104h12q-16 -52 -65 -83t-111 -31zM298 86q59 0 95 41.5t36 125.5t-36 125t-95 41t-95 -41t-36 -125
t35.5 -125.5t95.5 -41.5zM263 554l-142 203h123l103 -203h-84z" />
    <glyph glyph-name="aacute" unicode="&#xe1;" horiz-adv-x="620" 
d="M263 -10q-66 0 -116 31.5t-78 90.5t-28 141t28 140.5t78 90t116 31.5q64 0 112.5 -31.5t64.5 -84.5h-11l11 106h120q-3 -31 -5.5 -63t-2.5 -63v-379h-124l-1 104h12q-16 -52 -65 -83t-111 -31zM298 86q59 0 95 41.5t36 125.5t-36 125t-95 41t-95 -41t-36 -125
t35.5 -125.5t95.5 -41.5zM263 554l103 203h123l-142 -203h-84z" />
    <glyph glyph-name="acircumflex" unicode="&#xe2;" horiz-adv-x="620" 
d="M263 -10q-66 0 -116 31.5t-78 90.5t-28 141t28 140.5t78 90t116 31.5q64 0 112.5 -31.5t64.5 -84.5h-11l11 106h120q-3 -31 -5.5 -63t-2.5 -63v-379h-124l-1 104h12q-16 -52 -65 -83t-111 -31zM298 86q59 0 95 41.5t36 125.5t-36 125t-95 41t-95 -41t-36 -125
t35.5 -125.5t95.5 -41.5zM140 554l110 203h110l110 -203h-79l-86 132l-86 -132h-79z" />
    <glyph glyph-name="atilde" unicode="&#xe3;" horiz-adv-x="620" 
d="M263 -10q-66 0 -116 31.5t-78 90.5t-28 141t28 140.5t78 90t116 31.5q64 0 112.5 -31.5t64.5 -84.5h-11l11 106h120q-3 -31 -5.5 -63t-2.5 -63v-379h-124l-1 104h12q-16 -52 -65 -83t-111 -31zM298 86q59 0 95 41.5t36 125.5t-36 125t-95 41t-95 -41t-36 -125
t35.5 -125.5t95.5 -41.5zM173 584l-62 4q5 71 38 109.5t82 38.5q22 0 41 -9t43 -27q21 -16 34.5 -23t26.5 -7q50 0 61 70l62 -4q-4 -71 -37 -109.5t-82 -38.5q-22 0 -41.5 9t-44.5 28q-19 16 -32.5 22.5t-27.5 6.5q-27 0 -41.5 -18.5t-19.5 -51.5z" />
    <glyph glyph-name="adieresis" unicode="&#xe4;" horiz-adv-x="620" 
d="M263 -10q-66 0 -116 31.5t-78 90.5t-28 141t28 140.5t78 90t116 31.5q64 0 112.5 -31.5t64.5 -84.5h-11l11 106h120q-3 -31 -5.5 -63t-2.5 -63v-379h-124l-1 104h12q-16 -52 -65 -83t-111 -31zM298 86q59 0 95 41.5t36 125.5t-36 125t-95 41t-95 -41t-36 -125
t35.5 -125.5t95.5 -41.5zM342 597v115h115v-115h-115zM153 597v115h115v-115h-115z" />
    <glyph glyph-name="aring" unicode="&#xe5;" horiz-adv-x="620" 
d="M263 -10q-66 0 -116 31.5t-78 90.5t-28 141t28 140.5t78 90t116 31.5q64 0 112.5 -31.5t64.5 -84.5h-11l11 106h120q-3 -31 -5.5 -63t-2.5 -63v-379h-124l-1 104h12q-16 -52 -65 -83t-111 -31zM298 86q59 0 95 41.5t36 125.5t-36 125t-95 41t-95 -41t-36 -125
t35.5 -125.5t95.5 -41.5zM305 546q-35 0 -64 16t-45.5 44t-16.5 62q0 35 16.5 62.5t45.5 44t64 16.5q36 0 64.5 -16.5t45 -44t16.5 -62.5q0 -34 -16.5 -62t-45 -44t-64.5 -16zM305 603q29 0 47 19t18 46q0 29 -18 47t-47 18q-28 0 -46.5 -18t-18.5 -46q0 -29 18.5 -47.5
t46.5 -18.5z" />
    <glyph glyph-name="ae" unicode="&#xe6;" horiz-adv-x="872" 
d="M233 -10q-57 0 -99.5 22t-65.5 58.5t-23 79.5q0 57 26.5 90.5t89 48t170.5 14.5h50v-66h-51q-65 0 -103 -8t-54 -26t-16 -48q0 -34 25 -56t68 -22q35 0 62 15.5t42.5 44t15.5 66.5v121q0 51 -25 73.5t-77 22.5q-44 0 -83.5 -11t-82.5 -36l-36 86q39 26 94.5 41t112.5 15
q74 0 120 -26.5t65 -80.5h-31q33 53 79.5 80t109.5 27q101 0 159.5 -65t58.5 -181v-32h-358v66h269l-17 -16q0 68 -29.5 105t-83.5 37q-59 0 -92.5 -40t-33.5 -120v-8q0 -87 37.5 -131t112.5 -44q41 0 79.5 11.5t72.5 38.5l37 -84q-36 -31 -87.5 -46.5t-105.5 -15.5
q-88 0 -146 36.5t-84 105.5h25q-18 -67 -69.5 -104.5t-127.5 -37.5z" />
    <glyph glyph-name="ccedilla" unicode="&#xe7;" horiz-adv-x="504" 
d="M300 -10q-78 0 -136.5 32t-90.5 91.5t-32 141.5t32.5 140t90.5 89t136 31q50 0 97.5 -15.5t77.5 -44.5l-38 -87q-27 25 -60.5 37.5t-65.5 12.5q-67 0 -104.5 -42t-37.5 -122t37.5 -123t104.5 -43q31 0 64.5 12t61.5 37l38 -86q-31 -29 -78.5 -45t-96.5 -16zM294 -195
q-30 0 -56.5 5.5t-46.5 15.5l18 56q18 -8 36 -12.5t38 -4.5q27 0 41 7.5t14 22.5q0 23 -37 23q-10 0 -19.5 -1t-22.5 -5l-19 18l14 90h67l-13 -76l-32 11q11 4 23.5 6t22.5 2q41 0 66 -19t25 -53q0 -39 -33 -62.5t-86 -23.5z" />
    <glyph glyph-name="egrave" unicode="&#xe8;" horiz-adv-x="548" 
d="M312 -10q-127 0 -199 70t-72 192q0 79 31 138t86.5 92t129.5 33q73 0 122 -31t74.5 -87t25.5 -131v-33h-368v66h279l-17 -14q0 70 -29.5 107t-85.5 37q-62 0 -95.5 -44t-33.5 -123v-13q0 -82 40.5 -122.5t114.5 -40.5q43 0 80.5 11.5t71.5 37.5l37 -84q-36 -29 -86 -45
t-106 -16zM246 554l-142 203h123l103 -203h-84z" />
    <glyph glyph-name="eacute" unicode="&#xe9;" horiz-adv-x="548" 
d="M312 -10q-127 0 -199 70t-72 192q0 79 31 138t86.5 92t129.5 33q73 0 122 -31t74.5 -87t25.5 -131v-33h-368v66h279l-17 -14q0 70 -29.5 107t-85.5 37q-62 0 -95.5 -44t-33.5 -123v-13q0 -82 40.5 -122.5t114.5 -40.5q43 0 80.5 11.5t71.5 37.5l37 -84q-36 -29 -86 -45
t-106 -16zM246 554l103 203h123l-142 -203h-84z" />
    <glyph glyph-name="ecircumflex" unicode="&#xea;" horiz-adv-x="548" 
d="M312 -10q-127 0 -199 70t-72 192q0 79 31 138t86.5 92t129.5 33q73 0 122 -31t74.5 -87t25.5 -131v-33h-368v66h279l-17 -14q0 70 -29.5 107t-85.5 37q-62 0 -95.5 -44t-33.5 -123v-13q0 -82 40.5 -122.5t114.5 -40.5q43 0 80.5 11.5t71.5 37.5l37 -84q-36 -29 -86 -45
t-106 -16zM123 554l110 203h110l110 -203h-79l-86 132l-86 -132h-79z" />
    <glyph glyph-name="edieresis" unicode="&#xeb;" horiz-adv-x="548" 
d="M312 -10q-127 0 -199 70t-72 192q0 79 31 138t86.5 92t129.5 33q73 0 122 -31t74.5 -87t25.5 -131v-33h-368v66h279l-17 -14q0 70 -29.5 107t-85.5 37q-62 0 -95.5 -44t-33.5 -123v-13q0 -82 40.5 -122.5t114.5 -40.5q43 0 80.5 11.5t71.5 37.5l37 -84q-36 -29 -86 -45
t-106 -16zM325 597v115h115v-115h-115zM136 597v115h115v-115h-115z" />
    <glyph glyph-name="igrave" unicode="&#xec;" horiz-adv-x="261" 
d="M68 0v505h125v-505h-125zM89 554l-142 203h123l103 -203h-84z" />
    <glyph glyph-name="iacute" unicode="&#xed;" horiz-adv-x="261" 
d="M68 0v505h125v-505h-125zM89 554l103 203h123l-142 -203h-84z" />
    <glyph glyph-name="icircumflex" unicode="&#xee;" horiz-adv-x="261" 
d="M68 0v505h125v-505h-125zM-34 554l110 203h110l110 -203h-79l-86 132l-86 -132h-79z" />
    <glyph glyph-name="idieresis" unicode="&#xef;" horiz-adv-x="261" 
d="M68 0v505h125v-505h-125zM168 597v115h115v-115h-115zM-21 597v115h115v-115h-115z" />
    <glyph glyph-name="eth" unicode="&#xf0;" horiz-adv-x="599" 
d="M294 -10q-76 0 -133 29.5t-88.5 82t-31.5 122.5q0 68 30.5 120t85 81t126.5 29q71 0 117.5 -32.5t68.5 -103.5h-28q0 77 -33 146t-95 119l23 -3l-199 -88l-26 58l166 72l-2 -14q-30 20 -65.5 34.5t-75.5 22.5l23 80q69 -10 125 -33.5t100 -55.5l-24 3l121 53l26 -57
l-99 -44l5 21q51 -45 83.5 -102t48 -119.5t15.5 -126.5q0 -92 -31 -158t-89.5 -101t-143.5 -35zM297 87q61 0 95.5 36.5t34.5 99.5t-34 99.5t-96 36.5q-60 0 -95 -36t-35 -100t34.5 -100t95.5 -36z" />
    <glyph glyph-name="ntilde" unicode="&#xf1;" horiz-adv-x="603" 
d="M68 0v379q0 31 -2 63t-6 63h121l10 -100h-12q24 53 71 81.5t109 28.5q89 0 134 -50t45 -156v-309h-125v303q0 61 -23.5 87.5t-70.5 26.5q-58 0 -92 -36t-34 -96v-285h-125zM170 584l-62 4q5 71 38 109.5t82 38.5q22 0 41 -9t43 -27q21 -16 34.5 -23t26.5 -7q50 0 61 70
l62 -4q-4 -71 -37 -109.5t-82 -38.5q-22 0 -41.5 9t-44.5 28q-19 16 -32.5 22.5t-27.5 6.5q-27 0 -41.5 -18.5t-19.5 -51.5z" />
    <glyph glyph-name="ograve" unicode="&#xf2;" horiz-adv-x="592" 
d="M296 -10q-78 0 -135 32t-88.5 91t-31.5 140t31.5 139.5t88.5 90.5t135 32t135.5 -32t89 -90.5t31.5 -139.5t-31.5 -140t-89 -91t-135.5 -32zM296 86q59 0 94 41.5t35 125.5t-35 125t-94 41t-94 -41t-35 -125t35 -125.5t94 -41.5zM255 554l-142 203h123l103 -203h-84z" />
    <glyph glyph-name="oacute" unicode="&#xf3;" horiz-adv-x="592" 
d="M296 -10q-78 0 -135 32t-88.5 91t-31.5 140t31.5 139.5t88.5 90.5t135 32t135.5 -32t89 -90.5t31.5 -139.5t-31.5 -140t-89 -91t-135.5 -32zM296 86q59 0 94 41.5t35 125.5t-35 125t-94 41t-94 -41t-35 -125t35 -125.5t94 -41.5zM255 554l103 203h123l-142 -203h-84z" />
    <glyph glyph-name="ocircumflex" unicode="&#xf4;" horiz-adv-x="592" 
d="M296 -10q-78 0 -135 32t-88.5 91t-31.5 140t31.5 139.5t88.5 90.5t135 32t135.5 -32t89 -90.5t31.5 -139.5t-31.5 -140t-89 -91t-135.5 -32zM296 86q59 0 94 41.5t35 125.5t-35 125t-94 41t-94 -41t-35 -125t35 -125.5t94 -41.5zM132 554l110 203h110l110 -203h-79
l-86 132l-86 -132h-79z" />
    <glyph glyph-name="otilde" unicode="&#xf5;" horiz-adv-x="592" 
d="M296 -10q-78 0 -135 32t-88.5 91t-31.5 140t31.5 139.5t88.5 90.5t135 32t135.5 -32t89 -90.5t31.5 -139.5t-31.5 -140t-89 -91t-135.5 -32zM296 86q59 0 94 41.5t35 125.5t-35 125t-94 41t-94 -41t-35 -125t35 -125.5t94 -41.5zM165 584l-62 4q5 71 38 109.5t82 38.5
q22 0 41 -9t43 -27q21 -16 34.5 -23t26.5 -7q50 0 61 70l62 -4q-4 -71 -37 -109.5t-82 -38.5q-22 0 -41.5 9t-44.5 28q-19 16 -32.5 22.5t-27.5 6.5q-27 0 -41.5 -18.5t-19.5 -51.5z" />
    <glyph glyph-name="odieresis" unicode="&#xf6;" horiz-adv-x="592" 
d="M296 -10q-78 0 -135 32t-88.5 91t-31.5 140t31.5 139.5t88.5 90.5t135 32t135.5 -32t89 -90.5t31.5 -139.5t-31.5 -140t-89 -91t-135.5 -32zM296 86q59 0 94 41.5t35 125.5t-35 125t-94 41t-94 -41t-35 -125t35 -125.5t94 -41.5zM334 597v115h115v-115h-115zM145 597v115
h115v-115h-115z" />
    <glyph glyph-name="divide" unicode="&#xf7;" horiz-adv-x="600" 
d="M54 243v88h492v-88h-492zM243 38v104h104v-104h-104zM243 432v104h104v-104h-104z" />
    <glyph glyph-name="oslash" unicode="&#xf8;" horiz-adv-x="592" 
d="M296 -10q-78 0 -135 32t-88.5 91t-31.5 140t31.5 139.5t88.5 90.5t135 32t135.5 -32t89 -90.5t31.5 -139.5t-31.5 -140t-89 -91t-135.5 -32zM296 86q67 0 103 43.5t36 123.5t-36 123t-103 43t-103 -43t-36 -123t36 -123.5t103 -43.5zM161 -49l-59 36l331 568l60 -36z" />
    <glyph glyph-name="ugrave" unicode="&#xf9;" horiz-adv-x="596" 
d="M250 -10q-93 0 -139 51t-46 156v308h125v-307q0 -56 23 -82.5t70 -26.5q53 0 86.5 36t33.5 95v285h125v-505h-122v103h14q-22 -54 -66.5 -83.5t-103.5 -29.5zM256 555l-142 203h123l103 -203h-84z" />
    <glyph glyph-name="uacute" unicode="&#xfa;" horiz-adv-x="596" 
d="M250 -10q-93 0 -139 51t-46 156v308h125v-307q0 -56 23 -82.5t70 -26.5q53 0 86.5 36t33.5 95v285h125v-505h-122v103h14q-22 -54 -66.5 -83.5t-103.5 -29.5zM256 555l103 203h123l-142 -203h-84z" />
    <glyph glyph-name="ucircumflex" unicode="&#xfb;" horiz-adv-x="596" 
d="M250 -10q-93 0 -139 51t-46 156v308h125v-307q0 -56 23 -82.5t70 -26.5q53 0 86.5 36t33.5 95v285h125v-505h-122v103h14q-22 -54 -66.5 -83.5t-103.5 -29.5zM133 555l110 203h110l110 -203h-79l-86 132l-86 -132h-79z" />
    <glyph glyph-name="udieresis" unicode="&#xfc;" horiz-adv-x="596" 
d="M250 -10q-93 0 -139 51t-46 156v308h125v-307q0 -56 23 -82.5t70 -26.5q53 0 86.5 36t33.5 95v285h125v-505h-122v103h14q-22 -54 -66.5 -83.5t-103.5 -29.5zM335 598v115h115v-115h-115zM146 598v115h115v-115h-115z" />
    <glyph glyph-name="yacute" unicode="&#xfd;" horiz-adv-x="543" 
d="M58 -227l-29 99q47 10 79 23t53 34t35 54l25 59l-3 -49l-220 512h133l158 -394h-29l159 394h126l-230 -533q-23 -54 -50 -89.5t-58 -57t-68 -33.5t-81 -19zM229 554l103 203h123l-142 -203h-84z" />
    <glyph glyph-name="thorn" unicode="&#xfe;" horiz-adv-x="620" 
d="M68 -216v952h125v-337h-12q15 53 63.5 84.5t112.5 31.5q67 0 117 -31.5t78 -90t28 -140.5t-28 -141t-77.5 -90.5t-116.5 -31.5q-64 0 -112 31t-64 83h11v-320h-125zM323 86q59 0 95 41.5t36 125.5t-36 125t-95 41t-95.5 -41t-36.5 -125t36.5 -125.5t95.5 -41.5z" />
    <glyph glyph-name="ydieresis" unicode="&#xff;" horiz-adv-x="543" 
d="M58 -227l-29 99q47 10 79 23t53 34t35 54l25 59l-3 -49l-220 512h133l158 -394h-29l159 394h126l-230 -533q-23 -54 -50 -89.5t-58 -57t-68 -33.5t-81 -19zM308 597v115h115v-115h-115zM119 597v115h115v-115h-115z" />
    <glyph glyph-name="Amacron" unicode="&#x100;" horiz-adv-x="750" 
d="M0 0l319 705h108l323 -705h-131l-86 198l52 -35h-423l54 35l-86 -198h-130zM372 567l-141 -334l-26 31h336l-21 -31l-144 334h-4zM201 806v74h346v-74h-346z" />
    <glyph glyph-name="amacron" unicode="&#x101;" horiz-adv-x="620" 
d="M263 -10q-66 0 -116 31.5t-78 90.5t-28 141t28 140.5t78 90t116 31.5q64 0 112.5 -31.5t64.5 -84.5h-11l11 106h120q-3 -31 -5.5 -63t-2.5 -63v-379h-124l-1 104h12q-16 -52 -65 -83t-111 -31zM298 86q59 0 95 41.5t36 125.5t-36 125t-95 41t-95 -41t-36 -125
t35.5 -125.5t95.5 -41.5zM147 616v74h316v-74h-316z" />
    <glyph glyph-name="Abreve" unicode="&#x102;" horiz-adv-x="750" 
d="M0 0l319 705h108l323 -705h-131l-86 198l52 -35h-423l54 35l-86 -198h-130zM372 567l-141 -334l-26 31h336l-21 -31l-144 334h-4zM374 760q-78 0 -127.5 46t-55.5 124l71 9q5 -49 34 -76.5t77 -27.5q49 0 79 27.5t34 76.5l71 -9q-6 -78 -55.5 -124t-127.5 -46z" />
    <glyph glyph-name="abreve" unicode="&#x103;" horiz-adv-x="620" 
d="M263 -10q-66 0 -116 31.5t-78 90.5t-28 141t28 140.5t78 90t116 31.5q64 0 112.5 -31.5t64.5 -84.5h-11l11 106h120q-3 -31 -5.5 -63t-2.5 -63v-379h-124l-1 104h12q-16 -52 -65 -83t-111 -31zM298 86q59 0 95 41.5t36 125.5t-36 125t-95 41t-95 -41t-36 -125
t35.5 -125.5t95.5 -41.5zM305 551q-49 0 -86 23.5t-57.5 67t-22.5 102.5l71 7q4 -60 28.5 -92t66.5 -32t66.5 32t28.5 92l71 -7q-1 -59 -22 -102.5t-58 -67t-86 -23.5z" />
    <glyph glyph-name="Aogonek" unicode="&#x104;" horiz-adv-x="750" 
d="M0 0l319 705h108l323 -705h-131l-86 198l52 -35h-423l54 35l-86 -198h-130zM372 567l-141 -334l-26 31h336l-21 -31l-144 334h-4zM687 -195q-55 0 -86.5 28t-31.5 76q0 42 28 78t74 55l38 -42q-17 -7 -31 -18.5t-22 -26.5t-8 -32q0 -25 16.5 -38t39.5 -13q15 0 28 3t27 8
l15 -61q-19 -9 -40 -13t-47 -4z" />
    <glyph glyph-name="aogonek" unicode="&#x105;" horiz-adv-x="620" 
d="M263 -10q-66 0 -116 31.5t-78 90.5t-28 141t28 140.5t78 90t116 31.5q64 0 112.5 -31.5t64.5 -84.5h-11l11 106h120q-3 -31 -5.5 -63t-2.5 -63v-379h-124l-1 104h12q-16 -52 -65 -83t-111 -31zM298 86q59 0 95 41.5t36 125.5t-36 125t-95 41t-95 -41t-36 -125
t35.5 -125.5t95.5 -41.5zM509 -195q-55 0 -86.5 28t-31.5 76q0 42 28 78t74 55l38 -42q-17 -7 -31 -18.5t-22 -26.5t-8 -32q0 -25 16.5 -38t39.5 -13q15 0 28 3t27 8l15 -61q-19 -9 -40 -13t-47 -4z" />
    <glyph glyph-name="Cacute" unicode="&#x106;" horiz-adv-x="685" 
d="M406 -10q-110 0 -188.5 44.5t-120.5 126t-42 192.5t42 192t120.5 125.5t188.5 44.5q74 0 133.5 -21t102.5 -62l-42 -102q-47 38 -90.5 54.5t-99.5 16.5q-107 0 -163.5 -64.5t-56.5 -183.5t56.5 -184t163.5 -65q56 0 99.5 16.5t90.5 55.5l42 -102q-43 -40 -102.5 -62
t-133.5 -22zM353 765l119 174h130l-159 -174h-90z" />
    <glyph glyph-name="cacute" unicode="&#x107;" horiz-adv-x="504" 
d="M300 -10q-78 0 -136.5 32t-90.5 91.5t-32 141.5t32.5 140t90.5 89t136 31q50 0 97.5 -15.5t77.5 -44.5l-38 -87q-27 25 -60.5 37.5t-65.5 12.5q-67 0 -104.5 -42t-37.5 -122t37.5 -123t104.5 -43q31 0 64.5 12t61.5 37l38 -86q-31 -29 -78.5 -45t-96.5 -16zM251 554
l103 203h123l-142 -203h-84z" />
    <glyph glyph-name="Ccircumflex" unicode="&#x108;" horiz-adv-x="685" 
d="M406 -10q-110 0 -188.5 44.5t-120.5 126t-42 192.5t42 192t120.5 125.5t188.5 44.5q74 0 133.5 -21t102.5 -62l-42 -102q-47 38 -90.5 54.5t-99.5 16.5q-107 0 -163.5 -64.5t-56.5 -183.5t56.5 -184t163.5 -65q56 0 99.5 16.5t90.5 55.5l42 -102q-43 -40 -102.5 -62
t-133.5 -22zM220 765l124 174h108l124 -174h-87l-91 104l-91 -104h-87z" />
    <glyph glyph-name="ccircumflex" unicode="&#x109;" horiz-adv-x="504" 
d="M300 -10q-78 0 -136.5 32t-90.5 91.5t-32 141.5t32.5 140t90.5 89t136 31q50 0 97.5 -15.5t77.5 -44.5l-38 -87q-27 25 -60.5 37.5t-65.5 12.5q-67 0 -104.5 -42t-37.5 -122t37.5 -123t104.5 -43q31 0 64.5 12t61.5 37l38 -86q-31 -29 -78.5 -45t-96.5 -16zM128 554
l110 203h110l110 -203h-79l-86 132l-86 -132h-79z" />
    <glyph glyph-name="Cdotaccent" unicode="&#x10a;" horiz-adv-x="685" 
d="M406 -10q-110 0 -188.5 44.5t-120.5 126t-42 192.5t42 192t120.5 125.5t188.5 44.5q74 0 133.5 -21t102.5 -62l-42 -102q-47 38 -90.5 54.5t-99.5 16.5q-107 0 -163.5 -64.5t-56.5 -183.5t56.5 -184t163.5 -65q56 0 99.5 16.5t90.5 55.5l42 -102q-43 -40 -102.5 -62
t-133.5 -22zM337 794v116h122v-116h-122z" />
    <glyph glyph-name="cdotaccent" unicode="&#x10b;" horiz-adv-x="504" 
d="M300 -10q-78 0 -136.5 32t-90.5 91.5t-32 141.5t32.5 140t90.5 89t136 31q50 0 97.5 -15.5t77.5 -44.5l-38 -87q-27 25 -60.5 37.5t-65.5 12.5q-67 0 -104.5 -42t-37.5 -122t37.5 -123t104.5 -43q31 0 64.5 12t61.5 37l38 -86q-31 -29 -78.5 -45t-96.5 -16zM232 597v116
h122v-116h-122z" />
    <glyph glyph-name="Ccaron" unicode="&#x10c;" horiz-adv-x="685" 
d="M406 -10q-110 0 -188.5 44.5t-120.5 126t-42 192.5t42 192t120.5 125.5t188.5 44.5q74 0 133.5 -21t102.5 -62l-42 -102q-47 38 -90.5 54.5t-99.5 16.5q-107 0 -163.5 -64.5t-56.5 -183.5t56.5 -184t163.5 -65q56 0 99.5 16.5t90.5 55.5l42 -102q-43 -40 -102.5 -62
t-133.5 -22zM344 765l-124 174h87l91 -104l91 104h87l-124 -174h-108z" />
    <glyph glyph-name="ccaron" unicode="&#x10d;" horiz-adv-x="504" 
d="M300 -10q-78 0 -136.5 32t-90.5 91.5t-32 141.5t32.5 140t90.5 89t136 31q50 0 97.5 -15.5t77.5 -44.5l-38 -87q-27 25 -60.5 37.5t-65.5 12.5q-67 0 -104.5 -42t-37.5 -122t37.5 -123t104.5 -43q31 0 64.5 12t61.5 37l38 -86q-31 -29 -78.5 -45t-96.5 -16zM238 554
l-110 203h79l86 -132l86 132h79l-110 -203h-110z" />
    <glyph glyph-name="Dcaron" unicode="&#x10e;" horiz-adv-x="762" 
d="M78 0v705h256q121 0 204.5 -41.5t126.5 -120t43 -190.5q0 -111 -43 -190t-126.5 -121t-204.5 -42h-256zM207 107h119q128 0 190 61t62 185q0 125 -62 185.5t-190 60.5h-119v-492zM334 765l-124 174h87l91 -104l91 104h87l-124 -174h-108z" />
    <glyph glyph-name="dcaron" unicode="&#x10f;" horiz-adv-x="620" 
d="M264 -10q-66 0 -116.5 31.5t-78.5 90.5t-28 141t28 140.5t78.5 90t116.5 31.5q63 0 111.5 -30.5t64.5 -82.5h-13v334h125v-736h-123v107h12q-16 -54 -64.5 -85.5t-112.5 -31.5zM299 86q59 0 95 41.5t36 125.5t-36 125t-95 41t-95.5 -41t-36.5 -125t36.5 -125.5
t95.5 -41.5zM594 544v192h84l-26 -192h-58z" />
    <glyph glyph-name="Dcroat" unicode="&#x110;" horiz-adv-x="762" 
d="M78 0v705h256q121 0 204.5 -41.5t126.5 -120t43 -190.5q0 -111 -43 -190t-126.5 -121t-204.5 -42h-256zM207 107h119q128 0 190 61t62 185q0 125 -62 185.5t-190 60.5h-119v-492zM-6 310v94h405v-94h-405z" />
    <glyph glyph-name="dcroat" unicode="&#x111;" horiz-adv-x="620" 
d="M263 -10q-66 0 -116 30.5t-78 88t-28 136.5t28 136t78 87.5t116 30.5q62 0 110 -30.5t64 -80.5h-11v181h-191v88h191v79h125v-79h91v-88h-91v-569h-123v105h10q-16 -52 -63.5 -83.5t-111.5 -31.5zM298 86q58 0 94 40t36 119t-36 118.5t-94 39.5q-59 0 -95 -39.5
t-36 -118.5t36 -119t95 -40z" />
    <glyph glyph-name="Emacron" unicode="&#x112;" horiz-adv-x="595" 
d="M78 0v705h475v-101h-351v-195h328v-102h-328v-205h351v-102h-475zM160 806v74h346v-74h-346z" />
    <glyph glyph-name="emacron" unicode="&#x113;" horiz-adv-x="548" 
d="M312 -10q-127 0 -199 70t-72 192q0 79 31 138t86.5 92t129.5 33q73 0 122 -31t74.5 -87t25.5 -131v-33h-368v66h279l-17 -14q0 70 -29.5 107t-85.5 37q-62 0 -95.5 -44t-33.5 -123v-13q0 -82 40.5 -122.5t114.5 -40.5q43 0 80.5 11.5t71.5 37.5l37 -84q-36 -29 -86 -45
t-106 -16zM130 616v74h316v-74h-316z" />
    <glyph glyph-name="Ebreve" unicode="&#x114;" horiz-adv-x="595" 
d="M78 0v705h475v-101h-351v-195h328v-102h-328v-205h351v-102h-475zM333 760q-78 0 -127.5 46t-55.5 124l71 9q5 -49 34 -76.5t77 -27.5q49 0 79 27.5t34 76.5l71 -9q-6 -78 -55.5 -124t-127.5 -46z" />
    <glyph glyph-name="ebreve" unicode="&#x115;" horiz-adv-x="548" 
d="M312 -10q-127 0 -199 70t-72 192q0 79 31 138t86.5 92t129.5 33q73 0 122 -31t74.5 -87t25.5 -131v-33h-368v66h279l-17 -14q0 70 -29.5 107t-85.5 37q-62 0 -95.5 -44t-33.5 -123v-13q0 -82 40.5 -122.5t114.5 -40.5q43 0 80.5 11.5t71.5 37.5l37 -84q-36 -29 -86 -45
t-106 -16zM288 551q-49 0 -86 23.5t-57.5 67t-22.5 102.5l71 7q4 -60 28.5 -92t66.5 -32t66.5 32t28.5 92l71 -7q-1 -59 -22 -102.5t-58 -67t-86 -23.5z" />
    <glyph glyph-name="Edotaccent" unicode="&#x116;" horiz-adv-x="595" 
d="M78 0v705h475v-101h-351v-195h328v-102h-328v-205h351v-102h-475zM272 794v116h122v-116h-122z" />
    <glyph glyph-name="edotaccent" unicode="&#x117;" horiz-adv-x="548" 
d="M312 -10q-127 0 -199 70t-72 192q0 79 31 138t86.5 92t129.5 33q73 0 122 -31t74.5 -87t25.5 -131v-33h-368v66h279l-17 -14q0 70 -29.5 107t-85.5 37q-62 0 -95.5 -44t-33.5 -123v-13q0 -82 40.5 -122.5t114.5 -40.5q43 0 80.5 11.5t71.5 37.5l37 -84q-36 -29 -86 -45
t-106 -16zM227 597v116h122v-116h-122z" />
    <glyph glyph-name="Eogonek" unicode="&#x118;" horiz-adv-x="595" 
d="M78 0v705h475v-101h-351v-195h328v-102h-328v-205h351v-102h-475zM489 -195q-55 0 -86.5 28t-31.5 76q0 42 28 78t74 55l38 -42q-17 -7 -31 -18.5t-22 -26.5t-8 -32q0 -25 16.5 -38t39.5 -13q15 0 28 3t27 8l15 -61q-19 -9 -40 -13t-47 -4z" />
    <glyph glyph-name="eogonek" unicode="&#x119;" horiz-adv-x="548" 
d="M312 -10q-127 0 -199 70t-72 192q0 79 31 138t86.5 92t129.5 33q73 0 122 -31t74.5 -87t25.5 -131v-33h-368v66h279l-17 -14q0 70 -29.5 107t-85.5 37q-62 0 -95.5 -44t-33.5 -123v-13q0 -82 40.5 -122.5t114.5 -40.5q43 0 80.5 11.5t71.5 37.5l37 -84q-36 -29 -86 -45
t-106 -16zM364 -195q-55 0 -86.5 28t-31.5 76q0 42 28 78t74 55l38 -42q-17 -7 -31 -18.5t-22 -26.5t-8 -32q0 -25 16.5 -38t39.5 -13q15 0 28 3t27 8l15 -61q-19 -9 -40 -13t-47 -4z" />
    <glyph glyph-name="Ecaron" unicode="&#x11a;" horiz-adv-x="595" 
d="M78 0v705h475v-101h-351v-195h328v-102h-328v-205h351v-102h-475zM279 765l-124 174h87l91 -104l91 104h87l-124 -174h-108z" />
    <glyph glyph-name="ecaron" unicode="&#x11b;" horiz-adv-x="548" 
d="M312 -10q-127 0 -199 70t-72 192q0 79 31 138t86.5 92t129.5 33q73 0 122 -31t74.5 -87t25.5 -131v-33h-368v66h279l-17 -14q0 70 -29.5 107t-85.5 37q-62 0 -95.5 -44t-33.5 -123v-13q0 -82 40.5 -122.5t114.5 -40.5q43 0 80.5 11.5t71.5 37.5l37 -84q-36 -29 -86 -45
t-106 -16zM233 554l-110 203h79l86 -132l86 132h79l-110 -203h-110z" />
    <glyph glyph-name="Gcircumflex" unicode="&#x11c;" horiz-adv-x="740" 
d="M418 -10q-119 0 -200 44t-122 125t-41 192q0 112 44 193.5t126.5 126t198.5 44.5q77 0 135 -20.5t102 -59.5l-43 -100q-32 25 -61 40t-60 21.5t-72 6.5q-116 0 -175.5 -65.5t-59.5 -187.5t56.5 -186t177.5 -64q41 0 82.5 8t81.5 23l-24 -54v211h-165v94h272v-339
q-49 -25 -117 -39t-136 -14zM232 765l124 174h108l124 -174h-87l-91 104l-91 -104h-87z" />
    <glyph glyph-name="gcircumflex" unicode="&#x11d;" horiz-adv-x="622" 
d="M302 -224q-70 0 -126.5 15t-100.5 46l27 90q29 -19 60 -31t64 -18t67 -6q70 0 104.5 34.5t34.5 98.5v121h10q-16 -52 -64.5 -83t-111.5 -31q-68 0 -118.5 30.5t-78.5 87.5t-28 134t28 133.5t78.5 87t118.5 30.5q64 0 111.5 -30.5t63.5 -82.5l-9 6l10 97h121
q-4 -31 -6 -63t-2 -63v-359q0 -119 -64.5 -181.5t-188.5 -62.5zM300 108q60 0 95.5 40.5t35.5 115.5t-35.5 115t-95.5 40q-61 0 -97 -40t-36 -115t36 -115.5t97 -40.5zM150 554l110 203h110l110 -203h-79l-86 132l-86 -132h-79z" />
    <glyph glyph-name="Gbreve" unicode="&#x11e;" horiz-adv-x="740" 
d="M418 -10q-119 0 -200 44t-122 125t-41 192q0 112 44 193.5t126.5 126t198.5 44.5q77 0 135 -20.5t102 -59.5l-43 -100q-32 25 -61 40t-60 21.5t-72 6.5q-116 0 -175.5 -65.5t-59.5 -187.5t56.5 -186t177.5 -64q41 0 82.5 8t81.5 23l-24 -54v211h-165v94h272v-339
q-49 -25 -117 -39t-136 -14zM410 760q-78 0 -127.5 46t-55.5 124l71 9q5 -49 34 -76.5t77 -27.5q49 0 79 27.5t34 76.5l71 -9q-6 -78 -55.5 -124t-127.5 -46z" />
    <glyph glyph-name="gbreve" unicode="&#x11f;" horiz-adv-x="622" 
d="M302 -224q-70 0 -126.5 15t-100.5 46l27 90q29 -19 60 -31t64 -18t67 -6q70 0 104.5 34.5t34.5 98.5v121h10q-16 -52 -64.5 -83t-111.5 -31q-68 0 -118.5 30.5t-78.5 87.5t-28 134t28 133.5t78.5 87t118.5 30.5q64 0 111.5 -30.5t63.5 -82.5l-9 6l10 97h121
q-4 -31 -6 -63t-2 -63v-359q0 -119 -64.5 -181.5t-188.5 -62.5zM300 108q60 0 95.5 40.5t35.5 115.5t-35.5 115t-95.5 40q-61 0 -97 -40t-36 -115t36 -115.5t97 -40.5zM315 551q-49 0 -86 23.5t-57.5 67t-22.5 102.5l71 7q4 -60 28.5 -92t66.5 -32t66.5 32t28.5 92l71 -7
q-1 -59 -22 -102.5t-58 -67t-86 -23.5z" />
    <glyph glyph-name="Gdotaccent" unicode="&#x120;" horiz-adv-x="740" 
d="M418 -10q-119 0 -200 44t-122 125t-41 192q0 112 44 193.5t126.5 126t198.5 44.5q77 0 135 -20.5t102 -59.5l-43 -100q-32 25 -61 40t-60 21.5t-72 6.5q-116 0 -175.5 -65.5t-59.5 -187.5t56.5 -186t177.5 -64q41 0 82.5 8t81.5 23l-24 -54v211h-165v94h272v-339
q-49 -25 -117 -39t-136 -14zM349 794v116h122v-116h-122z" />
    <glyph glyph-name="gdotaccent" unicode="&#x121;" horiz-adv-x="622" 
d="M302 -224q-70 0 -126.5 15t-100.5 46l27 90q29 -19 60 -31t64 -18t67 -6q70 0 104.5 34.5t34.5 98.5v121h10q-16 -52 -64.5 -83t-111.5 -31q-68 0 -118.5 30.5t-78.5 87.5t-28 134t28 133.5t78.5 87t118.5 30.5q64 0 111.5 -30.5t63.5 -82.5l-9 6l10 97h121
q-4 -31 -6 -63t-2 -63v-359q0 -119 -64.5 -181.5t-188.5 -62.5zM300 108q60 0 95.5 40.5t35.5 115.5t-35.5 115t-95.5 40q-61 0 -97 -40t-36 -115t36 -115.5t97 -40.5zM254 597v116h122v-116h-122z" />
    <glyph glyph-name="uni0122" unicode="&#x122;" horiz-adv-x="740" 
d="M418 -10q-119 0 -200 44t-122 125t-41 192q0 112 44 193.5t126.5 126t198.5 44.5q77 0 135 -20.5t102 -59.5l-43 -100q-32 25 -61 40t-60 21.5t-72 6.5q-116 0 -175.5 -65.5t-59.5 -187.5t56.5 -186t177.5 -64q41 0 82.5 8t81.5 23l-24 -54v211h-165v94h272v-339
q-49 -25 -117 -39t-136 -14zM429 -278l-48 32q23 22 30.5 42.5t7.5 43.5l28 -15h-92v102h131v-67q0 -41 -13 -75.5t-44 -62.5z" />
    <glyph glyph-name="uni0123" unicode="&#x123;" horiz-adv-x="622" 
d="M302 -224q-70 0 -126.5 15t-100.5 46l27 90q29 -19 60 -31t64 -18t67 -6q70 0 104.5 34.5t34.5 98.5v121h10q-16 -52 -64.5 -83t-111.5 -31q-68 0 -118.5 30.5t-78.5 87.5t-28 134t28 133.5t78.5 87t118.5 30.5q64 0 111.5 -30.5t63.5 -82.5l-9 6l10 97h121
q-4 -31 -6 -63t-2 -63v-359q0 -119 -64.5 -181.5t-188.5 -62.5zM300 108q60 0 95.5 40.5t35.5 115.5t-35.5 115t-95.5 40q-61 0 -97 -40t-36 -115t36 -115.5t97 -40.5zM249 564v67q0 41 13.5 75.5t44.5 62.5l47 -32q-22 -22 -30 -42.5t-8 -43.5l-28 15h92v-102h-131z" />
    <glyph glyph-name="Hcircumflex" unicode="&#x124;" horiz-adv-x="774" 
d="M78 0v705h129v-294h361v294h129v-705h-129v304h-361v-304h-129zM210 765l124 174h108l124 -174h-87l-91 104l-91 -104h-87z" />
    <glyph glyph-name="hcircumflex" unicode="&#x125;" horiz-adv-x="603" 
d="M68 0v736h125v-332h-14q23 54 71 82.5t110 28.5q90 0 134 -50.5t44 -153.5v-311h-125v305q0 59 -22.5 85.5t-71.5 26.5q-57 0 -91.5 -35.5t-34.5 -94.5v-287h-125zM127 781l124 174h108l124 -174h-87l-91 104l-91 -104h-87z" />
    <glyph glyph-name="Hbar" unicode="&#x126;" horiz-adv-x="821" 
d="M102 0v511h-87v94h87v100h129v-100h360v100h129v-100h87v-94h-87v-511h-129v292h-360v-292h-129zM231 400h360v111h-360v-111z" />
    <glyph glyph-name="hbar" unicode="&#x127;" horiz-adv-x="603" 
d="M68 0v569h-91v88h91v79h125v-79h195v-88h-195v-175h-14q23 53 71 81.5t110 28.5q90 0 134 -50.5t44 -153.5v-300h-125v294q0 59 -23 85t-71 26q-57 0 -91.5 -34.5t-34.5 -93.5v-277h-125z" />
    <glyph glyph-name="Itilde" unicode="&#x128;" horiz-adv-x="284" 
d="M78 0v705h129v-705h-129zM-19 772l-62 4q5 71 42 109.5t92 38.5q23 0 47 -8.5t57 -27.5q29 -16 46 -23t31 -7q29 0 46 18t23 52l62 -4q-5 -71 -41.5 -109.5t-91.5 -38.5q-24 0 -48.5 9t-59.5 29q-27 16 -43 22t-31 6q-29 0 -46 -17.5t-23 -52.5z" />
    <glyph glyph-name="itilde" unicode="&#x129;" horiz-adv-x="261" 
d="M68 0v505h125v-505h-125zM-1 584l-62 4q5 71 38 109.5t82 38.5q22 0 41 -9t43 -27q21 -16 34.5 -23t26.5 -7q50 0 61 70l62 -4q-4 -71 -37 -109.5t-82 -38.5q-22 0 -41.5 9t-44.5 28q-19 16 -32.5 22.5t-27.5 6.5q-27 0 -41.5 -18.5t-19.5 -51.5z" />
    <glyph glyph-name="Imacron" unicode="&#x12a;" horiz-adv-x="284" 
d="M78 0v705h129v-705h-129zM-31 806v74h346v-74h-346z" />
    <glyph glyph-name="imacron" unicode="&#x12b;" horiz-adv-x="261" 
d="M68 0v505h125v-505h-125zM-27 616v74h316v-74h-316z" />
    <glyph glyph-name="Ibreve" unicode="&#x12c;" horiz-adv-x="284" 
d="M78 0v705h129v-705h-129zM142 760q-78 0 -127.5 46t-55.5 124l71 9q5 -49 34 -76.5t77 -27.5q49 0 79 27.5t34 76.5l71 -9q-6 -78 -55.5 -124t-127.5 -46z" />
    <glyph glyph-name="ibreve" unicode="&#x12d;" horiz-adv-x="261" 
d="M68 0v505h125v-505h-125zM131 551q-49 0 -86 23.5t-57.5 67t-22.5 102.5l71 7q4 -60 28.5 -92t66.5 -32t66.5 32t28.5 92l71 -7q-1 -59 -22 -102.5t-58 -67t-86 -23.5z" />
    <glyph glyph-name="Iogonek" unicode="&#x12e;" horiz-adv-x="284" 
d="M78 0v705h129v-705h-129zM157 -195q-55 0 -86.5 28t-31.5 76q0 42 28 78t74 55l38 -42q-17 -7 -31 -18.5t-22 -26.5t-8 -32q0 -25 16.5 -38t39.5 -13q15 0 28 3t27 8l15 -61q-19 -9 -40 -13t-47 -4z" />
    <glyph glyph-name="iogonek" unicode="&#x12f;" horiz-adv-x="261" 
d="M68 0v505h125v-505h-125zM61 594v122h140v-122h-140zM146 -195q-55 0 -86.5 28t-31.5 76q0 42 28 78t74 55l38 -42q-17 -7 -31 -18.5t-22 -26.5t-8 -32q0 -25 16.5 -38t39.5 -13q15 0 28 3t27 8l15 -61q-19 -9 -40 -13t-47 -4z" />
    <glyph glyph-name="Idotaccent" unicode="&#x130;" horiz-adv-x="284" 
d="M78 0v705h129v-705h-129zM81 794v116h122v-116h-122z" />
    <glyph glyph-name="dotlessi" unicode="&#x131;" horiz-adv-x="261" 
d="M68 0v505h125v-505h-125z" />
    <glyph glyph-name="IJ" unicode="&#x132;" horiz-adv-x="646" 
d="M78 0v705h129v-705h-129zM374 -187q-17 0 -40.5 2t-47.5 7v102q19 -4 36.5 -6t29.5 -2q46 0 66.5 27t20.5 86v676h129v-676q0 -72 -20 -120t-62.5 -72t-111.5 -24z" />
    <glyph glyph-name="Jcircumflex" unicode="&#x134;" horiz-adv-x="362" 
d="M90 -187q-17 0 -40.5 2t-47.5 7v102q19 -4 36.5 -6t29.5 -2q46 0 66.5 27t20.5 86v676h129v-676q0 -72 -20 -120t-62.5 -72t-111.5 -24zM43 765l124 174h108l124 -174h-87l-91 104l-91 -104h-87z" />
    <glyph glyph-name="jcircumflex" unicode="&#x135;" horiz-adv-x="261" 
d="M19 -222q-19 0 -41.5 3t-39.5 10v99q13 -4 28 -7t29 -3q36 0 56.5 22t20.5 74v529h125v-536q0 -94 -43 -142.5t-135 -48.5zM-31 554l110 203h110l110 -203h-79l-86 132l-86 -132h-79z" />
    <glyph glyph-name="uni0136" unicode="&#x136;" horiz-adv-x="666" 
d="M78 0v705h129v-312h2l307 312h156l-368 -367l1 56l391 -394h-161l-326 326h-2v-326h-129zM347 -278l-48 32q23 22 30.5 42.5t7.5 43.5l28 -15h-92v102h131v-67q0 -41 -13 -75.5t-44 -62.5z" />
    <glyph glyph-name="uni0137" unicode="&#x137;" horiz-adv-x="552" 
d="M68 0v736h125v-446h2l205 215h151l-255 -267l1 50l272 -288h-155l-219 226h-2v-226h-125zM283 -278l-48 32q23 22 30.5 42.5t7.5 43.5l28 -15h-92v102h131v-67q0 -41 -13 -75.5t-44 -62.5z" />
    <glyph glyph-name="kgreenlandic" unicode="&#x138;" horiz-adv-x="552" 
d="M68 0v505h125v-215h2l205 215h151l-255 -267l1 50l272 -288h-155l-219 226h-2v-226h-125z" />
    <glyph glyph-name="Lacute" unicode="&#x139;" horiz-adv-x="560" 
d="M78 0v705h129v-596h332v-109h-461zM97 765l119 174h130l-159 -174h-90z" />
    <glyph glyph-name="lacute" unicode="&#x13a;" horiz-adv-x="261" 
d="M68 0v736h125v-736h-125zM86 781l119 174h130l-159 -174h-90z" />
    <glyph glyph-name="uni013B" unicode="&#x13b;" horiz-adv-x="560" 
d="M78 0v705h129v-596h332v-109h-461zM321 -278l-48 32q23 22 30.5 42.5t7.5 43.5l28 -15h-92v102h131v-67q0 -41 -13 -75.5t-44 -62.5z" />
    <glyph glyph-name="uni013C" unicode="&#x13c;" horiz-adv-x="261" 
d="M68 0v736h125v-736h-125zM139 -278l-48 32q23 22 30.5 42.5t7.5 43.5l28 -15h-92v102h131v-67q0 -41 -13 -75.5t-44 -62.5z" />
    <glyph glyph-name="Lcaron" unicode="&#x13d;" horiz-adv-x="560" 
d="M78 0v705h129v-596h332v-109h-461zM312 469v236h97l-23 -236h-74z" />
    <glyph glyph-name="lcaron" unicode="&#x13e;" horiz-adv-x="261" 
d="M68 0v736h125v-736h-125zM235 544v192h84l-26 -192h-58z" />
    <glyph glyph-name="Ldot" unicode="&#x13f;" horiz-adv-x="560" 
d="M78 0v705h129v-596h332v-109h-461zM359 332v123h140v-123h-140z" />
    <glyph glyph-name="ldot" unicode="&#x140;" horiz-adv-x="261" 
d="M68 0v736h125v-736h-125zM244 292v123h140v-123h-140z" />
    <glyph glyph-name="Lslash" unicode="&#x141;" horiz-adv-x="560" 
d="M78 0v705h129v-596h332v-109h-461zM12 229l-47 85l400 230l48 -85z" />
    <glyph glyph-name="lslash" unicode="&#x142;" horiz-adv-x="261" 
d="M68 0v736h125v-736h-125zM3 238l-48 84l304 176l48 -84z" />
    <glyph glyph-name="Nacute" unicode="&#x143;" horiz-adv-x="755" 
d="M78 0v705h97l409 -529h-26v529h120v-705h-97l-408 529h25v-529h-120zM335 765l119 174h130l-159 -174h-90z" />
    <glyph glyph-name="nacute" unicode="&#x144;" horiz-adv-x="603" 
d="M68 0v379q0 31 -2 63t-6 63h121l10 -100h-12q24 53 71 81.5t109 28.5q89 0 134 -50t45 -156v-309h-125v303q0 61 -23.5 87.5t-70.5 26.5q-58 0 -92 -36t-34 -96v-285h-125zM260 554l103 203h123l-142 -203h-84z" />
    <glyph glyph-name="uni0145" unicode="&#x145;" horiz-adv-x="755" 
d="M78 0v705h97l409 -529h-26v529h120v-705h-97l-408 529h25v-529h-120zM389 -278l-48 32q23 22 30.5 42.5t7.5 43.5l28 -15h-92v102h131v-67q0 -41 -13 -75.5t-44 -62.5z" />
    <glyph glyph-name="uni0146" unicode="&#x146;" horiz-adv-x="603" 
d="M68 0v379q0 31 -2 63t-6 63h121l10 -100h-12q24 53 71 81.5t109 28.5q89 0 134 -50t45 -156v-309h-125v303q0 61 -23.5 87.5t-70.5 26.5q-58 0 -92 -36t-34 -96v-285h-125zM310 -278l-48 32q23 22 30.5 42.5t7.5 43.5l28 -15h-92v102h131v-67q0 -41 -13 -75.5t-44 -62.5z
" />
    <glyph glyph-name="Ncaron" unicode="&#x147;" horiz-adv-x="755" 
d="M78 0v705h97l409 -529h-26v529h120v-705h-97l-408 529h25v-529h-120zM326 765l-124 174h87l91 -104l91 104h87l-124 -174h-108z" />
    <glyph glyph-name="ncaron" unicode="&#x148;" horiz-adv-x="603" 
d="M68 0v379q0 31 -2 63t-6 63h121l10 -100h-12q24 53 71 81.5t109 28.5q89 0 134 -50t45 -156v-309h-125v303q0 61 -23.5 87.5t-70.5 26.5q-58 0 -92 -36t-34 -96v-285h-125zM247 554l-110 203h79l86 -132l86 132h79l-110 -203h-110z" />
    <glyph glyph-name="napostrophe" unicode="&#x149;" horiz-adv-x="689" 
d="M129 567l-47 32q22 20 29 40t7 40l29 -14h-92v104h130v-67q0 -40 -12 -73t-44 -62zM154 0v379q0 31 -2 63t-6 63h121l10 -100h-12q24 53 71 81.5t109 28.5q89 0 134 -50t45 -156v-309h-125v303q0 61 -23.5 87.5t-70.5 26.5q-58 0 -92 -36t-34 -96v-285h-125z" />
    <glyph glyph-name="Eng" unicode="&#x14a;" horiz-adv-x="755" 
d="M434 -193l-9 91l50 5q41 3 62 25.5t21 64.5v58l23 -51l-408 529h25v-529h-120v705h97l409 -529h-26v529h120v-695q0 -65 -20 -108t-63.5 -65t-115.5 -27z" />
    <glyph glyph-name="eng" unicode="&#x14b;" horiz-adv-x="603" 
d="M68 0v379q0 31 -2 63t-6 63h121l10 -100h-12q24 53 71.5 81.5t108.5 28.5q89 0 134 -50t45 -156v-337q0 -94 -45 -144t-140 -50q-22 0 -42.5 3t-38.5 10v99q14 -4 27 -7t30 -3q39 0 61.5 23.5t22.5 75.5v324q0 61 -23 87.5t-70 26.5q-58 0 -92.5 -36t-34.5 -96v-285h-125
z" />
    <glyph glyph-name="Omacron" unicode="&#x14c;" horiz-adv-x="787" 
d="M55 353q0 111 40.5 192t116.5 125.5t181 44.5q104 0 180 -44.5t117.5 -125.5t41.5 -191q0 -111 -41.5 -192.5t-117.5 -126.5t-180 -45q-105 0 -180.5 45t-116.5 126.5t-41 191.5zM190 353q0 -119 51 -186t152 -67q98 0 151 67t53 186q0 120 -52.5 186t-151.5 66
q-101 0 -152 -66t-51 -186zM220 806v74h346v-74h-346z" />
    <glyph glyph-name="omacron" unicode="&#x14d;" horiz-adv-x="592" 
d="M296 -10q-78 0 -135 32t-88.5 91t-31.5 140t31.5 139.5t88.5 90.5t135 32t135.5 -32t89 -90.5t31.5 -139.5t-31.5 -140t-89 -91t-135.5 -32zM296 86q59 0 94 41.5t35 125.5t-35 125t-94 41t-94 -41t-35 -125t35 -125.5t94 -41.5zM139 616v74h316v-74h-316z" />
    <glyph glyph-name="Obreve" unicode="&#x14e;" horiz-adv-x="787" 
d="M55 353q0 111 40.5 192t116.5 125.5t181 44.5q104 0 180 -44.5t117.5 -125.5t41.5 -191q0 -111 -41.5 -192.5t-117.5 -126.5t-180 -45q-105 0 -180.5 45t-116.5 126.5t-41 191.5zM190 353q0 -119 51 -186t152 -67q98 0 151 67t53 186q0 120 -52.5 186t-151.5 66
q-101 0 -152 -66t-51 -186zM393 760q-78 0 -127.5 46t-55.5 124l71 9q5 -49 34 -76.5t77 -27.5q49 0 79 27.5t34 76.5l71 -9q-6 -78 -55.5 -124t-127.5 -46z" />
    <glyph glyph-name="obreve" unicode="&#x14f;" horiz-adv-x="592" 
d="M296 -10q-78 0 -135 32t-88.5 91t-31.5 140t31.5 139.5t88.5 90.5t135 32t135.5 -32t89 -90.5t31.5 -139.5t-31.5 -140t-89 -91t-135.5 -32zM296 86q59 0 94 41.5t35 125.5t-35 125t-94 41t-94 -41t-35 -125t35 -125.5t94 -41.5zM297 551q-49 0 -86 23.5t-57.5 67
t-22.5 102.5l71 7q4 -60 28.5 -92t66.5 -32t66.5 32t28.5 92l71 -7q-1 -59 -22 -102.5t-58 -67t-86 -23.5z" />
    <glyph glyph-name="Ohungarumlaut" unicode="&#x150;" horiz-adv-x="787" 
d="M55 353q0 111 40.5 192t116.5 125.5t181 44.5q104 0 180 -44.5t117.5 -125.5t41.5 -191q0 -111 -41.5 -192.5t-117.5 -126.5t-180 -45q-105 0 -180.5 45t-116.5 126.5t-41 191.5zM190 353q0 -119 51 -186t152 -67q98 0 151 67t53 186q0 120 -52.5 186t-151.5 66
q-101 0 -152 -66t-51 -186zM284 765l85 174h113l-127 -174h-71zM431 765l95 174h112l-136 -174h-71z" />
    <glyph glyph-name="ohungarumlaut" unicode="&#x151;" horiz-adv-x="592" 
d="M296 -10q-78 0 -135 32t-88.5 91t-31.5 140t31.5 139.5t88.5 90.5t135 32t135.5 -32t89 -90.5t31.5 -139.5t-31.5 -140t-89 -91t-135.5 -32zM296 86q59 0 94 41.5t35 125.5t-35 125t-94 41t-94 -41t-35 -125t35 -125.5t94 -41.5zM337 554l49 203h105l-88 -203h-66z
M188 554l49 203h106l-89 -203h-66z" />
    <glyph glyph-name="OE" unicode="&#x152;" horiz-adv-x="1055" 
d="M545 0v705h468v-101h-344v-195h322v-102h-322v-205h344v-102h-468zM383 -10q-102 0 -175.5 45t-113 126.5t-39.5 191.5q0 111 39 192t112.5 125.5t176.5 44.5q49 0 95.5 -11.5t79.5 -40.5v-133q-25 39 -66.5 57t-98.5 18q-101 0 -152 -66t-51 -186q0 -119 51 -186
t152 -67q58 0 100.5 19t67.5 59v-127q-21 -20 -50 -33.5t-62 -20.5t-66 -7z" />
    <glyph glyph-name="oe" unicode="&#x153;" horiz-adv-x="931" 
d="M295 -10q-77 0 -134.5 32t-88.5 91.5t-31 140.5t31 139.5t88.5 90t134.5 31.5q75 0 127 -33t80 -96h-29q29 62 80 95.5t122 33.5q101 0 159.5 -65.5t58.5 -180.5v-34h-362v66h274l-18 -14q0 68 -29.5 105t-83.5 37q-61 0 -93.5 -43.5t-32.5 -122.5v-7q0 -88 39.5 -129
t115.5 -41q41 0 77 12t70 37l37 -84q-24 -20 -55 -34t-63.5 -20.5t-61.5 -6.5q-88 0 -146.5 34.5t-87.5 98.5h29q-28 -64 -80 -98.5t-127 -34.5zM297 86q59 0 94 41.5t35 125.5q0 83 -35 124.5t-94 41.5q-60 0 -95 -41.5t-35 -124.5q0 -84 35.5 -125.5t94.5 -41.5z" />
    <glyph glyph-name="Racute" unicode="&#x154;" horiz-adv-x="702" 
d="M78 0v705h308q116 0 179.5 -55t63.5 -153q0 -65 -28.5 -111t-81.5 -70.5t-125 -24.5l14 19h34q42 0 75 -22t54 -67l103 -221h-142l-104 229q-14 35 -42.5 46t-68.5 11h-110v-286h-129zM207 381h158q68 0 103.5 28.5t35.5 83.5t-35.5 83t-103.5 28h-158v-223zM309 765
l119 174h130l-159 -174h-90z" />
    <glyph glyph-name="racute" unicode="&#x155;" horiz-adv-x="393" 
d="M67 0v376q0 32 -1.5 65t-5.5 64h121l14 -138h-20q10 50 33.5 83t57.5 49t74 16q18 0 29 -1.5t22 -5.5l-1 -110q-19 8 -32.5 10t-33.5 2q-43 0 -72.5 -18t-44 -50t-14.5 -73v-269h-126zM197 554l103 203h123l-142 -203h-84z" />
    <glyph glyph-name="uni0156" unicode="&#x156;" horiz-adv-x="702" 
d="M78 0v705h308q116 0 179.5 -55t63.5 -153q0 -65 -28.5 -111t-81.5 -70.5t-125 -24.5l14 19h34q42 0 75 -22t54 -67l103 -221h-142l-104 229q-14 35 -42.5 46t-68.5 11h-110v-286h-129zM207 381h158q68 0 103.5 28.5t35.5 83.5t-35.5 83t-103.5 28h-158v-223zM363 -278
l-48 32q23 22 30.5 42.5t7.5 43.5l28 -15h-92v102h131v-67q0 -41 -13 -75.5t-44 -62.5z" />
    <glyph glyph-name="uni0157" unicode="&#x157;" horiz-adv-x="393" 
d="M67 0v376q0 32 -1.5 65t-5.5 64h121l14 -138h-20q10 50 33.5 83t57.5 49t74 16q18 0 29 -1.5t22 -5.5l-1 -110q-19 8 -32.5 10t-33.5 2q-43 0 -72.5 -18t-44 -50t-14.5 -73v-269h-126zM138 -278l-48 32q23 22 30.5 42.5t7.5 43.5l28 -15h-92v102h131v-67q0 -41 -13 -75.5
t-44 -62.5z" />
    <glyph glyph-name="Rcaron" unicode="&#x158;" horiz-adv-x="702" 
d="M78 0v705h308q116 0 179.5 -55t63.5 -153q0 -65 -28.5 -111t-81.5 -70.5t-125 -24.5l14 19h34q42 0 75 -22t54 -67l103 -221h-142l-104 229q-14 35 -42.5 46t-68.5 11h-110v-286h-129zM207 381h158q68 0 103.5 28.5t35.5 83.5t-35.5 83t-103.5 28h-158v-223zM300 765
l-124 174h87l91 -104l91 104h87l-124 -174h-108z" />
    <glyph glyph-name="rcaron" unicode="&#x159;" horiz-adv-x="393" 
d="M67 0v376q0 32 -1.5 65t-5.5 64h121l14 -138h-20q10 50 33.5 83t57.5 49t74 16q18 0 29 -1.5t22 -5.5l-1 -110q-19 8 -32.5 10t-33.5 2q-43 0 -72.5 -18t-44 -50t-14.5 -73v-269h-126zM184 554l-110 203h79l86 -132l86 132h79l-110 -203h-110z" />
    <glyph glyph-name="Sacute" unicode="&#x15a;" horiz-adv-x="645" 
d="M324 -10q-85 0 -156.5 21.5t-122.5 59.5l40 101q34 -24 71 -40.5t79 -25t89 -8.5q79 0 114 26t35 68q0 37 -24 56.5t-86 32.5l-113 23q-97 20 -145 67t-48 126q0 66 35 115t98 76t147 27q75 0 139 -21.5t107 -61.5l-40 -96q-43 36 -94 53.5t-114 17.5q-71 0 -110.5 -27.5
t-39.5 -75.5q0 -37 24.5 -59t83.5 -34l112 -22q100 -20 148 -65.5t48 -122.5q0 -63 -34 -110.5t-96 -74t-147 -26.5zM286 765l119 174h130l-159 -174h-90z" />
    <glyph glyph-name="sacute" unicode="&#x15b;" horiz-adv-x="501" 
d="M248 -10q-65 0 -119.5 15.5t-91.5 43.5l35 84q38 -26 84 -40t93 -14q50 0 74.5 17t24.5 46q0 23 -15.5 36.5t-49.5 20.5l-100 19q-64 14 -97.5 48t-33.5 89q0 47 25.5 83t73 56.5t111.5 20.5q56 0 105.5 -15t83.5 -45l-36 -81q-31 25 -71 39t-78 14q-52 0 -76 -18.5
t-24 -47.5q0 -22 14.5 -36.5t45.5 -21.5l100 -19q67 -13 101.5 -45.5t34.5 -88.5q0 -50 -27 -86t-75 -55t-112 -19zM214 554l103 203h123l-142 -203h-84z" />
    <glyph glyph-name="Scircumflex" unicode="&#x15c;" horiz-adv-x="645" 
d="M324 -10q-85 0 -156.5 21.5t-122.5 59.5l40 101q34 -24 71 -40.5t79 -25t89 -8.5q79 0 114 26t35 68q0 37 -24 56.5t-86 32.5l-113 23q-97 20 -145 67t-48 126q0 66 35 115t98 76t147 27q75 0 139 -21.5t107 -61.5l-40 -96q-43 36 -94 53.5t-114 17.5q-71 0 -110.5 -27.5
t-39.5 -75.5q0 -37 24.5 -59t83.5 -34l112 -22q100 -20 148 -65.5t48 -122.5q0 -63 -34 -110.5t-96 -74t-147 -26.5zM153 765l124 174h108l124 -174h-87l-91 104l-91 -104h-87z" />
    <glyph glyph-name="scircumflex" unicode="&#x15d;" horiz-adv-x="501" 
d="M248 -10q-65 0 -119.5 15.5t-91.5 43.5l35 84q38 -26 84 -40t93 -14q50 0 74.5 17t24.5 46q0 23 -15.5 36.5t-49.5 20.5l-100 19q-64 14 -97.5 48t-33.5 89q0 47 25.5 83t73 56.5t111.5 20.5q56 0 105.5 -15t83.5 -45l-36 -81q-31 25 -71 39t-78 14q-52 0 -76 -18.5
t-24 -47.5q0 -22 14.5 -36.5t45.5 -21.5l100 -19q67 -13 101.5 -45.5t34.5 -88.5q0 -50 -27 -86t-75 -55t-112 -19zM91 554l110 203h110l110 -203h-79l-86 132l-86 -132h-79z" />
    <glyph glyph-name="Scedilla" unicode="&#x15e;" horiz-adv-x="645" 
d="M324 -10q-85 0 -156.5 21.5t-122.5 59.5l40 101q34 -24 71 -40.5t79 -25t89 -8.5q79 0 114 26t35 68q0 37 -24 56.5t-86 32.5l-113 23q-97 20 -145 67t-48 126q0 66 35 115t98 76t147 27q75 0 139 -21.5t107 -61.5l-40 -96q-43 36 -94 53.5t-114 17.5q-71 0 -110.5 -27.5
t-39.5 -75.5q0 -37 24.5 -59t83.5 -34l112 -22q100 -20 148 -65.5t48 -122.5q0 -63 -34 -110.5t-96 -74t-147 -26.5zM331 -195q-30 0 -56.5 5.5t-46.5 15.5l18 56q18 -8 36 -12.5t38 -4.5q27 0 41 7.5t14 22.5q0 23 -37 23q-10 0 -19.5 -1t-22.5 -5l-19 18l14 90h67l-13 -76
l-32 11q11 4 23.5 6t22.5 2q41 0 66 -19t25 -53q0 -39 -33 -62.5t-86 -23.5z" />
    <glyph glyph-name="scedilla" unicode="&#x15f;" horiz-adv-x="501" 
d="M248 -10q-65 0 -119.5 15.5t-91.5 43.5l35 84q38 -26 84 -40t93 -14q50 0 74.5 17t24.5 46q0 23 -15.5 36.5t-49.5 20.5l-100 19q-64 14 -97.5 48t-33.5 89q0 47 25.5 83t73 56.5t111.5 20.5q56 0 105.5 -15t83.5 -45l-36 -81q-31 25 -71 39t-78 14q-52 0 -76 -18.5
t-24 -47.5q0 -22 14.5 -36.5t45.5 -21.5l100 -19q67 -13 101.5 -45.5t34.5 -88.5q0 -50 -27 -86t-75 -55t-112 -19zM249 -195q-30 0 -56.5 5.5t-46.5 15.5l18 56q18 -8 36 -12.5t38 -4.5q27 0 41 7.5t14 22.5q0 23 -37 23q-10 0 -19.5 -1t-22.5 -5l-19 18l14 90h67l-13 -76
l-32 11q11 4 23.5 6t22.5 2q41 0 66 -19t25 -53q0 -39 -33 -62.5t-86 -23.5z" />
    <glyph glyph-name="Scaron" unicode="&#x160;" horiz-adv-x="645" 
d="M324 -10q-85 0 -156.5 21.5t-122.5 59.5l40 101q34 -24 71 -40.5t79 -25t89 -8.5q79 0 114 26t35 68q0 37 -24 56.5t-86 32.5l-113 23q-97 20 -145 67t-48 126q0 66 35 115t98 76t147 27q75 0 139 -21.5t107 -61.5l-40 -96q-43 36 -94 53.5t-114 17.5q-71 0 -110.5 -27.5
t-39.5 -75.5q0 -37 24.5 -59t83.5 -34l112 -22q100 -20 148 -65.5t48 -122.5q0 -63 -34 -110.5t-96 -74t-147 -26.5zM277 765l-124 174h87l91 -104l91 104h87l-124 -174h-108z" />
    <glyph glyph-name="scaron" unicode="&#x161;" horiz-adv-x="501" 
d="M248 -10q-65 0 -119.5 15.5t-91.5 43.5l35 84q38 -26 84 -40t93 -14q50 0 74.5 17t24.5 46q0 23 -15.5 36.5t-49.5 20.5l-100 19q-64 14 -97.5 48t-33.5 89q0 47 25.5 83t73 56.5t111.5 20.5q56 0 105.5 -15t83.5 -45l-36 -81q-31 25 -71 39t-78 14q-52 0 -76 -18.5
t-24 -47.5q0 -22 14.5 -36.5t45.5 -21.5l100 -19q67 -13 101.5 -45.5t34.5 -88.5q0 -50 -27 -86t-75 -55t-112 -19zM201 554l-110 203h79l86 -132l86 132h79l-110 -203h-110z" />
    <glyph glyph-name="uni0162" unicode="&#x162;" horiz-adv-x="619" 
d="M244 0v599h-233v106h595v-106h-233v-599h-129zM311 -195q-30 0 -56.5 5.5t-46.5 15.5l18 56q18 -8 36 -12.5t38 -4.5q27 0 41 7.5t14 22.5q0 23 -37 23q-10 0 -19.5 -1t-22.5 -5l-19 18l14 90h67l-13 -76l-32 11q11 4 23.5 6t22.5 2q41 0 66 -19t25 -53q0 -39 -33 -62.5
t-86 -23.5z" />
    <glyph glyph-name="uni0163" unicode="&#x163;" horiz-adv-x="379" 
d="M284 -10q-90 0 -136 47t-46 141v233h-97v94h97v129l125 32v-161h135v-94h-135v-225q0 -52 20 -73t55 -21q19 0 32.5 3t26.5 8v-99q-17 -7 -37.5 -10.5t-39.5 -3.5zM241 -195q-30 0 -56.5 5.5t-46.5 15.5l18 56q18 -8 36 -12.5t38 -4.5q27 0 41 7.5t14 22.5q0 23 -37 23
q-10 0 -19.5 -1t-22.5 -5l-19 18l14 90h67l-13 -76l-32 11q11 4 23.5 6t22.5 2q41 0 66 -19t25 -53q0 -39 -33 -62.5t-86 -23.5z" />
    <glyph glyph-name="Tcaron" unicode="&#x164;" horiz-adv-x="619" 
d="M244 0v599h-233v106h595v-106h-233v-599h-129zM256 765l-124 174h87l91 -104l91 104h87l-124 -174h-108z" />
    <glyph glyph-name="tcaron" unicode="&#x165;" horiz-adv-x="379" 
d="M284 -10q-90 0 -136 47t-46 141v233h-97v94h97v129l125 32v-161h135v-94h-135v-225q0 -52 20 -73t55 -21q19 0 32.5 3t26.5 8v-99q-17 -7 -37.5 -10.5t-39.5 -3.5zM285 547v174h84l-26 -174h-58z" />
    <glyph glyph-name="Tbar" unicode="&#x166;" horiz-adv-x="619" 
d="M244 0v599h-233v106h595v-106h-233v-599h-129zM107 310v94h405v-94h-405z" />
    <glyph glyph-name="tbar" unicode="&#x167;" horiz-adv-x="379" 
d="M284 -10q-90 0 -136 47t-46 141v233h-97v94h97v129l125 32v-161h135v-94h-135v-225q0 -52 20 -73t55 -21q19 0 32.5 3t26.5 8v-99q-17 -7 -37.5 -10.5t-39.5 -3.5zM34 232v76h307v-76h-307z" />
    <glyph glyph-name="Utilde" unicode="&#x168;" horiz-adv-x="740" 
d="M372 -10q-151 0 -224.5 75.5t-73.5 223.5v416h129v-415q0 -94 40.5 -142t128.5 -48q84 0 126.5 48t42.5 142v415h127v-416q0 -148 -74.5 -223.5t-221.5 -75.5zM211 772l-62 4q5 71 42 109.5t92 38.5q23 0 47 -8.5t57 -27.5q29 -16 46 -23t31 -7q29 0 46 18t23 52l62 -4
q-5 -71 -41.5 -109.5t-91.5 -38.5q-24 0 -48.5 9t-59.5 29q-27 16 -43 22t-31 6q-29 0 -46 -17.5t-23 -52.5z" />
    <glyph glyph-name="utilde" unicode="&#x169;" horiz-adv-x="596" 
d="M250 -10q-93 0 -139 51t-46 156v308h125v-307q0 -56 23 -82.5t70 -26.5q53 0 86.5 36t33.5 95v285h125v-505h-122v103h14q-22 -54 -66.5 -83.5t-103.5 -29.5zM166 585l-62 4q5 71 38 109.5t82 38.5q22 0 41 -9t43 -27q21 -16 34.5 -23t26.5 -7q50 0 61 70l62 -4
q-4 -71 -37 -109.5t-82 -38.5q-22 0 -41.5 9t-44.5 28q-19 16 -32.5 22.5t-27.5 6.5q-27 0 -41.5 -18.5t-19.5 -51.5z" />
    <glyph glyph-name="Umacron" unicode="&#x16a;" horiz-adv-x="740" 
d="M372 -10q-151 0 -224.5 75.5t-73.5 223.5v416h129v-415q0 -94 40.5 -142t128.5 -48q84 0 126.5 48t42.5 142v415h127v-416q0 -148 -74.5 -223.5t-221.5 -75.5zM199 806v74h346v-74h-346z" />
    <glyph glyph-name="umacron" unicode="&#x16b;" horiz-adv-x="596" 
d="M250 -10q-93 0 -139 51t-46 156v308h125v-307q0 -56 23 -82.5t70 -26.5q53 0 86.5 36t33.5 95v285h125v-505h-122v103h14q-22 -54 -66.5 -83.5t-103.5 -29.5zM140 617v74h316v-74h-316z" />
    <glyph glyph-name="Ubreve" unicode="&#x16c;" horiz-adv-x="740" 
d="M372 -10q-151 0 -224.5 75.5t-73.5 223.5v416h129v-415q0 -94 40.5 -142t128.5 -48q84 0 126.5 48t42.5 142v415h127v-416q0 -148 -74.5 -223.5t-221.5 -75.5zM372 760q-78 0 -127.5 46t-55.5 124l71 9q5 -49 34 -76.5t77 -27.5q49 0 79 27.5t34 76.5l71 -9
q-6 -78 -55.5 -124t-127.5 -46z" />
    <glyph glyph-name="ubreve" unicode="&#x16d;" horiz-adv-x="596" 
d="M250 -10q-93 0 -139 51t-46 156v308h125v-307q0 -56 23 -82.5t70 -26.5q53 0 86.5 36t33.5 95v285h125v-505h-122v103h14q-22 -54 -66.5 -83.5t-103.5 -29.5zM298 552q-49 0 -86 23.5t-57.5 67t-22.5 102.5l71 7q4 -60 28.5 -92t66.5 -32t66.5 32t28.5 92l71 -7
q-1 -59 -22 -102.5t-58 -67t-86 -23.5z" />
    <glyph glyph-name="Uring" unicode="&#x16e;" horiz-adv-x="740" 
d="M372 -10q-151 0 -224.5 75.5t-73.5 223.5v416h129v-415q0 -94 40.5 -142t128.5 -48q84 0 126.5 48t42.5 142v415h127v-416q0 -148 -74.5 -223.5t-221.5 -75.5zM372 755q-35 0 -64 16.5t-45.5 44.5t-16.5 62q0 35 16.5 62.5t45.5 43.5t64 16q36 0 64.5 -16t45 -43.5
t16.5 -62.5q0 -34 -16.5 -62t-45 -44.5t-64.5 -16.5zM372 812q29 0 47 19t18 47t-18 46.5t-47 18.5q-28 0 -46.5 -18.5t-18.5 -46.5t18.5 -47t46.5 -19z" />
    <glyph glyph-name="uring" unicode="&#x16f;" horiz-adv-x="596" 
d="M250 -10q-93 0 -139 51t-46 156v308h125v-307q0 -56 23 -82.5t70 -26.5q53 0 86.5 36t33.5 95v285h125v-505h-122v103h14q-22 -54 -66.5 -83.5t-103.5 -29.5zM298 547q-35 0 -64 16t-45.5 44t-16.5 62q0 35 16.5 62.5t45.5 44t64 16.5q36 0 64.5 -16.5t45 -44t16.5 -62.5
q0 -34 -16.5 -62t-45 -44t-64.5 -16zM298 604q29 0 47 19t18 46q0 29 -18 47t-47 18q-28 0 -46.5 -18t-18.5 -46q0 -29 18.5 -47.5t46.5 -18.5z" />
    <glyph glyph-name="Uhungarumlaut" unicode="&#x170;" horiz-adv-x="740" 
d="M372 -10q-151 0 -224.5 75.5t-73.5 223.5v416h129v-415q0 -94 40.5 -142t128.5 -48q84 0 126.5 48t42.5 142v415h127v-416q0 -148 -74.5 -223.5t-221.5 -75.5zM263 765l85 174h113l-127 -174h-71zM410 765l95 174h112l-136 -174h-71z" />
    <glyph glyph-name="uhungarumlaut" unicode="&#x171;" horiz-adv-x="596" 
d="M250 -10q-93 0 -139 51t-46 156v308h125v-307q0 -56 23 -82.5t70 -26.5q53 0 86.5 36t33.5 95v285h125v-505h-122v103h14q-22 -54 -66.5 -83.5t-103.5 -29.5zM338 555l49 203h105l-88 -203h-66zM189 555l49 203h106l-89 -203h-66z" />
    <glyph glyph-name="Uogonek" unicode="&#x172;" horiz-adv-x="740" 
d="M372 -10q-151 0 -224.5 75.5t-73.5 223.5v416h129v-415q0 -94 40.5 -142t128.5 -48q84 0 126.5 48t42.5 142v415h127v-416q0 -148 -74.5 -223.5t-221.5 -75.5zM439 -195q-55 0 -86.5 28t-31.5 76q0 42 28 78t74 55l38 -42q-17 -7 -31 -18.5t-22 -26.5t-8 -32
q0 -25 16.5 -38t39.5 -13q15 0 28 3t27 8l15 -61q-19 -9 -40 -13t-47 -4z" />
    <glyph glyph-name="uogonek" unicode="&#x173;" horiz-adv-x="596" 
d="M250 -10q-93 0 -139 51t-46 156v308h125v-307q0 -56 23 -82.5t70 -26.5q53 0 86.5 36t33.5 95v285h125v-505h-122v103h14q-22 -54 -66.5 -83.5t-103.5 -29.5zM476 -195q-55 0 -86.5 28t-31.5 76q0 42 28 78t74 55l38 -42q-17 -7 -31 -18.5t-22 -26.5t-8 -32
q0 -25 16.5 -38t39.5 -13q15 0 28 3t27 8l15 -61q-19 -9 -40 -13t-47 -4z" />
    <glyph glyph-name="Wcircumflex" unicode="&#x174;" horiz-adv-x="1121" 
d="M274 0l-249 705h134l192 -578h-40l207 578h96l192 -578h-37l201 578h126l-251 -705h-107l-186 542h22l-193 -542h-107zM383 765l124 174h108l124 -174h-87l-91 104l-91 -104h-87z" />
    <glyph glyph-name="wcircumflex" unicode="&#x175;" horiz-adv-x="883" 
d="M208 0l-197 505h129l142 -393h-26l144 393h89l143 -393h-23l141 393h122l-197 -505h-110l-151 402h53l-148 -402h-111zM277 554l110 203h110l110 -203h-79l-86 132l-86 -132h-79z" />
    <glyph glyph-name="Ycircumflex" unicode="&#x176;" horiz-adv-x="629" 
d="M250 0v333l27 -77l-303 449h149l208 -320h-28l208 320h144l-302 -449l26 77v-333h-129zM137 765l124 174h108l124 -174h-87l-91 104l-91 -104h-87z" />
    <glyph glyph-name="ycircumflex" unicode="&#x177;" horiz-adv-x="543" 
d="M58 -227l-29 99q47 10 79 23t53 34t35 54l25 59l-3 -49l-220 512h133l158 -394h-29l159 394h126l-230 -533q-23 -54 -50 -89.5t-58 -57t-68 -33.5t-81 -19zM106 554l110 203h110l110 -203h-79l-86 132l-86 -132h-79z" />
    <glyph glyph-name="Ydieresis" unicode="&#x178;" horiz-adv-x="629" 
d="M250 0v333l27 -77l-303 449h149l208 -320h-28l208 320h144l-302 -449l26 77v-333h-129zM352 790v115h115v-115h-115zM163 790v115h115v-115h-115z" />
    <glyph glyph-name="Zacute" unicode="&#x179;" horiz-adv-x="608" 
d="M45 0v95l395 544v-41h-395v107h518v-94l-396 -544v40h409v-107h-531zM266 765l119 174h130l-159 -174h-90z" />
    <glyph glyph-name="zacute" unicode="&#x17a;" horiz-adv-x="526" 
d="M48 0v82l316 359v-30h-316v94h429v-82l-319 -362l-1 33h331v-94h-440zM225 554l103 203h123l-142 -203h-84z" />
    <glyph glyph-name="Zdotaccent" unicode="&#x17b;" horiz-adv-x="608" 
d="M45 0v95l395 544v-41h-395v107h518v-94l-396 -544v40h409v-107h-531zM250 794v116h122v-116h-122z" />
    <glyph glyph-name="zdotaccent" unicode="&#x17c;" horiz-adv-x="526" 
d="M48 0v82l316 359v-30h-316v94h429v-82l-319 -362l-1 33h331v-94h-440zM206 597v116h122v-116h-122z" />
    <glyph glyph-name="Zcaron" unicode="&#x17d;" horiz-adv-x="608" 
d="M45 0v95l395 544v-41h-395v107h518v-94l-396 -544v40h409v-107h-531zM257 765l-124 174h87l91 -104l91 104h87l-124 -174h-108z" />
    <glyph glyph-name="zcaron" unicode="&#x17e;" horiz-adv-x="526" 
d="M48 0v82l316 359v-30h-316v94h429v-82l-319 -362l-1 33h331v-94h-440zM212 554l-110 203h79l86 -132l86 132h79l-110 -203h-110z" />
    <glyph glyph-name="uni0181" unicode="&#x181;" horiz-adv-x="845" 
d="M232 0v614h-27q-52 0 -76 -23.5t-24 -73.5v-48h-106v52q0 92 53 138t161 46h329q114 0 176 -48.5t62 -134.5q0 -64 -38 -108t-104 -59v15q77 -11 119 -56t42 -117q0 -94 -65 -145.5t-181 -51.5h-321zM356 98h182q69 0 103 26t34 79t-33.5 79.5t-103.5 26.5h-182v-211z
M356 406h164q68 0 101.5 25.5t33.5 75.5t-33.5 75.5t-101.5 25.5h-164v-202z" />
    <glyph glyph-name="uni018A" unicode="&#x18a;" horiz-adv-x="917" 
d="M232 0v614h-27q-52 0 -76 -23.5t-24 -73.5v-48h-106v52q0 92 52.5 138t156.5 46h281q179 0 276 -91t97 -261t-97 -261.5t-276 -91.5h-257zM361 107h119q128 0 190.5 61t62.5 185q0 125 -62.5 185.5t-190.5 60.5h-119v-492z" />
    <glyph glyph-name="uni018F" unicode="&#x18f;" horiz-adv-x="766" 
d="M383 -10q-115 0 -187.5 46.5t-106.5 129.5t-34 193v45h552v-100h-455l32 49q0 -85 18.5 -142t61.5 -86t114 -29q97 0 150 65.5t53 192.5q0 122 -57.5 186.5t-177.5 64.5q-44 0 -80.5 -7.5t-69 -23.5t-66.5 -41l-45 98q52 41 118.5 62.5t157.5 21.5q111 0 189.5 -43.5
t119.5 -124.5t41 -194q0 -111 -40.5 -192.5t-114.5 -126t-173 -44.5z" />
    <glyph glyph-name="florin" unicode="&#x192;" horiz-adv-x="600" 
d="M32 -190v99h57q37 0 60 20.5t34 70.5l87 410l23 -15h-135v94h150l-25 -17l12 56q17 90 71.5 138.5t140.5 48.5h60v-100h-47q-43 0 -67 -20.5t-35 -70.5l-11 -52l-17 17h135v-94h-152l21 16l-89 -415q-19 -89 -71.5 -137.5t-135.5 -48.5h-66z" />
    <glyph glyph-name="Ohorn" unicode="&#x1a0;" horiz-adv-x="787" 
d="M55 353q0 111 40.5 192t116.5 125.5t181 44.5q104 0 180 -44.5t117.5 -125.5t41.5 -191q0 -111 -41.5 -192.5t-117.5 -126.5t-180 -45q-105 0 -180.5 45t-116.5 126.5t-41 191.5zM190 353q0 -119 51 -186t152 -67q98 0 151 67t53 186q0 120 -52.5 186t-151.5 66
q-101 0 -152 -66t-51 -186zM503 641l-44 68q23 -1 39 -2.5t32 -1.5q36 0 57.5 9.5t31.5 33t10 63.5v21h108v-37q0 -43 -18 -78t-50 -55.5t-74 -20.5h-92z" />
    <glyph glyph-name="ohorn" unicode="&#x1a1;" horiz-adv-x="592" 
d="M296 -10q-78 0 -135 32t-88.5 91t-31.5 140t31.5 139.5t88.5 90.5t135 32t135.5 -32t89 -90.5t31.5 -139.5t-31.5 -140t-89 -91t-135.5 -32zM296 86q59 0 94 41.5t35 125.5t-35 125t-94 41t-94 -41t-35 -125t35 -125.5t94 -41.5zM423 441l-72 45v19q36 1 57.5 10.5
t31.5 32.5t10 63v21h108v-37q0 -43 -16.5 -76t-46.5 -53.5t-72 -24.5z" />
    <glyph glyph-name="Uhorn" unicode="&#x1af;" horiz-adv-x="740" 
d="M372 -10q-151 0 -224.5 75.5t-73.5 223.5v416h129v-415q0 -94 40.5 -142t128.5 -48q84 0 126.5 48t42.5 142v415h127v-416q0 -148 -74.5 -223.5t-221.5 -75.5zM657 641l-71 45v19q36 1 57.5 10.5t31 32.5t9.5 63v21h109v-37q0 -43 -16.5 -76t-47 -53.5t-72.5 -24.5z" />
    <glyph glyph-name="uhorn" unicode="&#x1b0;" horiz-adv-x="596" 
d="M250 -10q-93 0 -139 51t-46 156v308h125v-307q0 -56 23 -82.5t70 -26.5q53 0 86.5 36t33.5 95v285h125v-505h-122v103h14q-22 -54 -66.5 -83.5t-103.5 -29.5zM506 441l-72 45v19q36 1 57.5 10.5t31.5 32.5t10 63v21h108v-37q0 -43 -16.5 -76t-46.5 -53.5t-72 -24.5z" />
    <glyph glyph-name="uni01B3" unicode="&#x1b3;" horiz-adv-x="629" 
d="M250 0v363l27 -77l-303 419h149l208 -290h-28l145 207q33 47 75.5 70t100.5 23q20 0 39 -3t32 -9v-89q-10 4 -22.5 5.5t-27.5 1.5q-25 0 -47.5 -11t-41.5 -37l-203 -287l26 77v-363h-129z" />
    <glyph glyph-name="uni01B4" unicode="&#x1b4;" horiz-adv-x="589" 
d="M58 -227l-29 99q47 10 79 23t53 34t35 54l25 59l-3 -49l-220 512h133l158 -394h-29l114 282q24 59 64.5 90.5t110.5 31.5q21 0 40.5 -3t32.5 -8l-16 -93q-10 4 -20 5t-19 1q-31 0 -53 -16t-41 -60l-158 -369q-23 -54 -50 -89.5t-58 -57t-68 -33.5t-81 -19z" />
    <glyph glyph-name="uni01C4" unicode="&#x1c4;" horiz-adv-x="1355" 
d="M78 0v705h256q121 0 204.5 -41.5t126.5 -120t43 -190.5q0 -111 -43 -190t-126.5 -121t-204.5 -42h-256zM207 107h119q128 0 190 61t62 185q0 125 -62 185.5t-190 60.5h-119v-492zM792 0v95l395 544v-41h-395v107h518v-94l-396 -544v40h409v-107h-531zM1004 765l-124 174
h87l91 -104l91 104h87l-124 -174h-108z" />
    <glyph glyph-name="uni01C5" unicode="&#x1c5;" horiz-adv-x="1288" 
d="M78 0v705h256q121 0 204.5 -41.5t126.5 -120t43 -190.5q0 -111 -43 -190t-126.5 -121t-204.5 -42h-256zM207 107h119q128 0 190 61t62 185q0 125 -62 185.5t-190 60.5h-119v-492zM810 0v82l316 359v-30h-316v94h429v-82l-319 -362l-1 33h331v-94h-440zM974 554l-110 203
h79l86 -132l86 132h79l-110 -203h-110z" />
    <glyph glyph-name="uni01C6" unicode="&#x1c6;" horiz-adv-x="1146" 
d="M264 -10q-66 0 -116.5 31.5t-78.5 90.5t-28 141t28 140.5t78.5 90t116.5 31.5q63 0 111.5 -30.5t64.5 -82.5h-13v334h125v-736h-123v107h12q-16 -54 -64.5 -85.5t-112.5 -31.5zM299 86q59 0 95 41.5t36 125.5t-36 125t-95 41t-95.5 -41t-36.5 -125t36.5 -125.5
t95.5 -41.5zM668 0v82l316 359v-30h-316v94h429v-82l-319 -362l-1 33h331v-94h-440zM832 554l-110 203h79l86 -132l86 132h79l-110 -203h-110z" />
    <glyph glyph-name="uni01C7" unicode="&#x1c7;" horiz-adv-x="962" 
d="M78 0v705h129v-596h332v-109h-461zM690 -187q-17 0 -40.5 2t-47.5 7v102q19 -4 36.5 -6t29.5 -2q46 0 66.5 27t20.5 86v676h129v-676q0 -72 -20 -120t-62.5 -72t-111.5 -24z" />
    <glyph glyph-name="uni01C8" unicode="&#x1c8;" horiz-adv-x="821" 
d="M78 0v705h129v-596h332v-109h-461zM578 -222q-19 0 -41.5 3t-39.5 10v99q13 -4 28 -7t29 -3q36 0 56.5 22t20.5 74v529h125v-536q0 -94 -43 -142.5t-135 -48.5zM623 600v122h139v-122h-139z" />
    <glyph glyph-name="uni01C9" unicode="&#x1c9;" horiz-adv-x="521" 
d="M68 0v736h125v-736h-125zM279 -222q-19 0 -41.5 3t-39.5 10v99q13 -4 28 -7t29 -3q36 0 56.5 22t20.5 74v529h125v-536q0 -94 -43 -142.5t-135 -48.5zM324 600v122h139v-122h-139z" />
    <glyph glyph-name="uni01CA" unicode="&#x1ca;" horiz-adv-x="1117" 
d="M78 0v705h97l409 -529h-26v529h120v-705h-97l-408 529h25v-529h-120zM845 -187q-17 0 -40.5 2t-47.5 7v102q19 -4 36.5 -6t29.5 -2q46 0 66.5 27t20.5 86v676h129v-676q0 -72 -20 -120t-62.5 -72t-111.5 -24z" />
    <glyph glyph-name="uni01CB" unicode="&#x1cb;" horiz-adv-x="1016" 
d="M78 0v705h97l409 -529h-26v529h120v-705h-97l-408 529h25v-529h-120zM773 -222q-19 0 -41.5 3t-39.5 10v99q13 -4 28 -7t29 -3q36 0 56.5 22t20.5 74v529h125v-536q0 -94 -43 -142.5t-135 -48.5zM818 600v122h139v-122h-139z" />
    <glyph glyph-name="uni01CC" unicode="&#x1cc;" horiz-adv-x="863" 
d="M68 0v379q0 31 -2 63t-6 63h121l10 -100h-12q24 53 71 81.5t109 28.5q89 0 134 -50t45 -156v-309h-125v303q0 61 -23.5 87.5t-70.5 26.5q-58 0 -92 -36t-34 -96v-285h-125zM621 -222q-19 0 -41.5 3t-39.5 10v99q13 -4 28 -7t29 -3q36 0 56.5 22t20.5 74v529h125v-536
q0 -94 -43 -142.5t-135 -48.5zM666 600v122h139v-122h-139z" />
    <glyph glyph-name="uni01CD" unicode="&#x1cd;" horiz-adv-x="750" 
d="M0 0l319 705h108l323 -705h-131l-86 198l52 -35h-423l54 35l-86 -198h-130zM372 567l-141 -334l-26 31h336l-21 -31l-144 334h-4zM320 765l-124 174h87l91 -104l91 104h87l-124 -174h-108z" />
    <glyph glyph-name="uni01CE" unicode="&#x1ce;" horiz-adv-x="620" 
d="M263 -10q-66 0 -116 31.5t-78 90.5t-28 141t28 140.5t78 90t116 31.5q64 0 112.5 -31.5t64.5 -84.5h-11l11 106h120q-3 -31 -5.5 -63t-2.5 -63v-379h-124l-1 104h12q-16 -52 -65 -83t-111 -31zM298 86q59 0 95 41.5t36 125.5t-36 125t-95 41t-95 -41t-36 -125
t35.5 -125.5t95.5 -41.5zM250 554l-110 203h79l86 -132l86 132h79l-110 -203h-110z" />
    <glyph glyph-name="uni01D4" unicode="&#x1d4;" horiz-adv-x="596" 
d="M250 -10q-93 0 -139 51t-46 156v308h125v-307q0 -56 23 -82.5t70 -26.5q53 0 86.5 36t33.5 95v285h125v-505h-122v103h14q-22 -54 -66.5 -83.5t-103.5 -29.5zM243 555l-110 203h79l86 -132l86 132h79l-110 -203h-110z" />
    <glyph glyph-name="uni01E5" unicode="&#x1e5;" horiz-adv-x="623" 
d="M301 -223q-70 0 -126 14.5t-101 45.5l27 92q28 -20 59.5 -34t65 -21t66.5 -7q108 0 132 79l8 -11h-130v57h144l-16 -22q1 7 1.5 13.5t0.5 13.5v149h10q-16 -51 -65 -80.5t-111 -29.5q-68 0 -118.5 29t-78.5 83t-28 127q0 74 28 128t78.5 83t118.5 29q62 0 110.5 -29.5
t64.5 -81.5l-12 -2l11 103h120q-3 -31 -5.5 -63t-2.5 -63l2 -358v-20.5t-2 -20.5l-13 12h77v-57h-84l16 13q-18 -84 -80.5 -127.5t-166.5 -43.5zM299 130q60 0 95.5 37.5t35.5 106.5q0 70 -35.5 107.5t-95.5 37.5q-61 0 -96.5 -37.5t-35.5 -107.5t35.5 -107t96.5 -37z" />
    <glyph glyph-name="Gcaron" unicode="&#x1e6;" horiz-adv-x="740" 
d="M418 -10q-119 0 -200 44t-122 125t-41 192q0 112 44 193.5t126.5 126t198.5 44.5q77 0 135 -20.5t102 -59.5l-43 -100q-32 25 -61 40t-60 21.5t-72 6.5q-116 0 -175.5 -65.5t-59.5 -187.5t56.5 -186t177.5 -64q41 0 82.5 8t81.5 23l-24 -54v211h-165v94h272v-339
q-49 -25 -117 -39t-136 -14zM356 765l-124 174h87l91 -104l91 104h87l-124 -174h-108z" />
    <glyph glyph-name="gcaron" unicode="&#x1e7;" horiz-adv-x="622" 
d="M302 -224q-70 0 -126.5 15t-100.5 46l27 90q29 -19 60 -31t64 -18t67 -6q70 0 104.5 34.5t34.5 98.5v121h10q-16 -52 -64.5 -83t-111.5 -31q-68 0 -118.5 30.5t-78.5 87.5t-28 134t28 133.5t78.5 87t118.5 30.5q64 0 111.5 -30.5t63.5 -82.5l-9 6l10 97h121
q-4 -31 -6 -63t-2 -63v-359q0 -119 -64.5 -181.5t-188.5 -62.5zM300 108q60 0 95.5 40.5t35.5 115.5t-35.5 115t-95.5 40q-61 0 -97 -40t-36 -115t36 -115.5t97 -40.5zM260 554l-110 203h79l86 -132l86 132h79l-110 -203h-110z" />
    <glyph glyph-name="uni01E9" unicode="&#x1e9;" horiz-adv-x="552" 
d="M68 0v736h125v-446h2l205 215h151l-255 -267l1 50l272 -288h-155l-219 226h-2v-226h-125zM226 781l-124 174h87l91 -104l91 104h87l-124 -174h-108z" />
    <glyph glyph-name="uni01EA" unicode="&#x1ea;" horiz-adv-x="787" 
d="M55 353q0 111 40.5 192t116.5 125.5t181 44.5q104 0 180 -44.5t117.5 -125.5t41.5 -191q0 -111 -41.5 -192.5t-117.5 -126.5t-180 -45q-105 0 -180.5 45t-116.5 126.5t-41 191.5zM190 353q0 -119 51 -186t152 -67q98 0 151 67t53 186q0 120 -52.5 186t-151.5 66
q-101 0 -152 -66t-51 -186zM438 -195q-55 0 -86.5 28t-31.5 76q0 42 28 78t74 55l38 -42q-17 -7 -31 -18.5t-22 -26.5t-8 -32q0 -25 16.5 -38t39.5 -13q15 0 28 3t27 8l15 -61q-19 -9 -40 -13t-47 -4z" />
    <glyph glyph-name="uni01EB" unicode="&#x1eb;" horiz-adv-x="592" 
d="M296 -10q-78 0 -135 32t-88.5 91t-31.5 140t31.5 139.5t88.5 90.5t135 32t135.5 -32t89 -90.5t31.5 -139.5t-31.5 -140t-89 -91t-135.5 -32zM296 86q59 0 94 41.5t35 125.5t-35 125t-94 41t-94 -41t-35 -125t35 -125.5t94 -41.5zM331 -195q-55 0 -86.5 28t-31.5 76
q0 42 28 78t74 55l38 -42q-17 -7 -31 -18.5t-22 -26.5t-8 -32q0 -25 16.5 -38t39.5 -13q15 0 28 3t27 8l15 -61q-19 -9 -40 -13t-47 -4z" />
    <glyph glyph-name="Aringacute" unicode="&#x1fa;" horiz-adv-x="750" 
d="M0 0l319 705h108l323 -705h-131l-86 198l52 -35h-423l54 35l-86 -198h-130zM372 567l-141 -334l-26 31h336l-21 -31l-144 334h-4zM374 755q-34 0 -61.5 15.5t-43.5 42.5t-16 60t16 59.5t43.5 42t61.5 15.5q18 0 34 -4.5t30 -12.5l65 60h100l-122 -105q14 -25 14 -55
q0 -33 -16 -60t-43.5 -42.5t-61.5 -15.5zM374 807q29 0 47 19t18 47t-18 46.5t-47 18.5q-28 0 -46.5 -18.5t-18.5 -46.5t18.5 -47t46.5 -19z" />
    <glyph glyph-name="aringacute" unicode="&#x1fb;" horiz-adv-x="620" 
d="M263 -10q-66 0 -116 31.5t-78 90.5t-28 141t28 140.5t78 90t116 31.5q64 0 112.5 -31.5t64.5 -84.5h-11l11 106h120q-3 -31 -5.5 -63t-2.5 -63v-379h-124l-1 104h12q-16 -52 -65 -83t-111 -31zM298 86q59 0 95 41.5t36 125.5t-36 125t-95 41t-95 -41t-36 -125
t35.5 -125.5t95.5 -41.5zM305 541q-34 0 -61.5 15.5t-43.5 42t-16 59.5t16 60t43.5 42.5t61.5 15.5q18 0 34 -5t30 -13l65 60h100l-122 -104q14 -26 14 -56q0 -33 -16 -59.5t-43.5 -42t-61.5 -15.5zM305 593q29 0 47 18.5t18 46.5q0 29 -18 47t-47 18q-28 0 -46.5 -18
t-18.5 -47q0 -28 18.5 -46.5t46.5 -18.5z" />
    <glyph glyph-name="AEacute" unicode="&#x1fc;" horiz-adv-x="1017" 
d="M-20 0l440 705h555v-101h-377l23 21l21 -251l-18 35h329v-102h-326l19 10l21 -243l-16 28h324v-102h-419l-16 194l28 -31h-369l39 34l-119 -197h-139zM482 603l-222 -369l-10 31h298l-10 -35l-32 373h-24zM474 765l119 174h130l-159 -174h-90z" />
    <glyph glyph-name="aeacute" unicode="&#x1fd;" horiz-adv-x="872" 
d="M233 -10q-57 0 -99.5 22t-65.5 58.5t-23 79.5q0 57 26.5 90.5t89 48t170.5 14.5h50v-66h-51q-65 0 -103 -8t-54 -26t-16 -48q0 -34 25 -56t68 -22q35 0 62 15.5t42.5 44t15.5 66.5v121q0 51 -25 73.5t-77 22.5q-44 0 -83.5 -11t-82.5 -36l-36 86q39 26 94.5 41t112.5 15
q74 0 120 -26.5t65 -80.5h-31q33 53 79.5 80t109.5 27q101 0 159.5 -65t58.5 -181v-32h-358v66h269l-17 -16q0 68 -29.5 105t-83.5 37q-59 0 -92.5 -40t-33.5 -120v-8q0 -87 37.5 -131t112.5 -44q41 0 79.5 11.5t72.5 38.5l37 -84q-36 -31 -87.5 -46.5t-105.5 -15.5
q-88 0 -146 36.5t-84 105.5h25q-18 -67 -69.5 -104.5t-127.5 -37.5zM392 554l103 203h123l-142 -203h-84z" />
    <glyph glyph-name="Oslashacute" unicode="&#x1fe;" horiz-adv-x="787" 
d="M55 353q0 111 40.5 192t116.5 125.5t181 44.5q104 0 180 -44.5t117.5 -125.5t41.5 -191q0 -111 -41.5 -192.5t-117.5 -126.5t-180 -45q-105 0 -180.5 45t-116.5 126.5t-41 191.5zM190 353q0 -119 51 -186t152 -67q98 0 151 67t53 186q0 120 -52.5 186t-151.5 66
q-101 0 -152 -66t-51 -186zM277 49l-63 -109l-83 49l63 109l41 54l264 451l21 54l63 108l83 -49l-63 -109l-41 -53l-264 -452zM348 765l119 174h130l-159 -174h-90z" />
    <glyph glyph-name="oslashacute" unicode="&#x1ff;" horiz-adv-x="592" 
d="M296 -10q-78 0 -135 32t-88.5 91t-31.5 140t31.5 139.5t88.5 90.5t135 32t135.5 -32t89 -90.5t31.5 -139.5t-31.5 -140t-89 -91t-135.5 -32zM296 86q67 0 103 43.5t36 123.5t-36 123t-103 43t-103 -43t-36 -123t36 -123.5t103 -43.5zM161 -49l-59 36l331 568l60 -36z
M255 554l103 203h123l-142 -203h-84z" />
    <glyph glyph-name="uni0200" unicode="&#x200;" horiz-adv-x="750" 
d="M0 0l319 705h108l323 -705h-131l-86 198l52 -35h-423l54 35l-86 -198h-130zM372 567l-141 -334l-26 31h336l-21 -31l-144 334h-4zM412 765l-127 174h113l85 -174h-71zM265 765l-136 174h112l95 -174h-71z" />
    <glyph glyph-name="uni0201" unicode="&#x201;" horiz-adv-x="620" 
d="M263 -10q-66 0 -116 31.5t-78 90.5t-28 141t28 140.5t78 90t116 31.5q64 0 112.5 -31.5t64.5 -84.5h-11l11 106h120q-3 -31 -5.5 -63t-2.5 -63v-379h-124l-1 104h12q-16 -52 -65 -83t-111 -31zM298 86q59 0 95 41.5t36 125.5t-36 125t-95 41t-95 -41t-36 -125
t35.5 -125.5t95.5 -41.5zM348 554l-89 203h106l49 -203h-66zM199 554l-88 203h105l49 -203h-66z" />
    <glyph glyph-name="uni0202" unicode="&#x202;" horiz-adv-x="750" 
d="M0 0l319 705h108l323 -705h-131l-86 198l52 -35h-423l54 35l-86 -198h-130zM372 567l-141 -334l-26 31h336l-21 -31l-144 334h-4zM262 760l-71 9q6 79 55.5 124.5t127.5 45.5t127.5 -45.5t55.5 -124.5l-71 -9q-4 50 -34 77.5t-79 27.5q-48 0 -77 -27.5t-34 -77.5z" />
    <glyph glyph-name="uni0203" unicode="&#x203;" horiz-adv-x="620" 
d="M263 -10q-66 0 -116 31.5t-78 90.5t-28 141t28 140.5t78 90t116 31.5q64 0 112.5 -31.5t64.5 -84.5h-11l11 106h120q-3 -31 -5.5 -63t-2.5 -63v-379h-124l-1 104h12q-16 -52 -65 -83t-111 -31zM298 86q59 0 95 41.5t36 125.5t-36 125t-95 41t-95 -41t-36 -125
t35.5 -125.5t95.5 -41.5zM210 548l-71 6q2 60 22.5 103.5t57.5 67t86 23.5t86 -23.5t58 -67t22 -103.5l-71 -6q-4 59 -28.5 91.5t-66.5 32.5t-66.5 -32.5t-28.5 -91.5z" />
    <glyph glyph-name="uni0204" unicode="&#x204;" horiz-adv-x="595" 
d="M78 0v705h475v-101h-351v-195h328v-102h-328v-205h351v-102h-475zM371 765l-127 174h113l85 -174h-71zM224 765l-136 174h112l95 -174h-71z" />
    <glyph glyph-name="uni0205" unicode="&#x205;" horiz-adv-x="548" 
d="M312 -10q-127 0 -199 70t-72 192q0 79 31 138t86.5 92t129.5 33q73 0 122 -31t74.5 -87t25.5 -131v-33h-368v66h279l-17 -14q0 70 -29.5 107t-85.5 37q-62 0 -95.5 -44t-33.5 -123v-13q0 -82 40.5 -122.5t114.5 -40.5q43 0 80.5 11.5t71.5 37.5l37 -84q-36 -29 -86 -45
t-106 -16zM331 554l-89 203h106l49 -203h-66zM182 554l-88 203h105l49 -203h-66z" />
    <glyph glyph-name="uni0206" unicode="&#x206;" horiz-adv-x="595" 
d="M78 0v705h475v-101h-351v-195h328v-102h-328v-205h351v-102h-475zM221 760l-71 9q6 79 55.5 124.5t127.5 45.5t127.5 -45.5t55.5 -124.5l-71 -9q-4 50 -34 77.5t-79 27.5q-48 0 -77 -27.5t-34 -77.5z" />
    <glyph glyph-name="uni0207" unicode="&#x207;" horiz-adv-x="548" 
d="M312 -10q-127 0 -199 70t-72 192q0 79 31 138t86.5 92t129.5 33q73 0 122 -31t74.5 -87t25.5 -131v-33h-368v66h279l-17 -14q0 70 -29.5 107t-85.5 37q-62 0 -95.5 -44t-33.5 -123v-13q0 -82 40.5 -122.5t114.5 -40.5q43 0 80.5 11.5t71.5 37.5l37 -84q-36 -29 -86 -45
t-106 -16zM193 548l-71 6q2 60 22.5 103.5t57.5 67t86 23.5t86 -23.5t58 -67t22 -103.5l-71 -6q-4 59 -28.5 91.5t-66.5 32.5t-66.5 -32.5t-28.5 -91.5z" />
    <glyph glyph-name="uni0208" unicode="&#x208;" horiz-adv-x="284" 
d="M78 0v705h129v-705h-129zM180 765l-127 174h113l85 -174h-71zM33 765l-136 174h112l95 -174h-71z" />
    <glyph glyph-name="uni0209" unicode="&#x209;" horiz-adv-x="261" 
d="M68 0v505h125v-505h-125zM174 554l-89 203h106l49 -203h-66zM25 554l-88 203h105l49 -203h-66z" />
    <glyph glyph-name="uni020A" unicode="&#x20a;" horiz-adv-x="284" 
d="M78 0v705h129v-705h-129zM30 760l-71 9q6 79 55.5 124.5t127.5 45.5t127.5 -45.5t55.5 -124.5l-71 -9q-4 50 -34 77.5t-79 27.5q-48 0 -77 -27.5t-34 -77.5z" />
    <glyph glyph-name="uni020B" unicode="&#x20b;" horiz-adv-x="261" 
d="M68 0v505h125v-505h-125zM36 548l-71 6q2 60 22.5 103.5t57.5 67t86 23.5t86 -23.5t58 -67t22 -103.5l-71 -6q-4 59 -28.5 91.5t-66.5 32.5t-66.5 -32.5t-28.5 -91.5z" />
    <glyph glyph-name="uni020C" unicode="&#x20c;" horiz-adv-x="787" 
d="M55 353q0 111 40.5 192t116.5 125.5t181 44.5q104 0 180 -44.5t117.5 -125.5t41.5 -191q0 -111 -41.5 -192.5t-117.5 -126.5t-180 -45q-105 0 -180.5 45t-116.5 126.5t-41 191.5zM190 353q0 -119 51 -186t152 -67q98 0 151 67t53 186q0 120 -52.5 186t-151.5 66
q-101 0 -152 -66t-51 -186zM431 765l-127 174h113l85 -174h-71zM284 765l-136 174h112l95 -174h-71z" />
    <glyph glyph-name="uni020D" unicode="&#x20d;" horiz-adv-x="592" 
d="M296 -10q-78 0 -135 32t-88.5 91t-31.5 140t31.5 139.5t88.5 90.5t135 32t135.5 -32t89 -90.5t31.5 -139.5t-31.5 -140t-89 -91t-135.5 -32zM296 86q59 0 94 41.5t35 125.5t-35 125t-94 41t-94 -41t-35 -125t35 -125.5t94 -41.5zM340 554l-89 203h106l49 -203h-66z
M191 554l-88 203h105l49 -203h-66z" />
    <glyph glyph-name="uni020E" unicode="&#x20e;" horiz-adv-x="787" 
d="M55 353q0 111 40.5 192t116.5 125.5t181 44.5q104 0 180 -44.5t117.5 -125.5t41.5 -191q0 -111 -41.5 -192.5t-117.5 -126.5t-180 -45q-105 0 -180.5 45t-116.5 126.5t-41 191.5zM190 353q0 -119 51 -186t152 -67q98 0 151 67t53 186q0 120 -52.5 186t-151.5 66
q-101 0 -152 -66t-51 -186zM281 760l-71 9q6 79 55.5 124.5t127.5 45.5t127.5 -45.5t55.5 -124.5l-71 -9q-4 50 -34 77.5t-79 27.5q-48 0 -77 -27.5t-34 -77.5z" />
    <glyph glyph-name="uni020F" unicode="&#x20f;" horiz-adv-x="592" 
d="M296 -10q-78 0 -135 32t-88.5 91t-31.5 140t31.5 139.5t88.5 90.5t135 32t135.5 -32t89 -90.5t31.5 -139.5t-31.5 -140t-89 -91t-135.5 -32zM296 86q59 0 94 41.5t35 125.5t-35 125t-94 41t-94 -41t-35 -125t35 -125.5t94 -41.5zM202 548l-71 6q2 60 22.5 103.5t57.5 67
t86 23.5t86 -23.5t58 -67t22 -103.5l-71 -6q-4 59 -28.5 91.5t-66.5 32.5t-66.5 -32.5t-28.5 -91.5z" />
    <glyph glyph-name="uni0210" unicode="&#x210;" horiz-adv-x="702" 
d="M78 0v705h308q116 0 179.5 -55t63.5 -153q0 -65 -28.5 -111t-81.5 -70.5t-125 -24.5l14 19h34q42 0 75 -22t54 -67l103 -221h-142l-104 229q-14 35 -42.5 46t-68.5 11h-110v-286h-129zM207 381h158q68 0 103.5 28.5t35.5 83.5t-35.5 83t-103.5 28h-158v-223zM392 765
l-127 174h113l85 -174h-71zM245 765l-136 174h112l95 -174h-71z" />
    <glyph glyph-name="uni0211" unicode="&#x211;" horiz-adv-x="393" 
d="M67 0v376q0 32 -1.5 65t-5.5 64h121l14 -138h-20q10 50 33.5 83t57.5 49t74 16q18 0 29 -1.5t22 -5.5l-1 -110q-19 8 -32.5 10t-33.5 2q-43 0 -72.5 -18t-44 -50t-14.5 -73v-269h-126zM282 554l-89 203h106l49 -203h-66zM133 554l-88 203h105l49 -203h-66z" />
    <glyph glyph-name="uni0212" unicode="&#x212;" horiz-adv-x="702" 
d="M78 0v705h308q116 0 179.5 -55t63.5 -153q0 -65 -28.5 -111t-81.5 -70.5t-125 -24.5l14 19h34q42 0 75 -22t54 -67l103 -221h-142l-104 229q-14 35 -42.5 46t-68.5 11h-110v-286h-129zM207 381h158q68 0 103.5 28.5t35.5 83.5t-35.5 83t-103.5 28h-158v-223zM242 760
l-71 9q6 79 55.5 124.5t127.5 45.5t127.5 -45.5t55.5 -124.5l-71 -9q-4 50 -34 77.5t-79 27.5q-48 0 -77 -27.5t-34 -77.5z" />
    <glyph glyph-name="uni0213" unicode="&#x213;" horiz-adv-x="393" 
d="M67 0v376q0 32 -1.5 65t-5.5 64h121l14 -138h-20q10 50 33.5 83t57.5 49t74 16q18 0 29 -1.5t22 -5.5l-1 -110q-19 8 -32.5 10t-33.5 2q-43 0 -72.5 -18t-44 -50t-14.5 -73v-269h-126zM144 548l-71 6q2 60 22.5 103.5t57.5 67t86 23.5t86 -23.5t58 -67t22 -103.5l-71 -6
q-4 59 -28.5 91.5t-66.5 32.5t-66.5 -32.5t-28.5 -91.5z" />
    <glyph glyph-name="uni0214" unicode="&#x214;" horiz-adv-x="740" 
d="M372 -10q-151 0 -224.5 75.5t-73.5 223.5v416h129v-415q0 -94 40.5 -142t128.5 -48q84 0 126.5 48t42.5 142v415h127v-416q0 -148 -74.5 -223.5t-221.5 -75.5zM410 765l-127 174h113l85 -174h-71zM263 765l-136 174h112l95 -174h-71z" />
    <glyph glyph-name="uni0215" unicode="&#x215;" horiz-adv-x="596" 
d="M250 -10q-93 0 -139 51t-46 156v308h125v-307q0 -56 23 -82.5t70 -26.5q53 0 86.5 36t33.5 95v285h125v-505h-122v103h14q-22 -54 -66.5 -83.5t-103.5 -29.5zM341 555l-89 203h106l49 -203h-66zM192 555l-88 203h105l49 -203h-66z" />
    <glyph glyph-name="uni0216" unicode="&#x216;" horiz-adv-x="740" 
d="M372 -10q-151 0 -224.5 75.5t-73.5 223.5v416h129v-415q0 -94 40.5 -142t128.5 -48q84 0 126.5 48t42.5 142v415h127v-416q0 -148 -74.5 -223.5t-221.5 -75.5zM260 760l-71 9q6 79 55.5 124.5t127.5 45.5t127.5 -45.5t55.5 -124.5l-71 -9q-4 50 -34 77.5t-79 27.5
q-48 0 -77 -27.5t-34 -77.5z" />
    <glyph glyph-name="uni0217" unicode="&#x217;" horiz-adv-x="596" 
d="M250 -10q-93 0 -139 51t-46 156v308h125v-307q0 -56 23 -82.5t70 -26.5q53 0 86.5 36t33.5 95v285h125v-505h-122v103h14q-22 -54 -66.5 -83.5t-103.5 -29.5zM203 549l-71 6q2 60 22.5 103.5t57.5 67t86 23.5t86 -23.5t58 -67t22 -103.5l-71 -6q-4 59 -28.5 91.5
t-66.5 32.5t-66.5 -32.5t-28.5 -91.5z" />
    <glyph glyph-name="uni0218" unicode="&#x218;" horiz-adv-x="645" 
d="M324 -10q-85 0 -156.5 21.5t-122.5 59.5l40 101q34 -24 71 -40.5t79 -25t89 -8.5q79 0 114 26t35 68q0 37 -24 56.5t-86 32.5l-113 23q-97 20 -145 67t-48 126q0 66 35 115t98 76t147 27q75 0 139 -21.5t107 -61.5l-40 -96q-43 36 -94 53.5t-114 17.5q-71 0 -110.5 -27.5
t-39.5 -75.5q0 -37 24.5 -59t83.5 -34l112 -22q100 -20 148 -65.5t48 -122.5q0 -63 -34 -110.5t-96 -74t-147 -26.5zM338 -278l-48 32q23 22 30.5 42.5t7.5 43.5l28 -15h-92v102h131v-67q0 -41 -13 -75.5t-44 -62.5z" />
    <glyph glyph-name="uni0219" unicode="&#x219;" horiz-adv-x="501" 
d="M248 -10q-65 0 -119.5 15.5t-91.5 43.5l35 84q38 -26 84 -40t93 -14q50 0 74.5 17t24.5 46q0 23 -15.5 36.5t-49.5 20.5l-100 19q-64 14 -97.5 48t-33.5 89q0 47 25.5 83t73 56.5t111.5 20.5q56 0 105.5 -15t83.5 -45l-36 -81q-31 25 -71 39t-78 14q-52 0 -76 -18.5
t-24 -47.5q0 -22 14.5 -36.5t45.5 -21.5l100 -19q67 -13 101.5 -45.5t34.5 -88.5q0 -50 -27 -86t-75 -55t-112 -19zM256 -278l-48 32q23 22 30.5 42.5t7.5 43.5l28 -15h-92v102h131v-67q0 -41 -13 -75.5t-44 -62.5z" />
    <glyph glyph-name="uni021A" unicode="&#x21a;" horiz-adv-x="619" 
d="M244 0v599h-233v106h595v-106h-233v-599h-129zM318 -278l-48 32q23 22 30.5 42.5t7.5 43.5l28 -15h-92v102h131v-67q0 -41 -13 -75.5t-44 -62.5z" />
    <glyph glyph-name="uni021B" unicode="&#x21b;" horiz-adv-x="379" 
d="M284 -10q-90 0 -136 47t-46 141v233h-97v94h97v129l125 32v-161h135v-94h-135v-225q0 -52 20 -73t55 -21q19 0 32.5 3t26.5 8v-99q-17 -7 -37.5 -10.5t-39.5 -3.5zM248 -278l-48 32q23 22 30.5 42.5t7.5 43.5l28 -15h-92v102h131v-67q0 -41 -13 -75.5t-44 -62.5z" />
    <glyph glyph-name="uni021F" unicode="&#x21f;" horiz-adv-x="603" 
d="M68 0v736h125v-332h-14q23 54 71 82.5t110 28.5q90 0 134 -50.5t44 -153.5v-311h-125v305q0 59 -22.5 85.5t-71.5 26.5q-57 0 -91.5 -35.5t-34.5 -94.5v-287h-125zM251 781l-124 174h87l91 -104l91 104h87l-124 -174h-108z" />
    <glyph glyph-name="uni0226" unicode="&#x226;" horiz-adv-x="750" 
d="M0 0l319 705h108l323 -705h-131l-86 198l52 -35h-423l54 35l-86 -198h-130zM372 567l-141 -334l-26 31h336l-21 -31l-144 334h-4zM313 794v116h122v-116h-122z" />
    <glyph glyph-name="uni0227" unicode="&#x227;" horiz-adv-x="620" 
d="M263 -10q-66 0 -116 31.5t-78 90.5t-28 141t28 140.5t78 90t116 31.5q64 0 112.5 -31.5t64.5 -84.5h-11l11 106h120q-3 -31 -5.5 -63t-2.5 -63v-379h-124l-1 104h12q-16 -52 -65 -83t-111 -31zM298 86q59 0 95 41.5t36 125.5t-36 125t-95 41t-95 -41t-36 -125
t35.5 -125.5t95.5 -41.5zM244 597v116h122v-116h-122z" />
    <glyph glyph-name="uni0228" unicode="&#x228;" horiz-adv-x="595" 
d="M78 0v705h475v-101h-351v-195h328v-102h-328v-205h351v-102h-475zM334 -195q-30 0 -56.5 5.5t-46.5 15.5l18 56q18 -8 36 -12.5t38 -4.5q27 0 41 7.5t14 22.5q0 23 -37 23q-10 0 -19.5 -1t-22.5 -5l-19 18l14 90h67l-13 -76l-32 11q11 4 23.5 6t22.5 2q41 0 66 -19
t25 -53q0 -39 -33 -62.5t-86 -23.5z" />
    <glyph glyph-name="uni022A" unicode="&#x22a;" horiz-adv-x="787" 
d="M55 353q0 111 40.5 192t116.5 125.5t181 44.5q104 0 180 -44.5t117.5 -125.5t41.5 -191q0 -111 -41.5 -192.5t-117.5 -126.5t-180 -45q-105 0 -180.5 45t-116.5 126.5t-41 191.5zM190 353q0 -119 51 -186t152 -67q98 0 151 67t53 186q0 120 -52.5 186t-151.5 66
q-101 0 -152 -66t-51 -186zM235 924v74h316v-74h-316zM241 788v87h115v-87h-115zM430 788v87h115v-87h-115z" />
    <glyph glyph-name="uni022B" unicode="&#x22b;" horiz-adv-x="592" 
d="M296 -10q-78 0 -135 32t-88.5 91t-31.5 140t31.5 139.5t88.5 90.5t135 32t135.5 -32t89 -90.5t31.5 -139.5t-31.5 -140t-89 -91t-135.5 -32zM296 86q59 0 94 41.5t35 125.5t-35 125t-94 41t-94 -41t-35 -125t35 -125.5t94 -41.5zM139 708v74h316v-74h-316zM145 572v87
h115v-87h-115zM334 572v87h115v-87h-115z" />
    <glyph glyph-name="uni022C" unicode="&#x22c;" horiz-adv-x="787" 
d="M55 353q0 111 40.5 192t116.5 125.5t181 44.5q104 0 180 -44.5t117.5 -125.5t41.5 -191q0 -111 -41.5 -192.5t-117.5 -126.5t-180 -45q-105 0 -180.5 45t-116.5 126.5t-41 191.5zM190 353q0 -119 51 -186t152 -67q98 0 151 67t53 186q0 120 -52.5 186t-151.5 66
q-101 0 -152 -66t-51 -186zM235 924v74h316v-74h-316zM460 767q-19 0 -38 6.5t-40 18.5q-19 12 -30.5 15.5t-21.5 3.5q-22 0 -34 -11t-17 -34l-58 3q4 54 33 81t73 27q17 0 33.5 -5t40.5 -18q20 -12 32.5 -16.5t22.5 -4.5q23 0 35 11t16 34l58 -3q-4 -54 -32.5 -81
t-72.5 -27z" />
    <glyph glyph-name="uni022D" unicode="&#x22d;" horiz-adv-x="592" 
d="M296 -10q-78 0 -135 32t-88.5 91t-31.5 140t31.5 139.5t88.5 90.5t135 32t135.5 -32t89 -90.5t31.5 -139.5t-31.5 -140t-89 -91t-135.5 -32zM296 86q59 0 94 41.5t35 125.5t-35 125t-94 41t-94 -41t-35 -125t35 -125.5t94 -41.5zM139 708v74h316v-74h-316zM183 550l-58 3
q4 54 33 81t73 27q19 0 36.5 -6t37.5 -18q18 -10 30.5 -15t24.5 -5q23 0 35 11t16 34l58 -3q-4 -54 -32.5 -81t-72.5 -27q-19 0 -38.5 6.5t-39.5 18.5q-16 9 -28.5 14t-23.5 5q-22 0 -34 -11t-17 -34z" />
    <glyph glyph-name="uni0230" unicode="&#x230;" horiz-adv-x="787" 
d="M55 353q0 111 40.5 192t116.5 125.5t181 44.5q104 0 180 -44.5t117.5 -125.5t41.5 -191q0 -111 -41.5 -192.5t-117.5 -126.5t-180 -45q-105 0 -180.5 45t-116.5 126.5t-41 191.5zM190 353q0 -119 51 -186t152 -67q98 0 151 67t53 186q0 120 -52.5 186t-151.5 66
q-101 0 -152 -66t-51 -186zM235 924v74h316v-74h-316zM336 788v87h115v-87h-115z" />
    <glyph glyph-name="uni0231" unicode="&#x231;" horiz-adv-x="592" 
d="M296 -10q-78 0 -135 32t-88.5 91t-31.5 140t31.5 139.5t88.5 90.5t135 32t135.5 -32t89 -90.5t31.5 -139.5t-31.5 -140t-89 -91t-135.5 -32zM296 86q59 0 94 41.5t35 125.5t-35 125t-94 41t-94 -41t-35 -125t35 -125.5t94 -41.5zM139 708v74h316v-74h-316zM240 572v87
h115v-87h-115z" />
    <glyph glyph-name="uni0232" unicode="&#x232;" horiz-adv-x="629" 
d="M250 0v333l27 -77l-303 449h149l208 -320h-28l208 320h144l-302 -449l26 77v-333h-129zM142 806v74h346v-74h-346z" />
    <glyph glyph-name="uni0233" unicode="&#x233;" horiz-adv-x="543" 
d="M58 -227l-29 99q47 10 79 23t53 34t35 54l25 59l-3 -49l-220 512h133l158 -394h-29l159 394h126l-230 -533q-23 -54 -50 -89.5t-58 -57t-68 -33.5t-81 -19zM113 616v74h316v-74h-316z" />
    <glyph glyph-name="uni0237" unicode="&#x237;" horiz-adv-x="261" 
d="M19 -222q-19 0 -41.5 3t-39.5 10v99q13 -4 28 -7t29 -3q36 0 56.5 22t20.5 74v529h125v-536q0 -94 -43 -142.5t-135 -48.5z" />
    <glyph glyph-name="uni0253" unicode="&#x253;" horiz-adv-x="620" 
d="M358 -10q-64 0 -112.5 31.5t-64.5 85.5h11v-107h-124v553q0 91 51 142t149 51q17 0 35 -2.5t32 -7.5l-15 -94q-12 4 -20.5 5t-19.5 1q-43 0 -65 -24.5t-22 -71.5v-150h-12q17 52 65.5 82.5t111.5 30.5q66 0 116 -31.5t78 -90t28 -140.5t-28 -141t-78 -90.5t-116 -31.5z
M323 86q59 0 95 41.5t36 125.5t-36 125t-95 41t-95.5 -41t-36.5 -125t36.5 -125.5t95.5 -41.5z" />
    <glyph glyph-name="uni0257" unicode="&#x257;" horiz-adv-x="619" 
d="M263 -10q-66 0 -116 31.5t-78 90.5t-28 141t28 140.5t78 90t116 31.5q64 0 112 -30.5t64 -82.5h-12v154q0 59 22.5 101.5t67 65.5t110.5 23q17 0 35.5 -2.5t31.5 -7.5l-14 -94q-13 4 -21.5 5t-18.5 1q-40 0 -64 -22.5t-24 -73.5v-552h-123v107h11q-16 -54 -64 -85.5
t-113 -31.5zM298 86q59 0 95 41.5t36 125.5t-36 125t-95 41t-95 -41t-36 -125t36 -125.5t95 -41.5z" />
    <glyph glyph-name="uni0259" unicode="&#x259;" horiz-adv-x="548" 
d="M260 -10q-104 0 -162.5 64t-58.5 175v41h367v-66h-279l17 16q0 -69 30 -106t86 -37q62 0 95 42.5t33 113.5v18q0 86 -40 127t-120 41q-38 0 -75 -11t-72 -38l-31 87q35 29 86 43.5t111 14.5q80 0 138.5 -31.5t90.5 -90t32 -140.5q0 -78 -31 -137t-86.5 -92.5
t-130.5 -33.5z" />
    <glyph glyph-name="uni02B9" unicode="&#x2b9;" horiz-adv-x="243" 
d="M80 415l-31 290h145l-30 -290h-84z" />
    <glyph glyph-name="uni02BA" unicode="&#x2ba;" horiz-adv-x="448" 
d="M80 415l-31 290h145l-30 -290h-84zM285 415l-31 290h145l-30 -290h-84z" />
    <glyph glyph-name="uni02BB" unicode="&#x2bb;" horiz-adv-x="500" 
d="M185 564v68q0 40 12 73.5t44 61.5l47 -33q-22 -20 -29 -40t-7 -40l-29 15h92v-105h-130z" />
    <glyph glyph-name="uni02BC" unicode="&#x2bc;" horiz-adv-x="350" 
d="M184 567l-47 32q22 20 29 40t7 40l29 -14h-92v104h130v-67q0 -40 -12 -73t-44 -62z" />
    <glyph glyph-name="uni02BE" unicode="&#x2be;" horiz-adv-x="500" 
d="M250 552v54q22 0 35 15t13 35q0 21 -13 35.5t-35 14.5v55q46 0 76.5 -30.5t30.5 -74.5t-30.5 -74t-76.5 -30z" />
    <glyph glyph-name="uni02BF" unicode="&#x2bf;" horiz-adv-x="500" 
d="M250 552q-45 0 -75.5 30t-30.5 74t30.5 74.5t75.5 30.5v-55q-21 0 -34.5 -14.5t-13.5 -35.5q0 -20 13.5 -35t34.5 -15v-54z" />
    <glyph glyph-name="circumflex" unicode="&#x2c6;" horiz-adv-x="500" 
d="M85 554l110 203h110l110 -203h-79l-86 132l-86 -132h-79z" />
    <glyph glyph-name="caron" unicode="&#x2c7;" horiz-adv-x="500" 
d="M195 554l-110 203h79l86 -132l86 132h79l-110 -203h-110z" />
    <glyph glyph-name="uni02C8" unicode="&#x2c8;" horiz-adv-x="500" 
d="M210 594v203h81v-203h-81z" />
    <glyph glyph-name="uni02C9" unicode="&#x2c9;" horiz-adv-x="500" 
d="M93 616v74h315v-74h-315z" />
    <glyph glyph-name="uni02CA" unicode="&#x2ca;" horiz-adv-x="500" 
d="M208 554l103 203h123l-142 -203h-84z" />
    <glyph glyph-name="uni02CB" unicode="&#x2cb;" horiz-adv-x="500" 
d="M208 554l-141 203h123l102 -203h-84z" />
    <glyph glyph-name="uni02CC" unicode="&#x2cc;" horiz-adv-x="500" 
d="M210 -270v203h81v-203h-81z" />
    <glyph glyph-name="breve" unicode="&#x2d8;" horiz-adv-x="500" 
d="M250 551q-49 0 -86 23.5t-57.5 67t-22.5 102.5l71 7q4 -60 28.5 -92t66.5 -32t66.5 32t28.5 92l71 -7q-1 -59 -22 -102.5t-58 -67t-86 -23.5z" />
    <glyph glyph-name="dotaccent" unicode="&#x2d9;" horiz-adv-x="500" 
d="M189 597v116h122v-116h-122z" />
    <glyph glyph-name="ring" unicode="&#x2da;" horiz-adv-x="500" 
d="M250 546q-35 0 -64 16t-45.5 44t-16.5 62q0 35 16.5 62.5t45.5 44t64 16.5q36 0 64.5 -16.5t45 -44t16.5 -62.5q0 -34 -16.5 -62t-45 -44t-64.5 -16zM250 603q29 0 47 19t18 46q0 29 -18 47t-47 18q-28 0 -46.5 -18t-18.5 -46q0 -29 18.5 -47.5t46.5 -18.5z" />
    <glyph glyph-name="ogonek" unicode="&#x2db;" horiz-adv-x="500" 
d="M228 -195q-55 0 -86.5 28t-31.5 76q0 42 28 78t74 55l38 -42q-17 -7 -31 -18.5t-22 -26.5t-8 -32q0 -25 16.5 -38t39.5 -13q15 0 28 3t27 8l15 -61q-19 -9 -40 -13t-47 -4z" />
    <glyph glyph-name="tilde" unicode="&#x2dc;" horiz-adv-x="500" 
d="M118 584l-62 4q5 71 38 109.5t82 38.5q22 0 41 -9t43 -27q21 -16 34.5 -23t26.5 -7q50 0 61 70l62 -4q-4 -71 -37 -109.5t-82 -38.5q-22 0 -41.5 9t-44.5 28q-19 16 -32.5 22.5t-27.5 6.5q-27 0 -41.5 -18.5t-19.5 -51.5z" />
    <glyph glyph-name="hungarumlaut" unicode="&#x2dd;" horiz-adv-x="500" 
d="M290 554l49 203h105l-88 -203h-66zM141 554l49 203h106l-89 -203h-66z" />
    <glyph glyph-name="gravecomb" unicode="&#x300;" 
d="M-42 554l-142 203h123l103 -203h-84z" />
    <glyph glyph-name="acutecomb" unicode="&#x301;" 
d="M-42 554l103 203h123l-142 -203h-84z" />
    <glyph glyph-name="uni0302" unicode="&#x302;" 
d="M-165 554l110 203h110l110 -203h-79l-86 132l-86 -132h-79z" />
    <glyph glyph-name="tildecomb" unicode="&#x303;" 
d="M-132 584l-62 4q5 71 38 109.5t82 38.5q22 0 41 -9t43 -27q21 -16 34.5 -23t26.5 -7q50 0 61 70l62 -4q-4 -71 -37 -109.5t-82 -38.5q-22 0 -41.5 9t-44.5 28q-19 16 -32.5 22.5t-27.5 6.5q-27 0 -41.5 -18.5t-19.5 -51.5z" />
    <glyph glyph-name="uni0304" unicode="&#x304;" 
d="M-158 616v74h316v-74h-316z" />
    <glyph glyph-name="uni0306" unicode="&#x306;" 
d="M0 551q-49 0 -86 23.5t-57.5 67t-22.5 102.5l71 7q4 -60 28.5 -92t66.5 -32t66.5 32t28.5 92l71 -7q-1 -59 -22 -102.5t-58 -67t-86 -23.5z" />
    <glyph glyph-name="uni0307" unicode="&#x307;" 
d="M-61 597v116h122v-116h-122z" />
    <glyph glyph-name="uni0308" unicode="&#x308;" 
d="M37 597v115h115v-115h-115zM-152 597v115h115v-115h-115z" />
    <glyph glyph-name="hookabovecomb" unicode="&#x309;" 
d="M-38 554v21q0 21 8.5 35t19.5 24t19.5 20t8.5 23t-10 19t-30 6q-16 0 -30 -3.5t-31 -11.5l-19 54q21 12 48.5 18t59.5 6q50 0 78.5 -18.5t28.5 -53.5q0 -25 -11.5 -40.5t-26 -26.5t-26 -23.5t-11.5 -32.5v-16h-76z" />
    <glyph glyph-name="uni030A" unicode="&#x30a;" 
d="M0 546q-35 0 -64 16t-45.5 44t-16.5 62q0 35 16.5 62.5t45.5 44t64 16.5q36 0 64.5 -16.5t45 -44t16.5 -62.5q0 -34 -16.5 -62t-45 -44t-64.5 -16zM0 603q29 0 47 19t18 46q0 29 -18 47t-47 18q-28 0 -46.5 -18t-18.5 -46q0 -29 18.5 -47.5t46.5 -18.5z" />
    <glyph glyph-name="uni030B" unicode="&#x30b;" 
d="M40 554l49 203h105l-88 -203h-66zM-109 554l49 203h106l-89 -203h-66z" />
    <glyph glyph-name="uni030C" unicode="&#x30c;" 
d="M-55 554l-110 203h79l86 -132l86 132h79l-110 -203h-110z" />
    <glyph glyph-name="uni030F" unicode="&#x30f;" 
d="M43 554l-89 203h106l49 -203h-66zM-106 554l-88 203h105l49 -203h-66z" />
    <glyph glyph-name="uni0311" unicode="&#x311;" 
d="M-95 551l-71 6q2 60 22.5 103.5t57.5 67t86 23.5t86 -23.5t58 -67t22 -103.5l-71 -6q-4 59 -28.5 91.5t-66.5 32.5t-66.5 -32.5t-28.5 -91.5z" />
    <glyph glyph-name="uni0312" unicode="&#x312;" 
d="M-66 564v67q0 41 13.5 75.5t44.5 62.5l47 -32q-22 -22 -30 -42.5t-8 -43.5l-28 15h92v-102h-131z" />
    <glyph glyph-name="uni031B" unicode="&#x31b;" 
d="M71 425l-72 45v19q36 1 57.5 10.5t31.5 32.5t10 63v21h108v-37q0 -43 -16.5 -76t-46.5 -53.5t-72 -24.5z" />
    <glyph glyph-name="dotbelowcomb" unicode="&#x323;" 
d="M-61 -204v116h122v-116h-122z" />
    <glyph glyph-name="uni0324" unicode="&#x324;" 
d="M37 -192v114h115v-114h-115zM-152 -192v114h115v-114h-115z" />
    <glyph glyph-name="uni0326" unicode="&#x326;" 
d="M8 -278l-48 32q23 22 30.5 42.5t7.5 43.5l28 -15h-92v102h131v-67q0 -41 -13 -75.5t-44 -62.5z" />
    <glyph glyph-name="uni0327" unicode="&#x327;" 
d="M1 -195q-30 0 -56.5 5.5t-46.5 15.5l18 56q18 -8 36 -12.5t38 -4.5q27 0 41 7.5t14 22.5q0 23 -37 23q-10 0 -19.5 -1t-22.5 -5l-19 18l14 90h67l-13 -76l-32 11q11 4 23.5 6t22.5 2q41 0 66 -19t25 -53q0 -39 -33 -62.5t-86 -23.5z" />
    <glyph glyph-name="uni0328" unicode="&#x328;" 
d="M-22 -195q-55 0 -86.5 28t-31.5 76q0 42 28 78t74 55l38 -42q-17 -7 -31 -18.5t-22 -26.5t-8 -32q0 -25 16.5 -38t39.5 -13q15 0 28 3t27 8l15 -61q-19 -9 -40 -13t-47 -4z" />
    <glyph glyph-name="uni032E" unicode="&#x32e;" 
d="M0 -215q-73 0 -118.5 41.5t-47.5 111.5l71 7q4 -40 28.5 -63t66.5 -23t66.5 23t28.5 63l71 -7q-2 -70 -47 -111.5t-119 -41.5z" />
    <glyph glyph-name="uni0331" unicode="&#x331;" 
d="M-158 -165v74h316v-74h-316z" />
    <glyph glyph-name="uni0335" unicode="&#x335;" 
d="M-201 531v88h402v-88h-402z" />
    <glyph glyph-name="uni0337" unicode="&#x337;" 
d="M-128 228l-48 84l304 176l48 -84z" />
    <glyph glyph-name="uni0338" unicode="&#x338;" 
d="M75 -56l-59 36l331 568l60 -36z" />
    <glyph glyph-name="uni0394" unicode="&#x394;" horiz-adv-x="746" 
d="M33 0v73l288 632h104l288 -632v-73h-680zM372 569l-221 -505v38h445v-38l-222 505h-2z" />
    <glyph glyph-name="Sigma" unicode="&#x3a3;" horiz-adv-x="615" 
d="M50 -180v91l264 372v-40l-264 371v91h520v-106h-382v28l232 -330v-69l-232 -330v28h382v-106h-520z" />
    <glyph glyph-name="uni03A9" unicode="&#x3a9;" horiz-adv-x="807" 
d="M39 0v104h239v-27q-118 58 -172 138.5t-54 187.5q0 97 43.5 166.5t123 107.5t185.5 38q77 0 141 -21.5t111 -62t73 -98.5t26 -130q0 -107 -54 -187.5t-172 -138.5v27h240v-104h-313v101q87 59 126 130t39 155q0 105 -58.5 162t-158.5 57q-106 0 -162 -57t-56 -162
q0 -84 39.5 -155t125.5 -130v-101h-312z" />
    <glyph glyph-name="uni03BC" unicode="&#x3bc;" horiz-adv-x="596" 
d="M65 -216v721h125v-307q0 -56 23 -82.5t70 -26.5q53 0 86.5 36t33.5 95v285h125v-505h-122v103h4q-13 -54 -48.5 -83.5t-81.5 -29.5q-37 0 -62.5 13.5t-41.5 47.5h6l8 -267h-125z" />
    <glyph glyph-name="pi" unicode="&#x3c0;" horiz-adv-x="619" 
d="M35 0q23 71 38 137t23 133.5t9 140.5h-100v94h580v-94h-104v-222q0 -46 21 -70t70 -29l41 -4l-9 -94l-49 3q-56 3 -94.5 16.5t-61.5 38.5t-33 63.5t-10 90.5v207h-127q-1 -86 -8.5 -157.5t-21.5 -133.5t-35 -120h-129z" />
    <glyph glyph-name="uni0400" unicode="&#x400;" horiz-adv-x="595" 
d="M78 0v705h475v-101h-351v-195h328v-102h-328v-205h351v-102h-475zM293 765l-159 174h130l119 -174h-90z" />
    <glyph glyph-name="uni0401" unicode="&#x401;" horiz-adv-x="595" 
d="M78 0v705h475v-101h-351v-195h328v-102h-328v-205h351v-102h-475zM375 790v115h115v-115h-115zM186 790v115h115v-115h-115z" />
    <glyph glyph-name="uni0402" unicode="&#x402;" horiz-adv-x="882" 
d="M595 -190q-36 0 -68.5 5.5t-56.5 15.5l22 94q19 -7 41.5 -10.5t47.5 -3.5q58 0 89 36.5t31 106.5v88q0 100 -48 145.5t-140 45.5q-40 0 -75 -7.5t-65 -22.5v-303h-129v599h-233v106h595v-106h-233v-186q26 13 68 21t86 8q147 0 224.5 -73t77.5 -221v-89q0 -80 -28.5 -136
t-81 -84.5t-124.5 -28.5z" />
    <glyph glyph-name="uni0403" unicode="&#x403;" horiz-adv-x="572" 
d="M78 0v705h478v-105h-350v-600h-128zM241 765l119 174h130l-159 -174h-90z" />
    <glyph glyph-name="uni0404" unicode="&#x404;" horiz-adv-x="697" 
d="M411 -10q-112 0 -192 44.5t-122 126t-42 192.5t42 192t122 125.5t192 44.5q74 0 137 -22.5t106 -63.5l-42 -101q-46 39 -93.5 56.5t-104.5 17.5q-105 0 -162.5 -59.5t-62.5 -167.5l-34 34h369v-101h-371l35 31q5 -115 63 -175.5t163 -60.5q57 0 104.5 18t93.5 57l42 -102
q-43 -40 -106 -63t-137 -23z" />
    <glyph glyph-name="uni0405" unicode="&#x405;" horiz-adv-x="645" 
d="M324 -10q-85 0 -156.5 21.5t-122.5 59.5l40 101q34 -24 71 -40.5t79 -25t89 -8.5q79 0 114 26t35 68q0 37 -24 56.5t-86 32.5l-113 23q-97 20 -145 67t-48 126q0 66 35 115t98 76t147 27q75 0 139 -21.5t107 -61.5l-40 -96q-43 36 -94 53.5t-114 17.5q-71 0 -110.5 -27.5
t-39.5 -75.5q0 -37 24.5 -59t83.5 -34l112 -22q100 -20 148 -65.5t48 -122.5q0 -63 -34 -110.5t-96 -74t-147 -26.5z" />
    <glyph glyph-name="uni0406" unicode="&#x406;" horiz-adv-x="284" 
d="M78 0v705h129v-705h-129z" />
    <glyph glyph-name="uni0407" unicode="&#x407;" horiz-adv-x="284" 
d="M78 0v705h129v-705h-129zM179 790v115h115v-115h-115zM-10 790v115h115v-115h-115z" />
    <glyph glyph-name="uni0408" unicode="&#x408;" horiz-adv-x="362" 
d="M90 -187q-17 0 -40.5 2t-47.5 7v102q19 -4 36.5 -6t29.5 -2q46 0 66.5 27t20.5 86v676h129v-676q0 -72 -20 -120t-62.5 -72t-111.5 -24z" />
    <glyph glyph-name="uni0409" unicode="&#x409;" horiz-adv-x="1167" 
d="M77 -17l-63 95q42 23 74 54t53 77.5t31.5 115t10.5 165.5v215h501v-295h200q116 0 181 -51.5t65 -152.5q0 -100 -65 -153t-181 -53h-328v600h-254v-142q0 -101 -15 -178t-44 -134.5t-70.5 -97t-95.5 -65.5zM684 99h185q71 0 104.5 26.5t33.5 80.5q0 53 -33.5 79.5
t-104.5 26.5h-185v-213z" />
    <glyph glyph-name="uni040A" unicode="&#x40a;" horiz-adv-x="1177" 
d="M78 0v705h127v-294h361v294h128v-295h200q116 0 181 -51.5t65 -152.5q0 -100 -65 -153t-181 -53h-328v305h-361v-305h-127zM694 99h185q71 0 104 26.5t33 80.5q0 53 -33 79.5t-104 26.5h-185v-213z" />
    <glyph glyph-name="uni040B" unicode="&#x40b;" horiz-adv-x="879" 
d="M244 0v599h-233v106h595v-106h-233v-186q29 14 72.5 21.5t87.5 7.5q143 0 218 -73t75 -221v-148h-128v142q0 101 -46 146.5t-134 45.5q-37 0 -74 -7t-71 -24v-303h-129z" />
    <glyph glyph-name="uni040C" unicode="&#x40c;" horiz-adv-x="690" 
d="M78 0v705h127v-300h120l-26 -17l208 317h142l-232 -341l-49 36q68 -10 113.5 -46.5t79.5 -102.5l125 -251h-139l-97 203q-25 53 -59.5 75t-87.5 22h-98v-300h-127zM301 765l119 174h130l-159 -174h-90z" />
    <glyph glyph-name="uni040D" unicode="&#x40d;" horiz-adv-x="755" 
d="M78 0v705h119v-532h-24l408 532h97v-705h-120v532h24l-409 -532h-95zM334 765l-159 174h130l119 -174h-90z" />
    <glyph glyph-name="uni040E" unicode="&#x40e;" horiz-adv-x="679" 
d="M186 0l124 235l2 -40l-326 510h138l251 -398h-25l209 398h133l-372 -705h-134zM341 760q-54 0 -96 17t-69 48.5t-39 74.5l64 22q19 -49 53 -71t87 -22q54 0 87.5 22t54.5 70l62 -21q-22 -70 -75.5 -105t-128.5 -35z" />
    <glyph glyph-name="uni040F" unicode="&#x40f;" horiz-adv-x="772" 
d="M330 -165v165h-252v705h128v-599h361v599h128v-705h-252v-165h-113z" />
    <glyph glyph-name="uni0410" unicode="&#x410;" horiz-adv-x="750" 
d="M0 0l319 705h108l323 -705h-131l-86 198l52 -35h-423l54 35l-86 -198h-130zM372 567l-141 -334l-26 31h336l-21 -31l-144 334h-4z" />
    <glyph glyph-name="uni0411" unicode="&#x411;" horiz-adv-x="689" 
d="M78 0v705h503v-100h-380v-195h205q116 0 181 -51.5t65 -152.5q0 -100 -65 -153t-181 -53h-328zM201 99h190q71 0 104 26.5t33 80.5q0 53 -33 79t-104 26h-190v-212z" />
    <glyph glyph-name="uni0412" unicode="&#x412;" horiz-adv-x="690" 
d="M78 0v705h309q115 0 177 -48.5t62 -134.5q0 -64 -38 -108t-105 -59v15q77 -11 119.5 -55.5t42.5 -117.5q0 -94 -65 -145.5t-181 -51.5h-321zM202 98h182q65 0 101 24.5t36 80.5q0 57 -36 81.5t-101 24.5h-182v-211zM202 406h163q69 0 102.5 25.5t33.5 75.5t-33.5 75.5
t-102.5 25.5h-163v-202z" />
    <glyph glyph-name="uni0413" unicode="&#x413;" horiz-adv-x="572" 
d="M78 0v705h478v-105h-350v-600h-128z" />
    <glyph glyph-name="uni0414" unicode="&#x414;" horiz-adv-x="822" 
d="M14 -165v266h73q50 60 74 164t24 256v184h511v-604h103v-266h-112v165h-560v-165h-113zM216 101h352v504h-265v-96q0 -145 -21.5 -244t-65.5 -164z" />
    <glyph glyph-name="uni0415" unicode="&#x415;" horiz-adv-x="595" 
d="M78 0v705h475v-101h-351v-195h328v-102h-328v-205h351v-102h-475z" />
    <glyph glyph-name="uni0416" unicode="&#x416;" horiz-adv-x="1040" 
d="M4 0l125 251q34 66 80 102.5t114 46.5l-49 -36l-232 341h141l209 -317l-25 17h92v300h123v-300h93l-26 -17l208 317h141l-231 -341l-49 36q68 -10 113.5 -46.5t78.5 -102.5l126 -251h-138l-98 203q-25 52 -59.5 74.5t-87.5 22.5h-71v-300h-123v300h-71q-54 0 -88.5 -22.5
t-59.5 -74.5l-97 -203h-139z" />
    <glyph glyph-name="uni0417" unicode="&#x417;" horiz-adv-x="643" 
d="M312 -10q-91 0 -162 22.5t-120 62.5l41 95q45 -36 102 -54.5t130 -18.5q88 0 129 27.5t41 82.5q0 51 -34 75.5t-105 24.5h-177v101h161q68 0 102.5 24.5t34.5 73.5q0 47 -37 74.5t-114 27.5q-61 0 -117 -18t-100 -53l-41 95q47 40 118.5 61.5t151.5 21.5q131 0 197.5 -53
t66.5 -139q0 -64 -38 -108.5t-104 -59.5v15q75 -11 117.5 -56t42.5 -118q0 -62 -31.5 -108.5t-95 -72t-159.5 -25.5z" />
    <glyph glyph-name="uni0418" unicode="&#x418;" horiz-adv-x="755" 
d="M78 0v705h119v-532h-24l408 532h97v-705h-120v532h24l-409 -532h-95z" />
    <glyph glyph-name="uni0419" unicode="&#x419;" horiz-adv-x="755" 
d="M78 0v705h119v-532h-24l408 532h97v-705h-120v532h24l-409 -532h-95zM378 760q-54 0 -96 17t-69 48.5t-39 74.5l64 22q19 -49 53 -71t87 -22q54 0 87.5 22t54.5 70l62 -21q-22 -70 -75.5 -105t-128.5 -35z" />
    <glyph glyph-name="uni041A" unicode="&#x41a;" horiz-adv-x="690" 
d="M78 0v705h127v-300h120l-26 -17l208 317h142l-232 -341l-49 36q68 -10 113.5 -46.5t79.5 -102.5l125 -251h-139l-97 203q-25 53 -59.5 75t-87.5 22h-98v-300h-127z" />
    <glyph glyph-name="uni041B" unicode="&#x41b;" horiz-adv-x="772" 
d="M77 -17l-63 95q42 23 74 54t53 77.5t31.5 115t10.5 165.5v215h512v-705h-128v600h-265v-142q0 -101 -15 -178t-44 -134.5t-70.5 -97t-95.5 -65.5z" />
    <glyph glyph-name="uni041C" unicode="&#x41c;" horiz-adv-x="870" 
d="M79 0v705h113l259 -583h-31l259 583h112v-705h-117v523h36l-237 -523h-77l-237 523h37v-523h-117z" />
    <glyph glyph-name="uni041D" unicode="&#x41d;" horiz-adv-x="774" 
d="M78 0v705h129v-294h361v294h129v-705h-129v304h-361v-304h-129z" />
    <glyph glyph-name="uni041E" unicode="&#x41e;" horiz-adv-x="787" 
d="M55 353q0 111 40.5 192t116.5 125.5t181 44.5q104 0 180 -44.5t117.5 -125.5t41.5 -191q0 -111 -41.5 -192.5t-117.5 -126.5t-180 -45q-105 0 -180.5 45t-116.5 126.5t-41 191.5zM190 353q0 -119 51 -186t152 -67q98 0 151 67t53 186q0 120 -52.5 186t-151.5 66
q-101 0 -152 -66t-51 -186z" />
    <glyph glyph-name="uni041F" unicode="&#x41f;" horiz-adv-x="772" 
d="M78 0v705h617v-705h-128v600h-362v-600h-127z" />
    <glyph glyph-name="uni0420" unicode="&#x420;" horiz-adv-x="666" 
d="M78 0v705h313q116 0 177 -56t61 -154q0 -97 -61 -154t-177 -57h-184v-284h-129zM207 386h169q64 0 96 28.5t32 80.5t-32 80.5t-96 28.5h-169v-218z" />
    <glyph glyph-name="uni0421" unicode="&#x421;" horiz-adv-x="685" 
d="M406 -10q-110 0 -188.5 44.5t-120.5 126t-42 192.5t42 192t120.5 125.5t188.5 44.5q74 0 133.5 -21t102.5 -62l-42 -102q-47 38 -90.5 54.5t-99.5 16.5q-107 0 -163.5 -64.5t-56.5 -183.5t56.5 -184t163.5 -65q56 0 99.5 16.5t90.5 55.5l42 -102q-43 -40 -102.5 -62
t-133.5 -22z" />
    <glyph glyph-name="uni0422" unicode="&#x422;" horiz-adv-x="619" 
d="M244 0v599h-233v106h595v-106h-233v-599h-129z" />
    <glyph glyph-name="uni0423" unicode="&#x423;" horiz-adv-x="679" 
d="M186 0l124 235l2 -40l-326 510h138l251 -398h-25l209 398h133l-372 -705h-134z" />
    <glyph glyph-name="uni0424" unicode="&#x424;" horiz-adv-x="907" 
d="M389 -25v104l32 -24h-28q-105 0 -181 36t-116.5 103.5t-40.5 163.5q0 146 88.5 224.5t249.5 78.5h28l-32 -24v98h128v-98l-32 24h28q161 0 250 -78.5t89 -224.5q0 -96 -41 -163.5t-116.5 -103.5t-181.5 -36h-28l32 24v-104h-128zM390 130v456l27 -22h-37
q-88 0 -141.5 -51.5t-53.5 -154.5q0 -67 25 -113t69 -69.5t101 -23.5h37zM517 130l-28 22h38q57 0 101 23.5t68.5 69.5t24.5 113q0 103 -53 154.5t-141 51.5h-38l28 22v-456z" />
    <glyph glyph-name="uni0425" unicode="&#x425;" horiz-adv-x="671" 
d="M-8 0l290 386v-55l-280 374h151l203 -281h-41l202 281h152l-281 -374v55l291 -386h-152l-214 294h44l-214 -294h-151z" />
    <glyph glyph-name="uni0426" unicode="&#x426;" horiz-adv-x="821" 
d="M685 -165v165h-607v705h127v-599h362v599h128v-599h103v-271h-113z" />
    <glyph glyph-name="uni0427" unicode="&#x427;" horiz-adv-x="712" 
d="M507 0v276q-29 -13 -73 -21t-88 -8q-142 0 -217.5 73t-75.5 221v164h128v-158q0 -100 44.5 -145.5t134.5 -45.5q38 0 75.5 7t71.5 23v319h128v-705h-128z" />
    <glyph glyph-name="uni0428" unicode="&#x428;" horiz-adv-x="1097" 
d="M78 0v705h126v-599h282v599h126v-599h282v599h126v-705h-942z" />
    <glyph glyph-name="uni0429" unicode="&#x429;" horiz-adv-x="1146" 
d="M1011 -165v165h-933v705h126v-599h282v599h126v-599h282v599h126v-599h103v-271h-112z" />
    <glyph glyph-name="uni042A" unicode="&#x42a;" horiz-adv-x="836" 
d="M225 0v600h-214v105h342v-295h200q116 0 181 -51.5t65 -152.5q0 -100 -65 -153t-181 -53h-328zM353 99h185q71 0 104 26.5t33 80.5q0 53 -33 79.5t-104 26.5h-185v-213z" />
    <glyph glyph-name="uni042B" unicode="&#x42b;" horiz-adv-x="919" 
d="M78 0v705h128v-295h169q116 0 181 -51.5t65 -152.5q0 -100 -65 -153t-181 -53h-297zM206 99h154q71 0 104 26.5t33 80.5q0 53 -33 79.5t-104 26.5h-154v-213zM714 0v705h128v-705h-128z" />
    <glyph glyph-name="uni042C" unicode="&#x42c;" horiz-adv-x="689" 
d="M78 0v705h128v-295h200q116 0 181 -51.5t65 -152.5q0 -100 -65 -153t-181 -53h-328zM206 99h185q71 0 104 26.5t33 80.5q0 53 -33 79t-104 26h-185v-212z" />
    <glyph glyph-name="uni042D" unicode="&#x42d;" horiz-adv-x="697" 
d="M286 -10q-73 0 -136.5 23t-106.5 63l42 102q47 -39 94 -57t104 -18q105 0 163.5 60.5t62.5 175.5l35 -31h-371v101h369l-34 -34q-5 108 -62 167.5t-159 59.5q-57 0 -104.5 -17t-97.5 -57l-42 101q46 41 110 63.5t138 22.5q110 0 188.5 -44.5t120.5 -125.5t42 -192
t-42 -192.5t-121.5 -126t-192.5 -44.5z" />
    <glyph glyph-name="uni042E" unicode="&#x42e;" horiz-adv-x="1074" 
d="M679 -10q-94 0 -166 38.5t-115.5 109.5t-53.5 167h-138v-305h-128v705h128v-295h139q12 94 55.5 162.5t114.5 105.5t164 37q104 0 180 -44.5t118 -125.5t42 -192t-42 -192.5t-118.5 -126t-179.5 -44.5zM679 99q98 0 152 67t54 187t-54 186.5t-152 66.5q-97 0 -151 -66.5
t-54 -186.5t54 -187t151 -67z" />
    <glyph glyph-name="uni042F" unicode="&#x42f;" horiz-adv-x="705" 
d="M30 0l123 217q24 43 55.5 63t73.5 20h34l-1 -15q-119 0 -184.5 55.5t-65.5 154.5q0 100 64.5 155t183.5 55h315v-705h-128v282h-94q-40 0 -65 -12t-44 -46l-126 -224h-141zM334 376h166v229h-166q-145 0 -145 -114q0 -115 145 -115z" />
    <glyph glyph-name="uni0430" unicode="&#x430;" horiz-adv-x="634" 
d="M270 -10q-66 0 -116 31.5t-78 90.5t-28 141t28 140.5t78 90t116 31.5q64 0 112.5 -31.5t64.5 -84.5h-11l11 106h120q-3 -31 -5.5 -63t-2.5 -63v-379h-124l-1 104h12q-16 -52 -65 -83t-111 -31zM305 86q59 0 95 41.5t36 125.5t-36 125t-95 41t-95 -41t-36 -125
t35.5 -125.5t95.5 -41.5z" />
    <glyph glyph-name="uni0431" unicode="&#x431;" horiz-adv-x="607" 
d="M308 -10q-119 0 -189.5 72t-70.5 211v86q0 143 65 230t196 115l185 42l34 -98l-208 -46q-52 -11 -86 -41.5t-51 -72.5t-17 -90v-53h-17q11 45 37 78.5t66 52.5t91 19q64 0 112.5 -29.5t76.5 -85t28 -132.5q0 -79 -31.5 -137t-88 -89.5t-132.5 -31.5zM304 85
q62 0 96.5 39.5t34.5 118.5q0 77 -35 117.5t-96 40.5t-96 -40t-35 -114q0 -81 35 -121.5t96 -40.5z" />
    <glyph glyph-name="uni0432" unicode="&#x432;" horiz-adv-x="579" 
d="M71 0v505h269q95 0 139 -34.5t44 -97.5q0 -48 -32 -80t-85 -40v14q65 -4 100 -38t35 -88q0 -65 -50 -103t-142 -38h-278zM187 77h149q44 0 67.5 18t23.5 53t-23.5 53t-67.5 18h-149v-142zM187 296h138q40 0 62 17.5t22 49.5t-22 49t-62 17h-138v-133z" />
    <glyph glyph-name="uni0433" unicode="&#x433;" horiz-adv-x="467" 
d="M71 0v505h379v-98h-254v-407h-125z" />
    <glyph glyph-name="uni0434" unicode="&#x434;" horiz-adv-x="633" 
d="M26 -130v225h58q30 47 43.5 110.5t13.5 155.5v144h389v-410h82v-225h-106v130h-374v-130h-106zM196 94h217v317h-166v-78q0 -67 -13 -131t-38 -108z" />
    <glyph glyph-name="uni0435" unicode="&#x435;" horiz-adv-x="562" 
d="M319 -10q-127 0 -199 70t-72 192q0 79 31 138t86.5 92t129.5 33q73 0 122 -31t74.5 -87t25.5 -131v-33h-368v66h279l-17 -14q0 70 -29.5 107t-85.5 37q-62 0 -95.5 -44t-33.5 -123v-13q0 -82 40.5 -122.5t114.5 -40.5q43 0 80.5 11.5t71.5 37.5l37 -84q-36 -29 -86 -45
t-106 -16z" />
    <glyph glyph-name="uni0436" unicode="&#x436;" horiz-adv-x="849" 
d="M-5 0l106 189q20 33 38.5 54.5t40.5 33.5t50 15l-26 -39l-187 252h134l149 -198h63v198h124v-198h62l148 198h135l-188 -252l-26 39q28 -3 50 -15t41.5 -33.5t38.5 -54.5l106 -189h-133l-86 152q-13 23 -26 36t-29 18t-39 5h-54v-211h-124v211h-55q-23 0 -39 -5
t-28.5 -18t-26.5 -36l-86 -152h-133z" />
    <glyph glyph-name="uni0437" unicode="&#x437;" horiz-adv-x="530" 
d="M257 -10q-68 0 -127.5 16t-99.5 46l35 82q37 -27 86.5 -41t104.5 -14q64 0 93.5 17.5t29.5 51.5q0 32 -23 48.5t-68 16.5h-131v86h119q41 0 63 16t22 45q0 31 -26.5 49t-86.5 18q-52 0 -95 -12.5t-81 -36.5l-34 78q41 29 99.5 44t127.5 15q101 0 155 -37t54 -105
q0 -46 -31.5 -79t-84.5 -41v14q62 -4 98 -37t36 -89q0 -69 -61 -110t-174 -41z" />
    <glyph glyph-name="uni0438" unicode="&#x438;" horiz-adv-x="615" 
d="M71 0v505h113v-382h-30l287 382h103v-505h-113v383h31l-288 -383h-103z" />
    <glyph glyph-name="uni0439" unicode="&#x439;" horiz-adv-x="615" 
d="M71 0v505h113v-382h-30l287 382h103v-505h-113v383h31l-288 -383h-103zM307 551q-50 0 -88 16.5t-63 47t-36 72.5l64 22q17 -46 47 -67.5t77 -21.5t77 21t49 67l61 -21q-21 -67 -69.5 -101.5t-118.5 -34.5z" />
    <glyph glyph-name="uni043A" unicode="&#x43a;" horiz-adv-x="570" 
d="M71 0v505h124v-198h76l148 198h134l-186 -252l-27 39q28 -3 49.5 -15t41 -33.5t38.5 -54.5l106 -189h-133l-86 152q-13 23 -26 36t-29 18t-39 5h-67v-211h-124z" />
    <glyph glyph-name="uni043B" unicode="&#x43b;" horiz-adv-x="609" 
d="M58 -14l-39 98q33 12 55.5 31.5t36 50t19.5 76t6 108.5v155h402v-505h-124v409h-164v-63q0 -109 -20 -182.5t-62 -116.5t-110 -61z" />
    <glyph glyph-name="uni043C" unicode="&#x43c;" horiz-adv-x="698" 
d="M71 0v505h104l174 -302l174 302h104v-505h-110v365h23l-162 -283h-58l-162 283h23v-365h-110z" />
    <glyph glyph-name="uni043D" unicode="&#x43d;" horiz-adv-x="618" 
d="M71 0v505h124v-198h228v198h124v-505h-124v211h-228v-211h-124z" />
    <glyph glyph-name="uni043E" unicode="&#x43e;" horiz-adv-x="606" 
d="M303 -10q-78 0 -135 32t-88.5 91t-31.5 140t31.5 139.5t88.5 90.5t135 32t135.5 -32t89 -90.5t31.5 -139.5t-31.5 -140t-89 -91t-135.5 -32zM303 86q59 0 94 41.5t35 125.5t-35 125t-94 41t-94 -41t-35 -125t35 -125.5t94 -41.5z" />
    <glyph glyph-name="uni043F" unicode="&#x43f;" horiz-adv-x="615" 
d="M71 0v505h473v-505h-124v409h-225v-409h-124z" />
    <glyph glyph-name="uni0440" unicode="&#x440;" horiz-adv-x="634" 
d="M75 -216v595q0 31 -2 63t-6 63h121l11 -106h-11q15 53 63.5 84.5t112.5 31.5q67 0 117 -31.5t78 -90t28 -140.5t-28 -141t-78 -90.5t-117 -31.5q-63 0 -111 31t-64 83h11v-320h-125zM329 86q60 0 96 41.5t36 125.5t-36 125t-96 41q-59 0 -95 -41t-36 -125t36 -125.5
t95 -41.5z" />
    <glyph glyph-name="uni0441" unicode="&#x441;" horiz-adv-x="518" 
d="M307 -10q-78 0 -136.5 32t-90.5 91.5t-32 141.5t32.5 140t90.5 89t136 31q50 0 97.5 -15.5t77.5 -44.5l-38 -87q-27 25 -60.5 37.5t-65.5 12.5q-67 0 -104.5 -42t-37.5 -122t37.5 -123t104.5 -43q31 0 64.5 12t61.5 37l38 -86q-31 -29 -78.5 -45t-96.5 -16z" />
    <glyph glyph-name="uni0442" unicode="&#x442;" horiz-adv-x="484" 
d="M180 0v407h-173v98h471v-98h-174v-407h-124z" />
    <glyph glyph-name="uni0443" unicode="&#x443;" horiz-adv-x="557" 
d="M65 -227l-29 99q47 10 79 23t53 34t35 54l25 59l-3 -49l-220 512h133l158 -394h-29l159 394h126l-230 -533q-23 -54 -50 -89.5t-58 -57t-68 -33.5t-81 -19z" />
    <glyph glyph-name="uni0444" unicode="&#x444;" horiz-adv-x="860" 
d="M368 -216v314h11q-16 -52 -53.5 -80t-90.5 -28q-55 0 -97.5 32.5t-66.5 91.5t-24 139q0 81 23.5 139.5t66 90.5t98.5 32q53 0 90.5 -28t53.5 -79h-11v328h124v-328h-11q16 51 53.5 79t90.5 28q56 0 98.5 -32t66 -90.5t23.5 -139.5q0 -80 -23.5 -139t-66 -91.5
t-98.5 -32.5q-52 0 -89.5 28t-54.5 80h11v-314h-124zM271 84q46 0 72.5 42t26.5 127q0 84 -27 126.5t-72 42.5q-46 0 -73 -42.5t-27 -126.5q0 -85 27 -127t73 -42zM589 84q46 0 73 42t27 127q0 84 -27.5 126.5t-72.5 42.5q-46 0 -72.5 -42.5t-26.5 -126.5q0 -85 26.5 -127
t72.5 -42z" />
    <glyph glyph-name="uni0445" unicode="&#x445;" horiz-adv-x="563" 
d="M-3 0l235 289v-57l-222 273h148l145 -187h-45l145 187h147l-220 -273v57l234 -289h-149l-157 201h45l-158 -201h-148z" />
    <glyph glyph-name="uni0446" unicode="&#x446;" horiz-adv-x="635" 
d="M509 -130v130h-438v505h124v-409h214v409h123v-409h82v-226h-105z" />
    <glyph glyph-name="uni0447" unicode="&#x447;" horiz-adv-x="584" 
d="M392 0v184q-28 -13 -58 -20t-63 -7q-111 0 -165.5 53t-54.5 158v137h124v-126q0 -64 28 -92.5t90 -28.5q29 0 52 6t44 19v222h124v-505h-121z" />
    <glyph glyph-name="uni0448" unicode="&#x448;" horiz-adv-x="848" 
d="M71 0v505h117v-409h178v409h116v-409h178v409h117v-505h-706z" />
    <glyph glyph-name="uni0449" unicode="&#x449;" horiz-adv-x="880" 
d="M754 -130v130h-683v505h117v-409h178v409h116v-409h178v409h117v-409h82v-226h-105z" />
    <glyph glyph-name="uni044A" unicode="&#x44a;" horiz-adv-x="650" 
d="M157 0v407h-150v98h274v-169h132q101 0 152.5 -42.5t51.5 -122.5q0 -52 -24 -90.5t-69.5 -59.5t-110.5 -21h-256zM281 82h116q50 0 77.5 21.5t27.5 65.5t-27 64.5t-78 20.5h-116v-172z" />
    <glyph glyph-name="uni044B" unicode="&#x44b;" horiz-adv-x="789" 
d="M71 0v505h124v-169h133q101 0 152 -42.5t51 -122.5q0 -52 -24 -90.5t-69.5 -59.5t-109.5 -21h-257zM195 82h116q51 0 78 21.5t27 65.5t-26.5 64.5t-78.5 20.5h-116v-172zM594 0v505h124v-505h-124z" />
    <glyph glyph-name="uni044C" unicode="&#x44c;" horiz-adv-x="564" 
d="M71 0v505h124v-169h133q101 0 152 -42.5t51 -122.5q0 -52 -24 -90.5t-69.5 -59.5t-109.5 -21h-257zM195 82h116q51 0 78 21.5t27 65.5t-26.5 64.5t-78.5 20.5h-116v-172z" />
    <glyph glyph-name="uni044D" unicode="&#x44d;" horiz-adv-x="539" 
d="M227 -10q-57 0 -109 16.5t-83 47.5l37 78q29 -25 67.5 -38.5t77.5 -13.5q71 0 113 40t46 118l13 -24h-254v85h254l-13 -24q-4 47 -22.5 81t-52.5 52t-84 18q-38 0 -76.5 -13t-68.5 -39l-37 79q34 29 86 45.5t107 16.5q81 0 140.5 -31t91.5 -89.5t32 -140.5t-32.5 -141.5
t-92 -91t-140.5 -31.5z" />
    <glyph glyph-name="uni044E" unicode="&#x44e;" horiz-adv-x="834" 
d="M531 -10q-105 0 -171.5 58.5t-79.5 162.5h-87v-211h-122v505h122v-198h88q16 98 82 153t168 55q78 0 135.5 -31.5t89 -90t31.5 -140.5q0 -81 -31.5 -140t-89 -91t-135.5 -32zM531 85q59 0 95 41.5t36 126.5q0 84 -36 125.5t-95 41.5q-60 0 -95.5 -41.5t-35.5 -125.5
q0 -85 35.5 -126.5t95.5 -41.5z" />
    <glyph glyph-name="uni044F" unicode="&#x44f;" horiz-adv-x="570" 
d="M29 0l77 133q20 34 49.5 54.5t61.5 20.5h22l-1 -11q-89 0 -137 39t-48 114q0 74 49.5 114.5t145.5 40.5h251v-505h-114v178h-57q-31 0 -54.5 -17t-39.5 -44l-66 -117h-139zM272 259h113v165h-113q-51 0 -76.5 -22t-25.5 -60q0 -40 25.5 -61.5t76.5 -21.5z" />
    <glyph glyph-name="uni0450" unicode="&#x450;" horiz-adv-x="562" 
d="M319 -10q-127 0 -199 70t-72 192q0 79 31 138t86.5 92t129.5 33q73 0 122 -31t74.5 -87t25.5 -131v-33h-368v66h279l-17 -14q0 70 -29.5 107t-85.5 37q-62 0 -95.5 -44t-33.5 -123v-13q0 -82 40.5 -122.5t114.5 -40.5q43 0 80.5 11.5t71.5 37.5l37 -84q-36 -29 -86 -45
t-106 -16zM253 554l-142 203h123l103 -203h-84z" />
    <glyph glyph-name="uni0451" unicode="&#x451;" horiz-adv-x="562" 
d="M319 -10q-127 0 -199 70t-72 192q0 79 31 138t86.5 92t129.5 33q73 0 122 -31t74.5 -87t25.5 -131v-33h-368v66h279l-17 -14q0 70 -29.5 107t-85.5 37q-62 0 -95.5 -44t-33.5 -123v-13q0 -82 40.5 -122.5t114.5 -40.5q43 0 80.5 11.5t71.5 37.5l37 -84q-36 -29 -86 -45
t-106 -16zM332 597v115h115v-115h-115zM143 597v115h115v-115h-115z" />
    <glyph glyph-name="uni0452" unicode="&#x452;" horiz-adv-x="614" 
d="M341 -187l-38 92q48 12 73 30.5t34.5 48.5t9.5 75v229q0 61 -23.5 86.5t-70.5 25.5q-57 0 -91 -34.5t-34 -93.5v-272h-125v569h-92v88h92v79h125v-79h195v-88h-195v-178h-13q22 51 69.5 79.5t108.5 28.5q90 0 134.5 -50t44.5 -155v-233q0 -64 -18.5 -112.5t-62.5 -82
t-123 -53.5z" />
    <glyph glyph-name="uni0453" unicode="&#x453;" horiz-adv-x="467" 
d="M71 0v505h379v-98h-254v-407h-125zM202 554l103 203h123l-142 -203h-84z" />
    <glyph glyph-name="uni0454" unicode="&#x454;" horiz-adv-x="544" 
d="M313 -10q-81 0 -140.5 32t-92 91.5t-32.5 141.5t33 140t93.5 89t142.5 31q56 0 107 -16.5t81 -45.5l-37 -79q-30 26 -68 39t-77 13q-50 0 -84 -18t-52.5 -52t-22.5 -81l-13 24h254v-85h-254l13 25q5 -79 46 -119t113 -40q38 0 77 13.5t68 38.5l37 -78
q-31 -31 -83.5 -47.5t-108.5 -16.5z" />
    <glyph glyph-name="uni0455" unicode="&#x455;" horiz-adv-x="515" 
d="M255 -10q-65 0 -119.5 15.5t-91.5 43.5l35 84q38 -26 84 -40t93 -14q50 0 74.5 17t24.5 46q0 23 -15.5 36.5t-49.5 20.5l-100 19q-64 14 -97.5 48t-33.5 89q0 47 25.5 83t73 56.5t111.5 20.5q56 0 105.5 -15t83.5 -45l-36 -81q-31 25 -71 39t-78 14q-52 0 -76 -18.5
t-24 -47.5q0 -22 14.5 -36.5t45.5 -21.5l100 -19q67 -13 101.5 -45.5t34.5 -88.5q0 -50 -27 -86t-75 -55t-112 -19z" />
    <glyph glyph-name="uni0456" unicode="&#x456;" horiz-adv-x="275" 
d="M75 0v505h125v-505h-125zM68 600v122h139v-122h-139z" />
    <glyph glyph-name="uni0457" unicode="&#x457;" horiz-adv-x="275" 
d="M75 0v505h125v-505h-125zM175 597v115h115v-115h-115zM-14 597v115h115v-115h-115z" />
    <glyph glyph-name="uni0458" unicode="&#x458;" horiz-adv-x="275" 
d="M25 -222q-19 0 -41.5 3t-39.5 10v99q13 -4 28 -7t29 -3q36 0 56.5 22t20.5 74v529h125v-536q0 -94 -43 -142.5t-135 -48.5zM70 600v122h139v-122h-139z" />
    <glyph glyph-name="uni0459" unicode="&#x459;" horiz-adv-x="905" 
d="M58 -14l-39 98q33 12 55.5 31.5t36 50t19.5 76t6 108.5v155h399v-169h133q101 0 152.5 -42.5t51.5 -122.5q0 -52 -24.5 -90.5t-70 -59.5t-109.5 -21h-254v409h-164v-63q0 -109 -20 -182.5t-62 -116.5t-110 -61zM535 82h116q51 0 78 21.5t27 65.5t-26.5 64.5t-78.5 20.5
h-116v-172z" />
    <glyph glyph-name="uni045A" unicode="&#x45a;" horiz-adv-x="916" 
d="M71 0v505h124v-198h229v198h123v-169h133q101 0 152 -42.5t51 -122.5q0 -52 -24 -90.5t-69.5 -59.5t-109.5 -21h-256v211h-229v-211h-124zM547 82h116q51 0 78 21.5t27 65.5t-26.5 64.5t-78.5 20.5h-116v-172z" />
    <glyph glyph-name="uni045B" unicode="&#x45b;" horiz-adv-x="617" 
d="M75 0v569h-91v88h91v79h125v-79h195v-88h-195v-175h-14q23 53 71 81.5t110 28.5q90 0 134 -50.5t44 -153.5v-300h-125v294q0 59 -23 85t-71 26q-57 0 -91.5 -34.5t-34.5 -93.5v-277h-125z" />
    <glyph glyph-name="uni045C" unicode="&#x45c;" horiz-adv-x="570" 
d="M71 0v505h124v-198h76l148 198h134l-186 -252l-27 39q28 -3 49.5 -15t41 -33.5t38.5 -54.5l106 -189h-133l-86 152q-13 23 -26 36t-29 18t-39 5h-67v-211h-124zM270 554l103 203h123l-142 -203h-84z" />
    <glyph glyph-name="uni045D" unicode="&#x45d;" horiz-adv-x="615" 
d="M71 0v505h113v-382h-30l287 382h103v-505h-113v383h31l-288 -383h-103zM266 554l-142 203h123l103 -203h-84z" />
    <glyph glyph-name="uni045E" unicode="&#x45e;" horiz-adv-x="557" 
d="M65 -227l-29 99q47 10 79 23t53 34t35 54l25 59l-3 -49l-220 512h133l158 -394h-29l159 394h126l-230 -533q-23 -54 -50 -89.5t-58 -57t-68 -33.5t-81 -19zM276 551q-50 0 -88 16.5t-63 47t-36 72.5l64 22q17 -46 47 -67.5t77 -21.5t77 21t49 67l61 -21
q-21 -67 -69.5 -101.5t-118.5 -34.5z" />
    <glyph glyph-name="uni045F" unicode="&#x45f;" horiz-adv-x="615" 
d="M254 -130v130h-183v505h124v-409h225v409h124v-505h-184v-130h-106z" />
    <glyph glyph-name="uni0462" unicode="&#x462;" horiz-adv-x="764" 
d="M158 0v523h-178v93h178v89h123v-89h244v-93h-244v-113h200q116 0 181 -51.5t65 -152.5q0 -100 -65 -153t-181 -53h-323zM281 99h186q71 0 104 26.5t33 80.5q0 53 -33 79.5t-104 26.5h-186v-213z" />
    <glyph glyph-name="uni0463" unicode="&#x463;" horiz-adv-x="650" 
d="M157 0v422h-150v83h150v231h124v-231h170v-83h-170v-104h140q94 0 145 -40.5t51 -117.5q0 -78 -51.5 -119t-144.5 -41h-264zM281 75h119q50 0 76 21t26 64t-26 62.5t-76 19.5h-119v-167z" />
    <glyph glyph-name="uni046A" unicode="&#x46a;" horiz-adv-x="1031" 
d="M4 0l127 254q24 47 58 80.5t81 51.5t109 18h47l-7 -29l-292 330h778l-292 -330l-7 29h47q62 0 109 -18t81 -51.5t57 -80.5l127 -254h-138l-98 203q-25 50 -57 73.5t-88 23.5h-66v-300h-128v300h-65q-56 0 -88.5 -23.5t-57.5 -73.5l-99 -203h-138zM515 403h2l218 248v-34
h-439v34z" />
    <glyph glyph-name="uni046B" unicode="&#x46b;" horiz-adv-x="848" 
d="M-5 0l106 177q26 44 50 69.5t55 37t78 11.5h64l-20 -34l-211 244h614l-210 -244l-21 34h65q48 0 79 -11.5t55 -37.5t49 -69l105 -177h-133l-85 139q-14 24 -27 37t-28.5 18t-38.5 5h-55v-199h-124v199h-55q-22 0 -38 -5t-28.5 -18t-27.5 -37l-85 -139h-133zM424 278h2
l151 182v-35h-306v35z" />
    <glyph glyph-name="uni0472" unicode="&#x472;" horiz-adv-x="787" 
d="M125 311v95h550v-95h-550zM55 353q0 111 40.5 192t116.5 125.5t181 44.5q104 0 180 -44.5t117.5 -125.5t41.5 -191q0 -111 -41.5 -192.5t-117.5 -126.5t-180 -45q-105 0 -180.5 45t-116.5 126.5t-41 191.5zM190 353q0 -119 51 -186t152 -67q98 0 151 67t53 186
q0 120 -52.5 186t-151.5 66q-101 0 -152 -66t-51 -186z" />
    <glyph glyph-name="uni0473" unicode="&#x473;" horiz-adv-x="606" 
d="M303 -10q-78 0 -135 32t-88.5 91t-31.5 140t31.5 139.5t88.5 90.5t135 32t135.5 -32t89 -90.5t31.5 -139.5t-31.5 -140t-89 -91t-135.5 -32zM303 86q67 0 103 43.5t36 123.5t-36 123t-103 43t-103 -43t-36 -123t36 -123.5t103 -43.5zM126 213v81h356v-81h-356z" />
    <glyph glyph-name="uni0474" unicode="&#x474;" horiz-adv-x="792" 
d="M301 0l-309 705h139l248 -592h-42l177 402q25 56 51 94.5t57.5 61.5t73.5 33.5t99 10.5l11 -104q-50 0 -81 -13t-54.5 -44.5t-49.5 -87.5l-211 -466h-109z" />
    <glyph glyph-name="uni0475" unicode="&#x475;" horiz-adv-x="589" 
d="M222 0l-217 505h132l158 -396h-31l112 273q21 51 46.5 80t65 41t99.5 12l10 -99q-49 0 -76 -18.5t-47 -65.5l-143 -332h-109z" />
    <glyph glyph-name="uni048A" unicode="&#x48a;" horiz-adv-x="783" 
d="M587 -165l56 165h-85v102h229l-92 -267h-108zM78 0v705h119v-532h-24l408 532h97v-705h-120v532h24l-409 -532h-95zM378 760q-54 0 -96 17t-69 48.5t-39 74.5l64 22q19 -49 53 -71t87 -22q54 0 87.5 22t54.5 70l62 -21q-22 -70 -75.5 -105t-128.5 -35z" />
    <glyph glyph-name="uni048B" unicode="&#x48b;" horiz-adv-x="646" 
d="M455 -130l46 130h-69v94h206l-79 -224h-104zM71 0v505h113v-382h-30l287 382h103v-505h-113v383h31l-288 -383h-103zM307 551q-50 0 -88 16.5t-63 47t-36 72.5l64 22q17 -46 47 -67.5t77 -21.5t77 21t49 67l61 -21q-21 -67 -69.5 -101.5t-118.5 -34.5z" />
    <glyph glyph-name="uni048C" unicode="&#x48c;" horiz-adv-x="752" 
d="M147 0v524h-147v92h147v89h122v-89h147v-92h-147v-114h199q116 0 181.5 -51.5t65.5 -152.5q0 -100 -65.5 -153t-181.5 -53h-321zM269 99h184q71 0 105.5 26.5t34.5 80.5q0 53 -34.5 79.5t-105.5 26.5h-184v-213z" />
    <glyph glyph-name="uni048D" unicode="&#x48d;" horiz-adv-x="650" 
d="M157 0v422h-150v83h150v231h124v-231h170v-83h-170v-104h140q94 0 145 -40.5t51 -117.5q0 -78 -51.5 -119t-144.5 -41h-264zM281 75h119q50 0 76 21t26 64t-26 62.5t-76 19.5h-119v-167z" />
    <glyph glyph-name="uni048E" unicode="&#x48e;" horiz-adv-x="666" 
d="M78 0v705h310q119 0 180 -57.5t61 -162.5q0 -74 -33.5 -126t-96.5 -75l8 17l55 -80l-59 -40l-69 101l22 -11q-14 -3 -31 -4.5t-37 -1.5h-183v-265h-127zM205 365h164q11 0 23.5 1t21.5 3l-28 -15l-52 77l57 37l67 -96l-22 5q70 26 70 108q0 120 -143 120h-158v-240z" />
    <glyph glyph-name="uni048F" unicode="&#x48f;" horiz-adv-x="633" 
d="M75 -216v595q0 31 -2.5 63t-5.5 63h120l11 -106h-11q16 53 64.5 84.5t112.5 31.5q67 0 116.5 -31.5t77.5 -90t28 -140.5q0 -77 -25 -134.5t-70 -89.5l4 16l51 -64l-49 -37l-55 71l18 -2q-40 -23 -96 -23q-64 0 -112 31t-64 83h12v-320h-125zM329 419q-59 0 -95 -41
t-36 -125t36 -126t95 -41q37 2 62 16l-4 -16l-62 79l48 36l63 -80l-16 3q40 42 40 129q0 84 -36 125t-95 41z" />
    <glyph glyph-name="uni0490" unicode="&#x490;" horiz-adv-x="572" 
d="M78 0v705h366v160h112v-265h-350v-600h-128z" />
    <glyph glyph-name="uni0491" unicode="&#x491;" horiz-adv-x="467" 
d="M71 0v505h273v113h106v-211h-255v-407h-124z" />
    <glyph glyph-name="uni0492" unicode="&#x492;" horiz-adv-x="616" 
d="M122 0v302h-98v92h98v311h478v-105h-350v-206h185v-92h-185v-302h-128z" />
    <glyph glyph-name="uni0493" unicode="&#x493;" horiz-adv-x="494" 
d="M98 0v190h-93v87h93v228h379v-97h-255v-131h146v-87h-146v-190h-124z" />
    <glyph glyph-name="uni0494" unicode="&#x494;" horiz-adv-x="715" 
d="M433 -190q-30 0 -58.5 3.5t-48.5 9.5v102q19 -7 41.5 -11t47.5 -4q57 0 88.5 37.5t31.5 107.5v87q0 100 -48 145.5t-141 45.5q-39 0 -75 -7.5t-66 -22.5v-303h-127v705h483v-105h-356v-187q26 13 68.5 21t87.5 8q147 0 224.5 -73t77.5 -221v-88q0 -80 -28.5 -136t-80 -85
t-121.5 -29z" />
    <glyph glyph-name="uni0495" unicode="&#x495;" horiz-adv-x="587" 
d="M344 -187l-38 92q48 12 73 30.5t34.5 48.5t9.5 75v59q0 62 -22 89t-75 27q-59 0 -95 -35.5t-36 -94.5v-104h-124v505h379v-88h-255v-199l-17 -1q24 54 73 84.5t115 30.5q91 0 136 -51t45 -157v-63q0 -64 -18 -112.5t-62 -82t-123 -53.5z" />
    <glyph glyph-name="uni0496" unicode="&#x496;" horiz-adv-x="1057" 
d="M974 -165v165h-54v102h167v-267h-113zM4 0l125 251q34 66 80 102.5t114 46.5l-49 -36l-232 341h141l209 -317l-25 17h92v300h123v-300h93l-26 -17l208 317h141l-231 -341l-49 36q68 -10 113.5 -46.5t78.5 -102.5l126 -251h-138l-98 203q-25 52 -59.5 74.5t-87.5 22.5h-71
v-300h-123v300h-71q-54 0 -88.5 -22.5t-59.5 -74.5l-97 -203h-139z" />
    <glyph glyph-name="uni0497" unicode="&#x497;" horiz-adv-x="897" 
d="M771 -130v130h-40v94h147v-224h-107zM-5 0l106 189q20 33 38.5 54.5t40.5 33.5t50 15l-26 -39l-187 252h134l149 -198h63v198h124v-198h62l148 198h135l-188 -252l-26 39q28 -3 50 -15t41.5 -33.5t38.5 -54.5l106 -189h-133l-86 152q-13 23 -26 36t-29 18t-39 5h-54v-211
h-124v211h-55q-23 0 -39 -5t-28.5 -18t-26.5 -36l-86 -152h-133z" />
    <glyph glyph-name="uni0498" unicode="&#x498;" horiz-adv-x="643" 
d="M267 -165v225h108v-225h-108zM312 -10q-91 0 -162 22.5t-120 62.5l41 95q45 -36 102 -54.5t130 -18.5q88 0 129 27.5t41 82.5q0 51 -34 75.5t-105 24.5h-177v101h161q68 0 102.5 24.5t34.5 73.5q0 47 -37 74.5t-114 27.5q-61 0 -117 -18t-100 -53l-41 95
q47 40 118.5 61.5t151.5 21.5q131 0 197.5 -53t66.5 -139q0 -64 -38 -108.5t-104 -59.5v15q75 -11 117.5 -56t42.5 -118q0 -62 -31.5 -108.5t-95 -72t-159.5 -25.5z" />
    <glyph glyph-name="uni0499" unicode="&#x499;" horiz-adv-x="530" 
d="M216 -130v184h100v-184h-100zM257 -10q-68 0 -127.5 16t-99.5 46l35 82q37 -27 86.5 -41t104.5 -14q64 0 93.5 17.5t29.5 51.5q0 32 -23 48.5t-68 16.5h-131v86h119q41 0 63 16t22 45q0 31 -26.5 49t-86.5 18q-52 0 -95 -12.5t-81 -36.5l-34 78q41 29 99.5 44t127.5 15
q101 0 155 -37t54 -105q0 -46 -31.5 -79t-84.5 -41v14q62 -4 98 -37t36 -89q0 -69 -61 -110t-174 -41z" />
    <glyph glyph-name="uni049A" unicode="&#x49a;" horiz-adv-x="727" 
d="M621 -165v165h-54v102h167v-267h-113zM78 0v705h127v-300h120l-26 -17l208 317h142l-232 -341l-49 36q68 -10 113.5 -46.5t79.5 -102.5l125 -251h-139l-97 203q-25 53 -59.5 75t-87.5 22h-98v-300h-127z" />
    <glyph glyph-name="uni049B" unicode="&#x49b;" horiz-adv-x="619" 
d="M492 -130v130h-40v94h147v-224h-107zM71 0v505h124v-198h76l148 198h134l-186 -252l-27 39q28 -3 49.5 -15t41 -33.5t38.5 -54.5l106 -189h-133l-86 152q-13 23 -26 36t-29 18t-39 5h-67v-211h-124z" />
    <glyph glyph-name="uni049C" unicode="&#x49c;" horiz-adv-x="742" 
d="M78 0v705h128v-300h63v164h74v-164h18l198 300h141l-231 -341l-50 36q68 -10 114 -46.5t80 -102.5l125 -251h-139l-97 203q-25 53 -59.5 75.5t-87.5 22.5h-27l15 11v-172h-74v161h-63v-301h-128z" />
    <glyph glyph-name="uni049D" unicode="&#x49d;" horiz-adv-x="634" 
d="M71 0v505h124v-198h52v113h75v-113h13l147 198h135l-186 -252l-28 39q28 -3 50 -15t41.5 -33.5t38.5 -54.5l106 -189h-133l-86 152q-13 23 -26 36t-29 18t-39 5h-17l13 14v-138h-75v124h-52v-211h-124z" />
    <glyph glyph-name="uni049E" unicode="&#x49e;" horiz-adv-x="752" 
d="M134 0v529h-146v87h146v89h127v-89h131v-87h-131v-124h139l-33 -28l220 328h141l-243 -352l-34 39q49 -9 90 -42t75 -99l126 -251h-139l-97 203q-25 53 -59.5 75t-87.5 22h-98v-300h-127z" />
    <glyph glyph-name="uni049F" unicode="&#x49f;" horiz-adv-x="574" 
d="M76 0v569h-92v88h92v79h125v-79h195v-88h-195v-266h77l143 187h134l-185 -245l-21 39q28 -3 47.5 -14t37.5 -32t39 -56l106 -182h-133l-86 149q-13 23 -26 36t-28.5 18t-38.5 5h-66v-208h-125z" />
    <glyph glyph-name="uni04A0" unicode="&#x4a0;" horiz-adv-x="836" 
d="M11 600v105h340v-105h-340zM224 0v705h127v-300h120l-26 -17l208 317h142l-232 -341l-49 36q68 -10 113.5 -46.5t79.5 -102.5l125 -251h-139l-97 203q-25 53 -59.5 75t-87.5 22h-98v-300h-127z" />
    <glyph glyph-name="uni04A1" unicode="&#x4a1;" horiz-adv-x="656" 
d="M157 0v407h-150v98h274v-198h76l148 198h134l-186 -252l-27 39q28 -3 49.5 -15t40.5 -33.5t39 -54.5l106 -189h-133l-86 152q-14 23 -27 36t-28.5 18t-38.5 5h-67v-211h-124z" />
    <glyph glyph-name="uni04A2" unicode="&#x4a2;" horiz-adv-x="821" 
d="M703 -165v165h-112v102h224v-267h-112zM78 0v705h129v-294h361v294h129v-705h-129v304h-361v-304h-129z" />
    <glyph glyph-name="uni04A3" unicode="&#x4a3;" horiz-adv-x="619" 
d="M524 -130v130h-93v94h199v-224h-106zM71 0v505h124v-198h228v198h124v-505h-124v211h-228v-211h-124z" />
    <glyph glyph-name="uni04A4" unicode="&#x4a4;" horiz-adv-x="957" 
d="M78 0v705h127v-294h362v294h377v-105h-249v-600h-128v305h-362v-305h-127z" />
    <glyph glyph-name="uni04A5" unicode="&#x4a5;" horiz-adv-x="777" 
d="M71 0v505h124v-198h225v198h340v-98h-216v-407h-124v211h-225v-211h-124z" />
    <glyph glyph-name="uni04A8" unicode="&#x4a8;" horiz-adv-x="865" 
d="M404 -10q-109 0 -187 43.5t-120 124t-42 191.5q0 115 42 197t120 125.5t187 43.5q20 0 37.5 -1.5t30.5 -4.5l-12 -101q-16 2 -29 3t-25 1q-105 0 -162 -67t-57 -192q0 -130 57.5 -198.5t169.5 -68.5q82 0 136.5 27t81.5 79t27 128q0 63 -25.5 98t-70.5 35
q-44 0 -69.5 -35t-25.5 -98q0 -76 26.5 -128.5t81 -79t136.5 -26.5q37 0 71.5 8.5t68.5 24.5l30 -91q-31 -19 -74.5 -28.5t-96.5 -9.5q-76 0 -141.5 25t-114.5 70.5t-76 106.5t-27 132q0 70 26 120.5t73.5 78.5t111.5 28q65 0 112 -28t73 -78.5t26 -120.5
q0 -71 -27.5 -131.5t-77.5 -106t-117.5 -71t-147.5 -25.5z" />
    <glyph glyph-name="uni04A9" unicode="&#x4a9;" horiz-adv-x="715" 
d="M336 -10q-137 0 -212.5 71t-75.5 195q0 80 32.5 138t91 89.5t136.5 31.5q27 0 51.5 -4t42.5 -12l-21 -86q-13 6 -30.5 9t-37.5 3q-66 0 -105 -45t-39 -124q0 -87 46.5 -134t130.5 -47q92 0 137.5 37.5t45.5 107.5q0 41 -18 64.5t-50 23.5q-31 0 -49.5 -23.5t-18.5 -64.5
q0 -49 20 -81.5t60.5 -48t102.5 -15.5q35 0 68 8t60 23l20 -86q-60 -30 -140 -30q-60 0 -112.5 18t-92 49.5t-62 74.5t-22.5 92q0 76 45.5 121t120.5 45t120.5 -45t45.5 -121q0 -50 -22.5 -93t-63 -74.5t-93 -49t-112.5 -17.5z" />
    <glyph glyph-name="uni04AA" unicode="&#x4aa;" horiz-adv-x="685" 
d="M352 -165v225h108v-225h-108zM406 -10q-110 0 -188.5 44.5t-120.5 126t-42 192.5t42 192t120.5 125.5t188.5 44.5q74 0 133.5 -21t102.5 -62l-42 -102q-47 38 -90.5 54.5t-99.5 16.5q-107 0 -163.5 -64.5t-56.5 -183.5t56.5 -184t163.5 -65q56 0 99.5 16.5t90.5 55.5
l42 -102q-43 -40 -102.5 -62t-133.5 -22z" />
    <glyph glyph-name="uni04AB" unicode="&#x4ab;" horiz-adv-x="517" 
d="M249 -130v184h100v-184h-100zM307 -10q-78 0 -136.5 32t-90.5 91.5t-32 141.5t32.5 140t90.5 89t136 31q50 0 97.5 -15.5t77.5 -44.5l-38 -87q-27 25 -60.5 37.5t-65.5 12.5q-67 0 -104.5 -42t-37.5 -122t37.5 -123t104.5 -43q31 0 64.5 12t61.5 37l38 -86
q-31 -29 -78.5 -45t-96.5 -16z" />
    <glyph glyph-name="uni04AC" unicode="&#x4ac;" horiz-adv-x="619" 
d="M363 -165v165h-119v599h-233v106h595v-106h-233v-496h102v-268h-112z" />
    <glyph glyph-name="uni04AD" unicode="&#x4ad;" horiz-adv-x="485" 
d="M280 -130v130h-93v94h199v-224h-106zM180 0v407h-173v98h471v-98h-174v-407h-124z" />
    <glyph glyph-name="uni04AE" unicode="&#x4ae;" horiz-adv-x="629" 
d="M250 0v333l27 -77l-303 449h149l208 -320h-28l208 320h144l-302 -449l26 77v-333h-129z" />
    <glyph glyph-name="uni04AF" unicode="&#x4af;" horiz-adv-x="549" 
d="M209 -216v230l-211 491h132l159 -396h-31l162 396h124l-211 -486v-235h-124z" />
    <glyph glyph-name="uni04B0" unicode="&#x4b0;" horiz-adv-x="629" 
d="M250 0v333l27 -77l-303 449h149l208 -320h-28l208 320h144l-302 -449l26 77v-333h-129zM88 273v74h456v-74h-456z" />
    <glyph glyph-name="uni04B1" unicode="&#x4b1;" horiz-adv-x="549" 
d="M209 -198v146h-130v88h132v-27l-213 496h132l159 -396h-31l162 396h124l-213 -491v22h132v-88h-130v-146h-124z" />
    <glyph glyph-name="uni04B2" unicode="&#x4b2;" horiz-adv-x="708" 
d="M611 -165v165h-54v102h167v-267h-113zM-8 0l290 386v-55l-280 374h151l203 -281h-41l202 281h152l-281 -374v55l291 -386h-152l-214 294h44l-214 -294h-151z" />
    <glyph glyph-name="uni04B3" unicode="&#x4b3;" horiz-adv-x="604" 
d="M499 -130v130h-40v94h147v-224h-107zM-3 0l235 289v-57l-222 273h148l145 -187h-45l145 187h147l-220 -273v57l234 -289h-149l-157 201h45l-158 -201h-148z" />
    <glyph glyph-name="uni04B4" unicode="&#x4b4;" horiz-adv-x="968" 
d="M832 -165v165h-607v600h-214v105h535v-105h-194v-494h362v599h128v-599h103v-271h-113z" />
    <glyph glyph-name="uni04B5" unicode="&#x4b5;" horiz-adv-x="748" 
d="M621 -130v130h-464v407h-150v98h413v-98h-139v-311h240v409h124v-409h82v-226h-106z" />
    <glyph glyph-name="uni04B6" unicode="&#x4b6;" horiz-adv-x="759" 
d="M624 -165v165h-112v102h224v-267h-112zM507 0v276q-29 -13 -73 -21t-88 -8q-142 0 -217.5 73t-75.5 221v164h128v-158q0 -100 44.5 -145.5t134.5 -45.5q38 0 75.5 7t71.5 23v319h128v-705h-128z" />
    <glyph glyph-name="uni04B7" unicode="&#x4b7;" horiz-adv-x="585" 
d="M490 -130v130h-93v94h199v-224h-106zM392 0v184q-28 -13 -58 -20t-63 -7q-111 0 -165.5 53t-54.5 158v137h124v-126q0 -64 28 -92.5t90 -28.5q29 0 52 6t44 19v222h124v-505h-121z" />
    <glyph glyph-name="uni04B8" unicode="&#x4b8;" horiz-adv-x="712" 
d="M507 0v276q-28 -13 -65.5 -20.5t-73.5 -7.5l20 17v-159h-76v159l15 -18q-130 6 -202 76.5t-72 217.5v164h128v-158q0 -91 38.5 -138t115.5 -52l-23 -11v175h76v-175l-25 10q36 0 75 7.5t69 22.5v319h128v-705h-128z" />
    <glyph glyph-name="uni04B9" unicode="&#x4b9;" horiz-adv-x="617" 
d="M422 0v186q-24 -11 -51 -18t-51 -8l21 20v-116h-75v116l24 -21q-121 0 -180 53t-59 156v137h124v-128q0 -63 29.5 -90.5t87.5 -29.5l-26 -14v138h75v-138l-20 13q26 0 51.5 6t49.5 19v224h124v-505h-124z" />
    <glyph glyph-name="uni04BA" unicode="&#x4ba;" horiz-adv-x="712" 
d="M78 0v705h128v-275q29 14 73 21.5t87 7.5q143 0 218.5 -73t75.5 -222v-164h-128v158q0 101 -45 146.5t-135 45.5q-37 0 -75 -6.5t-71 -23.5v-320h-128z" />
    <glyph glyph-name="uni04BB" unicode="&#x4bb;" horiz-adv-x="617" 
d="M75 0v736h125v-332h-14q23 54 71 82.5t110 28.5q90 0 134 -50.5t44 -153.5v-311h-125v305q0 59 -22.5 85.5t-71.5 26.5q-57 0 -91.5 -35.5t-34.5 -94.5v-287h-125z" />
    <glyph glyph-name="uni04BC" unicode="&#x4bc;" horiz-adv-x="947" 
d="M590 -10q-164 0 -256 90.5t-98 249.5l26 -29h-50q-100 0 -149 48.5t-49 139.5v54h125v-52q0 -48 20.5 -69t64.5 -21h30l-18 -28q4 106 45.5 182.5t114 118t167.5 41.5q116 0 188.5 -46t106.5 -129t34 -194v-45h-553l27 46q1 -120 59 -183.5t180 -63.5q46 0 81 8t66 24
t65 41l45 -99q-36 -26 -76 -45t-87.5 -29t-108.5 -10zM568 610q-94 0 -147 -63t-55 -183l-27 37h456l-33 -49q0 85 -18.5 142.5t-61 86.5t-114.5 29z" />
    <glyph glyph-name="uni04BD" unicode="&#x4bd;" horiz-adv-x="679" 
d="M442 -10q-127 0 -199.5 70.5t-71.5 196.5l8 -24h-21q-77 0 -110.5 34.5t-33.5 101.5v36h98v-36q0 -37 13.5 -53.5t47.5 -16.5h24l-26 -28q4 73 36 128t86 85.5t125 30.5q73 0 122 -31t74.5 -87t25.5 -131v-33h-364l14 26q-1 -89 37.5 -131t117.5 -42q43 0 80.5 11.5
t71.5 37.5l37 -84q-36 -29 -86 -45t-106 -16zM419 429q-41 0 -69.5 -19.5t-43 -54.5t-15.5 -83l-15 27h275l-17 -14q0 70 -29.5 107t-85.5 37z" />
    <glyph glyph-name="uni04BE" unicode="&#x4be;" horiz-adv-x="947" 
d="M590 -10q-164 0 -256 90.5t-98 249.5l26 -29h-50q-100 0 -149 48.5t-49 139.5v54h125v-52q0 -48 20.5 -69t64.5 -21h30l-18 -28q4 106 45.5 182.5t114 118t167.5 41.5q116 0 188.5 -46t106.5 -129t34 -194v-45h-553l27 46q1 -120 59 -183.5t180 -63.5q46 0 81 8t66 24
t65 41l45 -99q-36 -26 -76 -45t-87.5 -29t-108.5 -10zM568 610q-94 0 -147 -63t-55 -183l-27 37h456l-33 -49q0 85 -18.5 142.5t-61 86.5t-114.5 29zM648 -195q-55 0 -86.5 28t-31.5 76q0 42 28 78t74 55l38 -42q-17 -7 -31 -18.5t-22 -26.5t-8 -32q0 -25 16.5 -38t39.5 -13
q15 0 28 3t27 8l15 -61q-19 -9 -40 -13t-47 -4z" />
    <glyph glyph-name="uni04BF" unicode="&#x4bf;" horiz-adv-x="679" 
d="M442 -10q-127 0 -199.5 70.5t-71.5 196.5l8 -24h-21q-77 0 -110.5 34.5t-33.5 101.5v36h98v-36q0 -37 13.5 -53.5t47.5 -16.5h24l-26 -28q4 73 36 128t86 85.5t125 30.5q73 0 122 -31t74.5 -87t25.5 -131v-33h-364l14 26q-1 -89 37.5 -131t117.5 -42q43 0 80.5 11.5
t71.5 37.5l37 -84q-36 -29 -86 -45t-106 -16zM419 429q-41 0 -69.5 -19.5t-43 -54.5t-15.5 -83l-15 27h275l-17 -14q0 70 -29.5 107t-85.5 37zM494 -195q-55 0 -86.5 28t-31.5 76q0 42 28 78t74 55l38 -42q-17 -7 -31 -18.5t-22 -26.5t-8 -32q0 -25 16.5 -38t39.5 -13
q15 0 28 3t27 8l15 -61q-19 -9 -40 -13t-47 -4z" />
    <glyph glyph-name="uni04C0" unicode="&#x4c0;" horiz-adv-x="284" 
d="M78 0v705h129v-705h-129z" />
    <glyph glyph-name="uni04C1" unicode="&#x4c1;" horiz-adv-x="1040" 
d="M4 0l125 251q34 66 80 102.5t114 46.5l-49 -36l-232 341h141l209 -317l-25 17h92v300h123v-300h93l-26 -17l208 317h141l-231 -341l-49 36q68 -10 113.5 -46.5t78.5 -102.5l126 -251h-138l-98 203q-25 52 -59.5 74.5t-87.5 22.5h-71v-300h-123v300h-71q-54 0 -88.5 -22.5
t-59.5 -74.5l-97 -203h-139zM519 760q-54 0 -96 17t-69 48.5t-39 74.5l64 22q19 -49 53 -71t87 -22q54 0 87.5 22t54.5 70l62 -21q-22 -70 -75.5 -105t-128.5 -35z" />
    <glyph glyph-name="uni04C2" unicode="&#x4c2;" horiz-adv-x="849" 
d="M-5 0l106 189q20 33 38.5 54.5t40.5 33.5t50 15l-26 -39l-187 252h134l149 -198h63v198h124v-198h62l148 198h135l-188 -252l-26 39q28 -3 50 -15t41.5 -33.5t38.5 -54.5l106 -189h-133l-86 152q-13 23 -26 36t-29 18t-39 5h-54v-211h-124v211h-55q-23 0 -39 -5
t-28.5 -18t-26.5 -36l-86 -152h-133zM423 551q-50 0 -88 16.5t-63 47t-36 72.5l64 22q17 -46 47 -67.5t77 -21.5t77 21t49 67l61 -21q-21 -67 -69.5 -101.5t-118.5 -34.5z" />
    <glyph glyph-name="uni04C3" unicode="&#x4c3;" horiz-adv-x="715" 
d="M433 -190q-30 0 -58.5 3.5t-48.5 9.5v102q19 -7 41.5 -11t47.5 -4q57 0 88.5 37t31.5 107v57q0 101 -50 148t-147 47h-133v-306h-127v705h127v-294h133l-32 -23l209 317h141l-232 -341l-19 42q125 -10 191.5 -81t66.5 -208v-58q0 -80 -28.5 -136t-80 -84.5t-121.5 -28.5z
" />
    <glyph glyph-name="uni04C4" unicode="&#x4c4;" horiz-adv-x="581" 
d="M336 -187l-38 92q48 12 73 30.5t34.5 48t9.5 73.5v27q0 67 -32 97t-94 30h-94v-211h-124v505h124v-198h76l148 198h134l-188 -252l-53 50q107 0 167 -54t60 -159v-32q0 -63 -18 -110.5t-62 -81t-123 -53.5z" />
    <glyph glyph-name="uni04C5" unicode="&#x4c5;" horiz-adv-x="800" 
d="M602 -165l56 165h-85v102h229l-92 -267h-108zM77 -17l-63 95q42 23 74 54t53 77.5t31.5 115t10.5 165.5v215h512v-705h-128v600h-265v-142q0 -101 -15 -178t-44 -134.5t-70.5 -97t-95.5 -65.5z" />
    <glyph glyph-name="uni04C6" unicode="&#x4c6;" horiz-adv-x="640" 
d="M445 -130l46 130h-69v94h206l-79 -224h-104zM58 -14l-39 98q33 12 55.5 31.5t36 50t19.5 76t6 108.5v155h402v-505h-124v409h-164v-63q0 -109 -20 -182.5t-62 -116.5t-110 -61z" />
    <glyph glyph-name="uni04C7" unicode="&#x4c7;" horiz-adv-x="774" 
d="M502 -187q-17 0 -40.5 2t-47.5 7v102q20 -4 37 -6t30 -2q45 0 66 26.5t21 85.5v276h-361v-304h-129v705h129v-294h361v294h129v-676q0 -72 -20 -120t-63 -72t-112 -24z" />
    <glyph glyph-name="uni04C8" unicode="&#x4c8;" horiz-adv-x="618" 
d="M304 -193l-8 91l47 4q41 4 61 26t20 65v218h-229v-211h-124v505h124v-198h229v198h123v-496q0 -64 -19.5 -106.5t-63 -65t-115.5 -27.5z" />
    <glyph glyph-name="uni04C9" unicode="&#x4c9;" horiz-adv-x="802" 
d="M620 -165l56 165h-85v102h229l-92 -267h-108zM78 0v705h129v-294h361v294h129v-705h-129v304h-361v-304h-129z" />
    <glyph glyph-name="uni04CA" unicode="&#x4ca;" horiz-adv-x="645" 
d="M454 -130l46 130h-69v94h206l-79 -224h-104zM71 0v505h124v-198h228v198h124v-505h-124v211h-228v-211h-124z" />
    <glyph glyph-name="uni04CB" unicode="&#x4cb;" horiz-adv-x="712" 
d="M524 -165h-114v267h174v-102h-60v-165zM507 0v276q-29 -13 -73 -21t-88 -8q-142 0 -217.5 73t-75.5 221v164h128v-158q0 -100 44.5 -145.5t134.5 -45.5q38 0 75.5 7t71.5 23v319h128v-705h-128z" />
    <glyph glyph-name="uni04CC" unicode="&#x4cc;" horiz-adv-x="614" 
d="M416 -130h-106v200h185v-70h-79v-130zM392 0v184q-28 -13 -58 -20t-63 -7q-111 0 -165.5 53t-54.5 158v137h124v-126q0 -64 28 -92.5t90 -28.5q29 0 52 6t44 19v222h124v-505h-121z" />
    <glyph glyph-name="uni04CD" unicode="&#x4cd;" horiz-adv-x="898" 
d="M727 -165l56 165h-85v102h229l-92 -267h-108zM79 0v705h113l259 -583h-31l259 583h112v-705h-117v523h36l-237 -523h-77l-237 523h37v-523h-117z" />
    <glyph glyph-name="uni04CE" unicode="&#x4ce;" horiz-adv-x="729" 
d="M540 -130l46 130h-69v94h206l-79 -224h-104zM71 0v505h104l174 -302l174 302h104v-505h-110v365h23l-162 -283h-58l-162 283h23v-365h-110z" />
    <glyph glyph-name="uni04CF" unicode="&#x4cf;" horiz-adv-x="275" 
d="M75 0v736h125v-736h-125z" />
    <glyph glyph-name="uni04D0" unicode="&#x4d0;" horiz-adv-x="750" 
d="M0 0l319 705h108l323 -705h-131l-86 198l52 -35h-423l54 35l-86 -198h-130zM372 567l-141 -334l-26 31h336l-21 -31l-144 334h-4zM376 760q-54 0 -96 17t-69 48.5t-39 74.5l64 22q19 -49 53 -71t87 -22q54 0 87.5 22t54.5 70l62 -21q-22 -70 -75.5 -105t-128.5 -35z" />
    <glyph glyph-name="uni04D1" unicode="&#x4d1;" horiz-adv-x="634" 
d="M270 -10q-66 0 -116 31.5t-78 90.5t-28 141t28 140.5t78 90t116 31.5q64 0 112.5 -31.5t64.5 -84.5h-11l11 106h120q-3 -31 -5.5 -63t-2.5 -63v-379h-124l-1 104h12q-16 -52 -65 -83t-111 -31zM305 86q59 0 95 41.5t36 125.5t-36 125t-95 41t-95 -41t-36 -125
t35.5 -125.5t95.5 -41.5zM310 551q-50 0 -88 16.5t-63 47t-36 72.5l64 22q17 -46 47 -67.5t77 -21.5t77 21t49 67l61 -21q-21 -67 -69.5 -101.5t-118.5 -34.5z" />
    <glyph glyph-name="uni04D2" unicode="&#x4d2;" horiz-adv-x="750" 
d="M0 0l319 705h108l323 -705h-131l-86 198l52 -35h-423l54 35l-86 -198h-130zM372 567l-141 -334l-26 31h336l-21 -31l-144 334h-4zM414 790v115h115v-115h-115zM225 790v115h115v-115h-115z" />
    <glyph glyph-name="uni04D3" unicode="&#x4d3;" horiz-adv-x="634" 
d="M270 -10q-66 0 -116 31.5t-78 90.5t-28 141t28 140.5t78 90t116 31.5q64 0 112.5 -31.5t64.5 -84.5h-11l11 106h120q-3 -31 -5.5 -63t-2.5 -63v-379h-124l-1 104h12q-16 -52 -65 -83t-111 -31zM305 86q59 0 95 41.5t36 125.5t-36 125t-95 41t-95 -41t-36 -125
t35.5 -125.5t95.5 -41.5zM348 597v115h115v-115h-115zM159 597v115h115v-115h-115z" />
    <glyph glyph-name="uni04D4" unicode="&#x4d4;" horiz-adv-x="1017" 
d="M-20 0l440 705h555v-101h-377l23 21l21 -251l-18 35h329v-102h-326l19 10l21 -243l-16 28h324v-102h-419l-16 194l28 -31h-369l39 34l-119 -197h-139zM482 603l-222 -369l-10 31h298l-10 -35l-32 373h-24z" />
    <glyph glyph-name="uni04D5" unicode="&#x4d5;" horiz-adv-x="886" 
d="M240 -10q-57 0 -99.5 22t-65.5 58.5t-23 79.5q0 57 26.5 90.5t89 48t170.5 14.5h50v-66h-51q-65 0 -103 -8t-54 -26t-16 -48q0 -34 25 -56t68 -22q35 0 62 15.5t42.5 44t15.5 66.5v121q0 51 -25 73.5t-77 22.5q-44 0 -83.5 -11t-82.5 -36l-36 86q39 26 94.5 41t112.5 15
q74 0 120 -26.5t65 -80.5h-31q33 53 79.5 80t109.5 27q101 0 159.5 -65t58.5 -181v-32h-358v66h269l-17 -16q0 68 -29.5 105t-83.5 37q-59 0 -92.5 -40t-33.5 -120v-8q0 -87 37.5 -131t112.5 -44q41 0 79.5 11.5t72.5 38.5l37 -84q-36 -31 -87.5 -46.5t-105.5 -15.5
q-88 0 -146 36.5t-84 105.5h25q-18 -67 -69.5 -104.5t-127.5 -37.5z" />
    <glyph glyph-name="uni04D6" unicode="&#x4d6;" horiz-adv-x="595" 
d="M78 0v705h475v-101h-351v-195h328v-102h-328v-205h351v-102h-475zM337 760q-54 0 -96 17t-69 48.5t-39 74.5l64 22q19 -49 53 -71t87 -22q54 0 87.5 22t54.5 70l62 -21q-22 -70 -75.5 -105t-128.5 -35z" />
    <glyph glyph-name="uni04D7" unicode="&#x4d7;" horiz-adv-x="562" 
d="M319 -10q-127 0 -199 70t-72 192q0 79 31 138t86.5 92t129.5 33q73 0 122 -31t74.5 -87t25.5 -131v-33h-368v66h279l-17 -14q0 70 -29.5 107t-85.5 37q-62 0 -95.5 -44t-33.5 -123v-13q0 -82 40.5 -122.5t114.5 -40.5q43 0 80.5 11.5t71.5 37.5l37 -84q-36 -29 -86 -45
t-106 -16zM294 551q-50 0 -88 16.5t-63 47t-36 72.5l64 22q17 -46 47 -67.5t77 -21.5t77 21t49 67l61 -21q-21 -67 -69.5 -101.5t-118.5 -34.5z" />
    <glyph glyph-name="uni04D8" unicode="&#x4d8;" horiz-adv-x="766" 
d="M383 -10q-115 0 -187.5 46.5t-106.5 129.5t-34 193v45h552v-100h-455l32 49q0 -85 18.5 -142t61.5 -86t114 -29q97 0 150 65.5t53 192.5q0 122 -57.5 186.5t-177.5 64.5q-44 0 -80.5 -7.5t-69 -23.5t-66.5 -41l-45 98q52 41 118.5 62.5t157.5 21.5q111 0 189.5 -43.5
t119.5 -124.5t41 -194q0 -111 -40.5 -192.5t-114.5 -126t-173 -44.5z" />
    <glyph glyph-name="uni04D9" unicode="&#x4d9;" horiz-adv-x="562" 
d="M267 -10q-104 0 -162.5 64t-58.5 175v41h367v-66h-279l17 16q0 -69 30 -106t86 -37q62 0 95 42.5t33 113.5v18q0 86 -40 127t-120 41q-38 0 -75 -11t-72 -38l-31 87q35 29 86 43.5t111 14.5q80 0 138.5 -31.5t90.5 -90t32 -140.5q0 -78 -31 -137t-86.5 -92.5
t-130.5 -33.5z" />
    <glyph glyph-name="uni04DA" unicode="&#x4da;" horiz-adv-x="766" 
d="M383 -10q-115 0 -187.5 46.5t-106.5 129.5t-34 193v45h552v-100h-455l32 49q0 -85 18.5 -142t61.5 -86t114 -29q97 0 150 65.5t53 192.5q0 122 -57.5 186.5t-177.5 64.5q-44 0 -80.5 -7.5t-69 -23.5t-66.5 -41l-45 98q52 41 118.5 62.5t157.5 21.5q111 0 189.5 -43.5
t119.5 -124.5t41 -194q0 -111 -40.5 -192.5t-114.5 -126t-173 -44.5zM422 790v115h115v-115h-115zM233 790v115h115v-115h-115z" />
    <glyph glyph-name="uni04DB" unicode="&#x4db;" horiz-adv-x="562" 
d="M267 -10q-104 0 -162.5 64t-58.5 175v41h367v-66h-279l17 16q0 -69 30 -106t86 -37q62 0 95 42.5t33 113.5v18q0 86 -40 127t-120 41q-38 0 -75 -11t-72 -38l-31 87q35 29 86 43.5t111 14.5q80 0 138.5 -31.5t90.5 -90t32 -140.5q0 -78 -31 -137t-86.5 -92.5
t-130.5 -33.5zM313 597v115h115v-115h-115zM124 597v115h115v-115h-115z" />
    <glyph glyph-name="uni04DC" unicode="&#x4dc;" horiz-adv-x="1040" 
d="M4 0l125 251q34 66 80 102.5t114 46.5l-49 -36l-232 341h141l209 -317l-25 17h92v300h123v-300h93l-26 -17l208 317h141l-231 -341l-49 36q68 -10 113.5 -46.5t78.5 -102.5l126 -251h-138l-98 203q-25 52 -59.5 74.5t-87.5 22.5h-71v-300h-123v300h-71q-54 0 -88.5 -22.5
t-59.5 -74.5l-97 -203h-139zM557 790v115h115v-115h-115zM368 790v115h115v-115h-115z" />
    <glyph glyph-name="uni04DD" unicode="&#x4dd;" horiz-adv-x="849" 
d="M-5 0l106 189q20 33 38.5 54.5t40.5 33.5t50 15l-26 -39l-187 252h134l149 -198h63v198h124v-198h62l148 198h135l-188 -252l-26 39q28 -3 50 -15t41.5 -33.5t38.5 -54.5l106 -189h-133l-86 152q-13 23 -26 36t-29 18t-39 5h-54v-211h-124v211h-55q-23 0 -39 -5
t-28.5 -18t-26.5 -36l-86 -152h-133zM461 597v115h115v-115h-115zM272 597v115h115v-115h-115z" />
    <glyph glyph-name="uni04DE" unicode="&#x4de;" horiz-adv-x="643" 
d="M312 -10q-91 0 -162 22.5t-120 62.5l41 95q45 -36 102 -54.5t130 -18.5q88 0 129 27.5t41 82.5q0 51 -34 75.5t-105 24.5h-177v101h161q68 0 102.5 24.5t34.5 73.5q0 47 -37 74.5t-114 27.5q-61 0 -117 -18t-100 -53l-41 95q47 40 118.5 61.5t151.5 21.5q131 0 197.5 -53
t66.5 -139q0 -64 -38 -108.5t-104 -59.5v15q75 -11 117.5 -56t42.5 -118q0 -62 -31.5 -108.5t-95 -72t-159.5 -25.5zM353 790v115h115v-115h-115zM164 790v115h115v-115h-115z" />
    <glyph glyph-name="uni04DF" unicode="&#x4df;" horiz-adv-x="530" 
d="M257 -10q-68 0 -127.5 16t-99.5 46l35 82q37 -27 86.5 -41t104.5 -14q64 0 93.5 17.5t29.5 51.5q0 32 -23 48.5t-68 16.5h-131v86h119q41 0 63 16t22 45q0 31 -26.5 49t-86.5 18q-52 0 -95 -12.5t-81 -36.5l-34 78q41 29 99.5 44t127.5 15q101 0 155 -37t54 -105
q0 -46 -31.5 -79t-84.5 -41v14q62 -4 98 -37t36 -89q0 -69 -61 -110t-174 -41zM298 602v115h115v-115h-115zM109 602v115h115v-115h-115z" />
    <glyph glyph-name="uni04E0" unicode="&#x4e0;" horiz-adv-x="643" 
d="M312 -10q-91 0 -162 22.5t-120 62.5l42 95q45 -36 103 -54.5t128 -18.5q88 0 129 27.5t41 80.5t-36.5 77.5t-119.5 24.5h-120v80l249 245v-32h-400v105h520v-89l-249 -245l-22 33h59q116 0 180 -51.5t64 -144.5q0 -103 -71 -160.5t-215 -57.5z" />
    <glyph glyph-name="uni04E1" unicode="&#x4e1;" horiz-adv-x="528" 
d="M237 -190q-70 0 -128.5 16t-99.5 46l37 87q36 -26 81 -39.5t97 -13.5q76 0 114 31t38 91q0 56 -38 85t-111 29h-100v59l228 237v-27h-323v94h435v-82l-218 -224l-36 27h59q107 0 167 -50t60 -141q0 -69 -31.5 -119.5t-90.5 -78t-140 -27.5z" />
    <glyph glyph-name="uni04E2" unicode="&#x4e2;" horiz-adv-x="755" 
d="M78 0v705h119v-532h-24l408 532h97v-705h-120v532h24l-409 -532h-95zM206 806v74h346v-74h-346z" />
    <glyph glyph-name="uni04E3" unicode="&#x4e3;" horiz-adv-x="615" 
d="M71 0v505h113v-382h-30l287 382h103v-505h-113v383h31l-288 -383h-103zM150 616v74h316v-74h-316z" />
    <glyph glyph-name="uni04E4" unicode="&#x4e4;" horiz-adv-x="755" 
d="M78 0v705h119v-532h-24l408 532h97v-705h-120v532h24l-409 -532h-95zM416 790v115h115v-115h-115zM227 790v115h115v-115h-115z" />
    <glyph glyph-name="uni04E5" unicode="&#x4e5;" horiz-adv-x="615" 
d="M71 0v505h113v-382h-30l287 382h103v-505h-113v383h31l-288 -383h-103zM345 597v115h115v-115h-115zM156 597v115h115v-115h-115z" />
    <glyph glyph-name="uni04E6" unicode="&#x4e6;" horiz-adv-x="787" 
d="M55 353q0 111 40.5 192t116.5 125.5t181 44.5q104 0 180 -44.5t117.5 -125.5t41.5 -191q0 -111 -41.5 -192.5t-117.5 -126.5t-180 -45q-105 0 -180.5 45t-116.5 126.5t-41 191.5zM190 353q0 -119 51 -186t152 -67q98 0 151 67t53 186q0 120 -52.5 186t-151.5 66
q-101 0 -152 -66t-51 -186zM439 790v115h115v-115h-115zM250 790v115h115v-115h-115z" />
    <glyph glyph-name="uni04E7" unicode="&#x4e7;" horiz-adv-x="606" 
d="M303 -10q-78 0 -135 32t-88.5 91t-31.5 140t31.5 139.5t88.5 90.5t135 32t135.5 -32t89 -90.5t31.5 -139.5t-31.5 -140t-89 -91t-135.5 -32zM303 86q59 0 94 41.5t35 125.5t-35 125t-94 41t-94 -41t-35 -125t35 -125.5t94 -41.5zM340 597v115h115v-115h-115zM151 597v115
h115v-115h-115z" />
    <glyph glyph-name="uni04E8" unicode="&#x4e8;" horiz-adv-x="787" 
d="M125 311v95h550v-95h-550zM55 353q0 111 40.5 192t116.5 125.5t181 44.5q104 0 180 -44.5t117.5 -125.5t41.5 -191q0 -111 -41.5 -192.5t-117.5 -126.5t-180 -45q-105 0 -180.5 45t-116.5 126.5t-41 191.5zM190 353q0 -119 51 -186t152 -67q98 0 151 67t53 186
q0 120 -52.5 186t-151.5 66q-101 0 -152 -66t-51 -186z" />
    <glyph glyph-name="uni04E9" unicode="&#x4e9;" horiz-adv-x="606" 
d="M303 -10q-78 0 -135 32t-88.5 91t-31.5 140t31.5 139.5t88.5 90.5t135 32t135.5 -32t89 -90.5t31.5 -139.5t-31.5 -140t-89 -91t-135.5 -32zM303 86q67 0 103 43.5t36 123.5t-36 123t-103 43t-103 -43t-36 -123t36 -123.5t103 -43.5zM126 213v81h356v-81h-356z" />
    <glyph glyph-name="uni04EA" unicode="&#x4ea;" horiz-adv-x="787" 
d="M125 311v95h550v-95h-550zM55 353q0 111 40.5 192t116.5 125.5t181 44.5q104 0 180 -44.5t117.5 -125.5t41.5 -191q0 -111 -41.5 -192.5t-117.5 -126.5t-180 -45q-105 0 -180.5 45t-116.5 126.5t-41 191.5zM190 353q0 -119 51 -186t152 -67q98 0 151 67t53 186
q0 120 -52.5 186t-151.5 66q-101 0 -152 -66t-51 -186zM435 790v115h115v-115h-115zM246 790v115h115v-115h-115z" />
    <glyph glyph-name="uni04EB" unicode="&#x4eb;" horiz-adv-x="606" 
d="M303 -10q-78 0 -135 32t-88.5 91t-31.5 140t31.5 139.5t88.5 90.5t135 32t135.5 -32t89 -90.5t31.5 -139.5t-31.5 -140t-89 -91t-135.5 -32zM303 86q67 0 103 43.5t36 123.5t-36 123t-103 43t-103 -43t-36 -123t36 -123.5t103 -43.5zM126 213v81h356v-81h-356zM340 597
v115h115v-115h-115zM151 597v115h115v-115h-115z" />
    <glyph glyph-name="uni04EC" unicode="&#x4ec;" horiz-adv-x="697" 
d="M286 -10q-73 0 -136.5 23t-106.5 63l42 102q47 -39 94 -57t104 -18q105 0 163.5 60.5t62.5 175.5l35 -31h-371v101h369l-34 -34q-5 108 -62 167.5t-159 59.5q-57 0 -104.5 -17t-97.5 -57l-42 101q46 41 110 63.5t138 22.5q110 0 188.5 -44.5t120.5 -125.5t42 -192
t-42 -192.5t-121.5 -126t-192.5 -44.5zM355 790v115h115v-115h-115zM166 790v115h115v-115h-115z" />
    <glyph glyph-name="uni04ED" unicode="&#x4ed;" horiz-adv-x="539" 
d="M227 -10q-57 0 -109 16.5t-83 47.5l37 78q29 -25 67.5 -38.5t77.5 -13.5q71 0 113 40t46 118l13 -24h-254v85h254l-13 -24q-4 47 -22.5 81t-52.5 52t-84 18q-38 0 -76.5 -13t-68.5 -39l-37 79q34 29 86 45.5t107 16.5q81 0 140.5 -31t91.5 -89.5t32 -140.5t-32.5 -141.5
t-92 -91t-140.5 -31.5zM282 597v115h115v-115h-115zM93 597v115h115v-115h-115z" />
    <glyph glyph-name="uni04EE" unicode="&#x4ee;" horiz-adv-x="679" 
d="M186 0l124 235l2 -40l-326 510h138l251 -398h-25l209 398h133l-372 -705h-134zM169 806v74h346v-74h-346z" />
    <glyph glyph-name="uni04EF" unicode="&#x4ef;" horiz-adv-x="554" 
d="M64 -227l-29 99q47 10 79 23t53 34t35 54l25 59l-3 -49l-220 512h133l158 -394h-29l159 394h126l-230 -533q-23 -54 -50 -89.5t-58 -57t-68 -33.5t-81 -19zM104 616v74h316v-74h-316z" />
    <glyph glyph-name="uni04F0" unicode="&#x4f0;" horiz-adv-x="679" 
d="M186 0l124 235l2 -40l-326 510h138l251 -398h-25l209 398h133l-372 -705h-134zM379 790v115h115v-115h-115zM190 790v115h115v-115h-115z" />
    <glyph glyph-name="uni04F1" unicode="&#x4f1;" horiz-adv-x="554" 
d="M64 -227l-29 99q47 10 79 23t53 34t35 54l25 59l-3 -49l-220 512h133l158 -394h-29l159 394h126l-230 -533q-23 -54 -50 -89.5t-58 -57t-68 -33.5t-81 -19zM299 597v115h115v-115h-115zM110 597v115h115v-115h-115z" />
    <glyph glyph-name="uni04F2" unicode="&#x4f2;" horiz-adv-x="679" 
d="M186 0l124 235l2 -40l-326 510h138l251 -398h-25l209 398h133l-372 -705h-134zM233 765l85 174h113l-127 -174h-71zM380 765l95 174h112l-136 -174h-71z" />
    <glyph glyph-name="uni04F3" unicode="&#x4f3;" horiz-adv-x="554" 
d="M64 -227l-29 99q47 10 79 23t53 34t35 54l25 59l-3 -49l-220 512h133l158 -394h-29l159 394h126l-230 -533q-23 -54 -50 -89.5t-58 -57t-68 -33.5t-81 -19zM302 554l49 203h105l-88 -203h-66zM153 554l49 203h106l-89 -203h-66z" />
    <glyph glyph-name="uni04F4" unicode="&#x4f4;" horiz-adv-x="712" 
d="M507 0v276q-29 -13 -73 -21t-88 -8q-142 0 -217.5 73t-75.5 221v164h128v-158q0 -100 44.5 -145.5t134.5 -45.5q38 0 75.5 7t71.5 23v319h128v-705h-128zM375 790v115h115v-115h-115zM186 790v115h115v-115h-115z" />
    <glyph glyph-name="uni04F5" unicode="&#x4f5;" horiz-adv-x="584" 
d="M392 0v184q-28 -13 -58 -20t-63 -7q-111 0 -165.5 53t-54.5 158v137h124v-126q0 -64 28 -92.5t90 -28.5q29 0 52 6t44 19v222h124v-505h-121zM320 597v115h115v-115h-115zM131 597v115h115v-115h-115z" />
    <glyph glyph-name="uni04F6" unicode="&#x4f6;" horiz-adv-x="572" 
d="M199 -165v165h-112v102h224v-267h-112zM78 0v705h478v-105h-350v-600h-128z" />
    <glyph glyph-name="uni04F7" unicode="&#x4f7;" horiz-adv-x="468" 
d="M172 -130v130h-93v94h199v-224h-106zM71 0v505h379v-98h-254v-407h-125z" />
    <glyph glyph-name="uni04F8" unicode="&#x4f8;" horiz-adv-x="919" 
d="M78 0v705h128v-295h169q116 0 181 -51.5t65 -152.5q0 -100 -65 -153t-181 -53h-297zM206 99h154q71 0 104 26.5t33 80.5q0 53 -33 79.5t-104 26.5h-154v-213zM714 0v705h128v-705h-128zM497 790v115h115v-115h-115zM308 790v115h115v-115h-115z" />
    <glyph glyph-name="uni04F9" unicode="&#x4f9;" horiz-adv-x="789" 
d="M71 0v505h124v-169h133q101 0 152 -42.5t51 -122.5q0 -52 -24 -90.5t-69.5 -59.5t-109.5 -21h-257zM195 82h116q51 0 78 21.5t27 65.5t-26.5 64.5t-78.5 20.5h-116v-172zM594 0v505h124v-505h-124zM432 597v115h115v-115h-115zM243 597v115h115v-115h-115z" />
    <glyph glyph-name="uni04FA" unicode="&#x4fa;" horiz-adv-x="616" 
d="M92 -185l-9 85l53 5q53 5 76.5 28.5t23.5 66.5h-114v302h-98v92h98v311h478v-105h-350v-206h185v-92h-185v-200h102v-80q0 -97 -47.5 -146.5t-148.5 -56.5z" />
    <glyph glyph-name="uni04FB" unicode="&#x4fb;" horiz-adv-x="494" 
d="M77 -185l-8 86l57 5q38 3 53 27t15 67h-96v200h-93v83h93v222h379v-97h-254v-125h145v-83h-145v-128h82v-50q0 -97 -43.5 -147t-120.5 -55z" />
    <glyph glyph-name="uni04FC" unicode="&#x4fc;" horiz-adv-x="671" 
d="M406 -187l-4 101q52 6 76.5 25t24.5 56q0 23 -14.5 51t-40.5 63l-135 185h44l-214 -294h-151l290 386v-55l-280 374h151l203 -281h-41l202 281h152l-281 -374v55l172 -228q40 -52 57 -93t17 -78q0 -75 -55 -119t-173 -55z" />
    <glyph glyph-name="uni04FD" unicode="&#x4fd;" horiz-adv-x="563" 
d="M336 -187l-19 88q51 5 74.5 20.5t23.5 46.5q0 21 -13 44t-44 61l-100 129h42l-159 -202h-144l234 289v-57l-221 273h146l145 -187h-43l145 187h145l-220 -272v55l132 -162q29 -36 46.5 -62.5t25 -49.5t7.5 -49q0 -42 -21.5 -74t-66 -52t-115.5 -26z" />
    <glyph glyph-name="uni04FE" unicode="&#x4fe;" horiz-adv-x="671" 
d="M-8 0l290 386v-55l-280 374h151l203 -281h-41l202 281h152l-281 -374v55l291 -386h-152l-214 294h44l-214 -294h-151zM108 326v74h456v-74h-456z" />
    <glyph glyph-name="uni04FF" unicode="&#x4ff;" horiz-adv-x="563" 
d="M-3 0l235 289v-57l-222 273h148l145 -187h-45l145 187h147l-220 -273v57l234 -289h-149l-157 201h45l-158 -201h-148zM52 220v74h456v-74h-456z" />
    <glyph glyph-name="uni0510" unicode="&#x510;" horiz-adv-x="643" 
d="M331 -10q-96 0 -159.5 25.5t-95 72t-31.5 108.5q0 73 42 118t118 56v-15q-65 15 -103.5 59.5t-38.5 108.5q0 58 31 101t91 67t147 24q81 0 149.5 -21.5t115.5 -61.5l-41 -95q-43 35 -99 53t-118 18q-76 0 -113 -27.5t-37 -74.5q0 -49 34 -73.5t102 -24.5h161v-101h-177
q-70 0 -104.5 -24.5t-34.5 -75.5q0 -55 41 -82.5t129 -27.5q73 0 130 18.5t102 54.5l41 -95q-49 -40 -120 -62.5t-162 -22.5z" />
    <glyph glyph-name="uni0511" unicode="&#x511;" horiz-adv-x="529" 
d="M273 -10q-114 0 -174.5 41t-60.5 110q0 56 36 89t98 37l-1 -14q-52 8 -83.5 40.5t-31.5 79.5q0 68 59.5 105t159.5 37q62 0 118.5 -15t98.5 -44l-34 -79q-37 24 -80 36.5t-92 12.5q-59 0 -87.5 -17.5t-28.5 -49.5q0 -28 21.5 -44t61.5 -16h120v-86h-131q-45 0 -67.5 -16
t-22.5 -48q0 -34 29 -52t93 -18q54 0 104.5 14t86.5 40l34 -81q-38 -30 -97.5 -46t-128.5 -16z" />
    <glyph glyph-name="uni0512" unicode="&#x512;" horiz-adv-x="772" 
d="M500 -187q-17 0 -40.5 2t-47.5 7v102q20 -4 37 -6t30 -2q45 0 66.5 26t21.5 86v572h-265v-142q0 -101 -15 -178t-44 -134.5t-70.5 -97t-95.5 -65.5l-63 95q42 23 74 54t53 77.5t31.5 115t10.5 165.5v215h512v-676q0 -72 -20 -120t-63 -72t-112 -24z" />
    <glyph glyph-name="uni0513" unicode="&#x513;" horiz-adv-x="609" 
d="M295 -193l-8 91l47 4q41 4 60.5 26t19.5 65v416h-164v-63q0 -109 -20 -182.5t-62 -116.5t-110 -61l-39 98q33 12 55.5 31.5t36 50t19.5 76t6 108.5v155h402v-496q0 -64 -19.5 -106.5t-63 -65t-115.5 -27.5z" />
    <glyph glyph-name="uni051A" unicode="&#x51a;" horiz-adv-x="787" 
d="M582 -192q-32 18 -64.5 47.5t-60.5 66.5t-48 75l103 44q25 -52 68 -94t89 -71zM55 353q0 111 40.5 192t116.5 125.5t181 44.5q104 0 180 -44.5t117.5 -125.5t41.5 -191q0 -111 -41.5 -192.5t-117.5 -126.5t-180 -45q-105 0 -180.5 45t-116.5 126.5t-41 191.5zM190 353
q0 -119 51 -186t152 -67q98 0 151 67t53 186q0 120 -52.5 186t-151.5 66q-101 0 -152 -66t-51 -186z" />
    <glyph glyph-name="uni051B" unicode="&#x51b;" horiz-adv-x="634" 
d="M434 -216v320h12q-16 -52 -65 -83t-111 -31q-66 0 -116 31.5t-78 90.5t-28 141t28 140.5t78 90t116 31.5q64 0 112.5 -31.5t64.5 -84.5h-11l11 106h120q-3 -31 -5.5 -63t-2.5 -63v-595h-125zM305 86q59 0 95 41.5t36 125.5t-36 125t-95 41t-95 -41t-36 -125t35.5 -125.5
t95.5 -41.5z" />
    <glyph glyph-name="uni051C" unicode="&#x51c;" horiz-adv-x="1121" 
d="M274 0l-249 705h134l192 -578h-40l207 578h96l192 -578h-37l201 578h126l-251 -705h-107l-186 542h22l-193 -542h-107z" />
    <glyph glyph-name="uni051D" unicode="&#x51d;" horiz-adv-x="897" 
d="M215 0l-197 505h129l142 -393h-26l144 393h89l143 -393h-23l141 393h122l-197 -505h-110l-151 402h53l-148 -402h-111z" />
    <glyph glyph-name="uni0524" unicode="&#x524;" horiz-adv-x="819" 
d="M685 -165v165h-112v102h224v-267h-112zM78 0v705h617v-705h-128v600h-362v-600h-127z" />
    <glyph glyph-name="uni0525" unicode="&#x525;" horiz-adv-x="616" 
d="M520 -130v130h-93v94h199v-224h-106zM71 0v505h473v-505h-124v409h-225v-409h-124z" />
    <glyph glyph-name="uni0526" unicode="&#x526;" horiz-adv-x="759" 
d="M650 -165v165h-112v102h224v-267h-112zM78 0v705h128v-275q29 14 73 21.5t87 7.5q143 0 218.5 -73t75.5 -222v-164h-128v158q0 101 -45 146.5t-135 45.5q-37 0 -75 -6.5t-71 -23.5v-320h-128z" />
    <glyph glyph-name="uni0527" unicode="&#x527;" horiz-adv-x="636" 
d="M520 -130v130h-93v94h199v-224h-106zM75 0v736h125v-332h-14q23 54 71 82.5t110 28.5q90 0 134 -50.5t44 -153.5v-311h-125v305q0 59 -22.5 85.5t-71.5 26.5q-57 0 -91.5 -35.5t-34.5 -94.5v-287h-125z" />
    <glyph glyph-name="uni0528" unicode="&#x528;" horiz-adv-x="774" 
d="M12 -187q-17 0 -40.5 2t-47.5 7v102q19 -4 36.5 -6t29.5 -2q46 0 67 26.5t21 85.5v677h129v-294h362v294h128v-705h-128v305h-362v-276q0 -72 -20 -120t-63 -72t-112 -24z" />
    <glyph glyph-name="uni0529" unicode="&#x529;" horiz-adv-x="618" 
d="M-48 -193l-9 91l48 4q41 4 60.5 26t19.5 65v512h124v-198h229v198h123v-505h-123v211h-229v-202q0 -64 -19.5 -106.5t-63 -65t-115.5 -27.5z" />
    <glyph glyph-name="uni052E" unicode="&#x52e;" horiz-adv-x="819" 
d="M685 -165v165h-112v102h224v-267h-112zM77 -17l-63 95q42 23 74 54t53 77.5t31.5 115t10.5 165.5v215h512v-705h-128v600h-265v-142q0 -101 -15 -178t-44 -134.5t-70.5 -97t-95.5 -65.5z" />
    <glyph glyph-name="uni052F" unicode="&#x52f;" horiz-adv-x="610" 
d="M515 -130v130h-93v94h199v-224h-106zM58 -14l-39 98q33 12 55.5 31.5t36 50t19.5 76t6 108.5v155h402v-505h-124v409h-164v-63q0 -109 -20 -182.5t-62 -116.5t-110 -61z" />
    <glyph glyph-name="uni1E08" unicode="&#x1e08;" horiz-adv-x="685" 
d="M406 -10q-110 0 -188.5 44.5t-120.5 126t-42 192.5t42 192t120.5 125.5t188.5 44.5q74 0 133.5 -21t102.5 -62l-42 -102q-47 38 -90.5 54.5t-99.5 16.5q-107 0 -163.5 -64.5t-56.5 -183.5t56.5 -184t163.5 -65q56 0 99.5 16.5t90.5 55.5l42 -102q-43 -40 -102.5 -62
t-133.5 -22zM399 -195q-30 0 -56.5 5.5t-46.5 15.5l18 56q18 -8 36 -12.5t38 -4.5q27 0 41 7.5t14 22.5q0 23 -37 23q-10 0 -19.5 -1t-22.5 -5l-19 18l14 90h67l-13 -76l-32 11q11 4 23.5 6t22.5 2q41 0 66 -19t25 -53q0 -39 -33 -62.5t-86 -23.5zM353 765l119 174h130
l-159 -174h-90z" />
    <glyph glyph-name="uni1E09" unicode="&#x1e09;" horiz-adv-x="504" 
d="M300 -10q-78 0 -136.5 32t-90.5 91.5t-32 141.5t32.5 140t90.5 89t136 31q50 0 97.5 -15.5t77.5 -44.5l-38 -87q-27 25 -60.5 37.5t-65.5 12.5q-67 0 -104.5 -42t-37.5 -122t37.5 -123t104.5 -43q31 0 64.5 12t61.5 37l38 -86q-31 -29 -78.5 -45t-96.5 -16zM294 -195
q-30 0 -56.5 5.5t-46.5 15.5l18 56q18 -8 36 -12.5t38 -4.5q27 0 41 7.5t14 22.5q0 23 -37 23q-10 0 -19.5 -1t-22.5 -5l-19 18l14 90h67l-13 -76l-32 11q11 4 23.5 6t22.5 2q41 0 66 -19t25 -53q0 -39 -33 -62.5t-86 -23.5zM251 554l103 203h123l-142 -203h-84z" />
    <glyph glyph-name="uni1E0C" unicode="&#x1e0c;" horiz-adv-x="762" 
d="M78 0v705h256q121 0 204.5 -41.5t126.5 -120t43 -190.5q0 -111 -43 -190t-126.5 -121t-204.5 -42h-256zM207 107h119q128 0 190 61t62 185q0 125 -62 185.5t-190 60.5h-119v-492zM327 -204v116h122v-116h-122z" />
    <glyph glyph-name="uni1E0D" unicode="&#x1e0d;" horiz-adv-x="620" 
d="M264 -10q-66 0 -116.5 31.5t-78.5 90.5t-28 141t28 140.5t78.5 90t116.5 31.5q63 0 111.5 -30.5t64.5 -82.5h-13v334h125v-736h-123v107h12q-16 -54 -64.5 -85.5t-112.5 -31.5zM299 86q59 0 95 41.5t36 125.5t-36 125t-95 41t-95.5 -41t-36.5 -125t36.5 -125.5
t95.5 -41.5zM251 -204v116h122v-116h-122z" />
    <glyph glyph-name="uni1E0E" unicode="&#x1e0e;" horiz-adv-x="762" 
d="M78 0v705h256q121 0 204.5 -41.5t126.5 -120t43 -190.5q0 -111 -43 -190t-126.5 -121t-204.5 -42h-256zM207 107h119q128 0 190 61t62 185q0 125 -62 185.5t-190 60.5h-119v-492zM230 -165v74h316v-74h-316z" />
    <glyph glyph-name="uni1E0F" unicode="&#x1e0f;" horiz-adv-x="620" 
d="M264 -10q-66 0 -116.5 31.5t-78.5 90.5t-28 141t28 140.5t78.5 90t116.5 31.5q63 0 111.5 -30.5t64.5 -82.5h-13v334h125v-736h-123v107h12q-16 -54 -64.5 -85.5t-112.5 -31.5zM299 86q59 0 95 41.5t36 125.5t-36 125t-95 41t-95.5 -41t-36.5 -125t36.5 -125.5
t95.5 -41.5zM154 -165v74h316v-74h-316z" />
    <glyph glyph-name="uni1E14" unicode="&#x1e14;" horiz-adv-x="595" 
d="M78 0v705h475v-101h-351v-195h328v-102h-328v-205h351v-102h-475zM294 894l-115 132h120l73 -132h-78zM175 783v74h316v-74h-316z" />
    <glyph glyph-name="uni1E15" unicode="&#x1e15;" horiz-adv-x="548" 
d="M312 -10q-127 0 -199 70t-72 192q0 79 31 138t86.5 92t129.5 33q73 0 122 -31t74.5 -87t25.5 -131v-33h-368v66h279l-17 -14q0 70 -29.5 107t-85.5 37q-62 0 -95.5 -44t-33.5 -123v-13q0 -82 40.5 -122.5t114.5 -40.5q43 0 80.5 11.5t71.5 37.5l37 -84q-36 -29 -86 -45
t-106 -16zM130 567v74h316v-74h-316zM249 678l-115 132h120l73 -132h-78z" />
    <glyph glyph-name="uni1E16" unicode="&#x1e16;" horiz-adv-x="595" 
d="M78 0v705h475v-101h-351v-195h328v-102h-328v-205h351v-102h-475zM175 783v74h316v-74h-316zM294 894l73 132h120l-115 -132h-78z" />
    <glyph glyph-name="uni1E17" unicode="&#x1e17;" horiz-adv-x="548" 
d="M312 -10q-127 0 -199 70t-72 192q0 79 31 138t86.5 92t129.5 33q73 0 122 -31t74.5 -87t25.5 -131v-33h-368v66h279l-17 -14q0 70 -29.5 107t-85.5 37q-62 0 -95.5 -44t-33.5 -123v-13q0 -82 40.5 -122.5t114.5 -40.5q43 0 80.5 11.5t71.5 37.5l37 -84q-36 -29 -86 -45
t-106 -16zM130 567v74h316v-74h-316zM249 678l73 132h120l-115 -132h-78z" />
    <glyph glyph-name="uni1E1C" unicode="&#x1e1c;" horiz-adv-x="595" 
d="M78 0v705h475v-101h-351v-195h328v-102h-328v-205h351v-102h-475zM334 -195q-30 0 -56.5 5.5t-46.5 15.5l18 56q18 -8 36 -12.5t38 -4.5q27 0 41 7.5t14 22.5q0 23 -37 23q-10 0 -19.5 -1t-22.5 -5l-19 18l14 90h67l-13 -76l-32 11q11 4 23.5 6t22.5 2q41 0 66 -19
t25 -53q0 -39 -33 -62.5t-86 -23.5zM333 760q-78 0 -127.5 46t-55.5 124l71 9q5 -49 34 -76.5t77 -27.5q49 0 79 27.5t34 76.5l71 -9q-6 -78 -55.5 -124t-127.5 -46z" />
    <glyph glyph-name="uni1E1D" unicode="&#x1e1d;" horiz-adv-x="548" 
d="M312 -10q-127 0 -199 70t-72 192q0 79 31 138t86.5 92t129.5 33q73 0 122 -31t74.5 -87t25.5 -131v-33h-368v66h279l-17 -14q0 70 -29.5 107t-85.5 37q-62 0 -95.5 -44t-33.5 -123v-13q0 -82 40.5 -122.5t114.5 -40.5q43 0 80.5 11.5t71.5 37.5l37 -84q-36 -29 -86 -45
t-106 -16zM295 -195q-30 0 -56.5 5.5t-46.5 15.5l18 56q18 -8 36 -12.5t38 -4.5q27 0 41 7.5t14 22.5q0 23 -37 23q-10 0 -19.5 -1t-22.5 -5l-19 18l14 90h67l-13 -76l-32 11q11 4 23.5 6t22.5 2q41 0 66 -19t25 -53q0 -39 -33 -62.5t-86 -23.5zM288 551q-49 0 -86 23.5
t-57.5 67t-22.5 102.5l71 7q4 -60 28.5 -92t66.5 -32t66.5 32t28.5 92l71 -7q-1 -59 -22 -102.5t-58 -67t-86 -23.5z" />
    <glyph glyph-name="uni1E20" unicode="&#x1e20;" horiz-adv-x="740" 
d="M418 -10q-119 0 -200 44t-122 125t-41 192q0 112 44 193.5t126.5 126t198.5 44.5q77 0 135 -20.5t102 -59.5l-43 -100q-32 25 -61 40t-60 21.5t-72 6.5q-116 0 -175.5 -65.5t-59.5 -187.5t56.5 -186t177.5 -64q41 0 82.5 8t81.5 23l-24 -54v211h-165v94h272v-339
q-49 -25 -117 -39t-136 -14zM237 806v74h346v-74h-346z" />
    <glyph glyph-name="uni1E21" unicode="&#x1e21;" horiz-adv-x="622" 
d="M302 -224q-70 0 -126.5 15t-100.5 46l27 90q29 -19 60 -31t64 -18t67 -6q70 0 104.5 34.5t34.5 98.5v121h10q-16 -52 -64.5 -83t-111.5 -31q-68 0 -118.5 30.5t-78.5 87.5t-28 134t28 133.5t78.5 87t118.5 30.5q64 0 111.5 -30.5t63.5 -82.5l-9 6l10 97h121
q-4 -31 -6 -63t-2 -63v-359q0 -119 -64.5 -181.5t-188.5 -62.5zM300 108q60 0 95.5 40.5t35.5 115.5t-35.5 115t-95.5 40q-61 0 -97 -40t-36 -115t36 -115.5t97 -40.5zM157 616v74h316v-74h-316z" />
    <glyph glyph-name="uni1E24" unicode="&#x1e24;" horiz-adv-x="774" 
d="M78 0v705h129v-294h361v294h129v-705h-129v304h-361v-304h-129zM327 -204v116h122v-116h-122z" />
    <glyph glyph-name="uni1E25" unicode="&#x1e25;" horiz-adv-x="603" 
d="M68 0v736h125v-332h-14q23 54 71 82.5t110 28.5q90 0 134 -50.5t44 -153.5v-311h-125v305q0 59 -22.5 85.5t-71.5 26.5q-57 0 -91.5 -35.5t-34.5 -94.5v-287h-125zM242 -204v116h122v-116h-122z" />
    <glyph glyph-name="uni1E2A" unicode="&#x1e2a;" horiz-adv-x="774" 
d="M78 0v705h129v-294h361v294h129v-705h-129v304h-361v-304h-129zM388 -215q-73 0 -118.5 41.5t-47.5 111.5l71 7q4 -40 28.5 -63t66.5 -23t66.5 23t28.5 63l71 -7q-2 -70 -47 -111.5t-119 -41.5z" />
    <glyph glyph-name="uni1E2B" unicode="&#x1e2b;" horiz-adv-x="603" 
d="M68 0v736h125v-332h-14q23 54 71 82.5t110 28.5q90 0 134 -50.5t44 -153.5v-311h-125v305q0 59 -22.5 85.5t-71.5 26.5q-57 0 -91.5 -35.5t-34.5 -94.5v-287h-125zM303 -215q-73 0 -118.5 41.5t-47.5 111.5l71 7q4 -40 28.5 -63t66.5 -23t66.5 23t28.5 63l71 -7
q-2 -70 -47 -111.5t-119 -41.5z" />
    <glyph glyph-name="uni1E2E" unicode="&#x1e2e;" horiz-adv-x="284" 
d="M78 0v705h129v-705h-129zM103 894l73 132h120l-115 -132h-78zM-10 770v88h115v-88h-115zM179 770v88h115v-88h-115z" />
    <glyph glyph-name="uni1E2F" unicode="&#x1e2f;" horiz-adv-x="261" 
d="M68 0v505h125v-505h-125zM92 678l73 132h120l-115 -132h-78zM-21 554v88h115v-88h-115zM168 554v88h115v-88h-115z" />
    <glyph glyph-name="uni1E36" unicode="&#x1e36;" horiz-adv-x="560" 
d="M78 0v705h129v-596h332v-109h-461zM252 -204v116h122v-116h-122z" />
    </font>
</defs>
</svg>
