<?xml version="1.0" standalone="no"?>
<!DOCTYPE svg PUBLIC "-//W3C//DTD SVG 1.1//EN" "http://www.w3.org/Graphics/SVG/1.1/DTD/svg11.dtd" >
<svg xmlns="http://www.w3.org/2000/svg" xmlns:xlink="http://www.w3.org/1999/xlink" version="1.1">
<metadata>
Created by FontForge 20201107 at Thu Sep 30 21:20:51 2021
 By 
Copyright 2016 The Mulish Project Authors (https://github.com/googlefonts/mulish)
</metadata>
<defs>
<font id="Mulish-LightItalic" horiz-adv-x="0" >
  <font-face 
    font-family="Mulish Light"
    font-weight="300"
    font-style="italic"
    font-stretch="normal"
    units-per-em="1000"
    panose-1="0 0 0 0 0 0 0 0 0 0"
    ascent="800"
    descent="-200"
    x-height="501"
    cap-height="705"
    bbox="-286 -270 1339 1039"
    underline-thickness="44"
    underline-position="-107"
    slope="-9"
    unicode-range="U+000D-FB02"
  />
<missing-glyph horiz-adv-x="500" 
 />
    <glyph glyph-name="fi" unicode="fi" horiz-adv-x="550" 
d="M67 0l71 452h-100l9 49h115l-19 -16l15 95q13 78 59 119t120 41q18 0 38 -3.5t32 -8.5l-9 -54q-10 5 -27 9t-35 4q-50 0 -79.5 -30.5t-40.5 -91.5l-12 -80l-8 16h310l-80 -501h-61l72 452h-238l-71 -452h-61zM453 624l13 76h82l-13 -76h-82z" />
    <glyph glyph-name="fl" unicode="fl" horiz-adv-x="552" 
d="M67 0l71 452h-100l9 49h115l-19 -16l15 95q13 78 59.5 119t122.5 41q18 0 37 -3.5t31 -8.5l-9 -54q-10 5 -26 9t-35 4q-33 0 -58 -14t-41 -40.5t-23 -67.5l-12 -80l-8 16h154l-8 -49h-143l-71 -452h-61zM367 0l117 736h61l-117 -736h-61z" />
    <glyph glyph-name=".notdef" horiz-adv-x="500" 
 />
    <glyph glyph-name="uni0000" 
 />
    <glyph glyph-name="uni0000" 
 />
    <glyph glyph-name="nonmarkingreturn" horiz-adv-x="333" 
 />
    <glyph glyph-name="CR" unicode="&#xd;" horiz-adv-x="255" 
 />
    <glyph glyph-name="space" unicode=" " horiz-adv-x="255" 
 />
    <glyph glyph-name="exclam" unicode="!" horiz-adv-x="219" 
d="M78 173l66 532h76l-103 -532h-39zM27 0l14 86h85l-14 -86h-85z" />
    <glyph glyph-name="quotedbl" unicode="&#x22;" horiz-adv-x="366" 
d="M115 434l26 271h73l-58 -271h-41zM270 434l26 271h73l-58 -271h-41z" />
    <glyph glyph-name="numbersign" unicode="#" horiz-adv-x="600" 
d="M50 0l67 187h-101l8 49h110l88 241h-139l7 50h149l64 178h53l-64 -178h170l64 178h54l-65 -178h101l-7 -50h-111l-88 -241h140l-8 -49h-149l-67 -187h-54l67 187h-169l-66 -187h-54zM187 236h170l88 241h-170z" />
    <glyph glyph-name="dollar" unicode="$" horiz-adv-x="600" 
d="M225 -115l19 126l15 -15q-43 2 -86.5 10.5t-82 24.5t-65.5 41l30 48q42 -32 93.5 -50t130.5 -18q84 0 133.5 36t59.5 92q8 51 -20.5 82.5t-101.5 43.5l-92 17q-57 10 -93.5 36t-50 66.5t-5.5 92.5q9 58 43.5 100t89 65.5t122.5 25.5l-11 -13l20 124h54l-20 -124l-8 12
q51 -1 101 -21t84 -57l-31 -48q-33 35 -78.5 53t-106.5 18q-81 0 -135.5 -37.5t-64.5 -102.5q-9 -54 16.5 -88t91.5 -46l92 -17q95 -16 136 -63.5t28 -123.5q-12 -77 -79 -125.5t-172 -53.5l18 16l-20 -127h-54z" />
    <glyph glyph-name="percent" unicode="%" horiz-adv-x="931" 
d="M248 0h-61l528 705h62zM241 282q-81 0 -121.5 58.5t-23.5 167.5q15 95 66.5 150t128.5 55q80 0 120.5 -59t23.5 -166q-15 -96 -65.5 -151t-128.5 -55zM242 329q54 0 89.5 42t49.5 126q13 82 -13 125.5t-80 43.5q-53 0 -88 -42.5t-48 -124.5q-13 -83 12 -126.5t78 -43.5z
M673 -8q-80 0 -121 58.5t-23 167.5q15 95 66 150t128 55q80 0 121 -59t24 -166q-16 -96 -66.5 -151t-128.5 -55zM675 39q54 0 89.5 42t48.5 126q13 82 -12.5 125.5t-79.5 43.5q-53 0 -88.5 -42t-48.5 -125t12.5 -126.5t78.5 -43.5z" />
    <glyph glyph-name="ampersand" unicode="&#x26;" horiz-adv-x="663" 
d="M608 -8q-43 23 -77 54.5t-55 59.5h21q-51 -54 -116 -84t-136 -30t-118.5 23.5t-68 65.5t-12.5 96q10 62 55.5 106.5t119.5 89.5l49 29l-11 -12q-40 54 -55.5 95.5t-7.5 91.5q6 38 28.5 69t60.5 49t90 18q44 0 78 -17t51.5 -48t10.5 -76q-5 -33 -24 -64t-57.5 -62.5
t-104.5 -69.5l-1 19l166 -223h-10q32 41 57.5 103.5t37.5 132.5h58q-16 -83 -47 -154t-70 -125l-7 21q21 -28 54 -59t72 -53zM250 44q65 0 118 26t96 77l-4 -21l-183 241l25 -4l-48 -30q-67 -40 -103 -73.5t-44 -81.5q-9 -62 27.5 -98t115.5 -36zM374 664q-49 0 -81 -26
t-38 -65q-4 -27 -1 -49t16.5 -46.5t40.5 -60.5l-14 -4q81 47 118.5 82.5t43.5 75.5q8 42 -16 67.5t-69 25.5z" />
    <glyph glyph-name="quotesingle" unicode="'" horiz-adv-x="211" 
d="M115 434l26 271h73l-58 -271h-41z" />
    <glyph glyph-name="parenleft" unicode="(" horiz-adv-x="300" 
d="M140 -180q-22 73 -34 146t-12 144q0 113 24.5 220t68 202.5t97.5 172.5h58q-79 -130 -132 -282.5t-53 -322.5q0 -65 9.5 -136.5t25.5 -143.5h-52z" />
    <glyph glyph-name="parenright" unicode=")" horiz-adv-x="300" 
d="M20 -180h-59q79 130 132 282.5t53 322.5q0 66 -8.5 137t-25.5 143h52q22 -73 33.5 -145.5t11.5 -144.5q0 -112 -24.5 -219.5t-67 -203t-97.5 -172.5z" />
    <glyph glyph-name="asterisk" unicode="*" horiz-adv-x="453" 
d="M171 372l-40 28l111 131l-156 49l18 47l152 -56l9 165h51l-18 -165l160 56l13 -47l-163 -49l91 -131l-40 -28l-81 137z" />
    <glyph glyph-name="plus" unicode="+" horiz-adv-x="600" 
d="M241 40l35 222h-222l7 50h223l34 216h52l-34 -216h220l-7 -50h-221l-35 -222h-52z" />
    <glyph glyph-name="comma" unicode="," horiz-adv-x="219" 
d="M47 -106l-27 29q27 26 35.5 46t12.5 42l20 -11h-62l14 86h85l-11 -71q-4 -24 -11 -44.5t-19.5 -39t-36.5 -37.5z" />
    <glyph glyph-name="hyphen" unicode="-" horiz-adv-x="424" 
d="M73 248l8 52h276l-8 -52h-276z" />
    <glyph glyph-name="period" unicode="." horiz-adv-x="219" 
d="M27 0l14 86h85l-14 -86h-85z" />
    <glyph glyph-name="slash" unicode="/" horiz-adv-x="272" 
d="M-13 -54h-57l388 800h56z" />
    <glyph glyph-name="zero" unicode="0" horiz-adv-x="600" 
d="M267 -8q-124 0 -173 96.5t-21 275.5q29 179 103.5 264t189.5 85q123 0 172 -95t20 -276q-28 -178 -103 -264t-188 -86zM270 47q89 0 145.5 72t81.5 233q17 106 7.5 173.5t-45 100t-97.5 32.5q-89 0 -145.5 -71t-81.5 -232q-16 -105 -6.5 -173t44.5 -101.5t97 -33.5z" />
    <glyph glyph-name="one" unicode="1" horiz-adv-x="600" 
d="M95 0l8 55h168l95 596l35 -1l-207 -119l10 65l187 109h45l-103 -650h157l-8 -55h-387z" />
    <glyph glyph-name="two" unicode="2" horiz-adv-x="600" 
d="M50 0l8 46l310 284q55 51 85.5 94t40.5 97q10 67 -25 101.5t-110 34.5q-61 0 -114 -19t-104 -61l-24 50q46 40 112.5 63t131.5 23q69 0 116 -22.5t68 -66t11 -105.5q-10 -64 -47.5 -117.5t-104.5 -113.5l-281 -252l-2 19h391l-8 -55h-454z" />
    <glyph glyph-name="three" unicode="3" horiz-adv-x="600" 
d="M267 -8q-70 0 -131 22t-100 64l29 50q44 -42 95 -61t111 -19q80 0 129.5 33t60.5 107q22 143 -156 143h-103l9 54h98q75 0 125.5 37.5t61.5 105.5q11 63 -26 96t-112 33q-61 0 -114 -19.5t-103 -61.5l-24 49q48 43 112.5 65.5t133.5 22.5q103 0 155.5 -49t38.5 -139
q-9 -59 -53.5 -106.5t-111.5 -63.5l1 10q74 -12 107.5 -62t21.5 -126q-13 -90 -81.5 -137.5t-173.5 -47.5z" />
    <glyph glyph-name="four" unicode="4" horiz-adv-x="600" 
d="M360 0l25 160h-346l8 46l434 499h52l-79 -493h112l-9 -52h-111l-25 -160h-61zM393 212l67 420h26l-380 -436l-3 16h290z" />
    <glyph glyph-name="five" unicode="5" horiz-adv-x="600" 
d="M283 -8q-45 0 -87 10t-77.5 29.5t-61.5 46.5l27 50q43 -41 93.5 -60.5t108.5 -19.5q79 0 132.5 41t65.5 122q12 75 -24.5 123t-115.5 48q-56 0 -102 -22t-85 -70h-48l65 415h409l-10 -54h-347l-48 -306h-20q35 46 87.5 69.5t108.5 23.5q67 0 114 -28t68 -80.5t9 -125.5
q-10 -67 -45.5 -114.5t-91 -72.5t-125.5 -25z" />
    <glyph glyph-name="six" unicode="6" horiz-adv-x="600" 
d="M288 -8q-79 0 -134 38t-76 117.5t-1 205.5q19 123 65 202.5t114.5 118.5t154.5 39q58 0 109 -20t80 -59l-31 -46q-33 37 -73.5 53t-88.5 16q-107 0 -175.5 -74.5t-95.5 -237.5l-17 -101h-9q23 89 84 141.5t153 52.5q68 0 115.5 -29t68.5 -82t9 -126q-9 -62 -41.5 -109
t-85 -73.5t-125.5 -26.5zM288 47q87 0 134 44t58 115q13 82 -27.5 129.5t-115.5 47.5q-79 0 -131 -46.5t-64 -120.5q-12 -75 28 -122t118 -47z" />
    <glyph glyph-name="seven" unicode="7" horiz-adv-x="600" 
d="M80 0l459 682l-1 -32h-405l10 55h458l-7 -46l-441 -659h-73z" />
    <glyph glyph-name="eight" unicode="8" horiz-adv-x="600" 
d="M267 -8q-124 0 -181.5 56t-43.5 149q12 74 63 117t128 53l-1 -12q-66 15 -97.5 66t-21.5 116q13 81 77.5 128.5t178.5 47.5q73 0 122.5 -24.5t71 -68.5t12.5 -103q-10 -65 -54.5 -108.5t-114.5 -57.5l1 12q49 -9 81 -33.5t45.5 -62.5t4.5 -89q-15 -90 -84.5 -138
t-186.5 -48zM271 45q92 0 144 35.5t63 107.5q12 72 -29.5 107t-136.5 35t-146.5 -34t-62.5 -102q-11 -69 30 -109t138 -40zM321 384q83 0 132.5 33t59.5 100q11 69 -27 106t-122 37q-86 0 -133.5 -35t-56.5 -95q-10 -63 27.5 -104.5t119.5 -41.5z" />
    <glyph glyph-name="nine" unicode="9" horiz-adv-x="600" 
d="M222 -8q-58 0 -108.5 20t-81.5 60l31 45q34 -37 74.5 -53t88.5 -16q106 0 175.5 75t95.5 237l17 101h9q-23 -89 -84 -141.5t-153 -52.5q-67 0 -114.5 29t-69 82.5t-10.5 125.5q11 62 43 109.5t86 73.5t125 26q81 0 135 -38t74.5 -117.5t0.5 -205.5q-19 -122 -65 -202
t-114.5 -119t-154.5 -39zM296 322q79 0 131 46.5t64 120.5q12 75 -27.5 122.5t-116.5 47.5q-87 0 -135 -44t-59 -116q-12 -82 27.5 -129.5t115.5 -47.5z" />
    <glyph glyph-name="colon" unicode=":" horiz-adv-x="219" 
d="M93 416l13 85h86l-14 -85h-85zM26 0l14 86h85l-14 -86h-85z" />
    <glyph glyph-name="semicolon" unicode=";" horiz-adv-x="219" 
d="M47 -106l-28 25q28 26 38.5 48t14.5 44l12 -11h-54l13 86h85l-10 -70q-5 -36 -21 -65.5t-50 -56.5zM93 415l13 86h86l-14 -86h-85z" />
    <glyph glyph-name="less" unicode="&#x3c;" horiz-adv-x="600" 
d="M512 36l-458 226l8 50l529 226l-9 -59l-497 -211l5 31l430 -210z" />
    <glyph glyph-name="equal" unicode="=" horiz-adv-x="600" 
d="M70 362l7 50h494l-7 -50h-494zM39 163l7 49h494l-7 -49h-494z" />
    <glyph glyph-name="greater" unicode="&#x3e;" horiz-adv-x="600" 
d="M19 36l9 59l497 210l-5 -31l-430 211l9 53l458 -226l-8 -50z" />
    <glyph glyph-name="question" unicode="?" horiz-adv-x="440" 
d="M160 173l4 24q6 35 18.5 66t38.5 64.5t70 75.5q23 22 46 49t38.5 58t15.5 65q0 39 -30 61t-82 22q-40 0 -76.5 -10t-70.5 -27l9 60q34 17 73.5 24.5t76.5 7.5q50 0 87 -15.5t56.5 -44.5t19.5 -69q0 -44 -18.5 -82.5t-47.5 -70.5t-59 -60q-59 -54 -85.5 -93t-36.5 -82
l-6 -23h-41zM110 0l13 86h86l-14 -86h-85z" />
    <glyph glyph-name="at" unicode="@" horiz-adv-x="971" 
d="M507 -163q-96 0 -174.5 30.5t-136.5 88t-89 138t-31 181.5q0 97 33 177.5t92.5 139t140.5 90t176 31.5q86 0 158.5 -26.5t126 -75.5t83 -116t29.5 -150q0 -87 -26.5 -151t-72 -99.5t-103.5 -35.5t-87.5 35t-22.5 94l14 -13q-26 -55 -71.5 -85.5t-95.5 -30.5
q-76 0 -118 47.5t-42 131.5q0 74 28.5 132t77.5 91t111 33q55 0 90.5 -27.5t44.5 -76.5h-9l16 95h54l-46 -267q-2 -12 -3 -23.5t-1 -20.5q0 -35 16 -52.5t48 -17.5q41 0 74.5 30t54.5 84.5t21 126.5q0 71 -26 130.5t-73.5 102t-111 65.5t-139.5 23q-84 0 -155.5 -28
t-123.5 -80t-81 -123.5t-29 -159.5q0 -122 48 -209.5t133 -134t198 -46.5q83 0 150 27t110 75l30 -39q-49 -53 -124 -82t-166 -29zM455 107q47 0 84.5 28.5t59 78t21.5 112.5q0 60 -27 89.5t-82 29.5q-47 0 -84.5 -26.5t-59 -73t-21.5 -106.5q0 -64 28.5 -98t80.5 -34z" />
    <glyph glyph-name="A" unicode="A" horiz-adv-x="728" 
d="M-14 0l419 705h56l200 -705h-62l-56 203l28 -15h-434l36 15l-119 -203h-68zM423 630l-234 -401l-21 12h388l-19 -12l-111 401h-3z" />
    <glyph glyph-name="B" unicode="B" horiz-adv-x="676" 
d="M53 0l112 705h276q107 0 158 -48.5t37 -140.5q-11 -70 -57.5 -111t-119.5 -55l2 14q76 -8 113 -57t25 -125q-14 -93 -81.5 -137.5t-181.5 -44.5h-283zM121 53h218q82 0 135 30.5t63 98.5q10 56 -7 88t-52.5 46.5t-86.5 14.5h-226zM174 383h202q88 0 137.5 33.5t58.5 91.5
q12 73 -23.5 109t-113.5 36h-219z" />
    <glyph glyph-name="C" unicode="C" horiz-adv-x="684" 
d="M368 -8q-113 0 -182.5 46.5t-95 130.5t-8.5 195q18 112 68 190t127 119t177 40q73 0 128.5 -21t94.5 -63l-28 -52q-44 44 -89.5 61.5t-108.5 17.5q-125 0 -203 -79t-101 -222q-14 -92 4.5 -161t73.5 -107t146 -38q58 0 113.5 20t102.5 65l25 -49q-45 -46 -110.5 -69.5
t-133.5 -23.5z" />
    <glyph glyph-name="D" unicode="D" horiz-adv-x="740" 
d="M53 0l112 705h217q121 0 194.5 -43t102 -124t10.5 -196q-28 -172 -133.5 -257t-278.5 -85h-224zM123 55h157q151 0 237 72.5t109 223.5q24 151 -38.5 225.5t-213.5 74.5h-157z" />
    <glyph glyph-name="E" unicode="E" horiz-adv-x="585" 
d="M53 0l112 705h438l-9 -53h-378l-41 -268h355l-8 -53h-356l-44 -278h378l-9 -53h-438z" />
    <glyph glyph-name="F" unicode="F" horiz-adv-x="558" 
d="M53 0l112 705h428l-9 -53h-367l-42 -269h346l-8 -53h-346l-52 -330h-62z" />
    <glyph glyph-name="G" unicode="G" horiz-adv-x="727" 
d="M376 -8q-118 0 -189 45t-96.5 129t-7.5 198q18 112 69 189.5t130.5 118.5t183.5 41q77 0 130 -21t91 -59l-30 -52q-40 40 -83.5 57.5t-111.5 17.5q-129 0 -211 -79.5t-104 -223.5q-23 -143 32.5 -224t199.5 -81q54 0 102.5 10.5t95.5 31.5l-22 -43l41 264h-187l9 52h242
l-51 -319q-28 -16 -67.5 -27.5t-82.5 -18t-83 -6.5z" />
    <glyph glyph-name="H" unicode="H" horiz-adv-x="762" 
d="M53 0l112 705h62l-51 -320h453l51 320h62l-112 -705h-62l53 330h-454l-52 -330h-62z" />
    <glyph glyph-name="I" unicode="I" horiz-adv-x="247" 
d="M53 0l112 705h62l-112 -705h-62z" />
    <glyph glyph-name="J" unicode="J" horiz-adv-x="314" 
d="M5 -186q-16 0 -35 2t-38 9l9 53q18 -7 33.5 -9t29.5 -2q46 0 75 29t39 92l114 717h62l-115 -721q-9 -55 -31 -93t-57.5 -57.5t-85.5 -19.5z" />
    <glyph glyph-name="K" unicode="K" horiz-adv-x="619" 
d="M53 0l112 705h62l-52 -324h2l400 324h87l-452 -363l-1 36l370 -378h-82l-329 335h-2l-53 -335h-62z" />
    <glyph glyph-name="L" unicode="L" horiz-adv-x="538" 
d="M53 0l112 705h62l-104 -650h368l-9 -55h-429z" />
    <glyph glyph-name="M" unicode="M" horiz-adv-x="853" 
d="M53 0l112 705h54l189 -664h-29l400 664h53l-112 -705h-57l100 632h30l-384 -632h-42l-183 632h26l-100 -632h-57z" />
    <glyph glyph-name="N" unicode="N" horiz-adv-x="743" 
d="M53 0l112 705h50l367 -634l-17 2l100 632h57l-112 -705h-49l-367 634l16 -2l-100 -632h-57z" />
    <glyph glyph-name="O" unicode="O" horiz-adv-x="765" 
d="M83 364q18 112 67 190t125 118.5t173 40.5q103 0 168.5 -46.5t90.5 -130.5t7 -195q-17 -111 -66.5 -189t-125.5 -119t-174 -41q-102 0 -167 46.5t-90 130.5t-8 195zM147 354q-15 -95 4 -163t70.5 -105.5t131.5 -37.5q123 0 199 80t99 223q15 94 -5 163t-71 106t-131 37
q-123 0 -198.5 -79.5t-98.5 -223.5z" />
    <glyph glyph-name="P" unicode="P" horiz-adv-x="644" 
d="M53 0l112 705h267q113 0 165.5 -55t35.5 -154q-9 -60 -42 -102t-85.5 -63.5t-120.5 -21.5h-222l-48 -309h-62zM172 363h207q84 0 132.5 34.5t59.5 104.5q12 73 -25 111.5t-121 38.5h-208z" />
    <glyph glyph-name="Q" unicode="Q" horiz-adv-x="765" 
d="M504 -191q-26 19 -51.5 50t-47 67.5t-35.5 73.5l63 19q18 -52 51 -95t69 -74zM83 364q18 112 67 190t125 118.5t173 40.5q103 0 168.5 -46.5t90.5 -130.5t7 -195q-17 -111 -66.5 -189t-125.5 -119t-174 -41q-102 0 -167 46.5t-90 130.5t-8 195zM147 354q-15 -95 4 -163
t70.5 -105.5t131.5 -37.5q123 0 199 80t99 223q15 94 -5 163t-71 106t-131 37q-123 0 -198.5 -79.5t-98.5 -223.5z" />
    <glyph glyph-name="R" unicode="R" horiz-adv-x="688" 
d="M53 0l112 705h272q113 0 165.5 -54t37.5 -151q-9 -57 -42.5 -97.5t-85 -61.5t-113.5 -21l7 11h13q41 0 68.5 -20t41.5 -66l72 -245h-66l-67 234q-14 50 -47 65t-89 15h-168l-49 -314h-62zM172 366h219q80 0 128 36.5t58 101.5q12 73 -27 110.5t-124 37.5h-209z" />
    <glyph glyph-name="S" unicode="S" horiz-adv-x="613" 
d="M283 -8q-86 0 -150 21t-108 52l29 51q50 -32 102 -50t129 -18q92 0 144 36t61 94q9 54 -19.5 86.5t-105.5 42.5l-90 13q-99 14 -141 66t-29 132q9 57 45.5 101t96.5 69t138 25q73 0 130.5 -21.5t94.5 -54.5l-27 -51q-41 35 -89.5 53t-114.5 18q-89 0 -145.5 -39
t-66.5 -103q-9 -59 19.5 -93.5t106.5 -45.5l90 -13q100 -13 141 -60t28 -129q-8 -52 -43.5 -93.5t-93 -65t-132.5 -23.5z" />
    <glyph glyph-name="T" unicode="T" horiz-adv-x="597" 
d="M226 0l102 651h-255l9 54h573l-9 -54h-256l-102 -651h-62z" />
    <glyph glyph-name="U" unicode="U" horiz-adv-x="726" 
d="M331 -8q-91 0 -149.5 31.5t-81.5 95t-8 156.5l68 430h62l-68 -426q-18 -116 23.5 -173.5t158.5 -57.5q102 0 164 53.5t82 177.5l67 426h62l-69 -432q-15 -98 -55.5 -160.5t-105 -91.5t-150.5 -29z" />
    <glyph glyph-name="V" unicode="V" horiz-adv-x="687" 
d="M272 0l-192 705h62l179 -661h-25l388 661h68l-419 -705h-61z" />
    <glyph glyph-name="W" unicode="W" horiz-adv-x="1108" 
d="M242 0l-132 705h62l120 -661h-32l340 661h52l118 -661h-29l335 661h66l-359 -705h-59l-116 642h20l-329 -642h-57z" />
    <glyph glyph-name="X" unicode="X" horiz-adv-x="644" 
d="M-26 0l337 371l1 -20l-208 354h70l179 -310h-19l275 310h79l-319 -354l-2 20l218 -371h-71l-191 331h27l-297 -331h-79z" />
    <glyph glyph-name="Y" unicode="Y" horiz-adv-x="597" 
d="M227 0l52 328l7 -47l-219 424h68l184 -365h-18l300 365h73l-354 -425l21 48l-52 -328h-62z" />
    <glyph glyph-name="Z" unicode="Z" horiz-adv-x="590" 
d="M3 0l7 46l536 632l-5 -28h-436l10 55h499l-7 -45l-537 -632l4 27h447l-8 -55h-510z" />
    <glyph glyph-name="bracketleft" unicode="[" horiz-adv-x="300" 
d="M39 -180l140 885h186l-8 -50h-125l-124 -785h125l-8 -50h-186z" />
    <glyph glyph-name="backslash" unicode="\" horiz-adv-x="272" 
d="M193 -54l-137 800h54l137 -800h-54z" />
    <glyph glyph-name="bracketright" unicode="]" horiz-adv-x="300" 
d="M-62 -180l7 50h125l124 785h-124l8 50h185l-140 -885h-185z" />
    <glyph glyph-name="asciicircum" unicode="^" horiz-adv-x="600" 
d="M28 140l306 488h50l152 -488h-51l-143 457h31l-287 -457h-58z" />
    <glyph glyph-name="underscore" unicode="_" horiz-adv-x="505" 
d="M-41 -43l7 43h493l-6 -43h-494z" />
    <glyph glyph-name="grave" unicode="`" horiz-adv-x="500" 
d="M320 550l-141 201h69l119 -201h-47z" />
    <glyph glyph-name="a" unicode="a" horiz-adv-x="591" 
d="M239 -8q-69 0 -116 31.5t-66 92t-5 146.5q20 120 89.5 184t167.5 64q68 0 113.5 -35.5t54.5 -97.5l-11 -1l30 125h59q-7 -29 -14 -57t-11 -55l-62 -389h-61l20 126h15q-27 -63 -79 -98.5t-124 -35.5zM251 44q75 0 129 52.5t70 153.5t-22.5 154.5t-117.5 53.5
q-75 0 -128 -53t-69 -153q-16 -102 21.5 -155t116.5 -53z" />
    <glyph glyph-name="b" unicode="b" horiz-adv-x="591" 
d="M283 -8q-69 0 -113.5 35.5t-55.5 97.5l10 1l-20 -126h-61l117 736h61l-56 -359l-15 -1q27 62 79 98t124 36q70 0 116.5 -32t65 -92.5t4.5 -145.5q-19 -121 -88.5 -184.5t-167.5 -63.5zM281 44q76 0 128.5 52.5t68.5 153.5q17 101 -20.5 154.5t-116.5 53.5q-75 0 -129 -53
t-70 -153q-15 -102 23 -155t116 -53z" />
    <glyph glyph-name="c" unicode="c" horiz-adv-x="491" 
d="M252 -8q-72 0 -122 31.5t-71 92t-7 146.5q20 120 90.5 184t174.5 64q47 0 89 -15.5t68 -46.5l-27 -43q-28 27 -62 39.5t-66 12.5q-80 0 -134.5 -52t-70.5 -151q-16 -101 23.5 -155.5t119.5 -54.5q37 0 76.5 14t73.5 46l25 -46q-32 -31 -82.5 -48.5t-97.5 -17.5z" />
    <glyph glyph-name="d" unicode="d" horiz-adv-x="591" 
d="M239 -8q-69 0 -116 31.5t-66 92t-5 146.5q20 120 89.5 184t167.5 64q68 0 113.5 -35.5t54.5 -97.5h-10l57 359h61l-117 -736h-60l20 126h14q-27 -63 -79 -98.5t-124 -35.5zM251 44q75 0 129 52.5t70 153.5t-22.5 154.5t-117.5 53.5q-75 0 -128 -53t-69 -153
q-16 -102 21.5 -155t116.5 -53z" />
    <glyph glyph-name="e" unicode="e" horiz-adv-x="543" 
d="M268 -8q-80 0 -133 33t-74 94.5t-8 146.5q13 77 48.5 131.5t90 83.5t124.5 29q68 0 112 -29.5t62.5 -82t7.5 -122.5l-4 -28h-399l6 45h363l-18 -14q13 87 -20.5 134.5t-113.5 47.5q-58 0 -99.5 -25.5t-66.5 -69t-33 -99.5l-2 -19q-14 -99 27.5 -151.5t133.5 -52.5
q46 0 90 14t80 48l25 -45q-39 -33 -91.5 -51t-107.5 -18z" />
    <glyph glyph-name="f" unicode="f" horiz-adv-x="324" 
d="M67 0l71 452h-100l9 49h115l-19 -16l15 95q13 78 59.5 119t122.5 41q18 0 37 -3.5t31 -8.5l-9 -54q-10 5 -26 9t-35 4q-33 0 -58 -14t-41 -40.5t-23 -67.5l-12 -80l-8 16h154l-8 -49h-143l-71 -452h-61z" />
    <glyph glyph-name="g" unicode="g" horiz-adv-x="595" 
d="M226 -223q-62 0 -113 17t-89 51l25 47q28 -23 55.5 -36.5t58.5 -20t68 -6.5q76 0 121.5 40.5t57.5 116.5l25 159h12q-25 -62 -79.5 -98t-124.5 -36q-68 0 -115 33t-66.5 92t-7.5 136q18 114 88 176t170 62q70 0 115.5 -35.5t53.5 -99.5l-8 11l28 115h59q-8 -29 -15 -57
t-11 -55l-62 -394q-17 -108 -79 -163t-167 -55zM253 63q78 0 131.5 52t68.5 145q15 94 -22.5 146t-115.5 52t-132 -52t-69 -145q-15 -94 23 -146t116 -52z" />
    <glyph glyph-name="h" unicode="h" horiz-adv-x="578" 
d="M43 0l117 736h61l-56 -351h-14q30 61 83.5 93t122.5 32q93 0 128.5 -52.5t20.5 -149.5l-49 -308h-61l49 306q13 82 -13.5 116.5t-92.5 34.5q-77 0 -126.5 -46t-62.5 -122l-46 -289h-61z" />
    <glyph glyph-name="i" unicode="i" horiz-adv-x="228" 
d="M43 0l80 501h61l-80 -501h-61zM132 624l12 76h82l-13 -76h-81z" />
    <glyph glyph-name="j" unicode="j" horiz-adv-x="228" 
d="M-64 -219q-12 0 -31 2.5t-32 9.5l9 53q12 -4 27.5 -7.5t28.5 -3.5q45 0 70.5 28.5t34.5 91.5l87 546h61l-89 -554q-12 -82 -54.5 -124t-111.5 -42zM139 624l12 76h81l-12 -76h-81z" />
    <glyph glyph-name="k" unicode="k" horiz-adv-x="498" 
d="M43 0l117 736h61l-73 -462h2l278 227h84l-322 -261v37l272 -277h-78l-239 241h-2l-39 -241h-61z" />
    <glyph glyph-name="l" unicode="l" horiz-adv-x="228" 
d="M43 0l117 736h61l-117 -736h-61z" />
    <glyph glyph-name="m" unicode="m" horiz-adv-x="869" 
d="M43 0l62 389q4 27 6.5 55t3.5 57h59l-9 -115h-14q29 61 77 92.5t111 31.5t100 -32.5t38 -94.5h-13q26 56 78 91.5t117 35.5q82 0 118.5 -49t19.5 -155l-48 -306h-61l49 312q12 76 -10 110.5t-84 34.5q-68 0 -113.5 -46t-57.5 -124l-46 -287h-61l50 312q12 76 -10 110.5
t-84 34.5q-68 0 -113 -46t-58 -124l-46 -287h-61z" />
    <glyph glyph-name="n" unicode="n" horiz-adv-x="578" 
d="M43 0l62 389q4 27 6.5 55t3.5 57h59l-9 -115l-14 -1q30 61 83.5 93t122.5 32q93 0 128.5 -52.5t20.5 -149.5l-49 -308h-61l49 306q13 82 -13.5 116.5t-92.5 34.5q-77 0 -126.5 -46t-62.5 -122l-46 -289h-61z" />
    <glyph glyph-name="o" unicode="o" horiz-adv-x="562" 
d="M246 -8q-72 0 -120.5 31t-67.5 92t-6 147q13 80 49.5 135.5t91 84t122.5 28.5q73 0 120.5 -31.5t67.5 -92t6 -146.5q-13 -81 -50 -136t-91 -83.5t-122 -28.5zM251 44q74 0 128 52.5t70 153.5t-22.5 154.5t-116.5 53.5q-75 0 -128 -53t-69 -153q-16 -102 21 -155t117 -53z
" />
    <glyph glyph-name="p" unicode="p" horiz-adv-x="591" 
d="M9 -216l96 605q4 27 6.5 55t3.5 57h59l-10 -125h-14q27 62 79 98t124 36q70 0 116.5 -32t65 -92.5t4.5 -145.5q-19 -121 -88.5 -184.5t-167.5 -63.5q-69 0 -113.5 35.5t-55.5 97.5h11l-55 -341h-61zM281 44q76 0 128.5 52.5t68.5 153.5q17 101 -20.5 154.5t-116.5 53.5
q-75 0 -129 -53t-70 -153q-15 -102 23 -155t116 -53z" />
    <glyph glyph-name="q" unicode="q" horiz-adv-x="591" 
d="M373 -216l54 341l15 1q-27 -63 -79 -98.5t-124 -35.5q-69 0 -116 31.5t-66 92t-5 146.5q20 120 89.5 184t167.5 64q68 0 113.5 -35.5t54.5 -97.5l-11 -1l30 125h59q-7 -29 -14 -57t-11 -55l-96 -605h-61zM251 44q75 0 129 52.5t70 153.5t-22.5 154.5t-117.5 53.5
q-75 0 -128 -53t-69 -153q-16 -102 21.5 -155t116.5 -53z" />
    <glyph glyph-name="r" unicode="r" horiz-adv-x="349" 
d="M42 0l60 384q5 29 8.5 58.5t4.5 58.5h59l-9 -115l-12 -1q16 42 45 69.5t65.5 41.5t73.5 14q13 0 24 -1.5t22 -3.5l-11 -56q-11 4 -23 5t-26 1q-47 0 -83.5 -20t-59 -53.5t-28.5 -73.5l-49 -308h-61z" />
    <glyph glyph-name="s" unicode="s" horiz-adv-x="494" 
d="M211 -8q-54 0 -103 16t-77 41l26 46q32 -25 72 -39t86 -14q62 0 99.5 23.5t43.5 62.5q6 35 -13 57.5t-66 29.5l-67 11q-75 12 -103.5 52t-19.5 96q7 43 34.5 73t70 46.5t93.5 16.5q54 0 97.5 -15.5t67.5 -38.5l-27 -45q-26 23 -61.5 35.5t-76.5 12.5q-61 0 -96.5 -25
t-42.5 -64q-5 -36 11 -59.5t59 -30.5l70 -12q77 -13 107.5 -49.5t21.5 -91.5q-6 -40 -33 -71t-71 -47.5t-102 -16.5z" />
    <glyph glyph-name="t" unicode="t" horiz-adv-x="337" 
d="M213 -8q-74 0 -104.5 40.5t-17.5 122.5l47 297h-100l9 49h99l22 140l64 20l-25 -160h148l-8 -49h-148l-45 -287q-10 -62 6 -91t60 -29q19 0 35 4t28 9l-8 -54q-14 -5 -29 -8.5t-33 -3.5z" />
    <glyph glyph-name="u" unicode="u" horiz-adv-x="569" 
d="M226 -8q-86 0 -128.5 48t-26.5 154l49 307h61l-48 -303q-12 -81 13.5 -117.5t90.5 -36.5q74 0 122 47t60 125l45 285h61l-79 -501h-60l18 118h15q-28 -61 -79 -93.5t-114 -32.5z" />
    <glyph glyph-name="v" unicode="v" horiz-adv-x="525" 
d="M191 0l-133 501h64l118 -463h-26l265 463h67l-292 -501h-63z" />
    <glyph glyph-name="w" unicode="w" horiz-adv-x="863" 
d="M176 0l-102 501h63l88 -465h-26l241 465h60l91 -465h-26l236 465h66l-261 -501h-63l-94 471h36l-245 -471h-64z" />
    <glyph glyph-name="x" unicode="x" horiz-adv-x="528" 
d="M-22 0l264 275v-33l-168 259h70l134 -213h-22l201 213h78l-246 -257l1 28l175 -272h-72l-143 227h22l-216 -227h-78z" />
    <glyph glyph-name="y" unicode="y" horiz-adv-x="525" 
d="M-15 -227l-11 53q49 11 82.5 26.5t59 40.5t47.5 62l35 60l-3 -27l-138 513h65l118 -463h-24l262 463h68l-319 -549q-27 -46 -54 -76.5t-56 -51t-61.5 -32.5t-70.5 -19z" />
    <glyph glyph-name="z" unicode="z" horiz-adv-x="515" 
d="M10 0l7 42l412 427l-3 -17h-345l9 49h407l-7 -42l-413 -428l3 18h358l-9 -49h-419z" />
    <glyph glyph-name="braceleft" unicode="{" horiz-adv-x="338" 
d="M194 -180q-39 0 -63 11t-32.5 32t-3.5 51l37 242q6 41 -6 60t-55 21l-24 2l7 48l26 2q43 2 61.5 21t25.5 60l38 241q8 46 34 70t72 24h93l-8 -50h-78q-23 0 -36 -11.5t-17 -34.5l-38 -245q-5 -36 -22.5 -58.5t-40 -33.5t-43.5 -11v4q21 0 39.5 -11t28.5 -33.5t4 -58.5
l-37 -246q-4 -22 4.5 -34t32.5 -12h79l-8 -50h-70z" />
    <glyph glyph-name="bar" unicode="|" horiz-adv-x="256" 
d="M29 -180l140 885h61l-140 -885h-61z" />
    <glyph glyph-name="braceright" unicode="}" horiz-adv-x="338" 
d="M-62 -180l7 50h78q23 0 36.5 12t17.5 34l38 245q6 37 23 59t39.5 33t43.5 11v-4q-21 0 -39.5 11t-28.5 34t-5 59l38 245q4 23 -5 34.5t-32 11.5h-79l8 50h70q40 0 63 -11t32 -32t4 -51l-38 -242q-6 -41 7 -60t54 -21l24 -1l-7 -49l-25 -2q-43 -2 -61.5 -21t-25.5 -60
l-38 -241q-8 -46 -34 -70t-72 -24h-93z" />
    <glyph glyph-name="asciitilde" unicode="~" horiz-adv-x="600" 
d="M422 221q-36 0 -68 14.5t-60 29.5q-28 17 -52 28t-47 11q-35 0 -59.5 -20t-41.5 -47l-40 24q27 46 59 69.5t77 23.5q36 0 69.5 -15t61.5 -31q28 -15 50.5 -26.5t45.5 -11.5q36 0 60.5 20t40.5 47l40 -24q-27 -45 -59 -68.5t-77 -23.5z" />
    <glyph glyph-name="uni00A0" unicode="&#xa0;" horiz-adv-x="255" 
 />
    <glyph glyph-name="exclamdown" unicode="&#xa1;" horiz-adv-x="219" 
d="M3 -180l100 509h38l-62 -509h-76zM93 416l13 85h86l-14 -85h-85z" />
    <glyph glyph-name="cent" unicode="&#xa2;" horiz-adv-x="600" 
d="M231 -115l20 127l11 -17q-91 11 -137.5 74.5t-27.5 181.5q19 112 83.5 171t159.5 67l-17 -23l22 139h54l-22 -137l-9 21q45 0 85.5 -15t65.5 -45l-27 -41q-28 26 -62 37.5t-66 11.5q-80 0 -135 -49.5t-70 -143.5q-11 -64 3.5 -108.5t50 -68t89.5 -23.5q37 0 76.5 13.5
t73.5 43.5l24 -45q-32 -30 -84.5 -47.5t-104.5 -16.5l17 19l-19 -126h-54z" />
    <glyph glyph-name="sterling" unicode="&#xa3;" horiz-adv-x="600" 
d="M8 0l6 45q54 21 88.5 50.5t40.5 75.5l26 160h-109l7 46h109l23 139q16 99 75.5 148t157.5 49q60 0 107 -18t79 -55l-30 -45q-31 31 -66 47t-90 16q-74 0 -116.5 -35.5t-55.5 -112.5l-22 -133h192l-7 -46h-192l-22 -139q-9 -59 -39.5 -93.5t-73.5 -50.5l1 6h433l-9 -54
h-513z" />
    <glyph glyph-name="currency" unicode="&#xa4;" horiz-adv-x="600" 
d="M111 -24l-39 40l74 76q-24 31 -37.5 70.5t-13.5 82.5q0 44 13 83.5t38 70.5l-74 75l39 40l74 -76q30 26 69 40.5t81 14.5q43 0 80.5 -14t68.5 -39l72 74l40 -40l-73 -74q25 -32 39 -71.5t14 -83.5t-14 -83.5t-40 -71.5l74 -74l-40 -40l-72 75q-31 -26 -68.5 -40
t-80.5 -14q-42 0 -80.5 14.5t-70.5 39.5zM335 53q50 0 90.5 26t64.5 69.5t24 96.5t-24 96.5t-64.5 70t-90.5 25.5q-50 0 -91 -26t-65 -69.5t-24 -96.5t24 -96.5t65 -69.5t91 -26z" />
    <glyph glyph-name="yen" unicode="&#xa5;" horiz-adv-x="600" 
d="M229 0l29 184h-195l8 44h195l16 107h-195l7 45h170l-1 -9l-191 334h67l186 -329h-18l291 329h74l-296 -334l1 9h169l-7 -45h-195l-17 -107h195l-7 -44h-195l-29 -184h-62z" />
    <glyph glyph-name="brokenbar" unicode="&#xa6;" horiz-adv-x="256" 
d="M116 372l53 333h61l-53 -333h-61zM29 -180l53 333h61l-53 -333h-61z" />
    <glyph glyph-name="section" unicode="&#xa7;" horiz-adv-x="530" 
d="M192 -188q-68 0 -120.5 17t-87.5 49l28 44q22 -21 49 -34t59.5 -19.5t70.5 -6.5q75 0 117.5 38.5t42.5 94.5q0 43 -20 67t-64 51l-96 58q-58 35 -89 73.5t-31 82.5q0 42 22.5 80.5t64.5 66.5l-2 -11q-7 16 -10 32t-3 33q0 55 30 96.5t80 65t111 23.5q57 0 106.5 -15.5
t83.5 -51.5l-25 -43q-27 29 -72 44.5t-92 15.5q-76 0 -118 -38.5t-42 -95.5q0 -42 18.5 -67.5t64.5 -52.5l93 -55q61 -36 91.5 -74t30.5 -82q0 -42 -22.5 -81t-64.5 -66l2 12q8 -15 11 -31.5t3 -34.5q0 -55 -29.5 -97t-79 -65t-111.5 -23zM109 336q0 -35 25 -62.5t72 -56.5
l83 -51q32 -20 55.5 -38.5t37.5 -41.5l-10 3q27 22 40.5 49t13.5 51q0 35 -25.5 62t-74.5 57l-79 48q-31 20 -55 38.5t-38 41.5l9 1q-26 -22 -40 -49t-14 -52z" />
    <glyph glyph-name="dieresis" unicode="&#xa8;" horiz-adv-x="500" 
d="M354 615l11 72h74l-12 -72h-73zM187 615l11 72h73l-11 -72h-73z" />
    <glyph glyph-name="copyright" unicode="&#xa9;" horiz-adv-x="815" 
d="M429 -8q-76 0 -142 27.5t-115 76.5t-76.5 115t-27.5 142q0 77 27.5 142.5t76.5 114t114.5 76t142.5 27.5t142.5 -27.5t114 -76t76 -114t27.5 -142.5q0 -76 -27.5 -142t-76 -115t-114 -76.5t-142.5 -27.5zM440 137q-96 0 -150 60t-54 159q0 98 54 155t150 57
q40 0 78.5 -15t63.5 -40l-21 -42q-28 26 -59 37.5t-61 11.5q-70 0 -109.5 -43.5t-39.5 -121.5t39.5 -123.5t109.5 -45.5q30 0 61 11.5t59 37.5l21 -43q-25 -25 -64.5 -40t-77.5 -15zM429 31q68 0 126 24.5t101.5 68.5t67.5 102.5t24 126.5t-24 126.5t-67.5 102t-101.5 68
t-126 24.5t-126.5 -24.5t-102 -68t-67.5 -102t-24 -126.5t24 -126.5t67.5 -102.5t102 -68.5t126.5 -24.5z" />
    <glyph glyph-name="ordfeminine" unicode="&#xaa;" horiz-adv-x="319" 
d="M160 412q-33 0 -55.5 12t-32.5 33t-6 48q5 32 25.5 49.5t51.5 24.5t68 7h82l-6 -33h-81q-87 0 -94 -49q-4 -24 9.5 -40t47.5 -16q42 0 72.5 26.5t38.5 72.5l9 58q5 35 -11 53t-56 18q-26 0 -54.5 -7.5t-51.5 -22.5l-14 36q27 15 60.5 23t65.5 8q59 0 86.5 -29t16.5 -91
l-28 -176h-42l8 54h-2q-19 -31 -45.5 -45t-61.5 -14z" />
    <glyph glyph-name="guillemotleft" unicode="&#xab;" horiz-adv-x="421" 
d="M131 88l-101 179l160 181h64l-161 -187l96 -173h-58zM302 88l-101 179l160 181h64l-161 -187l96 -173h-58z" />
    <glyph glyph-name="logicalnot" unicode="&#xac;" horiz-adv-x="600" 
d="M480 153l34 211h-443l7 50h495l-41 -261h-52z" />
    <glyph glyph-name="uni00AD" unicode="&#xad;" horiz-adv-x="424" 
d="M73 248l8 52h276l-8 -52h-276z" />
    <glyph glyph-name="registered" unicode="&#xae;" horiz-adv-x="815" 
d="M429 -8q-76 0 -142 27.5t-115 76.5t-76.5 115t-27.5 142q0 77 27.5 142.5t76.5 114t114.5 76t142.5 27.5t142.5 -27.5t114 -76t76 -114t27.5 -142.5q0 -76 -27.5 -142t-76 -115t-114 -76.5t-142.5 -27.5zM429 31q68 0 126 24.5t101.5 68.5t67.5 102.5t24 126.5t-24 126.5
t-67.5 102t-101.5 68t-126 24.5t-126.5 -24.5t-102 -68t-67.5 -102t-24 -126.5t24 -126.5t67.5 -102.5t102 -68.5t126.5 -24.5zM289 142v421h167q66 0 102 -31.5t36 -89.5q0 -57 -36 -87.5t-102 -30.5l8 10q30 0 50.5 -13t32.5 -45l52 -134h-55l-52 132q-11 27 -31 36t-49 9
h-81l12 9v-186h-54zM343 364h106q47 0 69.5 18.5t22.5 58.5q0 39 -22 58t-70 19h-106v-154z" />
    <glyph glyph-name="macron" unicode="&#xaf;" horiz-adv-x="500" 
d="M165 629l8 46h288l-8 -46h-288z" />
    <glyph glyph-name="degree" unicode="&#xb0;" horiz-adv-x="367" 
d="M235 421q-42 0 -74.5 19.5t-51.5 52t-19 73.5t19 73.5t52 52t74 19.5t73 -19t50.5 -51.5t18.5 -74.5q0 -41 -19 -74t-50.5 -52t-72.5 -19zM235 468q42 0 67 27.5t25 70.5t-25 70.5t-67 27.5t-68 -27.5t-26 -70.5t26 -70.5t68 -27.5z" />
    <glyph glyph-name="plusminus" unicode="&#xb1;" horiz-adv-x="600" 
d="M255 122l28 178h-223l8 50h223l28 179h52l-28 -179h217l-6 -50h-220l-28 -178h-51zM12 0l8 50h494l-7 -50h-495z" />
    <glyph glyph-name="uni00B2" unicode="&#xb2;" horiz-adv-x="380" 
d="M59 282l7 39l173 154q36 33 54 58.5t21 47.5q7 41 -12 60.5t-58 19.5q-30 0 -63 -11.5t-61 -35.5l-20 40q30 27 69 41t81 14q62 0 97 -32.5t25 -94.5q-4 -26 -23.5 -58t-59.5 -68l-156 -136l-4 10h223l-8 -48h-285z" />
    <glyph glyph-name="uni00B3" unicode="&#xb3;" horiz-adv-x="380" 
d="M199 279q-48 0 -86 14t-59 40l22 39q21 -22 52 -34.5t68 -12.5q40 0 68.5 18t34.5 58q7 39 -17.5 55.5t-70.5 16.5h-75l7 46h66q45 0 74 19t35 57q5 32 -14 50t-60 18q-33 0 -68 -13t-59 -36l-20 41q30 25 70.5 39.5t85.5 14.5q63 0 95.5 -30.5t24.5 -83.5
q-6 -38 -34 -64.5t-64 -36.5l1 7q41 -8 62.5 -35.5t13.5 -73.5q-8 -53 -51 -83t-102 -30z" />
    <glyph glyph-name="acute" unicode="&#xb4;" horiz-adv-x="500" 
d="M274 550l134 201h71l-158 -201h-47z" />
    <glyph glyph-name="uni00B5" unicode="&#xb5;" horiz-adv-x="566" 
d="M7 -216l112 717h61l-47 -305q-12 -78 14 -115t87 -37q77 0 123.5 49.5t59.5 132.5l42 275h61l-77 -501h-60l18 117h10q-24 -58 -70.5 -91.5t-110.5 -33.5q-46 0 -80 17.5t-50 52.5l6 2l-37 -280h-62z" />
    <glyph glyph-name="paragraph" unicode="&#xb6;" horiz-adv-x="584" 
d="M180 -180l80 502q-53 0 -91.5 22t-59 59.5t-20.5 83.5q0 65 29 114t80 76.5t117 27.5h248l-140 -885h-54l132 835h-135l-132 -835h-54z" />
    <glyph glyph-name="periodcentered" unicode="&#xb7;" horiz-adv-x="222" 
d="M65 231l13 85h87l-14 -85h-86z" />
    <glyph glyph-name="cedilla" unicode="&#xb8;" horiz-adv-x="500" 
d="M186 -191q-25 0 -46.5 5t-36.5 14l15 39q18 -9 33.5 -13t38.5 -4q28 0 46 11t18 31q0 13 -9 20.5t-26 7.5q-10 0 -21.5 -1.5t-28.5 -7.5l-14 14l30 95h44l-24 -75l-21 4q12 3 24 5t22 2q31 0 51.5 -16t20.5 -45q0 -38 -33 -62t-83 -24z" />
    <glyph glyph-name="uni00B9" unicode="&#xb9;" horiz-adv-x="380" 
d="M96 282l8 48h97l51 328l26 -2l-126 -71l9 57l110 63h42l-59 -375h85l-7 -48h-236z" />
    <glyph glyph-name="ordmasculine" unicode="&#xba;" horiz-adv-x="334" 
d="M198 412q-64 0 -98.5 40.5t-23.5 115.5q11 71 54.5 108t104.5 37q63 0 98.5 -39.5t23.5 -116.5q-11 -69 -54.5 -107t-104.5 -38zM200 450q42 0 72.5 29t38.5 84q9 55 -12 83.5t-66 28.5q-43 0 -73 -28.5t-39 -83.5q-8 -55 13 -84t66 -29z" />
    <glyph glyph-name="guillemotright" unicode="&#xbb;" horiz-adv-x="421" 
d="M78 88h-64l161 187l-96 173h58l101 -179zM247 88h-64l161 187l-96 173h58l101 -179z" />
    <glyph glyph-name="onequarter" unicode="&#xbc;" horiz-adv-x="888" 
d="M96 282l8 48h97l51 328l26 -2l-126 -71l9 57l110 63h42l-59 -375h85l-7 -48h-236zM242 -8h-60l539 721h61zM710 0l14 90h-204l7 41l256 292h45l-46 -287h67l-7 -46h-67l-14 -90h-51zM732 136l35 223h14l-209 -238l-2 15h162z" />
    <glyph glyph-name="onehalf" unicode="&#xbd;" horiz-adv-x="930" 
d="M96 282l8 48h97l51 328l26 -2l-126 -71l9 57l110 63h42l-59 -375h85l-7 -48h-236zM242 -8h-60l539 721h61zM564 0l7 39l173 154q36 33 54 58.5t21 47.5q7 41 -12 60.5t-58 19.5q-30 0 -63 -11.5t-61 -35.5l-20 40q30 27 69 41t81 14q62 0 97 -32.5t25 -94.5
q-4 -26 -23.5 -58t-59.5 -68l-156 -136l-4 10h223l-8 -48h-285z" />
    <glyph glyph-name="threequarters" unicode="&#xbe;" horiz-adv-x="888" 
d="M199 279q-48 0 -86 14t-59 40l22 39q21 -22 52 -34.5t68 -12.5q40 0 68.5 18t34.5 58q7 39 -17.5 55.5t-70.5 16.5h-75l7 46h66q45 0 74 19t35 57q5 32 -14 50t-60 18q-33 0 -68 -13t-59 -36l-20 41q30 25 70.5 39.5t85.5 14.5q63 0 95.5 -30.5t24.5 -83.5
q-6 -38 -34 -64.5t-64 -36.5l1 7q41 -8 62.5 -35.5t13.5 -73.5q-8 -53 -51 -83t-102 -30zM242 -8h-60l539 721h61zM710 0l14 90h-204l7 41l256 292h45l-46 -287h67l-7 -46h-67l-14 -90h-51zM732 136l35 223h14l-209 -238l-2 15h162z" />
    <glyph glyph-name="questiondown" unicode="&#xbf;" horiz-adv-x="440" 
d="M148 -211q-50 0 -86.5 16t-56.5 45.5t-20 68.5q0 45 19 83t48 70t59 60q58 54 85 93.5t37 81.5l6 22h40l-3 -23q-5 -34 -18 -65.5t-39 -65t-70 -75.5q-23 -22 -46 -49t-38.5 -58t-15.5 -65q0 -39 30 -61t82 -22q41 0 77 10t70 27l-10 -60q-34 -17 -73 -25t-77 -8z
M330 501l-14 -85h-85l14 85h85z" />
    <glyph glyph-name="Agrave" unicode="&#xc0;" horiz-adv-x="728" 
d="M-14 0l419 705h56l200 -705h-62l-56 203l28 -15h-434l36 15l-119 -203h-68zM423 630l-234 -401l-21 12h388l-19 -12l-111 401h-3zM419 765l-127 171h72l105 -171h-50z" />
    <glyph glyph-name="Aacute" unicode="&#xc1;" horiz-adv-x="728" 
d="M-14 0l419 705h56l200 -705h-62l-56 203l28 -15h-434l36 15l-119 -203h-68zM423 630l-234 -401l-21 12h388l-19 -12l-111 401h-3zM419 765l131 171h74l-155 -171h-50z" />
    <glyph glyph-name="Acircumflex" unicode="&#xc2;" horiz-adv-x="728" 
d="M-14 0l419 705h56l200 -705h-62l-56 203l28 -15h-434l36 15l-119 -203h-68zM423 630l-234 -401l-21 12h388l-19 -12l-111 401h-3zM282 765l140 171h62l104 -171h-49l-89 126l-119 -126h-49z" />
    <glyph glyph-name="Atilde" unicode="&#xc3;" horiz-adv-x="728" 
d="M-14 0l419 705h56l200 -705h-62l-56 203l28 -15h-434l36 15l-119 -203h-68zM423 630l-234 -401l-21 12h388l-19 -12l-111 401h-3zM279 787l-39 3q11 61 42.5 94t77.5 33q30 0 55 -14t48 -31q20 -14 38 -25t37 -11q58 0 78 84l39 -3q-11 -61 -42 -94t-77 -33
q-30 0 -55.5 14.5t-48.5 30.5q-19 14 -38 25t-37 11q-58 0 -78 -84z" />
    <glyph glyph-name="Adieresis" unicode="&#xc4;" horiz-adv-x="728" 
d="M-14 0l419 705h56l200 -705h-62l-56 203l28 -15h-434l36 15l-119 -203h-68zM423 630l-234 -401l-21 12h388l-19 -12l-111 401h-3zM497 813l12 73h73l-12 -73h-73zM330 813l12 73h73l-12 -73h-73z" />
    <glyph glyph-name="Aring" unicode="&#xc5;" horiz-adv-x="728" 
d="M-14 0l419 705h56l200 -705h-62l-56 203l28 -15h-434l36 15l-119 -203h-68zM423 630l-234 -401l-21 12h388l-19 -12l-111 401h-3zM460 759q-32 0 -58 15.5t-41.5 41t-15.5 56.5q0 32 15.5 57t41.5 40.5t58 15.5q33 0 59 -15.5t41 -40.5t15 -57q0 -31 -15 -56.5t-41 -41
t-59 -15.5zM460 797q34 0 54.5 21.5t20.5 53.5t-20.5 53.5t-54.5 21.5q-32 0 -53.5 -21.5t-21.5 -53.5t21.5 -53.5t53.5 -21.5z" />
    <glyph glyph-name="AE" unicode="&#xc6;" horiz-adv-x="1001" 
d="M-34 0l538 705h515l-9 -53h-409l24 23l-20 -307l-15 16h357l-8 -53h-348l12 10l-20 -309l-5 21h338l-9 -53h-386l13 197l24 -9h-392l30 17l-156 -205h-74zM531 651l-320 -425l-9 15h345l-10 -15l27 425h-33z" />
    <glyph glyph-name="Ccedilla" unicode="&#xc7;" horiz-adv-x="684" 
d="M368 -8q-113 0 -182.5 46.5t-95 130.5t-8.5 195q18 112 68 190t127 119t177 40q73 0 128.5 -21t94.5 -63l-28 -52q-44 44 -89.5 61.5t-108.5 17.5q-125 0 -203 -79t-101 -222q-14 -92 4.5 -161t73.5 -107t146 -38q58 0 113.5 20t102.5 65l25 -49q-45 -46 -110.5 -69.5
t-133.5 -23.5zM329 -191q-25 0 -46.5 5t-36.5 14l15 39q18 -9 33.5 -13t38.5 -4q28 0 46 11t18 31q0 13 -9 20.5t-26 7.5q-10 0 -21.5 -1.5t-28.5 -7.5l-14 14l30 95h44l-24 -75l-21 4q12 3 24 5t22 2q31 0 51.5 -16t20.5 -45q0 -38 -33 -62t-83 -24z" />
    <glyph glyph-name="Egrave" unicode="&#xc8;" horiz-adv-x="585" 
d="M53 0l112 705h438l-9 -53h-378l-41 -268h355l-8 -53h-356l-44 -278h378l-9 -53h-438zM382 765l-127 171h72l105 -171h-50z" />
    <glyph glyph-name="Eacute" unicode="&#xc9;" horiz-adv-x="585" 
d="M53 0l112 705h438l-9 -53h-378l-41 -268h355l-8 -53h-356l-44 -278h378l-9 -53h-438zM382 765l131 171h74l-155 -171h-50z" />
    <glyph glyph-name="Ecircumflex" unicode="&#xca;" horiz-adv-x="585" 
d="M53 0l112 705h438l-9 -53h-378l-41 -268h355l-8 -53h-356l-44 -278h378l-9 -53h-438zM246 765l140 171h62l104 -171h-49l-89 126l-119 -126h-49z" />
    <glyph glyph-name="Edieresis" unicode="&#xcb;" horiz-adv-x="585" 
d="M53 0l112 705h438l-9 -53h-378l-41 -268h355l-8 -53h-356l-44 -278h378l-9 -53h-438zM461 813l12 73h73l-12 -73h-73zM294 813l12 73h73l-12 -73h-73z" />
    <glyph glyph-name="Igrave" unicode="&#xcc;" horiz-adv-x="247" 
d="M53 0l112 705h62l-112 -705h-62zM180 765l-127 171h72l105 -171h-50z" />
    <glyph glyph-name="Iacute" unicode="&#xcd;" horiz-adv-x="247" 
d="M53 0l112 705h62l-112 -705h-62zM180 765l131 171h74l-155 -171h-50z" />
    <glyph glyph-name="Icircumflex" unicode="&#xce;" horiz-adv-x="247" 
d="M53 0l112 705h62l-112 -705h-62zM44 765l140 171h62l104 -171h-49l-89 126l-119 -126h-49z" />
    <glyph glyph-name="Idieresis" unicode="&#xcf;" horiz-adv-x="247" 
d="M53 0l112 705h62l-112 -705h-62zM259 813l12 73h73l-12 -73h-73zM92 813l12 73h73l-12 -73h-73z" />
    <glyph glyph-name="Eth" unicode="&#xd0;" horiz-adv-x="740" 
d="M53 0l112 705h217q121 0 194.5 -43t102 -124t10.5 -196q-28 -172 -133.5 -257t-278.5 -85h-224zM123 55h157q151 0 237 72.5t109 223.5q24 151 -38.5 225.5t-213.5 74.5h-157zM19 333l8 50h350l-8 -50h-350z" />
    <glyph glyph-name="Ntilde" unicode="&#xd1;" horiz-adv-x="743" 
d="M53 0l112 705h50l367 -634l-17 2l100 632h57l-112 -705h-49l-367 634l16 -2l-100 -632h-57zM290 787l-39 3q11 61 42.5 94t77.5 33q30 0 55 -14t48 -31q20 -14 38 -25t37 -11q58 0 78 84l39 -3q-11 -61 -42 -94t-77 -33q-30 0 -55.5 14.5t-48.5 30.5q-19 14 -38 25
t-37 11q-58 0 -78 -84z" />
    <glyph glyph-name="Ograve" unicode="&#xd2;" horiz-adv-x="765" 
d="M83 364q18 112 67 190t125 118.5t173 40.5q103 0 168.5 -46.5t90.5 -130.5t7 -195q-17 -111 -66.5 -189t-125.5 -119t-174 -41q-102 0 -167 46.5t-90 130.5t-8 195zM147 354q-15 -95 4 -163t70.5 -105.5t131.5 -37.5q123 0 199 80t99 223q15 94 -5 163t-71 106t-131 37
q-123 0 -198.5 -79.5t-98.5 -223.5zM439 765l-127 171h72l105 -171h-50z" />
    <glyph glyph-name="Oacute" unicode="&#xd3;" horiz-adv-x="765" 
d="M83 364q18 112 67 190t125 118.5t173 40.5q103 0 168.5 -46.5t90.5 -130.5t7 -195q-17 -111 -66.5 -189t-125.5 -119t-174 -41q-102 0 -167 46.5t-90 130.5t-8 195zM147 354q-15 -95 4 -163t70.5 -105.5t131.5 -37.5q123 0 199 80t99 223q15 94 -5 163t-71 106t-131 37
q-123 0 -198.5 -79.5t-98.5 -223.5zM439 765l131 171h74l-155 -171h-50z" />
    <glyph glyph-name="Ocircumflex" unicode="&#xd4;" horiz-adv-x="765" 
d="M83 364q18 112 67 190t125 118.5t173 40.5q103 0 168.5 -46.5t90.5 -130.5t7 -195q-17 -111 -66.5 -189t-125.5 -119t-174 -41q-102 0 -167 46.5t-90 130.5t-8 195zM147 354q-15 -95 4 -163t70.5 -105.5t131.5 -37.5q123 0 199 80t99 223q15 94 -5 163t-71 106t-131 37
q-123 0 -198.5 -79.5t-98.5 -223.5zM303 765l140 171h62l104 -171h-49l-89 126l-119 -126h-49z" />
    <glyph glyph-name="Otilde" unicode="&#xd5;" horiz-adv-x="765" 
d="M83 364q18 112 67 190t125 118.5t173 40.5q103 0 168.5 -46.5t90.5 -130.5t7 -195q-17 -111 -66.5 -189t-125.5 -119t-174 -41q-102 0 -167 46.5t-90 130.5t-8 195zM147 354q-15 -95 4 -163t70.5 -105.5t131.5 -37.5q123 0 199 80t99 223q15 94 -5 163t-71 106t-131 37
q-123 0 -198.5 -79.5t-98.5 -223.5zM300 787l-39 3q11 61 42.5 94t77.5 33q30 0 55 -14t48 -31q20 -14 38 -25t37 -11q58 0 78 84l39 -3q-11 -61 -42 -94t-77 -33q-30 0 -55.5 14.5t-48.5 30.5q-19 14 -38 25t-37 11q-58 0 -78 -84z" />
    <glyph glyph-name="Odieresis" unicode="&#xd6;" horiz-adv-x="765" 
d="M83 364q18 112 67 190t125 118.5t173 40.5q103 0 168.5 -46.5t90.5 -130.5t7 -195q-17 -111 -66.5 -189t-125.5 -119t-174 -41q-102 0 -167 46.5t-90 130.5t-8 195zM147 354q-15 -95 4 -163t70.5 -105.5t131.5 -37.5q123 0 199 80t99 223q15 94 -5 163t-71 106t-131 37
q-123 0 -198.5 -79.5t-98.5 -223.5zM518 813l12 73h73l-12 -73h-73zM351 813l12 73h73l-12 -73h-73z" />
    <glyph glyph-name="multiply" unicode="&#xd7;" horiz-adv-x="600" 
d="M99 49l-35 36l217 201l-179 196l36 36l181 -198l216 198l35 -36l-217 -199l179 -198l-36 -36l-181 199z" />
    <glyph glyph-name="Oslash" unicode="&#xd8;" horiz-adv-x="765" 
d="M83 364q18 112 67 190t125 118.5t173 40.5q103 0 168.5 -46.5t90.5 -130.5t7 -195q-17 -111 -66.5 -189t-125.5 -119t-174 -41q-102 0 -167 46.5t-90 130.5t-8 195zM147 354q-15 -95 4 -163t70.5 -105.5t131.5 -37.5q123 0 199 80t99 223q15 94 -5 163t-71 106t-131 37
q-123 0 -198.5 -79.5t-98.5 -223.5zM211 56l-63 -85l-41 29l63 86l24 29l375 505l19 30l64 84l41 -29l-64 -85l-23 -30l-375 -505z" />
    <glyph glyph-name="Ugrave" unicode="&#xd9;" horiz-adv-x="726" 
d="M331 -8q-91 0 -149.5 31.5t-81.5 95t-8 156.5l68 430h62l-68 -426q-18 -116 23.5 -173.5t158.5 -57.5q102 0 164 53.5t82 177.5l67 426h62l-69 -432q-15 -98 -55.5 -160.5t-105 -91.5t-150.5 -29zM421 765l-127 171h72l105 -171h-50z" />
    <glyph glyph-name="Uacute" unicode="&#xda;" horiz-adv-x="726" 
d="M331 -8q-91 0 -149.5 31.5t-81.5 95t-8 156.5l68 430h62l-68 -426q-18 -116 23.5 -173.5t158.5 -57.5q102 0 164 53.5t82 177.5l67 426h62l-69 -432q-15 -98 -55.5 -160.5t-105 -91.5t-150.5 -29zM421 765l131 171h74l-155 -171h-50z" />
    <glyph glyph-name="Ucircumflex" unicode="&#xdb;" horiz-adv-x="726" 
d="M331 -8q-91 0 -149.5 31.5t-81.5 95t-8 156.5l68 430h62l-68 -426q-18 -116 23.5 -173.5t158.5 -57.5q102 0 164 53.5t82 177.5l67 426h62l-69 -432q-15 -98 -55.5 -160.5t-105 -91.5t-150.5 -29zM284 765l140 171h62l104 -171h-49l-89 126l-119 -126h-49z" />
    <glyph glyph-name="Udieresis" unicode="&#xdc;" horiz-adv-x="726" 
d="M331 -8q-91 0 -149.5 31.5t-81.5 95t-8 156.5l68 430h62l-68 -426q-18 -116 23.5 -173.5t158.5 -57.5q102 0 164 53.5t82 177.5l67 426h62l-69 -432q-15 -98 -55.5 -160.5t-105 -91.5t-150.5 -29zM499 813l12 73h73l-12 -73h-73zM332 813l12 73h73l-12 -73h-73z" />
    <glyph glyph-name="Yacute" unicode="&#xdd;" horiz-adv-x="597" 
d="M227 0l52 328l7 -47l-219 424h68l184 -365h-18l300 365h73l-354 -425l21 48l-52 -328h-62zM356 765l131 171h74l-155 -171h-50z" />
    <glyph glyph-name="Thorn" unicode="&#xde;" horiz-adv-x="645" 
d="M53 0l112 705h62l-23 -141h206q113 0 165 -55t36 -153q-9 -61 -42 -103t-85.5 -63t-120.5 -21h-222l-26 -169h-62zM149 222h208q83 0 132 34.5t60 104.5q12 74 -25 112t-121 38h-208z" />
    <glyph glyph-name="germandbls" unicode="&#xdf;" horiz-adv-x="616" 
d="M43 0l80 502q19 120 82 179.5t172 59.5q60 0 100.5 -20t59 -58.5t9.5 -94.5q-6 -40 -28.5 -77t-66 -69.5t-113.5 -59.5l-1 14q89 -25 142 -58.5t73.5 -76t11.5 -96.5q-7 -46 -34 -80.5t-70 -53.5t-100 -19q-55 0 -99.5 15t-72.5 40l24 45q33 -24 69 -37t80 -13
q60 0 98 29t46 83q6 37 -10.5 69t-67.5 61t-147 56l9 51q71 26 112.5 54t62 59.5t25.5 65.5q9 57 -20 89t-95 32q-83 0 -128.5 -45.5t-60.5 -138.5l-81 -507h-61z" />
    <glyph glyph-name="agrave" unicode="&#xe0;" horiz-adv-x="591" 
d="M239 -8q-69 0 -116 31.5t-66 92t-5 146.5q20 120 89.5 184t167.5 64q68 0 113.5 -35.5t54.5 -97.5l-11 -1l30 125h59q-7 -29 -14 -57t-11 -55l-62 -389h-61l20 126h15q-27 -63 -79 -98.5t-124 -35.5zM251 44q75 0 129 52.5t70 153.5t-22.5 154.5t-117.5 53.5
q-75 0 -128 -53t-69 -153q-16 -102 21.5 -155t116.5 -53zM312 550l-141 201h69l119 -201h-47z" />
    <glyph glyph-name="aacute" unicode="&#xe1;" horiz-adv-x="591" 
d="M239 -8q-69 0 -116 31.5t-66 92t-5 146.5q20 120 89.5 184t167.5 64q68 0 113.5 -35.5t54.5 -97.5l-11 -1l30 125h59q-7 -29 -14 -57t-11 -55l-62 -389h-61l20 126h15q-27 -63 -79 -98.5t-124 -35.5zM251 44q75 0 129 52.5t70 153.5t-22.5 154.5t-117.5 53.5
q-75 0 -128 -53t-69 -153q-16 -102 21.5 -155t116.5 -53zM314 550l134 201h71l-158 -201h-47z" />
    <glyph glyph-name="acircumflex" unicode="&#xe2;" horiz-adv-x="591" 
d="M239 -8q-69 0 -116 31.5t-66 92t-5 146.5q20 120 89.5 184t167.5 64q68 0 113.5 -35.5t54.5 -97.5l-11 -1l30 125h59q-7 -29 -14 -57t-11 -55l-62 -389h-61l20 126h15q-27 -63 -79 -98.5t-124 -35.5zM251 44q75 0 129 52.5t70 153.5t-22.5 154.5t-117.5 53.5
q-75 0 -128 -53t-69 -153q-16 -102 21.5 -155t116.5 -53zM195 550l131 201h62l88 -201h-45l-77 155l-113 -155h-46z" />
    <glyph glyph-name="atilde" unicode="&#xe3;" horiz-adv-x="591" 
d="M239 -8q-69 0 -116 31.5t-66 92t-5 146.5q20 120 89.5 184t167.5 64q68 0 113.5 -35.5t54.5 -97.5l-11 -1l30 125h59q-7 -29 -14 -57t-11 -55l-62 -389h-61l20 126h15q-27 -63 -79 -98.5t-124 -35.5zM251 44q75 0 129 52.5t70 153.5t-22.5 154.5t-117.5 53.5
q-75 0 -128 -53t-69 -153q-16 -102 21.5 -155t116.5 -53zM208 592l-39 3q11 61 39 94t71 33q26 0 43.5 -14t32.5 -30q14 -15 28 -26t30 -11q52 0 70 84l39 -3q-10 -61 -38.5 -94t-70.5 -33q-25 0 -44 14.5t-34 30.5q-13 14 -26.5 25t-30.5 11q-52 0 -70 -84z" />
    <glyph glyph-name="adieresis" unicode="&#xe4;" horiz-adv-x="591" 
d="M239 -8q-69 0 -116 31.5t-66 92t-5 146.5q20 120 89.5 184t167.5 64q68 0 113.5 -35.5t54.5 -97.5l-11 -1l30 125h59q-7 -29 -14 -57t-11 -55l-62 -389h-61l20 126h15q-27 -63 -79 -98.5t-124 -35.5zM251 44q75 0 129 52.5t70 153.5t-22.5 154.5t-117.5 53.5
q-75 0 -128 -53t-69 -153q-16 -102 21.5 -155t116.5 -53zM395 615l11 72h74l-12 -72h-73zM228 615l11 72h73l-11 -72h-73z" />
    <glyph glyph-name="aring" unicode="&#xe5;" horiz-adv-x="591" 
d="M239 -8q-69 0 -116 31.5t-66 92t-5 146.5q20 120 89.5 184t167.5 64q68 0 113.5 -35.5t54.5 -97.5l-11 -1l30 125h59q-7 -29 -14 -57t-11 -55l-62 -389h-61l20 126h15q-27 -63 -79 -98.5t-124 -35.5zM251 44q75 0 129 52.5t70 153.5t-22.5 154.5t-117.5 53.5
q-75 0 -128 -53t-69 -153q-16 -102 21.5 -155t116.5 -53zM354 547q-31 0 -57.5 15t-42 41t-15.5 57t15.5 56.5t41.5 40.5t58 15q33 0 59 -15t41.5 -40.5t15.5 -57.5q0 -30 -15.5 -56t-41.5 -41t-59 -15zM354 584q34 0 54.5 22t20.5 54t-20.5 53.5t-53.5 21.5t-54.5 -21.5
t-21.5 -53.5t21.5 -54t53.5 -22z" />
    <glyph glyph-name="ae" unicode="&#xe6;" horiz-adv-x="886" 
d="M210 -8q-56 0 -94.5 21.5t-55.5 58t-10 82.5q10 55 50 84.5t107.5 41t159.5 11.5h51l-6 -44h-51q-74 0 -128 -7.5t-85 -29t-38 -63.5q-7 -47 21.5 -76.5t85.5 -29.5q72 0 119.5 46.5t59.5 120.5l19 117q11 70 -18.5 101.5t-84.5 31.5q-50 0 -93 -12.5t-89 -41.5l-23 46
q29 19 62.5 32.5t70 20.5t72.5 7q81 0 118.5 -35.5t38.5 -98.5h-22q33 64 91 99t127 35q65 0 108.5 -29.5t61.5 -82t7 -122.5l-4 -28h-390l7 45h353l-17 -14q12 87 -21 134.5t-110 47.5q-55 0 -95.5 -25.5t-65.5 -69t-33 -99.5l-2 -19q-14 -99 27 -151.5t130 -52.5
q43 0 86 14t80 48l25 -45q-37 -33 -90.5 -51t-104.5 -18q-90 0 -142.5 42.5t-65.5 121.5h20q-27 -77 -83.5 -120.5t-135.5 -43.5z" />
    <glyph glyph-name="ccedilla" unicode="&#xe7;" horiz-adv-x="491" 
d="M252 -8q-72 0 -122 31.5t-71 92t-7 146.5q20 120 90.5 184t174.5 64q47 0 89 -15.5t68 -46.5l-27 -43q-28 27 -62 39.5t-66 12.5q-80 0 -134.5 -52t-70.5 -151q-16 -101 23.5 -155.5t119.5 -54.5q37 0 76.5 14t73.5 46l25 -46q-32 -31 -82.5 -48.5t-97.5 -17.5zM225 -191
q-25 0 -46.5 5t-36.5 14l15 39q18 -9 33.5 -13t38.5 -4q28 0 46 11t18 31q0 13 -9 20.5t-26 7.5q-10 0 -21.5 -1.5t-28.5 -7.5l-14 14l30 95h44l-24 -75l-21 4q12 3 24 5t22 2q31 0 51.5 -16t20.5 -45q0 -38 -33 -62t-83 -24z" />
    <glyph glyph-name="egrave" unicode="&#xe8;" horiz-adv-x="543" 
d="M268 -8q-80 0 -133 33t-74 94.5t-8 146.5q13 77 48.5 131.5t90 83.5t124.5 29q68 0 112 -29.5t62.5 -82t7.5 -122.5l-4 -28h-399l6 45h363l-18 -14q13 87 -20.5 134.5t-113.5 47.5q-58 0 -99.5 -25.5t-66.5 -69t-33 -99.5l-2 -19q-14 -99 27.5 -151.5t133.5 -52.5
q46 0 90 14t80 48l25 -45q-39 -33 -91.5 -51t-107.5 -18zM308 550l-141 201h69l119 -201h-47z" />
    <glyph glyph-name="eacute" unicode="&#xe9;" horiz-adv-x="543" 
d="M268 -8q-80 0 -133 33t-74 94.5t-8 146.5q13 77 48.5 131.5t90 83.5t124.5 29q68 0 112 -29.5t62.5 -82t7.5 -122.5l-4 -28h-399l6 45h363l-18 -14q13 87 -20.5 134.5t-113.5 47.5q-58 0 -99.5 -25.5t-66.5 -69t-33 -99.5l-2 -19q-14 -99 27.5 -151.5t133.5 -52.5
q46 0 90 14t80 48l25 -45q-39 -33 -91.5 -51t-107.5 -18zM310 550l134 201h71l-158 -201h-47z" />
    <glyph glyph-name="ecircumflex" unicode="&#xea;" horiz-adv-x="543" 
d="M268 -8q-80 0 -133 33t-74 94.5t-8 146.5q13 77 48.5 131.5t90 83.5t124.5 29q68 0 112 -29.5t62.5 -82t7.5 -122.5l-4 -28h-399l6 45h363l-18 -14q13 87 -20.5 134.5t-113.5 47.5q-58 0 -99.5 -25.5t-66.5 -69t-33 -99.5l-2 -19q-14 -99 27.5 -151.5t133.5 -52.5
q46 0 90 14t80 48l25 -45q-39 -33 -91.5 -51t-107.5 -18zM191 550l131 201h62l88 -201h-45l-77 155l-113 -155h-46z" />
    <glyph glyph-name="edieresis" unicode="&#xeb;" horiz-adv-x="543" 
d="M268 -8q-80 0 -133 33t-74 94.5t-8 146.5q13 77 48.5 131.5t90 83.5t124.5 29q68 0 112 -29.5t62.5 -82t7.5 -122.5l-4 -28h-399l6 45h363l-18 -14q13 87 -20.5 134.5t-113.5 47.5q-58 0 -99.5 -25.5t-66.5 -69t-33 -99.5l-2 -19q-14 -99 27.5 -151.5t133.5 -52.5
q46 0 90 14t80 48l25 -45q-39 -33 -91.5 -51t-107.5 -18zM391 615l11 72h74l-12 -72h-73zM224 615l11 72h73l-11 -72h-73z" />
    <glyph glyph-name="igrave" unicode="&#xec;" horiz-adv-x="228" 
d="M43 0l80 501h61l-80 -501h-61zM136 550l-141 201h69l119 -201h-47z" />
    <glyph glyph-name="iacute" unicode="&#xed;" horiz-adv-x="228" 
d="M43 0l80 501h61l-80 -501h-61zM138 550l134 201h71l-158 -201h-47z" />
    <glyph glyph-name="icircumflex" unicode="&#xee;" horiz-adv-x="228" 
d="M43 0l80 501h61l-80 -501h-61zM19 550l131 201h62l88 -201h-45l-77 155l-113 -155h-46z" />
    <glyph glyph-name="idieresis" unicode="&#xef;" horiz-adv-x="228" 
d="M43 0l80 501h61l-80 -501h-61zM219 615l11 72h74l-12 -72h-73zM52 615l11 72h73l-11 -72h-73z" />
    <glyph glyph-name="eth" unicode="&#xf0;" horiz-adv-x="566" 
d="M246 -8q-70 0 -119 29.5t-69.5 85t-8.5 130.5q11 67 45 117.5t88 78.5t121 28q77 0 125.5 -40t55.5 -122h-21q15 93 -7 176t-84 142l20 -1l-208 -81l-15 37l184 72l1 -13q-28 22 -61 39t-72 28l19 44q53 -14 95.5 -36t75.5 -50l-19 3l123 48l15 -37l-104 -41l1 11
q42 -45 66 -103.5t30 -126t-6 -142.5q-21 -134 -90.5 -205t-180.5 -71zM248 44q78 0 131.5 48.5t66.5 133.5t-24.5 133.5t-115.5 48.5t-130 -46.5t-67 -134.5q-14 -87 25 -135t114 -48z" />
    <glyph glyph-name="ntilde" unicode="&#xf1;" horiz-adv-x="578" 
d="M43 0l62 389q4 27 6.5 55t3.5 57h59l-9 -115l-14 -1q30 61 83.5 93t122.5 32q93 0 128.5 -52.5t20.5 -149.5l-49 -308h-61l49 306q13 82 -13.5 116.5t-92.5 34.5q-77 0 -126.5 -46t-62.5 -122l-46 -289h-61zM206 592l-39 3q11 61 39 94t71 33q26 0 43.5 -14t32.5 -30
q14 -15 28 -26t30 -11q52 0 70 84l39 -3q-10 -61 -38.5 -94t-70.5 -33q-25 0 -44 14.5t-34 30.5q-13 14 -26.5 25t-30.5 11q-52 0 -70 -84z" />
    <glyph glyph-name="ograve" unicode="&#xf2;" horiz-adv-x="562" 
d="M246 -8q-72 0 -120.5 31t-67.5 92t-6 147q13 80 49.5 135.5t91 84t122.5 28.5q73 0 120.5 -31.5t67.5 -92t6 -146.5q-13 -81 -50 -136t-91 -83.5t-122 -28.5zM251 44q74 0 128 52.5t70 153.5t-22.5 154.5t-116.5 53.5q-75 0 -128 -53t-69 -153q-16 -102 21 -155t117 -53z
M304 550l-141 201h69l119 -201h-47z" />
    <glyph glyph-name="oacute" unicode="&#xf3;" horiz-adv-x="562" 
d="M246 -8q-72 0 -120.5 31t-67.5 92t-6 147q13 80 49.5 135.5t91 84t122.5 28.5q73 0 120.5 -31.5t67.5 -92t6 -146.5q-13 -81 -50 -136t-91 -83.5t-122 -28.5zM251 44q74 0 128 52.5t70 153.5t-22.5 154.5t-116.5 53.5q-75 0 -128 -53t-69 -153q-16 -102 21 -155t117 -53z
M306 550l134 201h71l-158 -201h-47z" />
    <glyph glyph-name="ocircumflex" unicode="&#xf4;" horiz-adv-x="562" 
d="M246 -8q-72 0 -120.5 31t-67.5 92t-6 147q13 80 49.5 135.5t91 84t122.5 28.5q73 0 120.5 -31.5t67.5 -92t6 -146.5q-13 -81 -50 -136t-91 -83.5t-122 -28.5zM251 44q74 0 128 52.5t70 153.5t-22.5 154.5t-116.5 53.5q-75 0 -128 -53t-69 -153q-16 -102 21 -155t117 -53z
M187 550l131 201h62l88 -201h-45l-77 155l-113 -155h-46z" />
    <glyph glyph-name="otilde" unicode="&#xf5;" horiz-adv-x="562" 
d="M246 -8q-72 0 -120.5 31t-67.5 92t-6 147q13 80 49.5 135.5t91 84t122.5 28.5q73 0 120.5 -31.5t67.5 -92t6 -146.5q-13 -81 -50 -136t-91 -83.5t-122 -28.5zM251 44q74 0 128 52.5t70 153.5t-22.5 154.5t-116.5 53.5q-75 0 -128 -53t-69 -153q-16 -102 21 -155t117 -53z
M200 592l-39 3q11 61 39 94t71 33q26 0 43.5 -14t32.5 -30q14 -15 28 -26t30 -11q52 0 70 84l39 -3q-10 -61 -38.5 -94t-70.5 -33q-25 0 -44 14.5t-34 30.5q-13 14 -26.5 25t-30.5 11q-52 0 -70 -84z" />
    <glyph glyph-name="odieresis" unicode="&#xf6;" horiz-adv-x="562" 
d="M246 -8q-72 0 -120.5 31t-67.5 92t-6 147q13 80 49.5 135.5t91 84t122.5 28.5q73 0 120.5 -31.5t67.5 -92t6 -146.5q-13 -81 -50 -136t-91 -83.5t-122 -28.5zM251 44q74 0 128 52.5t70 153.5t-22.5 154.5t-116.5 53.5q-75 0 -128 -53t-69 -153q-16 -102 21 -155t117 -53z
M387 615l11 72h74l-12 -72h-73zM220 615l11 72h73l-11 -72h-73z" />
    <glyph glyph-name="divide" unicode="&#xf7;" horiz-adv-x="600" 
d="M54 262l7 50h495l-7 -50h-495zM223 48l13 78h78l-14 -78h-77zM286 447l13 78h77l-12 -78h-78z" />
    <glyph glyph-name="oslash" unicode="&#xf8;" horiz-adv-x="562" 
d="M246 -8q-72 0 -120.5 31t-67.5 92t-6 147q13 80 49.5 135.5t91 84t122.5 28.5q73 0 120.5 -31.5t67.5 -92t6 -146.5q-13 -81 -50 -136t-91 -83.5t-122 -28.5zM251 44q76 0 130 52.5t70 153.5q17 101 -22 154.5t-119 53.5q-77 0 -130 -53t-69 -153q-16 -101 21 -154.5
t119 -53.5zM107 -28l-35 27l386 529l34 -26z" />
    <glyph glyph-name="ugrave" unicode="&#xf9;" horiz-adv-x="569" 
d="M226 -8q-86 0 -128.5 48t-26.5 154l49 307h61l-48 -303q-12 -81 13.5 -117.5t90.5 -36.5q74 0 122 47t60 125l45 285h61l-79 -501h-60l18 118h15q-28 -61 -79 -93.5t-114 -32.5zM307 551l-141 201h69l119 -201h-47z" />
    <glyph glyph-name="uacute" unicode="&#xfa;" horiz-adv-x="569" 
d="M226 -8q-86 0 -128.5 48t-26.5 154l49 307h61l-48 -303q-12 -81 13.5 -117.5t90.5 -36.5q74 0 122 47t60 125l45 285h61l-79 -501h-60l18 118h15q-28 -61 -79 -93.5t-114 -32.5zM309 551l134 201h71l-158 -201h-47z" />
    <glyph glyph-name="ucircumflex" unicode="&#xfb;" horiz-adv-x="569" 
d="M226 -8q-86 0 -128.5 48t-26.5 154l49 307h61l-48 -303q-12 -81 13.5 -117.5t90.5 -36.5q74 0 122 47t60 125l45 285h61l-79 -501h-60l18 118h15q-28 -61 -79 -93.5t-114 -32.5zM190 551l131 201h62l88 -201h-45l-77 155l-113 -155h-46z" />
    <glyph glyph-name="udieresis" unicode="&#xfc;" horiz-adv-x="569" 
d="M226 -8q-86 0 -128.5 48t-26.5 154l49 307h61l-48 -303q-12 -81 13.5 -117.5t90.5 -36.5q74 0 122 47t60 125l45 285h61l-79 -501h-60l18 118h15q-28 -61 -79 -93.5t-114 -32.5zM390 616l11 72h74l-12 -72h-73zM223 616l11 72h73l-11 -72h-73z" />
    <glyph glyph-name="yacute" unicode="&#xfd;" horiz-adv-x="525" 
d="M-15 -227l-11 53q49 11 82.5 26.5t59 40.5t47.5 62l35 60l-3 -27l-138 513h65l118 -463h-24l262 463h68l-319 -549q-27 -46 -54 -76.5t-56 -51t-61.5 -32.5t-70.5 -19zM286 550l134 201h71l-158 -201h-47z" />
    <glyph glyph-name="thorn" unicode="&#xfe;" horiz-adv-x="591" 
d="M9 -216l151 952h61l-56 -359l-15 -1q27 62 79 98t124 36q70 0 116.5 -32t65 -92.5t4.5 -145.5q-19 -121 -88.5 -184.5t-167.5 -63.5q-69 0 -113.5 35.5t-55.5 97.5h11l-55 -341h-61zM281 44q76 0 128.5 52.5t68.5 153.5q17 101 -20.5 154.5t-116.5 53.5q-75 0 -129 -53
t-70 -153q-15 -102 23 -155t116 -53z" />
    <glyph glyph-name="ydieresis" unicode="&#xff;" horiz-adv-x="525" 
d="M-15 -227l-11 53q49 11 82.5 26.5t59 40.5t47.5 62l35 60l-3 -27l-138 513h65l118 -463h-24l262 463h68l-319 -549q-27 -46 -54 -76.5t-56 -51t-61.5 -32.5t-70.5 -19zM367 615l11 72h74l-12 -72h-73zM200 615l11 72h73l-11 -72h-73z" />
    <glyph glyph-name="Amacron" unicode="&#x100;" horiz-adv-x="728" 
d="M-14 0l419 705h56l200 -705h-62l-56 203l28 -15h-434l36 15l-119 -203h-68zM423 630l-234 -401l-21 12h388l-19 -12l-111 401h-3zM292 818l8 47h318l-8 -47h-318z" />
    <glyph glyph-name="amacron" unicode="&#x101;" horiz-adv-x="591" 
d="M239 -8q-69 0 -116 31.5t-66 92t-5 146.5q20 120 89.5 184t167.5 64q68 0 113.5 -35.5t54.5 -97.5l-11 -1l30 125h59q-7 -29 -14 -57t-11 -55l-62 -389h-61l20 126h15q-27 -63 -79 -98.5t-124 -35.5zM251 44q75 0 129 52.5t70 153.5t-22.5 154.5t-117.5 53.5
q-75 0 -128 -53t-69 -153q-16 -102 21.5 -155t116.5 -53zM206 629l8 46h288l-8 -46h-288z" />
    <glyph glyph-name="Abreve" unicode="&#x102;" horiz-adv-x="728" 
d="M-14 0l419 705h56l200 -705h-62l-56 203l28 -15h-434l36 15l-119 -203h-68zM423 630l-234 -401l-21 12h388l-19 -12l-111 401h-3zM446 760q-44 0 -78 20.5t-52.5 58t-18.5 89.5l42 5q-3 -61 28 -94.5t83 -33.5t87 33.5t44 94.5l42 -5q-13 -78 -61.5 -123t-115.5 -45z" />
    <glyph glyph-name="abreve" unicode="&#x103;" horiz-adv-x="591" 
d="M239 -8q-69 0 -116 31.5t-66 92t-5 146.5q20 120 89.5 184t167.5 64q68 0 113.5 -35.5t54.5 -97.5l-11 -1l30 125h59q-7 -29 -14 -57t-11 -55l-62 -389h-61l20 126h15q-27 -63 -79 -98.5t-124 -35.5zM251 44q75 0 129 52.5t70 153.5t-22.5 154.5t-117.5 53.5
q-75 0 -128 -53t-69 -153q-16 -102 21.5 -155t116.5 -53zM345 548q-42 0 -74 22.5t-48 65t-13 100.5l42 5q-3 -71 22.5 -109.5t72.5 -38.5q48 0 79 38.5t41 109.5l41 -5q-7 -58 -29 -100.5t-56 -65t-78 -22.5z" />
    <glyph glyph-name="Aogonek" unicode="&#x104;" horiz-adv-x="728" 
d="M-14 0l419 705h56l200 -705h-62l-56 203l28 -15h-434l36 15l-119 -203h-68zM423 630l-234 -401l-21 12h388l-19 -12l-111 401h-3zM619 -191q-44 0 -68 24.5t-24 63.5q0 45 29 81.5t74 55.5l22 -34q-39 -16 -58 -41.5t-19 -53.5q0 -24 13.5 -38.5t40.5 -14.5q12 0 25.5 3
t28.5 9l10 -40q-14 -5 -33.5 -10t-40.5 -5z" />
    <glyph glyph-name="aogonek" unicode="&#x105;" horiz-adv-x="591" 
d="M239 -8q-69 0 -116 31.5t-66 92t-5 146.5q20 120 89.5 184t167.5 64q68 0 113.5 -35.5t54.5 -97.5l-11 -1l30 125h59q-7 -29 -14 -57t-11 -55l-62 -389h-61l20 126h15q-27 -63 -79 -98.5t-124 -35.5zM251 44q75 0 129 52.5t70 153.5t-22.5 154.5t-117.5 53.5
q-75 0 -128 -53t-69 -153q-16 -102 21.5 -155t116.5 -53zM430 -191q-44 0 -68 24.5t-24 63.5q0 45 29 81.5t74 55.5l22 -34q-39 -16 -58 -41.5t-19 -53.5q0 -24 13.5 -38.5t40.5 -14.5q12 0 25.5 3t28.5 9l10 -40q-14 -5 -33.5 -10t-40.5 -5z" />
    <glyph glyph-name="Cacute" unicode="&#x106;" horiz-adv-x="684" 
d="M368 -8q-113 0 -182.5 46.5t-95 130.5t-8.5 195q18 112 68 190t127 119t177 40q73 0 128.5 -21t94.5 -63l-28 -52q-44 44 -89.5 61.5t-108.5 17.5q-125 0 -203 -79t-101 -222q-14 -92 4.5 -161t73.5 -107t146 -38q58 0 113.5 20t102.5 65l25 -49q-45 -46 -110.5 -69.5
t-133.5 -23.5zM446 765l131 171h74l-155 -171h-50z" />
    <glyph glyph-name="cacute" unicode="&#x107;" horiz-adv-x="491" 
d="M252 -8q-72 0 -122 31.5t-71 92t-7 146.5q20 120 90.5 184t174.5 64q47 0 89 -15.5t68 -46.5l-27 -43q-28 27 -62 39.5t-66 12.5q-80 0 -134.5 -52t-70.5 -151q-16 -101 23.5 -155.5t119.5 -54.5q37 0 76.5 14t73.5 46l25 -46q-32 -31 -82.5 -48.5t-97.5 -17.5zM308 550
l134 201h71l-158 -201h-47z" />
    <glyph glyph-name="Ccircumflex" unicode="&#x108;" horiz-adv-x="684" 
d="M368 -8q-113 0 -182.5 46.5t-95 130.5t-8.5 195q18 112 68 190t127 119t177 40q73 0 128.5 -21t94.5 -63l-28 -52q-44 44 -89.5 61.5t-108.5 17.5q-125 0 -203 -79t-101 -222q-14 -92 4.5 -161t73.5 -107t146 -38q58 0 113.5 20t102.5 65l25 -49q-45 -46 -110.5 -69.5
t-133.5 -23.5zM309 765l140 171h62l104 -171h-49l-89 126l-119 -126h-49z" />
    <glyph glyph-name="ccircumflex" unicode="&#x109;" horiz-adv-x="491" 
d="M252 -8q-72 0 -122 31.5t-71 92t-7 146.5q20 120 90.5 184t174.5 64q47 0 89 -15.5t68 -46.5l-27 -43q-28 27 -62 39.5t-66 12.5q-80 0 -134.5 -52t-70.5 -151q-16 -101 23.5 -155.5t119.5 -54.5q37 0 76.5 14t73.5 46l25 -46q-32 -31 -82.5 -48.5t-97.5 -17.5zM189 550
l131 201h62l88 -201h-45l-77 155l-113 -155h-46z" />
    <glyph glyph-name="Cdotaccent" unicode="&#x10a;" horiz-adv-x="684" 
d="M368 -8q-113 0 -182.5 46.5t-95 130.5t-8.5 195q18 112 68 190t127 119t177 40q73 0 128.5 -21t94.5 -63l-28 -52q-44 44 -89.5 61.5t-108.5 17.5q-125 0 -203 -79t-101 -222q-14 -92 4.5 -161t73.5 -107t146 -38q58 0 113.5 20t102.5 65l25 -49q-45 -46 -110.5 -69.5
t-133.5 -23.5zM440 813l12 75h76l-12 -75h-76z" />
    <glyph glyph-name="cdotaccent" unicode="&#x10b;" horiz-adv-x="491" 
d="M252 -8q-72 0 -122 31.5t-71 92t-7 146.5q20 120 90.5 184t174.5 64q47 0 89 -15.5t68 -46.5l-27 -43q-28 27 -62 39.5t-66 12.5q-80 0 -134.5 -52t-70.5 -151q-16 -101 23.5 -155.5t119.5 -54.5q37 0 76.5 14t73.5 46l25 -46q-32 -31 -82.5 -48.5t-97.5 -17.5zM302 614
l13 75h77l-12 -75h-78z" />
    <glyph glyph-name="Ccaron" unicode="&#x10c;" horiz-adv-x="684" 
d="M368 -8q-113 0 -182.5 46.5t-95 130.5t-8.5 195q18 112 68 190t127 119t177 40q73 0 128.5 -21t94.5 -63l-28 -52q-44 44 -89.5 61.5t-108.5 17.5q-125 0 -203 -79t-101 -222q-14 -92 4.5 -161t73.5 -107t146 -38q58 0 113.5 20t102.5 65l25 -49q-45 -46 -110.5 -69.5
t-133.5 -23.5zM440 765l-105 171h48l88 -126l120 126h50l-140 -171h-61z" />
    <glyph glyph-name="ccaron" unicode="&#x10d;" horiz-adv-x="491" 
d="M252 -8q-72 0 -122 31.5t-71 92t-7 146.5q20 120 90.5 184t174.5 64q47 0 89 -15.5t68 -46.5l-27 -43q-28 27 -62 39.5t-66 12.5q-80 0 -134.5 -52t-70.5 -151q-16 -101 23.5 -155.5t119.5 -54.5q37 0 76.5 14t73.5 46l25 -46q-32 -31 -82.5 -48.5t-97.5 -17.5zM301 550
l-88 201h44l77 -155l113 155h47l-131 -201h-62z" />
    <glyph glyph-name="Dcaron" unicode="&#x10e;" horiz-adv-x="740" 
d="M53 0l112 705h217q121 0 194.5 -43t102 -124t10.5 -196q-28 -172 -133.5 -257t-278.5 -85h-224zM123 55h157q151 0 237 72.5t109 223.5q24 151 -38.5 225.5t-213.5 74.5h-157zM427 765l-105 171h48l88 -126l120 126h50l-140 -171h-61z" />
    <glyph glyph-name="dcaron" unicode="&#x10f;" horiz-adv-x="591" 
d="M239 -8q-69 0 -116 31.5t-66 92t-5 146.5q20 120 89.5 184t167.5 64q68 0 113.5 -35.5t54.5 -97.5h-10l57 359h61l-117 -736h-60l20 126h14q-27 -63 -79 -98.5t-124 -35.5zM251 44q75 0 129 52.5t70 153.5t-22.5 154.5t-117.5 53.5q-75 0 -128 -53t-69 -153
q-16 -102 21.5 -155t116.5 -53zM607 547l30 189h57l-53 -189h-34z" />
    <glyph glyph-name="Dcroat" unicode="&#x110;" horiz-adv-x="740" 
d="M53 0l112 705h217q121 0 194.5 -43t102 -124t10.5 -196q-28 -172 -133.5 -257t-278.5 -85h-224zM123 55h157q151 0 237 72.5t109 223.5q24 151 -38.5 225.5t-213.5 74.5h-157zM19 333l8 50h350l-8 -50h-350z" />
    <glyph glyph-name="dcroat" unicode="&#x111;" horiz-adv-x="591" 
d="M239 -8q-69 0 -116 31t-66 91.5t-5 145.5q20 120 89.5 183t167.5 63q68 0 113.5 -35.5t54.5 -97.5l-10 4l34 211h-196l8 49h195l16 99h61l-16 -99h96l-8 -49h-96l-93 -588h-60l20 126l14 -1q-27 -62 -79 -97.5t-124 -35.5zM251 44q75 0 129 52.5t70 151.5
q16 100 -22.5 153t-117.5 53q-75 0 -128 -52.5t-69 -151.5q-16 -101 21.5 -153.5t116.5 -52.5z" />
    <glyph glyph-name="Emacron" unicode="&#x112;" horiz-adv-x="585" 
d="M53 0l112 705h438l-9 -53h-378l-41 -268h355l-8 -53h-356l-44 -278h378l-9 -53h-438zM256 818l8 47h318l-8 -47h-318z" />
    <glyph glyph-name="emacron" unicode="&#x113;" horiz-adv-x="543" 
d="M268 -8q-80 0 -133 33t-74 94.5t-8 146.5q13 77 48.5 131.5t90 83.5t124.5 29q68 0 112 -29.5t62.5 -82t7.5 -122.5l-4 -28h-399l6 45h363l-18 -14q13 87 -20.5 134.5t-113.5 47.5q-58 0 -99.5 -25.5t-66.5 -69t-33 -99.5l-2 -19q-14 -99 27.5 -151.5t133.5 -52.5
q46 0 90 14t80 48l25 -45q-39 -33 -91.5 -51t-107.5 -18zM202 629l8 46h288l-8 -46h-288z" />
    <glyph glyph-name="Ebreve" unicode="&#x114;" horiz-adv-x="585" 
d="M53 0l112 705h438l-9 -53h-378l-41 -268h355l-8 -53h-356l-44 -278h378l-9 -53h-438zM410 760q-44 0 -78 20.5t-52.5 58t-18.5 89.5l42 5q-3 -61 28 -94.5t83 -33.5t87 33.5t44 94.5l42 -5q-13 -78 -61.5 -123t-115.5 -45z" />
    <glyph glyph-name="ebreve" unicode="&#x115;" horiz-adv-x="543" 
d="M268 -8q-80 0 -133 33t-74 94.5t-8 146.5q13 77 48.5 131.5t90 83.5t124.5 29q68 0 112 -29.5t62.5 -82t7.5 -122.5l-4 -28h-399l6 45h363l-18 -14q13 87 -20.5 134.5t-113.5 47.5q-58 0 -99.5 -25.5t-66.5 -69t-33 -99.5l-2 -19q-14 -99 27.5 -151.5t133.5 -52.5
q46 0 90 14t80 48l25 -45q-39 -33 -91.5 -51t-107.5 -18zM341 548q-42 0 -74 22.5t-48 65t-13 100.5l42 5q-3 -71 22.5 -109.5t72.5 -38.5q48 0 79 38.5t41 109.5l41 -5q-7 -58 -29 -100.5t-56 -65t-78 -22.5z" />
    <glyph glyph-name="Edotaccent" unicode="&#x116;" horiz-adv-x="585" 
d="M53 0l112 705h438l-9 -53h-378l-41 -268h355l-8 -53h-356l-44 -278h378l-9 -53h-438zM376 813l12 75h76l-12 -75h-76z" />
    <glyph glyph-name="edotaccent" unicode="&#x117;" horiz-adv-x="543" 
d="M268 -8q-80 0 -133 33t-74 94.5t-8 146.5q13 77 48.5 131.5t90 83.5t124.5 29q68 0 112 -29.5t62.5 -82t7.5 -122.5l-4 -28h-399l6 45h363l-18 -14q13 87 -20.5 134.5t-113.5 47.5q-58 0 -99.5 -25.5t-66.5 -69t-33 -99.5l-2 -19q-14 -99 27.5 -151.5t133.5 -52.5
q46 0 90 14t80 48l25 -45q-39 -33 -91.5 -51t-107.5 -18zM304 614l13 75h77l-12 -75h-78z" />
    <glyph glyph-name="Eogonek" unicode="&#x118;" horiz-adv-x="585" 
d="M53 0l112 705h438l-9 -53h-378l-41 -268h355l-8 -53h-356l-44 -278h378l-9 -53h-438zM429 -191q-44 0 -68 24.5t-24 63.5q0 45 29 81.5t74 55.5l22 -34q-39 -16 -58 -41.5t-19 -53.5q0 -24 13.5 -38.5t40.5 -14.5q12 0 25.5 3t28.5 9l10 -40q-14 -5 -33.5 -10t-40.5 -5z
" />
    <glyph glyph-name="eogonek" unicode="&#x119;" horiz-adv-x="543" 
d="M268 -8q-80 0 -133 33t-74 94.5t-8 146.5q13 77 48.5 131.5t90 83.5t124.5 29q68 0 112 -29.5t62.5 -82t7.5 -122.5l-4 -28h-399l6 45h363l-18 -14q13 87 -20.5 134.5t-113.5 47.5q-58 0 -99.5 -25.5t-66.5 -69t-33 -99.5l-2 -19q-14 -99 27.5 -151.5t133.5 -52.5
q46 0 90 14t80 48l25 -45q-39 -33 -91.5 -51t-107.5 -18zM289 -191q-44 0 -68 24.5t-24 63.5q0 45 29 81.5t74 55.5l22 -34q-39 -16 -58 -41.5t-19 -53.5q0 -24 13.5 -38.5t40.5 -14.5q12 0 25.5 3t28.5 9l10 -40q-14 -5 -33.5 -10t-40.5 -5z" />
    <glyph glyph-name="Ecaron" unicode="&#x11a;" horiz-adv-x="585" 
d="M53 0l112 705h438l-9 -53h-378l-41 -268h355l-8 -53h-356l-44 -278h378l-9 -53h-438zM377 765l-105 171h48l88 -126l120 126h50l-140 -171h-61z" />
    <glyph glyph-name="ecaron" unicode="&#x11b;" horiz-adv-x="543" 
d="M268 -8q-80 0 -133 33t-74 94.5t-8 146.5q13 77 48.5 131.5t90 83.5t124.5 29q68 0 112 -29.5t62.5 -82t7.5 -122.5l-4 -28h-399l6 45h363l-18 -14q13 87 -20.5 134.5t-113.5 47.5q-58 0 -99.5 -25.5t-66.5 -69t-33 -99.5l-2 -19q-14 -99 27.5 -151.5t133.5 -52.5
q46 0 90 14t80 48l25 -45q-39 -33 -91.5 -51t-107.5 -18zM302 550l-88 201h44l77 -155l113 155h47l-131 -201h-62z" />
    <glyph glyph-name="Gcircumflex" unicode="&#x11c;" horiz-adv-x="727" 
d="M376 -8q-118 0 -189 45t-96.5 129t-7.5 198q18 112 69 189.5t130.5 118.5t183.5 41q77 0 130 -21t91 -59l-30 -52q-40 40 -83.5 57.5t-111.5 17.5q-129 0 -211 -79.5t-104 -223.5q-23 -143 32.5 -224t199.5 -81q54 0 102.5 10.5t95.5 31.5l-22 -43l41 264h-187l9 52h242
l-51 -319q-28 -16 -67.5 -27.5t-82.5 -18t-83 -6.5zM316 765l140 171h62l104 -171h-49l-89 126l-119 -126h-49z" />
    <glyph glyph-name="gcircumflex" unicode="&#x11d;" horiz-adv-x="595" 
d="M226 -223q-62 0 -113 17t-89 51l25 47q28 -23 55.5 -36.5t58.5 -20t68 -6.5q76 0 121.5 40.5t57.5 116.5l25 159h12q-25 -62 -79.5 -98t-124.5 -36q-68 0 -115 33t-66.5 92t-7.5 136q18 114 88 176t170 62q70 0 115.5 -35.5t53.5 -99.5l-8 11l28 115h59q-8 -29 -15 -57
t-11 -55l-62 -394q-17 -108 -79 -163t-167 -55zM253 63q78 0 131.5 52t68.5 145q15 94 -22.5 146t-115.5 52t-132 -52t-69 -145q-15 -94 23 -146t116 -52zM206 550l131 201h62l88 -201h-45l-77 155l-113 -155h-46z" />
    <glyph glyph-name="Gbreve" unicode="&#x11e;" horiz-adv-x="727" 
d="M376 -8q-118 0 -189 45t-96.5 129t-7.5 198q18 112 69 189.5t130.5 118.5t183.5 41q77 0 130 -21t91 -59l-30 -52q-40 40 -83.5 57.5t-111.5 17.5q-129 0 -211 -79.5t-104 -223.5q-23 -143 32.5 -224t199.5 -81q54 0 102.5 10.5t95.5 31.5l-22 -43l41 264h-187l9 52h242
l-51 -319q-28 -16 -67.5 -27.5t-82.5 -18t-83 -6.5zM480 760q-44 0 -78 20.5t-52.5 58t-18.5 89.5l42 5q-3 -61 28 -94.5t83 -33.5t87 33.5t44 94.5l42 -5q-13 -78 -61.5 -123t-115.5 -45z" />
    <glyph glyph-name="gbreve" unicode="&#x11f;" horiz-adv-x="595" 
d="M226 -223q-62 0 -113 17t-89 51l25 47q28 -23 55.5 -36.5t58.5 -20t68 -6.5q76 0 121.5 40.5t57.5 116.5l25 159h12q-25 -62 -79.5 -98t-124.5 -36q-68 0 -115 33t-66.5 92t-7.5 136q18 114 88 176t170 62q70 0 115.5 -35.5t53.5 -99.5l-8 11l28 115h59q-8 -29 -15 -57
t-11 -55l-62 -394q-17 -108 -79 -163t-167 -55zM253 63q78 0 131.5 52t68.5 145q15 94 -22.5 146t-115.5 52t-132 -52t-69 -145q-15 -94 23 -146t116 -52zM356 548q-42 0 -74 22.5t-48 65t-13 100.5l42 5q-3 -71 22.5 -109.5t72.5 -38.5q48 0 79 38.5t41 109.5l41 -5
q-7 -58 -29 -100.5t-56 -65t-78 -22.5z" />
    <glyph glyph-name="Gdotaccent" unicode="&#x120;" horiz-adv-x="727" 
d="M376 -8q-118 0 -189 45t-96.5 129t-7.5 198q18 112 69 189.5t130.5 118.5t183.5 41q77 0 130 -21t91 -59l-30 -52q-40 40 -83.5 57.5t-111.5 17.5q-129 0 -211 -79.5t-104 -223.5q-23 -143 32.5 -224t199.5 -81q54 0 102.5 10.5t95.5 31.5l-22 -43l41 264h-187l9 52h242
l-51 -319q-28 -16 -67.5 -27.5t-82.5 -18t-83 -6.5zM446 813l12 75h76l-12 -75h-76z" />
    <glyph glyph-name="gdotaccent" unicode="&#x121;" horiz-adv-x="595" 
d="M226 -223q-62 0 -113 17t-89 51l25 47q28 -23 55.5 -36.5t58.5 -20t68 -6.5q76 0 121.5 40.5t57.5 116.5l25 159h12q-25 -62 -79.5 -98t-124.5 -36q-68 0 -115 33t-66.5 92t-7.5 136q18 114 88 176t170 62q70 0 115.5 -35.5t53.5 -99.5l-8 11l28 115h59q-8 -29 -15 -57
t-11 -55l-62 -394q-17 -108 -79 -163t-167 -55zM253 63q78 0 131.5 52t68.5 145q15 94 -22.5 146t-115.5 52t-132 -52t-69 -145q-15 -94 23 -146t116 -52zM318 614l13 75h77l-12 -75h-78z" />
    <glyph glyph-name="uni0122" unicode="&#x122;" horiz-adv-x="727" 
d="M376 -8q-118 0 -189 45t-96.5 129t-7.5 198q18 112 69 189.5t130.5 118.5t183.5 41q77 0 130 -21t91 -59l-30 -52q-40 40 -83.5 57.5t-111.5 17.5q-129 0 -211 -79.5t-104 -223.5q-23 -143 32.5 -224t199.5 -81q54 0 102.5 10.5t95.5 31.5l-22 -43l41 264h-187l9 52h242
l-51 -319q-28 -16 -67.5 -27.5t-82.5 -18t-83 -6.5zM322 -263l-24 25q27 22 35.5 42.5t12.5 47.5l16 -8h-60l13 73h84l-11 -64q-6 -38 -21 -66.5t-45 -49.5z" />
    <glyph glyph-name="uni0123" unicode="&#x123;" horiz-adv-x="595" 
d="M226 -223q-62 0 -113 17t-89 51l25 47q28 -23 55.5 -36.5t58.5 -20t68 -6.5q76 0 121.5 40.5t57.5 116.5l25 159h12q-25 -62 -79.5 -98t-124.5 -36q-68 0 -115 33t-66.5 92t-7.5 136q18 114 88 176t170 62q70 0 115.5 -35.5t53.5 -99.5l-8 11l28 115h59q-8 -29 -15 -57
t-11 -55l-62 -394q-17 -108 -79 -163t-167 -55zM253 63q78 0 131.5 52t68.5 145q15 94 -22.5 146t-115.5 52t-132 -52t-69 -145q-15 -94 23 -146t116 -52zM309 569l10 64q7 38 21.5 66.5t44.5 49.5l24 -25q-26 -22 -34.5 -42.5t-13.5 -48.5l-16 9h60l-12 -73h-84z" />
    <glyph glyph-name="Hcircumflex" unicode="&#x124;" horiz-adv-x="762" 
d="M53 0l112 705h62l-51 -320h453l51 320h62l-112 -705h-62l53 330h-454l-52 -330h-62zM302 765l140 171h62l104 -171h-49l-89 126l-119 -126h-49z" />
    <glyph glyph-name="hcircumflex" unicode="&#x125;" horiz-adv-x="578" 
d="M43 0l117 736h61l-56 -351h-14q30 61 83.5 93t122.5 32q93 0 128.5 -52.5t20.5 -149.5l-49 -308h-61l49 306q13 82 -13.5 116.5t-92.5 34.5q-77 0 -126.5 -46t-62.5 -122l-46 -289h-61zM215 769l140 171h62l104 -171h-49l-89 126l-119 -126h-49z" />
    <glyph glyph-name="Hbar" unicode="&#x126;" horiz-adv-x="779" 
d="M62 0l82 523h-95l8 51h95l22 131h62l-22 -131h452l22 131h62l-22 -131h95l-8 -51h-95l-82 -523h-62l52 327h-452l-52 -327h-62zM185 382h451l22 141h-452z" />
    <glyph glyph-name="hbar" unicode="&#x127;" horiz-adv-x="578" 
d="M43 0l94 588h-98l8 49h98l15 99h61l-15 -99h201l-8 -49h-201l-33 -206h-14q30 61 83.5 93t122.5 32q93 0 128.5 -52.5t19.5 -149.5l-48 -305h-61l48 304q14 81 -12.5 116t-93.5 35q-76 0 -126 -46t-62 -122l-46 -287h-61z" />
    <glyph glyph-name="Itilde" unicode="&#x128;" horiz-adv-x="247" 
d="M53 0l112 705h62l-112 -705h-62zM41 787l-39 3q11 61 42.5 94t77.5 33q30 0 55 -14t48 -31q20 -14 38 -25t37 -11q58 0 78 84l39 -3q-11 -61 -42 -94t-77 -33q-30 0 -55.5 14.5t-48.5 30.5q-19 14 -38 25t-37 11q-58 0 -78 -84z" />
    <glyph glyph-name="itilde" unicode="&#x129;" horiz-adv-x="228" 
d="M43 0l80 501h61l-80 -501h-61zM32 592l-39 3q11 61 39 94t71 33q26 0 43.5 -14t32.5 -30q14 -15 28 -26t30 -11q52 0 70 84l39 -3q-10 -61 -38.5 -94t-70.5 -33q-25 0 -44 14.5t-34 30.5q-13 14 -26.5 25t-30.5 11q-52 0 -70 -84z" />
    <glyph glyph-name="Imacron" unicode="&#x12a;" horiz-adv-x="247" 
d="M53 0l112 705h62l-112 -705h-62zM54 818l8 47h318l-8 -47h-318z" />
    <glyph glyph-name="imacron" unicode="&#x12b;" horiz-adv-x="228" 
d="M43 0l80 501h61l-80 -501h-61zM30 629l8 46h288l-8 -46h-288z" />
    <glyph glyph-name="Ibreve" unicode="&#x12c;" horiz-adv-x="247" 
d="M53 0l112 705h62l-112 -705h-62zM208 760q-44 0 -78 20.5t-52.5 58t-18.5 89.5l42 5q-3 -61 28 -94.5t83 -33.5t87 33.5t44 94.5l42 -5q-13 -78 -61.5 -123t-115.5 -45z" />
    <glyph glyph-name="ibreve" unicode="&#x12d;" horiz-adv-x="228" 
d="M43 0l80 501h61l-80 -501h-61zM170 548q-42 0 -74 22.5t-48 65t-13 100.5l42 5q-3 -71 22.5 -109.5t72.5 -38.5q48 0 79 38.5t41 109.5l41 -5q-7 -58 -29 -100.5t-56 -65t-78 -22.5z" />
    <glyph glyph-name="Iogonek" unicode="&#x12e;" horiz-adv-x="247" 
d="M53 0l112 705h62l-112 -705h-62zM75 -191q-44 0 -68 24.5t-24 63.5q0 45 29 81.5t74 55.5l22 -34q-39 -16 -58 -41.5t-19 -53.5q0 -24 13.5 -38.5t40.5 -14.5q12 0 25.5 3t28.5 9l10 -40q-14 -5 -33.5 -10t-40.5 -5z" />
    <glyph glyph-name="iogonek" unicode="&#x12f;" horiz-adv-x="228" 
d="M43 0l80 501h61l-80 -501h-61zM132 624l12 76h82l-12 -76h-82zM67 -191q-44 0 -68 24.5t-24 63.5q0 45 29 81.5t74 55.5l22 -34q-39 -16 -58 -41.5t-19 -53.5q0 -24 13.5 -38.5t40.5 -14.5q12 0 25.5 3t28.5 9l10 -40q-14 -5 -33.5 -10t-40.5 -5z" />
    <glyph glyph-name="Idotaccent" unicode="&#x130;" horiz-adv-x="247" 
d="M53 0l112 705h62l-112 -705h-62zM174 813l12 75h76l-12 -75h-76z" />
    <glyph glyph-name="dotlessi" unicode="&#x131;" horiz-adv-x="228" 
d="M43 0l80 501h61l-80 -501h-61z" />
    <glyph glyph-name="IJ" unicode="&#x132;" horiz-adv-x="561" 
d="M53 0l112 705h62l-112 -705h-62zM252 -186q-16 0 -35 2t-38 9l9 53q18 -7 33.5 -9t29.5 -2q46 0 75 29t39 92l114 717h62l-115 -721q-9 -55 -31 -93t-57.5 -57.5t-85.5 -19.5z" />
    <glyph glyph-name="Jcircumflex" unicode="&#x134;" horiz-adv-x="314" 
d="M5 -186q-16 0 -35 2t-38 9l9 53q18 -7 33.5 -9t29.5 -2q46 0 75 29t39 92l114 717h62l-115 -721q-9 -55 -31 -93t-57.5 -57.5t-85.5 -19.5zM111 765l140 171h62l104 -171h-49l-89 126l-119 -126h-49z" />
    <glyph glyph-name="jcircumflex" unicode="&#x135;" horiz-adv-x="228" 
d="M-64 -219q-12 0 -31 3.5t-32 8.5l10 53q11 -4 26.5 -7.5t28.5 -3.5q45 0 70.5 28.5t34.5 91.5l87 546h61l-88 -554q-13 -82 -55 -124t-112 -42zM26 550l131 201h62l88 -201h-45l-77 155l-113 -155h-46z" />
    <glyph glyph-name="uni0136" unicode="&#x136;" horiz-adv-x="619" 
d="M53 0l112 705h62l-52 -324h2l400 324h87l-452 -363l-1 36l370 -378h-82l-329 335h-2l-53 -335h-62zM228 -263l-24 25q27 22 35.5 42.5t12.5 47.5l16 -8h-60l13 73h84l-11 -64q-6 -38 -21 -66.5t-45 -49.5z" />
    <glyph glyph-name="uni0137" unicode="&#x137;" horiz-adv-x="498" 
d="M43 0l117 736h61l-73 -462h2l278 227h84l-322 -261v37l272 -277h-78l-239 241h-2l-39 -241h-61zM161 -263l-24 25q27 22 35.5 42.5t12.5 47.5l16 -8h-60l13 73h84l-11 -64q-6 -38 -21 -66.5t-45 -49.5z" />
    <glyph glyph-name="kgreenlandic" unicode="&#x138;" horiz-adv-x="498" 
d="M43 0l80 501h61l-36 -227h2l278 227h84l-322 -261v37l272 -277h-78l-239 241h-2l-39 -241h-61z" />
    <glyph glyph-name="Lacute" unicode="&#x139;" horiz-adv-x="538" 
d="M53 0l112 705h62l-104 -650h368l-9 -55h-429zM180 765l131 171h74l-155 -171h-50z" />
    <glyph glyph-name="lacute" unicode="&#x13a;" horiz-adv-x="228" 
d="M43 0l117 736h61l-117 -736h-61zM171 769l131 171h74l-155 -171h-50z" />
    <glyph glyph-name="uni013B" unicode="&#x13b;" horiz-adv-x="538" 
d="M53 0l112 705h62l-104 -650h368l-9 -55h-429zM218 -263l-24 25q27 22 35.5 42.5t12.5 47.5l16 -8h-60l13 73h84l-11 -64q-6 -38 -21 -66.5t-45 -49.5z" />
    <glyph glyph-name="uni013C" unicode="&#x13c;" horiz-adv-x="228" 
d="M43 0l117 736h61l-117 -736h-61zM27 -263l-24 25q27 22 35.5 42.5t12.5 47.5l16 -8h-60l13 73h84l-11 -64q-6 -38 -21 -66.5t-45 -49.5z" />
    <glyph glyph-name="Lcaron" unicode="&#x13d;" horiz-adv-x="538" 
d="M53 0l112 705h62l-104 -650h368l-9 -55h-429zM306 484l35 221h60l-55 -221h-40z" />
    <glyph glyph-name="lcaron" unicode="&#x13e;" horiz-adv-x="228" 
d="M43 0l117 736h61l-117 -736h-61zM241 547l30 189h57l-53 -189h-34z" />
    <glyph glyph-name="Ldot" unicode="&#x13f;" horiz-adv-x="538" 
d="M53 0l112 705h62l-104 -650h368l-9 -55h-429zM366 347l13 81h85l-13 -81h-85z" />
    <glyph glyph-name="ldot" unicode="&#x140;" horiz-adv-x="228" 
d="M43 0l117 736h61l-117 -736h-61zM209 316l13 81h85l-13 -81h-85z" />
    <glyph glyph-name="Lslash" unicode="&#x141;" horiz-adv-x="538" 
d="M53 0l112 705h62l-104 -650h368l-9 -55h-429zM20 283l-23 46l358 166l22 -46z" />
    <glyph glyph-name="lslash" unicode="&#x142;" horiz-adv-x="228" 
d="M43 0l117 736h61l-117 -736h-61zM15 274l-23 47l261 124l22 -48z" />
    <glyph glyph-name="Nacute" unicode="&#x143;" horiz-adv-x="743" 
d="M53 0l112 705h50l367 -634l-17 2l100 632h57l-112 -705h-49l-367 634l16 -2l-100 -632h-57zM429 765l131 171h74l-155 -171h-50z" />
    <glyph glyph-name="nacute" unicode="&#x144;" horiz-adv-x="578" 
d="M43 0l62 389q4 27 6.5 55t3.5 57h59l-9 -115l-14 -1q30 61 83.5 93t122.5 32q93 0 128.5 -52.5t20.5 -149.5l-49 -308h-61l49 306q13 82 -13.5 116.5t-92.5 34.5q-77 0 -126.5 -46t-62.5 -122l-46 -289h-61zM312 550l134 201h71l-158 -201h-47z" />
    <glyph glyph-name="uni0145" unicode="&#x145;" horiz-adv-x="743" 
d="M53 0l112 705h50l367 -634l-17 2l100 632h57l-112 -705h-49l-367 634l16 -2l-100 -632h-57zM285 -263l-24 25q27 22 35.5 42.5t12.5 47.5l16 -8h-60l13 73h84l-11 -64q-6 -38 -21 -66.5t-45 -49.5z" />
    <glyph glyph-name="uni0146" unicode="&#x146;" horiz-adv-x="578" 
d="M43 0l62 389q4 27 6.5 55t3.5 57h59l-9 -115l-14 -1q30 61 83.5 93t122.5 32q93 0 128.5 -52.5t20.5 -149.5l-49 -308h-61l49 306q13 82 -13.5 116.5t-92.5 34.5q-77 0 -126.5 -46t-62.5 -122l-46 -289h-61zM201 -263l-24 25q27 22 35.5 42.5t12.5 47.5l16 -8h-60l13 73
h84l-11 -64q-6 -38 -21 -66.5t-45 -49.5z" />
    <glyph glyph-name="Ncaron" unicode="&#x147;" horiz-adv-x="743" 
d="M53 0l112 705h50l367 -634l-17 2l100 632h57l-112 -705h-49l-367 634l16 -2l-100 -632h-57zM424 765l-105 171h48l88 -126l120 126h50l-140 -171h-61z" />
    <glyph glyph-name="ncaron" unicode="&#x148;" horiz-adv-x="578" 
d="M43 0l62 389q4 27 6.5 55t3.5 57h59l-9 -115l-14 -1q30 61 83.5 93t122.5 32q93 0 128.5 -52.5t20.5 -149.5l-49 -308h-61l49 306q13 82 -13.5 116.5t-92.5 34.5q-77 0 -126.5 -46t-62.5 -122l-46 -289h-61zM305 550l-88 201h44l77 -155l113 155h47l-131 -201h-62z" />
    <glyph glyph-name="napostrophe" unicode="&#x149;" horiz-adv-x="668" 
d="M167 573l-28 23q25 23 34 43.5t12 39.5l20 -8h-61l13 78h83l-11 -63q-5 -34 -18.5 -60.5t-43.5 -52.5zM134 0l62 389q4 27 6.5 55t3.5 57h59l-9 -115l-14 -1q30 61 83.5 93t122.5 32q93 0 128.5 -52.5t20.5 -149.5l-49 -308h-61l49 306q13 82 -13.5 116.5t-92.5 34.5
q-77 0 -126.5 -46t-62.5 -122l-46 -289h-61z" />
    <glyph glyph-name="Eng" unicode="&#x14a;" horiz-adv-x="743" 
d="M376 -193l4 50l45 4q52 3 84 34t41 86l8 51l3 -32l-367 634l16 -2l-100 -632h-57l112 705h50l367 -634l-17 2l100 632h57l-114 -720q-8 -54 -32.5 -92t-62.5 -59t-91 -24z" />
    <glyph glyph-name="eng" unicode="&#x14b;" horiz-adv-x="578" 
d="M43 0l62 389q4 27 6.5 55t3.5 57h59l-9 -115l-14 -1q30 61 83.5 93t122.5 32q93 0 128.5 -52.5t20.5 -149.5l-57 -356q-14 -82 -59.5 -126.5t-120.5 -44.5q-17 0 -33.5 3.5t-28.5 8.5l9 53q11 -4 23.5 -7.5t31.5 -3.5q50 0 79.5 31.5t39.5 93.5l55 346q13 82 -13.5 116.5
t-92.5 34.5q-77 0 -126.5 -46t-62.5 -122l-46 -289h-61z" />
    <glyph glyph-name="Omacron" unicode="&#x14c;" horiz-adv-x="765" 
d="M83 364q18 112 67 190t125 118.5t173 40.5q103 0 168.5 -46.5t90.5 -130.5t7 -195q-17 -111 -66.5 -189t-125.5 -119t-174 -41q-102 0 -167 46.5t-90 130.5t-8 195zM147 354q-15 -95 4 -163t70.5 -105.5t131.5 -37.5q123 0 199 80t99 223q15 94 -5 163t-71 106t-131 37
q-123 0 -198.5 -79.5t-98.5 -223.5zM313 818l8 47h318l-8 -47h-318z" />
    <glyph glyph-name="omacron" unicode="&#x14d;" horiz-adv-x="562" 
d="M246 -8q-72 0 -120.5 31t-67.5 92t-6 147q13 80 49.5 135.5t91 84t122.5 28.5q73 0 120.5 -31.5t67.5 -92t6 -146.5q-13 -81 -50 -136t-91 -83.5t-122 -28.5zM251 44q74 0 128 52.5t70 153.5t-22.5 154.5t-116.5 53.5q-75 0 -128 -53t-69 -153q-16 -102 21 -155t117 -53z
M198 629l8 46h288l-8 -46h-288z" />
    <glyph glyph-name="Obreve" unicode="&#x14e;" horiz-adv-x="765" 
d="M83 364q18 112 67 190t125 118.5t173 40.5q103 0 168.5 -46.5t90.5 -130.5t7 -195q-17 -111 -66.5 -189t-125.5 -119t-174 -41q-102 0 -167 46.5t-90 130.5t-8 195zM147 354q-15 -95 4 -163t70.5 -105.5t131.5 -37.5q123 0 199 80t99 223q15 94 -5 163t-71 106t-131 37
q-123 0 -198.5 -79.5t-98.5 -223.5zM467 760q-44 0 -78 20.5t-52.5 58t-18.5 89.5l42 5q-3 -61 28 -94.5t83 -33.5t87 33.5t44 94.5l42 -5q-13 -78 -61.5 -123t-115.5 -45z" />
    <glyph glyph-name="obreve" unicode="&#x14f;" horiz-adv-x="562" 
d="M246 -8q-72 0 -120.5 31t-67.5 92t-6 147q13 80 49.5 135.5t91 84t122.5 28.5q73 0 120.5 -31.5t67.5 -92t6 -146.5q-13 -81 -50 -136t-91 -83.5t-122 -28.5zM251 44q74 0 128 52.5t70 153.5t-22.5 154.5t-116.5 53.5q-75 0 -128 -53t-69 -153q-16 -102 21 -155t117 -53z
M337 548q-42 0 -74 22.5t-48 65t-13 100.5l42 5q-3 -71 22.5 -109.5t72.5 -38.5q48 0 79 38.5t41 109.5l41 -5q-7 -58 -29 -100.5t-56 -65t-78 -22.5z" />
    <glyph glyph-name="Ohungarumlaut" unicode="&#x150;" horiz-adv-x="765" 
d="M83 364q18 112 67 190t125 118.5t173 40.5q103 0 168.5 -46.5t90.5 -130.5t7 -195q-17 -111 -66.5 -189t-125.5 -119t-174 -41q-102 0 -167 46.5t-90 130.5t-8 195zM147 354q-15 -95 4 -163t70.5 -105.5t131.5 -37.5q123 0 199 80t99 223q15 94 -5 163t-71 106t-131 37
q-123 0 -198.5 -79.5t-98.5 -223.5zM387 765l100 171h66l-129 -171h-37zM504 765l102 171h66l-131 -171h-37z" />
    <glyph glyph-name="ohungarumlaut" unicode="&#x151;" horiz-adv-x="562" 
d="M246 -8q-72 0 -120.5 31t-67.5 92t-6 147q13 80 49.5 135.5t91 84t122.5 28.5q73 0 120.5 -31.5t67.5 -92t6 -146.5q-13 -81 -50 -136t-91 -83.5t-122 -28.5zM251 44q74 0 128 52.5t70 153.5t-22.5 154.5t-116.5 53.5q-75 0 -128 -53t-69 -153q-16 -102 21 -155t117 -53z
M370 550l74 201h61l-99 -201h-36zM252 550l74 201h61l-99 -201h-36z" />
    <glyph glyph-name="OE" unicode="&#x152;" horiz-adv-x="1057" 
d="M526 0l112 705h437l-9 -53h-377l-41 -268h356l-9 -53h-356l-44 -278h376l-8 -53h-437zM343 -8q-102 0 -166 46.5t-87.5 130.5t-6.5 195q18 112 66.5 190t124 118.5t171.5 40.5q64 0 116 -20.5t84 -64.5l-12 -76q-25 50 -73.5 77.5t-115.5 27.5q-123 0 -199 -79.5
t-98 -223.5q-15 -93 2.5 -162t68.5 -106.5t132 -37.5q69 0 124 26.5t95 76.5l-12 -80q-44 -40 -97 -59.5t-117 -19.5z" />
    <glyph glyph-name="oe" unicode="&#x153;" horiz-adv-x="935" 
d="M246 -8q-72 0 -120.5 31t-68 92t-5.5 147q13 80 49.5 135.5t91 84t122.5 28.5q82 0 130.5 -43t56.5 -123h-22q22 57 58.5 94t81.5 54.5t92 17.5q65 0 108 -29t61 -80t9 -119l-4 -34h-394l7 45h357l-19 -14q13 87 -20 134.5t-109 47.5q-55 0 -96 -25.5t-66 -69t-33 -99.5
l-2 -19q-14 -99 27 -151.5t130 -52.5q43 0 86 14t80 48l25 -45q-37 -33 -90 -51t-105 -18q-89 0 -141 42t-65 119l21 3q-32 -79 -91.5 -121.5t-141.5 -42.5zM251 44q74 0 128.5 52.5t69.5 153.5q16 101 -22.5 154.5t-116.5 53.5q-75 0 -127.5 -53t-69.5 -153
q-16 -102 21 -155t117 -53z" />
    <glyph glyph-name="Racute" unicode="&#x154;" horiz-adv-x="688" 
d="M53 0l112 705h272q113 0 165.5 -54t37.5 -151q-9 -57 -42.5 -97.5t-85 -61.5t-113.5 -21l7 11h13q41 0 68.5 -20t41.5 -66l72 -245h-66l-67 234q-14 50 -47 65t-89 15h-168l-49 -314h-62zM172 366h219q80 0 128 36.5t58 101.5q12 73 -27 110.5t-124 37.5h-209zM399 765
l131 171h74l-155 -171h-50z" />
    <glyph glyph-name="racute" unicode="&#x155;" horiz-adv-x="349" 
d="M42 0l60 384q5 29 8.5 58.5t4.5 58.5h59l-9 -115l-12 -1q16 42 45 69.5t65.5 41.5t73.5 14q13 0 24 -1.5t22 -3.5l-11 -56q-11 4 -23 5t-26 1q-47 0 -83.5 -20t-59 -53.5t-28.5 -73.5l-49 -308h-61zM239 550l134 201h71l-158 -201h-47z" />
    <glyph glyph-name="uni0156" unicode="&#x156;" horiz-adv-x="688" 
d="M53 0l112 705h272q113 0 165.5 -54t37.5 -151q-9 -57 -42.5 -97.5t-85 -61.5t-113.5 -21l7 11h13q41 0 68.5 -20t41.5 -66l72 -245h-66l-67 234q-14 50 -47 65t-89 15h-168l-49 -314h-62zM172 366h219q80 0 128 36.5t58 101.5q12 73 -27 110.5t-124 37.5h-209zM254 -263
l-24 25q27 22 35.5 42.5t12.5 47.5l16 -8h-60l13 73h84l-11 -64q-6 -38 -21 -66.5t-45 -49.5z" />
    <glyph glyph-name="uni0157" unicode="&#x157;" horiz-adv-x="349" 
d="M42 0l60 384q5 29 8.5 58.5t4.5 58.5h59l-9 -115l-12 -1q16 42 45 69.5t65.5 41.5t73.5 14q13 0 24 -1.5t22 -3.5l-11 -56q-11 4 -23 5t-26 1q-47 0 -83.5 -20t-59 -53.5t-28.5 -73.5l-49 -308h-61zM25 -263l-24 25q27 22 35.5 42.5t12.5 47.5l16 -8h-60l13 73h84
l-11 -64q-6 -38 -21 -66.5t-45 -49.5z" />
    <glyph glyph-name="Rcaron" unicode="&#x158;" horiz-adv-x="688" 
d="M53 0l112 705h272q113 0 165.5 -54t37.5 -151q-9 -57 -42.5 -97.5t-85 -61.5t-113.5 -21l7 11h13q41 0 68.5 -20t41.5 -66l72 -245h-66l-67 234q-14 50 -47 65t-89 15h-168l-49 -314h-62zM172 366h219q80 0 128 36.5t58 101.5q12 73 -27 110.5t-124 37.5h-209zM393 765
l-105 171h48l88 -126l120 126h50l-140 -171h-61z" />
    <glyph glyph-name="rcaron" unicode="&#x159;" horiz-adv-x="349" 
d="M42 0l60 384q5 29 8.5 58.5t4.5 58.5h59l-9 -115l-12 -1q16 42 45 69.5t65.5 41.5t73.5 14q13 0 24 -1.5t22 -3.5l-11 -56q-11 4 -23 5t-26 1q-47 0 -83.5 -20t-59 -53.5t-28.5 -73.5l-49 -308h-61zM232 550l-88 201h44l77 -155l113 155h47l-131 -201h-62z" />
    <glyph glyph-name="Sacute" unicode="&#x15a;" horiz-adv-x="613" 
d="M283 -8q-86 0 -150 21t-108 52l29 51q50 -32 102 -50t129 -18q92 0 144 36t61 94q9 54 -19.5 86.5t-105.5 42.5l-90 13q-99 14 -141 66t-29 132q9 57 45.5 101t96.5 69t138 25q73 0 130.5 -21.5t94.5 -54.5l-27 -51q-41 35 -89.5 53t-114.5 18q-89 0 -145.5 -39
t-66.5 -103q-9 -59 19.5 -93.5t106.5 -45.5l90 -13q100 -13 141 -60t28 -129q-8 -52 -43.5 -93.5t-93 -65t-132.5 -23.5zM374 765l131 171h74l-155 -171h-50z" />
    <glyph glyph-name="sacute" unicode="&#x15b;" horiz-adv-x="494" 
d="M211 -8q-54 0 -103 16t-77 41l26 46q32 -25 72 -39t86 -14q62 0 99.5 23.5t43.5 62.5q6 35 -13 57.5t-66 29.5l-67 11q-75 12 -103.5 52t-19.5 96q7 43 34.5 73t70 46.5t93.5 16.5q54 0 97.5 -15.5t67.5 -38.5l-27 -45q-26 23 -61.5 35.5t-76.5 12.5q-61 0 -96.5 -25
t-42.5 -64q-5 -36 11 -59.5t59 -30.5l70 -12q77 -13 107.5 -49.5t21.5 -91.5q-6 -40 -33 -71t-71 -47.5t-102 -16.5zM277 550l134 201h71l-158 -201h-47z" />
    <glyph glyph-name="Scircumflex" unicode="&#x15c;" horiz-adv-x="613" 
d="M283 -8q-86 0 -150 21t-108 52l29 51q50 -32 102 -50t129 -18q92 0 144 36t61 94q9 54 -19.5 86.5t-105.5 42.5l-90 13q-99 14 -141 66t-29 132q9 57 45.5 101t96.5 69t138 25q73 0 130.5 -21.5t94.5 -54.5l-27 -51q-41 35 -89.5 53t-114.5 18q-89 0 -145.5 -39
t-66.5 -103q-9 -59 19.5 -93.5t106.5 -45.5l90 -13q100 -13 141 -60t28 -129q-8 -52 -43.5 -93.5t-93 -65t-132.5 -23.5zM238 765l140 171h62l104 -171h-49l-89 126l-119 -126h-49z" />
    <glyph glyph-name="scircumflex" unicode="&#x15d;" horiz-adv-x="494" 
d="M211 -8q-54 0 -103 16t-77 41l26 46q32 -25 72 -39t86 -14q62 0 99.5 23.5t43.5 62.5q6 35 -13 57.5t-66 29.5l-67 11q-75 12 -103.5 52t-19.5 96q7 43 34.5 73t70 46.5t93.5 16.5q54 0 97.5 -15.5t67.5 -38.5l-27 -45q-26 23 -61.5 35.5t-76.5 12.5q-61 0 -96.5 -25
t-42.5 -64q-5 -36 11 -59.5t59 -30.5l70 -12q77 -13 107.5 -49.5t21.5 -91.5q-6 -40 -33 -71t-71 -47.5t-102 -16.5zM158 550l131 201h62l88 -201h-45l-77 155l-113 -155h-46z" />
    <glyph glyph-name="Scedilla" unicode="&#x15e;" horiz-adv-x="613" 
d="M283 -8q-86 0 -150 21t-108 52l29 51q50 -32 102 -50t129 -18q92 0 144 36t61 94q9 54 -19.5 86.5t-105.5 42.5l-90 13q-99 14 -141 66t-29 132q9 57 45.5 101t96.5 69t138 25q73 0 130.5 -21.5t94.5 -54.5l-27 -51q-41 35 -89.5 53t-114.5 18q-89 0 -145.5 -39
t-66.5 -103q-9 -59 19.5 -93.5t106.5 -45.5l90 -13q100 -13 141 -60t28 -129q-8 -52 -43.5 -93.5t-93 -65t-132.5 -23.5zM263 -191q-25 0 -46.5 5t-36.5 14l15 39q18 -9 33.5 -13t38.5 -4q28 0 46 11t18 31q0 13 -9 20.5t-26 7.5q-10 0 -21.5 -1.5t-28.5 -7.5l-14 14l30 95
h44l-24 -75l-21 4q12 3 24 5t22 2q31 0 51.5 -16t20.5 -45q0 -38 -33 -62t-83 -24z" />
    <glyph glyph-name="scedilla" unicode="&#x15f;" horiz-adv-x="494" 
d="M211 -8q-54 0 -103 16t-77 41l26 46q32 -25 72 -39t86 -14q62 0 99.5 23.5t43.5 62.5q6 35 -13 57.5t-66 29.5l-67 11q-75 12 -103.5 52t-19.5 96q7 43 34.5 73t70 46.5t93.5 16.5q54 0 97.5 -15.5t67.5 -38.5l-27 -45q-26 23 -61.5 35.5t-76.5 12.5q-61 0 -96.5 -25
t-42.5 -64q-5 -36 11 -59.5t59 -30.5l70 -12q77 -13 107.5 -49.5t21.5 -91.5q-6 -40 -33 -71t-71 -47.5t-102 -16.5zM186 -191q-25 0 -46.5 5t-36.5 14l15 39q18 -9 33.5 -13t38.5 -4q28 0 46 11t18 31q0 13 -9 20.5t-26 7.5q-10 0 -21.5 -1.5t-28.5 -7.5l-14 14l30 95h44
l-24 -75l-21 4q12 3 24 5t22 2q31 0 51.5 -16t20.5 -45q0 -38 -33 -62t-83 -24z" />
    <glyph glyph-name="Scaron" unicode="&#x160;" horiz-adv-x="613" 
d="M283 -8q-86 0 -150 21t-108 52l29 51q50 -32 102 -50t129 -18q92 0 144 36t61 94q9 54 -19.5 86.5t-105.5 42.5l-90 13q-99 14 -141 66t-29 132q9 57 45.5 101t96.5 69t138 25q73 0 130.5 -21.5t94.5 -54.5l-27 -51q-41 35 -89.5 53t-114.5 18q-89 0 -145.5 -39
t-66.5 -103q-9 -59 19.5 -93.5t106.5 -45.5l90 -13q100 -13 141 -60t28 -129q-8 -52 -43.5 -93.5t-93 -65t-132.5 -23.5zM369 765l-105 171h48l88 -126l120 126h50l-140 -171h-61z" />
    <glyph glyph-name="scaron" unicode="&#x161;" horiz-adv-x="494" 
d="M211 -8q-54 0 -103 16t-77 41l26 46q32 -25 72 -39t86 -14q62 0 99.5 23.5t43.5 62.5q6 35 -13 57.5t-66 29.5l-67 11q-75 12 -103.5 52t-19.5 96q7 43 34.5 73t70 46.5t93.5 16.5q54 0 97.5 -15.5t67.5 -38.5l-27 -45q-26 23 -61.5 35.5t-76.5 12.5q-61 0 -96.5 -25
t-42.5 -64q-5 -36 11 -59.5t59 -30.5l70 -12q77 -13 107.5 -49.5t21.5 -91.5q-6 -40 -33 -71t-71 -47.5t-102 -16.5zM270 550l-88 201h44l77 -155l113 155h47l-131 -201h-62z" />
    <glyph glyph-name="uni0162" unicode="&#x162;" horiz-adv-x="597" 
d="M226 0l102 651h-255l9 54h573l-9 -54h-256l-102 -651h-62zM240 -191q-25 0 -46.5 5t-36.5 14l15 39q18 -9 33.5 -13t38.5 -4q28 0 46 11t18 31q0 13 -9 20.5t-26 7.5q-10 0 -21.5 -1.5t-28.5 -7.5l-14 14l30 95h44l-24 -75l-21 4q12 3 24 5t22 2q31 0 51.5 -16t20.5 -45
q0 -38 -33 -62t-83 -24z" />
    <glyph glyph-name="uni0163" unicode="&#x163;" horiz-adv-x="337" 
d="M213 -8q-74 0 -104.5 40.5t-17.5 122.5l47 297h-100l9 49h99l22 140l64 20l-25 -160h148l-8 -49h-148l-45 -287q-10 -62 6 -91t60 -29q19 0 35 4t28 9l-8 -54q-14 -5 -29 -8.5t-33 -3.5zM159 -191q-25 0 -46.5 5t-36.5 14l15 39q18 -9 33.5 -13t38.5 -4q28 0 46 11t18 31
q0 13 -9 20.5t-26 7.5q-10 0 -21.5 -1.5t-28.5 -7.5l-14 14l30 95h44l-24 -75l-21 4q12 3 24 5t22 2q31 0 51.5 -16t20.5 -45q0 -38 -33 -62t-83 -24z" />
    <glyph glyph-name="Tcaron" unicode="&#x164;" horiz-adv-x="597" 
d="M226 0l102 651h-255l9 54h573l-9 -54h-256l-102 -651h-62zM350 765l-105 171h48l88 -126l120 126h50l-140 -171h-61z" />
    <glyph glyph-name="tcaron" unicode="&#x165;" horiz-adv-x="337" 
d="M213 -8q-74 0 -104.5 40.5t-17.5 122.5l47 297h-100l9 49h99l22 140l64 20l-25 -160h148l-8 -49h-148l-45 -287q-10 -62 6 -91t60 -29q19 0 35 4t28 9l-8 -54q-14 -5 -29 -8.5t-33 -3.5zM288 522l30 187h57l-53 -187h-34z" />
    <glyph glyph-name="Tbar" unicode="&#x166;" horiz-adv-x="597" 
d="M226 0l102 651h-255l9 54h573l-9 -54h-256l-102 -651h-62zM136 333l8 50h350l-8 -50h-350z" />
    <glyph glyph-name="tbar" unicode="&#x167;" horiz-adv-x="337" 
d="M213 -8q-74 0 -104.5 40.5t-17.5 122.5l47 297h-100l9 49h99l22 140l64 20l-25 -160h148l-8 -49h-148l-45 -287q-10 -62 6 -91t60 -29q19 0 35 4t28 9l-8 -54q-14 -5 -29 -8.5t-33 -3.5zM34 255l8 45h259l-7 -45h-260z" />
    <glyph glyph-name="Utilde" unicode="&#x168;" horiz-adv-x="726" 
d="M331 -8q-91 0 -149.5 31.5t-81.5 95t-8 156.5l68 430h62l-68 -426q-18 -116 23.5 -173.5t158.5 -57.5q102 0 164 53.5t82 177.5l67 426h62l-69 -432q-15 -98 -55.5 -160.5t-105 -91.5t-150.5 -29zM281 787l-39 3q11 61 42.5 94t77.5 33q30 0 55 -14t48 -31q20 -14 38 -25
t37 -11q58 0 78 84l39 -3q-11 -61 -42 -94t-77 -33q-30 0 -55.5 14.5t-48.5 30.5q-19 14 -38 25t-37 11q-58 0 -78 -84z" />
    <glyph glyph-name="utilde" unicode="&#x169;" horiz-adv-x="569" 
d="M226 -8q-86 0 -128.5 48t-26.5 154l49 307h61l-48 -303q-12 -81 13.5 -117.5t90.5 -36.5q74 0 122 47t60 125l45 285h61l-79 -501h-60l18 118h15q-28 -61 -79 -93.5t-114 -32.5zM203 593l-39 3q11 61 39 94t71 33q26 0 43.5 -14t32.5 -30q14 -15 28 -26t30 -11
q52 0 70 84l39 -3q-10 -61 -38.5 -94t-70.5 -33q-25 0 -44 14.5t-34 30.5q-13 14 -26.5 25t-30.5 11q-52 0 -70 -84z" />
    <glyph glyph-name="Umacron" unicode="&#x16a;" horiz-adv-x="726" 
d="M331 -8q-91 0 -149.5 31.5t-81.5 95t-8 156.5l68 430h62l-68 -426q-18 -116 23.5 -173.5t158.5 -57.5q102 0 164 53.5t82 177.5l67 426h62l-69 -432q-15 -98 -55.5 -160.5t-105 -91.5t-150.5 -29zM294 818l8 47h318l-8 -47h-318z" />
    <glyph glyph-name="umacron" unicode="&#x16b;" horiz-adv-x="569" 
d="M226 -8q-86 0 -128.5 48t-26.5 154l49 307h61l-48 -303q-12 -81 13.5 -117.5t90.5 -36.5q74 0 122 47t60 125l45 285h61l-79 -501h-60l18 118h15q-28 -61 -79 -93.5t-114 -32.5zM201 630l8 46h288l-8 -46h-288z" />
    <glyph glyph-name="Ubreve" unicode="&#x16c;" horiz-adv-x="726" 
d="M331 -8q-91 0 -149.5 31.5t-81.5 95t-8 156.5l68 430h62l-68 -426q-18 -116 23.5 -173.5t158.5 -57.5q102 0 164 53.5t82 177.5l67 426h62l-69 -432q-15 -98 -55.5 -160.5t-105 -91.5t-150.5 -29zM448 760q-44 0 -78 20.5t-52.5 58t-18.5 89.5l42 5q-3 -61 28 -94.5
t83 -33.5t87 33.5t44 94.5l42 -5q-13 -78 -61.5 -123t-115.5 -45z" />
    <glyph glyph-name="ubreve" unicode="&#x16d;" horiz-adv-x="569" 
d="M226 -8q-86 0 -128.5 48t-26.5 154l49 307h61l-48 -303q-12 -81 13.5 -117.5t90.5 -36.5q74 0 122 47t60 125l45 285h61l-79 -501h-60l18 118h15q-28 -61 -79 -93.5t-114 -32.5zM341 549q-42 0 -74 22.5t-48 65t-13 100.5l42 5q-3 -71 22.5 -109.5t72.5 -38.5
q48 0 79 38.5t41 109.5l41 -5q-7 -58 -29 -100.5t-56 -65t-78 -22.5z" />
    <glyph glyph-name="Uring" unicode="&#x16e;" horiz-adv-x="726" 
d="M331 -8q-91 0 -149.5 31.5t-81.5 95t-8 156.5l68 430h62l-68 -426q-18 -116 23.5 -173.5t158.5 -57.5q102 0 164 53.5t82 177.5l67 426h62l-69 -432q-15 -98 -55.5 -160.5t-105 -91.5t-150.5 -29zM461 759q-32 0 -58 15.5t-41.5 41t-15.5 56.5q0 32 15.5 57t41.5 40.5
t58 15.5q33 0 59 -15.5t41 -40.5t15 -57q0 -31 -15 -56.5t-41 -41t-59 -15.5zM461 797q34 0 54.5 21.5t20.5 53.5t-20.5 53.5t-54.5 21.5q-32 0 -53.5 -21.5t-21.5 -53.5t21.5 -53.5t53.5 -21.5z" />
    <glyph glyph-name="uring" unicode="&#x16f;" horiz-adv-x="569" 
d="M226 -8q-86 0 -128.5 48t-26.5 154l49 307h61l-48 -303q-12 -81 13.5 -117.5t90.5 -36.5q74 0 122 47t60 125l45 285h61l-79 -501h-60l18 118h15q-28 -61 -79 -93.5t-114 -32.5zM350 548q-31 0 -57.5 15t-42 41t-15.5 57t15.5 56.5t41.5 40.5t58 15q33 0 59 -15
t41.5 -40.5t15.5 -57.5q0 -30 -15.5 -56t-41.5 -41t-59 -15zM350 585q34 0 54.5 22t20.5 54t-20.5 53.5t-53.5 21.5t-54.5 -21.5t-21.5 -53.5t21.5 -54t53.5 -22z" />
    <glyph glyph-name="Uhungarumlaut" unicode="&#x170;" horiz-adv-x="726" 
d="M331 -8q-91 0 -149.5 31.5t-81.5 95t-8 156.5l68 430h62l-68 -426q-18 -116 23.5 -173.5t158.5 -57.5q102 0 164 53.5t82 177.5l67 426h62l-69 -432q-15 -98 -55.5 -160.5t-105 -91.5t-150.5 -29zM369 765l100 171h66l-129 -171h-37zM486 765l102 171h66l-131 -171h-37z
" />
    <glyph glyph-name="uhungarumlaut" unicode="&#x171;" horiz-adv-x="569" 
d="M226 -8q-86 0 -128.5 48t-26.5 154l49 307h61l-48 -303q-12 -81 13.5 -117.5t90.5 -36.5q74 0 122 47t60 125l45 285h61l-79 -501h-60l18 118h15q-28 -61 -79 -93.5t-114 -32.5zM373 551l74 201h61l-99 -201h-36zM255 551l74 201h61l-99 -201h-36z" />
    <glyph glyph-name="Uogonek" unicode="&#x172;" horiz-adv-x="726" 
d="M331 -8q-91 0 -149.5 31.5t-81.5 95t-8 156.5l68 430h62l-68 -426q-18 -116 23.5 -173.5t158.5 -57.5q102 0 164 53.5t82 177.5l67 426h62l-69 -432q-15 -98 -55.5 -160.5t-105 -91.5t-150.5 -29zM364 -191q-44 0 -68 24.5t-24 63.5q0 45 29 81.5t74 55.5l22 -34
q-39 -16 -58 -41.5t-19 -53.5q0 -24 13.5 -38.5t40.5 -14.5q12 0 25.5 3t28.5 9l10 -40q-14 -5 -33.5 -10t-40.5 -5z" />
    <glyph glyph-name="uogonek" unicode="&#x173;" horiz-adv-x="569" 
d="M226 -8q-86 0 -128.5 48t-26.5 154l49 307h61l-48 -303q-12 -81 13.5 -117.5t90.5 -36.5q74 0 122 47t60 125l45 285h61l-79 -501h-60l18 118h15q-28 -61 -79 -93.5t-114 -32.5zM406 -191q-44 0 -68 24.5t-24 63.5q0 45 29 81.5t74 55.5l22 -34q-39 -16 -58 -41.5
t-19 -53.5q0 -24 13.5 -38.5t40.5 -14.5q12 0 25.5 3t28.5 9l10 -40q-14 -5 -33.5 -10t-40.5 -5z" />
    <glyph glyph-name="Wcircumflex" unicode="&#x174;" horiz-adv-x="1108" 
d="M242 0l-132 705h62l120 -661h-32l340 661h52l118 -661h-29l335 661h66l-359 -705h-59l-116 642h20l-329 -642h-57zM475 765l140 171h62l104 -171h-49l-89 126l-119 -126h-49z" />
    <glyph glyph-name="wcircumflex" unicode="&#x175;" horiz-adv-x="863" 
d="M176 0l-102 501h63l88 -465h-26l241 465h60l91 -465h-26l236 465h66l-261 -501h-63l-94 471h36l-245 -471h-64zM337 550l131 201h62l88 -201h-45l-77 155l-113 -155h-46z" />
    <glyph glyph-name="Ycircumflex" unicode="&#x176;" horiz-adv-x="597" 
d="M227 0l52 328l7 -47l-219 424h68l184 -365h-18l300 365h73l-354 -425l21 48l-52 -328h-62zM219 765l140 171h62l104 -171h-49l-89 126l-119 -126h-49z" />
    <glyph glyph-name="ycircumflex" unicode="&#x177;" horiz-adv-x="525" 
d="M-15 -227l-11 53q49 11 82.5 26.5t59 40.5t47.5 62l35 60l-3 -27l-138 513h65l118 -463h-24l262 463h68l-319 -549q-27 -46 -54 -76.5t-56 -51t-61.5 -32.5t-70.5 -19zM167 550l131 201h62l88 -201h-45l-77 155l-113 -155h-46z" />
    <glyph glyph-name="Ydieresis" unicode="&#x178;" horiz-adv-x="597" 
d="M227 0l52 328l7 -47l-219 424h68l184 -365h-18l300 365h73l-354 -425l21 48l-52 -328h-62zM435 813l12 73h73l-12 -73h-73zM268 813l12 73h73l-12 -73h-73z" />
    <glyph glyph-name="Zacute" unicode="&#x179;" horiz-adv-x="590" 
d="M3 0l7 46l536 632l-5 -28h-436l10 55h499l-7 -45l-537 -632l4 27h447l-8 -55h-510zM355 765l131 171h74l-155 -171h-50z" />
    <glyph glyph-name="zacute" unicode="&#x17a;" horiz-adv-x="515" 
d="M10 0l7 42l412 427l-3 -17h-345l9 49h407l-7 -42l-413 -428l3 18h358l-9 -49h-419zM279 550l134 201h71l-158 -201h-47z" />
    <glyph glyph-name="Zdotaccent" unicode="&#x17b;" horiz-adv-x="590" 
d="M3 0l7 46l536 632l-5 -28h-436l10 55h499l-7 -45l-537 -632l4 27h447l-8 -55h-510zM349 813l12 75h76l-12 -75h-76z" />
    <glyph glyph-name="zdotaccent" unicode="&#x17c;" horiz-adv-x="515" 
d="M10 0l7 42l412 427l-3 -17h-345l9 49h407l-7 -42l-413 -428l3 18h358l-9 -49h-419zM273 614l13 75h77l-12 -75h-78z" />
    <glyph glyph-name="Zcaron" unicode="&#x17d;" horiz-adv-x="590" 
d="M3 0l7 46l536 632l-5 -28h-436l10 55h499l-7 -45l-537 -632l4 27h447l-8 -55h-510zM349 765l-105 171h48l88 -126l120 126h50l-140 -171h-61z" />
    <glyph glyph-name="zcaron" unicode="&#x17e;" horiz-adv-x="515" 
d="M10 0l7 42l412 427l-3 -17h-345l9 49h407l-7 -42l-413 -428l3 18h358l-9 -49h-419zM271 550l-88 201h44l77 -155l113 155h47l-131 -201h-62z" />
    <glyph glyph-name="uni0181" unicode="&#x181;" horiz-adv-x="793" 
d="M170 0l103 654h-36q-62 0 -94.5 -27.5t-42.5 -84.5l-7 -44h-55l7 46q14 81 64.5 121t146.5 40h302q107 0 158.5 -48.5t36.5 -140.5q-11 -70 -57.5 -111t-119.5 -55l2 14q76 -8 113 -57t26 -125q-15 -93 -83 -137.5t-182 -44.5h-282zM239 53h217q82 0 134.5 30.5
t63.5 98.5q10 56 -7 88t-52.5 46.5t-86.5 14.5h-226zM292 383h202q87 0 136.5 33.5t59.5 91.5q11 73 -25 109t-113 36h-219z" />
    <glyph glyph-name="uni018A" unicode="&#x18a;" horiz-adv-x="857" 
d="M170 0l103 654h-36q-62 0 -94.5 -27.5t-42.5 -84.5l-7 -44h-55l7 46q14 81 64 121t139 40h251q121 0 195 -43t102.5 -124t9.5 -196q-28 -172 -133.5 -257t-277.5 -85h-225zM240 55h157q151 0 237 72.5t109 223.5q24 151 -38.5 225.5t-213.5 74.5h-157z" />
    <glyph glyph-name="uni018F" unicode="&#x18f;" horiz-adv-x="743" 
d="M333 -8q-106 0 -167.5 44.5t-81.5 125.5t-4 189l6 31h558l-9 -53h-511l20 24q-14 -99 -2 -167t59 -103.5t135 -35.5q118 0 193.5 78.5t99.5 226.5q23 146 -32.5 225.5t-185.5 79.5q-74 0 -129 -19t-113 -63l-24 49q57 45 122.5 67t148.5 22q106 0 174 -44t94.5 -127
t8.5 -199q-17 -108 -65.5 -187t-123 -121.5t-171.5 -42.5z" />
    <glyph glyph-name="florin" unicode="&#x192;" horiz-adv-x="600" 
d="M-25 -188l8 51h44q46 0 79.5 24t57.5 87l172 468l13 -6h-139l8 49h146l-15 -13l35 98q24 65 73 104t126 39h43l-8 -53h-40q-49 0 -82 -23t-57 -87l-29 -78l-8 13h141l-8 -49h-154l19 7l-183 -489q-24 -64 -72.5 -103t-124.5 -39h-45z" />
    <glyph glyph-name="Ohorn" unicode="&#x1a0;" horiz-adv-x="765" 
d="M83 364q18 112 67 190t125 118.5t173 40.5q103 0 168.5 -46.5t90.5 -130.5t7 -195q-17 -111 -66.5 -189t-125.5 -119t-174 -41q-102 0 -167 46.5t-90 130.5t-8 195zM147 354q-15 -95 4 -163t70.5 -105.5t131.5 -37.5q123 0 199 80t99 223q15 94 -5 163t-71 106t-131 37
q-123 0 -198.5 -79.5t-98.5 -223.5zM550 661l-44 48q27 -2 47 -3t41 -1q46 0 72 12.5t40 39t21 65.5l2 14h56l-4 -24q-7 -48 -27.5 -82t-55 -51.5t-83.5 -17.5h-65z" />
    <glyph glyph-name="ohorn" unicode="&#x1a1;" horiz-adv-x="562" 
d="M246 -8q-72 0 -120.5 31t-67.5 92t-6 147q13 80 49.5 135.5t91 84t122.5 28.5q73 0 120.5 -31.5t67.5 -92t6 -146.5q-13 -81 -50 -136t-91 -83.5t-122 -28.5zM251 44q74 0 128 52.5t70 153.5t-22.5 154.5t-116.5 53.5q-75 0 -128 -53t-69 -153q-16 -102 21 -155t117 -53z
M392 457l-27 21l4 23q46 1 73 14t40.5 38.5t19.5 64.5l2 14h56l-4 -30q-10 -68 -52 -104.5t-112 -40.5z" />
    <glyph glyph-name="Uhorn" unicode="&#x1af;" horiz-adv-x="726" 
d="M331 -8q-91 0 -149.5 31.5t-81.5 95t-8 156.5l68 430h62l-68 -426q-18 -116 23.5 -173.5t158.5 -57.5q102 0 164 53.5t82 177.5l67 426h62l-69 -432q-15 -98 -55.5 -160.5t-105 -91.5t-150.5 -29zM688 661l-26 20l4 24q46 1 72.5 13.5t40.5 38.5t20 64l2 15h56l-4 -24
q-10 -69 -53 -108t-112 -43z" />
    <glyph glyph-name="uhorn" unicode="&#x1b0;" horiz-adv-x="569" 
d="M226 -8q-86 0 -128.5 48t-26.5 154l49 307h61l-48 -303q-12 -81 13.5 -117.5t90.5 -36.5q74 0 122 47t60 125l45 285h61l-79 -501h-60l18 118h15q-28 -61 -79 -93.5t-114 -32.5zM494 457l-27 21l4 23q46 1 73 14t40.5 38.5t19.5 64.5l2 14h56l-4 -30q-10 -68 -52 -104.5
t-112 -40.5z" />
    <glyph glyph-name="uni01B3" unicode="&#x1b3;" horiz-adv-x="597" 
d="M227 0l52 328l7 -47l-219 424h68l184 -365h-18l245 298q23 28 45.5 44t47.5 23.5t54 7.5q19 0 31.5 -2t25.5 -7l-8 -49q-10 4 -21.5 6t-25.5 2q-27 0 -51.5 -11.5t-47.5 -39.5l-276 -332l21 48l-52 -328h-62z" />
    <glyph glyph-name="uni01B4" unicode="&#x1b4;" horiz-adv-x="562" 
d="M-16 -227l-9 53q49 11 82.5 26.5t58.5 40.5t47 62l35 60l-3 -27l-138 513h65l118 -463h-24l206 365q22 38 44.5 61.5t50.5 34.5t64 11q18 0 30.5 -2t23.5 -6l-15 -50q-8 3 -18.5 4.5t-18.5 1.5q-34 0 -58 -17.5t-54 -68.5l-244 -420q-27 -46 -54 -76.5t-56 -51t-62 -32.5
t-71 -19z" />
    <glyph glyph-name="uni01C4" unicode="&#x1c4;" horiz-adv-x="1315" 
d="M53 0l112 705h217q121 0 194.5 -43t102 -124t10.5 -196q-28 -172 -133.5 -257t-278.5 -85h-224zM123 55h157q151 0 237 72.5t109 223.5q24 151 -38.5 225.5t-213.5 74.5h-157zM728 0l7 46l536 632l-5 -28h-436l10 55h499l-7 -45l-537 -632l4 27h447l-8 -55h-510z
M1074 765l-105 171h48l88 -126l120 126h50l-140 -171h-61z" />
    <glyph glyph-name="uni01C5" unicode="&#x1c5;" horiz-adv-x="1255" 
d="M53 0l112 705h217q121 0 194.5 -43t102 -124t10.5 -196q-28 -172 -133.5 -257t-278.5 -85h-224zM123 55h157q151 0 237 72.5t109 223.5q24 151 -38.5 225.5t-213.5 74.5h-157zM750 0l7 42l412 427l-3 -17h-345l9 49h407l-7 -42l-413 -428l3 18h358l-9 -49h-419zM1011 550
l-88 201h44l77 -155l113 155h47l-131 -201h-62z" />
    <glyph glyph-name="uni01C6" unicode="&#x1c6;" horiz-adv-x="1107" 
d="M239 -8q-69 0 -116 31.5t-66 92t-5 146.5q20 120 89.5 184t167.5 64q68 0 113.5 -35.5t54.5 -97.5h-10l57 359h61l-117 -736h-60l20 126h14q-27 -63 -79 -98.5t-124 -35.5zM251 44q75 0 129 52.5t70 153.5t-22.5 154.5t-117.5 53.5q-75 0 -128 -53t-69 -153
q-16 -102 21.5 -155t116.5 -53zM601 0l7 42l412 427l-3 -17h-345l9 49h407l-7 -42l-413 -428l3 18h358l-9 -49h-419zM863 550l-88 201h44l77 -155l113 155h47l-131 -201h-62z" />
    <glyph glyph-name="uni01C7" unicode="&#x1c7;" horiz-adv-x="893" 
d="M53 0l112 705h62l-104 -650h368l-9 -55h-429zM583 -186q-16 0 -35 2t-38 9l9 53q18 -7 33.5 -9t29.5 -2q46 0 75 29t39 92l114 717h62l-115 -721q-9 -55 -31 -93t-57.5 -57.5t-85.5 -19.5z" />
    <glyph glyph-name="uni01C8" unicode="&#x1c8;" horiz-adv-x="766" 
d="M53 0l112 705h62l-104 -650h368l-9 -55h-429zM474 -219q-12 0 -31 2.5t-32 9.5l9 53q12 -4 27.5 -7.5t28.5 -3.5q45 0 70.5 28.5t34.5 91.5l87 546h61l-89 -554q-12 -82 -54.5 -124t-111.5 -42zM677 624l12 76h81l-12 -76h-81z" />
    <glyph glyph-name="uni01C9" unicode="&#x1c9;" horiz-adv-x="455" 
d="M43 0l117 736h61l-117 -736h-61zM164 -219q-12 0 -31 2.5t-32 9.5l9 53q12 -4 27.5 -7.5t28.5 -3.5q45 0 70.5 28.5t34.5 91.5l87 546h61l-89 -554q-12 -82 -54.5 -124t-111.5 -42zM367 624l12 76h81l-12 -76h-81z" />
    <glyph glyph-name="uni01CA" unicode="&#x1ca;" horiz-adv-x="1057" 
d="M53 0l112 705h50l367 -634l-17 2l100 632h57l-112 -705h-49l-367 634l16 -2l-100 -632h-57zM748 -186q-16 0 -35 2t-38 9l9 53q18 -7 33.5 -9t29.5 -2q46 0 75 29t39 92l114 717h62l-115 -721q-9 -55 -31 -93t-57.5 -57.5t-85.5 -19.5z" />
    <glyph glyph-name="uni01CB" unicode="&#x1cb;" horiz-adv-x="971" 
d="M53 0l112 705h50l367 -634l-17 2l100 632h57l-112 -705h-49l-367 634l16 -2l-100 -632h-57zM679 -219q-12 0 -31 2.5t-32 9.5l9 53q12 -4 27.5 -7.5t28.5 -3.5q45 0 70.5 28.5t34.5 91.5l87 546h61l-89 -554q-12 -82 -54.5 -124t-111.5 -42zM882 624l12 76h81l-12 -76
h-81z" />
    <glyph glyph-name="uni01CC" unicode="&#x1cc;" horiz-adv-x="805" 
d="M43 0l62 389q4 27 6.5 55t3.5 57h59l-9 -115l-14 -1q30 61 83.5 93t122.5 32q93 0 128.5 -52.5t20.5 -149.5l-49 -308h-61l49 306q13 82 -13.5 116.5t-92.5 34.5q-77 0 -126.5 -46t-62.5 -122l-46 -289h-61zM514 -219q-12 0 -31 2.5t-32 9.5l9 53q12 -4 27.5 -7.5
t28.5 -3.5q45 0 70.5 28.5t34.5 91.5l87 546h61l-89 -554q-12 -82 -54.5 -124t-111.5 -42zM717 624l12 76h81l-12 -76h-81z" />
    <glyph glyph-name="uni01CD" unicode="&#x1cd;" horiz-adv-x="728" 
d="M-14 0l419 705h56l200 -705h-62l-56 203l28 -15h-434l36 15l-119 -203h-68zM423 630l-234 -401l-21 12h388l-19 -12l-111 401h-3zM413 765l-105 171h48l88 -126l120 126h50l-140 -171h-61z" />
    <glyph glyph-name="uni01CE" unicode="&#x1ce;" horiz-adv-x="591" 
d="M239 -8q-69 0 -116 31.5t-66 92t-5 146.5q20 120 89.5 184t167.5 64q68 0 113.5 -35.5t54.5 -97.5l-11 -1l30 125h59q-7 -29 -14 -57t-11 -55l-62 -389h-61l20 126h15q-27 -63 -79 -98.5t-124 -35.5zM251 44q75 0 129 52.5t70 153.5t-22.5 154.5t-117.5 53.5
q-75 0 -128 -53t-69 -153q-16 -102 21.5 -155t116.5 -53zM306 550l-88 201h44l77 -155l113 155h47l-131 -201h-62z" />
    <glyph glyph-name="uni01D4" unicode="&#x1d4;" horiz-adv-x="569" 
d="M226 -8q-86 0 -128.5 48t-26.5 154l49 307h61l-48 -303q-12 -81 13.5 -117.5t90.5 -36.5q74 0 122 47t60 125l45 285h61l-79 -501h-60l18 118h15q-28 -61 -79 -93.5t-114 -32.5zM302 551l-88 201h44l77 -155l113 155h47l-131 -201h-62z" />
    <glyph glyph-name="uni01E5" unicode="&#x1e5;" horiz-adv-x="595" 
d="M225 -223q-63 0 -113.5 17t-88.5 51l25 46q29 -23 56 -36.5t58 -20t68 -6.5q121 0 163 99l7 -9h-133l6 41h140l-11 -10q2 9 4.5 17.5t3.5 17.5l26 166h12q-26 -63 -80.5 -98t-123.5 -35t-116 32.5t-66 91t-7 134.5q12 75 47 127.5t89 80t120 27.5q70 0 116 -35.5
t54 -99.5l-8 11l28 115h59q-8 -29 -15 -57t-11 -55l-62 -394q-2 -12 -4.5 -23t-5.5 -22l-7 9h85l-7 -41h-91l12 8q-27 -74 -84.5 -111.5t-144.5 -37.5zM254 68q78 0 131 51.5t68 143.5t-23 143.5t-116 51.5q-77 0 -130.5 -51t-68.5 -143q-15 -93 23 -144.5t116 -51.5z" />
    <glyph glyph-name="Gcaron" unicode="&#x1e6;" horiz-adv-x="727" 
d="M376 -8q-118 0 -189 45t-96.5 129t-7.5 198q18 112 69 189.5t130.5 118.5t183.5 41q77 0 130 -21t91 -59l-30 -52q-40 40 -83.5 57.5t-111.5 17.5q-129 0 -211 -79.5t-104 -223.5q-23 -143 32.5 -224t199.5 -81q54 0 102.5 10.5t95.5 31.5l-22 -43l41 264h-187l9 52h242
l-51 -319q-28 -16 -67.5 -27.5t-82.5 -18t-83 -6.5zM447 765l-105 171h48l88 -126l120 126h50l-140 -171h-61z" />
    <glyph glyph-name="gcaron" unicode="&#x1e7;" horiz-adv-x="595" 
d="M226 -223q-62 0 -113 17t-89 51l25 47q28 -23 55.5 -36.5t58.5 -20t68 -6.5q76 0 121.5 40.5t57.5 116.5l25 159h12q-25 -62 -79.5 -98t-124.5 -36q-68 0 -115 33t-66.5 92t-7.5 136q18 114 88 176t170 62q70 0 115.5 -35.5t53.5 -99.5l-8 11l28 115h59q-8 -29 -15 -57
t-11 -55l-62 -394q-17 -108 -79 -163t-167 -55zM253 63q78 0 131.5 52t68.5 145q15 94 -22.5 146t-115.5 52t-132 -52t-69 -145q-15 -94 23 -146t116 -52zM317 550l-88 201h44l77 -155l113 155h47l-131 -201h-62z" />
    <glyph glyph-name="uni01E9" unicode="&#x1e9;" horiz-adv-x="498" 
d="M43 0l117 736h61l-73 -462h2l278 227h84l-322 -261v37l272 -277h-78l-239 241h-2l-39 -241h-61zM308 769l-105 171h48l88 -126l120 126h50l-140 -171h-61z" />
    <glyph glyph-name="uni01EA" unicode="&#x1ea;" horiz-adv-x="765" 
d="M83 364q18 112 67 190t125 118.5t173 40.5q103 0 168.5 -46.5t90.5 -130.5t7 -195q-17 -111 -66.5 -189t-125.5 -119t-174 -41q-102 0 -167 46.5t-90 130.5t-8 195zM147 354q-15 -95 4 -163t70.5 -105.5t131.5 -37.5q123 0 199 80t99 223q15 94 -5 163t-71 106t-131 37
q-123 0 -198.5 -79.5t-98.5 -223.5zM369 -191q-44 0 -68 24.5t-24 63.5q0 45 29 81.5t74 55.5l22 -34q-39 -16 -58 -41.5t-19 -53.5q0 -24 13.5 -38.5t40.5 -14.5q12 0 25.5 3t28.5 9l10 -40q-14 -5 -33.5 -10t-40.5 -5z" />
    <glyph glyph-name="uni01EB" unicode="&#x1eb;" horiz-adv-x="562" 
d="M246 -8q-72 0 -120.5 31t-67.5 92t-6 147q13 80 49.5 135.5t91 84t122.5 28.5q73 0 120.5 -31.5t67.5 -92t6 -146.5q-13 -81 -50 -136t-91 -83.5t-122 -28.5zM251 44q74 0 128 52.5t70 153.5t-22.5 154.5t-116.5 53.5q-75 0 -128 -53t-69 -153q-16 -102 21 -155t117 -53z
M264 -191q-44 0 -68 24.5t-24 63.5q0 45 29 81.5t74 55.5l22 -34q-39 -16 -58 -41.5t-19 -53.5q0 -24 13.5 -38.5t40.5 -14.5q12 0 25.5 3t28.5 9l10 -40q-14 -5 -33.5 -10t-40.5 -5z" />
    <glyph glyph-name="Aringacute" unicode="&#x1fa;" horiz-adv-x="728" 
d="M-14 0l419 705h56l200 -705h-62l-56 203l28 -15h-434l36 15l-119 -203h-68zM423 630l-234 -401l-21 12h388l-19 -12l-111 401h-3zM443 759q-31 0 -57 15t-41.5 40.5t-15.5 56.5t15.5 56t41.5 40t57 15q20 0 36.5 -5t30.5 -16l74 69h69l-115 -97q19 -27 19 -62
q0 -31 -15 -56.5t-40.5 -40.5t-58.5 -15zM443 795q34 0 54.5 22t20.5 54t-20.5 53.5t-54.5 21.5q-32 0 -53.5 -22t-21.5 -53q0 -32 21.5 -54t53.5 -22z" />
    <glyph glyph-name="aringacute" unicode="&#x1fb;" horiz-adv-x="591" 
d="M239 -8q-69 0 -116 31.5t-66 92t-5 146.5q20 120 89.5 184t167.5 64q68 0 113.5 -35.5t54.5 -97.5l-11 -1l30 125h59q-7 -29 -14 -57t-11 -55l-62 -389h-61l20 126h15q-27 -63 -79 -98.5t-124 -35.5zM251 44q75 0 129 52.5t70 153.5t-22.5 154.5t-117.5 53.5
q-75 0 -128 -53t-69 -153q-16 -102 21.5 -155t116.5 -53zM353 546q-32 0 -58 15t-41 40.5t-15 55.5q0 32 15 57t41 40t58 15q20 0 36.5 -5.5t30.5 -15.5l74 68h69l-115 -97q19 -27 19 -62q0 -30 -15 -55.5t-41 -40.5t-58 -15zM353 582q34 0 54.5 21.5t20.5 53.5t-20.5 53.5
t-54.5 21.5q-33 0 -54 -21.5t-21 -53.5t21 -53.5t54 -21.5z" />
    <glyph glyph-name="AEacute" unicode="&#x1fc;" horiz-adv-x="1001" 
d="M-34 0l538 705h515l-9 -53h-409l24 23l-20 -307l-15 16h357l-8 -53h-348l12 10l-20 -309l-5 21h338l-9 -53h-386l13 197l24 -9h-392l30 17l-156 -205h-74zM531 651l-320 -425l-9 15h345l-10 -15l27 425h-33zM572 765l131 171h74l-155 -171h-50z" />
    <glyph glyph-name="aeacute" unicode="&#x1fd;" horiz-adv-x="886" 
d="M210 -8q-56 0 -94.5 21.5t-55.5 58t-10 82.5q10 55 50 84.5t107.5 41t159.5 11.5h51l-6 -44h-51q-74 0 -128 -7.5t-85 -29t-38 -63.5q-7 -47 21.5 -76.5t85.5 -29.5q72 0 119.5 46.5t59.5 120.5l19 117q11 70 -18.5 101.5t-84.5 31.5q-50 0 -93 -12.5t-89 -41.5l-23 46
q29 19 62.5 32.5t70 20.5t72.5 7q81 0 118.5 -35.5t38.5 -98.5h-22q33 64 91 99t127 35q65 0 108.5 -29.5t61.5 -82t7 -122.5l-4 -28h-390l7 45h353l-17 -14q12 87 -21 134.5t-110 47.5q-55 0 -95.5 -25.5t-65.5 -69t-33 -99.5l-2 -19q-14 -99 27 -151.5t130 -52.5
q43 0 86 14t80 48l25 -45q-37 -33 -90.5 -51t-104.5 -18q-90 0 -142.5 42.5t-65.5 121.5h20q-27 -77 -83.5 -120.5t-135.5 -43.5zM460 550l134 201h71l-158 -201h-47z" />
    <glyph glyph-name="Oslashacute" unicode="&#x1fe;" horiz-adv-x="765" 
d="M83 364q18 112 67 190t125 118.5t173 40.5q103 0 168.5 -46.5t90.5 -130.5t7 -195q-17 -111 -66.5 -189t-125.5 -119t-174 -41q-102 0 -167 46.5t-90 130.5t-8 195zM147 354q-15 -95 4 -163t70.5 -105.5t131.5 -37.5q123 0 199 80t99 223q15 94 -5 163t-71 106t-131 37
q-123 0 -198.5 -79.5t-98.5 -223.5zM211 56l-63 -85l-41 29l63 86l24 29l375 505l19 30l64 84l41 -29l-64 -85l-23 -30l-375 -505zM439 765l131 171h74l-155 -171h-50z" />
    <glyph glyph-name="oslashacute" unicode="&#x1ff;" horiz-adv-x="562" 
d="M246 -8q-72 0 -120.5 31t-67.5 92t-6 147q13 80 49.5 135.5t91 84t122.5 28.5q73 0 120.5 -31.5t67.5 -92t6 -146.5q-13 -81 -50 -136t-91 -83.5t-122 -28.5zM251 44q76 0 130 52.5t70 153.5q17 101 -22 154.5t-119 53.5q-77 0 -130 -53t-69 -153q-16 -101 21 -154.5
t119 -53.5zM107 -28l-35 27l386 529l34 -26zM305 550l134 201h71l-158 -201h-47z" />
    <glyph glyph-name="uni0200" unicode="&#x200;" horiz-adv-x="728" 
d="M-14 0l419 705h56l200 -705h-62l-56 203l28 -15h-434l36 15l-119 -203h-68zM423 630l-234 -401l-21 12h388l-19 -12l-111 401h-3zM484 765l-100 171h65l72 -171h-37zM367 765l-102 171h65l74 -171h-37z" />
    <glyph glyph-name="uni0201" unicode="&#x201;" horiz-adv-x="591" 
d="M239 -8q-69 0 -116 31.5t-66 92t-5 146.5q20 120 89.5 184t167.5 64q68 0 113.5 -35.5t54.5 -97.5l-11 -1l30 125h59q-7 -29 -14 -57t-11 -55l-62 -389h-61l20 126h15q-27 -63 -79 -98.5t-124 -35.5zM251 44q75 0 129 52.5t70 153.5t-22.5 154.5t-117.5 53.5
q-75 0 -128 -53t-69 -153q-16 -102 21.5 -155t116.5 -53zM379 550l-63 201h60l39 -201h-36zM261 550l-64 201h61l39 -201h-36z" />
    <glyph glyph-name="uni0202" unicode="&#x202;" horiz-adv-x="728" 
d="M-14 0l419 705h56l200 -705h-62l-56 203l28 -15h-434l36 15l-119 -203h-68zM423 630l-234 -401l-21 12h388l-19 -12l-111 401h-3zM316 760l-42 5q13 78 61.5 123t115.5 45q45 0 79 -20.5t53 -58t17 -89.5l-42 -5q3 62 -27.5 95t-82.5 33t-87 -33t-45 -95z" />
    <glyph glyph-name="uni0203" unicode="&#x203;" horiz-adv-x="591" 
d="M239 -8q-69 0 -116 31.5t-66 92t-5 146.5q20 120 89.5 184t167.5 64q68 0 113.5 -35.5t54.5 -97.5l-11 -1l30 125h59q-7 -29 -14 -57t-11 -55l-62 -389h-61l20 126h15q-27 -63 -79 -98.5t-124 -35.5zM251 44q75 0 129 52.5t70 153.5t-22.5 154.5t-117.5 53.5
q-75 0 -128 -53t-69 -153q-16 -102 21.5 -155t116.5 -53zM223 548l-42 4q9 60 30.5 102t56 64.5t76.5 22.5q44 0 75 -23t47 -65t13 -101l-41 -4q4 70 -21.5 109t-73.5 39t-79.5 -39t-40.5 -109z" />
    <glyph glyph-name="uni0204" unicode="&#x204;" horiz-adv-x="585" 
d="M53 0l112 705h438l-9 -53h-378l-41 -268h355l-8 -53h-356l-44 -278h378l-9 -53h-438zM447 765l-100 171h65l72 -171h-37zM330 765l-102 171h65l74 -171h-37z" />
    <glyph glyph-name="uni0205" unicode="&#x205;" horiz-adv-x="543" 
d="M268 -8q-80 0 -133 33t-74 94.5t-8 146.5q13 77 48.5 131.5t90 83.5t124.5 29q68 0 112 -29.5t62.5 -82t7.5 -122.5l-4 -28h-399l6 45h363l-18 -14q13 87 -20.5 134.5t-113.5 47.5q-58 0 -99.5 -25.5t-66.5 -69t-33 -99.5l-2 -19q-14 -99 27.5 -151.5t133.5 -52.5
q46 0 90 14t80 48l25 -45q-39 -33 -91.5 -51t-107.5 -18zM375 550l-63 201h60l39 -201h-36zM257 550l-64 201h61l39 -201h-36z" />
    <glyph glyph-name="uni0206" unicode="&#x206;" horiz-adv-x="585" 
d="M53 0l112 705h438l-9 -53h-378l-41 -268h355l-8 -53h-356l-44 -278h378l-9 -53h-438zM280 760l-42 5q13 78 61.5 123t115.5 45q45 0 79 -20.5t53 -58t17 -89.5l-42 -5q3 62 -27.5 95t-82.5 33t-87 -33t-45 -95z" />
    <glyph glyph-name="uni0207" unicode="&#x207;" horiz-adv-x="543" 
d="M268 -8q-80 0 -133 33t-74 94.5t-8 146.5q13 77 48.5 131.5t90 83.5t124.5 29q68 0 112 -29.5t62.5 -82t7.5 -122.5l-4 -28h-399l6 45h363l-18 -14q13 87 -20.5 134.5t-113.5 47.5q-58 0 -99.5 -25.5t-66.5 -69t-33 -99.5l-2 -19q-14 -99 27.5 -151.5t133.5 -52.5
q46 0 90 14t80 48l25 -45q-39 -33 -91.5 -51t-107.5 -18zM219 548l-42 4q9 60 30.5 102t56 64.5t76.5 22.5q44 0 75 -23t47 -65t13 -101l-41 -4q4 70 -21.5 109t-73.5 39t-79.5 -39t-40.5 -109z" />
    <glyph glyph-name="uni0208" unicode="&#x208;" horiz-adv-x="247" 
d="M53 0l112 705h62l-112 -705h-62zM245 765l-100 171h65l72 -171h-37zM128 765l-102 171h65l74 -171h-37z" />
    <glyph glyph-name="uni0209" unicode="&#x209;" horiz-adv-x="228" 
d="M43 0l80 501h61l-80 -501h-61zM203 550l-63 201h60l39 -201h-36zM85 550l-64 201h61l39 -201h-36z" />
    <glyph glyph-name="uni020A" unicode="&#x20a;" horiz-adv-x="247" 
d="M53 0l112 705h62l-112 -705h-62zM78 760l-42 5q13 78 61.5 123t115.5 45q45 0 79 -20.5t53 -58t17 -89.5l-42 -5q3 62 -27.5 95t-82.5 33t-87 -33t-45 -95z" />
    <glyph glyph-name="uni020B" unicode="&#x20b;" horiz-adv-x="228" 
d="M43 0l80 501h61l-80 -501h-61zM47 548l-42 4q9 60 30.5 102t56 64.5t76.5 22.5q44 0 75 -23t47 -65t13 -101l-41 -4q4 70 -21.5 109t-73.5 39t-79.5 -39t-40.5 -109z" />
    <glyph glyph-name="uni020C" unicode="&#x20c;" horiz-adv-x="765" 
d="M83 364q18 112 67 190t125 118.5t173 40.5q103 0 168.5 -46.5t90.5 -130.5t7 -195q-17 -111 -66.5 -189t-125.5 -119t-174 -41q-102 0 -167 46.5t-90 130.5t-8 195zM147 354q-15 -95 4 -163t70.5 -105.5t131.5 -37.5q123 0 199 80t99 223q15 94 -5 163t-71 106t-131 37
q-123 0 -198.5 -79.5t-98.5 -223.5zM504 765l-100 171h65l72 -171h-37zM387 765l-102 171h65l74 -171h-37z" />
    <glyph glyph-name="uni020D" unicode="&#x20d;" horiz-adv-x="562" 
d="M246 -8q-72 0 -120.5 31t-67.5 92t-6 147q13 80 49.5 135.5t91 84t122.5 28.5q73 0 120.5 -31.5t67.5 -92t6 -146.5q-13 -81 -50 -136t-91 -83.5t-122 -28.5zM251 44q74 0 128 52.5t70 153.5t-22.5 154.5t-116.5 53.5q-75 0 -128 -53t-69 -153q-16 -102 21 -155t117 -53z
M371 550l-63 201h60l39 -201h-36zM253 550l-64 201h61l39 -201h-36z" />
    <glyph glyph-name="uni020E" unicode="&#x20e;" horiz-adv-x="765" 
d="M83 364q18 112 67 190t125 118.5t173 40.5q103 0 168.5 -46.5t90.5 -130.5t7 -195q-17 -111 -66.5 -189t-125.5 -119t-174 -41q-102 0 -167 46.5t-90 130.5t-8 195zM147 354q-15 -95 4 -163t70.5 -105.5t131.5 -37.5q123 0 199 80t99 223q15 94 -5 163t-71 106t-131 37
q-123 0 -198.5 -79.5t-98.5 -223.5zM337 760l-42 5q13 78 61.5 123t115.5 45q45 0 79 -20.5t53 -58t17 -89.5l-42 -5q3 62 -27.5 95t-82.5 33t-87 -33t-45 -95z" />
    <glyph glyph-name="uni020F" unicode="&#x20f;" horiz-adv-x="562" 
d="M246 -8q-72 0 -120.5 31t-67.5 92t-6 147q13 80 49.5 135.5t91 84t122.5 28.5q73 0 120.5 -31.5t67.5 -92t6 -146.5q-13 -81 -50 -136t-91 -83.5t-122 -28.5zM251 44q74 0 128 52.5t70 153.5t-22.5 154.5t-116.5 53.5q-75 0 -128 -53t-69 -153q-16 -102 21 -155t117 -53z
M215 548l-42 4q9 60 30.5 102t56 64.5t76.5 22.5q44 0 75 -23t47 -65t13 -101l-41 -4q4 70 -21.5 109t-73.5 39t-79.5 -39t-40.5 -109z" />
    <glyph glyph-name="uni0210" unicode="&#x210;" horiz-adv-x="688" 
d="M53 0l112 705h272q113 0 165.5 -54t37.5 -151q-9 -57 -42.5 -97.5t-85 -61.5t-113.5 -21l7 11h13q41 0 68.5 -20t41.5 -66l72 -245h-66l-67 234q-14 50 -47 65t-89 15h-168l-49 -314h-62zM172 366h219q80 0 128 36.5t58 101.5q12 73 -27 110.5t-124 37.5h-209zM464 765
l-100 171h65l72 -171h-37zM347 765l-102 171h65l74 -171h-37z" />
    <glyph glyph-name="uni0211" unicode="&#x211;" horiz-adv-x="349" 
d="M42 0l60 384q5 29 8.5 58.5t4.5 58.5h59l-9 -115l-12 -1q16 42 45 69.5t65.5 41.5t73.5 14q13 0 24 -1.5t22 -3.5l-11 -56q-11 4 -23 5t-26 1q-47 0 -83.5 -20t-59 -53.5t-28.5 -73.5l-49 -308h-61zM304 550l-63 201h60l39 -201h-36zM186 550l-64 201h61l39 -201h-36z
" />
    <glyph glyph-name="uni0212" unicode="&#x212;" horiz-adv-x="688" 
d="M53 0l112 705h272q113 0 165.5 -54t37.5 -151q-9 -57 -42.5 -97.5t-85 -61.5t-113.5 -21l7 11h13q41 0 68.5 -20t41.5 -66l72 -245h-66l-67 234q-14 50 -47 65t-89 15h-168l-49 -314h-62zM172 366h219q80 0 128 36.5t58 101.5q12 73 -27 110.5t-124 37.5h-209zM296 760
l-42 5q13 78 61.5 123t115.5 45q45 0 79 -20.5t53 -58t17 -89.5l-42 -5q3 62 -27.5 95t-82.5 33t-87 -33t-45 -95z" />
    <glyph glyph-name="uni0213" unicode="&#x213;" horiz-adv-x="349" 
d="M42 0l60 384q5 29 8.5 58.5t4.5 58.5h59l-9 -115l-12 -1q16 42 45 69.5t65.5 41.5t73.5 14q13 0 24 -1.5t22 -3.5l-11 -56q-11 4 -23 5t-26 1q-47 0 -83.5 -20t-59 -53.5t-28.5 -73.5l-49 -308h-61zM148 548l-42 4q9 60 30.5 102t56 64.5t76.5 22.5q44 0 75 -23t47 -65
t13 -101l-41 -4q4 70 -21.5 109t-73.5 39t-79.5 -39t-40.5 -109z" />
    <glyph glyph-name="uni0214" unicode="&#x214;" horiz-adv-x="726" 
d="M331 -8q-91 0 -149.5 31.5t-81.5 95t-8 156.5l68 430h62l-68 -426q-18 -116 23.5 -173.5t158.5 -57.5q102 0 164 53.5t82 177.5l67 426h62l-69 -432q-15 -98 -55.5 -160.5t-105 -91.5t-150.5 -29zM486 765l-100 171h65l72 -171h-37zM369 765l-102 171h65l74 -171h-37z
" />
    <glyph glyph-name="uni0215" unicode="&#x215;" horiz-adv-x="569" 
d="M226 -8q-86 0 -128.5 48t-26.5 154l49 307h61l-48 -303q-12 -81 13.5 -117.5t90.5 -36.5q74 0 122 47t60 125l45 285h61l-79 -501h-60l18 118h15q-28 -61 -79 -93.5t-114 -32.5zM374 551l-63 201h60l39 -201h-36zM256 551l-64 201h61l39 -201h-36z" />
    <glyph glyph-name="uni0216" unicode="&#x216;" horiz-adv-x="726" 
d="M331 -8q-91 0 -149.5 31.5t-81.5 95t-8 156.5l68 430h62l-68 -426q-18 -116 23.5 -173.5t158.5 -57.5q102 0 164 53.5t82 177.5l67 426h62l-69 -432q-15 -98 -55.5 -160.5t-105 -91.5t-150.5 -29zM318 760l-42 5q13 78 61.5 123t115.5 45q45 0 79 -20.5t53 -58t17 -89.5
l-42 -5q3 62 -27.5 95t-82.5 33t-87 -33t-45 -95z" />
    <glyph glyph-name="uni0217" unicode="&#x217;" horiz-adv-x="569" 
d="M226 -8q-86 0 -128.5 48t-26.5 154l49 307h61l-48 -303q-12 -81 13.5 -117.5t90.5 -36.5q74 0 122 47t60 125l45 285h61l-79 -501h-60l18 118h15q-28 -61 -79 -93.5t-114 -32.5zM218 549l-42 4q9 60 30.5 102t56 64.5t76.5 22.5q44 0 75 -23t47 -65t13 -101l-41 -4
q4 70 -21.5 109t-73.5 39t-79.5 -39t-40.5 -109z" />
    <glyph glyph-name="uni0218" unicode="&#x218;" horiz-adv-x="613" 
d="M283 -8q-86 0 -150 21t-108 52l29 51q50 -32 102 -50t129 -18q92 0 144 36t61 94q9 54 -19.5 86.5t-105.5 42.5l-90 13q-99 14 -141 66t-29 132q9 57 45.5 101t96.5 69t138 25q73 0 130.5 -21.5t94.5 -54.5l-27 -51q-41 35 -89.5 53t-114.5 18q-89 0 -145.5 -39
t-66.5 -103q-9 -59 19.5 -93.5t106.5 -45.5l90 -13q100 -13 141 -60t28 -129q-8 -52 -43.5 -93.5t-93 -65t-132.5 -23.5zM234 -263l-24 25q27 22 35.5 42.5t12.5 47.5l16 -8h-60l13 73h84l-11 -64q-6 -38 -21 -66.5t-45 -49.5z" />
    <glyph glyph-name="uni0219" unicode="&#x219;" horiz-adv-x="494" 
d="M211 -8q-54 0 -103 16t-77 41l26 46q32 -25 72 -39t86 -14q62 0 99.5 23.5t43.5 62.5q6 35 -13 57.5t-66 29.5l-67 11q-75 12 -103.5 52t-19.5 96q7 43 34.5 73t70 46.5t93.5 16.5q54 0 97.5 -15.5t67.5 -38.5l-27 -45q-26 23 -61.5 35.5t-76.5 12.5q-61 0 -96.5 -25
t-42.5 -64q-5 -36 11 -59.5t59 -30.5l70 -12q77 -13 107.5 -49.5t21.5 -91.5q-6 -40 -33 -71t-71 -47.5t-102 -16.5zM157 -263l-24 25q27 22 35.5 42.5t12.5 47.5l16 -8h-60l13 73h84l-11 -64q-6 -38 -21 -66.5t-45 -49.5z" />
    <glyph glyph-name="uni021A" unicode="&#x21a;" horiz-adv-x="597" 
d="M226 0l102 651h-255l9 54h573l-9 -54h-256l-102 -651h-62zM211 -263l-24 25q27 22 35.5 42.5t12.5 47.5l16 -8h-60l13 73h84l-11 -64q-6 -38 -21 -66.5t-45 -49.5z" />
    <glyph glyph-name="uni021B" unicode="&#x21b;" horiz-adv-x="337" 
d="M213 -8q-74 0 -104.5 40.5t-17.5 122.5l47 297h-100l9 49h99l22 140l64 20l-25 -160h148l-8 -49h-148l-45 -287q-10 -62 6 -91t60 -29q19 0 35 4t28 9l-8 -54q-14 -5 -29 -8.5t-33 -3.5zM130 -263l-24 25q27 22 35.5 42.5t12.5 47.5l16 -8h-60l13 73h84l-11 -64
q-6 -38 -21 -66.5t-45 -49.5z" />
    <glyph glyph-name="uni021F" unicode="&#x21f;" horiz-adv-x="578" 
d="M43 0l117 736h61l-56 -351h-14q30 61 83.5 93t122.5 32q93 0 128.5 -52.5t20.5 -149.5l-49 -308h-61l49 306q13 82 -13.5 116.5t-92.5 34.5q-77 0 -126.5 -46t-62.5 -122l-46 -289h-61zM346 769l-105 171h48l88 -126l120 126h50l-140 -171h-61z" />
    <glyph glyph-name="uni0226" unicode="&#x226;" horiz-adv-x="728" 
d="M-14 0l419 705h56l200 -705h-62l-56 203l28 -15h-434l36 15l-119 -203h-68zM423 630l-234 -401l-21 12h388l-19 -12l-111 401h-3zM412 813l12 75h76l-12 -75h-76z" />
    <glyph glyph-name="uni0227" unicode="&#x227;" horiz-adv-x="591" 
d="M239 -8q-69 0 -116 31.5t-66 92t-5 146.5q20 120 89.5 184t167.5 64q68 0 113.5 -35.5t54.5 -97.5l-11 -1l30 125h59q-7 -29 -14 -57t-11 -55l-62 -389h-61l20 126h15q-27 -63 -79 -98.5t-124 -35.5zM251 44q75 0 129 52.5t70 153.5t-22.5 154.5t-117.5 53.5
q-75 0 -128 -53t-69 -153q-16 -102 21.5 -155t116.5 -53zM308 614l13 75h77l-12 -75h-78z" />
    <glyph glyph-name="uni0228" unicode="&#x228;" horiz-adv-x="585" 
d="M53 0l112 705h438l-9 -53h-378l-41 -268h355l-8 -53h-356l-44 -278h378l-9 -53h-438zM267 -191q-25 0 -46.5 5t-36.5 14l15 39q18 -9 33.5 -13t38.5 -4q28 0 46 11t18 31q0 13 -9 20.5t-26 7.5q-10 0 -21.5 -1.5t-28.5 -7.5l-14 14l30 95h44l-24 -75l-21 4q12 3 24 5
t22 2q31 0 51.5 -16t20.5 -45q0 -38 -33 -62t-83 -24z" />
    <glyph glyph-name="uni022A" unicode="&#x22a;" horiz-adv-x="765" 
d="M83 364q18 112 67 190t125 118.5t173 40.5q103 0 168.5 -46.5t90.5 -130.5t7 -195q-17 -111 -66.5 -189t-125.5 -119t-174 -41q-102 0 -167 46.5t-90 130.5t-8 195zM147 354q-15 -95 4 -163t70.5 -105.5t131.5 -37.5q123 0 199 80t99 223q15 94 -5 163t-71 106t-131 37
q-123 0 -198.5 -79.5t-98.5 -223.5zM345 926l7 47h288l-7 -47h-288zM349 802l11 66h73l-11 -66h-73zM516 802l11 66h74l-11 -66h-74z" />
    <glyph glyph-name="uni022B" unicode="&#x22b;" horiz-adv-x="562" 
d="M246 -8q-72 0 -120.5 31t-67.5 92t-6 147q13 80 49.5 135.5t91 84t122.5 28.5q73 0 120.5 -31.5t67.5 -92t6 -146.5q-13 -81 -50 -136t-91 -83.5t-122 -28.5zM251 44q74 0 128 52.5t70 153.5t-22.5 154.5t-116.5 53.5q-75 0 -128 -53t-69 -153q-16 -102 21 -155t117 -53z
M210 706l7 47h288l-7 -47h-288zM214 582l10 66h73l-9 -66h-74zM382 582l9 66h74l-10 -66h-73z" />
    <glyph glyph-name="uni022C" unicode="&#x22c;" horiz-adv-x="765" 
d="M83 364q18 112 67 190t125 118.5t173 40.5q103 0 168.5 -46.5t90.5 -130.5t7 -195q-17 -111 -66.5 -189t-125.5 -119t-174 -41q-102 0 -167 46.5t-90 130.5t-8 195zM147 354q-15 -95 4 -163t70.5 -105.5t131.5 -37.5q123 0 199 80t99 223q15 94 -5 163t-71 106t-131 37
q-123 0 -198.5 -79.5t-98.5 -223.5zM345 926l7 47h288l-7 -47h-288zM536 768q-21 0 -38.5 10t-33.5 20q-14 10 -27.5 18t-28.5 8q-22 0 -35 -13.5t-20 -44.5l-39 2q8 50 34 74.5t62 24.5q21 0 38 -9.5t33 -20.5q14 -10 28 -18t28 -8q23 0 35.5 13.5t19.5 44.5l39 -2
q-8 -50 -33.5 -74.5t-61.5 -24.5z" />
    <glyph glyph-name="uni022D" unicode="&#x22d;" horiz-adv-x="562" 
d="M246 -8q-72 0 -120.5 31t-67.5 92t-6 147q13 80 49.5 135.5t91 84t122.5 28.5q73 0 120.5 -31.5t67.5 -92t6 -146.5q-13 -81 -50 -136t-91 -83.5t-122 -28.5zM251 44q74 0 128 52.5t70 153.5t-22.5 154.5t-116.5 53.5q-75 0 -128 -53t-69 -153q-16 -102 21 -155t117 -53z
M209 706l8 47h288l-8 -47h-288zM217 546l-39 2q8 50 32 74.5t61 24.5q22 0 40 -10t35 -21q14 -9 27.5 -17t27.5 -8q23 0 35.5 13.5t19.5 44.5l39 -2q-8 -50 -31.5 -74.5t-60.5 -24.5q-22 0 -40.5 10t-35.5 21q-13 10 -27 17.5t-28 7.5q-22 0 -34.5 -13.5t-20.5 -44.5z" />
    <glyph glyph-name="uni0230" unicode="&#x230;" horiz-adv-x="765" 
d="M83 364q18 112 67 190t125 118.5t173 40.5q103 0 168.5 -46.5t90.5 -130.5t7 -195q-17 -111 -66.5 -189t-125.5 -119t-174 -41q-102 0 -167 46.5t-90 130.5t-8 195zM147 354q-15 -95 4 -163t70.5 -105.5t131.5 -37.5q123 0 199 80t99 223q15 94 -5 163t-71 106t-131 37
q-123 0 -198.5 -79.5t-98.5 -223.5zM345 926l7 47h288l-7 -47h-288zM433 802l11 66h73l-11 -66h-73z" />
    <glyph glyph-name="uni0231" unicode="&#x231;" horiz-adv-x="562" 
d="M246 -8q-72 0 -120.5 31t-67.5 92t-6 147q13 80 49.5 135.5t91 84t122.5 28.5q73 0 120.5 -31.5t67.5 -92t6 -146.5q-13 -81 -50 -136t-91 -83.5t-122 -28.5zM251 44q74 0 128 52.5t70 153.5t-22.5 154.5t-116.5 53.5q-75 0 -128 -53t-69 -153q-16 -102 21 -155t117 -53z
M208 706l7 47h288l-7 -47h-288zM296 582l10 66h74l-11 -66h-73z" />
    <glyph glyph-name="uni0232" unicode="&#x232;" horiz-adv-x="597" 
d="M227 0l52 328l7 -47l-219 424h68l184 -365h-18l300 365h73l-354 -425l21 48l-52 -328h-62zM230 818l8 47h318l-8 -47h-318z" />
    <glyph glyph-name="uni0233" unicode="&#x233;" horiz-adv-x="525" 
d="M-15 -227l-11 53q49 11 82.5 26.5t59 40.5t47.5 62l35 60l-3 -27l-138 513h65l118 -463h-24l262 463h68l-319 -549q-27 -46 -54 -76.5t-56 -51t-61.5 -32.5t-70.5 -19zM178 629l8 46h288l-8 -46h-288z" />
    <glyph glyph-name="uni0237" unicode="&#x237;" horiz-adv-x="228" 
d="M-64 -219q-12 0 -31 3.5t-32 8.5l10 53q11 -4 26.5 -7.5t28.5 -3.5q45 0 70.5 28.5t34.5 91.5l87 546h61l-88 -554q-13 -82 -55 -124t-112 -42z" />
    <glyph glyph-name="uni0253" unicode="&#x253;" horiz-adv-x="591" 
d="M283 -8q-69 0 -113.5 35.5t-55.5 97.5l10 1l-20 -126h-61l93 585q13 79 57.5 119t125.5 40q14 0 27 -1.5t24 -5.5l-15 -50q-13 4 -20.5 5t-18.5 1q-101 0 -118 -107l-33 -209l-15 -1q27 62 79 98t124 36q70 0 116.5 -32t65 -92.5t4.5 -145.5q-19 -121 -88.5 -184.5
t-167.5 -63.5zM281 44q76 0 128.5 52.5t68.5 153.5q17 101 -20.5 154.5t-116.5 53.5q-75 0 -129 -53t-70 -153q-15 -102 23 -155t116 -53z" />
    <glyph glyph-name="uni0257" unicode="&#x257;" horiz-adv-x="591" 
d="M239 -8q-69 0 -116 31.5t-66 92t-5 146.5q20 120 89.5 184t167.5 64q68 0 113.5 -35.5t54.5 -97.5h-10l34 208q13 83 59 121t122 38q13 0 26 -1.5t26 -5.5l-15 -50q-13 4 -21 5t-18 1q-52 0 -82 -28.5t-38 -81.5l-92 -583h-60l20 126h14q-27 -63 -79 -98.5t-124 -35.5z
M251 44q75 0 129 52.5t70 153.5t-22.5 154.5t-117.5 53.5q-75 0 -128 -53t-69 -153q-16 -102 21.5 -155t116.5 -53z" />
    <glyph glyph-name="uni0259" unicode="&#x259;" horiz-adv-x="543" 
d="M233 -8q-71 0 -117 29t-64.5 82t-7.5 122l4 28h400l-7 -44h-363l21 13q-15 -86 18.5 -133.5t117.5 -47.5q55 0 96 25t65.5 69t32.5 99l2 19q14 99 -27.5 152t-134.5 53q-44 0 -88 -14t-81 -48l-25 45q40 34 92.5 51.5t107.5 17.5q80 0 132.5 -33.5t74 -94.5t7.5 -146
q-12 -77 -47 -132t-88.5 -83.5t-120.5 -28.5z" />
    <glyph glyph-name="uni02B9" unicode="&#x2b9;" horiz-adv-x="211" 
d="M115 434l26 271h73l-58 -271h-41z" />
    <glyph glyph-name="uni02BA" unicode="&#x2ba;" horiz-adv-x="366" 
d="M115 434l26 271h73l-58 -271h-41zM270 434l26 271h73l-58 -271h-41z" />
    <glyph glyph-name="uni02BB" unicode="&#x2bb;" horiz-adv-x="500" 
d="M258 569l9 58q5 36 22 66.5t47 55.5l26 -23q-27 -25 -37.5 -46.5t-14.5 -46.5l-16 9h59l-11 -73h-84z" />
    <glyph glyph-name="uni02BC" unicode="&#x2bc;" horiz-adv-x="311" 
d="M203 573l-28 23q25 23 34 43.5t12 39.5l20 -8h-61l13 78h83l-11 -63q-5 -34 -18.5 -60.5t-43.5 -52.5z" />
    <glyph glyph-name="uni02BE" unicode="&#x2be;" horiz-adv-x="500" 
d="M298 555l6 40q28 -1 46.5 17.5t18.5 45.5q0 22 -12.5 36t-34.5 15l7 40q38 -3 61.5 -28t23.5 -60q0 -31 -16 -55.5t-43 -38.5t-57 -12z" />
    <glyph glyph-name="uni02BF" unicode="&#x2bf;" horiz-adv-x="500" 
d="M299 555q-39 2 -62 27.5t-23 60.5q0 31 16.5 55.5t43 38.5t57.5 12l-7 -40q-27 1 -46 -17.5t-19 -46.5q0 -21 12.5 -35t34.5 -16z" />
    <glyph glyph-name="circumflex" unicode="&#x2c6;" horiz-adv-x="500" 
d="M157 550l131 201h62l88 -201h-45l-77 155l-113 -155h-46z" />
    <glyph glyph-name="caron" unicode="&#x2c7;" horiz-adv-x="500" 
d="M277 550l-88 201h44l77 -155l113 155h47l-131 -201h-62z" />
    <glyph glyph-name="uni02C8" unicode="&#x2c8;" horiz-adv-x="500" 
d="M279 596l31 199h51l-31 -199h-51z" />
    <glyph glyph-name="uni02C9" unicode="&#x2c9;" horiz-adv-x="500" 
d="M165 629l8 46h288l-8 -46h-288z" />
    <glyph glyph-name="uni02CA" unicode="&#x2ca;" horiz-adv-x="500" 
d="M274 550l123 201h70l-146 -201h-47z" />
    <glyph glyph-name="uni02CB" unicode="&#x2cb;" horiz-adv-x="500" 
d="M320 550l-141 201h69l119 -201h-47z" />
    <glyph glyph-name="uni02CC" unicode="&#x2cc;" horiz-adv-x="500" 
d="M142 -270l31 199h51l-31 -199h-51z" />
    <glyph glyph-name="breve" unicode="&#x2d8;" horiz-adv-x="500" 
d="M312 548q-42 0 -74 22.5t-48 65t-13 100.5l42 5q-3 -71 22.5 -109.5t72.5 -38.5q48 0 79 38.5t41 109.5l41 -5q-7 -58 -29 -100.5t-56 -65t-78 -22.5z" />
    <glyph glyph-name="dotaccent" unicode="&#x2d9;" horiz-adv-x="500" 
d="M268 614l13 75h77l-12 -75h-78z" />
    <glyph glyph-name="ring" unicode="&#x2da;" horiz-adv-x="500" 
d="M316 547q-31 0 -57.5 15t-42 41t-15.5 57t15.5 56.5t41.5 40.5t58 15q33 0 59 -15t41.5 -40.5t15.5 -57.5q0 -30 -15.5 -56t-41.5 -41t-59 -15zM316 584q34 0 54.5 22t20.5 54t-20.5 53.5t-53.5 21.5t-54.5 -21.5t-21.5 -53.5t21.5 -54t53.5 -22z" />
    <glyph glyph-name="ogonek" unicode="&#x2db;" horiz-adv-x="500" 
d="M170 -191q-44 0 -68 24.5t-24 63.5q0 45 29 81.5t74 55.5l22 -34q-39 -16 -58 -41.5t-19 -53.5q0 -24 13.5 -38.5t40.5 -14.5q12 0 25.5 3t28.5 9l10 -40q-14 -5 -33.5 -10t-40.5 -5z" />
    <glyph glyph-name="tilde" unicode="&#x2dc;" horiz-adv-x="500" 
d="M170 592l-39 3q11 61 39 94t71 33q26 0 43.5 -14t32.5 -30q14 -15 28 -26t30 -11q52 0 70 84l39 -3q-10 -61 -38.5 -94t-70.5 -33q-25 0 -44 14.5t-34 30.5q-13 14 -26.5 25t-30.5 11q-52 0 -70 -84z" />
    <glyph glyph-name="hungarumlaut" unicode="&#x2dd;" horiz-adv-x="500" 
d="M338 550l74 201h61l-99 -201h-36zM220 550l74 201h61l-99 -201h-36z" />
    <glyph glyph-name="gravecomb" unicode="&#x300;" 
d="M70 550l-141 201h69l119 -201h-47z" />
    <glyph glyph-name="acutecomb" unicode="&#x301;" 
d="M24 550l134 201h71l-158 -201h-47z" />
    <glyph glyph-name="uni0302" unicode="&#x302;" 
d="M-93 550l131 201h62l88 -201h-45l-77 155l-113 -155h-46z" />
    <glyph glyph-name="tildecomb" unicode="&#x303;" 
d="M-80 592l-39 3q11 61 39 94t71 33q26 0 43.5 -14t32.5 -30q14 -15 28 -26t30 -11q52 0 70 84l39 -3q-10 -61 -38.5 -94t-70.5 -33q-25 0 -44 14.5t-34 30.5q-13 14 -26.5 25t-30.5 11q-52 0 -70 -84z" />
    <glyph glyph-name="uni0304" unicode="&#x304;" 
d="M-85 629l8 46h288l-8 -46h-288z" />
    <glyph glyph-name="uni0306" unicode="&#x306;" 
d="M62 548q-42 0 -74 22.5t-48 65t-13 100.5l42 5q-3 -71 22.5 -109.5t72.5 -38.5q48 0 79 38.5t41 109.5l41 -5q-7 -58 -29 -100.5t-56 -65t-78 -22.5z" />
    <glyph glyph-name="uni0307" unicode="&#x307;" 
d="M18 614l13 75h77l-12 -75h-78z" />
    <glyph glyph-name="uni0308" unicode="&#x308;" 
d="M104 615l11 72h74l-12 -72h-73zM-63 615l11 72h73l-11 -72h-73z" />
    <glyph glyph-name="hookabovecomb" unicode="&#x309;" 
d="M37 550l3 21q3 23 15 38.5t26 27.5t24 23.5t10 26.5q0 14 -11 20.5t-36 6.5q-15 0 -31 -3.5t-35 -11.5l-8 37q19 11 41 16t46 5q42 0 64.5 -16t22.5 -45q0 -27 -11 -43t-26 -27t-28 -24t-18 -37l-3 -15h-45z" />
    <glyph glyph-name="uni030A" unicode="&#x30a;" 
d="M66 547q-31 0 -57.5 15t-42 41t-15.5 57t15.5 56.5t41.5 40.5t58 15q33 0 59 -15t41.5 -40.5t15.5 -57.5q0 -30 -15.5 -56t-41.5 -41t-59 -15zM66 584q34 0 54.5 22t20.5 54t-20.5 53.5t-53.5 21.5t-54.5 -21.5t-21.5 -53.5t21.5 -54t53.5 -22z" />
    <glyph glyph-name="uni030B" unicode="&#x30b;" 
d="M88 550l74 201h61l-99 -201h-36zM-30 550l74 201h61l-99 -201h-36z" />
    <glyph glyph-name="uni030C" unicode="&#x30c;" 
d="M27 550l-88 201h44l77 -155l113 155h47l-131 -201h-62z" />
    <glyph glyph-name="uni030F" unicode="&#x30f;" 
d="M103 550l-63 201h60l39 -201h-36zM-15 550l-64 201h61l39 -201h-36z" />
    <glyph glyph-name="uni0311" unicode="&#x311;" 
d="M-60 548l-42 4q9 60 30.5 102t56 64.5t76.5 22.5q44 0 75 -23t47 -65t13 -101l-41 -4q4 70 -21.5 109t-73.5 39t-79.5 -39t-40.5 -109z" />
    <glyph glyph-name="uni0312" unicode="&#x312;" 
d="M8 569l10 64q7 38 21.5 66.5t44.5 49.5l24 -25q-26 -22 -34.5 -42.5t-13.5 -48.5l-16 9h60l-12 -73h-84z" />
    <glyph glyph-name="uni031B" unicode="&#x31b;" 
d="M59 441l-27 21l4 23q46 1 73 14t40.5 38.5t19.5 64.5l2 14h56l-4 -30q-10 -68 -52 -104.5t-112 -40.5z" />
    <glyph glyph-name="dotbelowcomb" unicode="&#x323;" 
d="M-107 -179l12 75h77l-12 -75h-77z" />
    <glyph glyph-name="uni0324" unicode="&#x324;" 
d="M-22 -176l12 73h74l-12 -73h-74zM-189 -176l12 73h73l-12 -73h-73z" />
    <glyph glyph-name="uni0326" unicode="&#x326;" 
d="M-91 -263l-24 25q27 22 35.5 42.5t12.5 47.5l16 -8h-60l13 73h84l-11 -64q-6 -38 -21 -66.5t-45 -49.5z" />
    <glyph glyph-name="uni0327" unicode="&#x327;" 
d="M-64 -191q-25 0 -46.5 5t-36.5 14l15 39q18 -9 33.5 -13t38.5 -4q28 0 46 11t18 31q0 13 -9 20.5t-26 7.5q-10 0 -21.5 -1.5t-28.5 -7.5l-14 14l30 95h44l-24 -75l-21 4q12 3 24 5t22 2q31 0 51.5 -16t20.5 -45q0 -38 -33 -62t-83 -24z" />
    <glyph glyph-name="uni0328" unicode="&#x328;" 
d="M-80 -191q-44 0 -68 24.5t-24 63.5q0 45 29 81.5t74 55.5l22 -34q-39 -16 -58 -41.5t-19 -53.5q0 -24 13.5 -38.5t40.5 -14.5q12 0 25.5 3t28.5 9l10 -40q-14 -5 -33.5 -10t-40.5 -5z" />
    <glyph glyph-name="uni032E" unicode="&#x32e;" 
d="M-62 -215q-64 0 -102.5 39.5t-35.5 108.5l42 5q-3 -52 23.5 -80t74.5 -28t78 28t39 80l41 -5q-9 -69 -52 -108.5t-108 -39.5z" />
    <glyph glyph-name="uni0331" unicode="&#x331;" 
d="M-208 -152l8 46h288l-8 -46h-288z" />
    <glyph glyph-name="uni0335" unicode="&#x335;" 
d="M-132 524l8 48h349l-8 -48h-349z" />
    <glyph glyph-name="uni0337" unicode="&#x337;" 
d="M-102 272l-23 47l261 124l22 -48z" />
    <glyph glyph-name="uni0338" unicode="&#x338;" 
d="M190 -33l-36 27l387 529l34 -26z" />
    <glyph glyph-name="uni0394" unicode="&#x394;" horiz-adv-x="720" 
d="M-5 0l6 39l393 666h55l183 -666l-6 -39h-631zM412 628l-357 -607l5 32h523l-5 -32l-164 607h-2z" />
    <glyph glyph-name="Sigma" unicode="&#x3a3;" horiz-adv-x="603" 
d="M-18 -180l8 45l348 410l4 -25l-227 410l8 45h498l-8 -54h-433l-2 18l214 -386l-8 -41l-328 -386l1 18h433l-9 -54h-499z" />
    <glyph glyph-name="uni03A9" unicode="&#x3a9;" horiz-adv-x="777" 
d="M-2 0l9 53h239v-20q-89 71 -132 152.5t-43 168.5q0 107 43 188t123.5 126t190.5 45q68 0 124 -20.5t96.5 -58t62.5 -88.5t22 -112q0 -94 -35.5 -170.5t-99.5 -134t-150 -96.5v20h241l-8 -53h-282l8 51q119 64 189.5 157.5t70.5 219.5q0 67 -28.5 118.5t-83 81
t-131.5 29.5q-91 0 -155.5 -39.5t-98.5 -108t-34 -155.5q0 -80 37.5 -156.5t115.5 -146.5l-9 -51h-282z" />
    <glyph glyph-name="uni03BC" unicode="&#x3bc;" horiz-adv-x="569" 
d="M8 -216l112 717h61l-47 -304q-12 -79 14.5 -116t86.5 -37q80 0 127.5 50t59.5 133l42 274h61l-77 -501h-61l18 117h10q-24 -58 -71 -91.5t-113 -33.5q-46 0 -79 17.5t-46 52.5l7 1l-43 -279h-62z" />
    <glyph glyph-name="pi" unicode="&#x3c0;" horiz-adv-x="581" 
d="M-5 0q34 63 61.5 133.5t48.5 150t34 168.5h-103l8 49h537l-8 -49h-125l-41 -268q-7 -43 1.5 -73t34.5 -46t70 -19l30 -2l-7 -50l-37 2q-61 3 -98 25t-50.5 63.5t-3.5 103.5l40 264h-187q-15 -95 -35.5 -176t-46 -149t-57.5 -127h-66z" />
    <glyph glyph-name="uni0400" unicode="&#x400;" horiz-adv-x="585" 
d="M53 0l112 705h438l-9 -53h-378l-41 -268h355l-8 -53h-356l-44 -278h378l-9 -53h-438zM389 765l-127 171h72l105 -171h-50z" />
    <glyph glyph-name="uni0401" unicode="&#x401;" horiz-adv-x="585" 
d="M53 0l112 705h438l-9 -53h-378l-41 -268h355l-8 -53h-356l-44 -278h378l-9 -53h-438zM468 813l12 73h73l-12 -73h-73zM301 813l12 73h73l-12 -73h-73z" />
    <glyph glyph-name="uni0402" unicode="&#x402;" horiz-adv-x="843" 
d="M516 -188q-34 0 -63.5 5.5t-49.5 15.5l17 50q19 -10 43 -14t52 -4q71 0 115 44.5t58 134.5l16 98q19 119 -25.5 176t-157.5 57q-52 0 -97 -10.5t-84 -31.5l-52 -333h-62l102 651h-255l9 54h573l-10 -54h-255l-41 -258q34 18 83.5 28.5t100.5 10.5q136 0 196.5 -71
t37.5 -213l-17 -103q-11 -78 -41.5 -130t-78.5 -77.5t-114 -25.5z" />
    <glyph glyph-name="uni0403" unicode="&#x403;" horiz-adv-x="548" 
d="M53 0l112 705h441l-9 -54h-380l-103 -651h-61zM339 765l131 171h74l-155 -171h-50z" />
    <glyph glyph-name="uni0404" unicode="&#x404;" horiz-adv-x="687" 
d="M371 -8q-87 0 -148 26.5t-96.5 76t-46.5 118t2 151.5q18 112 68 190t128 119t179 40q73 0 128 -21.5t95 -63.5l-28 -50q-44 43 -88.5 60.5t-111.5 17.5q-127 0 -202.5 -77.5t-101.5 -213.5l-18 20h405l-8 -54h-407l26 14q-20 -139 37 -217.5t189 -78.5q60 0 115.5 20.5
t101.5 65.5l26 -50q-46 -46 -111 -69.5t-133 -23.5z" />
    <glyph glyph-name="uni0405" unicode="&#x405;" horiz-adv-x="613" 
d="M283 -8q-86 0 -150 21t-108 52l29 51q50 -32 102 -50t129 -18q92 0 144 36t61 94q9 54 -19.5 86.5t-105.5 42.5l-90 13q-99 14 -141 66t-29 132q9 57 45.5 101t96.5 69t138 25q73 0 130.5 -21.5t94.5 -54.5l-27 -51q-41 35 -89.5 53t-114.5 18q-89 0 -145.5 -39
t-66.5 -103q-9 -59 19.5 -93.5t106.5 -45.5l90 -13q100 -13 141 -60t28 -129q-8 -52 -43.5 -93.5t-93 -65t-132.5 -23.5z" />
    <glyph glyph-name="uni0406" unicode="&#x406;" horiz-adv-x="247" 
d="M53 0l112 705h62l-112 -705h-62z" />
    <glyph glyph-name="uni0407" unicode="&#x407;" horiz-adv-x="247" 
d="M53 0l112 705h62l-112 -705h-62zM259 813l12 73h73l-12 -73h-73zM92 813l12 73h73l-12 -73h-73z" />
    <glyph glyph-name="uni0408" unicode="&#x408;" horiz-adv-x="314" 
d="M5 -186q-16 0 -35 2t-38 9l9 53q18 -7 33.5 -9t29.5 -2q46 0 75 29t39 92l114 717h62l-115 -721q-9 -55 -31 -93t-57.5 -57.5t-85.5 -19.5z" />
    <glyph glyph-name="uni0409" unicode="&#x409;" horiz-adv-x="1163" 
d="M8 -14l-26 49q45 22 84 52t70 80t56.5 128.5t43.5 194.5l34 215h448l-51 -319h224q115 0 170.5 -50.5t39.5 -152.5q-13 -90 -81 -136.5t-175 -46.5h-300l102 651h-329l-28 -175q-18 -115 -43.5 -197t-60.5 -138t-79.5 -93t-98.5 -62zM614 53h226q90 0 139.5 33t60.5 105
q12 73 -25.5 107.5t-127.5 34.5h-228z" />
    <glyph glyph-name="uni040A" unicode="&#x40a;" horiz-adv-x="1185" 
d="M53 0l112 705h60l-51 -320h454l51 320h62l-51 -319h223q116 0 171 -50.5t40 -152.5q-14 -90 -82 -136.5t-174 -46.5h-301l53 331h-454l-53 -331h-60zM637 53h226q90 0 139.5 33t60.5 105q11 73 -26 107.5t-128 34.5h-227z" />
    <glyph glyph-name="uni040B" unicode="&#x40b;" horiz-adv-x="856" 
d="M226 0l102 651h-255l9 54h573l-9 -54h-256l-41 -258q39 19 91 29t100 10q138 0 200 -71.5t39 -212.5l-23 -148h-62l22 142q20 121 -26.5 177.5t-158.5 56.5q-49 0 -97.5 -9t-93.5 -33l-52 -334h-62z" />
    <glyph glyph-name="uni040C" unicode="&#x40c;" horiz-adv-x="641" 
d="M53 0l112 705h60l-51 -321h154l-27 -15l288 336h73l-296 -345l-20 21q59 -6 96 -41t59 -98l84 -242h-62l-69 208q-22 67 -60 94.5t-98 27.5h-130l-53 -330h-60zM385 765l131 171h74l-155 -171h-50z" />
    <glyph glyph-name="uni040D" unicode="&#x40d;" horiz-adv-x="743" 
d="M53 0l112 705h57l-100 -635l-24 3l574 632h50l-112 -705h-57l100 635l21 -3l-573 -632h-48zM431 765l-127 171h72l105 -171h-50z" />
    <glyph glyph-name="uni040E" unicode="&#x40e;" horiz-adv-x="655" 
d="M169 0l157 226v-29l-249 508h65l220 -450h-15l311 450h68l-488 -705h-69zM405 760q-39 0 -74.5 13t-62 41.5t-39.5 73.5l42 15q16 -51 50 -75t85 -24q53 0 89.5 21.5t71.5 76.5l38 -14q-25 -49 -57 -76.5t-68.5 -39.5t-74.5 -12z" />
    <glyph glyph-name="uni040F" unicode="&#x40f;" horiz-adv-x="762" 
d="M288 -153l24 153h-259l112 705h61l-103 -651h453l104 651h62l-112 -705h-260l-25 -153h-57z" />
    <glyph glyph-name="uni0410" unicode="&#x410;" horiz-adv-x="728" 
d="M-14 0l419 705h56l200 -705h-62l-56 203l28 -15h-434l36 15l-119 -203h-68zM423 630l-234 -401l-21 12h388l-19 -12l-111 401h-3z" />
    <glyph glyph-name="uni0411" unicode="&#x411;" horiz-adv-x="671" 
d="M53 0l112 705h461l-9 -53h-401l-42 -266h225q116 0 171.5 -50.5t39.5 -152.5q-14 -90 -82 -136.5t-175 -46.5h-300zM121 53h227q91 0 140 33t61 105q11 73 -26.5 107.5t-127.5 34.5h-229z" />
    <glyph glyph-name="uni0412" unicode="&#x412;" horiz-adv-x="676" 
d="M53 0l112 705h276q107 0 158 -48.5t37 -140.5q-11 -70 -57.5 -111t-119.5 -55l2 14q76 -8 113 -57t25 -125q-14 -93 -81.5 -137.5t-181.5 -44.5h-283zM121 53h218q82 0 135 30.5t63 98.5q10 56 -7 88t-52.5 46.5t-86.5 14.5h-226zM174 383h202q88 0 137.5 33.5t58.5 91.5
q12 73 -23.5 109t-113.5 36h-219z" />
    <glyph glyph-name="uni0413" unicode="&#x413;" horiz-adv-x="548" 
d="M53 0l112 705h441l-9 -54h-380l-103 -651h-61z" />
    <glyph glyph-name="uni0414" unicode="&#x414;" horiz-adv-x="793" 
d="M-47 -153l33 206h72q67 69 112 183t72 286l30 183h467l-104 -652h104l-33 -206h-57l24 153h-638l-24 -153h-58zM130 53h443l95 599h-348l-20 -131q-27 -169 -68 -281.5t-102 -186.5z" />
    <glyph glyph-name="uni0415" unicode="&#x415;" horiz-adv-x="585" 
d="M53 0l112 705h438l-9 -53h-378l-41 -268h355l-8 -53h-356l-44 -278h378l-9 -53h-438z" />
    <glyph glyph-name="uni0416" unicode="&#x416;" horiz-adv-x="976" 
d="M-28 0l159 242q41 63 91 98t116 41l-23 -21l-187 345h66l180 -336l-17 15h122l51 321h61l-51 -321h124l-29 -15l288 336h74l-297 -345l-19 21q52 -5 92.5 -40.5t62.5 -98.5l84 -242h-62l-71 208q-22 66 -59.5 94t-97.5 28h-99l-52 -330h-61l53 330h-99q-62 0 -107.5 -28
t-87.5 -94l-134 -208h-71z" />
    <glyph glyph-name="uni0417" unicode="&#x417;" horiz-adv-x="658" 
d="M291 -8q-89 0 -157 25t-105 68l27 49q46 -44 103 -65t137 -21q102 0 157.5 36t66.5 105q11 73 -28.5 107t-128.5 34h-180l9 53h166q91 0 139 34.5t58 98.5q10 68 -33 104.5t-139 36.5q-68 0 -130.5 -20t-119.5 -62l-25 49q58 44 130.5 66.5t149.5 22.5q84 0 138 -23.5
t77.5 -67.5t13.5 -105q-9 -62 -53.5 -107t-121.5 -59l2 13q74 -9 112 -56t25 -125q-10 -60 -45.5 -103t-96.5 -65.5t-148 -22.5z" />
    <glyph glyph-name="uni0418" unicode="&#x418;" horiz-adv-x="743" 
d="M53 0l112 705h57l-100 -635l-24 3l574 632h50l-112 -705h-57l100 635l21 -3l-573 -632h-48z" />
    <glyph glyph-name="uni0419" unicode="&#x419;" horiz-adv-x="743" 
d="M53 0l112 705h57l-100 -635l-24 3l574 632h50l-112 -705h-57l100 635l21 -3l-573 -632h-48zM450 760q-39 0 -74.5 13t-62 41.5t-39.5 73.5l42 15q16 -51 50 -75t85 -24q53 0 89.5 21.5t71.5 76.5l38 -14q-25 -49 -57 -76.5t-68.5 -39.5t-74.5 -12z" />
    <glyph glyph-name="uni041A" unicode="&#x41a;" horiz-adv-x="641" 
d="M53 0l112 705h60l-51 -321h154l-27 -15l288 336h73l-296 -345l-20 21q59 -6 96 -41t59 -98l84 -242h-62l-69 208q-22 67 -60 94.5t-98 27.5h-130l-53 -330h-60z" />
    <glyph glyph-name="uni041B" unicode="&#x41b;" horiz-adv-x="757" 
d="M8 -14l-26 49q45 22 84 52t70 80t56.5 128.5t43.5 194.5l34 215h467l-112 -705h-62l104 651h-349l-28 -175q-18 -115 -43.5 -197t-60.5 -138t-79.5 -93t-98.5 -62z" />
    <glyph glyph-name="uni041C" unicode="&#x41c;" horiz-adv-x="853" 
d="M53 0l112 705h54l189 -664h-29l400 664h53l-112 -705h-57l100 632h30l-384 -632h-42l-183 632h26l-100 -632h-57z" />
    <glyph glyph-name="uni041D" unicode="&#x41d;" horiz-adv-x="762" 
d="M53 0l112 705h62l-51 -320h453l51 320h62l-112 -705h-62l53 330h-454l-52 -330h-62z" />
    <glyph glyph-name="uni041E" unicode="&#x41e;" horiz-adv-x="765" 
d="M83 364q18 112 67 190t125 118.5t173 40.5q103 0 168.5 -46.5t90.5 -130.5t7 -195q-17 -111 -66.5 -189t-125.5 -119t-174 -41q-102 0 -167 46.5t-90 130.5t-8 195zM147 354q-15 -95 4 -163t70.5 -105.5t131.5 -37.5q123 0 199 80t99 223q15 94 -5 163t-71 106t-131 37
q-123 0 -198.5 -79.5t-98.5 -223.5z" />
    <glyph glyph-name="uni041F" unicode="&#x41f;" horiz-adv-x="762" 
d="M53 0l112 705h577l-112 -705h-62l102 651h-454l-103 -651h-60z" />
    <glyph glyph-name="uni0420" unicode="&#x420;" horiz-adv-x="644" 
d="M53 0l112 705h267q113 0 165.5 -55t35.5 -154q-9 -60 -42 -102t-85.5 -63.5t-120.5 -21.5h-222l-48 -309h-62zM172 363h207q84 0 132.5 34.5t59.5 104.5q12 73 -25 111.5t-121 38.5h-208z" />
    <glyph glyph-name="uni0421" unicode="&#x421;" horiz-adv-x="684" 
d="M368 -8q-113 0 -182.5 46.5t-95 130.5t-8.5 195q18 112 68 190t127 119t177 40q73 0 128.5 -21t94.5 -63l-28 -52q-44 44 -89.5 61.5t-108.5 17.5q-125 0 -203 -79t-101 -222q-14 -92 4.5 -161t73.5 -107t146 -38q58 0 113.5 20t102.5 65l25 -49q-45 -46 -110.5 -69.5
t-133.5 -23.5z" />
    <glyph glyph-name="uni0422" unicode="&#x422;" horiz-adv-x="597" 
d="M226 0l102 651h-255l9 54h573l-9 -54h-256l-102 -651h-62z" />
    <glyph glyph-name="uni0423" unicode="&#x423;" horiz-adv-x="655" 
d="M169 0l157 226v-29l-249 508h65l220 -450h-15l311 450h68l-488 -705h-69z" />
    <glyph glyph-name="uni0424" unicode="&#x424;" horiz-adv-x="851" 
d="M352 -21l15 94l15 -16h-25q-101 0 -167 39.5t-93 110t-13 162.5q22 140 116.5 215t240.5 75h37l-21 -17l14 89h62l-14 -89l-16 17h25q104 0 169.5 -39t92 -109t11.5 -164q-14 -92 -62.5 -156.5t-123.5 -99t-171 -34.5h-36l20 16l-14 -94h-62zM370 93l84 529l14 -16h-37
q-114 0 -188.5 -61.5t-94.5 -180.5q-12 -81 9 -138t71 -87t124 -30h37zM431 93l-14 16h37q75 0 135 29t98.5 83t50.5 130q13 83 -8 139.5t-71 86t-126 29.5h-37l19 16z" />
    <glyph glyph-name="uni0425" unicode="&#x425;" horiz-adv-x="644" 
d="M-26 0l337 371l1 -20l-208 354h70l179 -310h-19l275 310h79l-319 -354l-2 20l218 -371h-71l-191 331h27l-297 -331h-79z" />
    <glyph glyph-name="uni0426" unicode="&#x426;" horiz-adv-x="795" 
d="M651 -153l24 153h-622l112 705h60l-103 -651h454l104 651h62l-104 -651h103l-33 -207h-57z" />
    <glyph glyph-name="uni0427" unicode="&#x427;" horiz-adv-x="683" 
d="M489 0l48 308q-37 -19 -88 -29t-103 -10q-92 0 -150 32t-80.5 95t-8.5 157l25 152h62l-24 -146q-21 -126 26.5 -179.5t159.5 -53.5q50 0 98 10t93 33l54 336h61l-112 -705h-61z" />
    <glyph glyph-name="uni0428" unicode="&#x428;" horiz-adv-x="1075" 
d="M53 0l112 705h61l-104 -651h353l104 651h61l-103 -651h353l103 651h61l-112 -705h-889z" />
    <glyph glyph-name="uni0429" unicode="&#x429;" horiz-adv-x="1108" 
d="M964 -153l24 153h-935l112 705h61l-104 -651h353l104 651h61l-103 -651h353l103 651h61l-103 -651h103l-33 -207h-57z" />
    <glyph glyph-name="uni042A" unicode="&#x42a;" horiz-adv-x="815" 
d="M197 0l102 651h-226l9 54h288l-51 -319h224q115 0 170.5 -50.5t40.5 -152.5q-14 -90 -82 -136.5t-175 -46.5h-300zM266 53h226q90 0 139.5 33t60.5 105q12 73 -25.5 107.5t-127.5 34.5h-228z" />
    <glyph glyph-name="uni042B" unicode="&#x42b;" horiz-adv-x="853" 
d="M53 0l112 705h61l-51 -319h194q116 0 171 -50.5t40 -152.5q-14 -90 -82 -136.5t-175 -46.5h-270zM122 53h196q91 0 140 33t61 105q11 73 -26.5 107.5t-127.5 34.5h-198zM659 0l112 705h61l-112 -705h-61z" />
    <glyph glyph-name="uni042C" unicode="&#x42c;" horiz-adv-x="671" 
d="M53 0l112 705h61l-51 -319h224q116 0 171.5 -50.5t39.5 -152.5q-14 -90 -82 -136.5t-175 -46.5h-300zM122 53h226q91 0 140 33t61 105q11 73 -26.5 107.5t-127.5 34.5h-228z" />
    <glyph glyph-name="uni042D" unicode="&#x42d;" horiz-adv-x="687" 
d="M262 -8q-72 0 -127.5 21.5t-95.5 63.5l28 50q44 -43 88.5 -60.5t111.5 -17.5q127 0 203 77.5t101 213.5l21 -9h-406l8 54h405l-25 -25q20 139 -37.5 217.5t-186.5 78.5q-59 0 -115 -20.5t-106 -65.5l-25 50q49 46 115.5 69.5t134.5 23.5q84 0 144 -26.5t95.5 -76
t46.5 -118t-3 -151.5q-18 -111 -68 -189.5t-128 -119.5t-179 -40z" />
    <glyph glyph-name="uni042E" unicode="&#x42e;" horiz-adv-x="1026" 
d="M608 -8q-95 0 -159 40.5t-92 116.5t-17 181h-173l-53 -330h-61l112 705h61l-51 -320h171q32 160 127.5 244t234.5 84q103 0 168 -46t91 -129.5t8 -194.5q-18 -112 -69 -190.5t-127.5 -119.5t-170.5 -41zM611 48q118 0 197 80t102 224q16 94 -4 162.5t-71 105.5t-131 37
q-123 0 -199 -79.5t-98 -223.5q-15 -93 3 -162t68.5 -106.5t132.5 -37.5z" />
    <glyph glyph-name="uni042F" unicode="&#x42f;" horiz-adv-x="681" 
d="M0 0l170 236q32 45 66 65.5t74 20.5h22l-26 -13q-67 0 -113.5 24.5t-67 70.5t-10.5 112q15 91 80.5 140t179.5 49h285l-112 -705h-62l48 305h-142q-37 0 -63.5 -6.5t-48.5 -23.5t-45 -49l-162 -226h-73zM327 357h216l47 296h-207q-96 0 -146 -37t-61 -108
q-12 -75 27 -113t124 -38z" />
    <glyph glyph-name="uni0430" unicode="&#x430;" horiz-adv-x="599" 
d="M243 -8q-69 0 -116 31.5t-66 92t-5 146.5q20 120 89.5 184t167.5 64q68 0 113.5 -35.5t54.5 -97.5l-11 -1l30 125h59q-7 -29 -14 -57t-11 -55l-62 -389h-61l20 126h15q-27 -63 -79 -98.5t-124 -35.5zM255 44q75 0 129 52.5t70 153.5t-22.5 154.5t-117.5 53.5
q-75 0 -128 -53t-69 -153q-16 -102 21.5 -155t116.5 -53z" />
    <glyph glyph-name="uni0431" unicode="&#x431;" horiz-adv-x="570" 
d="M251 -8q-111 0 -163 71.5t-31 205.5l18 113q19 118 85.5 200t190.5 113l190 49l12 -55l-182 -46q-107 -27 -162 -88.5t-71 -158.5l-6 -34h-14q21 46 52 78t71 48.5t86 16.5q69 0 116 -31t65.5 -90.5t4.5 -145.5q-13 -79 -49.5 -134.5t-91 -83.5t-121.5 -28zM254 43
q75 0 129.5 53t69.5 152q16 100 -22.5 152.5t-117.5 52.5q-77 0 -129.5 -52.5t-68.5 -151.5q-16 -100 21.5 -153t117.5 -53z" />
    <glyph glyph-name="uni0432" unicode="&#x432;" horiz-adv-x="549" 
d="M44 0l79 501h225q58 0 94.5 -15t51.5 -45t8 -75q-7 -46 -45 -79t-93 -38l-1 12q61 -1 93.5 -35.5t23.5 -91.5q-10 -68 -62 -101t-134 -33h-240zM110 45h179q58 0 92 22.5t41 71.5q8 46 -19 69.5t-85 23.5h-179zM147 277h170q53 0 86 24t39 66q8 43 -17.5 66t-79.5 23
h-170z" />
    <glyph glyph-name="uni0433" unicode="&#x433;" horiz-adv-x="435" 
d="M44 0l79 501h338l-9 -50h-276l-71 -451h-61z" />
    <glyph glyph-name="uni0434" unicode="&#x434;" horiz-adv-x="597" 
d="M-34 -130l28 180h52q47 53 76 127t44 173l24 151h337l-71 -451h77l-28 -180h-54l21 130h-432l-21 -130h-53zM112 49h285l63 403h-222l-17 -107q-13 -85 -40.5 -163t-68.5 -133z" />
    <glyph glyph-name="uni0435" unicode="&#x435;" horiz-adv-x="550" 
d="M272 -8q-80 0 -133 33t-74 94.5t-8 146.5q13 77 48.5 131.5t90 83.5t124.5 29q68 0 112 -29.5t62.5 -82t7.5 -122.5l-4 -28h-399l6 45h363l-18 -14q13 87 -20.5 134.5t-113.5 47.5q-58 0 -99.5 -25.5t-66.5 -69t-33 -99.5l-2 -19q-14 -99 27.5 -151.5t133.5 -52.5
q46 0 90 14t80 48l25 -45q-39 -33 -91.5 -51t-107.5 -18z" />
    <glyph glyph-name="uni0436" unicode="&#x436;" horiz-adv-x="788" 
d="M-38 0l130 170q32 41 56 64t46.5 33t52.5 13l-19 -18l-156 239h65l141 -217h91l35 217h61l-35 -217h86l210 217h73l-231 -239l-18 18q27 -3 46 -13t36 -33t35 -64l75 -170h-61l-71 157q-13 31 -28 48t-35 23.5t-52 6.5h-73l-37 -235h-60l36 235h-74q-31 0 -52 -6.5
t-40 -23t-43 -48.5l-119 -157h-71z" />
    <glyph glyph-name="uni0437" unicode="&#x437;" horiz-adv-x="498" 
d="M208 -8q-63 0 -115 17.5t-80 50.5l27 45q31 -32 74.5 -48t95.5 -16q77 0 115.5 25.5t45.5 71.5q8 45 -19.5 68.5t-85.5 23.5h-112l7 49h104q52 0 86 23.5t41 65.5q6 43 -22.5 67.5t-94.5 24.5q-52 0 -98 -13.5t-90 -41.5l-23 44q47 31 102 46t117 15q91 0 134.5 -37.5
t32.5 -105.5q-7 -46 -45 -79.5t-92 -38.5l2 11q60 -1 92 -37t23 -92q-10 -62 -64 -100.5t-158 -38.5z" />
    <glyph glyph-name="uni0438" unicode="&#x438;" horiz-adv-x="586" 
d="M44 0l79 501h56l-71 -448l-25 2l406 446h53l-80 -501h-56l71 449l27 -2l-407 -447h-53z" />
    <glyph glyph-name="uni0439" unicode="&#x439;" horiz-adv-x="586" 
d="M44 0l79 501h56l-71 -448l-25 2l406 446h53l-80 -501h-56l71 449l27 -2l-407 -447h-53zM344 548q-35 0 -67 13t-56 41.5t-35 72.5l40 16q14 -51 44.5 -75.5t75.5 -24.5q46 0 77.5 22t60.5 77l39 -15q-22 -48 -50.5 -76t-61 -39.5t-67.5 -11.5z" />
    <glyph glyph-name="uni043A" unicode="&#x43a;" horiz-adv-x="523" 
d="M44 0l79 501h61l-34 -217h102l208 217h73l-229 -239l-20 18q29 -3 47.5 -13t34.5 -33t34 -64l77 -170h-63l-70 157q-14 31 -28.5 48t-35 23.5t-51.5 6.5h-87l-37 -235h-61z" />
    <glyph glyph-name="uni043B" unicode="&#x43b;" horiz-adv-x="577" 
d="M9 -10l-19 50q40 18 68 42.5t47.5 62.5t34.5 94.5t28 136.5l20 125h345l-80 -501h-60l71 451h-226l-13 -79q-15 -90 -33 -154t-43 -108t-59 -72.5t-81 -47.5z" />
    <glyph glyph-name="uni043C" unicode="&#x43c;" horiz-adv-x="661" 
d="M44 0l79 501h52l139 -353l251 353h51l-79 -501h-55l69 434h23l-252 -354h-33l-140 354h18l-68 -434h-55z" />
    <glyph glyph-name="uni043D" unicode="&#x43d;" horiz-adv-x="589" 
d="M44 0l79 501h61l-34 -216h299l34 216h61l-79 -501h-61l37 234h-299l-37 -234h-61z" />
    <glyph glyph-name="uni043E" unicode="&#x43e;" horiz-adv-x="570" 
d="M250 -8q-72 0 -120.5 31t-67.5 92t-6 147q13 80 49.5 135.5t91 84t122.5 28.5q73 0 120.5 -31.5t67.5 -92t6 -146.5q-13 -81 -50 -136t-91 -83.5t-122 -28.5zM255 44q74 0 128 52.5t70 153.5t-22.5 154.5t-116.5 53.5q-75 0 -128 -53t-69 -153q-16 -102 21 -155t117 -53z
" />
    <glyph glyph-name="uni043F" unicode="&#x43f;" horiz-adv-x="586" 
d="M44 0l79 501h418l-79 -501h-61l71 451h-296l-71 -451h-61z" />
    <glyph glyph-name="uni0440" unicode="&#x440;" horiz-adv-x="599" 
d="M13 -216l96 605q4 27 6.5 55t3.5 57h59l-10 -125h-14q27 62 79 98t124 36q70 0 116.5 -32t65 -92.5t4.5 -145.5q-19 -121 -88.5 -184.5t-167.5 -63.5q-69 0 -113.5 35.5t-55.5 97.5h11l-55 -341h-61zM285 44q76 0 128.5 52.5t68.5 153.5q17 101 -20.5 154.5t-116.5 53.5
q-75 0 -129 -53t-70 -153q-15 -102 23 -155t116 -53z" />
    <glyph glyph-name="uni0441" unicode="&#x441;" horiz-adv-x="499" 
d="M256 -8q-72 0 -122 31.5t-71 92t-7 146.5q20 120 90.5 184t174.5 64q47 0 89 -15.5t68 -46.5l-27 -43q-28 27 -62 39.5t-66 12.5q-80 0 -134.5 -52t-70.5 -151q-16 -101 23.5 -155.5t119.5 -54.5q37 0 76.5 14t73.5 46l25 -46q-32 -31 -82.5 -48.5t-97.5 -17.5z" />
    <glyph glyph-name="uni0442" unicode="&#x442;" horiz-adv-x="442" 
d="M151 0l71 451h-187l8 50h435l-8 -50h-187l-71 -451h-61z" />
    <glyph glyph-name="uni0443" unicode="&#x443;" horiz-adv-x="533" 
d="M-11 -227l-11 53q49 11 82.5 26.5t59 40.5t47.5 62l35 60l-3 -27l-138 513h65l118 -463h-24l262 463h68l-319 -549q-27 -46 -54 -76.5t-56 -51t-61.5 -32.5t-70.5 -19z" />
    <glyph glyph-name="uni0444" unicode="&#x444;" horiz-adv-x="797" 
d="M294 -216l53 334h12q-25 -60 -66 -93t-96 -33q-57 0 -92.5 33.5t-48 94t0.5 141.5q19 120 75 184.5t136 64.5q56 0 89.5 -33t40.5 -94h-9l56 353h61l-56 -353h-13q26 61 67 94t95 33q57 0 93 -33.5t49 -94t-1 -141.5q-19 -120 -75.5 -184.5t-137.5 -64.5q-54 0 -88 33
t-41 93h10l-53 -334h-61zM210 42q61 0 102 53.5t57 155.5q16 99 -9.5 153.5t-85.5 54.5q-59 0 -101 -54.5t-58 -153.5q-16 -102 9.5 -155.5t85.5 -53.5zM521 42q59 0 101.5 53.5t58.5 154.5q16 100 -10 154.5t-86 54.5t-101 -54.5t-56 -154.5q-17 -101 8.5 -154.5
t84.5 -53.5z" />
    <glyph glyph-name="uni0445" unicode="&#x445;" horiz-adv-x="536" 
d="M-18 0l264 275v-33l-168 259h70l134 -213h-22l201 213h78l-246 -257l1 28l175 -272h-72l-143 227h22l-216 -227h-78z" />
    <glyph glyph-name="uni0446" unicode="&#x446;" horiz-adv-x="600" 
d="M455 -130l21 130h-432l79 501h61l-71 -451h286l71 451h60l-71 -451h77l-28 -180h-53z" />
    <glyph glyph-name="uni0447" unicode="&#x447;" horiz-adv-x="553" 
d="M369 0l34 213q-32 -19 -69.5 -29t-79.5 -10q-63 0 -105.5 21.5t-59.5 65t-7 109.5l21 131h60l-20 -127q-12 -78 19 -112.5t107 -34.5q41 0 74 9t67 31l38 234h60l-79 -501h-60z" />
    <glyph glyph-name="uni0448" unicode="&#x448;" horiz-adv-x="803" 
d="M44 0l79 501h60l-71 -451h227l72 451h59l-71 -451h228l71 451h60l-80 -501h-634z" />
    <glyph glyph-name="uni0449" unicode="&#x449;" horiz-adv-x="827" 
d="M682 -130l21 130h-659l79 501h60l-71 -451h227l72 451h59l-71 -451h228l71 451h60l-71 -451h76l-28 -180h-53z" />
    <glyph glyph-name="uni044A" unicode="&#x44a;" horiz-adv-x="623" 
d="M125 0l72 451h-162l8 50h222l-29 -186h156q98 0 140 -43t30 -122q-12 -77 -66.5 -113.5t-146.5 -36.5h-224zM194 47h158q65 0 103.5 25t47.5 81q9 61 -21 88.5t-96 27.5h-157z" />
    <glyph glyph-name="uni044B" unicode="&#x44b;" horiz-adv-x="723" 
d="M44 0l79 501h61l-29 -186h156q97 0 139.5 -43t30.5 -122q-12 -77 -66.5 -113.5t-147.5 -36.5h-223zM112 47h158q66 0 104.5 25t46.5 81q10 61 -20 88.5t-96 27.5h-158zM539 0l80 501h60l-80 -501h-60z" />
    <glyph glyph-name="uni044C" unicode="&#x44c;" horiz-adv-x="542" 
d="M44 0l79 501h61l-29 -186h156q97 0 139.5 -43t30.5 -122q-12 -77 -66.5 -113.5t-147.5 -36.5h-223zM112 47h158q66 0 104 25t47 81q10 61 -20 88.5t-96 27.5h-158z" />
    <glyph glyph-name="uni044D" unicode="&#x44d;" horiz-adv-x="511" 
d="M184 -8q-53 0 -95 16t-69 45l27 42q28 -28 63 -40.5t72 -12.5q87 0 141.5 53t68.5 140l11 -4h-273l8 49h274l-16 -25q13 98 -26 151t-126 53q-41 0 -81.5 -14t-75.5 -46l-22 44q32 32 83.5 49.5t102.5 17.5q74 0 124.5 -32t71.5 -92.5t7 -145.5q-13 -81 -49.5 -136.5
t-92.5 -83.5t-128 -28z" />
    <glyph glyph-name="uni044E" unicode="&#x44e;" horiz-adv-x="766" 
d="M446 -8q-101 0 -155 63.5t-41 178.5h-109l-37 -234h-60l79 501h60l-34 -216h108q25 109 93 167t165 58q73 0 121 -31.5t67.5 -92t5.5 -146.5q-13 -81 -49.5 -136t-91 -83.5t-122.5 -28.5zM451 44q75 0 129 52.5t69 153.5q17 101 -21.5 154.5t-117.5 53.5
q-75 0 -127.5 -53t-68.5 -153q-17 -102 20.5 -155t116.5 -53z" />
    <glyph glyph-name="uni044F" unicode="&#x44f;" horiz-adv-x="540" 
d="M3 0l107 146q24 33 54 52t55 19h19l-11 -8q-75 0 -114.5 41t-28.5 116q10 62 58 98.5t139 36.5h214l-79 -501h-59l32 201h-92q-41 0 -71.5 -18.5t-53.5 -49.5l-97 -133h-72zM244 247h153l33 209h-143q-67 0 -102 -26.5t-42 -68.5q-9 -57 20 -85.5t81 -28.5z" />
    <glyph glyph-name="uni0450" unicode="&#x450;" horiz-adv-x="550" 
d="M272 -8q-80 0 -133 33t-74 94.5t-8 146.5q13 77 48.5 131.5t90 83.5t124.5 29q68 0 112 -29.5t62.5 -82t7.5 -122.5l-4 -28h-399l6 45h363l-18 -14q13 87 -20.5 134.5t-113.5 47.5q-58 0 -99.5 -25.5t-66.5 -69t-33 -99.5l-2 -19q-14 -99 27.5 -151.5t133.5 -52.5
q46 0 90 14t80 48l25 -45q-39 -33 -91.5 -51t-107.5 -18zM312 550l-141 201h69l119 -201h-47z" />
    <glyph glyph-name="uni0451" unicode="&#x451;" horiz-adv-x="550" 
d="M272 -8q-80 0 -133 33t-74 94.5t-8 146.5q13 77 48.5 131.5t90 83.5t124.5 29q68 0 112 -29.5t62.5 -82t7.5 -122.5l-4 -28h-399l6 45h363l-18 -14q13 87 -20.5 134.5t-113.5 47.5q-58 0 -99.5 -25.5t-66.5 -69t-33 -99.5l-2 -19q-14 -99 27.5 -151.5t133.5 -52.5
q46 0 90 14t80 48l25 -45q-39 -33 -91.5 -51t-107.5 -18zM395 615l11 72h74l-12 -72h-73zM228 615l11 72h73l-11 -72h-73z" />
    <glyph glyph-name="uni0452" unicode="&#x452;" horiz-adv-x="583" 
d="M248 -185l-10 49q58 12 92 35t52 60.5t26 91.5l40 252q13 81 -13.5 115.5t-92.5 34.5q-76 0 -126 -45.5t-62 -121.5l-46 -286h-61l93 588h-97l8 49h97l16 99h61l-16 -99h202l-8 -49h-202l-32 -207h-15q30 61 84 93t123 32q92 0 127.5 -52.5t20.5 -149.5l-40 -249
q-11 -77 -35.5 -124.5t-69 -74t-116.5 -41.5z" />
    <glyph glyph-name="uni0453" unicode="&#x453;" horiz-adv-x="435" 
d="M44 0l79 501h338l-9 -50h-276l-71 -451h-61zM263 550l134 201h71l-158 -201h-47z" />
    <glyph glyph-name="uni0454" unicode="&#x454;" horiz-adv-x="518" 
d="M263 -8q-76 0 -127 31.5t-72.5 92t-7.5 146.5q13 80 50 135.5t93.5 84t127.5 28.5q53 0 95 -15.5t68 -46.5l-26 -42q-29 28 -63.5 40.5t-71.5 12.5q-87 0 -141.5 -53t-69.5 -140l-7 14h274l-9 -49h-274l12 16q-11 -99 27.5 -152t124.5 -53q42 0 82.5 14t75.5 46l24 -44
q-31 -31 -82.5 -48.5t-102.5 -17.5z" />
    <glyph glyph-name="uni0455" unicode="&#x455;" horiz-adv-x="502" 
d="M215 -8q-54 0 -103 16t-77 41l26 46q32 -25 72 -39t86 -14q62 0 99.5 23.5t43.5 62.5q6 35 -13 57.5t-66 29.5l-67 11q-75 12 -103.5 52t-19.5 96q7 43 34.5 73t70 46.5t93.5 16.5q54 0 97.5 -15.5t67.5 -38.5l-27 -45q-26 23 -61.5 35.5t-76.5 12.5q-61 0 -96.5 -25
t-42.5 -64q-5 -36 11 -59.5t59 -30.5l70 -12q77 -13 107.5 -49.5t21.5 -91.5q-6 -40 -33 -71t-71 -47.5t-102 -16.5z" />
    <glyph glyph-name="uni0456" unicode="&#x456;" horiz-adv-x="236" 
d="M47 0l80 501h61l-80 -501h-61zM136 624l12 76h82l-13 -76h-81z" />
    <glyph glyph-name="uni0457" unicode="&#x457;" horiz-adv-x="236" 
d="M47 0l80 501h61l-80 -501h-61zM223 615l11 72h74l-12 -72h-73zM56 615l11 72h73l-11 -72h-73z" />
    <glyph glyph-name="uni0458" unicode="&#x458;" horiz-adv-x="236" 
d="M-60 -219q-12 0 -31 2.5t-32 9.5l9 53q12 -4 27.5 -7.5t28.5 -3.5q45 0 70.5 28.5t34.5 91.5l87 546h61l-89 -554q-12 -82 -54.5 -124t-111.5 -42zM143 624l12 76h81l-12 -76h-81z" />
    <glyph glyph-name="uni0459" unicode="&#x459;" horiz-adv-x="890" 
d="M9 -10l-19 50q40 18 68 42.5t47.5 62.5t34.5 94.5t28 136.5l20 125h344l-29 -186h156q97 0 139.5 -43t29.5 -122q-12 -77 -66 -113.5t-147 -36.5h-222l71 451h-226l-13 -79q-15 -90 -33 -154t-43 -108t-59 -72.5t-81 -47.5zM460 47h158q66 0 104.5 25t46.5 81
q10 61 -20.5 88.5t-95.5 27.5h-158z" />
    <glyph glyph-name="uni045A" unicode="&#x45a;" horiz-adv-x="901" 
d="M44 0l79 501h61l-34 -216h300l34 216h60l-29 -186h156q97 0 139.5 -43t29.5 -122q-12 -77 -66 -113.5t-147 -36.5h-222l37 234h-300l-37 -234h-61zM472 47h158q66 0 104 25t47 81q10 61 -20.5 88.5t-95.5 27.5h-158z" />
    <glyph glyph-name="uni045B" unicode="&#x45b;" horiz-adv-x="585" 
d="M47 0l94 588h-98l8 49h98l15 99h61l-15 -99h201l-8 -49h-201l-33 -206h-14q30 61 83.5 93t122.5 32q93 0 128.5 -52.5t19.5 -149.5l-48 -305h-61l48 304q14 81 -12.5 116t-93.5 35q-76 0 -126 -46t-62 -122l-46 -287h-61z" />
    <glyph glyph-name="uni045C" unicode="&#x45c;" horiz-adv-x="523" 
d="M44 0l79 501h61l-34 -217h102l208 217h73l-229 -239l-20 18q29 -3 47.5 -13t34.5 -33t34 -64l77 -170h-63l-70 157q-14 31 -28.5 48t-35 23.5t-51.5 6.5h-87l-37 -235h-61zM311 550l134 201h71l-158 -201h-47z" />
    <glyph glyph-name="uni045D" unicode="&#x45d;" horiz-adv-x="586" 
d="M44 0l79 501h56l-71 -448l-25 2l406 446h53l-80 -501h-56l71 449l27 -2l-407 -447h-53zM316 550l-141 201h69l119 -201h-47z" />
    <glyph glyph-name="uni045E" unicode="&#x45e;" horiz-adv-x="533" 
d="M-11 -227l-11 53q49 11 82.5 26.5t59 40.5t47.5 62l35 60l-3 -27l-138 513h65l118 -463h-24l262 463h68l-319 -549q-27 -46 -54 -76.5t-56 -51t-61.5 -32.5t-70.5 -19zM316 548q-35 0 -67 13t-56 41.5t-35 72.5l40 16q14 -51 44.5 -75.5t75.5 -24.5q46 0 77.5 22t60.5 77
l39 -15q-22 -48 -50.5 -76t-61 -39.5t-67.5 -11.5z" />
    <glyph glyph-name="uni045F" unicode="&#x45f;" horiz-adv-x="586" 
d="M205 -130l21 130h-182l79 501h61l-71 -451h296l71 451h61l-79 -501h-183l-21 -130h-53z" />
    <glyph glyph-name="uni0462" unicode="&#x462;" horiz-adv-x="737" 
d="M120 0l86 542h-180l8 52h180l18 111h60l-18 -111h247l-8 -52h-247l-25 -156h224q116 0 171 -50.5t39 -152.5q-13 -90 -81 -136.5t-175 -46.5h-299zM188 53h226q91 0 140 33t61 105q11 73 -26.5 107.5t-127.5 34.5h-228z" />
    <glyph glyph-name="uni0463" unicode="&#x463;" horiz-adv-x="624" 
d="M126 0l72 453h-162l7 48h163l37 235h61l-38 -235h168l-8 -48h-167l-22 -142h159q95 0 137 -42.5t30 -120.5q-13 -77 -66 -112.5t-146 -35.5h-225zM195 45h158q66 0 104 25t46 81q10 61 -20 88t-95 27h-159z" />
    <glyph glyph-name="uni046A" unicode="&#x46a;" horiz-adv-x="956" 
d="M-28 0l159 242q45 70 101.5 106t144.5 36h75l-8 -17l-247 338h707l-355 -338l-3 17h66q63 0 102.5 -17t63.5 -49t38 -76l84 -242h-62l-71 208q-15 49 -36.5 75t-50.5 36.5t-69 10.5h-90l-52 -330h-62l53 330h-89q-63 0 -108 -28.5t-86 -93.5l-134 -208h-71zM496 387h2
l309 297l-4 -28h-526l4 28z" />
    <glyph glyph-name="uni046B" unicode="&#x46b;" horiz-adv-x="788" 
d="M-38 0l129 167q34 44 60.5 68.5t56 35t71.5 10.5h79l-7 -13l-166 233h497l-239 -233l-4 13h80q41 0 66.5 -10.5t43.5 -35t38 -68.5l75 -167h-61l-71 154q-14 32 -29 48.5t-35 23t-52 6.5h-73l-37 -232h-60l36 232h-74q-30 0 -51.5 -6.5t-40 -23t-42.5 -48.5l-119 -154
h-71zM397 289h2l186 186l-4 -20h-316l3 20z" />
    <glyph glyph-name="uni0472" unicode="&#x472;" horiz-adv-x="765" 
d="M108 333l8 51h586l-9 -51h-585zM83 364q18 112 67 190t125 118.5t173 40.5q103 0 168.5 -46.5t90.5 -130.5t7 -195q-17 -111 -66.5 -189t-125.5 -119t-174 -41q-102 0 -167 46.5t-90 130.5t-8 195zM147 354q-15 -95 4 -163t70.5 -105.5t131.5 -37.5q123 0 199 80t99 223
q15 94 -5 163t-71 106t-131 37q-123 0 -198.5 -79.5t-98.5 -223.5z" />
    <glyph glyph-name="uni0473" unicode="&#x473;" horiz-adv-x="570" 
d="M250 -8q-72 0 -120.5 31t-67.5 92t-6 147q13 80 49.5 135.5t91 84t122.5 28.5q73 0 120.5 -31.5t67.5 -92t6 -146.5q-13 -81 -50 -136t-91.5 -83.5t-121.5 -28.5zM255 44q76 0 130 52.5t70 153.5t-22.5 154.5t-118.5 53.5q-77 0 -130 -53t-69 -153q-16 -101 21 -154.5
t119 -53.5zM85 228l7 46h394l-7 -46h-394z" />
    <glyph glyph-name="uni0474" unicode="&#x474;" horiz-adv-x="755" 
d="M271 0l-191 705h62l178 -661h-25l285 486q32 54 60.5 89.5t58.5 56t66.5 29t83.5 8.5l-1 -51q-47 0 -81 -12.5t-63 -44t-63 -87.5l-310 -518h-60z" />
    <glyph glyph-name="uni0475" unicode="&#x475;" horiz-adv-x="557" 
d="M195 0l-134 501h65l118 -463h-26l204 357q26 45 52 69.5t58.5 35t76.5 10.5l-1 -50q-33 -1 -56 -9.5t-41.5 -28.5t-39.5 -55l-213 -367h-63z" />
    <glyph glyph-name="uni048A" unicode="&#x48a;" horiz-adv-x="759" 
d="M566 -153l78 153h-91l8 53h163l-103 -206h-55zM53 0l112 705h57l-100 -635l-24 3l574 632h50l-112 -705h-57l100 635l21 -3l-573 -632h-48zM450 760q-39 0 -74.5 13t-62 41.5t-39.5 73.5l41 15q17 -51 50.5 -75t85.5 -24q53 0 89.5 21.5t71.5 76.5l38 -14
q-25 -49 -57.5 -76.5t-68.5 -39.5t-74 -12z" />
    <glyph glyph-name="uni048B" unicode="&#x48b;" horiz-adv-x="610" 
d="M405 -130l69 130h-67l8 50h139l-95 -180h-54zM44 0l79 501h56l-71 -448l-25 2l406 446h53l-80 -501h-56l71 449l27 -2l-407 -447h-53zM344 548q-35 0 -67.5 13t-56.5 41.5t-35 72.5l40 16q14 -51 44.5 -75.5t75.5 -24.5q46 0 77.5 22t61.5 77l38 -15q-21 -48 -50 -76
t-61 -39.5t-67 -11.5z" />
    <glyph glyph-name="uni048C" unicode="&#x48c;" horiz-adv-x="726" 
d="M109 0l86 543h-149l8 51h148l19 111h60l-18 -111h148l-8 -51h-148l-25 -157h223q116 0 171.5 -50.5t39.5 -152.5q-13 -90 -81 -136.5t-175 -46.5h-299zM177 53h226q90 0 139.5 33t60.5 105q11 73 -26 107.5t-127 34.5h-228z" />
    <glyph glyph-name="uni048D" unicode="&#x48d;" horiz-adv-x="624" 
d="M126 0l72 453h-162l7 48h163l37 235h61l-38 -235h168l-8 -48h-167l-22 -142h159q95 0 137 -42.5t30 -120.5q-13 -77 -66 -112.5t-146 -35.5h-225zM195 45h158q66 0 104 25t46 81q10 61 -20 88t-95 27h-159z" />
    <glyph glyph-name="uni048E" unicode="&#x48e;" horiz-adv-x="644" 
d="M53 0l112 705h258q124 0 175.5 -54.5t34.5 -159.5q-10 -66 -50.5 -114.5t-103.5 -71.5l2 15l46 -89l-37 -22l-53 102l13 -15q-18 -3 -39 -4.5t-46 -1.5h-206l-46 -290h-60zM167 343h201q14 0 31.5 1t29.5 4l-6 -11l-44 87l37 21l52 -100l-14 11q51 15 80 50t37 88
q13 79 -22 119t-130 40h-202z" />
    <glyph glyph-name="uni048F" unicode="&#x48f;" horiz-adv-x="599" 
d="M12 -216l96 605q4 27 6.5 55t3.5 57h59l-10 -125h-14q27 62 79 98t124 36q70 0 116.5 -32t65 -92.5t4.5 -145.5q-11 -72 -39.5 -122t-74.5 -83l1 13l40 -63l-35 -24l-40 63l9 -2q-26 -17 -55 -23.5t-62 -6.5q-68 0 -113 35.5t-56 97.5h10l-54 -341h-61zM344 458
q-75 0 -129 -53t-70 -153q-16 -102 22.5 -155t116.5 -53q51 0 90 25l-2 -9l-43 66l35 25l46 -74l-11 8q31 26 52 66.5t30 98.5q17 101 -20.5 154.5t-116.5 53.5z" />
    <glyph glyph-name="uni0490" unicode="&#x490;" horiz-adv-x="548" 
d="M53 0l112 705h384l25 152h57l-33 -206h-381l-103 -651h-61z" />
    <glyph glyph-name="uni0491" unicode="&#x491;" horiz-adv-x="435" 
d="M44 0l79 501h283l19 117h54l-26 -167h-277l-71 -451h-61z" />
    <glyph glyph-name="uni0492" unicode="&#x492;" horiz-adv-x="584" 
d="M88 0l53 330h-102l8 50h102l51 325h442l-9 -54h-381l-42 -271h194l-8 -50h-194l-52 -330h-62z" />
    <glyph glyph-name="uni0493" unicode="&#x493;" horiz-adv-x="456" 
d="M66 0l36 224h-102l8 48h102l36 229h336l-8 -50h-276l-28 -179h153l-7 -48h-154l-36 -224h-60z" />
    <glyph glyph-name="uni0494" unicode="&#x494;" horiz-adv-x="670" 
d="M339 -188q-27 0 -54.5 4t-43.5 11l8 54q18 -9 41.5 -13t51.5 -4q70 0 114.5 45.5t59.5 135.5l15 97q19 120 -25.5 176.5t-157.5 56.5q-52 0 -97.5 -10.5t-84.5 -31.5l-53 -333h-60l112 705h439l-9 -54h-379l-41 -258q34 18 83.5 28.5t101.5 10.5q139 0 197 -72.5
t37 -211.5l-16 -101q-12 -82 -44.5 -134.5t-81.5 -76.5t-113 -24z" />
    <glyph glyph-name="uni0495" unicode="&#x495;" horiz-adv-x="552" 
d="M248 -185l-7 49q58 12 92 35.5t51 61t26 91.5l12 78q13 82 -13.5 116.5t-96.5 34.5q-77 0 -127 -46t-62 -122l-18 -113h-61l79 501h338l-8 -50h-277l-38 -241l-15 -2q30 61 83.5 93.5t123.5 32.5q96 0 132.5 -52.5t21.5 -146.5l-13 -82q-11 -71 -35 -118.5t-69 -76
t-119 -43.5z" />
    <glyph glyph-name="uni0496" unicode="&#x496;" horiz-adv-x="981" 
d="M898 -153l25 153h-46l8 53h103l-32 -206h-58zM-28 0l159 242q41 63 91 98t116 41l-23 -21l-187 345h66l180 -336l-17 15h122l51 321h61l-51 -321h124l-29 -15l288 336h74l-297 -345l-19 21q52 -5 92.5 -40.5t62.5 -98.5l84 -242h-62l-71 208q-22 66 -59.5 94t-97.5 28
h-99l-52 -330h-61l53 330h-99q-62 0 -107.5 -28t-87.5 -94l-134 -208h-71z" />
    <glyph glyph-name="uni0497" unicode="&#x497;" horiz-adv-x="827" 
d="M699 -130l21 130h-37l8 50h92l-29 -180h-55zM-38 0l130 170q32 41 56 64t46.5 33t52.5 13l-19 -18l-156 239h65l141 -217h91l35 217h61l-35 -217h86l210 217h73l-231 -239l-18 18q27 -3 46 -13t36 -33t35 -64l75 -170h-61l-71 157q-13 31 -28 48t-35 23.5t-52 6.5h-73
l-37 -235h-60l36 235h-74q-31 0 -52 -6.5t-40 -23t-43 -48.5l-119 -157h-71z" />
    <glyph glyph-name="uni0498" unicode="&#x498;" horiz-adv-x="658" 
d="M234 -153l28 177h59l-29 -177h-58zM291 -8q-89 0 -157 25t-105 68l27 49q46 -44 103 -65t137 -21q102 0 157.5 36t66.5 105q11 73 -28.5 107t-128.5 34h-180l9 53h166q91 0 139 34.5t58 98.5q10 68 -33 104.5t-139 36.5q-68 0 -130.5 -20t-119.5 -62l-25 49
q58 44 130.5 66.5t149.5 22.5q84 0 138 -23.5t77.5 -67.5t13.5 -105q-9 -62 -53.5 -107t-121.5 -59l2 13q74 -9 112 -56t25 -125q-10 -60 -45.5 -103t-96.5 -65.5t-148 -22.5z" />
    <glyph glyph-name="uni0499" unicode="&#x499;" horiz-adv-x="498" 
d="M158 -130l26 161h54l-26 -161h-54zM208 -8q-63 0 -115 17.5t-80 50.5l27 45q31 -32 74.5 -48t95.5 -16q77 0 115.5 25.5t45.5 71.5q8 45 -19.5 68.5t-85.5 23.5h-112l7 49h104q52 0 86 23.5t41 65.5q6 43 -22.5 67.5t-94.5 24.5q-52 0 -98 -13.5t-90 -41.5l-23 44
q47 31 102 46t117 15q91 0 134.5 -37.5t32.5 -105.5q-7 -46 -45 -79.5t-92 -38.5l2 11q60 -1 92 -37t23 -92q-10 -62 -64 -100.5t-158 -38.5z" />
    <glyph glyph-name="uni049A" unicode="&#x49a;" horiz-adv-x="665" 
d="M561 -153l24 153h-45l8 53h103l-33 -206h-57zM53 0l112 705h60l-51 -321h154l-27 -15l288 336h73l-296 -345l-20 21q59 -6 96 -41t59 -98l84 -242h-62l-69 208q-22 67 -60 94.5t-98 27.5h-130l-53 -330h-60z" />
    <glyph glyph-name="uni049B" unicode="&#x49b;" horiz-adv-x="563" 
d="M433 -130l21 130h-37l8 50h92l-29 -180h-55zM44 0l79 501h61l-34 -217h102l208 217h73l-229 -239l-20 18q29 -3 47.5 -13t34.5 -33t34 -64l77 -170h-63l-70 157q-14 31 -28.5 48t-35 23.5t-51.5 6.5h-87l-37 -235h-61z" />
    <glyph glyph-name="uni049C" unicode="&#x49c;" horiz-adv-x="661" 
d="M53 0l112 705h61l-51 -321h80l27 170h45l-27 -170h32l274 321h74l-297 -345l-20 21q61 -7 98.5 -41t59.5 -98l84 -242h-62l-70 208q-21 67 -60 94.5t-99 27.5h-32l11 9l-28 -177h-45l27 168h-80l-53 -330h-61z" />
    <glyph glyph-name="uni049D" unicode="&#x49d;" horiz-adv-x="538" 
d="M44 0l79 501h61l-34 -217h58l19 117h45l-19 -117h13l209 217h72l-228 -239l-21 18q29 -3 47.5 -13t35 -33t34.5 -64l76 -170h-62l-71 157q-13 30 -27.5 47t-34.5 24t-52 7h-15l18 11l-22 -138h-45l20 127h-58l-37 -235h-61z" />
    <glyph glyph-name="uni049E" unicode="&#x49e;" horiz-adv-x="683" 
d="M92 0l88 547h-146l7 49h146l17 109h61l-17 -109h151l-8 -49h-151l-26 -163h158l-29 -18l291 339h73l-299 -347l-17 22q55 -5 91.5 -40t58.5 -98l84 -242h-62l-70 208q-21 67 -59.5 94.5t-98.5 27.5h-129l-53 -330h-61z" />
    <glyph glyph-name="uni049F" unicode="&#x49f;" horiz-adv-x="526" 
d="M47 0l93 588h-97l8 49h97l16 99h61l-16 -99h202l-8 -49h-202l-48 -305h102l207 215h73l-228 -238l-19 19q29 -3 47.5 -13.5t33.5 -33t34 -64.5l77 -168h-63l-70 157q-14 30 -28.5 47t-35 23.5t-51.5 6.5h-87l-37 -234h-61z" />
    <glyph glyph-name="uni04A0" unicode="&#x4a0;" horiz-adv-x="783" 
d="M73 652l8 53h286l-8 -53h-286zM195 0l112 705h61l-51 -321h154l-28 -15l288 336h74l-297 -345l-20 21q59 -6 96.5 -41t59.5 -98l84 -242h-62l-70 208q-22 67 -60 94.5t-98 27.5h-130l-52 -330h-61z" />
    <glyph glyph-name="uni04A1" unicode="&#x4a1;" horiz-adv-x="605" 
d="M126 0l71 451h-162l8 50h223l-34 -217h102l208 217h73l-228 -239l-21 18q28 -3 47 -13t35 -33t35 -64l76 -170h-63l-70 157q-14 31 -28.5 48t-35 23.5t-51.5 6.5h-87l-37 -235h-61z" />
    <glyph glyph-name="uni04A2" unicode="&#x4a2;" horiz-adv-x="802" 
d="M669 -153l25 153h-106l8 53h163l-32 -206h-58zM53 0l112 705h62l-51 -320h453l51 320h62l-112 -705h-62l53 330h-454l-52 -330h-62z" />
    <glyph glyph-name="uni04A3" unicode="&#x4a3;" horiz-adv-x="590" 
d="M468 -130l21 130h-83l8 50h137l-29 -180h-54zM44 0l79 501h61l-34 -216h299l34 216h61l-79 -501h-61l37 234h-299l-37 -234h-61z" />
    <glyph glyph-name="uni04A4" unicode="&#x4a4;" horiz-adv-x="954" 
d="M53 0l112 705h60l-51 -320h456l51 320h331l-9 -54h-271l-102 -651h-61l52 331h-455l-53 -331h-60z" />
    <glyph glyph-name="uni04A5" unicode="&#x4a5;" horiz-adv-x="749" 
d="M44 0l79 501h61l-34 -216h293l34 216h298l-8 -50h-238l-70 -451h-61l37 234h-293l-37 -234h-61z" />
    <glyph glyph-name="uni04A8" unicode="&#x4a8;" horiz-adv-x="819" 
d="M359 -8q-106 0 -173.5 45t-94 128.5t-8.5 198.5q18 112 68.5 190t126.5 118.5t169 40.5q25 0 43 -1.5t30 -4.5l-9 -56q-17 3 -34 4.5t-31 1.5q-118 0 -197.5 -79t-102.5 -224q-23 -146 33 -227.5t185 -81.5q81 0 148.5 34.5t113 98t59.5 152.5q13 82 -16.5 127t-92.5 45
q-61 0 -103 -45t-55 -127q-14 -90 10.5 -153.5t81 -97.5t137.5 -34q43 0 76.5 8t65.5 24l9 -53q-30 -17 -68 -24.5t-87 -7.5q-72 0 -130 24.5t-96.5 70.5t-54 110.5t-3.5 144.5q11 67 41 115.5t76 75t104 26.5q63 0 104 -28.5t57 -80t4 -121.5q-12 -75 -46 -136.5
t-86 -106.5t-117 -69.5t-137 -24.5z" />
    <glyph glyph-name="uni04A9" unicode="&#x4a9;" horiz-adv-x="633" 
d="M270 -8q-81 0 -133 34t-73 95.5t-8 144.5q13 78 49.5 132.5t92 83t123.5 28.5q34 0 62 -5.5t44 -16.5l-15 -47q-16 10 -41.5 14.5t-48.5 4.5q-83 0 -137.5 -55t-69.5 -151q-16 -103 27 -158.5t131 -55.5q93 0 152 48t71 133q9 54 -10.5 84.5t-59.5 30.5t-68.5 -30
t-35.5 -82q-14 -92 31 -138t135 -46q26 0 55 7.5t55 20.5l12 -46q-29 -15 -60 -22.5t-65 -7.5q-56 0 -100 17t-73 49t-40 76.5t-3 97.5q7 45 28.5 79t55.5 53.5t76 19.5q44 0 73.5 -20t42.5 -57.5t4 -90.5q-7 -49 -32.5 -90.5t-63.5 -71.5t-85 -46t-98 -16z" />
    <glyph glyph-name="uni04AA" unicode="&#x4aa;" horiz-adv-x="684" 
d="M298 -153l28 177h59l-28 -177h-59zM368 -8q-113 0 -182.5 46.5t-95 130.5t-8.5 195q18 112 68 190t127 119t177 40q73 0 128.5 -21t94.5 -63l-28 -52q-44 44 -89.5 61.5t-108.5 17.5q-125 0 -203 -79t-101 -222q-14 -92 4.5 -161t73.5 -107t146 -38q58 0 113.5 20
t102.5 65l25 -49q-45 -46 -110.5 -69.5t-133.5 -23.5z" />
    <glyph glyph-name="uni04AB" unicode="&#x4ab;" horiz-adv-x="499" 
d="M197 -130l26 161h54l-26 -161h-54zM256 -8q-72 0 -122 31.5t-71 92t-7 146.5q20 120 90.5 184t173.5 64q48 0 90 -15.5t68 -46.5l-27 -43q-28 27 -62 39.5t-66 12.5q-80 0 -134.5 -52t-70.5 -151q-16 -101 23 -155.5t120 -54.5q37 0 76.5 14t73.5 46l24 -46
q-31 -31 -81.5 -48.5t-97.5 -17.5z" />
    <glyph glyph-name="uni04AC" unicode="&#x4ac;" horiz-adv-x="597" 
d="M308 -153l25 153h-107l102 651h-255l9 54h573l-9 -54h-256l-94 -597h103l-33 -207h-58z" />
    <glyph glyph-name="uni04AD" unicode="&#x4ad;" horiz-adv-x="444" 
d="M215 -130l21 130h-83l8 50h137l-29 -180h-54zM151 0l71 451h-187l8 50h435l-8 -50h-187l-71 -451h-61z" />
    <glyph glyph-name="uni04AE" unicode="&#x4ae;" horiz-adv-x="597" 
d="M227 0l52 328l7 -47l-219 424h68l184 -365h-18l300 365h73l-354 -425l21 48l-52 -328h-62z" />
    <glyph glyph-name="uni04AF" unicode="&#x4af;" horiz-adv-x="531" 
d="M161 -216l33 213l-134 504h64l118 -463h-25l264 463h68l-294 -502l-33 -215h-61z" />
    <glyph glyph-name="uni04B0" unicode="&#x4b0;" horiz-adv-x="597" 
d="M227 0l52 328l7 -47l-219 424h68l184 -365h-18l300 365h73l-354 -425l21 48l-52 -328h-62zM111 299l7 45h391l-7 -45h-391z" />
    <glyph glyph-name="uni04B1" unicode="&#x4b1;" horiz-adv-x="531" 
d="M166 -184l23 144h-124l8 48h127l-3 -19l-137 512h64l118 -464h-25l264 464h68l-298 -511l2 18h128l-8 -48h-123l-23 -144h-61z" />
    <glyph glyph-name="uni04B2" unicode="&#x4b2;" horiz-adv-x="667" 
d="M555 -153l24 153h-45l8 53h103l-32 -206h-58zM-26 0l337 371l1 -20l-208 354h70l179 -310h-19l275 310h79l-319 -354l-2 20l218 -371h-71l-191 331h27l-297 -331h-79z" />
    <glyph glyph-name="uni04B3" unicode="&#x4b3;" horiz-adv-x="551" 
d="M422 -130l21 130h-38l8 50h92l-29 -180h-54zM-18 0l264 275v-33l-168 259h70l134 -213h-22l201 213h78l-246 -257l1 28l175 -272h-72l-143 227h22l-216 -227h-78z" />
    <glyph glyph-name="uni04B4" unicode="&#x4b4;" horiz-adv-x="939" 
d="M795 -153l24 153h-622l102 651h-226l9 54h509l-10 -54h-221l-94 -597h454l104 651h61l-103 -651h103l-33 -207h-57z" />
    <glyph glyph-name="uni04B5" unicode="&#x4b5;" horiz-adv-x="692" 
d="M547 -130l21 130h-442l71 451h-162l8 50h392l-9 -50h-169l-63 -401h297l71 451h61l-72 -451h78l-29 -180h-53z" />
    <glyph glyph-name="uni04B6" unicode="&#x4b6;" horiz-adv-x="722" 
d="M571 -153l25 153h-106l8 53h163l-33 -206h-57zM489 0l48 308q-37 -19 -88 -29t-103 -10q-92 0 -150 32t-80.5 95t-8.5 157l25 152h62l-24 -146q-21 -126 26.5 -179.5t159.5 -53.5q50 0 98 10t93 33l54 336h61l-112 -705h-61z" />
    <glyph glyph-name="uni04B7" unicode="&#x4b7;" horiz-adv-x="555" 
d="M433 -130l21 130h-83l8 50h136l-29 -180h-53zM369 0l34 213q-32 -19 -69.5 -29t-79.5 -10q-63 0 -105.5 21.5t-59.5 65t-7 109.5l21 131h60l-20 -127q-12 -78 19 -112.5t107 -34.5q41 0 74 9t67 31l38 234h60l-79 -501h-60z" />
    <glyph glyph-name="uni04B8" unicode="&#x4b8;" horiz-adv-x="683" 
d="M489 0l49 308q-38 -18 -89 -28t-101 -10l14 11l-26 -167h-48l27 167l10 -12q-82 5 -135.5 36.5t-75 93t-7.5 154.5l25 152h62l-24 -146q-20 -121 23.5 -174.5t143.5 -58.5l-16 -10l29 187h48l-30 -187l-13 10q49 0 99 10t94 33l53 336h61l-112 -705h-61z" />
    <glyph glyph-name="uni04B9" unicode="&#x4b9;" horiz-adv-x="561" 
d="M376 0l34 212q-32 -17 -67.5 -26.5t-69.5 -10.5l14 13l-18 -117h-45l18 117l15 -14q-98 0 -144.5 49t-30.5 147l21 131h60l-20 -129q-12 -75 19 -110t102 -35l-18 -9l23 141h45l-23 -141l-12 9q37 0 70.5 9.5t68.5 29.5l37 235h61l-79 -501h-61z" />
    <glyph glyph-name="uni04BA" unicode="&#x4ba;" horiz-adv-x="683" 
d="M53 0l112 705h61l-49 -308q38 19 90.5 29t102.5 10q91 0 149 -32t80.5 -95t7.5 -157l-24 -152h-62l23 146q19 121 -27.5 177.5t-157.5 56.5q-49 0 -97.5 -9t-94.5 -33l-53 -338h-61z" />
    <glyph glyph-name="uni04BB" unicode="&#x4bb;" horiz-adv-x="585" 
d="M47 0l117 736h61l-56 -351h-14q30 61 83.5 93t122.5 32q93 0 128.5 -52.5t20.5 -149.5l-49 -308h-61l49 306q13 82 -13.5 116.5t-92.5 34.5q-77 0 -126.5 -46t-62.5 -122l-46 -289h-61z" />
    <glyph glyph-name="uni04BC" unicode="&#x4bc;" horiz-adv-x="892" 
d="M521 -8q-84 0 -143.5 25t-96.5 71t-50.5 108.5t-4.5 137.5l15 -12h-36q-94 0 -128 40.5t-20 121.5l10 58h60l-9 -55q-9 -59 11 -85t86 -26h27l-11 -9q19 112 68 189t123.5 117t168.5 40q109 0 171 -44.5t81.5 -125.5t-0.5 -190l-6 -30h-559l13 19q-13 -93 8.5 -158.5
t78 -100.5t145.5 -35q64 0 120.5 20.5t103.5 64.5l26 -48q-30 -30 -70 -51t-86.5 -31.5t-95.5 -10.5zM588 658q-120 0 -195.5 -79.5t-98.5 -224.5l-8 22h513l-20 -24q26 149 -17 227.5t-174 78.5z" />
    <glyph glyph-name="uni04BD" unicode="&#x4bd;" horiz-adv-x="648" 
d="M372 -8q-81 0 -133 32.5t-73.5 92.5t-9.5 140l3 -9h-16q-64 0 -89 32.5t-16 92.5l6 38h53l-6 -39q-7 -41 7 -60.5t56 -19.5h29l-24 -15q14 74 49.5 126t89 79.5t122.5 27.5q67 0 111 -29.5t62.5 -82t8.5 -122.5l-4 -28h-394l11 9q-15 -100 25 -156.5t136 -56.5
q45 0 89.5 14t80.5 48l25 -45q-39 -33 -91.5 -51t-107.5 -18zM416 461q-82 0 -133 -51.5t-64 -133.5l-8 17h356l-17 -14q13 87 -21 134.5t-113 47.5z" />
    <glyph glyph-name="uni04BE" unicode="&#x4be;" horiz-adv-x="892" 
d="M521 -8q-84 0 -143.5 25t-96.5 71t-50.5 108.5t-4.5 137.5l15 -12h-36q-94 0 -128 40.5t-20 121.5l10 58h60l-9 -55q-9 -59 11 -85t86 -26h27l-11 -9q19 112 68 189t123.5 117t168.5 40q109 0 171 -44.5t81.5 -125.5t-0.5 -190l-6 -30h-559l13 19q-13 -93 8.5 -158.5
t78 -100.5t145.5 -35q64 0 120.5 20.5t103.5 64.5l26 -48q-30 -30 -70 -51t-86.5 -31.5t-95.5 -10.5zM588 658q-120 0 -195.5 -79.5t-98.5 -224.5l-8 22h513l-20 -24q26 149 -17 227.5t-174 78.5zM521 -191q-44 0 -68 24.5t-24 63.5q0 45 29 81.5t74 55.5l22 -34
q-39 -16 -58 -41.5t-19 -53.5q0 -24 13.5 -38.5t40.5 -14.5q12 0 25.5 3t28.5 9l10 -40q-14 -5 -33.5 -10t-40.5 -5z" />
    <glyph glyph-name="uni04BF" unicode="&#x4bf;" horiz-adv-x="648" 
d="M372 -8q-81 0 -133 32.5t-73.5 92.5t-9.5 140l3 -9h-16q-64 0 -89 32.5t-16 92.5l6 38h53l-6 -39q-7 -41 7 -60.5t56 -19.5h29l-24 -15q14 74 49.5 126t89 79.5t122.5 27.5q67 0 111 -29.5t62.5 -82t8.5 -122.5l-4 -28h-394l11 9q-15 -100 25 -156.5t136 -56.5
q45 0 89.5 14t80.5 48l25 -45q-39 -33 -91.5 -51t-107.5 -18zM416 461q-82 0 -133 -51.5t-64 -133.5l-8 17h356l-17 -14q13 87 -21 134.5t-113 47.5zM391 -191q-44 0 -68 24.5t-24 63.5q0 45 29 81.5t74 55.5l22 -34q-39 -16 -58 -41.5t-19 -53.5q0 -24 13.5 -38.5
t40.5 -14.5q12 0 25.5 3t28.5 9l10 -40q-14 -5 -33.5 -10t-40.5 -5z" />
    <glyph glyph-name="uni04C0" unicode="&#x4c0;" horiz-adv-x="247" 
d="M53 0l112 705h62l-112 -705h-62z" />
    <glyph glyph-name="uni04C1" unicode="&#x4c1;" horiz-adv-x="976" 
d="M-28 0l159 242q41 63 91 98t116 41l-23 -21l-187 345h66l180 -336l-17 15h122l51 321h61l-51 -321h124l-29 -15l288 336h74l-297 -345l-19 21q52 -5 92.5 -40.5t62.5 -98.5l84 -242h-62l-71 208q-22 66 -59.5 94t-97.5 28h-99l-52 -330h-61l53 330h-99q-62 0 -107.5 -28
t-87.5 -94l-134 -208h-71zM564 760q-39 0 -74.5 13t-62 41.5t-39.5 73.5l42 15q16 -51 50 -75t85 -24q53 0 89.5 21.5t71.5 76.5l38 -14q-25 -49 -57 -76.5t-68.5 -39.5t-74.5 -12z" />
    <glyph glyph-name="uni04C2" unicode="&#x4c2;" horiz-adv-x="788" 
d="M-38 0l130 170q32 41 56 64t46.5 33t52.5 13l-19 -18l-156 239h65l141 -217h91l35 217h61l-35 -217h86l210 217h73l-231 -239l-18 18q27 -3 46 -13t36 -33t35 -64l75 -170h-61l-71 157q-13 31 -28 48t-35 23.5t-52 6.5h-73l-37 -235h-60l36 235h-74q-31 0 -52 -6.5
t-40 -23t-43 -48.5l-119 -157h-71zM444 548q-35 0 -67 13t-56 41.5t-35 72.5l40 16q14 -51 44.5 -75.5t75.5 -24.5q46 0 77.5 22t60.5 77l39 -15q-22 -48 -50.5 -76t-61 -39.5t-67.5 -11.5z" />
    <glyph glyph-name="uni04C3" unicode="&#x4c3;" horiz-adv-x="670" 
d="M339 -188q-27 0 -54.5 3.5t-43.5 10.5l8 56q18 -9 41.5 -13.5t51.5 -4.5q71 0 115.5 45t58.5 135l8 52q19 125 -29 180t-168 55h-161l-53 -331h-60l112 705h60l-51 -319h157l-31 -17l289 336h73l-297 -345l-2 24q127 -3 186.5 -72.5t37.5 -209.5l-9 -57
q-12 -81 -44.5 -133t-81.5 -76t-113 -24z" />
    <glyph glyph-name="uni04C4" unicode="&#x4c4;" horiz-adv-x="538" 
d="M234 -185l-7 49q58 12 91.5 34.5t50 58.5t25.5 88l6 34q13 82 -19 119t-108 37h-131l-37 -235h-61l79 501h61l-34 -217h102l208 217h71l-227 -239l-21 22q66 0 109.5 -21.5t62 -66t6.5 -112.5l-5 -36q-10 -66 -34 -112t-69 -76t-119 -45z" />
    <glyph glyph-name="uni04C5" unicode="&#x4c5;" horiz-adv-x="774" 
d="M578 -153l78 153h-91l8 53h163l-104 -206h-54zM8 -14l-26 49q45 22 84 52t70 80t56.5 128.5t43.5 194.5l34 215h467l-112 -705h-62l104 651h-349l-28 -175q-18 -115 -43.5 -197t-60.5 -138t-79.5 -93t-98.5 -62z" />
    <glyph glyph-name="uni04C6" unicode="&#x4c6;" horiz-adv-x="601" 
d="M393 -130l70 130h-68l8 50h139l-95 -180h-54zM9 -10l-19 50q40 18 68 42.5t47.5 62.5t34.5 94.5t28 136.5l20 125h345l-80 -501h-60l71 451h-226l-13 -79q-15 -90 -33 -154t-43 -108t-59 -72.5t-81 -47.5z" />
    <glyph glyph-name="uni04C7" unicode="&#x4c7;" horiz-adv-x="762" 
d="M454 -186q-16 0 -35 2t-38 6l8 53q18 -4 34 -6t30 -2q45 0 74 28.5t39 90.5l55 344h-454l-52 -330h-62l112 705h62l-51 -320h453l51 320h62l-114 -718q-10 -60 -32 -98t-57 -56.5t-85 -18.5z" />
    <glyph glyph-name="uni04C8" unicode="&#x4c8;" horiz-adv-x="589" 
d="M231 -193l4 50l45 3q51 4 82 34.5t40 86.5l40 253h-300l-37 -234h-61l79 501h61l-34 -216h300l34 216h60l-81 -515q-10 -59 -33.5 -96.5t-62 -57t-90.5 -22.5z" />
    <glyph glyph-name="uni04C9" unicode="&#x4c9;" horiz-adv-x="779" 
d="M602 -153l77 153h-91l8 53h164l-104 -206h-54zM53 0l112 705h62l-51 -320h453l51 320h62l-112 -705h-62l53 330h-454l-52 -330h-62z" />
    <glyph glyph-name="uni04CA" unicode="&#x4ca;" horiz-adv-x="608" 
d="M405 -130l69 130h-68l8 50h139l-95 -180h-53zM44 0l79 501h61l-34 -216h299l34 216h61l-79 -501h-61l37 234h-299l-37 -234h-61z" />
    <glyph glyph-name="uni04CB" unicode="&#x4cb;" horiz-adv-x="683" 
d="M427 -153h-58l32 206h122l-8 -53h-63zM489 0l48 308q-37 -19 -88 -29t-103 -10q-92 0 -150 32t-80.5 95t-8.5 157l25 152h62l-24 -146q-21 -126 26.5 -179.5t159.5 -53.5q50 0 98 10t93 33l54 336h61l-112 -705h-61z" />
    <glyph glyph-name="uni04CC" unicode="&#x4cc;" horiz-adv-x="572" 
d="M324 -130h-54l28 174h118l-7 -44h-64zM369 0l34 213q-32 -19 -69.5 -29t-79.5 -10q-63 0 -105.5 21.5t-59.5 65t-7 109.5l21 131h60l-20 -127q-12 -78 19 -112.5t107 -34.5q41 0 74 9t67 31l38 234h60l-79 -501h-60z" />
    <glyph glyph-name="uni04CD" unicode="&#x4cd;" horiz-adv-x="869" 
d="M698 -153l77 153h-91l9 53h163l-104 -206h-54zM53 0l112 705h54l189 -664h-29l400 664h53l-112 -705h-57l100 632h30l-384 -632h-42l-183 632h26l-100 -632h-57z" />
    <glyph glyph-name="uni04CE" unicode="&#x4ce;" horiz-adv-x="684" 
d="M481 -130l69 130h-68l8 50h139l-95 -180h-53zM44 0l79 501h52l139 -353l251 353h51l-79 -501h-55l69 434h23l-252 -354h-33l-140 354h18l-68 -434h-55z" />
    <glyph glyph-name="uni04CF" unicode="&#x4cf;" horiz-adv-x="236" 
d="M47 0l117 736h61l-117 -736h-61z" />
    <glyph glyph-name="uni04D0" unicode="&#x4d0;" horiz-adv-x="728" 
d="M-14 0l419 705h56l200 -705h-62l-56 203l28 -15h-434l36 15l-119 -203h-68zM423 630l-234 -401l-21 12h388l-19 -12l-111 401h-3zM438 760q-39 0 -74.5 13t-62 41.5t-39.5 73.5l42 15q16 -51 50 -75t85 -24q53 0 89.5 21.5t71.5 76.5l38 -14q-25 -49 -57 -76.5
t-68.5 -39.5t-74.5 -12z" />
    <glyph glyph-name="uni04D1" unicode="&#x4d1;" horiz-adv-x="599" 
d="M243 -8q-69 0 -116 31.5t-66 92t-5 146.5q20 120 89.5 184t167.5 64q68 0 113.5 -35.5t54.5 -97.5l-11 -1l30 125h59q-7 -29 -14 -57t-11 -55l-62 -389h-61l20 126h15q-27 -63 -79 -98.5t-124 -35.5zM255 44q75 0 129 52.5t70 153.5t-22.5 154.5t-117.5 53.5
q-75 0 -128 -53t-69 -153q-16 -102 21.5 -155t116.5 -53zM343 548q-35 0 -67 13t-56 41.5t-35 72.5l40 16q14 -51 44.5 -75.5t75.5 -24.5q46 0 77.5 22t60.5 77l39 -15q-22 -48 -50.5 -76t-61 -39.5t-67.5 -11.5z" />
    <glyph glyph-name="uni04D2" unicode="&#x4d2;" horiz-adv-x="728" 
d="M-14 0l419 705h56l200 -705h-62l-56 203l28 -15h-434l36 15l-119 -203h-68zM423 630l-234 -401l-21 12h388l-19 -12l-111 401h-3zM497 813l12 73h73l-12 -73h-73zM330 813l12 73h73l-12 -73h-73z" />
    <glyph glyph-name="uni04D3" unicode="&#x4d3;" horiz-adv-x="599" 
d="M243 -8q-69 0 -116 31.5t-66 92t-5 146.5q20 120 89.5 184t167.5 64q68 0 113.5 -35.5t54.5 -97.5l-11 -1l30 125h59q-7 -29 -14 -57t-11 -55l-62 -389h-61l20 126h15q-27 -63 -79 -98.5t-124 -35.5zM255 44q75 0 129 52.5t70 153.5t-22.5 154.5t-117.5 53.5
q-75 0 -128 -53t-69 -153q-16 -102 21.5 -155t116.5 -53zM398 615l11 72h74l-12 -72h-73zM231 615l11 72h73l-11 -72h-73z" />
    <glyph glyph-name="uni04D4" unicode="&#x4d4;" horiz-adv-x="1001" 
d="M-34 0l538 705h515l-9 -53h-409l24 23l-20 -307l-15 16h357l-8 -53h-348l12 10l-20 -309l-5 21h338l-9 -53h-386l13 197l24 -9h-392l30 17l-156 -205h-74zM531 651l-320 -425l-9 15h345l-10 -15l27 425h-33z" />
    <glyph glyph-name="uni04D5" unicode="&#x4d5;" horiz-adv-x="894" 
d="M214 -8q-56 0 -94.5 21.5t-55.5 58t-10 82.5q10 55 50 84.5t107.5 41t159.5 11.5h51l-6 -44h-51q-74 0 -128 -7.5t-85 -29t-38 -63.5q-7 -47 21.5 -76.5t85.5 -29.5q72 0 119.5 46.5t59.5 120.5l19 117q11 70 -18.5 101.5t-84.5 31.5q-50 0 -93 -12.5t-89 -41.5l-23 46
q29 19 62.5 32.5t70 20.5t72.5 7q81 0 118.5 -35.5t38.5 -98.5h-22q33 64 91 99t127 35q65 0 108.5 -29.5t61.5 -82t7 -122.5l-4 -28h-390l7 45h353l-17 -14q12 87 -21 134.5t-110 47.5q-55 0 -95.5 -25.5t-65.5 -69t-33 -99.5l-2 -19q-14 -99 27 -151.5t130 -52.5
q43 0 86 14t80 48l25 -45q-37 -33 -90.5 -51t-104.5 -18q-90 0 -142.5 42.5t-65.5 121.5h20q-27 -77 -83.5 -120.5t-135.5 -43.5z" />
    <glyph glyph-name="uni04D6" unicode="&#x4d6;" horiz-adv-x="585" 
d="M53 0l112 705h438l-9 -53h-378l-41 -268h355l-8 -53h-356l-44 -278h378l-9 -53h-438zM408 760q-39 0 -74.5 13t-62 41.5t-39.5 73.5l42 15q16 -51 50 -75t85 -24q53 0 89.5 21.5t71.5 76.5l38 -14q-25 -49 -57 -76.5t-68.5 -39.5t-74.5 -12z" />
    <glyph glyph-name="uni04D7" unicode="&#x4d7;" horiz-adv-x="550" 
d="M272 -8q-80 0 -133 33t-74 94.5t-8 146.5q13 77 48.5 131.5t90 83.5t124.5 29q68 0 112 -29.5t62.5 -82t7.5 -122.5l-4 -28h-399l6 45h363l-18 -14q13 87 -20.5 134.5t-113.5 47.5q-58 0 -99.5 -25.5t-66.5 -69t-33 -99.5l-2 -19q-14 -99 27.5 -151.5t133.5 -52.5
q46 0 90 14t80 48l25 -45q-39 -33 -91.5 -51t-107.5 -18zM340 548q-35 0 -67 13t-56 41.5t-35 72.5l40 16q14 -51 44.5 -75.5t75.5 -24.5q46 0 77.5 22t60.5 77l39 -15q-22 -48 -50.5 -76t-61 -39.5t-67.5 -11.5z" />
    <glyph glyph-name="uni04D8" unicode="&#x4d8;" horiz-adv-x="743" 
d="M333 -8q-106 0 -167.5 44.5t-81.5 125.5t-4 189l6 31h558l-9 -53h-511l20 24q-14 -99 -2 -167t59 -103.5t135 -35.5q118 0 193.5 78.5t99.5 226.5q23 146 -32.5 225.5t-185.5 79.5q-74 0 -129 -19t-113 -63l-24 49q57 45 122.5 67t148.5 22q106 0 174 -44t94.5 -127
t8.5 -199q-17 -108 -65.5 -187t-123 -121.5t-171.5 -42.5z" />
    <glyph glyph-name="uni04D9" unicode="&#x4d9;" horiz-adv-x="550" 
d="M237 -8q-71 0 -117 29t-64.5 82t-7.5 122l4 28h400l-7 -44h-363l21 13q-15 -86 18.5 -133.5t117.5 -47.5q55 0 96 25t65.5 69t32.5 99l2 19q14 99 -27.5 152t-134.5 53q-44 0 -88 -14t-81 -48l-25 45q40 34 92.5 51.5t107.5 17.5q80 0 132.5 -33.5t74 -94.5t7.5 -146
q-12 -77 -47 -132t-88.5 -83.5t-120.5 -28.5z" />
    <glyph glyph-name="uni04DA" unicode="&#x4da;" horiz-adv-x="743" 
d="M333 -8q-106 0 -167.5 44.5t-81.5 125.5t-4 189l6 31h558l-9 -53h-511l20 24q-14 -99 -2 -167t59 -103.5t135 -35.5q118 0 193.5 78.5t99.5 226.5q23 146 -32.5 225.5t-185.5 79.5q-74 0 -129 -19t-113 -63l-24 49q57 45 122.5 67t148.5 22q106 0 174 -44t94.5 -127
t8.5 -199q-17 -108 -65.5 -187t-123 -121.5t-171.5 -42.5zM508 813l12 73h73l-12 -73h-73zM341 813l12 73h73l-12 -73h-73z" />
    <glyph glyph-name="uni04DB" unicode="&#x4db;" horiz-adv-x="550" 
d="M237 -8q-71 0 -117 29t-64.5 82t-7.5 122l4 28h400l-7 -44h-363l21 13q-15 -86 18.5 -133.5t117.5 -47.5q55 0 96 25t65.5 69t32.5 99l2 19q14 99 -27.5 152t-134.5 53q-44 0 -88 -14t-81 -48l-25 45q40 34 92.5 51.5t107.5 17.5q80 0 132.5 -33.5t74 -94.5t7.5 -146
q-12 -77 -47 -132t-88.5 -83.5t-120.5 -28.5zM371 615l11 72h74l-12 -72h-73zM204 615l11 72h73l-11 -72h-73z" />
    <glyph glyph-name="uni04DC" unicode="&#x4dc;" horiz-adv-x="976" 
d="M-28 0l159 242q41 63 91 98t116 41l-23 -21l-187 345h66l180 -336l-17 15h122l51 321h61l-51 -321h124l-29 -15l288 336h74l-297 -345l-19 21q52 -5 92.5 -40.5t62.5 -98.5l84 -242h-62l-71 208q-22 66 -59.5 94t-97.5 28h-99l-52 -330h-61l53 330h-99q-62 0 -107.5 -28
t-87.5 -94l-134 -208h-71zM624 813l12 73h73l-12 -73h-73zM457 813l12 73h73l-12 -73h-73z" />
    <glyph glyph-name="uni04DD" unicode="&#x4dd;" horiz-adv-x="788" 
d="M-38 0l130 170q32 41 56 64t46.5 33t52.5 13l-19 -18l-156 239h65l141 -217h91l35 217h61l-35 -217h86l210 217h73l-231 -239l-18 18q27 -3 46 -13t36 -33t35 -64l75 -170h-61l-71 157q-13 31 -28 48t-35 23.5t-52 6.5h-73l-37 -235h-60l36 235h-74q-31 0 -52 -6.5
t-40 -23t-43 -48.5l-119 -157h-71zM499 615l11 72h74l-12 -72h-73zM332 615l11 72h73l-11 -72h-73z" />
    <glyph glyph-name="uni04DE" unicode="&#x4de;" horiz-adv-x="658" 
d="M291 -8q-89 0 -157 25t-105 68l27 49q46 -44 103 -65t137 -21q102 0 157.5 36t66.5 105q11 73 -28.5 107t-128.5 34h-180l9 53h166q91 0 139 34.5t58 98.5q10 68 -33 104.5t-139 36.5q-68 0 -130.5 -20t-119.5 -62l-25 49q58 44 130.5 66.5t149.5 22.5q84 0 138 -23.5
t77.5 -67.5t13.5 -105q-9 -62 -53.5 -107t-121.5 -59l2 13q74 -9 112 -56t25 -125q-10 -60 -45.5 -103t-96.5 -65.5t-148 -22.5zM462 813l12 73h73l-12 -73h-73zM295 813l12 73h73l-12 -73h-73z" />
    <glyph glyph-name="uni04DF" unicode="&#x4df;" horiz-adv-x="498" 
d="M208 -8q-63 0 -115 17.5t-80 50.5l27 45q31 -32 74.5 -48t95.5 -16q77 0 115.5 25.5t45.5 71.5q8 45 -19.5 68.5t-85.5 23.5h-112l7 49h104q52 0 86 23.5t41 65.5q6 43 -22.5 67.5t-94.5 24.5q-52 0 -98 -13.5t-90 -41.5l-23 44q47 31 102 46t117 15q91 0 134.5 -37.5
t32.5 -105.5q-7 -46 -45 -79.5t-92 -38.5l2 11q60 -1 92 -37t23 -92q-10 -62 -64 -100.5t-158 -38.5zM352 616l11 72h74l-12 -72h-73zM185 616l11 72h73l-11 -72h-73z" />
    <glyph glyph-name="uni04E0" unicode="&#x4e0;" horiz-adv-x="658" 
d="M289 -8q-89 0 -157 25t-107 68l30 50q43 -44 101 -65.5t134 -21.5q110 0 164.5 37t65.5 107q11 71 -27.5 104.5t-126.5 33.5h-125l8 46l316 298l-4 -23h-439l9 54h505l-7 -44l-317 -298l-2 19h71q105 0 161 -48.5t39 -150.5q-9 -60 -45 -102.5t-97.5 -65.5t-149.5 -23z
" />
    <glyph glyph-name="uni04E1" unicode="&#x4e1;" horiz-adv-x="498" 
d="M168 -188q-66 0 -118.5 16.5t-83.5 46.5l25 46q32 -30 75.5 -44t100.5 -14q87 0 137 40t61 111q13 77 -23.5 115.5t-116.5 38.5h-109l5 31l281 268l-1 -17h-333l8 51h396l-6 -41l-279 -266l-7 23h57q71 0 116.5 -24.5t64.5 -70t9 -107.5q-10 -63 -42.5 -109t-87 -70
t-129.5 -24z" />
    <glyph glyph-name="uni04E2" unicode="&#x4e2;" horiz-adv-x="743" 
d="M53 0l112 705h57l-100 -635l-24 3l574 632h50l-112 -705h-57l100 635l21 -3l-573 -632h-48zM304 818l8 47h318l-8 -47h-318z" />
    <glyph glyph-name="uni04E3" unicode="&#x4e3;" horiz-adv-x="586" 
d="M44 0l79 501h56l-71 -448l-25 2l406 446h53l-80 -501h-56l71 449l27 -2l-407 -447h-53zM209 629l8 46h288l-8 -46h-288z" />
    <glyph glyph-name="uni04E4" unicode="&#x4e4;" horiz-adv-x="743" 
d="M53 0l112 705h57l-100 -635l-24 3l574 632h50l-112 -705h-57l100 635l21 -3l-573 -632h-48zM509 813l12 73h73l-12 -73h-73zM342 813l12 73h73l-12 -73h-73z" />
    <glyph glyph-name="uni04E5" unicode="&#x4e5;" horiz-adv-x="586" 
d="M44 0l79 501h56l-71 -448l-25 2l406 446h53l-80 -501h-56l71 449l27 -2l-407 -447h-53zM398 615l11 72h74l-12 -72h-73zM231 615l11 72h73l-11 -72h-73z" />
    <glyph glyph-name="uni04E6" unicode="&#x4e6;" horiz-adv-x="765" 
d="M83 364q18 112 67 190t125 118.5t173 40.5q103 0 168.5 -46.5t90.5 -130.5t7 -195q-17 -111 -66.5 -189t-125.5 -119t-174 -41q-102 0 -167 46.5t-90 130.5t-8 195zM147 354q-15 -95 4 -163t70.5 -105.5t131.5 -37.5q123 0 199 80t99 223q15 94 -5 163t-71 106t-131 37
q-123 0 -198.5 -79.5t-98.5 -223.5zM527 813l12 73h73l-12 -73h-73zM360 813l12 73h73l-12 -73h-73z" />
    <glyph glyph-name="uni04E7" unicode="&#x4e7;" horiz-adv-x="570" 
d="M250 -8q-72 0 -120.5 31t-67.5 92t-6 147q13 80 49.5 135.5t91 84t122.5 28.5q73 0 120.5 -31.5t67.5 -92t6 -146.5q-13 -81 -50 -136t-91 -83.5t-122 -28.5zM255 44q74 0 128 52.5t70 153.5t-22.5 154.5t-116.5 53.5q-75 0 -128 -53t-69 -153q-16 -102 21 -155t117 -53z
M390 615l11 72h74l-12 -72h-73zM223 615l11 72h73l-11 -72h-73z" />
    <glyph glyph-name="uni04E8" unicode="&#x4e8;" horiz-adv-x="765" 
d="M108 333l8 51h586l-9 -51h-585zM83 364q18 112 67 190t125 118.5t173 40.5q103 0 168.5 -46.5t90.5 -130.5t7 -195q-17 -111 -66.5 -189t-125.5 -119t-174 -41q-102 0 -167 46.5t-90 130.5t-8 195zM147 354q-15 -95 4 -163t70.5 -105.5t131.5 -37.5q123 0 199 80t99 223
q15 94 -5 163t-71 106t-131 37q-123 0 -198.5 -79.5t-98.5 -223.5z" />
    <glyph glyph-name="uni04E9" unicode="&#x4e9;" horiz-adv-x="570" 
d="M250 -8q-72 0 -120.5 31t-67.5 92t-6 147q13 80 49.5 135.5t91 84t122.5 28.5q73 0 120.5 -31.5t67.5 -92t6 -146.5q-13 -81 -50 -136t-91.5 -83.5t-121.5 -28.5zM255 44q76 0 130 52.5t70 153.5t-22.5 154.5t-118.5 53.5q-77 0 -130 -53t-69 -153q-16 -101 21 -154.5
t119 -53.5zM85 228l7 46h394l-7 -46h-394z" />
    <glyph glyph-name="uni04EA" unicode="&#x4ea;" horiz-adv-x="765" 
d="M108 333l8 51h586l-9 -51h-585zM83 364q18 112 67 190t125 118.5t173 40.5q103 0 168.5 -46.5t90.5 -130.5t7 -195q-17 -111 -66.5 -189t-125.5 -119t-174 -41q-102 0 -167 46.5t-90 130.5t-8 195zM147 354q-15 -95 4 -163t70.5 -105.5t131.5 -37.5q123 0 199 80t99 223
q15 94 -5 163t-71 106t-131 37q-123 0 -198.5 -79.5t-98.5 -223.5zM520 813l12 73h73l-12 -73h-73zM353 813l12 73h73l-12 -73h-73z" />
    <glyph glyph-name="uni04EB" unicode="&#x4eb;" horiz-adv-x="570" 
d="M250 -8q-72 0 -120.5 31t-67.5 92t-6 147q13 80 49.5 135.5t91 84t122.5 28.5q73 0 120.5 -31.5t67.5 -92t6 -146.5q-13 -81 -50 -136t-91.5 -83.5t-121.5 -28.5zM255 44q76 0 130 52.5t70 153.5t-22.5 154.5t-118.5 53.5q-77 0 -130 -53t-69 -153q-16 -101 21 -154.5
t119 -53.5zM85 228l7 46h394l-7 -46h-394zM390 615l11 72h74l-12 -72h-73zM223 615l11 72h73l-11 -72h-73z" />
    <glyph glyph-name="uni04EC" unicode="&#x4ec;" horiz-adv-x="687" 
d="M262 -8q-72 0 -127.5 21.5t-95.5 63.5l28 50q44 -43 88.5 -60.5t111.5 -17.5q127 0 203 77.5t101 213.5l21 -9h-406l8 54h405l-25 -25q20 139 -37.5 217.5t-186.5 78.5q-59 0 -115 -20.5t-106 -65.5l-25 50q49 46 115.5 69.5t134.5 23.5q84 0 144 -26.5t95.5 -76
t46.5 -118t-3 -151.5q-18 -111 -68 -189.5t-128 -119.5t-179 -40zM447 813l12 73h73l-12 -73h-73zM280 813l12 73h73l-12 -73h-73z" />
    <glyph glyph-name="uni04ED" unicode="&#x4ed;" horiz-adv-x="511" 
d="M184 -8q-53 0 -95 16t-69 45l27 42q28 -28 63 -40.5t72 -12.5q87 0 141.5 53t68.5 140l11 -4h-273l8 49h274l-16 -25q13 98 -26 151t-126 53q-41 0 -81.5 -14t-75.5 -46l-22 44q32 32 83.5 49.5t102.5 17.5q74 0 124.5 -32t71.5 -92.5t7 -145.5q-13 -81 -49.5 -136.5
t-92.5 -83.5t-128 -28zM339 615l11 72h74l-12 -72h-73zM172 615l11 72h73l-11 -72h-73z" />
    <glyph glyph-name="uni04EE" unicode="&#x4ee;" horiz-adv-x="655" 
d="M169 0l157 226v-29l-249 508h65l220 -450h-15l311 450h68l-488 -705h-69zM260 818l8 47h318l-8 -47h-318z" />
    <glyph glyph-name="uni04EF" unicode="&#x4ef;" horiz-adv-x="532" 
d="M-11 -227l-11 53q49 11 82.5 26.5t59 40.5t47.5 62l35 60l-3 -27l-138 513h65l118 -463h-24l262 463h68l-319 -549q-27 -46 -54 -76.5t-56 -51t-61.5 -32.5t-70.5 -19zM178 629l8 46h288l-8 -46h-288z" />
    <glyph glyph-name="uni04F0" unicode="&#x4f0;" horiz-adv-x="655" 
d="M169 0l157 226v-29l-249 508h65l220 -450h-15l311 450h68l-488 -705h-69zM465 813l12 73h73l-12 -73h-73zM298 813l12 73h73l-12 -73h-73z" />
    <glyph glyph-name="uni04F1" unicode="&#x4f1;" horiz-adv-x="532" 
d="M-11 -227l-11 53q49 11 82.5 26.5t59 40.5t47.5 62l35 60l-3 -27l-138 513h65l118 -463h-24l262 463h68l-319 -549q-27 -46 -54 -76.5t-56 -51t-61.5 -32.5t-70.5 -19zM367 615l11 72h74l-12 -72h-73zM200 615l11 72h73l-11 -72h-73z" />
    <glyph glyph-name="uni04F2" unicode="&#x4f2;" horiz-adv-x="655" 
d="M169 0l157 226v-29l-249 508h65l220 -450h-15l311 450h68l-488 -705h-69zM334 765l100 171h66l-129 -171h-37zM451 765l102 171h66l-131 -171h-37z" />
    <glyph glyph-name="uni04F3" unicode="&#x4f3;" horiz-adv-x="532" 
d="M-11 -227l-11 53q49 11 82.5 26.5t59 40.5t47.5 62l35 60l-3 -27l-138 513h65l118 -463h-24l262 463h68l-319 -549q-27 -46 -54 -76.5t-56 -51t-61.5 -32.5t-70.5 -19zM350 550l74 201h61l-99 -201h-36zM232 550l74 201h61l-99 -201h-36z" />
    <glyph glyph-name="uni04F4" unicode="&#x4f4;" horiz-adv-x="683" 
d="M489 0l48 308q-37 -19 -88 -29t-103 -10q-92 0 -150 32t-80.5 95t-8.5 157l25 152h62l-24 -146q-21 -126 26.5 -179.5t159.5 -53.5q50 0 98 10t93 33l54 336h61l-112 -705h-61zM455 813l12 73h73l-12 -73h-73zM288 813l12 73h73l-12 -73h-73z" />
    <glyph glyph-name="uni04F5" unicode="&#x4f5;" horiz-adv-x="553" 
d="M369 0l34 213q-32 -19 -69.5 -29t-79.5 -10q-63 0 -105.5 21.5t-59.5 65t-7 109.5l21 131h60l-20 -127q-12 -78 19 -112.5t107 -34.5q41 0 74 9t67 31l38 234h60l-79 -501h-60zM372 615l11 72h74l-12 -72h-73zM205 615l11 72h73l-11 -72h-73z" />
    <glyph glyph-name="uni04F6" unicode="&#x4f6;" horiz-adv-x="548" 
d="M138 -153l24 153h-106l9 53h163l-33 -206h-57zM53 0l112 705h441l-9 -54h-380l-103 -651h-61z" />
    <glyph glyph-name="uni04F7" unicode="&#x4f7;" horiz-adv-x="436" 
d="M109 -130l21 130h-83l8 50h136l-29 -180h-53zM44 0l79 501h338l-9 -50h-276l-71 -451h-61z" />
    <glyph glyph-name="uni04F8" unicode="&#x4f8;" horiz-adv-x="853" 
d="M53 0l112 705h61l-51 -319h194q116 0 171 -50.5t40 -152.5q-14 -90 -82 -136.5t-175 -46.5h-270zM122 53h196q91 0 140 33t61 105q11 73 -26.5 107.5t-127.5 34.5h-198zM659 0l112 705h61l-112 -705h-61zM563 813l12 73h73l-12 -73h-73zM396 813l12 73h73l-12 -73h-73z
" />
    <glyph glyph-name="uni04F9" unicode="&#x4f9;" horiz-adv-x="723" 
d="M44 0l79 501h61l-29 -186h156q97 0 139.5 -43t30.5 -122q-12 -77 -66.5 -113.5t-147.5 -36.5h-223zM112 47h158q66 0 104.5 25t46.5 81q10 61 -20 88.5t-96 27.5h-158zM539 0l80 501h60l-80 -501h-60zM468 615l11 72h74l-12 -72h-73zM301 615l11 72h73l-11 -72h-73z" />
    <glyph glyph-name="uni04FA" unicode="&#x4fa;" horiz-adv-x="584" 
d="M26 -181l3 48l40 3q61 5 89.5 36.5t37.5 93.5h-108l53 330h-102l8 50h102l51 325h442l-9 -54h-381l-42 -271h194l-8 -50h-194l-44 -277h103l-7 -48q-14 -89 -60 -133.5t-126 -50.5z" />
    <glyph glyph-name="uni04FB" unicode="&#x4fb;" horiz-adv-x="456" 
d="M5 -181l4 48l40 4q45 5 70 36t34 93h-87l36 226h-101l7 47h102l36 228h336l-8 -50h-276l-27 -178h153l-8 -47h-153l-28 -182h80l-6 -39q-14 -89 -56.5 -133.5t-105.5 -49.5z" />
    <glyph glyph-name="uni04FC" unicode="&#x4fc;" horiz-adv-x="644" 
d="M357 -184l-4 51q67 8 101.5 31.5t41.5 63.5q6 40 -11 79.5t-43 84.5l-119 205h27l-297 -331h-79l337 371l1 -20l-208 354h70l179 -310h-19l275 310h79l-319 -354l-2 20l133 -227q30 -50 47 -93.5t9 -95.5q-9 -56 -57.5 -92t-141.5 -47z" />
    <glyph glyph-name="uni04FD" unicode="&#x4fd;" horiz-adv-x="536" 
d="M268 -184l-5 47q59 8 90.5 28.5t38.5 61.5q4 28 -9 58t-46 84l-83 132h22l-216 -227h-78l264 275v-33l-168 259h70l134 -213h-22l201 213h78l-246 -257l1 28l93 -146q26 -40 42 -68.5t22 -53.5t2 -52q-6 -39 -30 -68t-63.5 -46t-91.5 -22z" />
    <glyph glyph-name="uni04FE" unicode="&#x4fe;" horiz-adv-x="644" 
d="M-26 0l337 371l1 -20l-208 354h70l179 -310h-19l275 310h79l-319 -354l-2 20l218 -371h-71l-191 331h27l-297 -331h-79zM142 340l7 45h391l-7 -45h-391z" />
    <glyph glyph-name="uni04FF" unicode="&#x4ff;" horiz-adv-x="536" 
d="M-18 0l264 275v-33l-168 259h70l134 -213h-22l201 213h78l-246 -257l1 28l175 -272h-72l-143 227h22l-216 -227h-78zM70 233l7 45h391l-7 -45h-391z" />
    <glyph glyph-name="uni0510" unicode="&#x510;" horiz-adv-x="659" 
d="M302 -8q-92 0 -149.5 26.5t-80.5 74.5t-14 110q12 72 63.5 114.5t129.5 50.5l-2 -13q-66 13 -98.5 59t-22.5 120q14 80 84.5 129.5t187.5 49.5q81 0 144 -21t103 -59l-27 -48q-42 36 -98 54t-123 18q-92 0 -146 -36.5t-64 -102.5q-10 -65 29.5 -100t124.5 -35h166l-9 -53
h-180q-86 0 -137 -32t-60 -92q-12 -75 31.5 -116.5t152.5 -41.5q81 0 145.5 20.5t121.5 64.5l24 -50q-50 -41 -125.5 -66t-170.5 -25z" />
    <glyph glyph-name="uni0511" unicode="&#x511;" horiz-adv-x="499" 
d="M221 -8q-107 0 -152.5 41t-35.5 109q9 54 50.5 87.5t103.5 35.5l-3 -12q-50 5 -78 37.5t-19 85.5q10 64 66.5 99t142.5 35q52 0 99 -14.5t85 -42.5l-25 -42q-34 24 -76 36.5t-87 12.5q-62 0 -101.5 -25t-46.5 -68q-6 -42 20 -65t77 -23h104l-8 -49h-112q-58 0 -91 -22
t-40 -63q-8 -51 23 -77t107 -26q54 0 102.5 15t88.5 46l21 -43q-37 -33 -94.5 -50.5t-120.5 -17.5z" />
    </font>
</defs>
</svg>
