<?xml version="1.0" standalone="no"?>
<!DOCTYPE svg PUBLIC "-//W3C//DTD SVG 1.1//EN" "http://www.w3.org/Graphics/SVG/1.1/DTD/svg11.dtd" >
<svg xmlns="http://www.w3.org/2000/svg" xmlns:xlink="http://www.w3.org/1999/xlink" version="1.1">
<metadata>
Created by FontForge 20201107 at Thu Sep 30 21:20:51 2021
 By 
Copyright 2016 The Mulish Project Authors (https://github.com/googlefonts/mulish)
</metadata>
<defs>
<font id="Mulish-BlackItalic" horiz-adv-x="0" >
  <font-face 
    font-family="Mulish Black"
    font-weight="900"
    font-style="italic"
    font-stretch="normal"
    units-per-em="1000"
    panose-1="0 0 0 0 0 0 0 0 0 0"
    ascent="800"
    descent="-200"
    x-height="508"
    cap-height="705"
    bbox="-326 -290 1418 1060"
    underline-thickness="44"
    underline-position="-107"
    slope="-9"
    unicode-range="U+000D-FB02"
  />
<missing-glyph horiz-adv-x="500" 
 />
    <glyph glyph-name="fi" unicode="fi" horiz-adv-x="691" 
d="M58 0l60 377h-95l21 131h145l-58 -46l12 71q18 104 79 155.5t165 51.5q26 0 54 -3t48 -12l-22 -136q-13 5 -31 7.5t-35 2.5q-30 0 -53 -15.5t-30 -57.5l-7 -45l-20 27h385l-80 -508h-178l60 377h-182l-60 -377h-178zM505 580l25 160h188l-26 -160h-187z" />
    <glyph glyph-name="fl" unicode="fl" horiz-adv-x="691" 
d="M58 0l60 377h-95l21 131h145l-58 -46l12 71q16 104 80 155.5t181 51.5q25 0 49 -4t44 -11l-22 -136q-13 5 -26.5 7.5t-30.5 2.5q-20 0 -41.5 -6.5t-37.5 -22.5t-21 -44l-7 -45l-20 27h148l-21 -131h-122l-60 -377h-178zM419 0l117 736h178l-117 -736h-178z" />
    <glyph glyph-name=".notdef" horiz-adv-x="500" 
 />
    <glyph glyph-name="uni0000" 
 />
    <glyph glyph-name="uni0000" 
 />
    <glyph glyph-name="nonmarkingreturn" horiz-adv-x="333" 
 />
    <glyph glyph-name="CR" unicode="&#xd;" horiz-adv-x="289" 
 />
    <glyph glyph-name="space" unicode=" " horiz-adv-x="289" 
 />
    <glyph glyph-name="exclam" unicode="!" horiz-adv-x="272" 
d="M81 238l18 467h218l-129 -467h-107zM3 0l29 182h186l-30 -182h-185z" />
    <glyph glyph-name="quotedbl" unicode="&#x22;" horiz-adv-x="515" 
d="M98 398l6 307h204l-91 -307h-119zM345 398l6 307h204l-91 -307h-119z" />
    <glyph glyph-name="numbersign" unicode="#" horiz-adv-x="600" 
d="M28 0l56 159h-53l17 106h73l67 183h-87l16 106h109l55 151h115l-55 -151h93l55 151h114l-54 -151h52l-16 -106h-75l-66 -183h89l-17 -106h-110l-57 -159h-115l57 159h-92l-55 -159h-116zM237 265h92l65 183h-91z" />
    <glyph glyph-name="dollar" unicode="$" horiz-adv-x="600" 
d="M182 -115l21 135l34 -27q-43 3 -88 11.5t-85 23t-66 35.5l65 141q40 -27 97.5 -43.5t119.5 -16.5q61 0 89.5 16.5t31.5 41.5q4 21 -11.5 36t-59.5 24l-94 21q-55 13 -95.5 42t-60 72t-11.5 96q11 64 46 109t92.5 72t134.5 35l-33 -17l21 128h139l-21 -128l-26 19
q53 -3 104 -21t81 -46l-60 -134q-31 24 -76.5 37.5t-95.5 13.5q-60 0 -92.5 -18t-37.5 -47q-3 -22 11.5 -36.5t57.5 -24.5l94 -21q102 -23 142.5 -76t26.5 -137q-14 -88 -85.5 -140t-176.5 -64l27 24l-21 -136h-139z" />
    <glyph glyph-name="percent" unicode="%" horiz-adv-x="965" 
d="M317 0h-154l517 705h155zM232 285q-95 0 -137 61t-26 166q16 98 73.5 151t139.5 53q95 0 137 -60t25 -164q-15 -97 -71.5 -152t-140.5 -55zM240 393q24 0 39.5 23.5t24.5 77.5q10 66 1 90t-32 24q-24 0 -39 -21t-24 -77q-11 -68 -2 -92.5t32 -24.5zM716 -11
q-96 0 -138 61t-25 166q16 97 73 150.5t139 53.5q95 0 137.5 -60.5t25.5 -163.5q-16 -97 -72 -152t-140 -55zM724 97q24 0 39.5 23.5t24.5 77.5q10 66 1 90t-32 24q-24 0 -39 -21t-24 -77q-11 -68 -2 -92.5t32 -24.5z" />
    <glyph glyph-name="ampersand" unicode="&#x26;" horiz-adv-x="708" 
d="M624 -11q-45 9 -88.5 33.5t-78.5 57.5l45 -2q-44 -41 -110 -65t-138 -24q-82 0 -141 26.5t-87 74t-18 112.5q10 62 55.5 107t116.5 79l42 20l-38 -34q-33 34 -46 79.5t-6 90.5q8 49 36.5 88t79.5 61.5t125 22.5q61 0 105.5 -21t65 -60.5t12.5 -95.5q-6 -35 -27.5 -68.5
t-58.5 -62t-90 -52.5l7 33l130 -146h-35q32 41 54 90t34 102h149q-16 -81 -51 -155.5t-88 -132.5l-4 37q25 -27 54.5 -43.5t66.5 -25.5zM284 123q38 0 70 13t63 39l-18 -38l-171 189l78 -1l-30 -14q-39 -18 -62 -41t-29 -58q-6 -39 19.5 -64t79.5 -25zM365 601
q-30 0 -48 -16.5t-22 -40.5q-2 -20 1 -35.5t14 -31.5t29 -37l-38 -1q56 24 84.5 47t32.5 55q6 29 -9 44.5t-44 15.5z" />
    <glyph glyph-name="quotesingle" unicode="'" horiz-adv-x="269" 
d="M98 398l6 307h204l-91 -307h-119z" />
    <glyph glyph-name="parenleft" unicode="(" horiz-adv-x="401" 
d="M174 -180q-41 82 -60.5 170.5t-19.5 172.5q0 104 28 202t76 184.5t110 155.5h141q-75 -135 -123.5 -287t-48.5 -321q0 -59 10.5 -129.5t26.5 -146.5z" />
    <glyph glyph-name="parenright" unicode=")" horiz-adv-x="401" 
d="M96 -180h-141q76 136 124 287.5t48 320.5q0 60 -10 130t-27 146l140 1q42 -82 61 -170.5t19 -172.5q0 -103 -27.5 -201.5t-75.5 -185t-111 -155.5z" />
    <glyph glyph-name="asterisk" unicode="*" horiz-adv-x="460" 
d="M189 338l-89 65l99 106l-136 35l42 105l128 -53l3 140h109l-20 -138l136 51l28 -105l-142 -35l82 -106l-88 -65l-67 116z" />
    <glyph glyph-name="plus" unicode="+" horiz-adv-x="600" 
d="M204 40l30 188h-183l19 118h183l28 182h124l-28 -182h182l-19 -118h-183l-29 -188h-124z" />
    <glyph glyph-name="comma" unicode="," horiz-adv-x="272" 
d="M69 -155l-58 63q41 35 60 64t28 71l33 -43h-129l29 182h185l-21 -129q-6 -41 -19.5 -76t-39 -66.5t-68.5 -65.5z" />
    <glyph glyph-name="hyphen" unicode="-" horiz-adv-x="449" 
d="M54 207l22 138h326l-21 -138h-327z" />
    <glyph glyph-name="period" unicode="." horiz-adv-x="272" 
d="M3 0l30 182h184l-30 -182h-184z" />
    <glyph glyph-name="slash" unicode="/" horiz-adv-x="352" 
d="M72 -63h-149l404 820h149z" />
    <glyph glyph-name="zero" unicode="0" horiz-adv-x="600" 
d="M273 -11q-141 0 -196.5 101t-27.5 283q29 177 106.5 260t203.5 83q136 0 194.5 -95t29.5 -284q-28 -176 -109 -262t-201 -86zM285 136q46 0 77 50.5t48 160.5q14 86 11 134.5t-22 68.5t-52 20q-46 0 -76.5 -47.5t-47.5 -158.5q-14 -85 -11 -135.5t22 -71.5t51 -21z" />
    <glyph glyph-name="one" unicode="1" horiz-adv-x="600" 
d="M51 0l24 150h158l63 402l83 -5l-244 -128l27 175l212 111h131l-88 -555h147l-24 -150h-489z" />
    <glyph glyph-name="two" unicode="2" horiz-adv-x="600" 
d="M28 0l21 135l251 225q45 41 66 69.5t26 56.5q6 40 -17 59.5t-69 19.5q-41 0 -85 -13.5t-90 -46.5l-53 134q52 36 122 56.5t139 20.5q89 0 145.5 -28t79 -78t11.5 -117q-10 -64 -50 -117t-107 -110l-191 -163l1 47h317l-24 -150h-493z" />
    <glyph glyph-name="three" unicode="3" horiz-adv-x="600" 
d="M256 -11q-75 0 -141.5 20.5t-102.5 55.5l61 136q39 -31 85.5 -46t98.5 -15q53 0 83.5 16t35.5 54q11 73 -81 73h-129l23 144h106q43 0 71 16t33 50q6 34 -16 53t-68 19q-49 0 -94.5 -15t-88.5 -46l-53 135q52 37 121 57t140 20q131 0 192 -55.5t46 -148.5
q-9 -59 -50.5 -99t-103.5 -55l2 14q63 -10 98 -58.5t23 -121.5q-15 -101 -93 -152t-198 -51z" />
    <glyph glyph-name="four" unicode="4" horiz-adv-x="600" 
d="M280 0l18 119h-292l20 128l391 458h150l-71 -449h92l-22 -137h-92l-19 -119h-175zM320 256l37 231h29l-230 -273l3 42h161z" />
    <glyph glyph-name="five" unicode="5" horiz-adv-x="600" 
d="M270 -11q-46 0 -92 9.5t-83 26.5t-61 40l60 136q40 -30 85.5 -45.5t93.5 -15.5q51 0 83 21t37 59q7 43 -17.5 66.5t-70.5 23.5q-33 0 -63 -11.5t-59 -34.5h-114l70 441h462l-25 -149h-290l-24 -158h-42q29 28 67.5 43t89.5 15q64 0 111 -29t69 -84t10 -132
q-10 -65 -47.5 -115t-100.5 -78.5t-149 -28.5z" />
    <glyph glyph-name="six" unicode="6" horiz-adv-x="600" 
d="M296 -11q-96 0 -156.5 45.5t-82 130t-2.5 201.5q18 117 68.5 194.5t126 116.5t168.5 39q59 0 112 -16t92 -52l-62 -136q-33 27 -71 40t-79 13q-76 0 -121.5 -45.5t-60.5 -140.5l-9 -52h-15q23 64 71 100t115 36q59 0 103.5 -30.5t65 -86t8.5 -131.5q-12 -74 -50 -125
t-95 -76t-126 -25zM303 129q43 0 67 26t31 68q7 47 -13.5 74t-61.5 27t-66.5 -26.5t-32.5 -67.5q-7 -47 14 -74t62 -27z" />
    <glyph glyph-name="seven" unicode="7" horiz-adv-x="600" 
d="M8 0l431 608l-3 -56h-350l25 153h523l-22 -138l-397 -567h-207z" />
    <glyph glyph-name="eight" unicode="8" horiz-adv-x="600" 
d="M273 -11q-138 0 -205 60.5t-51 161.5q11 70 63.5 114.5t123.5 52.5l-5 -29q-61 13 -92 64.5t-20 119.5q14 89 89 136t195 47q79 0 133.5 -25.5t79.5 -71t16 -106.5q-11 -69 -56.5 -113t-108.5 -54l5 28q45 -7 75.5 -33.5t44.5 -66.5t6 -90q-16 -96 -94.5 -145.5
t-198.5 -49.5zM280 127q53 0 84.5 19.5t37.5 59.5q6 39 -18.5 60t-78.5 21t-84.5 -19t-37.5 -58q-6 -39 18.5 -61t78.5 -22zM328 426q44 0 70.5 19t31.5 55q6 35 -14 56.5t-64 21.5t-69.5 -19.5t-31.5 -52.5q-5 -36 14.5 -58t62.5 -22z" />
    <glyph glyph-name="nine" unicode="9" horiz-adv-x="600" 
d="M213 -11q-58 0 -111 16.5t-92 51.5l62 136q32 -27 70.5 -40t79.5 -13q76 0 122 46t60 140l8 52h16q-23 -64 -70.5 -100t-115.5 -36q-59 0 -103.5 30.5t-65 86.5t-9.5 132q12 74 50 124.5t95.5 75.5t126.5 25q97 0 157 -45.5t81 -130t3 -201.5q-18 -116 -68.5 -194
t-126.5 -117t-169 -39zM305 382q42 0 67.5 26t31.5 68q7 46 -13.5 73t-61.5 27q-43 0 -67.5 -25.5t-30.5 -68.5q-7 -46 13.5 -73t60.5 -27z" />
    <glyph glyph-name="colon" unicode=":" horiz-adv-x="272" 
d="M55 326l29 182h184l-29 -182h-184zM3 0l29 182h185l-30 -182h-184z" />
    <glyph glyph-name="semicolon" unicode=";" horiz-adv-x="272" 
d="M63 -155l-58 53q45 38 67 72t28 73l31 -43h-127l29 182h184l-20 -124q-10 -63 -39.5 -113t-94.5 -100zM55 325l29 183h184l-29 -183h-184z" />
    <glyph glyph-name="less" unicode="&#x3c;" horiz-adv-x="600" 
d="M509 30l-459 191l21 133l519 191l-21 -138l-472 -171l14 87l417 -170z" />
    <glyph glyph-name="equal" unicode="=" horiz-adv-x="600" 
d="M67 328l19 118h488l-19 -118h-488zM36 128l18 118h489l-19 -118h-488z" />
    <glyph glyph-name="greater" unicode="&#x3e;" horiz-adv-x="600" 
d="M21 30l21 137l471 170l-14 -87l-417 171l20 124l458 -191l-20 -133z" />
    <glyph glyph-name="question" unicode="?" horiz-adv-x="483" 
d="M167 238l9 54q4 28 14.5 51.5t29.5 47t49 49.5q17 14 30 29t21 30.5t8 30.5q0 19 -16.5 29.5t-46.5 10.5q-40 0 -82 -13.5t-81 -35.5l23 147q40 23 93.5 35.5t99.5 12.5q57 0 101 -18.5t68.5 -52.5t24.5 -79q0 -40 -15.5 -74.5t-43.5 -62t-65 -50.5q-55 -36 -76.5 -61.5
t-28.5 -47.5l-10 -32h-106zM89 0l29 182h186l-29 -182h-186z" />
    <glyph glyph-name="at" unicode="@" horiz-adv-x="960" 
d="M498 -167q-97 0 -178.5 31t-140.5 88t-91.5 135.5t-32.5 174.5q0 103 33 186.5t94.5 143.5t147 92t189.5 32q92 0 165.5 -26.5t127 -75.5t82 -119t28.5 -156t-25.5 -149t-71 -97.5t-104.5 -34.5q-62 0 -99.5 32.5t-46.5 93.5l45 29q-24 -78 -70 -116.5t-105 -38.5
q-83 0 -128.5 52.5t-45.5 141.5q0 73 27 129.5t75 89t110 32.5q52 0 84.5 -25.5t46.5 -78.5h-24l18 93h126l-39 -219q-3 -20 -5 -35.5t-2 -27.5q0 -28 10.5 -40.5t31.5 -12.5q25 0 45.5 22.5t32 64t11.5 95.5q0 68 -20 119.5t-58.5 86t-94.5 52.5t-127 18q-80 0 -144 -24.5
t-109.5 -70.5t-70 -111.5t-24.5 -146.5q0 -102 40.5 -175.5t114 -113t172.5 -39.5q68 0 125.5 17t103.5 51l48 -88q-47 -38 -118.5 -59.5t-158.5 -21.5zM474 164q31 0 53.5 19t35.5 53.5t13 81.5q0 38 -16.5 58.5t-50.5 20.5q-31 0 -54.5 -18t-36.5 -50t-13 -75
q0 -45 18 -67.5t51 -22.5z" />
    <glyph glyph-name="A" unicode="A" horiz-adv-x="769" 
d="M-62 0l442 705h150l220 -705h-179l-54 194l63 -51h-414l78 51l-115 -194h-191zM430 515l-161 -279l-21 47h294l-33 -47l-74 279h-5z" />
    <glyph glyph-name="B" unicode="B" horiz-adv-x="701" 
d="M25 0l112 705h336q122 0 178.5 -50.5t42.5 -140.5q-9 -58 -52 -100.5t-110 -58.5l2 16q73 -13 106.5 -61.5t22.5 -119.5q-14 -87 -86.5 -138.5t-190.5 -51.5h-361zM223 135h155q52 0 79.5 18t32.5 54q5 30 -4 48.5t-30.5 26.5t-56.5 8h-152zM269 425h134q53 0 79 17
t31 51q7 41 -14 59t-74 18h-133z" />
    <glyph glyph-name="C" unicode="C" horiz-adv-x="685" 
d="M395 -11q-125 0 -204.5 50t-111 136.5t-14.5 195.5q17 110 72.5 187.5t143 118t199.5 39.5q69 0 124.5 -18t92.5 -47l-61 -146q-40 28 -77 39.5t-86 11.5q-86 0 -143.5 -49.5t-72.5 -142.5q-10 -66 5 -114.5t54.5 -74.5t103.5 -26q44 0 87.5 13.5t90.5 46.5l48 -145
q-52 -36 -116.5 -55.5t-134.5 -19.5z" />
    <glyph glyph-name="D" unicode="D" horiz-adv-x="781" 
d="M25 0l112 705h267q134 0 216.5 -46t114 -128.5t13.5 -195.5q-27 -167 -138 -251t-293 -84h-292zM234 150h88q108 0 168 48t76 143q17 113 -28 164t-155 51h-86z" />
    <glyph glyph-name="E" unicode="E" horiz-adv-x="603" 
d="M25 0l112 705h506l-23 -141h-329l-21 -135h305l-22 -142h-306l-23 -145h329l-22 -142h-506z" />
    <glyph glyph-name="F" unicode="F" horiz-adv-x="583" 
d="M25 0l112 705h495l-23 -141h-310l-23 -143h287l-22 -141h-287l-44 -280h-185z" />
    <glyph glyph-name="G" unicode="G" horiz-adv-x="750" 
d="M403 -11q-134 0 -215 48t-111 133.5t-13 196.5q18 112 77 189.5t151 118.5t209 41q76 0 133 -15.5t94 -42.5l-62 -141q-42 24 -78.5 33t-92.5 9q-104 0 -164 -52.5t-75 -149.5q-16 -101 23 -157.5t146 -56.5q38 0 72.5 6t73.5 18l-51 -66l27 168h-146l20 128h297
l-56 -352q-37 -18 -81 -30.5t-90 -19t-88 -6.5z" />
    <glyph glyph-name="H" unicode="H" horiz-adv-x="784" 
d="M25 0l112 705h185l-44 -272h284l44 272h185l-112 -705h-185l45 282h-284l-45 -282h-185z" />
    <glyph glyph-name="I" unicode="I" horiz-adv-x="315" 
d="M25 0l112 705h185l-112 -705h-185z" />
    <glyph glyph-name="J" unicode="J" horiz-adv-x="401" 
d="M32 -187q-18 0 -44.5 2.5t-53.5 10.5l23 141q19 -6 37.5 -8t29.5 -2q45 0 67 25t30 81l102 642h185l-105 -658q-13 -85 -44.5 -136.5t-86.5 -74.5t-140 -23z" />
    <glyph glyph-name="K" unicode="K" horiz-adv-x="704" 
d="M25 0l112 705h185l-48 -302h2l312 302h222l-392 -371l-6 73l305 -407h-214l-240 318h-2l-51 -318h-185z" />
    <glyph glyph-name="L" unicode="L" horiz-adv-x="578" 
d="M25 0l112 705h185l-88 -552h302l-24 -153h-487z" />
    <glyph glyph-name="M" unicode="M" horiz-adv-x="884" 
d="M28 0l112 705h160l149 -517h-33l312 517h161l-112 -705h-167l68 432h44l-269 -432h-103l-133 432h46l-69 -432h-166z" />
    <glyph glyph-name="N" unicode="N" horiz-adv-x="765" 
d="M25 0l112 705h136l285 -455l-28 12l71 443h171l-112 -705h-136l-284 455l28 -12l-70 -443h-173z" />
    <glyph glyph-name="O" unicode="O" horiz-adv-x="804" 
d="M65 371q17 110 70 187t135 117.5t186 40.5q120 0 195.5 -49.5t106.5 -136t13 -195.5q-17 -110 -70.5 -187t-135 -118t-187.5 -41q-118 0 -194 50t-106 136.5t-13 195.5zM256 361q-11 -69 1.5 -118t47 -74.5t89.5 -25.5q79 0 125 55t60 147q12 69 -1 117.5t-47.5 74
t-90.5 25.5q-79 0 -124 -54t-60 -147z" />
    <glyph glyph-name="P" unicode="P" horiz-adv-x="684" 
d="M25 0l112 705h329q128 0 185 -65t40 -172q-9 -60 -42.5 -106.5t-92 -72.5t-142.5 -26h-162l-42 -263h-185zM274 405h137q49 0 74.5 19t30.5 56q7 40 -13 62t-71 22h-133z" />
    <glyph glyph-name="Q" unicode="Q" horiz-adv-x="804" 
d="M519 -193q-33 18 -63 46.5t-53 65.5t-37 76l151 65q15 -51 54.5 -93.5t84.5 -68.5zM65 371q17 110 70 187t135 117.5t186 40.5q120 0 195.5 -49.5t106.5 -136t13 -195.5q-17 -110 -70.5 -187t-135 -118t-187.5 -41q-118 0 -194 50t-106 136.5t-13 195.5zM256 361
q-11 -69 1.5 -118t47 -74.5t89.5 -25.5q79 0 125 55t60 147q12 69 -1 117.5t-47.5 74t-90.5 25.5q-79 0 -124 -54t-60 -147z" />
    <glyph glyph-name="R" unicode="R" horiz-adv-x="713" 
d="M25 0l112 705h316q135 0 193.5 -60t41.5 -169q-10 -64 -47 -111t-96 -72.5t-135 -25.5l3 25h45q44 0 73.5 -24.5t46.5 -66.5l77 -201h-192l-83 225q-7 22 -29 30t-49 8h-50l-42 -263h-185zM272 394h122q53 0 82 21t35 61q7 45 -17.5 66.5t-77.5 21.5h-117z" />
    <glyph glyph-name="S" unicode="S" horiz-adv-x="671" 
d="M298 -11q-79 0 -151 18t-119 48l58 142q45 -23 104.5 -40t123.5 -17q66 0 94.5 17t32.5 44q3 24 -10 39.5t-53 22.5l-116 20q-90 15 -137 70.5t-33 142.5q11 69 54 118t113 75.5t161 26.5q68 0 130.5 -16.5t99.5 -46.5l-60 -139q-35 23 -82 37t-107 14q-58 0 -90.5 -16.5
t-38.5 -48.5q-4 -22 10 -40.5t56 -25.5l115 -19q94 -16 138.5 -70t30.5 -140q-9 -63 -50.5 -112t-110.5 -76.5t-163 -27.5z" />
    <glyph glyph-name="T" unicode="T" horiz-adv-x="638" 
d="M186 0l88 556h-214l24 149h613l-24 -149h-214l-88 -556h-185z" />
    <glyph glyph-name="U" unicode="U" horiz-adv-x="751" 
d="M348 -11q-98 0 -166.5 34t-98.5 104.5t-13 179.5l64 398h184l-64 -409q-12 -75 13.5 -114t99.5 -39q66 0 102 38.5t49 117.5l64 406h182l-66 -413q-16 -100 -57.5 -167.5t-113.5 -101.5t-179 -34z" />
    <glyph glyph-name="V" unicode="V" horiz-adv-x="749" 
d="M260 0l-208 705h192l143 -536h-55l312 536h197l-432 -705h-149z" />
    <glyph glyph-name="W" unicode="W" horiz-adv-x="1131" 
d="M226 0l-140 705h184l83 -510h-45l264 510h133l84 -510h-43l258 510h185l-365 -705h-148l-87 459h22l-236 -459h-149z" />
    <glyph glyph-name="X" unicode="X" horiz-adv-x="693" 
d="M-72 0l363 397l-6 -83l-232 391h209l140 -257h-59l224 257h223l-357 -391l6 83l239 -397h-210l-147 263h59l-230 -263h-222z" />
    <glyph glyph-name="Y" unicode="Y" horiz-adv-x="656" 
d="M196 0l54 337l19 -102l-239 470h205l134 -283h-36l225 283h212l-390 -478l54 110l-53 -337h-185z" />
    <glyph glyph-name="Z" unicode="Z" horiz-adv-x="623" 
d="M7 0l21 135l425 471l-8 -51h-350l24 150h533l-22 -135l-425 -471l8 51h366l-24 -150h-548z" />
    <glyph glyph-name="bracketleft" unicode="[" horiz-adv-x="399" 
d="M28 -180l140 885h282l-20 -131h-108l-99 -623h108l-21 -131h-282z" />
    <glyph glyph-name="backslash" unicode="\" horiz-adv-x="352" 
d="M197 -63l-145 820h140l145 -820h-140z" />
    <glyph glyph-name="bracketright" unicode="]" horiz-adv-x="399" 
d="M-49 -180l20 131h108l98 623h-107l21 131h282l-140 -885h-282z" />
    <glyph glyph-name="asciicircum" unicode="^" horiz-adv-x="600" 
d="M24 140l269 488h132l115 -488h-126l-100 444h86l-241 -444h-135z" />
    <glyph glyph-name="underscore" unicode="_" horiz-adv-x="505" 
d="M-39 -101l16 101h471l-17 -101h-470z" />
    <glyph glyph-name="grave" unicode="`" horiz-adv-x="500" 
d="M262 557l-143 205h166l91 -205h-114z" />
    <glyph glyph-name="a" unicode="a" horiz-adv-x="644" 
d="M230 -11q-69 0 -118 36t-69.5 100t-7.5 147q20 124 91.5 185.5t169.5 61.5q59 0 102 -26.5t51 -70.5l-9 -4l26 90h171q-9 -34 -16.5 -69t-13.5 -69l-59 -370h-176l14 91h17q-22 -46 -66.5 -74t-106.5 -28zM295 121q44 0 75 30.5t41 94.5q12 77 -11.5 109t-70.5 32
q-44 0 -74.5 -30t-41.5 -95q-12 -76 11.5 -108.5t70.5 -32.5z" />
    <glyph glyph-name="b" unicode="b" horiz-adv-x="644" 
d="M348 -11q-58 0 -101 26.5t-52 70.5l10 5l-14 -91h-176l117 736h178l-50 -314l-18 -4q22 45 66.5 73t105.5 28q70 0 118.5 -35.5t69.5 -99.5t7 -148q-20 -123 -91.5 -185t-169.5 -62zM315 121q45 0 75.5 30.5t40.5 94.5q12 77 -11 109t-70 32q-44 0 -75 -30t-41 -95
q-12 -76 12 -108.5t69 -32.5z" />
    <glyph glyph-name="c" unicode="c" horiz-adv-x="514" 
d="M289 -11q-92 0 -153.5 36.5t-87.5 100.5t-13 146q20 123 103.5 185t206.5 62q45 0 92 -12.5t75 -36.5l-53 -120q-21 17 -51.5 26t-58.5 9q-50 0 -86 -29t-46 -93q-10 -60 16.5 -99.5t86.5 -39.5q25 0 55.5 10t56.5 28l45 -119q-29 -24 -80.5 -39t-107.5 -15z" />
    <glyph glyph-name="d" unicode="d" horiz-adv-x="644" 
d="M230 -11q-69 0 -118 36t-69.5 100t-7.5 147q20 124 91.5 185.5t169.5 61.5q59 0 102 -26.5t51 -70.5h-11l49 314h178l-117 -736h-175l14 91h16q-22 -46 -66.5 -74t-106.5 -28zM295 121q44 0 75 30.5t41 94.5q12 77 -11.5 109t-70.5 32q-44 0 -74.5 -30t-41.5 -95
q-12 -76 11.5 -108.5t70.5 -32.5z" />
    <glyph glyph-name="e" unicode="e" horiz-adv-x="552" 
d="M299 -11q-97 0 -160 36.5t-89.5 101t-13.5 148.5q12 75 49.5 129.5t96 84.5t133.5 30q78 0 128.5 -33.5t71.5 -92t8 -134.5l-5 -35h-341l13 84h210l-20 -18q9 57 -10 84.5t-60 27.5q-30 0 -51 -14t-34 -38.5t-18 -55.5l-7 -44q-8 -62 20.5 -95.5t104.5 -33.5q34 0 65.5 9
t65.5 29l45 -116q-43 -28 -94 -41t-108 -13z" />
    <glyph glyph-name="f" unicode="f" horiz-adv-x="404" 
d="M58 0l60 377h-95l21 131h145l-58 -46l12 71q16 104 80 155.5t181 51.5q25 0 49 -4t44 -11l-22 -136q-13 5 -26.5 7.5t-30.5 2.5q-20 0 -41.5 -6.5t-37.5 -22.5t-21 -44l-7 -45l-20 27h148l-21 -131h-122l-60 -377h-178z" />
    <glyph glyph-name="g" unicode="g" horiz-adv-x="644" 
d="M240 -224q-75 0 -131 13.5t-100 41.5l45 127q23 -16 53.5 -27t63 -17t63.5 -6q69 0 102.5 29.5t42.5 83.5l14 89h10q-19 -42 -63.5 -69t-105.5 -27q-68 0 -117.5 31.5t-72 92t-7.5 146.5q19 116 89 175.5t171 59.5q59 0 102 -26t51 -69l-7 2l24 82h171q-10 -34 -17.5 -69
t-12.5 -69l-52 -329q-21 -128 -100 -196.5t-216 -68.5zM298 145q47 0 77.5 30.5t39.5 87.5q9 62 -14 93t-69 31q-47 0 -77.5 -30.5t-40.5 -88.5q-9 -60 14 -91.5t70 -31.5z" />
    <glyph glyph-name="h" unicode="h" horiz-adv-x="623" 
d="M15 0l117 736h178l-50 -317h-16q30 50 78 75t106 25q90 0 129 -55t21 -169l-47 -295h-178l47 296q7 47 -8 67t-48 20q-43 0 -70.5 -27t-34.5 -71l-46 -285h-178z" />
    <glyph glyph-name="i" unicode="i" horiz-adv-x="288" 
d="M15 0l81 508h178l-81 -508h-178zM103 580l25 160h187l-26 -160h-186z" />
    <glyph glyph-name="j" unicode="j" horiz-adv-x="288" 
d="M-53 -225q-24 0 -47 3t-44 12l22 137q13 -5 26.5 -7t28.5 -2q28 0 51 16.5t30 59.5l81 514h178l-82 -520q-17 -105 -75.5 -159t-168.5 -54zM101 580l26 160h186l-25 -160h-187z" />
    <glyph glyph-name="k" unicode="k" horiz-adv-x="596" 
d="M15 0l117 736h178l-69 -433h2l197 205h216l-269 -272v61l197 -297h-209l-146 213h-2l-34 -213h-178z" />
    <glyph glyph-name="l" unicode="l" horiz-adv-x="288" 
d="M15 0l117 736h178l-117 -736h-178z" />
    <glyph glyph-name="m" unicode="m" horiz-adv-x="924" 
d="M15 0l59 370q5 34 8.5 69t5.5 69h171l-3 -88h-12q30 50 75 74.5t103 24.5q56 0 93.5 -26.5t45.5 -83.5h-21q32 52 84.5 81t107.5 29q91 0 128 -54.5t18 -171.5l-46 -293h-179l47 297q7 45 -5 65.5t-43 20.5q-39 0 -63.5 -28t-32.5 -77l-44 -278h-178l47 297
q7 45 -4.5 65.5t-43.5 20.5q-40 0 -63.5 -28t-31.5 -77l-45 -278h-178z" />
    <glyph glyph-name="n" unicode="n" horiz-adv-x="623" 
d="M15 0l59 370q5 34 8.5 69t5.5 69h171l-3 -88l-12 -1q30 50 78 75t106 25q90 0 129 -55t21 -169l-47 -295h-178l47 296q7 47 -8.5 67t-47.5 20q-43 0 -70.5 -27t-34.5 -71l-46 -285h-178z" />
    <glyph glyph-name="o" unicode="o" horiz-adv-x="617" 
d="M282 -11q-90 0 -150 34.5t-85 98t-12 150.5q13 82 55 137t105.5 82.5t141.5 27.5q91 0 150 -34.5t84 -97.5t11 -151q-13 -82 -54.5 -137t-104.5 -82.5t-141 -27.5zM292 121q42 0 72 30.5t41 94.5q12 77 -11 109t-68 32q-43 0 -72.5 -30t-40.5 -95q-12 -76 10.5 -108.5
t68.5 -32.5z" />
    <glyph glyph-name="p" unicode="p" horiz-adv-x="644" 
d="M-19 -216l93 586q6 34 9 69t5 69h171l-2 -90h-15q22 45 66.5 73t105.5 28q70 0 118.5 -35.5t69.5 -99.5t7 -148q-20 -123 -91.5 -185t-169.5 -62q-58 0 -101 26.5t-52 70.5h12l-48 -302h-178zM315 121q45 0 75.5 30.5t40.5 94.5q12 77 -11 109t-70 32q-44 0 -75 -30
t-41 -95q-12 -76 12 -108.5t69 -32.5z" />
    <glyph glyph-name="q" unicode="q" horiz-adv-x="644" 
d="M336 -216l48 302l19 5q-22 -46 -66.5 -74t-106.5 -28q-69 0 -118 36t-69.5 100t-7.5 147q20 124 91.5 185.5t169.5 61.5q59 0 102 -26.5t51 -70.5l-9 -4l26 90h171q-9 -34 -16.5 -69t-13.5 -69l-93 -586h-178zM295 121q44 0 75 30.5t41 94.5q12 77 -11.5 109t-70.5 32
q-44 0 -74.5 -30t-41.5 -95q-12 -76 11.5 -108.5t70.5 -32.5z" />
    <glyph glyph-name="r" unicode="r" horiz-adv-x="429" 
d="M15 0l59 369q5 35 8.5 70t5.5 69h171l-5 -156h-30q19 57 47.5 94t65.5 55t81 18q16 0 29 -1.5t24 -3.5l-26 -157q-20 9 -35.5 12t-39.5 3q-34 0 -62.5 -14.5t-48.5 -44t-27 -77.5l-37 -236h-180z" />
    <glyph glyph-name="s" unicode="s" horiz-adv-x="506" 
d="M221 -11q-68 0 -123.5 13.5t-90.5 36.5l46 116q37 -20 83.5 -33t92.5 -13q38 0 57 11t22 30q3 16 -7 26t-31 14l-93 14q-72 11 -102 51.5t-20 103.5q8 52 41 88t85 54t115 18q57 0 107 -11.5t85 -37.5l-50 -112q-28 18 -67.5 30t-74.5 12q-41 0 -61 -12t-23 -31
q-2 -14 6 -25t29 -14l94 -15q73 -11 103.5 -49.5t20.5 -103.5q-9 -54 -42.5 -90t-85.5 -53.5t-116 -17.5z" />
    <glyph glyph-name="t" unicode="t" horiz-adv-x="414" 
d="M275 -11q-110 0 -155.5 54.5t-30.5 153.5l29 180h-95l21 131h95l19 120l185 42l-26 -162h124l-21 -131h-124l-27 -173q-7 -42 11.5 -57.5t47.5 -15.5q16 0 27.5 2.5t27.5 7.5l-22 -137q-23 -9 -44.5 -12t-41.5 -3z" />
    <glyph glyph-name="u" unicode="u" horiz-adv-x="618" 
d="M209 -11q-96 0 -138 56.5t-26 161.5l48 301h178l-48 -302q-7 -41 8 -61t51 -20q41 0 66 27.5t32 72.5l45 283h178l-81 -508h-173l14 91h15q-29 -49 -71 -75.5t-98 -26.5z" />
    <glyph glyph-name="v" unicode="v" horiz-adv-x="559" 
d="M163 0l-140 508h180l78 -338h-36l191 338h181l-304 -508h-150z" />
    <glyph glyph-name="w" unicode="w" horiz-adv-x="900" 
d="M162 0l-130 508h174l73 -334h-25l178 334h113l71 -334h-21l178 334h176l-290 -508h-149l-83 345h68l-184 -345h-149z" />
    <glyph glyph-name="x" unicode="x" horiz-adv-x="566" 
d="M-80 0l294 300l-4 -77l-187 285h200l99 -165h-63l152 165h217l-279 -286l7 80l199 -302h-206l-111 179h66l-168 -179h-216z" />
    <glyph glyph-name="y" unicode="y" horiz-adv-x="558" 
d="M-19 -227l-27 138q50 9 84 19.5t57.5 28.5t41.5 47l34 58l-9 -67l-140 511h181l77 -337h-34l189 337h182l-310 -519q-37 -61 -74 -100t-76 -62t-82 -34.5t-94 -19.5z" />
    <glyph glyph-name="z" unicode="z" horiz-adv-x="534" 
d="M6 0l18 115l330 303l-7 -41h-281l21 131h446l-18 -115l-334 -308l7 45h295l-20 -130h-457z" />
    <glyph glyph-name="braceleft" unicode="{" horiz-adv-x="436" 
d="M242 -180q-54 0 -90 19.5t-51 52.5t-8 73l24 153q6 38 -2 55t-41 20l-47 5l20 127l47 6q32 3 47.5 19.5t21.5 54.5l25 155q12 75 51.5 110t100.5 35h150l-21 -131h-62q-18 0 -31.5 -8.5t-17.5 -33.5l-23 -148q-5 -36 -25 -64t-46.5 -43t-49.5 -15v4q23 0 43.5 -16.5
t32 -45t5.5 -64.5l-23 -147q-4 -25 5.5 -33.5t28.5 -8.5h64l-20 -131h-108z" />
    <glyph glyph-name="bar" unicode="|" horiz-adv-x="304" 
d="M-6 -180l140 885h178l-140 -885h-178z" />
    <glyph glyph-name="braceright" unicode="}" horiz-adv-x="436" 
d="M-52 -180l21 131h63q18 0 31.5 8.5t17.5 33.5l23 148q6 37 26 64.5t46 42.5t49 15l1 -4q-23 0 -44 16.5t-32 45.5t-6 65l23 146q5 25 -5 33.5t-29 8.5h-65l20 131h109q55 0 90.5 -19.5t50.5 -52t9 -73.5l-25 -153q-6 -38 2 -55t41 -20l47 -5l-20 -127l-46 -5
q-33 -4 -48.5 -20.5t-21.5 -54.5l-24 -155q-12 -75 -52 -110t-101 -35h-151z" />
    <glyph glyph-name="asciitilde" unicode="~" horiz-adv-x="600" 
d="M413 199q-31 0 -62 12t-59 25q-24 11 -45 19t-37 8q-22 0 -40.5 -13.5t-33.5 -44.5l-79 59q24 52 59.5 82t80.5 30q32 0 63.5 -12.5t60.5 -25.5q24 -10 44 -18t35 -8q23 0 41.5 13.5t34.5 43.5l79 -59q-24 -51 -60.5 -81t-81.5 -30z" />
    <glyph glyph-name="uni00A0" unicode="&#xa0;" horiz-adv-x="289" 
 />
    <glyph glyph-name="exclamdown" unicode="&#xa1;" horiz-adv-x="272" 
d="M-42 -180l127 450h107l-16 -450h-218zM55 326l29 182h185l-29 -182h-185z" />
    <glyph glyph-name="cent" unicode="&#xa2;" horiz-adv-x="600" 
d="M189 -115l24 151l27 -36q-91 20 -137.5 87.5t-30.5 166.5q15 96 76.5 160t169.5 81l-39 -42l25 159h138l-23 -148l-33 35q52 -1 94 -13t69 -35l-52 -120q-21 16 -51.5 25t-58.5 9q-50 0 -87 -27.5t-46 -84.5q-6 -35 3.5 -64.5t35 -47t65.5 -17.5q25 0 55 10t57 27
l45 -118q-36 -26 -92.5 -41.5t-117.5 -12.5l44 37l-22 -141h-138z" />
    <glyph glyph-name="sterling" unicode="&#xa3;" horiz-adv-x="600" 
d="M-1 0l18 120q35 10 55 26t24 47l18 109h-68l15 103h69l12 76q19 111 91 173t192 62q65 0 118 -17t89 -48l-61 -128q-36 28 -68.5 39.5t-67.5 11.5q-51 0 -76.5 -23t-31.5 -66l-13 -80h150l-16 -103h-148l-12 -72q-5 -33 -22 -55.5t-46 -32.5l1 5h336l-23 -147h-535z" />
    <glyph glyph-name="currency" unicode="&#xa4;" horiz-adv-x="600" 
d="M120 -34l-61 60l73 75q-21 31 -33 67.5t-12 76.5q0 41 12 77.5t33 67.5l-73 74l61 61l74 -74q29 20 64 31t72 11q39 0 73.5 -10.5t63.5 -31.5l74 77l66 -67l-75 -76q20 -30 30.5 -65.5t10.5 -74.5t-11 -75.5t-32 -66.5l75 -77l-61 -59l-73 75q-30 -22 -65.5 -33.5
t-75.5 -11.5q-38 0 -73 11.5t-65 31.5zM331 134q29 0 52.5 15.5t37.5 40.5t14 55q0 31 -14 56t-37.5 40t-52.5 15q-28 1 -52 -14.5t-38 -40.5t-14 -56q0 -30 13.5 -55t37 -40.5t53.5 -15.5z" />
    <glyph glyph-name="yen" unicode="&#xa5;" horiz-adv-x="600" 
d="M168 0l24 151h-145l15 99h145l10 61h-145l16 98h116l-4 -20l-157 316h190l111 -247h-37l192 247h202l-260 -316l4 20h117l-16 -98h-145l-10 -61h145l-14 -99h-146l-25 -151h-183z" />
    <glyph glyph-name="brokenbar" unicode="&#xa6;" horiz-adv-x="304" 
d="M81 371l53 334h178l-53 -334h-178zM-6 -180l53 334h178l-53 -334h-178z" />
    <glyph glyph-name="section" unicode="&#xa7;" horiz-adv-x="603" 
d="M244 -191q-62 0 -124 17t-118 51l55 113q24 -18 55 -32t64 -21.5t62 -7.5q38 0 61.5 16t23.5 47q0 22 -11.5 36.5t-37.5 27.5l-131 69q-54 29 -81.5 69t-27.5 86q0 60 26 99.5t77 68.5l-5 -15q-9 17 -14.5 36.5t-5.5 42.5q0 66 34 111.5t90 69t125 23.5q56 0 112.5 -15
t105.5 -47l-47 -110q-37 23 -83 37.5t-85 14.5q-37 0 -60.5 -16t-23.5 -48q0 -21 11.5 -36t37.5 -29l131 -69q55 -30 82.5 -69t27.5 -86q0 -58 -28 -99t-79 -71l4 24q13 -18 19 -38.5t6 -43.5q0 -68 -33.5 -114t-90 -69t-124.5 -23zM189 313q0 -22 15.5 -41t43.5 -33
l121 -62q12 -7 22 -13.5t18 -13.5l-18 -3q13 17 18 33t5 31q0 22 -15 40.5t-44 33.5l-121 62q-11 7 -21.5 13.5t-17.5 14.5l21 9q-15 -19 -21 -37t-6 -34z" />
    <glyph glyph-name="dieresis" unicode="&#xa8;" horiz-adv-x="500" 
d="M331 582l23 150h149l-23 -150h-149zM125 582l23 150h148l-22 -150h-149z" />
    <glyph glyph-name="copyright" unicode="&#xa9;" horiz-adv-x="815" 
d="M428 -11q-77 0 -143.5 27.5t-116 77t-77 116t-27.5 143.5t27.5 143.5t77 115.5t116 76.5t143.5 27.5q78 0 144 -27.5t115.5 -76.5t77 -115.5t27.5 -143.5t-28 -143.5t-77 -116t-115.5 -77t-143.5 -27.5zM451 137q-104 0 -165.5 58t-61.5 158t61.5 157.5t165.5 57.5
q40 0 81 -11t66 -32l-39 -102q-19 15 -42.5 24t-50.5 9q-44 0 -69 -27.5t-25 -75.5q0 -49 25 -76t69 -27q27 0 50.5 8.5t42.5 24.5l39 -103q-25 -20 -66 -31.5t-81 -11.5zM428 53q64 0 118 22.5t94 63.5t62 95.5t22 118.5t-22 118.5t-62 95t-94 63t-117 22.5
q-65 0 -119.5 -22.5t-94 -63t-61.5 -95t-22 -118.5t22 -118.5t61.5 -95.5t94 -63.5t118.5 -22.5z" />
    <glyph glyph-name="ordfeminine" unicode="&#xaa;" horiz-adv-x="358" 
d="M159 404q-31 0 -56.5 13t-37.5 37.5t-8 57.5q5 28 25.5 45.5t60 26t97.5 8.5h47l-9 -55h-51q-56 0 -61 -30q-1 -14 7 -23t27 -9q24 0 43 16.5t24 46.5l9 58q2 19 -9.5 29.5t-42.5 10.5q-22 0 -52 -6t-58 -19l-21 75q27 13 68.5 21.5t77.5 8.5q86 0 120.5 -34.5
t23.5 -101.5l-27 -169h-104l9 56h-3q-19 -30 -42.5 -46.5t-56.5 -16.5z" />
    <glyph glyph-name="guillemotleft" unicode="&#xab;" horiz-adv-x="561" 
d="M125 84l-103 183l160 185h152l-164 -193l94 -175h-139zM364 84l-103 183l160 185h152l-164 -193l94 -175h-139z" />
    <glyph glyph-name="logicalnot" unicode="&#xac;" horiz-adv-x="600" 
d="M401 129l32 198h-366l19 119h489l-50 -317h-124z" />
    <glyph glyph-name="uni00AD" unicode="&#xad;" horiz-adv-x="449" 
d="M54 207l22 138h326l-21 -138h-327z" />
    <glyph glyph-name="registered" unicode="&#xae;" horiz-adv-x="815" 
d="M428 -11q-77 0 -143.5 27.5t-116 77t-77 116t-27.5 143.5t27.5 143.5t77 115.5t116 76.5t143.5 27.5q78 0 144 -27.5t115.5 -76.5t77 -115.5t27.5 -143.5t-28 -143.5t-77 -116t-115.5 -77t-143.5 -27.5zM428 53q64 0 118 22.5t94 63.5t62 95.5t22 118.5t-22 118.5t-62 95
t-94 63t-117 22.5q-65 0 -119.5 -22.5t-94 -63t-61.5 -95t-22 -118.5t22 -118.5t61.5 -95.5t94 -63.5t118.5 -22.5zM260 142v424h197q73 0 113 -37t40 -91q0 -58 -38.5 -89t-106.5 -31l34 12q36 0 56.5 -17.5t32.5 -70.5l25 -100h-132l-29 119q-4 18 -14 24.5t-24 6.5h-41
l19 12v-162h-132zM390 386h48q24 0 36 10t12 33t-12.5 33t-35.5 10h-48v-86z" />
    <glyph glyph-name="macron" unicode="&#xaf;" horiz-adv-x="500" 
d="M137 605l15 97h338l-15 -97h-338z" />
    <glyph glyph-name="degree" unicode="&#xb0;" horiz-adv-x="389" 
d="M244 391q-48 0 -86 21t-59.5 58t-21.5 83q0 47 21.5 83.5t59.5 57.5t86 21t85.5 -21t59.5 -57.5t22 -83.5q0 -46 -22 -83t-59.5 -58t-85.5 -21zM244 482q29 0 48 20.5t19 50.5t-19 50.5t-49 20.5q-28 0 -47.5 -20.5t-19.5 -50.5t19.5 -50.5t48.5 -20.5z" />
    <glyph glyph-name="plusminus" unicode="&#xb1;" horiz-adv-x="600" 
d="M222 153l20 130h-182l19 120h183l20 129h123l-20 -129h182l-19 -120h-182l-21 -130h-123zM15 0l19 119h488l-18 -119h-489z" />
    <glyph glyph-name="uni00B2" unicode="&#xb2;" horiz-adv-x="380" 
d="M44 282l16 101l132 110q24 20 36 36t14 30q4 19 -6.5 28.5t-33.5 9.5q-21 0 -48.5 -7.5t-48.5 -20.5l-14 105q30 16 69 25.5t86 9.5q81 0 121 -36.5t30 -96.5q-5 -30 -26 -58t-60 -60l-86 -72l-3 9h159l-19 -113h-318z" />
    <glyph glyph-name="uni00B3" unicode="&#xb3;" horiz-adv-x="380" 
d="M202 276q-52 0 -92 7t-69 22l26 101q24 -13 56 -19t68 -6q32 0 48.5 9.5t18.5 26.5q3 14 -8 21t-32 7h-91l15 98h77q23 0 35.5 8t14.5 22q2 15 -9.5 23.5t-40.5 8.5q-30 0 -62.5 -9t-52.5 -20l-14 101q35 16 76.5 24t86.5 8q82 0 122 -32t31 -86q-6 -40 -38.5 -67.5
t-77.5 -33.5l3 15q51 -3 76 -32t17 -78q-8 -55 -60 -87t-124 -32z" />
    <glyph glyph-name="acute" unicode="&#xb4;" horiz-adv-x="500" 
d="M241 557l130 205h171l-187 -205h-114z" />
    <glyph glyph-name="uni00B5" unicode="&#xb5;" horiz-adv-x="593" 
d="M-27 -216l113 724h178l-46 -303q-5 -39 6.5 -59.5t43.5 -20.5q39 0 65 28.5t33 78.5l41 276h178l-78 -508h-173l14 90h-1q-15 -48 -39 -74.5t-57 -26.5q-25 0 -44 10.5t-29 29.5h-2l-25 -245h-178z" />
    <glyph glyph-name="paragraph" unicode="&#xb6;" horiz-adv-x="671" 
d="M189 -180l67 424q-58 0 -103 26.5t-69.5 72t-24.5 102.5q0 79 34.5 137.5t95 90.5t138.5 32h350l-140 -885h-123l121 760h-104l-120 -760h-122z" />
    <glyph glyph-name="periodcentered" unicode="&#xb7;" horiz-adv-x="275" 
d="M34 186l28 182h186l-28 -182h-186z" />
    <glyph glyph-name="cedilla" unicode="&#xb8;" horiz-adv-x="500" 
d="M178 -198q-33 0 -63.5 5.5t-52.5 17.5l31 70q17 -8 36 -12.5t37 -4.5q27 0 39 5.5t12 17.5q0 7 -7.5 11.5t-26.5 4.5q-8 0 -16.5 -1t-19.5 -3l-19 21l26 86h84l-24 -77l-39 17q12 5 24 7t22 2q45 0 69 -18t24 -51q0 -45 -39 -71.5t-97 -26.5z" />
    <glyph glyph-name="uni00B9" unicode="&#xb9;" horiz-adv-x="380" 
d="M41 282l19 113h100l30 189h55l-155 -70l20 127l139 64h100l-49 -310h84l-18 -113h-325z" />
    <glyph glyph-name="ordmasculine" unicode="&#xba;" horiz-adv-x="374" 
d="M220 406q-79 0 -121.5 44.5t-31.5 120.5q11 66 58.5 105.5t126.5 39.5q80 0 122.5 -43t30.5 -120q-10 -65 -57.5 -106t-127.5 -41zM225 490q26 0 44.5 18.5t24.5 53.5q5 36 -7.5 54t-39.5 18q-26 0 -44.5 -17.5t-23.5 -54.5q-6 -36 6.5 -54t39.5 -18z" />
    <glyph glyph-name="guillemotright" unicode="&#xbb;" horiz-adv-x="561" 
d="M148 84h-151l163 194l-94 174h140l102 -183zM386 84h-151l163 194l-94 174h140l102 -183z" />
    <glyph glyph-name="onequarter" unicode="&#xbc;" horiz-adv-x="936" 
d="M41 282l19 113h100l30 189h55l-155 -70l20 127l139 64h100l-49 -310h84l-18 -113h-325zM323 -11h-149l539 727h148zM712 0l10 63h-188l14 92l240 268h117l-41 -260h53l-16 -100h-53l-10 -63h-126zM743 163l20 132h13l-129 -146v14h96z" />
    <glyph glyph-name="onehalf" unicode="&#xbd;" horiz-adv-x="988" 
d="M41 282l19 113h100l30 189h55l-155 -70l20 127l139 64h100l-49 -310h84l-18 -113h-325zM323 -11h-149l539 727h148zM607 0l16 101l132 110q24 20 36 36t14 30q4 19 -6.5 28.5t-33.5 9.5q-21 0 -48.5 -7.5t-48.5 -20.5l-14 105q30 16 69 25.5t86 9.5q81 0 121 -36.5
t30 -96.5q-5 -30 -26 -58t-60 -60l-86 -72l-3 9h159l-19 -113h-318z" />
    <glyph glyph-name="threequarters" unicode="&#xbe;" horiz-adv-x="936" 
d="M202 276q-52 0 -92 7t-69 22l26 101q24 -13 56 -19t68 -6q32 0 48.5 9.5t18.5 26.5q3 14 -8 21t-32 7h-91l15 98h77q23 0 35.5 8t14.5 22q2 15 -9.5 23.5t-40.5 8.5q-30 0 -62.5 -9t-52.5 -20l-14 101q35 16 76.5 24t86.5 8q82 0 122 -32t31 -86q-6 -40 -38.5 -67.5
t-77.5 -33.5l3 15q51 -3 76 -32t17 -78q-8 -55 -60 -87t-124 -32zM323 -11h-149l539 727h148zM712 0l10 63h-188l14 92l240 268h117l-41 -260h53l-16 -100h-53l-10 -63h-126zM743 163l20 132h13l-129 -146v14h96z" />
    <glyph glyph-name="questiondown" unicode="&#xbf;" horiz-adv-x="483" 
d="M168 -196q-56 0 -100.5 19t-69 53t-24.5 79q0 41 16 74.5t43.5 61t64.5 50.5q55 36 75.5 62.5t29.5 46.5l11 20h105l-9 -41q-5 -27 -15 -51t-28.5 -47.5t-48.5 -49.5q-17 -14 -30.5 -29t-21.5 -30.5t-8 -30.5q0 -19 16.5 -30t46.5 -11q40 0 82.5 14.5t80.5 35.5l-23 -147
q-39 -23 -92.5 -36t-100.5 -13zM397 508l-29 -182h-186l29 182h186z" />
    <glyph glyph-name="Agrave" unicode="&#xc0;" horiz-adv-x="769" 
d="M-62 0l442 705h150l220 -705h-179l-54 194l63 -51h-414l78 51l-115 -194h-191zM430 515l-161 -279l-21 47h294l-33 -47l-74 279h-5zM405 765l-159 176h175l106 -176h-122z" />
    <glyph glyph-name="Aacute" unicode="&#xc1;" horiz-adv-x="769" 
d="M-62 0l442 705h150l220 -705h-179l-54 194l63 -51h-414l78 51l-115 -194h-191zM430 515l-161 -279l-21 47h294l-33 -47l-74 279h-5zM405 765l130 176h182l-190 -176h-122z" />
    <glyph glyph-name="Acircumflex" unicode="&#xc2;" horiz-adv-x="769" 
d="M-62 0l442 705h150l220 -705h-179l-54 194l63 -51h-414l78 51l-115 -194h-191zM430 515l-161 -279l-21 47h294l-33 -47l-74 279h-5zM262 765l143 176h145l110 -176h-119l-71 86l-89 -86h-119z" />
    <glyph glyph-name="Atilde" unicode="&#xc3;" horiz-adv-x="769" 
d="M-62 0l442 705h150l220 -705h-179l-54 194l63 -51h-414l78 51l-115 -194h-191zM430 515l-161 -279l-21 47h294l-33 -47l-74 279h-5zM304 759l-81 6q11 79 53 122t105 43q31 0 57 -9.5t49 -21.5q20 -8 38.5 -15.5t36.5 -7.5q55 0 72 59l81 -5q-12 -80 -53.5 -122.5
t-104.5 -42.5q-31 0 -57 9.5t-49 20.5q-20 9 -38.5 16t-37.5 7q-54 0 -71 -59z" />
    <glyph glyph-name="Adieresis" unicode="&#xc4;" horiz-adv-x="769" 
d="M-62 0l442 705h150l220 -705h-179l-54 194l63 -51h-414l78 51l-115 -194h-191zM430 515l-161 -279l-21 47h294l-33 -47l-74 279h-5zM495 771l24 149h148l-24 -149h-148zM288 771l24 149h149l-24 -149h-149z" />
    <glyph glyph-name="Aring" unicode="&#xc5;" horiz-adv-x="769" 
d="M-62 0l442 705h150l220 -705h-179l-54 194l63 -51h-414l78 51l-115 -194h-191zM430 515l-161 -279l-21 47h294l-33 -47l-74 279h-5zM477 752q-38 0 -69 17t-48.5 47t-17.5 67t17.5 66.5t48.5 46.5t68 17q39 0 69.5 -17t48.5 -46.5t18 -67.5q0 -36 -18 -66t-48.5 -47
t-68.5 -17zM476 825q25 0 41 16.5t16 40.5q0 25 -16 41t-40 16q-25 0 -41 -16t-16 -41q0 -24 16 -40.5t40 -16.5z" />
    <glyph glyph-name="AE" unicode="&#xc6;" horiz-adv-x="1030" 
d="M-82 0l558 705h593l-22 -141h-351l29 19l-18 -205l-10 51h306l-22 -142h-308l27 10l-16 -189l-16 34h312l-23 -142h-446l16 191l24 -48h-351l63 47l-143 -190h-202zM545 563l-245 -323l-7 44h260l-22 -51l28 330h-14z" />
    <glyph glyph-name="Ccedilla" unicode="&#xc7;" horiz-adv-x="685" 
d="M395 -11q-125 0 -204.5 50t-111 136.5t-14.5 195.5q17 110 72.5 187.5t143 118t199.5 39.5q69 0 124.5 -18t92.5 -47l-61 -146q-40 28 -77 39.5t-86 11.5q-86 0 -143.5 -49.5t-72.5 -142.5q-10 -66 5 -114.5t54.5 -74.5t103.5 -26q44 0 87.5 13.5t90.5 46.5l48 -145
q-52 -36 -116.5 -55.5t-134.5 -19.5zM342 -198q-33 0 -63.5 5.5t-52.5 17.5l31 70q17 -8 36 -12.5t37 -4.5q27 0 39 5.5t12 17.5q0 7 -7.5 11.5t-26.5 4.5q-8 0 -16.5 -1t-19.5 -3l-19 21l26 86h84l-24 -77l-39 17q12 5 24 7t22 2q45 0 69 -18t24 -51q0 -45 -39 -71.5
t-97 -26.5z" />
    <glyph glyph-name="Egrave" unicode="&#xc8;" horiz-adv-x="603" 
d="M25 0l112 705h506l-23 -141h-329l-21 -135h305l-22 -142h-306l-23 -145h329l-22 -142h-506zM360 765l-159 176h175l106 -176h-122z" />
    <glyph glyph-name="Eacute" unicode="&#xc9;" horiz-adv-x="603" 
d="M25 0l112 705h506l-23 -141h-329l-21 -135h305l-22 -142h-306l-23 -145h329l-22 -142h-506zM360 765l130 176h182l-190 -176h-122z" />
    <glyph glyph-name="Ecircumflex" unicode="&#xca;" horiz-adv-x="603" 
d="M25 0l112 705h506l-23 -141h-329l-21 -135h305l-22 -142h-306l-23 -145h329l-22 -142h-506zM217 765l143 176h145l110 -176h-119l-71 86l-89 -86h-119z" />
    <glyph glyph-name="Edieresis" unicode="&#xcb;" horiz-adv-x="603" 
d="M25 0l112 705h506l-23 -141h-329l-21 -135h305l-22 -142h-306l-23 -145h329l-22 -142h-506zM450 771l24 149h148l-24 -149h-148zM243 771l24 149h149l-24 -149h-149z" />
    <glyph glyph-name="Igrave" unicode="&#xcc;" horiz-adv-x="315" 
d="M25 0l112 705h185l-112 -705h-185zM178 765l-159 176h175l106 -176h-122z" />
    <glyph glyph-name="Iacute" unicode="&#xcd;" horiz-adv-x="315" 
d="M25 0l112 705h185l-112 -705h-185zM178 765l130 176h182l-190 -176h-122z" />
    <glyph glyph-name="Icircumflex" unicode="&#xce;" horiz-adv-x="315" 
d="M25 0l112 705h185l-112 -705h-185zM35 765l143 176h145l110 -176h-119l-71 86l-89 -86h-119z" />
    <glyph glyph-name="Idieresis" unicode="&#xcf;" horiz-adv-x="315" 
d="M25 0l112 705h185l-112 -705h-185zM268 771l24 149h148l-24 -149h-148zM61 771l24 149h149l-24 -149h-149z" />
    <glyph glyph-name="Eth" unicode="&#xd0;" horiz-adv-x="781" 
d="M25 0l112 705h267q134 0 216.5 -46t114 -128.5t13.5 -195.5q-27 -167 -138 -251t-293 -84h-292zM234 150h88q108 0 168 48t76 143q17 113 -28 164t-155 51h-86zM-10 291l21 130h449l-20 -130h-450z" />
    <glyph glyph-name="Ntilde" unicode="&#xd1;" horiz-adv-x="765" 
d="M25 0l112 705h136l285 -455l-28 12l71 443h171l-112 -705h-136l-284 455l28 -12l-70 -443h-173zM307 759l-81 6q11 79 53 122t105 43q31 0 57 -9.5t49 -21.5q20 -8 38.5 -15.5t36.5 -7.5q55 0 72 59l81 -5q-12 -80 -53.5 -122.5t-104.5 -42.5q-31 0 -57 9.5t-49 20.5
q-20 9 -38.5 16t-37.5 7q-54 0 -71 -59z" />
    <glyph glyph-name="Ograve" unicode="&#xd2;" horiz-adv-x="804" 
d="M65 371q17 110 70 187t135 117.5t186 40.5q120 0 195.5 -49.5t106.5 -136t13 -195.5q-17 -110 -70.5 -187t-135 -118t-187.5 -41q-118 0 -194 50t-106 136.5t-13 195.5zM256 361q-11 -69 1.5 -118t47 -74.5t89.5 -25.5q79 0 125 55t60 147q12 69 -1 117.5t-47.5 74
t-90.5 25.5q-79 0 -124 -54t-60 -147zM423 765l-159 176h175l106 -176h-122z" />
    <glyph glyph-name="Oacute" unicode="&#xd3;" horiz-adv-x="804" 
d="M65 371q17 110 70 187t135 117.5t186 40.5q120 0 195.5 -49.5t106.5 -136t13 -195.5q-17 -110 -70.5 -187t-135 -118t-187.5 -41q-118 0 -194 50t-106 136.5t-13 195.5zM256 361q-11 -69 1.5 -118t47 -74.5t89.5 -25.5q79 0 125 55t60 147q12 69 -1 117.5t-47.5 74
t-90.5 25.5q-79 0 -124 -54t-60 -147zM423 765l130 176h182l-190 -176h-122z" />
    <glyph glyph-name="Ocircumflex" unicode="&#xd4;" horiz-adv-x="804" 
d="M65 371q17 110 70 187t135 117.5t186 40.5q120 0 195.5 -49.5t106.5 -136t13 -195.5q-17 -110 -70.5 -187t-135 -118t-187.5 -41q-118 0 -194 50t-106 136.5t-13 195.5zM256 361q-11 -69 1.5 -118t47 -74.5t89.5 -25.5q79 0 125 55t60 147q12 69 -1 117.5t-47.5 74
t-90.5 25.5q-79 0 -124 -54t-60 -147zM280 765l143 176h145l110 -176h-119l-71 86l-89 -86h-119z" />
    <glyph glyph-name="Otilde" unicode="&#xd5;" horiz-adv-x="804" 
d="M65 371q17 110 70 187t135 117.5t186 40.5q120 0 195.5 -49.5t106.5 -136t13 -195.5q-17 -110 -70.5 -187t-135 -118t-187.5 -41q-118 0 -194 50t-106 136.5t-13 195.5zM256 361q-11 -69 1.5 -118t47 -74.5t89.5 -25.5q79 0 125 55t60 147q12 69 -1 117.5t-47.5 74
t-90.5 25.5q-79 0 -124 -54t-60 -147zM322 759l-81 6q11 79 53 122t105 43q31 0 57 -9.5t49 -21.5q20 -8 38.5 -15.5t36.5 -7.5q55 0 72 59l81 -5q-12 -80 -53.5 -122.5t-104.5 -42.5q-31 0 -57 9.5t-49 20.5q-20 9 -38.5 16t-37.5 7q-54 0 -71 -59z" />
    <glyph glyph-name="Odieresis" unicode="&#xd6;" horiz-adv-x="804" 
d="M65 371q17 110 70 187t135 117.5t186 40.5q120 0 195.5 -49.5t106.5 -136t13 -195.5q-17 -110 -70.5 -187t-135 -118t-187.5 -41q-118 0 -194 50t-106 136.5t-13 195.5zM256 361q-11 -69 1.5 -118t47 -74.5t89.5 -25.5q79 0 125 55t60 147q12 69 -1 117.5t-47.5 74
t-90.5 25.5q-79 0 -124 -54t-60 -147zM513 771l24 149h148l-24 -149h-148zM306 771l24 149h149l-24 -149h-149z" />
    <glyph glyph-name="multiply" unicode="&#xd7;" horiz-adv-x="600" 
d="M149 52l-81 84l164 151l-137 149l86 85l137 -151l164 151l81 -85l-164 -150l137 -150l-86 -84l-137 150z" />
    <glyph glyph-name="Oslash" unicode="&#xd8;" horiz-adv-x="804" 
d="M65 371q17 110 70 187t135 117.5t186 40.5q120 0 195.5 -49.5t106.5 -136t13 -195.5q-17 -110 -70.5 -187t-135 -118t-187.5 -41q-118 0 -194 50t-106 136.5t-13 195.5zM256 361q-11 -69 1.5 -118t47 -74.5t89.5 -25.5q79 0 125 55t60 147q12 69 -1 117.5t-47.5 74
t-90.5 25.5q-79 0 -124 -54t-60 -147zM291 66l-94 -127l-109 74l95 127l70 74l270 353l38 74l95 127l108 -74l-95 -127l-70 -74l-270 -353z" />
    <glyph glyph-name="Ugrave" unicode="&#xd9;" horiz-adv-x="751" 
d="M348 -11q-98 0 -166.5 34t-98.5 104.5t-13 179.5l64 398h184l-64 -409q-12 -75 13.5 -114t99.5 -39q66 0 102 38.5t49 117.5l64 406h182l-66 -413q-16 -100 -57.5 -167.5t-113.5 -101.5t-179 -34zM399 765l-159 176h175l106 -176h-122z" />
    <glyph glyph-name="Uacute" unicode="&#xda;" horiz-adv-x="751" 
d="M348 -11q-98 0 -166.5 34t-98.5 104.5t-13 179.5l64 398h184l-64 -409q-12 -75 13.5 -114t99.5 -39q66 0 102 38.5t49 117.5l64 406h182l-66 -413q-16 -100 -57.5 -167.5t-113.5 -101.5t-179 -34zM399 765l130 176h182l-190 -176h-122z" />
    <glyph glyph-name="Ucircumflex" unicode="&#xdb;" horiz-adv-x="751" 
d="M348 -11q-98 0 -166.5 34t-98.5 104.5t-13 179.5l64 398h184l-64 -409q-12 -75 13.5 -114t99.5 -39q66 0 102 38.5t49 117.5l64 406h182l-66 -413q-16 -100 -57.5 -167.5t-113.5 -101.5t-179 -34zM256 765l143 176h145l110 -176h-119l-71 86l-89 -86h-119z" />
    <glyph glyph-name="Udieresis" unicode="&#xdc;" horiz-adv-x="751" 
d="M348 -11q-98 0 -166.5 34t-98.5 104.5t-13 179.5l64 398h184l-64 -409q-12 -75 13.5 -114t99.5 -39q66 0 102 38.5t49 117.5l64 406h182l-66 -413q-16 -100 -57.5 -167.5t-113.5 -101.5t-179 -34zM489 771l24 149h148l-24 -149h-148zM282 771l24 149h149l-24 -149h-149z
" />
    <glyph glyph-name="Yacute" unicode="&#xdd;" horiz-adv-x="656" 
d="M196 0l54 337l19 -102l-239 470h205l134 -283h-36l225 283h212l-390 -478l54 110l-53 -337h-185zM349 765l130 176h182l-190 -176h-122z" />
    <glyph glyph-name="Thorn" unicode="&#xde;" horiz-adv-x="686" 
d="M25 0l112 705h185l-18 -108h144q129 0 186 -65t40 -173q-9 -59 -43 -105.5t-92 -72.5t-142 -26h-163l-24 -155h-185zM257 296h137q49 0 74.5 19.5t30.5 55.5q6 41 -14 62.5t-70 21.5h-133z" />
    <glyph glyph-name="germandbls" unicode="&#xdf;" horiz-adv-x="721" 
d="M15 0l71 450q24 148 106 222t236 74q76 0 132 -23.5t83.5 -69.5t16.5 -114q-5 -33 -23.5 -65.5t-58 -62t-107.5 -53.5l4 32q74 -21 125.5 -50t75 -71.5t13.5 -104.5q-9 -59 -42.5 -98t-84 -58t-109.5 -19q-69 0 -115 13t-82 36l46 115q35 -18 71 -29.5t72 -11.5
q34 0 54 15t24 41t-12 48.5t-58.5 43.5t-120.5 40l21 131q52 13 81 29t42.5 34.5t16.5 40.5q7 39 -15 61.5t-68 22.5q-56 0 -92.5 -31.5t-48.5 -111.5l-76 -476h-178z" />
    <glyph glyph-name="agrave" unicode="&#xe0;" horiz-adv-x="644" 
d="M230 -11q-69 0 -118 36t-69.5 100t-7.5 147q20 124 91.5 185.5t169.5 61.5q59 0 102 -26.5t51 -70.5l-9 -4l26 90h171q-9 -34 -16.5 -69t-13.5 -69l-59 -370h-176l14 91h17q-22 -46 -66.5 -74t-106.5 -28zM295 121q44 0 75 30.5t41 94.5q12 77 -11.5 109t-70.5 32
q-44 0 -74.5 -30t-41.5 -95q-12 -76 11.5 -108.5t70.5 -32.5zM308 557l-143 205h166l91 -205h-114z" />
    <glyph glyph-name="aacute" unicode="&#xe1;" horiz-adv-x="644" 
d="M230 -11q-69 0 -118 36t-69.5 100t-7.5 147q20 124 91.5 185.5t169.5 61.5q59 0 102 -26.5t51 -70.5l-9 -4l26 90h171q-9 -34 -16.5 -69t-13.5 -69l-59 -370h-176l14 91h17q-22 -46 -66.5 -74t-106.5 -28zM295 121q44 0 75 30.5t41 94.5q12 77 -11.5 109t-70.5 32
q-44 0 -74.5 -30t-41.5 -95q-12 -76 11.5 -108.5t70.5 -32.5zM309 557l130 205h171l-187 -205h-114z" />
    <glyph glyph-name="acircumflex" unicode="&#xe2;" horiz-adv-x="644" 
d="M230 -11q-69 0 -118 36t-69.5 100t-7.5 147q20 124 91.5 185.5t169.5 61.5q59 0 102 -26.5t51 -70.5l-9 -4l26 90h171q-9 -34 -16.5 -69t-13.5 -69l-59 -370h-176l14 91h17q-22 -46 -66.5 -74t-106.5 -28zM295 121q44 0 75 30.5t41 94.5q12 77 -11.5 109t-70.5 32
q-44 0 -74.5 -30t-41.5 -95q-12 -76 11.5 -108.5t70.5 -32.5zM173 557l132 205h148l91 -205h-107l-66 113l-90 -113h-108z" />
    <glyph glyph-name="atilde" unicode="&#xe3;" horiz-adv-x="644" 
d="M230 -11q-69 0 -118 36t-69.5 100t-7.5 147q20 124 91.5 185.5t169.5 61.5q59 0 102 -26.5t51 -70.5l-9 -4l26 90h171q-9 -34 -16.5 -69t-13.5 -69l-59 -370h-176l14 91h17q-22 -46 -66.5 -74t-106.5 -28zM295 121q44 0 75 30.5t41 94.5q12 77 -11.5 109t-70.5 32
q-44 0 -74.5 -30t-41.5 -95q-12 -76 11.5 -108.5t70.5 -32.5zM241 577l-81 5q9 80 48 122.5t97 42.5q27 0 46.5 -9t35.5 -20q14 -10 29 -17t33 -7q49 0 65 59l81 -6q-10 -79 -48.5 -122t-96.5 -43q-27 0 -47.5 10t-37.5 21q-15 9 -29 16t-31 7q-48 0 -64 -59z" />
    <glyph glyph-name="adieresis" unicode="&#xe4;" horiz-adv-x="644" 
d="M230 -11q-69 0 -118 36t-69.5 100t-7.5 147q20 124 91.5 185.5t169.5 61.5q59 0 102 -26.5t51 -70.5l-9 -4l26 90h171q-9 -34 -16.5 -69t-13.5 -69l-59 -370h-176l14 91h17q-22 -46 -66.5 -74t-106.5 -28zM295 121q44 0 75 30.5t41 94.5q12 77 -11.5 109t-70.5 32
q-44 0 -74.5 -30t-41.5 -95q-12 -76 11.5 -108.5t70.5 -32.5zM399 582l23 150h149l-23 -150h-149zM193 582l23 150h148l-22 -150h-149z" />
    <glyph glyph-name="aring" unicode="&#xe5;" horiz-adv-x="644" 
d="M230 -11q-69 0 -118 36t-69.5 100t-7.5 147q20 124 91.5 185.5t169.5 61.5q59 0 102 -26.5t51 -70.5l-9 -4l26 90h171q-9 -34 -16.5 -69t-13.5 -69l-59 -370h-176l14 91h17q-22 -46 -66.5 -74t-106.5 -28zM295 121q44 0 75 30.5t41 94.5q12 77 -11.5 109t-70.5 32
q-44 0 -74.5 -30t-41.5 -95q-12 -76 11.5 -108.5t70.5 -32.5zM384 545q-37 0 -68 17t-49 47t-18 66q0 37 18 66.5t49 47t68 17.5q39 0 69.5 -17.5t48 -47t17.5 -66.5t-17.5 -66.5t-48 -46.5t-69.5 -17zM384 618q25 0 41 16t16 41t-16 41t-41 16q-24 0 -40 -16t-16 -41
t16 -41t40 -16z" />
    <glyph glyph-name="ae" unicode="&#xe6;" horiz-adv-x="861" 
d="M207 -11q-75 0 -119.5 27.5t-62 70.5t-10.5 87q8 46 40.5 75.5t96 44t162.5 14.5h50l-12 -84h-61q-39 0 -65.5 -6.5t-40.5 -19t-17 -32.5q-5 -25 10.5 -42.5t52.5 -17.5q42 0 69.5 25t34.5 68l16 105q7 43 -15.5 63.5t-65.5 20.5q-42 0 -79.5 -9t-82.5 -30l-42 119
q30 15 68.5 26.5t79.5 18t77 6.5q81 0 125.5 -20.5t62.5 -63.5h-46q41 46 88.5 65t102.5 19q78 0 128 -33.5t71 -92t9 -134.5l-6 -35h-335l13 84h204l-20 -18q9 57 -9.5 84.5t-59.5 27.5q-29 0 -50.5 -14t-34 -38.5t-17.5 -55.5l-7 -44q-9 -62 20 -95.5t104 -33.5
q33 0 64.5 9t66.5 29l44 -116q-42 -28 -93.5 -41t-107.5 -13q-87 0 -146 32t-88 91h34q-29 -58 -80 -90.5t-121 -32.5z" />
    <glyph glyph-name="ccedilla" unicode="&#xe7;" horiz-adv-x="514" 
d="M289 -11q-92 0 -153.5 36.5t-87.5 100.5t-13 146q20 123 103.5 185t206.5 62q45 0 92 -12.5t75 -36.5l-53 -120q-21 17 -51.5 26t-58.5 9q-50 0 -86 -29t-46 -93q-10 -60 16.5 -99.5t86.5 -39.5q25 0 55.5 10t56.5 28l45 -119q-29 -24 -80.5 -39t-107.5 -15zM236 -198
q-33 0 -63.5 5.5t-52.5 17.5l31 70q17 -8 36 -12.5t37 -4.5q27 0 39 5.5t12 17.5q0 7 -7.5 11.5t-26.5 4.5q-8 0 -16.5 -1t-19.5 -3l-19 21l26 86h84l-24 -77l-39 17q12 5 24 7t22 2q45 0 69 -18t24 -51q0 -45 -39 -71.5t-97 -26.5z" />
    <glyph glyph-name="egrave" unicode="&#xe8;" horiz-adv-x="552" 
d="M299 -11q-97 0 -160 36.5t-89.5 101t-13.5 148.5q12 75 49.5 129.5t96 84.5t133.5 30q78 0 128.5 -33.5t71.5 -92t8 -134.5l-5 -35h-341l13 84h210l-20 -18q9 57 -10 84.5t-60 27.5q-30 0 -51 -14t-34 -38.5t-18 -55.5l-7 -44q-8 -62 20.5 -95.5t104.5 -33.5q34 0 65.5 9
t65.5 29l45 -116q-43 -28 -94 -41t-108 -13zM281 557l-143 205h166l91 -205h-114z" />
    <glyph glyph-name="eacute" unicode="&#xe9;" horiz-adv-x="552" 
d="M299 -11q-97 0 -160 36.5t-89.5 101t-13.5 148.5q12 75 49.5 129.5t96 84.5t133.5 30q78 0 128.5 -33.5t71.5 -92t8 -134.5l-5 -35h-341l13 84h210l-20 -18q9 57 -10 84.5t-60 27.5q-30 0 -51 -14t-34 -38.5t-18 -55.5l-7 -44q-8 -62 20.5 -95.5t104.5 -33.5q34 0 65.5 9
t65.5 29l45 -116q-43 -28 -94 -41t-108 -13zM282 557l130 205h171l-187 -205h-114z" />
    <glyph glyph-name="ecircumflex" unicode="&#xea;" horiz-adv-x="552" 
d="M299 -11q-97 0 -160 36.5t-89.5 101t-13.5 148.5q12 75 49.5 129.5t96 84.5t133.5 30q78 0 128.5 -33.5t71.5 -92t8 -134.5l-5 -35h-341l13 84h210l-20 -18q9 57 -10 84.5t-60 27.5q-30 0 -51 -14t-34 -38.5t-18 -55.5l-7 -44q-8 -62 20.5 -95.5t104.5 -33.5q34 0 65.5 9
t65.5 29l45 -116q-43 -28 -94 -41t-108 -13zM146 557l132 205h148l91 -205h-107l-66 113l-90 -113h-108z" />
    <glyph glyph-name="edieresis" unicode="&#xeb;" horiz-adv-x="552" 
d="M299 -11q-97 0 -160 36.5t-89.5 101t-13.5 148.5q12 75 49.5 129.5t96 84.5t133.5 30q78 0 128.5 -33.5t71.5 -92t8 -134.5l-5 -35h-341l13 84h210l-20 -18q9 57 -10 84.5t-60 27.5q-30 0 -51 -14t-34 -38.5t-18 -55.5l-7 -44q-8 -62 20.5 -95.5t104.5 -33.5q34 0 65.5 9
t65.5 29l45 -116q-43 -28 -94 -41t-108 -13zM372 582l23 150h149l-23 -150h-149zM166 582l23 150h148l-22 -150h-149z" />
    <glyph glyph-name="igrave" unicode="&#xec;" horiz-adv-x="288" 
d="M15 0l81 508h178l-81 -508h-178zM136 557l-143 205h166l91 -205h-114z" />
    <glyph glyph-name="iacute" unicode="&#xed;" horiz-adv-x="288" 
d="M15 0l81 508h178l-81 -508h-178zM136 557l130 205h171l-187 -205h-114z" />
    <glyph glyph-name="icircumflex" unicode="&#xee;" horiz-adv-x="288" 
d="M15 0l81 508h178l-81 -508h-178zM0 557l132 205h148l91 -205h-107l-66 113l-90 -113h-108z" />
    <glyph glyph-name="idieresis" unicode="&#xef;" horiz-adv-x="288" 
d="M15 0l81 508h178l-81 -508h-178zM226 582l23 150h149l-23 -150h-149zM20 582l23 150h148l-22 -150h-149z" />
    <glyph glyph-name="eth" unicode="&#xf0;" horiz-adv-x="626" 
d="M280 -11q-86 0 -146 32t-88 88.5t-16 130.5q10 65 49 111.5t97.5 71.5t128.5 25q65 0 110.5 -26.5t59.5 -87.5h-34q9 62 -12 119.5t-69 101.5h35l-218 -93l-30 69l170 73l-3 -15q-28 17 -61.5 29.5t-68.5 19.5l45 109q80 -7 141 -31t105 -60l-30 3l134 57l31 -69
l-108 -46l5 23q44 -46 67 -104t28.5 -119t-4.5 -122q-22 -143 -107 -216.5t-211 -73.5zM293 122q43 0 72.5 26.5t36.5 68.5q8 47 -13.5 74t-69.5 27q-46 0 -75.5 -25.5t-36.5 -68.5q-7 -49 15.5 -75.5t70.5 -26.5z" />
    <glyph glyph-name="ntilde" unicode="&#xf1;" horiz-adv-x="623" 
d="M15 0l59 370q5 34 8.5 69t5.5 69h171l-3 -88l-12 -1q30 50 78 75t106 25q90 0 129 -55t21 -169l-47 -295h-178l47 296q7 47 -8.5 67t-47.5 20q-43 0 -70.5 -27t-34.5 -71l-46 -285h-178zM237 577l-81 5q9 80 48 122.5t97 42.5q27 0 46.5 -9t35.5 -20q14 -10 29 -17t33 -7
q49 0 65 59l81 -6q-10 -79 -48.5 -122t-96.5 -43q-27 0 -47.5 10t-37.5 21q-15 9 -29 16t-31 7q-48 0 -64 -59z" />
    <glyph glyph-name="ograve" unicode="&#xf2;" horiz-adv-x="617" 
d="M282 -11q-90 0 -150 34.5t-85 98t-12 150.5q13 82 55 137t105.5 82.5t141.5 27.5q91 0 150 -34.5t84 -97.5t11 -151q-13 -82 -54.5 -137t-104.5 -82.5t-141 -27.5zM292 121q42 0 72 30.5t41 94.5q12 77 -11 109t-68 32q-43 0 -72.5 -30t-40.5 -95q-12 -76 10.5 -108.5
t68.5 -32.5zM300 557l-143 205h166l91 -205h-114z" />
    <glyph glyph-name="oacute" unicode="&#xf3;" horiz-adv-x="617" 
d="M282 -11q-90 0 -150 34.5t-85 98t-12 150.5q13 82 55 137t105.5 82.5t141.5 27.5q91 0 150 -34.5t84 -97.5t11 -151q-13 -82 -54.5 -137t-104.5 -82.5t-141 -27.5zM292 121q42 0 72 30.5t41 94.5q12 77 -11 109t-68 32q-43 0 -72.5 -30t-40.5 -95q-12 -76 10.5 -108.5
t68.5 -32.5zM301 557l130 205h171l-187 -205h-114z" />
    <glyph glyph-name="ocircumflex" unicode="&#xf4;" horiz-adv-x="617" 
d="M282 -11q-90 0 -150 34.5t-85 98t-12 150.5q13 82 55 137t105.5 82.5t141.5 27.5q91 0 150 -34.5t84 -97.5t11 -151q-13 -82 -54.5 -137t-104.5 -82.5t-141 -27.5zM292 121q42 0 72 30.5t41 94.5q12 77 -11 109t-68 32q-43 0 -72.5 -30t-40.5 -95q-12 -76 10.5 -108.5
t68.5 -32.5zM165 557l132 205h148l91 -205h-107l-66 113l-90 -113h-108z" />
    <glyph glyph-name="otilde" unicode="&#xf5;" horiz-adv-x="617" 
d="M282 -11q-90 0 -150 34.5t-85 98t-12 150.5q13 82 55 137t105.5 82.5t141.5 27.5q91 0 150 -34.5t84 -97.5t11 -151q-13 -82 -54.5 -137t-104.5 -82.5t-141 -27.5zM292 121q42 0 72 30.5t41 94.5q12 77 -11 109t-68 32q-43 0 -72.5 -30t-40.5 -95q-12 -76 10.5 -108.5
t68.5 -32.5zM233 577l-81 5q9 80 48 122.5t97 42.5q27 0 46.5 -9t35.5 -20q14 -10 29 -17t33 -7q49 0 65 59l81 -6q-10 -79 -48.5 -122t-96.5 -43q-27 0 -47.5 10t-37.5 21q-15 9 -29 16t-31 7q-48 0 -64 -59z" />
    <glyph glyph-name="odieresis" unicode="&#xf6;" horiz-adv-x="617" 
d="M282 -11q-90 0 -150 34.5t-85 98t-12 150.5q13 82 55 137t105.5 82.5t141.5 27.5q91 0 150 -34.5t84 -97.5t11 -151q-13 -82 -54.5 -137t-104.5 -82.5t-141 -27.5zM292 121q42 0 72 30.5t41 94.5q12 77 -11 109t-68 32q-43 0 -72.5 -30t-40.5 -95q-12 -76 10.5 -108.5
t68.5 -32.5zM391 582l23 150h149l-23 -150h-149zM185 582l23 150h148l-22 -150h-149z" />
    <glyph glyph-name="divide" unicode="&#xf7;" horiz-adv-x="600" 
d="M51 228l19 118h489l-19 -118h-489zM196 29l20 126h126l-20 -126h-126zM258 419l19 126h126l-20 -126h-125z" />
    <glyph glyph-name="oslash" unicode="&#xf8;" horiz-adv-x="617" 
d="M282 -11q-90 0 -150 34.5t-85 98t-12 150.5q13 82 55 137t105.5 82.5t141.5 27.5q91 0 150 -34.5t84 -97.5t11 -151q-13 -82 -54.5 -137t-104.5 -82.5t-141 -27.5zM292 121q53 0 86 31t44 96q11 70 -15 104.5t-80 34.5q-55 0 -88 -30.5t-43 -95.5q-10 -66 12.5 -103
t83.5 -37zM137 -53l-73 51l419 561l73 -50z" />
    <glyph glyph-name="ugrave" unicode="&#xf9;" horiz-adv-x="618" 
d="M209 -11q-96 0 -138 56.5t-26 161.5l48 301h178l-48 -302q-7 -41 8 -61t51 -20q41 0 66 27.5t32 72.5l45 283h178l-81 -508h-173l14 91h15q-29 -49 -71 -75.5t-98 -26.5zM299 557l-143 205h166l91 -205h-114z" />
    <glyph glyph-name="uacute" unicode="&#xfa;" horiz-adv-x="618" 
d="M209 -11q-96 0 -138 56.5t-26 161.5l48 301h178l-48 -302q-7 -41 8 -61t51 -20q41 0 66 27.5t32 72.5l45 283h178l-81 -508h-173l14 91h15q-29 -49 -71 -75.5t-98 -26.5zM300 557l130 205h171l-187 -205h-114z" />
    <glyph glyph-name="ucircumflex" unicode="&#xfb;" horiz-adv-x="618" 
d="M209 -11q-96 0 -138 56.5t-26 161.5l48 301h178l-48 -302q-7 -41 8 -61t51 -20q41 0 66 27.5t32 72.5l45 283h178l-81 -508h-173l14 91h15q-29 -49 -71 -75.5t-98 -26.5zM164 557l132 205h148l91 -205h-107l-66 113l-90 -113h-108z" />
    <glyph glyph-name="udieresis" unicode="&#xfc;" horiz-adv-x="618" 
d="M209 -11q-96 0 -138 56.5t-26 161.5l48 301h178l-48 -302q-7 -41 8 -61t51 -20q41 0 66 27.5t32 72.5l45 283h178l-81 -508h-173l14 91h15q-29 -49 -71 -75.5t-98 -26.5zM390 582l23 150h149l-23 -150h-149zM184 582l23 150h148l-22 -150h-149z" />
    <glyph glyph-name="yacute" unicode="&#xfd;" horiz-adv-x="558" 
d="M-19 -227l-27 138q50 9 84 19.5t57.5 28.5t41.5 47l34 58l-9 -67l-140 511h181l77 -337h-34l189 337h182l-310 -519q-37 -61 -74 -100t-76 -62t-82 -34.5t-94 -19.5zM270 557l130 205h171l-187 -205h-114z" />
    <glyph glyph-name="thorn" unicode="&#xfe;" horiz-adv-x="644" 
d="M-19 -216l151 952h178l-50 -314l-18 -4q22 45 66.5 73t105.5 28q70 0 118.5 -35.5t69.5 -99.5t7 -148q-20 -123 -91.5 -185t-169.5 -62q-58 0 -101 26.5t-52 70.5h12l-48 -302h-178zM315 121q45 0 75.5 30.5t40.5 94.5q12 77 -11 109t-70 32q-44 0 -75 -30t-41 -95
q-12 -76 12 -108.5t69 -32.5z" />
    <glyph glyph-name="ydieresis" unicode="&#xff;" horiz-adv-x="558" 
d="M-19 -227l-27 138q50 9 84 19.5t57.5 28.5t41.5 47l34 58l-9 -67l-140 511h181l77 -337h-34l189 337h182l-310 -519q-37 -61 -74 -100t-76 -62t-82 -34.5t-94 -19.5zM360 582l23 150h149l-23 -150h-149zM154 582l23 150h148l-22 -150h-149z" />
    <glyph glyph-name="Amacron" unicode="&#x100;" horiz-adv-x="769" 
d="M-62 0l442 705h150l220 -705h-179l-54 194l63 -51h-414l78 51l-115 -194h-191zM430 515l-161 -279l-21 47h294l-33 -47l-74 279h-5zM286 796l15 97h368l-15 -97h-368z" />
    <glyph glyph-name="amacron" unicode="&#x101;" horiz-adv-x="644" 
d="M230 -11q-69 0 -118 36t-69.5 100t-7.5 147q20 124 91.5 185.5t169.5 61.5q59 0 102 -26.5t51 -70.5l-9 -4l26 90h171q-9 -34 -16.5 -69t-13.5 -69l-59 -370h-176l14 91h17q-22 -46 -66.5 -74t-106.5 -28zM295 121q44 0 75 30.5t41 94.5q12 77 -11.5 109t-70.5 32
q-44 0 -74.5 -30t-41.5 -95q-12 -76 11.5 -108.5t70.5 -32.5zM205 605l15 97h338l-15 -97h-338z" />
    <glyph glyph-name="Abreve" unicode="&#x102;" horiz-adv-x="769" 
d="M-62 0l442 705h150l220 -705h-179l-54 194l63 -51h-414l78 51l-115 -194h-191zM430 515l-161 -279l-21 47h294l-33 -47l-74 279h-5zM469 760q-56 0 -97.5 22t-64.5 61.5t-24 88.5l96 12q1 -39 26 -62t70 -23t74.5 23t36.5 62l95 -12q-12 -79 -68.5 -125.5t-143.5 -46.5z
" />
    <glyph glyph-name="abreve" unicode="&#x103;" horiz-adv-x="644" 
d="M230 -11q-69 0 -118 36t-69.5 100t-7.5 147q20 124 91.5 185.5t169.5 61.5q59 0 102 -26.5t51 -70.5l-9 -4l26 90h171q-9 -34 -16.5 -69t-13.5 -69l-59 -370h-176l14 91h17q-22 -46 -66.5 -74t-106.5 -28zM295 121q44 0 75 30.5t41 94.5q12 77 -11.5 109t-70.5 32
q-44 0 -74.5 -30t-41.5 -95q-12 -76 11.5 -108.5t70.5 -32.5zM373 553q-53 0 -91.5 24.5t-58 69t-16.5 103.5l96 9q0 -51 20 -78t57 -27t61.5 27t31.5 78l95 -9q-6 -59 -32 -103.5t-68 -69t-95 -24.5z" />
    <glyph glyph-name="Aogonek" unicode="&#x104;" horiz-adv-x="769" 
d="M-62 0l442 705h150l220 -705h-179l-54 194l63 -51h-414l78 51l-115 -194h-191zM430 515l-161 -279l-21 47h294l-33 -47l-74 279h-5zM637 -198q-57 0 -87 26.5t-30 72.5q0 50 34 89.5t86 57.5l43 -48q-32 -12 -45.5 -31.5t-13.5 -38.5q0 -18 14 -29.5t35 -11.5
q14 0 26.5 3t27.5 7l12 -81q-32 -8 -54 -12t-48 -4z" />
    <glyph glyph-name="aogonek" unicode="&#x105;" horiz-adv-x="644" 
d="M230 -11q-69 0 -118 36t-69.5 100t-7.5 147q20 124 91.5 185.5t169.5 61.5q59 0 102 -26.5t51 -70.5l-9 -4l26 90h171q-9 -34 -16.5 -69t-13.5 -69l-59 -370h-176l14 91h17q-22 -46 -66.5 -74t-106.5 -28zM295 121q44 0 75 30.5t41 94.5q12 77 -11.5 109t-70.5 32
q-44 0 -74.5 -30t-41.5 -95q-12 -76 11.5 -108.5t70.5 -32.5zM468 -198q-57 0 -87 26.5t-30 72.5q0 50 34 89.5t86 57.5l43 -48q-32 -12 -45.5 -31.5t-13.5 -38.5q0 -18 14 -29.5t35 -11.5q14 0 26.5 3t27.5 7l12 -81q-32 -8 -54 -12t-48 -4z" />
    <glyph glyph-name="Cacute" unicode="&#x106;" horiz-adv-x="685" 
d="M395 -11q-125 0 -204.5 50t-111 136.5t-14.5 195.5q17 110 72.5 187.5t143 118t199.5 39.5q69 0 124.5 -18t92.5 -47l-61 -146q-40 28 -77 39.5t-86 11.5q-86 0 -143.5 -49.5t-72.5 -142.5q-10 -66 5 -114.5t54.5 -74.5t103.5 -26q44 0 87.5 13.5t90.5 46.5l48 -145
q-52 -36 -116.5 -55.5t-134.5 -19.5zM427 765l130 176h182l-190 -176h-122z" />
    <glyph glyph-name="cacute" unicode="&#x107;" horiz-adv-x="514" 
d="M289 -11q-92 0 -153.5 36.5t-87.5 100.5t-13 146q20 123 103.5 185t206.5 62q45 0 92 -12.5t75 -36.5l-53 -120q-21 17 -51.5 26t-58.5 9q-50 0 -86 -29t-46 -93q-10 -60 16.5 -99.5t86.5 -39.5q25 0 55.5 10t56.5 28l45 -119q-29 -24 -80.5 -39t-107.5 -15zM292 557
l130 205h171l-187 -205h-114z" />
    <glyph glyph-name="Ccircumflex" unicode="&#x108;" horiz-adv-x="685" 
d="M395 -11q-125 0 -204.5 50t-111 136.5t-14.5 195.5q17 110 72.5 187.5t143 118t199.5 39.5q69 0 124.5 -18t92.5 -47l-61 -146q-40 28 -77 39.5t-86 11.5q-86 0 -143.5 -49.5t-72.5 -142.5q-10 -66 5 -114.5t54.5 -74.5t103.5 -26q44 0 87.5 13.5t90.5 46.5l48 -145
q-52 -36 -116.5 -55.5t-134.5 -19.5zM284 765l143 176h145l110 -176h-119l-71 86l-89 -86h-119z" />
    <glyph glyph-name="ccircumflex" unicode="&#x109;" horiz-adv-x="514" 
d="M289 -11q-92 0 -153.5 36.5t-87.5 100.5t-13 146q20 123 103.5 185t206.5 62q45 0 92 -12.5t75 -36.5l-53 -120q-21 17 -51.5 26t-58.5 9q-50 0 -86 -29t-46 -93q-10 -60 16.5 -99.5t86.5 -39.5q25 0 55.5 10t56.5 28l45 -119q-29 -24 -80.5 -39t-107.5 -15zM156 557
l132 205h148l91 -205h-107l-66 113l-90 -113h-108z" />
    <glyph glyph-name="Cdotaccent" unicode="&#x10a;" horiz-adv-x="685" 
d="M395 -11q-125 0 -204.5 50t-111 136.5t-14.5 195.5q17 110 72.5 187.5t143 118t199.5 39.5q69 0 124.5 -18t92.5 -47l-61 -146q-40 28 -77 39.5t-86 11.5q-86 0 -143.5 -49.5t-72.5 -142.5q-10 -66 5 -114.5t54.5 -74.5t103.5 -26q44 0 87.5 13.5t90.5 46.5l48 -145
q-52 -36 -116.5 -55.5t-134.5 -19.5zM410 778l23 150h159l-23 -150h-159z" />
    <glyph glyph-name="cdotaccent" unicode="&#x10b;" horiz-adv-x="514" 
d="M289 -11q-92 0 -153.5 36.5t-87.5 100.5t-13 146q20 123 103.5 185t206.5 62q45 0 92 -12.5t75 -36.5l-53 -120q-21 17 -51.5 26t-58.5 9q-50 0 -86 -29t-46 -93q-10 -60 16.5 -99.5t86.5 -39.5q25 0 55.5 10t56.5 28l45 -119q-29 -24 -80.5 -39t-107.5 -15zM273 583
l24 150h159l-24 -150h-159z" />
    <glyph glyph-name="Ccaron" unicode="&#x10c;" horiz-adv-x="685" 
d="M395 -11q-125 0 -204.5 50t-111 136.5t-14.5 195.5q17 110 72.5 187.5t143 118t199.5 39.5q69 0 124.5 -18t92.5 -47l-61 -146q-40 28 -77 39.5t-86 11.5q-86 0 -143.5 -49.5t-72.5 -142.5q-10 -66 5 -114.5t54.5 -74.5t103.5 -26q44 0 87.5 13.5t90.5 46.5l48 -145
q-52 -36 -116.5 -55.5t-134.5 -19.5zM415 765l-110 176h115l73 -86l85 86h125l-143 -176h-145z" />
    <glyph glyph-name="ccaron" unicode="&#x10d;" horiz-adv-x="514" 
d="M289 -11q-92 0 -153.5 36.5t-87.5 100.5t-13 146q20 123 103.5 185t206.5 62q45 0 92 -12.5t75 -36.5l-53 -120q-21 17 -51.5 26t-58.5 9q-50 0 -86 -29t-46 -93q-10 -60 16.5 -99.5t86.5 -39.5q25 0 55.5 10t56.5 28l45 -119q-29 -24 -80.5 -39t-107.5 -15zM274 557
l-91 205h108l64 -113l91 113h108l-132 -205h-148z" />
    <glyph glyph-name="Dcaron" unicode="&#x10e;" horiz-adv-x="781" 
d="M25 0l112 705h267q134 0 216.5 -46t114 -128.5t13.5 -195.5q-27 -167 -138 -251t-293 -84h-292zM234 150h88q108 0 168 48t76 143q17 113 -28 164t-155 51h-86zM408 765l-110 176h115l73 -86l85 86h125l-143 -176h-145z" />
    <glyph glyph-name="dcaron" unicode="&#x10f;" horiz-adv-x="644" 
d="M230 -11q-69 0 -118 36t-69.5 100t-7.5 147q20 124 91.5 185.5t169.5 61.5q59 0 102 -26.5t51 -70.5h-11l49 314h178l-117 -736h-175l14 91h16q-22 -46 -66.5 -74t-106.5 -28zM295 121q44 0 75 30.5t41 94.5q12 77 -11.5 109t-70.5 32q-44 0 -74.5 -30t-41.5 -95
q-12 -76 11.5 -108.5t70.5 -32.5zM666 541l32 195h106l-60 -195h-78z" />
    <glyph glyph-name="Dcroat" unicode="&#x110;" horiz-adv-x="781" 
d="M25 0l112 705h267q134 0 216.5 -46t114 -128.5t13.5 -195.5q-27 -167 -138 -251t-293 -84h-292zM234 150h88q108 0 168 48t76 143q17 113 -28 164t-155 51h-86zM-10 291l21 130h449l-20 -130h-450z" />
    <glyph glyph-name="dcroat" unicode="&#x111;" horiz-adv-x="644" 
d="M230 -11q-69 0 -118 34t-69.5 95t-7.5 140q20 118 91.5 176.5t169.5 58.5q59 0 102 -25.5t51 -67.5l-11 22l20 130h-190l19 122h191l9 62h178l-9 -62h83l-19 -122h-84l-88 -552h-175l14 91l16 -5q-22 -44 -66.5 -70.5t-106.5 -26.5zM295 121q44 0 75 27.5t41 85.5
q12 67 -11.5 96.5t-70.5 29.5q-44 0 -74.5 -27t-41.5 -85q-12 -68 11.5 -97.5t70.5 -29.5z" />
    <glyph glyph-name="Emacron" unicode="&#x112;" horiz-adv-x="603" 
d="M25 0l112 705h506l-23 -141h-329l-21 -135h305l-22 -142h-306l-23 -145h329l-22 -142h-506zM241 796l15 97h368l-15 -97h-368z" />
    <glyph glyph-name="emacron" unicode="&#x113;" horiz-adv-x="552" 
d="M299 -11q-97 0 -160 36.5t-89.5 101t-13.5 148.5q12 75 49.5 129.5t96 84.5t133.5 30q78 0 128.5 -33.5t71.5 -92t8 -134.5l-5 -35h-341l13 84h210l-20 -18q9 57 -10 84.5t-60 27.5q-30 0 -51 -14t-34 -38.5t-18 -55.5l-7 -44q-8 -62 20.5 -95.5t104.5 -33.5q34 0 65.5 9
t65.5 29l45 -116q-43 -28 -94 -41t-108 -13zM178 605l15 97h338l-15 -97h-338z" />
    <glyph glyph-name="Ebreve" unicode="&#x114;" horiz-adv-x="603" 
d="M25 0l112 705h506l-23 -141h-329l-21 -135h305l-22 -142h-306l-23 -145h329l-22 -142h-506zM424 760q-56 0 -97.5 22t-64.5 61.5t-24 88.5l96 12q1 -39 26 -62t70 -23t74.5 23t36.5 62l95 -12q-12 -79 -68.5 -125.5t-143.5 -46.5z" />
    <glyph glyph-name="ebreve" unicode="&#x115;" horiz-adv-x="552" 
d="M299 -11q-97 0 -160 36.5t-89.5 101t-13.5 148.5q12 75 49.5 129.5t96 84.5t133.5 30q78 0 128.5 -33.5t71.5 -92t8 -134.5l-5 -35h-341l13 84h210l-20 -18q9 57 -10 84.5t-60 27.5q-30 0 -51 -14t-34 -38.5t-18 -55.5l-7 -44q-8 -62 20.5 -95.5t104.5 -33.5q34 0 65.5 9
t65.5 29l45 -116q-43 -28 -94 -41t-108 -13zM346 553q-53 0 -91.5 24.5t-58 69t-16.5 103.5l96 9q0 -51 20 -78t57 -27t61.5 27t31.5 78l95 -9q-6 -59 -32 -103.5t-68 -69t-95 -24.5z" />
    <glyph glyph-name="Edotaccent" unicode="&#x116;" horiz-adv-x="603" 
d="M25 0l112 705h506l-23 -141h-329l-21 -135h305l-22 -142h-306l-23 -145h329l-22 -142h-506zM343 778l23 150h159l-23 -150h-159z" />
    <glyph glyph-name="edotaccent" unicode="&#x117;" horiz-adv-x="552" 
d="M299 -11q-97 0 -160 36.5t-89.5 101t-13.5 148.5q12 75 49.5 129.5t96 84.5t133.5 30q78 0 128.5 -33.5t71.5 -92t8 -134.5l-5 -35h-341l13 84h210l-20 -18q9 57 -10 84.5t-60 27.5q-30 0 -51 -14t-34 -38.5t-18 -55.5l-7 -44q-8 -62 20.5 -95.5t104.5 -33.5q34 0 65.5 9
t65.5 29l45 -116q-43 -28 -94 -41t-108 -13zM263 583l24 150h159l-24 -150h-159z" />
    <glyph glyph-name="Eogonek" unicode="&#x118;" horiz-adv-x="603" 
d="M25 0l112 705h506l-23 -141h-329l-21 -135h305l-22 -142h-306l-23 -145h329l-22 -142h-506zM433 -198q-57 0 -87 26.5t-30 72.5q0 50 34 89.5t86 57.5l43 -48q-32 -12 -45.5 -31.5t-13.5 -38.5q0 -18 14 -29.5t35 -11.5q14 0 26.5 3t27.5 7l12 -81q-32 -8 -54 -12t-48 -4
z" />
    <glyph glyph-name="eogonek" unicode="&#x119;" horiz-adv-x="552" 
d="M299 -11q-97 0 -160 36.5t-89.5 101t-13.5 148.5q12 75 49.5 129.5t96 84.5t133.5 30q78 0 128.5 -33.5t71.5 -92t8 -134.5l-5 -35h-341l13 84h210l-20 -18q9 57 -10 84.5t-60 27.5q-30 0 -51 -14t-34 -38.5t-18 -55.5l-7 -44q-8 -62 20.5 -95.5t104.5 -33.5q34 0 65.5 9
t65.5 29l45 -116q-43 -28 -94 -41t-108 -13zM320 -198q-57 0 -87 26.5t-30 72.5q0 50 34 89.5t86 57.5l43 -48q-32 -12 -45.5 -31.5t-13.5 -38.5q0 -18 14 -29.5t35 -11.5q14 0 26.5 3t27.5 7l12 -81q-32 -8 -54 -12t-48 -4z" />
    <glyph glyph-name="Ecaron" unicode="&#x11a;" horiz-adv-x="603" 
d="M25 0l112 705h506l-23 -141h-329l-21 -135h305l-22 -142h-306l-23 -145h329l-22 -142h-506zM349 765l-110 176h115l73 -86l85 86h125l-143 -176h-145z" />
    <glyph glyph-name="ecaron" unicode="&#x11b;" horiz-adv-x="552" 
d="M299 -11q-97 0 -160 36.5t-89.5 101t-13.5 148.5q12 75 49.5 129.5t96 84.5t133.5 30q78 0 128.5 -33.5t71.5 -92t8 -134.5l-5 -35h-341l13 84h210l-20 -18q9 57 -10 84.5t-60 27.5q-30 0 -51 -14t-34 -38.5t-18 -55.5l-7 -44q-8 -62 20.5 -95.5t104.5 -33.5q34 0 65.5 9
t65.5 29l45 -116q-43 -28 -94 -41t-108 -13zM264 557l-91 205h108l64 -113l91 113h108l-132 -205h-148z" />
    <glyph glyph-name="Gcircumflex" unicode="&#x11c;" horiz-adv-x="750" 
d="M403 -11q-134 0 -215 48t-111 133.5t-13 196.5q18 112 77 189.5t151 118.5t209 41q76 0 133 -15.5t94 -42.5l-62 -141q-42 24 -78.5 33t-92.5 9q-104 0 -164 -52.5t-75 -149.5q-16 -101 23 -157.5t146 -56.5q38 0 72.5 6t73.5 18l-51 -66l27 168h-146l20 128h297
l-56 -352q-37 -18 -81 -30.5t-90 -19t-88 -6.5zM299 765l143 176h145l110 -176h-119l-71 86l-89 -86h-119z" />
    <glyph glyph-name="gcircumflex" unicode="&#x11d;" horiz-adv-x="644" 
d="M240 -224q-75 0 -131 13.5t-100 41.5l45 127q23 -16 53.5 -27t63 -17t63.5 -6q69 0 102.5 29.5t42.5 83.5l14 89h10q-19 -42 -63.5 -69t-105.5 -27q-68 0 -117.5 31.5t-72 92t-7.5 146.5q19 116 89 175.5t171 59.5q59 0 102 -26t51 -69l-7 2l24 82h171q-10 -34 -17.5 -69
t-12.5 -69l-52 -329q-21 -128 -100 -196.5t-216 -68.5zM298 145q47 0 77.5 30.5t39.5 87.5q9 62 -14 93t-69 31q-47 0 -77.5 -30.5t-40.5 -88.5q-9 -60 14 -91.5t70 -31.5zM183 557l132 205h148l91 -205h-107l-66 113l-90 -113h-108z" />
    <glyph glyph-name="Gbreve" unicode="&#x11e;" horiz-adv-x="750" 
d="M403 -11q-134 0 -215 48t-111 133.5t-13 196.5q18 112 77 189.5t151 118.5t209 41q76 0 133 -15.5t94 -42.5l-62 -141q-42 24 -78.5 33t-92.5 9q-104 0 -164 -52.5t-75 -149.5q-16 -101 23 -157.5t146 -56.5q38 0 72.5 6t73.5 18l-51 -66l27 168h-146l20 128h297
l-56 -352q-37 -18 -81 -30.5t-90 -19t-88 -6.5zM506 760q-56 0 -97.5 22t-64.5 61.5t-24 88.5l96 12q1 -39 26 -62t70 -23t74.5 23t36.5 62l95 -12q-12 -79 -68.5 -125.5t-143.5 -46.5z" />
    <glyph glyph-name="gbreve" unicode="&#x11f;" horiz-adv-x="644" 
d="M240 -224q-75 0 -131 13.5t-100 41.5l45 127q23 -16 53.5 -27t63 -17t63.5 -6q69 0 102.5 29.5t42.5 83.5l14 89h10q-19 -42 -63.5 -69t-105.5 -27q-68 0 -117.5 31.5t-72 92t-7.5 146.5q19 116 89 175.5t171 59.5q59 0 102 -26t51 -69l-7 2l24 82h171q-10 -34 -17.5 -69
t-12.5 -69l-52 -329q-21 -128 -100 -196.5t-216 -68.5zM298 145q47 0 77.5 30.5t39.5 87.5q9 62 -14 93t-69 31q-47 0 -77.5 -30.5t-40.5 -88.5q-9 -60 14 -91.5t70 -31.5zM383 553q-53 0 -91.5 24.5t-58 69t-16.5 103.5l96 9q0 -51 20 -78t57 -27t61.5 27t31.5 78l95 -9
q-6 -59 -32 -103.5t-68 -69t-95 -24.5z" />
    <glyph glyph-name="Gdotaccent" unicode="&#x120;" horiz-adv-x="750" 
d="M403 -11q-134 0 -215 48t-111 133.5t-13 196.5q18 112 77 189.5t151 118.5t209 41q76 0 133 -15.5t94 -42.5l-62 -141q-42 24 -78.5 33t-92.5 9q-104 0 -164 -52.5t-75 -149.5q-16 -101 23 -157.5t146 -56.5q38 0 72.5 6t73.5 18l-51 -66l27 168h-146l20 128h297
l-56 -352q-37 -18 -81 -30.5t-90 -19t-88 -6.5zM425 778l23 150h159l-23 -150h-159z" />
    <glyph glyph-name="gdotaccent" unicode="&#x121;" horiz-adv-x="644" 
d="M240 -224q-75 0 -131 13.5t-100 41.5l45 127q23 -16 53.5 -27t63 -17t63.5 -6q69 0 102.5 29.5t42.5 83.5l14 89h10q-19 -42 -63.5 -69t-105.5 -27q-68 0 -117.5 31.5t-72 92t-7.5 146.5q19 116 89 175.5t171 59.5q59 0 102 -26t51 -69l-7 2l24 82h171q-10 -34 -17.5 -69
t-12.5 -69l-52 -329q-21 -128 -100 -196.5t-216 -68.5zM298 145q47 0 77.5 30.5t39.5 87.5q9 62 -14 93t-69 31q-47 0 -77.5 -30.5t-40.5 -88.5q-9 -60 14 -91.5t70 -31.5zM299 583l24 150h159l-24 -150h-159z" />
    <glyph glyph-name="uni0122" unicode="&#x122;" horiz-adv-x="750" 
d="M403 -11q-134 0 -215 48t-111 133.5t-13 196.5q18 112 77 189.5t151 118.5t209 41q76 0 133 -15.5t94 -42.5l-62 -141q-42 24 -78.5 33t-92.5 9q-104 0 -164 -52.5t-75 -149.5q-16 -101 23 -157.5t146 -56.5q38 0 72.5 6t73.5 18l-51 -66l27 168h-146l20 128h297
l-56 -352q-37 -18 -81 -30.5t-90 -19t-88 -6.5zM362 -290l-49 45q24 17 34 34.5t14 40.5l32 -20h-118l20 125h169l-14 -85q-7 -46 -24 -79t-64 -61z" />
    <glyph glyph-name="uni0123" unicode="&#x123;" horiz-adv-x="644" 
d="M240 -224q-75 0 -131 13.5t-100 41.5l45 127q23 -16 53.5 -27t63 -17t63.5 -6q69 0 102.5 29.5t42.5 83.5l14 89h10q-19 -42 -63.5 -69t-105.5 -27q-68 0 -117.5 31.5t-72 92t-7.5 146.5q19 116 89 175.5t171 59.5q59 0 102 -26t51 -69l-7 2l24 82h171q-10 -34 -17.5 -69
t-12.5 -69l-52 -329q-21 -128 -100 -196.5t-216 -68.5zM298 145q47 0 77.5 30.5t39.5 87.5q9 62 -14 93t-69 31q-47 0 -77.5 -30.5t-40.5 -88.5q-9 -60 14 -91.5t70 -31.5zM290 560l13 85q8 48 25 80t64 61l50 -46q-24 -16 -34 -34t-14 -40l-32 20h118l-20 -126h-170z" />
    <glyph glyph-name="Hcircumflex" unicode="&#x124;" horiz-adv-x="784" 
d="M25 0l112 705h185l-44 -272h284l44 272h185l-112 -705h-185l45 282h-284l-45 -282h-185zM270 765l143 176h145l110 -176h-119l-71 86l-89 -86h-119z" />
    <glyph glyph-name="hcircumflex" unicode="&#x125;" horiz-adv-x="623" 
d="M15 0l117 736h178l-50 -317h-16q30 50 78 75t106 25q90 0 129 -55t21 -169l-47 -295h-178l47 296q7 47 -8 67t-48 20q-43 0 -70.5 -27t-34.5 -71l-46 -285h-178zM197 791l143 176h145l110 -176h-119l-71 86l-89 -86h-119z" />
    <glyph glyph-name="Hbar" unicode="&#x126;" horiz-adv-x="855" 
d="M61 0l79 501h-80l21 129h80l12 75h185l-13 -75h284l13 75h184l-12 -75h80l-21 -129h-80l-79 -501h-184l41 263h-284l-41 -263h-185zM311 414h284l14 87h-284z" />
    <glyph glyph-name="hbar" unicode="&#x127;" horiz-adv-x="623" 
d="M15 0l88 552h-86l19 122h87l9 62h178l-9 -62h188l-19 -122h-189l-24 -150l-15 -1q30 50 78 75t106 25q89 0 128.5 -55t20.5 -169l-44 -277h-178l44 278q8 47 -7.5 67t-48.5 20q-43 0 -70.5 -27t-34.5 -71l-43 -267h-178z" />
    <glyph glyph-name="Itilde" unicode="&#x128;" horiz-adv-x="315" 
d="M25 0l112 705h185l-112 -705h-185zM78 759l-81 6q11 79 53 122t105 43q31 0 57 -9.5t49 -21.5q20 -8 38.5 -15.5t36.5 -7.5q55 0 72 59l81 -5q-12 -80 -53.5 -122.5t-104.5 -42.5q-31 0 -57 9.5t-49 20.5q-20 9 -38.5 16t-37.5 7q-54 0 -71 -59z" />
    <glyph glyph-name="itilde" unicode="&#x129;" horiz-adv-x="288" 
d="M15 0l81 508h178l-81 -508h-178zM68 577l-81 5q9 80 48 122.5t97 42.5q27 0 46.5 -9t35.5 -20q14 -10 29 -17t33 -7q49 0 65 59l81 -6q-10 -79 -48.5 -122t-96.5 -43q-27 0 -47.5 10t-37.5 21q-15 9 -29 16t-31 7q-48 0 -64 -59z" />
    <glyph glyph-name="Imacron" unicode="&#x12a;" horiz-adv-x="315" 
d="M25 0l112 705h185l-112 -705h-185zM59 796l15 97h368l-15 -97h-368z" />
    <glyph glyph-name="imacron" unicode="&#x12b;" horiz-adv-x="288" 
d="M15 0l81 508h178l-81 -508h-178zM32 605l15 97h338l-15 -97h-338z" />
    <glyph glyph-name="Ibreve" unicode="&#x12c;" horiz-adv-x="315" 
d="M25 0l112 705h185l-112 -705h-185zM242 760q-56 0 -97.5 22t-64.5 61.5t-24 88.5l96 12q1 -39 26 -62t70 -23t74.5 23t36.5 62l95 -12q-12 -79 -68.5 -125.5t-143.5 -46.5z" />
    <glyph glyph-name="ibreve" unicode="&#x12d;" horiz-adv-x="288" 
d="M15 0l81 508h178l-81 -508h-178zM201 553q-53 0 -91.5 24.5t-58 69t-16.5 103.5l96 9q0 -51 20 -78t57 -27t61.5 27t31.5 78l95 -9q-6 -59 -32 -103.5t-68 -69t-95 -24.5z" />
    <glyph glyph-name="Iogonek" unicode="&#x12e;" horiz-adv-x="315" 
d="M25 0l112 705h185l-112 -705h-185zM119 -198q-57 0 -87 26.5t-30 72.5q0 50 34 89.5t86 57.5l43 -48q-32 -12 -45.5 -31.5t-13.5 -38.5q0 -18 14 -29.5t35 -11.5q14 0 26.5 3t27.5 7l12 -81q-32 -8 -54 -12t-48 -4z" />
    <glyph glyph-name="iogonek" unicode="&#x12f;" horiz-adv-x="288" 
d="M15 0l81 508h178l-81 -508h-178zM101 580l25 160h187l-25 -160h-187zM105 -198q-57 0 -87 26.5t-30 72.5q0 50 34 89.5t86 57.5l43 -48q-32 -12 -45.5 -31.5t-13.5 -38.5q0 -18 14 -29.5t35 -11.5q14 0 26.5 3t27.5 7l12 -81q-32 -8 -54 -12t-48 -4z" />
    <glyph glyph-name="Idotaccent" unicode="&#x130;" horiz-adv-x="315" 
d="M25 0l112 705h185l-112 -705h-185zM161 778l23 150h159l-23 -150h-159z" />
    <glyph glyph-name="dotlessi" unicode="&#x131;" horiz-adv-x="288" 
d="M15 0l81 508h178l-81 -508h-178z" />
    <glyph glyph-name="IJ" unicode="&#x132;" horiz-adv-x="716" 
d="M25 0l112 705h185l-112 -705h-185zM347 -187q-18 0 -44.5 2.5t-53.5 10.5l23 141q19 -6 37.5 -8t29.5 -2q45 0 67 25t30 81l102 642h185l-105 -658q-13 -85 -44.5 -136.5t-86.5 -74.5t-140 -23z" />
    <glyph glyph-name="Jcircumflex" unicode="&#x134;" horiz-adv-x="401" 
d="M32 -187q-18 0 -44.5 2.5t-53.5 10.5l23 141q19 -6 37.5 -8t29.5 -2q45 0 67 25t30 81l102 642h185l-105 -658q-13 -85 -44.5 -136.5t-86.5 -74.5t-140 -23zM124 765l143 176h145l110 -176h-119l-71 86l-89 -86h-119z" />
    <glyph glyph-name="jcircumflex" unicode="&#x135;" horiz-adv-x="288" 
d="M-51 -225q-24 0 -47 3t-44 12l22 137q13 -5 26 -7t29 -2q28 0 51 16.5t29 59.5l82 514h178l-83 -520q-17 -105 -75 -159t-168 -54zM0 557l132 205h148l91 -205h-107l-66 113l-90 -113h-108z" />
    <glyph glyph-name="uni0136" unicode="&#x136;" horiz-adv-x="704" 
d="M25 0l112 705h185l-48 -302h2l312 302h222l-392 -371l-6 73l305 -407h-214l-240 318h-2l-51 -318h-185zM290 -290l-49 45q24 17 34 34.5t14 40.5l32 -20h-118l20 125h169l-14 -85q-7 -46 -24 -79t-64 -61z" />
    <glyph glyph-name="uni0137" unicode="&#x137;" horiz-adv-x="596" 
d="M15 0l117 736h178l-69 -433h2l197 205h216l-269 -272v61l197 -297h-209l-146 213h-2l-34 -213h-178zM228 -290l-49 45q24 17 34 34.5t14 40.5l32 -20h-118l20 125h169l-14 -85q-7 -46 -24 -79t-64 -61z" />
    <glyph glyph-name="kgreenlandic" unicode="&#x138;" horiz-adv-x="596" 
d="M15 0l81 508h178l-33 -205h2l197 205h216l-269 -272v61l197 -297h-209l-146 213h-2l-34 -213h-178z" />
    <glyph glyph-name="Lacute" unicode="&#x139;" horiz-adv-x="578" 
d="M25 0l112 705h185l-88 -552h302l-24 -153h-487zM178 765l130 176h182l-190 -176h-122z" />
    <glyph glyph-name="lacute" unicode="&#x13a;" horiz-adv-x="288" 
d="M15 0l117 736h178l-117 -736h-178zM169 791l130 176h182l-190 -176h-122z" />
    <glyph glyph-name="uni013B" unicode="&#x13b;" horiz-adv-x="578" 
d="M25 0l112 705h185l-88 -552h302l-24 -153h-487zM250 -290l-49 45q24 17 34 34.5t14 40.5l32 -20h-118l20 125h169l-14 -85q-7 -46 -24 -79t-64 -61z" />
    <glyph glyph-name="uni013C" unicode="&#x13c;" horiz-adv-x="288" 
d="M15 0l117 736h178l-117 -736h-178zM76 -290l-49 45q24 17 34 34.5t14 40.5l32 -20h-118l20 125h169l-14 -85q-7 -46 -24 -79t-64 -61z" />
    <glyph glyph-name="Lcaron" unicode="&#x13d;" horiz-adv-x="578" 
d="M25 0l112 705h185l-88 -552h302l-24 -153h-487zM379 456l40 249h128l-66 -249h-102z" />
    <glyph glyph-name="lcaron" unicode="&#x13e;" horiz-adv-x="288" 
d="M15 0l117 736h178l-117 -736h-178zM313 541l32 195h106l-60 -195h-78z" />
    <glyph glyph-name="Ldot" unicode="&#x13f;" horiz-adv-x="578" 
d="M25 0l112 705h185l-88 -552h302l-24 -153h-487zM372 319l26 159h186l-25 -159h-187z" />
    <glyph glyph-name="ldot" unicode="&#x140;" horiz-adv-x="288" 
d="M15 0l117 736h178l-117 -736h-178zM280 272l26 159h186l-25 -159h-187z" />
    <glyph glyph-name="Lslash" unicode="&#x141;" horiz-adv-x="578" 
d="M25 0l112 705h185l-88 -552h302l-24 -153h-487zM10 216l-56 123l470 219l55 -123z" />
    <glyph glyph-name="lslash" unicode="&#x142;" horiz-adv-x="288" 
d="M15 0l117 736h178l-117 -736h-178zM1 219l-56 123l387 188l56 -123z" />
    <glyph glyph-name="Nacute" unicode="&#x143;" horiz-adv-x="765" 
d="M25 0l112 705h136l285 -455l-28 12l71 443h171l-112 -705h-136l-284 455l28 -12l-70 -443h-173zM407 765l130 176h182l-190 -176h-122z" />
    <glyph glyph-name="nacute" unicode="&#x144;" horiz-adv-x="623" 
d="M15 0l59 370q5 34 8.5 69t5.5 69h171l-3 -88l-12 -1q30 50 78 75t106 25q90 0 129 -55t21 -169l-47 -295h-178l47 296q7 47 -8.5 67t-47.5 20q-43 0 -70.5 -27t-34.5 -71l-46 -285h-178zM305 557l130 205h171l-187 -205h-114z" />
    <glyph glyph-name="uni0145" unicode="&#x145;" horiz-adv-x="765" 
d="M25 0l112 705h136l285 -455l-28 12l71 443h171l-112 -705h-136l-284 455l28 -12l-70 -443h-173zM319 -290l-49 45q24 17 34 34.5t14 40.5l32 -20h-118l20 125h169l-14 -85q-7 -46 -24 -79t-64 -61z" />
    <glyph glyph-name="uni0146" unicode="&#x146;" horiz-adv-x="623" 
d="M15 0l59 370q5 34 8.5 69t5.5 69h171l-3 -88l-12 -1q30 50 78 75t106 25q90 0 129 -55t21 -169l-47 -295h-178l47 296q7 47 -8.5 67t-47.5 20q-43 0 -70.5 -27t-34.5 -71l-46 -285h-178zM245 -290l-49 45q24 17 34 34.5t14 40.5l32 -20h-118l20 125h169l-14 -85
q-7 -46 -24 -79t-64 -61z" />
    <glyph glyph-name="Ncaron" unicode="&#x147;" horiz-adv-x="765" 
d="M25 0l112 705h136l285 -455l-28 12l71 443h171l-112 -705h-136l-284 455l28 -12l-70 -443h-173zM396 765l-110 176h115l73 -86l85 86h125l-143 -176h-145z" />
    <glyph glyph-name="ncaron" unicode="&#x148;" horiz-adv-x="623" 
d="M15 0l59 370q5 34 8.5 69t5.5 69h171l-3 -88l-12 -1q30 50 78 75t106 25q90 0 129 -55t21 -169l-47 -295h-178l47 296q7 47 -8.5 67t-47.5 20q-43 0 -70.5 -27t-34.5 -71l-46 -285h-178zM288 557l-91 205h108l64 -113l91 113h108l-132 -205h-148z" />
    <glyph glyph-name="napostrophe" unicode="&#x149;" horiz-adv-x="706" 
d="M199 561l-56 41q22 18 31.5 37t10.5 40l34 -20h-118l20 127h169l-13 -77q-7 -45 -23 -81t-55 -67zM97 0l59 370q5 34 8.5 69t5.5 69h171l-3 -88l-12 -1q30 50 78 75t106 25q90 0 129 -55t21 -169l-47 -295h-178l47 296q7 47 -8.5 67t-47.5 20q-43 0 -70.5 -27t-34.5 -71
l-46 -285h-178z" />
    <glyph glyph-name="Eng" unicode="&#x14a;" horiz-adv-x="765" 
d="M352 -193l7 125l55 6q34 3 52 18.5t24 46.5l10 64l24 -67l-284 455l28 -12l-70 -443h-173l112 705h136l285 -455l-28 12l71 443h171l-108 -684q-11 -74 -40 -118t-83 -65.5t-143 -27.5z" />
    <glyph glyph-name="eng" unicode="&#x14b;" horiz-adv-x="623" 
d="M15 0l59 370q5 34 8.5 69t5.5 69h171l-3 -88h-12q30 50 78 74.5t106 24.5q90 0 129 -55t21 -169l-49 -306q-18 -105 -76.5 -159.5t-169.5 -54.5q-25 0 -47.5 3t-42.5 12l21 137q14 -5 26.5 -7t28.5 -2q30 0 53 17t30 60l48 301q7 47 -8.5 67t-47.5 20q-43 0 -70.5 -27
t-34.5 -71l-46 -285h-178z" />
    <glyph glyph-name="Omacron" unicode="&#x14c;" horiz-adv-x="804" 
d="M65 371q17 110 70 187t135 117.5t186 40.5q120 0 195.5 -49.5t106.5 -136t13 -195.5q-17 -110 -70.5 -187t-135 -118t-187.5 -41q-118 0 -194 50t-106 136.5t-13 195.5zM256 361q-11 -69 1.5 -118t47 -74.5t89.5 -25.5q79 0 125 55t60 147q12 69 -1 117.5t-47.5 74
t-90.5 25.5q-79 0 -124 -54t-60 -147zM304 796l15 97h368l-15 -97h-368z" />
    <glyph glyph-name="omacron" unicode="&#x14d;" horiz-adv-x="617" 
d="M282 -11q-90 0 -150 34.5t-85 98t-12 150.5q13 82 55 137t105.5 82.5t141.5 27.5q91 0 150 -34.5t84 -97.5t11 -151q-13 -82 -54.5 -137t-104.5 -82.5t-141 -27.5zM292 121q42 0 72 30.5t41 94.5q12 77 -11 109t-68 32q-43 0 -72.5 -30t-40.5 -95q-12 -76 10.5 -108.5
t68.5 -32.5zM197 605l15 97h338l-15 -97h-338z" />
    <glyph glyph-name="Obreve" unicode="&#x14e;" horiz-adv-x="804" 
d="M65 371q17 110 70 187t135 117.5t186 40.5q120 0 195.5 -49.5t106.5 -136t13 -195.5q-17 -110 -70.5 -187t-135 -118t-187.5 -41q-118 0 -194 50t-106 136.5t-13 195.5zM256 361q-11 -69 1.5 -118t47 -74.5t89.5 -25.5q79 0 125 55t60 147q12 69 -1 117.5t-47.5 74
t-90.5 25.5q-79 0 -124 -54t-60 -147zM486 760q-56 0 -97.5 22t-64.5 61.5t-24 88.5l96 12q1 -39 26 -62t70 -23t74.5 23t36.5 62l95 -12q-12 -79 -68.5 -125.5t-143.5 -46.5z" />
    <glyph glyph-name="obreve" unicode="&#x14f;" horiz-adv-x="617" 
d="M282 -11q-90 0 -150 34.5t-85 98t-12 150.5q13 82 55 137t105.5 82.5t141.5 27.5q91 0 150 -34.5t84 -97.5t11 -151q-13 -82 -54.5 -137t-104.5 -82.5t-141 -27.5zM292 121q42 0 72 30.5t41 94.5q12 77 -11 109t-68 32q-43 0 -72.5 -30t-40.5 -95q-12 -76 10.5 -108.5
t68.5 -32.5zM365 553q-53 0 -91.5 24.5t-58 69t-16.5 103.5l96 9q0 -51 20 -78t57 -27t61.5 27t31.5 78l95 -9q-6 -59 -32 -103.5t-68 -69t-95 -24.5z" />
    <glyph glyph-name="Ohungarumlaut" unicode="&#x150;" horiz-adv-x="804" 
d="M65 371q17 110 70 187t135 117.5t186 40.5q120 0 195.5 -49.5t106.5 -136t13 -195.5q-17 -110 -70.5 -187t-135 -118t-187.5 -41q-118 0 -194 50t-106 136.5t-13 195.5zM256 361q-11 -69 1.5 -118t47 -74.5t89.5 -25.5q79 0 125 55t60 147q12 69 -1 117.5t-47.5 74
t-90.5 25.5q-79 0 -124 -54t-60 -147zM349 765l101 176h150l-152 -176h-99zM520 765l116 176h151l-168 -176h-99z" />
    <glyph glyph-name="ohungarumlaut" unicode="&#x151;" horiz-adv-x="617" 
d="M282 -11q-90 0 -150 34.5t-85 98t-12 150.5q13 82 55 137t105.5 82.5t141.5 27.5q91 0 150 -34.5t84 -97.5t11 -151q-13 -82 -54.5 -137t-104.5 -82.5t-141 -27.5zM292 121q42 0 72 30.5t41 94.5q12 77 -11 109t-68 32q-43 0 -72.5 -30t-40.5 -95q-12 -76 10.5 -108.5
t68.5 -32.5zM396 557l63 205h141l-113 -205h-91zM222 557l63 205h141l-112 -205h-92z" />
    <glyph glyph-name="OE" unicode="&#x152;" horiz-adv-x="1054" 
d="M487 0l112 705h494l-22 -141h-318l-21 -135h294l-22 -142h-295l-23 -145h318l-23 -142h-494zM346 -11q-107 0 -175.5 50t-95.5 136.5t-10 195.5q17 110 67 187t127 117.5t173 40.5q57 0 102 -14t70 -43l-29 -185q-19 48 -52.5 68t-82.5 20q-79 0 -124 -54t-60 -147
q-11 -69 0.5 -118t44.5 -74.5t84 -25.5q56 0 89.5 19.5t57.5 51.5l-26 -169q-31 -26 -70 -41t-90 -15z" />
    <glyph glyph-name="oe" unicode="&#x153;" horiz-adv-x="928" 
d="M282 -11q-90 0 -150.5 34.5t-85.5 98t-11 150.5q13 82 55 137t105.5 82.5t141.5 27.5q72 0 122.5 -24.5t76.5 -73.5h-49q26 33 57.5 55t67.5 32.5t78 10.5q78 0 128 -33.5t71 -91.5t9 -134l-5 -36h-335l13 84h206l-23 -18q9 57 -11 84.5t-57 27.5q-30 0 -51.5 -14
t-34 -38.5t-17.5 -55.5l-7 -44q-9 -62 20 -95.5t104 -33.5q34 0 65 9t66 29l44 -116q-42 -28 -93.5 -41t-107.5 -13q-80 0 -137 27.5t-84 77.5l51 1q-36 -52 -93 -79t-129 -27zM292 121q42 0 72 30.5t41 94.5q12 77 -11 109t-68 32q-43 0 -72.5 -30t-40.5 -95
q-12 -76 10.5 -108.5t68.5 -32.5z" />
    <glyph glyph-name="Racute" unicode="&#x154;" horiz-adv-x="713" 
d="M25 0l112 705h316q135 0 193.5 -60t41.5 -169q-10 -64 -47 -111t-96 -72.5t-135 -25.5l3 25h45q44 0 73.5 -24.5t46.5 -66.5l77 -201h-192l-83 225q-7 22 -29 30t-49 8h-50l-42 -263h-185zM272 394h122q53 0 82 21t35 61q7 45 -17.5 66.5t-77.5 21.5h-117zM385 765
l130 176h182l-190 -176h-122z" />
    <glyph glyph-name="racute" unicode="&#x155;" horiz-adv-x="429" 
d="M15 0l59 369q5 35 8.5 70t5.5 69h171l-5 -156h-30q19 57 47.5 94t65.5 55t81 18q16 0 29 -1.5t24 -3.5l-26 -157q-20 9 -35.5 12t-39.5 3q-34 0 -62.5 -14.5t-48.5 -44t-27 -77.5l-37 -236h-180zM250 557l130 205h171l-187 -205h-114z" />
    <glyph glyph-name="uni0156" unicode="&#x156;" horiz-adv-x="713" 
d="M25 0l112 705h316q135 0 193.5 -60t41.5 -169q-10 -64 -47 -111t-96 -72.5t-135 -25.5l3 25h45q44 0 73.5 -24.5t46.5 -66.5l77 -201h-192l-83 225q-7 22 -29 30t-49 8h-50l-42 -263h-185zM272 394h122q53 0 82 21t35 61q7 45 -17.5 66.5t-77.5 21.5h-117zM297 -290
l-49 45q24 17 34 34.5t14 40.5l32 -20h-118l20 125h169l-14 -85q-7 -46 -24 -79t-64 -61z" />
    <glyph glyph-name="uni0157" unicode="&#x157;" horiz-adv-x="429" 
d="M15 0l59 369q5 35 8.5 70t5.5 69h171l-5 -156h-30q19 57 47.5 94t65.5 55t81 18q16 0 29 -1.5t24 -3.5l-26 -157q-20 9 -35.5 12t-39.5 3q-34 0 -62.5 -14.5t-48.5 -44t-27 -77.5l-37 -236h-180zM76 -290l-49 45q24 17 34 34.5t14 40.5l32 -20h-118l20 125h169l-14 -85
q-7 -46 -24 -79t-64 -61z" />
    <glyph glyph-name="Rcaron" unicode="&#x158;" horiz-adv-x="713" 
d="M25 0l112 705h316q135 0 193.5 -60t41.5 -169q-10 -64 -47 -111t-96 -72.5t-135 -25.5l3 25h45q44 0 73.5 -24.5t46.5 -66.5l77 -201h-192l-83 225q-7 22 -29 30t-49 8h-50l-42 -263h-185zM272 394h122q53 0 82 21t35 61q7 45 -17.5 66.5t-77.5 21.5h-117zM374 765
l-110 176h115l73 -86l85 86h125l-143 -176h-145z" />
    <glyph glyph-name="rcaron" unicode="&#x159;" horiz-adv-x="429" 
d="M15 0l59 369q5 35 8.5 70t5.5 69h171l-5 -156h-30q19 57 47.5 94t65.5 55t81 18q16 0 29 -1.5t24 -3.5l-26 -157q-20 9 -35.5 12t-39.5 3q-34 0 -62.5 -14.5t-48.5 -44t-27 -77.5l-37 -236h-180zM233 557l-91 205h108l64 -113l91 113h108l-132 -205h-148z" />
    <glyph glyph-name="Sacute" unicode="&#x15a;" horiz-adv-x="671" 
d="M298 -11q-79 0 -151 18t-119 48l58 142q45 -23 104.5 -40t123.5 -17q66 0 94.5 17t32.5 44q3 24 -10 39.5t-53 22.5l-116 20q-90 15 -137 70.5t-33 142.5q11 69 54 118t113 75.5t161 26.5q68 0 130.5 -16.5t99.5 -46.5l-60 -139q-35 23 -82 37t-107 14q-58 0 -90.5 -16.5
t-38.5 -48.5q-4 -22 10 -40.5t56 -25.5l115 -19q94 -16 138.5 -70t30.5 -140q-9 -63 -50.5 -112t-110.5 -76.5t-163 -27.5zM363 765l130 176h182l-190 -176h-122z" />
    <glyph glyph-name="sacute" unicode="&#x15b;" horiz-adv-x="506" 
d="M221 -11q-68 0 -123.5 13.5t-90.5 36.5l46 116q37 -20 83.5 -33t92.5 -13q38 0 57 11t22 30q3 16 -7 26t-31 14l-93 14q-72 11 -102 51.5t-20 103.5q8 52 41 88t85 54t115 18q57 0 107 -11.5t85 -37.5l-50 -112q-28 18 -67.5 30t-74.5 12q-41 0 -61 -12t-23 -31
q-2 -14 6 -25t29 -14l94 -15q73 -11 103.5 -49.5t20.5 -103.5q-9 -54 -42.5 -90t-85.5 -53.5t-116 -17.5zM250 557l130 205h171l-187 -205h-114z" />
    <glyph glyph-name="Scircumflex" unicode="&#x15c;" horiz-adv-x="671" 
d="M298 -11q-79 0 -151 18t-119 48l58 142q45 -23 104.5 -40t123.5 -17q66 0 94.5 17t32.5 44q3 24 -10 39.5t-53 22.5l-116 20q-90 15 -137 70.5t-33 142.5q11 69 54 118t113 75.5t161 26.5q68 0 130.5 -16.5t99.5 -46.5l-60 -139q-35 23 -82 37t-107 14q-58 0 -90.5 -16.5
t-38.5 -48.5q-4 -22 10 -40.5t56 -25.5l115 -19q94 -16 138.5 -70t30.5 -140q-9 -63 -50.5 -112t-110.5 -76.5t-163 -27.5zM220 765l143 176h145l110 -176h-119l-71 86l-89 -86h-119z" />
    <glyph glyph-name="scircumflex" unicode="&#x15d;" horiz-adv-x="506" 
d="M221 -11q-68 0 -123.5 13.5t-90.5 36.5l46 116q37 -20 83.5 -33t92.5 -13q38 0 57 11t22 30q3 16 -7 26t-31 14l-93 14q-72 11 -102 51.5t-20 103.5q8 52 41 88t85 54t115 18q57 0 107 -11.5t85 -37.5l-50 -112q-28 18 -67.5 30t-74.5 12q-41 0 -61 -12t-23 -31
q-2 -14 6 -25t29 -14l94 -15q73 -11 103.5 -49.5t20.5 -103.5q-9 -54 -42.5 -90t-85.5 -53.5t-116 -17.5zM115 557l132 205h148l91 -205h-107l-66 113l-90 -113h-108z" />
    <glyph glyph-name="Scedilla" unicode="&#x15e;" horiz-adv-x="671" 
d="M298 -11q-79 0 -151 18t-119 48l58 142q45 -23 104.5 -40t123.5 -17q66 0 94.5 17t32.5 44q3 24 -10 39.5t-53 22.5l-116 20q-90 15 -137 70.5t-33 142.5q11 69 54 118t113 75.5t161 26.5q68 0 130.5 -16.5t99.5 -46.5l-60 -139q-35 23 -82 37t-107 14q-58 0 -90.5 -16.5
t-38.5 -48.5q-4 -22 10 -40.5t56 -25.5l115 -19q94 -16 138.5 -70t30.5 -140q-9 -63 -50.5 -112t-110.5 -76.5t-163 -27.5zM272 -198q-33 0 -63.5 5.5t-52.5 17.5l31 70q17 -8 36 -12.5t37 -4.5q27 0 39 5.5t12 17.5q0 7 -7.5 11.5t-26.5 4.5q-8 0 -16.5 -1t-19.5 -3l-19 21
l26 86h84l-24 -77l-39 17q12 5 24 7t22 2q45 0 69 -18t24 -51q0 -45 -39 -71.5t-97 -26.5z" />
    <glyph glyph-name="scedilla" unicode="&#x15f;" horiz-adv-x="506" 
d="M221 -11q-68 0 -123.5 13.5t-90.5 36.5l46 116q37 -20 83.5 -33t92.5 -13q38 0 57 11t22 30q3 16 -7 26t-31 14l-93 14q-72 11 -102 51.5t-20 103.5q8 52 41 88t85 54t115 18q57 0 107 -11.5t85 -37.5l-50 -112q-28 18 -67.5 30t-74.5 12q-41 0 -61 -12t-23 -31
q-2 -14 6 -25t29 -14l94 -15q73 -11 103.5 -49.5t20.5 -103.5q-9 -54 -42.5 -90t-85.5 -53.5t-116 -17.5zM186 -198q-33 0 -63.5 5.5t-52.5 17.5l31 70q17 -8 36 -12.5t37 -4.5q27 0 39 5.5t12 17.5q0 7 -7.5 11.5t-26.5 4.5q-8 0 -16.5 -1t-19.5 -3l-19 21l26 86h84
l-24 -77l-39 17q12 5 24 7t22 2q45 0 69 -18t24 -51q0 -45 -39 -71.5t-97 -26.5z" />
    <glyph glyph-name="Scaron" unicode="&#x160;" horiz-adv-x="671" 
d="M298 -11q-79 0 -151 18t-119 48l58 142q45 -23 104.5 -40t123.5 -17q66 0 94.5 17t32.5 44q3 24 -10 39.5t-53 22.5l-116 20q-90 15 -137 70.5t-33 142.5q11 69 54 118t113 75.5t161 26.5q68 0 130.5 -16.5t99.5 -46.5l-60 -139q-35 23 -82 37t-107 14q-58 0 -90.5 -16.5
t-38.5 -48.5q-4 -22 10 -40.5t56 -25.5l115 -19q94 -16 138.5 -70t30.5 -140q-9 -63 -50.5 -112t-110.5 -76.5t-163 -27.5zM352 765l-110 176h115l73 -86l85 86h125l-143 -176h-145z" />
    <glyph glyph-name="scaron" unicode="&#x161;" horiz-adv-x="506" 
d="M221 -11q-68 0 -123.5 13.5t-90.5 36.5l46 116q37 -20 83.5 -33t92.5 -13q38 0 57 11t22 30q3 16 -7 26t-31 14l-93 14q-72 11 -102 51.5t-20 103.5q8 52 41 88t85 54t115 18q57 0 107 -11.5t85 -37.5l-50 -112q-28 18 -67.5 30t-74.5 12q-41 0 -61 -12t-23 -31
q-2 -14 6 -25t29 -14l94 -15q73 -11 103.5 -49.5t20.5 -103.5q-9 -54 -42.5 -90t-85.5 -53.5t-116 -17.5zM233 557l-91 205h108l64 -113l91 113h108l-132 -205h-148z" />
    <glyph glyph-name="uni0162" unicode="&#x162;" horiz-adv-x="638" 
d="M186 0l88 556h-214l24 149h613l-24 -149h-214l-88 -556h-185zM255 -198q-33 0 -63.5 5.5t-52.5 17.5l31 70q17 -8 36 -12.5t37 -4.5q27 0 39 5.5t12 17.5q0 7 -7.5 11.5t-26.5 4.5q-8 0 -16.5 -1t-19.5 -3l-19 21l26 86h84l-24 -77l-39 17q12 5 24 7t22 2q45 0 69 -18
t24 -51q0 -45 -39 -71.5t-97 -26.5z" />
    <glyph glyph-name="uni0163" unicode="&#x163;" horiz-adv-x="414" 
d="M275 -11q-110 0 -155.5 54.5t-30.5 153.5l29 180h-95l21 131h95l19 120l185 42l-26 -162h124l-21 -131h-124l-27 -173q-7 -42 11.5 -57.5t47.5 -15.5q16 0 27.5 2.5t27.5 7.5l-22 -137q-23 -9 -44.5 -12t-41.5 -3zM194 -198q-33 0 -63.5 5.5t-52.5 17.5l31 70
q17 -8 36 -12.5t37 -4.5q27 0 39 5.5t12 17.5q0 7 -7.5 11.5t-26.5 4.5q-8 0 -16.5 -1t-19.5 -3l-19 21l26 86h84l-24 -77l-39 17q12 5 24 7t22 2q45 0 69 -18t24 -51q0 -45 -39 -71.5t-97 -26.5z" />
    <glyph glyph-name="Tcaron" unicode="&#x164;" horiz-adv-x="638" 
d="M186 0l88 556h-214l24 149h613l-24 -149h-214l-88 -556h-185zM328 765l-110 176h115l73 -86l85 86h125l-143 -176h-145z" />
    <glyph glyph-name="tcaron" unicode="&#x165;" horiz-adv-x="414" 
d="M275 -11q-110 0 -155.5 54.5t-30.5 153.5l29 180h-95l21 131h95l19 120l185 42l-26 -162h124l-21 -131h-124l-27 -173q-7 -42 11.5 -57.5t47.5 -15.5q16 0 27.5 2.5t27.5 7.5l-22 -137q-23 -9 -44.5 -12t-41.5 -3zM365 551l29 180h106l-58 -180h-77z" />
    <glyph glyph-name="Tbar" unicode="&#x166;" horiz-adv-x="638" 
d="M186 0l88 556h-214l24 149h613l-24 -149h-214l-88 -556h-185zM100 291l21 130h449l-20 -130h-450z" />
    <glyph glyph-name="tbar" unicode="&#x167;" horiz-adv-x="414" 
d="M275 -11q-110 0 -155.5 54.5t-30.5 153.5l29 180h-95l21 131h95l19 120l185 42l-26 -162h124l-21 -131h-124l-27 -173q-7 -42 11.5 -57.5t47.5 -15.5q16 0 27.5 2.5t27.5 7.5l-22 -137q-23 -9 -44.5 -12t-41.5 -3zM27 212l16 102h347l-16 -102h-347z" />
    <glyph glyph-name="Utilde" unicode="&#x168;" horiz-adv-x="751" 
d="M348 -11q-98 0 -166.5 34t-98.5 104.5t-13 179.5l64 398h184l-64 -409q-12 -75 13.5 -114t99.5 -39q66 0 102 38.5t49 117.5l64 406h182l-66 -413q-16 -100 -57.5 -167.5t-113.5 -101.5t-179 -34zM299 759l-81 6q11 79 53 122t105 43q31 0 57 -9.5t49 -21.5
q20 -8 38.5 -15.5t36.5 -7.5q55 0 72 59l81 -5q-12 -80 -53.5 -122.5t-104.5 -42.5q-31 0 -57 9.5t-49 20.5q-20 9 -38.5 16t-37.5 7q-54 0 -71 -59z" />
    <glyph glyph-name="utilde" unicode="&#x169;" horiz-adv-x="618" 
d="M209 -11q-96 0 -138 56.5t-26 161.5l48 301h178l-48 -302q-7 -41 8 -61t51 -20q41 0 66 27.5t32 72.5l45 283h178l-81 -508h-173l14 91h15q-29 -49 -71 -75.5t-98 -26.5zM232 577l-81 5q9 80 48 122.5t97 42.5q27 0 46.5 -9t35.5 -20q14 -10 29 -17t33 -7q49 0 65 59
l81 -6q-10 -79 -48.5 -122t-96.5 -43q-27 0 -47.5 10t-37.5 21q-15 9 -29 16t-31 7q-48 0 -64 -59z" />
    <glyph glyph-name="Umacron" unicode="&#x16a;" horiz-adv-x="751" 
d="M348 -11q-98 0 -166.5 34t-98.5 104.5t-13 179.5l64 398h184l-64 -409q-12 -75 13.5 -114t99.5 -39q66 0 102 38.5t49 117.5l64 406h182l-66 -413q-16 -100 -57.5 -167.5t-113.5 -101.5t-179 -34zM280 796l15 97h368l-15 -97h-368z" />
    <glyph glyph-name="umacron" unicode="&#x16b;" horiz-adv-x="618" 
d="M209 -11q-96 0 -138 56.5t-26 161.5l48 301h178l-48 -302q-7 -41 8 -61t51 -20q41 0 66 27.5t32 72.5l45 283h178l-81 -508h-173l14 91h15q-29 -49 -71 -75.5t-98 -26.5zM196 605l15 97h338l-15 -97h-338z" />
    <glyph glyph-name="Ubreve" unicode="&#x16c;" horiz-adv-x="751" 
d="M348 -11q-98 0 -166.5 34t-98.5 104.5t-13 179.5l64 398h184l-64 -409q-12 -75 13.5 -114t99.5 -39q66 0 102 38.5t49 117.5l64 406h182l-66 -413q-16 -100 -57.5 -167.5t-113.5 -101.5t-179 -34zM463 760q-56 0 -97.5 22t-64.5 61.5t-24 88.5l96 12q1 -39 26 -62t70 -23
t74.5 23t36.5 62l95 -12q-12 -79 -68.5 -125.5t-143.5 -46.5z" />
    <glyph glyph-name="ubreve" unicode="&#x16d;" horiz-adv-x="618" 
d="M209 -11q-96 0 -138 56.5t-26 161.5l48 301h178l-48 -302q-7 -41 8 -61t51 -20q41 0 66 27.5t32 72.5l45 283h178l-81 -508h-173l14 91h15q-29 -49 -71 -75.5t-98 -26.5zM365 553q-53 0 -91.5 24.5t-58 69t-16.5 103.5l96 9q0 -51 20 -78t57 -27t61.5 27t31.5 78l95 -9
q-6 -59 -32 -103.5t-68 -69t-95 -24.5z" />
    <glyph glyph-name="Uring" unicode="&#x16e;" horiz-adv-x="751" 
d="M348 -11q-98 0 -166.5 34t-98.5 104.5t-13 179.5l64 398h184l-64 -409q-12 -75 13.5 -114t99.5 -39q66 0 102 38.5t49 117.5l64 406h182l-66 -413q-16 -100 -57.5 -167.5t-113.5 -101.5t-179 -34zM471 752q-38 0 -69 17t-48.5 47t-17.5 67t17.5 66.5t48.5 46.5t68 17
q39 0 69.5 -17t48.5 -46.5t18 -67.5q0 -36 -18 -66t-48.5 -47t-68.5 -17zM470 825q25 0 41 16.5t16 40.5q0 25 -16 41t-40 16q-25 0 -41 -16t-16 -41q0 -24 16 -40.5t40 -16.5z" />
    <glyph glyph-name="uring" unicode="&#x16f;" horiz-adv-x="618" 
d="M209 -11q-96 0 -138 56.5t-26 161.5l48 301h178l-48 -302q-7 -41 8 -61t51 -20q41 0 66 27.5t32 72.5l45 283h178l-81 -508h-173l14 91h15q-29 -49 -71 -75.5t-98 -26.5zM375 545q-37 0 -68 17t-49 47t-18 66q0 37 18 66.5t49 47t68 17.5q39 0 69.5 -17.5t48 -47
t17.5 -66.5t-17.5 -66.5t-48 -46.5t-69.5 -17zM375 618q25 0 41 16t16 41t-16 41t-41 16q-24 0 -40 -16t-16 -41t16 -41t40 -16z" />
    <glyph glyph-name="Uhungarumlaut" unicode="&#x170;" horiz-adv-x="751" 
d="M348 -11q-98 0 -166.5 34t-98.5 104.5t-13 179.5l64 398h184l-64 -409q-12 -75 13.5 -114t99.5 -39q66 0 102 38.5t49 117.5l64 406h182l-66 -413q-16 -100 -57.5 -167.5t-113.5 -101.5t-179 -34zM325 765l101 176h150l-152 -176h-99zM496 765l116 176h151l-168 -176h-99
z" />
    <glyph glyph-name="uhungarumlaut" unicode="&#x171;" horiz-adv-x="618" 
d="M209 -11q-96 0 -138 56.5t-26 161.5l48 301h178l-48 -302q-7 -41 8 -61t51 -20q41 0 66 27.5t32 72.5l45 283h178l-81 -508h-173l14 91h15q-29 -49 -71 -75.5t-98 -26.5zM395 557l63 205h141l-113 -205h-91zM221 557l63 205h141l-112 -205h-92z" />
    <glyph glyph-name="Uogonek" unicode="&#x172;" horiz-adv-x="751" 
d="M348 -11q-98 0 -166.5 34t-98.5 104.5t-13 179.5l64 398h184l-64 -409q-12 -75 13.5 -114t99.5 -39q66 0 102 38.5t49 117.5l64 406h182l-66 -413q-16 -100 -57.5 -167.5t-113.5 -101.5t-179 -34zM395 -198q-57 0 -87 26.5t-30 72.5q0 50 34 89.5t86 57.5l43 -48
q-32 -12 -45.5 -31.5t-13.5 -38.5q0 -18 14 -29.5t35 -11.5q14 0 26.5 3t27.5 7l12 -81q-32 -8 -54 -12t-48 -4z" />
    <glyph glyph-name="uogonek" unicode="&#x173;" horiz-adv-x="618" 
d="M209 -11q-96 0 -138 56.5t-26 161.5l48 301h178l-48 -302q-7 -41 8 -61t51 -20q41 0 66 27.5t32 72.5l45 283h178l-81 -508h-173l14 91h15q-29 -49 -71 -75.5t-98 -26.5zM428 -198q-57 0 -87 26.5t-30 72.5q0 50 34 89.5t86 57.5l43 -48q-32 -12 -45.5 -31.5t-13.5 -38.5
q0 -18 14 -29.5t35 -11.5q14 0 26.5 3t27.5 7l12 -81q-32 -8 -54 -12t-48 -4z" />
    <glyph glyph-name="Wcircumflex" unicode="&#x174;" horiz-adv-x="1131" 
d="M226 0l-140 705h184l83 -510h-45l264 510h133l84 -510h-43l258 510h185l-365 -705h-148l-87 459h22l-236 -459h-149zM444 765l143 176h145l110 -176h-119l-71 86l-89 -86h-119z" />
    <glyph glyph-name="wcircumflex" unicode="&#x175;" horiz-adv-x="900" 
d="M162 0l-130 508h174l73 -334h-25l178 334h113l71 -334h-21l178 334h176l-290 -508h-149l-83 345h68l-184 -345h-149zM306 557l132 205h148l91 -205h-107l-66 113l-90 -113h-108z" />
    <glyph glyph-name="Ycircumflex" unicode="&#x176;" horiz-adv-x="656" 
d="M196 0l54 337l19 -102l-239 470h205l134 -283h-36l225 283h212l-390 -478l54 110l-53 -337h-185zM206 765l143 176h145l110 -176h-119l-71 86l-89 -86h-119z" />
    <glyph glyph-name="ycircumflex" unicode="&#x177;" horiz-adv-x="558" 
d="M-19 -227l-27 138q50 9 84 19.5t57.5 28.5t41.5 47l34 58l-9 -67l-140 511h181l77 -337h-34l189 337h182l-310 -519q-37 -61 -74 -100t-76 -62t-82 -34.5t-94 -19.5zM134 557l132 205h148l91 -205h-107l-66 113l-90 -113h-108z" />
    <glyph glyph-name="Ydieresis" unicode="&#x178;" horiz-adv-x="656" 
d="M196 0l54 337l19 -102l-239 470h205l134 -283h-36l225 283h212l-390 -478l54 110l-53 -337h-185zM439 771l24 149h148l-24 -149h-148zM232 771l24 149h149l-24 -149h-149z" />
    <glyph glyph-name="Zacute" unicode="&#x179;" horiz-adv-x="623" 
d="M7 0l21 135l425 471l-8 -51h-350l24 150h533l-22 -135l-425 -471l8 51h366l-24 -150h-548zM342 765l130 176h182l-190 -176h-122z" />
    <glyph glyph-name="zacute" unicode="&#x17a;" horiz-adv-x="534" 
d="M6 0l18 115l330 303l-7 -41h-281l21 131h446l-18 -115l-334 -308l7 45h295l-20 -130h-457zM269 557l130 205h171l-187 -205h-114z" />
    <glyph glyph-name="Zdotaccent" unicode="&#x17b;" horiz-adv-x="623" 
d="M7 0l21 135l425 471l-8 -51h-350l24 150h533l-22 -135l-425 -471l8 51h366l-24 -150h-548zM325 778l23 150h159l-23 -150h-159z" />
    <glyph glyph-name="zdotaccent" unicode="&#x17c;" horiz-adv-x="534" 
d="M6 0l18 115l330 303l-7 -41h-281l21 131h446l-18 -115l-334 -308l7 45h295l-20 -130h-457zM250 583l24 150h159l-24 -150h-159z" />
    <glyph glyph-name="Zcaron" unicode="&#x17d;" horiz-adv-x="623" 
d="M7 0l21 135l425 471l-8 -51h-350l24 150h533l-22 -135l-425 -471l8 51h366l-24 -150h-548zM331 765l-110 176h115l73 -86l85 86h125l-143 -176h-145z" />
    <glyph glyph-name="zcaron" unicode="&#x17e;" horiz-adv-x="534" 
d="M6 0l18 115l330 303l-7 -41h-281l21 131h446l-18 -115l-334 -308l7 45h295l-20 -130h-457zM252 557l-91 205h108l64 -113l91 113h108l-132 -205h-148z" />
    <glyph glyph-name="uni0181" unicode="&#x181;" horiz-adv-x="887" 
d="M211 0l91 580h-19q-44 0 -67 -19.5t-30 -63.5l-9 -52h-147l9 57q17 100 84 151.5t186 51.5h349q122 0 178.5 -50.5t42.5 -140.5q-9 -58 -52.5 -100.5t-108.5 -58.5l2 16q73 -13 106 -61.5t22 -119.5q-13 -87 -85.5 -138.5t-190.5 -51.5h-361zM409 135h155q51 0 78.5 18
t33.5 54q5 30 -4 48.5t-31 26.5t-57 8h-151zM454 425h135q52 0 78.5 17t31.5 51q6 41 -15 59t-74 18h-133z" />
    <glyph glyph-name="uni018A" unicode="&#x18a;" horiz-adv-x="966" 
d="M211 0l91 580h-19q-44 0 -67 -19.5t-30 -63.5l-9 -52h-147l9 57q17 100 83.5 151.5t183.5 51.5h283q135 0 217 -46t113.5 -128.5t13.5 -195.5q-26 -167 -137 -251t-293 -84h-292zM419 150h88q109 0 169.5 48t74.5 143q17 113 -27.5 164t-155.5 51h-85z" />
    <glyph glyph-name="uni018F" unicode="&#x18f;" horiz-adv-x="785" 
d="M373 -11q-121 0 -194.5 49.5t-101.5 134.5t-13 193l9 56h547l-22 -139h-409l57 70q-11 -74 -1.5 -122t42.5 -71.5t91 -23.5q77 0 124 48.5t63 152.5q17 109 -21 167t-147 58q-57 0 -111 -13.5t-109 -45.5l-50 139q61 36 135 55t163 19q125 0 203.5 -49t109.5 -135
t14 -197q-17 -108 -70.5 -186t-133 -119t-175.5 -41z" />
    <glyph glyph-name="florin" unicode="&#x192;" horiz-adv-x="600" 
d="M-49 -191l22 138h68q28 0 48.5 17.5t35.5 57.5l134 362l28 -23h-130l20 131h152l-37 -20l13 38q33 98 106 152t167 54h74l-22 -139h-54q-38 0 -60 -18t-37 -57l-11 -30l-20 20h130l-21 -131h-150l27 23l-137 -370q-36 -97 -105 -151t-158 -54h-83z" />
    <glyph glyph-name="Ohorn" unicode="&#x1a0;" horiz-adv-x="804" 
d="M65 371q17 110 70 187t135 117.5t186 40.5q120 0 195.5 -49.5t106.5 -136t13 -195.5q-17 -110 -70.5 -187t-135 -118t-187.5 -41q-118 0 -194 50t-106 136.5t-13 195.5zM256 361q-11 -69 1.5 -118t47 -74.5t89.5 -25.5q79 0 125 55t60 147q12 69 -1 117.5t-47.5 74
t-90.5 25.5q-79 0 -124 -54t-60 -147zM566 624l-29 85q18 -1 31 -2.5t25 -1.5q28 0 46 7t30 28t19 62l4 27h155l-8 -48q-7 -41 -29 -76.5t-55 -58t-74 -22.5h-115z" />
    <glyph glyph-name="ohorn" unicode="&#x1a1;" horiz-adv-x="617" 
d="M282 -11q-90 0 -150 34.5t-85 98t-12 150.5q13 82 55 137t105.5 82.5t141.5 27.5q91 0 150 -34.5t84 -97.5t11 -151q-13 -82 -54.5 -137t-104.5 -82.5t-141 -27.5zM292 121q42 0 72 30.5t41 94.5q12 77 -11 109t-68 32q-43 0 -72.5 -30t-40.5 -95q-12 -76 10.5 -108.5
t68.5 -32.5zM509 428l-102 65l3 15q27 1 45 7.5t30 27.5t19 62l4 27h154l-8 -49q-10 -60 -48 -103.5t-97 -51.5z" />
    <glyph glyph-name="Uhorn" unicode="&#x1af;" horiz-adv-x="751" 
d="M348 -11q-98 0 -166.5 34t-98.5 104.5t-13 179.5l64 398h184l-64 -409q-12 -75 13.5 -114t99.5 -39q66 0 102 38.5t49 117.5l64 406h182l-66 -413q-16 -100 -57.5 -167.5t-113.5 -101.5t-179 -34zM750 624l-101 66l2 15q27 0 45.5 6.5t30.5 26t18 60.5l4 31h154l-7 -52
q-10 -60 -48.5 -102.5t-97.5 -50.5z" />
    <glyph glyph-name="uhorn" unicode="&#x1b0;" horiz-adv-x="618" 
d="M209 -11q-96 0 -138 56.5t-26 161.5l48 301h178l-48 -302q-7 -41 8 -61t51 -20q41 0 66 27.5t32 72.5l45 283h178l-81 -508h-173l14 91h15q-29 -49 -71 -75.5t-98 -26.5zM575 428l-102 65l3 15q27 1 45 7.5t30 27.5t19 62l4 27h154l-8 -49q-10 -60 -48 -103.5t-97 -51.5z
" />
    <glyph glyph-name="uni01B3" unicode="&#x1b3;" horiz-adv-x="656" 
d="M196 0l54 337l19 -102l-239 470h205l134 -283h-36l149 186q34 42 67.5 65.5t72.5 33t87 9.5q25 0 47.5 -3.5t35.5 -10.5l-19 -122q-11 4 -23 5t-27 1q-25 0 -45.5 -10t-41.5 -36l-256 -313l54 110l-53 -337h-185z" />
    <glyph glyph-name="uni01B4" unicode="&#x1b4;" horiz-adv-x="611" 
d="M-19 -227l-27 138q50 9 84 19.5t57.5 28.5t41.5 47l34 58l-9 -67l-140 511h181l77 -337h-34l119 214q26 47 56 76.5t70.5 43.5t97.5 14q24 0 48 -3.5t36 -10.5l-34 -128q-10 4 -19.5 5t-19.5 1q-29 0 -53 -15.5t-47 -52.5l-193 -326q-37 -61 -74 -100t-76 -62
t-82.5 -34.5t-93.5 -19.5z" />
    <glyph glyph-name="uni01C4" unicode="&#x1c4;" horiz-adv-x="1388" 
d="M25 0l112 705h267q134 0 216.5 -46t114 -128.5t13.5 -195.5q-27 -167 -138 -251t-293 -84h-292zM234 150h88q108 0 168 48t76 143q17 113 -28 164t-155 51h-86zM773 0l21 135l425 471l-8 -51h-350l24 150h533l-22 -135l-425 -471l8 51h366l-24 -150h-548zM1096 765
l-110 176h115l73 -86l85 86h125l-143 -176h-145z" />
    <glyph glyph-name="uni01C5" unicode="&#x1c5;" horiz-adv-x="1315" 
d="M25 0l112 705h267q134 0 216.5 -46t114 -128.5t13.5 -195.5q-27 -167 -138 -251t-293 -84h-292zM234 150h88q108 0 168 48t76 143q17 113 -28 164t-155 51h-86zM787 0l18 115l330 303l-7 -41h-281l21 131h446l-18 -115l-334 -308l7 45h295l-20 -130h-457zM1032 557
l-91 205h108l64 -113l91 113h108l-132 -205h-148z" />
    <glyph glyph-name="uni01C6" unicode="&#x1c6;" horiz-adv-x="1178" 
d="M230 -11q-69 0 -118 36t-69.5 100t-7.5 147q20 124 91.5 185.5t169.5 61.5q59 0 102 -26.5t51 -70.5h-11l49 314h178l-117 -736h-175l14 91h16q-22 -46 -66.5 -74t-106.5 -28zM295 121q44 0 75 30.5t41 94.5q12 77 -11.5 109t-70.5 32q-44 0 -74.5 -30t-41.5 -95
q-12 -76 11.5 -108.5t70.5 -32.5zM650 0l18 115l330 303l-7 -41h-281l21 131h446l-18 -115l-334 -308l7 45h295l-20 -130h-457zM895 557l-91 205h108l64 -113l91 113h108l-132 -205h-148z" />
    <glyph glyph-name="uni01C7" unicode="&#x1c7;" horiz-adv-x="1019" 
d="M25 0l112 705h185l-88 -552h302l-24 -153h-487zM650 -187q-18 0 -44.5 2.5t-53.5 10.5l23 141q19 -6 37.5 -8t29.5 -2q45 0 67 25t30 81l102 642h185l-105 -658q-13 -85 -44.5 -136.5t-86.5 -74.5t-140 -23z" />
    <glyph glyph-name="uni01C8" unicode="&#x1c8;" horiz-adv-x="866" 
d="M25 0l112 705h185l-88 -552h302l-24 -153h-487zM525 -225q-24 0 -47 3t-44 12l22 137q13 -5 26.5 -7t28.5 -2q28 0 51 16.5t30 59.5l81 514h178l-82 -520q-17 -105 -75.5 -159t-168.5 -54zM679 580l26 160h186l-25 -160h-187z" />
    <glyph glyph-name="uni01C9" unicode="&#x1c9;" horiz-adv-x="575" 
d="M15 0l117 736h178l-117 -736h-178zM235 -225q-24 0 -47 3t-44 12l22 137q13 -5 26.5 -7t28.5 -2q28 0 51 16.5t30 59.5l81 514h178l-82 -520q-17 -105 -75.5 -159t-168.5 -54zM389 580l26 160h186l-25 -160h-187z" />
    <glyph glyph-name="uni01CA" unicode="&#x1ca;" horiz-adv-x="1166" 
d="M25 0l112 705h136l285 -455l-28 12l71 443h171l-112 -705h-136l-284 455l28 -12l-70 -443h-173zM797 -187q-18 0 -44.5 2.5t-53.5 10.5l23 141q19 -6 37.5 -8t29.5 -2q45 0 67 25t30 81l102 642h185l-105 -658q-13 -85 -44.5 -136.5t-86.5 -74.5t-140 -23z" />
    <glyph glyph-name="uni01CB" unicode="&#x1cb;" horiz-adv-x="1053" 
d="M25 0l112 705h136l285 -455l-28 12l71 443h171l-112 -705h-136l-284 455l28 -12l-70 -443h-173zM712 -225q-24 0 -47 3t-44 12l22 137q13 -5 26.5 -7t28.5 -2q28 0 51 16.5t30 59.5l81 514h178l-82 -520q-17 -105 -75.5 -159t-168.5 -54zM866 580l26 160h186l-25 -160
h-187z" />
    <glyph glyph-name="uni01CC" unicode="&#x1cc;" horiz-adv-x="911" 
d="M15 0l59 370q5 34 8.5 69t5.5 69h171l-3 -88l-12 -1q30 50 78 75t106 25q90 0 129 -55t21 -169l-47 -295h-178l47 296q7 47 -8.5 67t-47.5 20q-43 0 -70.5 -27t-34.5 -71l-46 -285h-178zM570 -225q-24 0 -47 3t-44 12l22 137q13 -5 26.5 -7t28.5 -2q28 0 51 16.5t30 59.5
l81 514h178l-82 -520q-17 -105 -75.5 -159t-168.5 -54zM724 580l26 160h186l-25 -160h-187z" />
    <glyph glyph-name="uni01CD" unicode="&#x1cd;" horiz-adv-x="769" 
d="M-62 0l442 705h150l220 -705h-179l-54 194l63 -51h-414l78 51l-115 -194h-191zM430 515l-161 -279l-21 47h294l-33 -47l-74 279h-5zM394 765l-110 176h115l73 -86l85 86h125l-143 -176h-145z" />
    <glyph glyph-name="uni01CE" unicode="&#x1ce;" horiz-adv-x="644" 
d="M230 -11q-69 0 -118 36t-69.5 100t-7.5 147q20 124 91.5 185.5t169.5 61.5q59 0 102 -26.5t51 -70.5l-9 -4l26 90h171q-9 -34 -16.5 -69t-13.5 -69l-59 -370h-176l14 91h17q-22 -46 -66.5 -74t-106.5 -28zM295 121q44 0 75 30.5t41 94.5q12 77 -11.5 109t-70.5 32
q-44 0 -74.5 -30t-41.5 -95q-12 -76 11.5 -108.5t70.5 -32.5zM291 557l-91 205h108l64 -113l91 113h108l-132 -205h-148z" />
    <glyph glyph-name="uni01D4" unicode="&#x1d4;" horiz-adv-x="618" 
d="M209 -11q-96 0 -138 56.5t-26 161.5l48 301h178l-48 -302q-7 -41 8 -61t51 -20q41 0 66 27.5t32 72.5l45 283h178l-81 -508h-173l14 91h15q-29 -49 -71 -75.5t-98 -26.5zM283 557l-91 205h108l64 -113l91 113h108l-132 -205h-148z" />
    <glyph glyph-name="uni01E5" unicode="&#x1e5;" horiz-adv-x="646" 
d="M236 -223q-76 0 -131 13t-98 41l43 119q23 -13 53.5 -24.5t64.5 -18.5t64 -7q96 0 128 62l7 -13h-128l12 70h146l-25 -32q1 6 2 11l2 10l21 135h12q-23 -42 -70.5 -67t-103.5 -25q-68 0 -116 31t-69.5 88t-9.5 133q12 72 47 120t88 72t115 24t105.5 -25t55.5 -67l-8 -1
l24 82h171q-10 -34 -17.5 -69t-12.5 -69l-52 -328q-1 -9 -3 -18.5t-4 -17.5l-14 13h69l-12 -70h-79l24 18q-35 -93 -109 -141.5t-192 -48.5zM304 180q45 0 75 26t37 73q9 54 -15.5 81t-72.5 27q-45 0 -74 -26t-37 -74q-8 -54 16 -80.5t71 -26.5z" />
    <glyph glyph-name="Gcaron" unicode="&#x1e6;" horiz-adv-x="750" 
d="M403 -11q-134 0 -215 48t-111 133.5t-13 196.5q18 112 77 189.5t151 118.5t209 41q76 0 133 -15.5t94 -42.5l-62 -141q-42 24 -78.5 33t-92.5 9q-104 0 -164 -52.5t-75 -149.5q-16 -101 23 -157.5t146 -56.5q38 0 72.5 6t73.5 18l-51 -66l27 168h-146l20 128h297
l-56 -352q-37 -18 -81 -30.5t-90 -19t-88 -6.5zM431 765l-110 176h115l73 -86l85 86h125l-143 -176h-145z" />
    <glyph glyph-name="gcaron" unicode="&#x1e7;" horiz-adv-x="644" 
d="M240 -224q-75 0 -131 13.5t-100 41.5l45 127q23 -16 53.5 -27t63 -17t63.5 -6q69 0 102.5 29.5t42.5 83.5l14 89h10q-19 -42 -63.5 -69t-105.5 -27q-68 0 -117.5 31.5t-72 92t-7.5 146.5q19 116 89 175.5t171 59.5q59 0 102 -26t51 -69l-7 2l24 82h171q-10 -34 -17.5 -69
t-12.5 -69l-52 -329q-21 -128 -100 -196.5t-216 -68.5zM298 145q47 0 77.5 30.5t39.5 87.5q9 62 -14 93t-69 31q-47 0 -77.5 -30.5t-40.5 -88.5q-9 -60 14 -91.5t70 -31.5zM301 557l-91 205h108l64 -113l91 113h108l-132 -205h-148z" />
    <glyph glyph-name="uni01E9" unicode="&#x1e9;" horiz-adv-x="596" 
d="M15 0l117 736h178l-69 -433h2l197 205h216l-269 -272v61l197 -297h-209l-146 213h-2l-34 -213h-178zM314 791l-110 176h115l73 -86l85 86h125l-143 -176h-145z" />
    <glyph glyph-name="uni01EA" unicode="&#x1ea;" horiz-adv-x="804" 
d="M65 371q17 110 70 187t135 117.5t186 40.5q120 0 195.5 -49.5t106.5 -136t13 -195.5q-17 -110 -70.5 -187t-135 -118t-187.5 -41q-118 0 -194 50t-106 136.5t-13 195.5zM256 361q-11 -69 1.5 -118t47 -74.5t89.5 -25.5q79 0 125 55t60 147q12 69 -1 117.5t-47.5 74
t-90.5 25.5q-79 0 -124 -54t-60 -147zM389 -198q-57 0 -87 26.5t-30 72.5q0 50 34 89.5t86 57.5l43 -48q-32 -12 -45.5 -31.5t-13.5 -38.5q0 -18 14 -29.5t35 -11.5q14 0 26.5 3t27.5 7l12 -81q-32 -8 -54 -12t-48 -4z" />
    <glyph glyph-name="uni01EB" unicode="&#x1eb;" horiz-adv-x="617" 
d="M282 -11q-90 0 -150 34.5t-85 98t-12 150.5q13 82 55 137t105.5 82.5t141.5 27.5q91 0 150 -34.5t84 -97.5t11 -151q-13 -82 -54.5 -137t-104.5 -82.5t-141 -27.5zM292 121q42 0 72 30.5t41 94.5q12 77 -11 109t-68 32q-43 0 -72.5 -30t-40.5 -95q-12 -76 10.5 -108.5
t68.5 -32.5zM280 -198q-57 0 -87 26.5t-30 72.5q0 50 34 89.5t86 57.5l43 -48q-32 -12 -45.5 -31.5t-13.5 -38.5q0 -18 14 -29.5t35 -11.5q14 0 26.5 3t27.5 7l12 -81q-32 -8 -54 -12t-48 -4z" />
    <glyph glyph-name="Aringacute" unicode="&#x1fa;" horiz-adv-x="769" 
d="M-62 0l442 705h150l220 -705h-179l-54 194l63 -51h-414l78 51l-115 -194h-191zM430 515l-161 -279l-21 47h294l-33 -47l-74 279h-5zM468 752q-35 0 -64 16t-46 44t-17 62q0 35 17 62.5t46 43.5t64 16q16 0 31.5 -3.5t28.5 -10.5l58 53h125l-127 -111q11 -23 11 -50
q0 -34 -17 -62t-45.5 -44t-64.5 -16zM468 817q24 0 40.5 16.5t16.5 40.5q0 25 -16.5 41t-40.5 16t-40.5 -16t-16.5 -41t16.5 -41t40.5 -16z" />
    <glyph glyph-name="aringacute" unicode="&#x1fb;" horiz-adv-x="644" 
d="M230 -11q-69 0 -118 36t-69.5 100t-7.5 147q20 124 91.5 185.5t169.5 61.5q59 0 102 -26.5t51 -70.5l-9 -4l26 90h171q-9 -34 -16.5 -69t-13.5 -69l-59 -370h-176l14 91h17q-22 -46 -66.5 -74t-106.5 -28zM295 121q44 0 75 30.5t41 94.5q12 77 -11.5 109t-70.5 32
q-44 0 -74.5 -30t-41.5 -95q-12 -76 11.5 -108.5t70.5 -32.5zM380 537q-35 0 -64 16t-46 43.5t-17 62.5t17 62.5t46 43.5t64 16q17 0 32 -4t29 -11l58 53h125l-128 -110q11 -24 11 -50q0 -35 -17 -62.5t-45.5 -43.5t-64.5 -16zM380 601q25 0 41 16.5t16 41.5t-16 40.5
t-41 15.5q-24 0 -40.5 -15.5t-16.5 -40.5t16.5 -41.5t40.5 -16.5z" />
    <glyph glyph-name="AEacute" unicode="&#x1fc;" horiz-adv-x="1030" 
d="M-82 0l558 705h593l-22 -141h-351l29 19l-18 -205l-10 51h306l-22 -142h-308l27 10l-16 -189l-16 34h312l-23 -142h-446l16 191l24 -48h-351l63 47l-143 -190h-202zM545 563l-245 -323l-7 44h260l-22 -51l28 330h-14zM543 765l130 176h182l-190 -176h-122z" />
    <glyph glyph-name="aeacute" unicode="&#x1fd;" horiz-adv-x="861" 
d="M207 -11q-75 0 -119.5 27.5t-62 70.5t-10.5 87q8 46 40.5 75.5t96 44t162.5 14.5h50l-12 -84h-61q-39 0 -65.5 -6.5t-40.5 -19t-17 -32.5q-5 -25 10.5 -42.5t52.5 -17.5q42 0 69.5 25t34.5 68l16 105q7 43 -15.5 63.5t-65.5 20.5q-42 0 -79.5 -9t-82.5 -30l-42 119
q30 15 68.5 26.5t79.5 18t77 6.5q81 0 125.5 -20.5t62.5 -63.5h-46q41 46 88.5 65t102.5 19q78 0 128 -33.5t71 -92t9 -134.5l-6 -35h-335l13 84h204l-20 -18q9 57 -9.5 84.5t-59.5 27.5q-29 0 -50.5 -14t-34 -38.5t-17.5 -55.5l-7 -44q-9 -62 20 -95.5t104 -33.5
q33 0 64.5 9t66.5 29l44 -116q-42 -28 -93.5 -41t-107.5 -13q-87 0 -146 32t-88 91h34q-29 -58 -80 -90.5t-121 -32.5zM424 557l130 205h171l-187 -205h-114z" />
    <glyph glyph-name="Oslashacute" unicode="&#x1fe;" horiz-adv-x="804" 
d="M65 371q17 110 70 187t135 117.5t186 40.5q120 0 195.5 -49.5t106.5 -136t13 -195.5q-17 -110 -70.5 -187t-135 -118t-187.5 -41q-118 0 -194 50t-106 136.5t-13 195.5zM256 361q-11 -69 1.5 -118t47 -74.5t89.5 -25.5q79 0 125 55t60 147q12 69 -1 117.5t-47.5 74
t-90.5 25.5q-79 0 -124 -54t-60 -147zM291 66l-94 -127l-109 74l95 127l70 74l270 353l38 74l95 127l108 -74l-95 -127l-70 -74l-270 -353zM423 765l130 176h182l-190 -176h-122z" />
    <glyph glyph-name="oslashacute" unicode="&#x1ff;" horiz-adv-x="617" 
d="M282 -11q-90 0 -150 34.5t-85 98t-12 150.5q13 82 55 137t105.5 82.5t141.5 27.5q91 0 150 -34.5t84 -97.5t11 -151q-13 -82 -54.5 -137t-104.5 -82.5t-141 -27.5zM292 121q53 0 86 31t44 96q11 70 -15 104.5t-80 34.5q-55 0 -88 -30.5t-43 -95.5q-10 -66 12.5 -103
t83.5 -37zM137 -53l-73 51l419 561l73 -50zM301 557l130 205h171l-187 -205h-114z" />
    <glyph glyph-name="uni0200" unicode="&#x200;" horiz-adv-x="769" 
d="M-62 0l442 705h150l220 -705h-179l-54 194l63 -51h-414l78 51l-115 -194h-191zM430 515l-161 -279l-21 47h294l-33 -47l-74 279h-5zM502 765l-120 176h150l69 -176h-99zM332 765l-137 176h150l85 -176h-98z" />
    <glyph glyph-name="uni0201" unicode="&#x201;" horiz-adv-x="644" 
d="M230 -11q-69 0 -118 36t-69.5 100t-7.5 147q20 124 91.5 185.5t169.5 61.5q59 0 102 -26.5t51 -70.5l-9 -4l26 90h171q-9 -34 -16.5 -69t-13.5 -69l-59 -370h-176l14 91h17q-22 -46 -66.5 -74t-106.5 -28zM295 121q44 0 75 30.5t41 94.5q12 77 -11.5 109t-70.5 32
q-44 0 -74.5 -30t-41.5 -95q-12 -76 11.5 -108.5t70.5 -32.5zM410 557l-76 205h141l26 -205h-91zM236 557l-76 205h141l26 -205h-91z" />
    <glyph glyph-name="uni0202" unicode="&#x202;" horiz-adv-x="769" 
d="M-62 0l442 705h150l220 -705h-179l-54 194l63 -51h-414l78 51l-115 -194h-191zM430 515l-161 -279l-21 47h294l-33 -47l-74 279h-5zM361 760l-94 12q11 79 68.5 125.5t143.5 46.5q57 0 98 -22t64 -60.5t24 -89.5l-97 -12q0 40 -25 62.5t-70 22.5t-74.5 -22.5t-37.5 -62.5
z" />
    <glyph glyph-name="uni0203" unicode="&#x203;" horiz-adv-x="644" 
d="M230 -11q-69 0 -118 36t-69.5 100t-7.5 147q20 124 91.5 185.5t169.5 61.5q59 0 102 -26.5t51 -70.5l-9 -4l26 90h171q-9 -34 -16.5 -69t-13.5 -69l-59 -370h-176l14 91h17q-22 -46 -66.5 -74t-106.5 -28zM295 121q44 0 75 30.5t41 94.5q12 77 -11.5 109t-70.5 32
q-44 0 -74.5 -30t-41.5 -95q-12 -76 11.5 -108.5t70.5 -32.5zM276 553l-95 8q6 60 32 104.5t68 69t95 24.5t91 -25t58 -69.5t17 -103.5l-97 -8q1 50 -18.5 77t-56.5 27t-61.5 -27t-32.5 -77z" />
    <glyph glyph-name="uni0204" unicode="&#x204;" horiz-adv-x="603" 
d="M25 0l112 705h506l-23 -141h-329l-21 -135h305l-22 -142h-306l-23 -145h329l-22 -142h-506zM457 765l-120 176h150l69 -176h-99zM287 765l-137 176h150l85 -176h-98z" />
    <glyph glyph-name="uni0205" unicode="&#x205;" horiz-adv-x="552" 
d="M299 -11q-97 0 -160 36.5t-89.5 101t-13.5 148.5q12 75 49.5 129.5t96 84.5t133.5 30q78 0 128.5 -33.5t71.5 -92t8 -134.5l-5 -35h-341l13 84h210l-20 -18q9 57 -10 84.5t-60 27.5q-30 0 -51 -14t-34 -38.5t-18 -55.5l-7 -44q-8 -62 20.5 -95.5t104.5 -33.5q34 0 65.5 9
t65.5 29l45 -116q-43 -28 -94 -41t-108 -13zM383 557l-76 205h141l26 -205h-91zM209 557l-76 205h141l26 -205h-91z" />
    <glyph glyph-name="uni0206" unicode="&#x206;" horiz-adv-x="603" 
d="M25 0l112 705h506l-23 -141h-329l-21 -135h305l-22 -142h-306l-23 -145h329l-22 -142h-506zM316 760l-94 12q11 79 68.5 125.5t143.5 46.5q57 0 98 -22t64 -60.5t24 -89.5l-97 -12q0 40 -25 62.5t-70 22.5t-74.5 -22.5t-37.5 -62.5z" />
    <glyph glyph-name="uni0207" unicode="&#x207;" horiz-adv-x="552" 
d="M299 -11q-97 0 -160 36.5t-89.5 101t-13.5 148.5q12 75 49.5 129.5t96 84.5t133.5 30q78 0 128.5 -33.5t71.5 -92t8 -134.5l-5 -35h-341l13 84h210l-20 -18q9 57 -10 84.5t-60 27.5q-30 0 -51 -14t-34 -38.5t-18 -55.5l-7 -44q-8 -62 20.5 -95.5t104.5 -33.5q34 0 65.5 9
t65.5 29l45 -116q-43 -28 -94 -41t-108 -13zM249 553l-95 8q6 60 32 104.5t68 69t95 24.5t91 -25t58 -69.5t17 -103.5l-97 -8q1 50 -18.5 77t-56.5 27t-61.5 -27t-32.5 -77z" />
    <glyph glyph-name="uni0208" unicode="&#x208;" horiz-adv-x="315" 
d="M25 0l112 705h185l-112 -705h-185zM275 765l-120 176h150l69 -176h-99zM105 765l-137 176h150l85 -176h-98z" />
    <glyph glyph-name="uni0209" unicode="&#x209;" horiz-adv-x="288" 
d="M15 0l81 508h178l-81 -508h-178zM237 557l-76 205h141l26 -205h-91zM63 557l-76 205h141l26 -205h-91z" />
    <glyph glyph-name="uni020A" unicode="&#x20a;" horiz-adv-x="315" 
d="M25 0l112 705h185l-112 -705h-185zM134 760l-94 12q11 79 68.5 125.5t143.5 46.5q57 0 98 -22t64 -60.5t24 -89.5l-97 -12q0 40 -25 62.5t-70 22.5t-74.5 -22.5t-37.5 -62.5z" />
    <glyph glyph-name="uni020B" unicode="&#x20b;" horiz-adv-x="288" 
d="M15 0l81 508h178l-81 -508h-178zM104 553l-95 8q6 60 32 104.5t68 69t95 24.5t91 -25t58 -69.5t17 -103.5l-97 -8q1 50 -18.5 77t-56.5 27t-61.5 -27t-32.5 -77z" />
    <glyph glyph-name="uni020C" unicode="&#x20c;" horiz-adv-x="804" 
d="M65 371q17 110 70 187t135 117.5t186 40.5q120 0 195.5 -49.5t106.5 -136t13 -195.5q-17 -110 -70.5 -187t-135 -118t-187.5 -41q-118 0 -194 50t-106 136.5t-13 195.5zM256 361q-11 -69 1.5 -118t47 -74.5t89.5 -25.5q79 0 125 55t60 147q12 69 -1 117.5t-47.5 74
t-90.5 25.5q-79 0 -124 -54t-60 -147zM520 765l-120 176h150l69 -176h-99zM350 765l-137 176h150l85 -176h-98z" />
    <glyph glyph-name="uni020D" unicode="&#x20d;" horiz-adv-x="617" 
d="M282 -11q-90 0 -150 34.5t-85 98t-12 150.5q13 82 55 137t105.5 82.5t141.5 27.5q91 0 150 -34.5t84 -97.5t11 -151q-13 -82 -54.5 -137t-104.5 -82.5t-141 -27.5zM292 121q42 0 72 30.5t41 94.5q12 77 -11 109t-68 32q-43 0 -72.5 -30t-40.5 -95q-12 -76 10.5 -108.5
t68.5 -32.5zM402 557l-76 205h141l26 -205h-91zM228 557l-76 205h141l26 -205h-91z" />
    <glyph glyph-name="uni020E" unicode="&#x20e;" horiz-adv-x="804" 
d="M65 371q17 110 70 187t135 117.5t186 40.5q120 0 195.5 -49.5t106.5 -136t13 -195.5q-17 -110 -70.5 -187t-135 -118t-187.5 -41q-118 0 -194 50t-106 136.5t-13 195.5zM256 361q-11 -69 1.5 -118t47 -74.5t89.5 -25.5q79 0 125 55t60 147q12 69 -1 117.5t-47.5 74
t-90.5 25.5q-79 0 -124 -54t-60 -147zM379 760l-94 12q11 79 68.5 125.5t143.5 46.5q57 0 98 -22t64 -60.5t24 -89.5l-97 -12q0 40 -25 62.5t-70 22.5t-74.5 -22.5t-37.5 -62.5z" />
    <glyph glyph-name="uni020F" unicode="&#x20f;" horiz-adv-x="617" 
d="M282 -11q-90 0 -150 34.5t-85 98t-12 150.5q13 82 55 137t105.5 82.5t141.5 27.5q91 0 150 -34.5t84 -97.5t11 -151q-13 -82 -54.5 -137t-104.5 -82.5t-141 -27.5zM292 121q42 0 72 30.5t41 94.5q12 77 -11 109t-68 32q-43 0 -72.5 -30t-40.5 -95q-12 -76 10.5 -108.5
t68.5 -32.5zM268 553l-95 8q6 60 32 104.5t68 69t95 24.5t91 -25t58 -69.5t17 -103.5l-97 -8q1 50 -18.5 77t-56.5 27t-61.5 -27t-32.5 -77z" />
    <glyph glyph-name="uni0210" unicode="&#x210;" horiz-adv-x="713" 
d="M25 0l112 705h316q135 0 193.5 -60t41.5 -169q-10 -64 -47 -111t-96 -72.5t-135 -25.5l3 25h45q44 0 73.5 -24.5t46.5 -66.5l77 -201h-192l-83 225q-7 22 -29 30t-49 8h-50l-42 -263h-185zM272 394h122q53 0 82 21t35 61q7 45 -17.5 66.5t-77.5 21.5h-117zM482 765
l-120 176h150l69 -176h-99zM312 765l-137 176h150l85 -176h-98z" />
    <glyph glyph-name="uni0211" unicode="&#x211;" horiz-adv-x="429" 
d="M15 0l59 369q5 35 8.5 70t5.5 69h171l-5 -156h-30q19 57 47.5 94t65.5 55t81 18q16 0 29 -1.5t24 -3.5l-26 -157q-20 9 -35.5 12t-39.5 3q-34 0 -62.5 -14.5t-48.5 -44t-27 -77.5l-37 -236h-180zM351 557l-76 205h141l26 -205h-91zM177 557l-76 205h141l26 -205h-91z" />
    <glyph glyph-name="uni0212" unicode="&#x212;" horiz-adv-x="713" 
d="M25 0l112 705h316q135 0 193.5 -60t41.5 -169q-10 -64 -47 -111t-96 -72.5t-135 -25.5l3 25h45q44 0 73.5 -24.5t46.5 -66.5l77 -201h-192l-83 225q-7 22 -29 30t-49 8h-50l-42 -263h-185zM272 394h122q53 0 82 21t35 61q7 45 -17.5 66.5t-77.5 21.5h-117zM341 760
l-94 12q11 79 68.5 125.5t143.5 46.5q57 0 98 -22t64 -60.5t24 -89.5l-97 -12q0 40 -25 62.5t-70 22.5t-74.5 -22.5t-37.5 -62.5z" />
    <glyph glyph-name="uni0213" unicode="&#x213;" horiz-adv-x="429" 
d="M15 0l59 369q5 35 8.5 70t5.5 69h171l-5 -156h-30q19 57 47.5 94t65.5 55t81 18q16 0 29 -1.5t24 -3.5l-26 -157q-20 9 -35.5 12t-39.5 3q-34 0 -62.5 -14.5t-48.5 -44t-27 -77.5l-37 -236h-180zM217 553l-95 8q6 60 32 104.5t68 69t95 24.5t91 -25t58 -69.5t17 -103.5
l-97 -8q1 50 -18.5 77t-56.5 27t-61.5 -27t-32.5 -77z" />
    <glyph glyph-name="uni0214" unicode="&#x214;" horiz-adv-x="751" 
d="M348 -11q-98 0 -166.5 34t-98.5 104.5t-13 179.5l64 398h184l-64 -409q-12 -75 13.5 -114t99.5 -39q66 0 102 38.5t49 117.5l64 406h182l-66 -413q-16 -100 -57.5 -167.5t-113.5 -101.5t-179 -34zM496 765l-120 176h150l69 -176h-99zM326 765l-137 176h150l85 -176h-98z
" />
    <glyph glyph-name="uni0215" unicode="&#x215;" horiz-adv-x="618" 
d="M209 -11q-96 0 -138 56.5t-26 161.5l48 301h178l-48 -302q-7 -41 8 -61t51 -20q41 0 66 27.5t32 72.5l45 283h178l-81 -508h-173l14 91h15q-29 -49 -71 -75.5t-98 -26.5zM401 557l-76 205h141l26 -205h-91zM227 557l-76 205h141l26 -205h-91z" />
    <glyph glyph-name="uni0216" unicode="&#x216;" horiz-adv-x="751" 
d="M348 -11q-98 0 -166.5 34t-98.5 104.5t-13 179.5l64 398h184l-64 -409q-12 -75 13.5 -114t99.5 -39q66 0 102 38.5t49 117.5l64 406h182l-66 -413q-16 -100 -57.5 -167.5t-113.5 -101.5t-179 -34zM355 760l-94 12q11 79 68.5 125.5t143.5 46.5q57 0 98 -22t64 -60.5
t24 -89.5l-97 -12q0 40 -25 62.5t-70 22.5t-74.5 -22.5t-37.5 -62.5z" />
    <glyph glyph-name="uni0217" unicode="&#x217;" horiz-adv-x="618" 
d="M209 -11q-96 0 -138 56.5t-26 161.5l48 301h178l-48 -302q-7 -41 8 -61t51 -20q41 0 66 27.5t32 72.5l45 283h178l-81 -508h-173l14 91h15q-29 -49 -71 -75.5t-98 -26.5zM267 553l-95 8q6 60 32 104.5t68 69t95 24.5t91 -25t58 -69.5t17 -103.5l-97 -8q1 50 -18.5 77
t-56.5 27t-61.5 -27t-32.5 -77z" />
    <glyph glyph-name="uni0218" unicode="&#x218;" horiz-adv-x="671" 
d="M298 -11q-79 0 -151 18t-119 48l58 142q45 -23 104.5 -40t123.5 -17q66 0 94.5 17t32.5 44q3 24 -10 39.5t-53 22.5l-116 20q-90 15 -137 70.5t-33 142.5q11 69 54 118t113 75.5t161 26.5q68 0 130.5 -16.5t99.5 -46.5l-60 -139q-35 23 -82 37t-107 14q-58 0 -90.5 -16.5
t-38.5 -48.5q-4 -22 10 -40.5t56 -25.5l115 -19q94 -16 138.5 -70t30.5 -140q-9 -63 -50.5 -112t-110.5 -76.5t-163 -27.5zM268 -290l-49 45q24 17 34 34.5t14 40.5l32 -20h-118l20 125h169l-14 -85q-7 -46 -24 -79t-64 -61z" />
    <glyph glyph-name="uni0219" unicode="&#x219;" horiz-adv-x="506" 
d="M221 -11q-68 0 -123.5 13.5t-90.5 36.5l46 116q37 -20 83.5 -33t92.5 -13q38 0 57 11t22 30q3 16 -7 26t-31 14l-93 14q-72 11 -102 51.5t-20 103.5q8 52 41 88t85 54t115 18q57 0 107 -11.5t85 -37.5l-50 -112q-28 18 -67.5 30t-74.5 12q-41 0 -61 -12t-23 -31
q-2 -14 6 -25t29 -14l94 -15q73 -11 103.5 -49.5t20.5 -103.5q-9 -54 -42.5 -90t-85.5 -53.5t-116 -17.5zM182 -290l-49 45q24 17 34 34.5t14 40.5l32 -20h-118l20 125h169l-14 -85q-7 -46 -24 -79t-64 -61z" />
    <glyph glyph-name="uni021A" unicode="&#x21a;" horiz-adv-x="638" 
d="M186 0l88 556h-214l24 149h613l-24 -149h-214l-88 -556h-185zM251 -290l-49 45q24 17 34 34.5t14 40.5l32 -20h-118l20 125h169l-14 -85q-7 -46 -24 -79t-64 -61z" />
    <glyph glyph-name="uni021B" unicode="&#x21b;" horiz-adv-x="414" 
d="M275 -11q-110 0 -155.5 54.5t-30.5 153.5l29 180h-95l21 131h95l19 120l185 42l-26 -162h124l-21 -131h-124l-27 -173q-7 -42 11.5 -57.5t47.5 -15.5q16 0 27.5 2.5t27.5 7.5l-22 -137q-23 -9 -44.5 -12t-41.5 -3zM190 -290l-49 45q24 17 34 34.5t14 40.5l32 -20h-118
l20 125h169l-14 -85q-7 -46 -24 -79t-64 -61z" />
    <glyph glyph-name="uni021F" unicode="&#x21f;" horiz-adv-x="623" 
d="M15 0l117 736h178l-50 -317h-16q30 50 78 75t106 25q90 0 129 -55t21 -169l-47 -295h-178l47 296q7 47 -8 67t-48 20q-43 0 -70.5 -27t-34.5 -71l-46 -285h-178zM328 791l-110 176h115l73 -86l85 86h125l-143 -176h-145z" />
    <glyph glyph-name="uni0226" unicode="&#x226;" horiz-adv-x="769" 
d="M-62 0l442 705h150l220 -705h-179l-54 194l63 -51h-414l78 51l-115 -194h-191zM430 515l-161 -279l-21 47h294l-33 -47l-74 279h-5zM388 778l23 150h159l-23 -150h-159z" />
    <glyph glyph-name="uni0227" unicode="&#x227;" horiz-adv-x="644" 
d="M230 -11q-69 0 -118 36t-69.5 100t-7.5 147q20 124 91.5 185.5t169.5 61.5q59 0 102 -26.5t51 -70.5l-9 -4l26 90h171q-9 -34 -16.5 -69t-13.5 -69l-59 -370h-176l14 91h17q-22 -46 -66.5 -74t-106.5 -28zM295 121q44 0 75 30.5t41 94.5q12 77 -11.5 109t-70.5 32
q-44 0 -74.5 -30t-41.5 -95q-12 -76 11.5 -108.5t70.5 -32.5zM290 583l24 150h159l-24 -150h-159z" />
    <glyph glyph-name="uni0228" unicode="&#x228;" horiz-adv-x="603" 
d="M25 0l112 705h506l-23 -141h-329l-21 -135h305l-22 -142h-306l-23 -145h329l-22 -142h-506zM275 -198q-33 0 -63.5 5.5t-52.5 17.5l31 70q17 -8 36 -12.5t37 -4.5q27 0 39 5.5t12 17.5q0 7 -7.5 11.5t-26.5 4.5q-8 0 -16.5 -1t-19.5 -3l-19 21l26 86h84l-24 -77l-39 17
q12 5 24 7t22 2q45 0 69 -18t24 -51q0 -45 -39 -71.5t-97 -26.5z" />
    <glyph glyph-name="uni022A" unicode="&#x22a;" horiz-adv-x="804" 
d="M65 371q17 110 70 187t135 117.5t186 40.5q120 0 195.5 -49.5t106.5 -136t13 -195.5q-17 -110 -70.5 -187t-135 -118t-187.5 -41q-118 0 -194 50t-106 136.5t-13 195.5zM256 361q-11 -69 1.5 -118t47 -74.5t89.5 -25.5q79 0 125 55t60 147q12 69 -1 117.5t-47.5 74
t-90.5 25.5q-79 0 -124 -54t-60 -147zM340 922l14 97h338l-15 -97h-337zM308 776l16 105h149l-17 -105h-148zM514 776l16 105h149l-16 -105h-149z" />
    <glyph glyph-name="uni022B" unicode="&#x22b;" horiz-adv-x="617" 
d="M282 -11q-90 0 -150 34.5t-85 98t-12 150.5q13 82 55 137t105.5 82.5t141.5 27.5q91 0 150 -34.5t84 -97.5t11 -151q-13 -82 -54.5 -137t-104.5 -82.5t-141 -27.5zM292 121q42 0 72 30.5t41 94.5q12 77 -11 109t-68 32q-43 0 -72.5 -30t-40.5 -95q-12 -76 10.5 -108.5
t68.5 -32.5zM212 709l16 97h338l-16 -97h-338zM181 563l16 105h149l-17 -105h-148zM387 563l16 105h149l-17 -105h-148z" />
    <glyph glyph-name="uni022C" unicode="&#x22c;" horiz-adv-x="804" 
d="M65 371q17 110 70 187t135 117.5t186 40.5q120 0 195.5 -49.5t106.5 -136t13 -195.5q-17 -110 -70.5 -187t-135 -118t-187.5 -41q-118 0 -194 50t-106 136.5t-13 195.5zM256 361q-11 -69 1.5 -118t47 -74.5t89.5 -25.5q79 0 125 55t60 147q12 69 -1 117.5t-47.5 74
t-90.5 25.5q-79 0 -124 -54t-60 -147zM340 922l15 97h337l-15 -97h-337zM563 766q-22 0 -43.5 6.5t-40.5 12.5q-16 6 -29.5 10.5t-25.5 4.5q-23 0 -36 -8.5t-19 -25.5l-74 4q8 57 42.5 86t85.5 29q23 0 44 -6t40 -13q15 -5 29 -9.5t26 -4.5q23 0 36 8t19 26l74 -5
q-8 -57 -42.5 -86t-85.5 -29z" />
    <glyph glyph-name="uni022D" unicode="&#x22d;" horiz-adv-x="617" 
d="M282 -11q-90 0 -150 34.5t-85 98t-12 150.5q13 82 55 137t105.5 82.5t141.5 27.5q91 0 150 -34.5t84 -97.5t11 -151q-13 -82 -54.5 -137t-104.5 -82.5t-141 -27.5zM292 121q42 0 72 30.5t41 94.5q12 77 -11 109t-68 32q-43 0 -72.5 -30t-40.5 -95q-12 -76 10.5 -108.5
t68.5 -32.5zM211 709l16 97h337l-16 -97h-337zM241 553l-74 4q8 57 42 86t85 29q23 0 44.5 -6t40.5 -12q15 -6 28.5 -10.5t25.5 -4.5q23 0 36 8.5t19 25.5l74 -4q-8 -58 -41.5 -87t-85.5 -29q-22 0 -43.5 6.5t-41.5 13.5q-15 6 -28.5 10t-25.5 4q-23 0 -36.5 -8.5
t-18.5 -25.5z" />
    <glyph glyph-name="uni0230" unicode="&#x230;" horiz-adv-x="804" 
d="M65 371q17 110 70 187t135 117.5t186 40.5q120 0 195.5 -49.5t106.5 -136t13 -195.5q-17 -110 -70.5 -187t-135 -118t-187.5 -41q-118 0 -194 50t-106 136.5t-13 195.5zM256 361q-11 -69 1.5 -118t47 -74.5t89.5 -25.5q79 0 125 55t60 147q12 69 -1 117.5t-47.5 74
t-90.5 25.5q-79 0 -124 -54t-60 -147zM340 922l14 97h338l-15 -97h-337zM411 776l16 105h149l-16 -105h-149z" />
    <glyph glyph-name="uni0231" unicode="&#x231;" horiz-adv-x="617" 
d="M282 -11q-90 0 -150 34.5t-85 98t-12 150.5q13 82 55 137t105.5 82.5t141.5 27.5q91 0 150 -34.5t84 -97.5t11 -151q-13 -82 -54.5 -137t-104.5 -82.5t-141 -27.5zM292 121q42 0 72 30.5t41 94.5q12 77 -11 109t-68 32q-43 0 -72.5 -30t-40.5 -95q-12 -76 10.5 -108.5
t68.5 -32.5zM205 709l16 97h338l-16 -97h-338zM276 563l17 105h149l-17 -105h-149z" />
    <glyph glyph-name="uni0232" unicode="&#x232;" horiz-adv-x="656" 
d="M196 0l54 337l19 -102l-239 470h205l134 -283h-36l225 283h212l-390 -478l54 110l-53 -337h-185zM230 796l15 97h368l-15 -97h-368z" />
    <glyph glyph-name="uni0233" unicode="&#x233;" horiz-adv-x="558" 
d="M-19 -227l-27 138q50 9 84 19.5t57.5 28.5t41.5 47l34 58l-9 -67l-140 511h181l77 -337h-34l189 337h182l-310 -519q-37 -61 -74 -100t-76 -62t-82 -34.5t-94 -19.5zM166 605l15 97h338l-15 -97h-338z" />
    <glyph glyph-name="uni0237" unicode="&#x237;" horiz-adv-x="288" 
d="M-51 -225q-24 0 -47 3t-44 12l22 137q13 -5 26 -7t29 -2q28 0 51 16.5t29 59.5l82 514h178l-83 -520q-17 -105 -75 -159t-168 -54z" />
    <glyph glyph-name="uni0253" unicode="&#x253;" horiz-adv-x="644" 
d="M348 -11q-58 0 -101 26.5t-52 70.5l10 5l-14 -91h-176l84 527q18 113 83.5 166.5t177.5 53.5q18 0 40 -3t36 -9l-32 -130q-11 3 -19.5 4t-19.5 1q-75 0 -89 -86l-16 -102l-18 -4q22 45 66.5 73t105.5 28q70 0 118.5 -35.5t69.5 -99.5t7 -148q-20 -123 -91.5 -185
t-169.5 -62zM315 121q45 0 75.5 30.5t40.5 94.5q12 77 -11 109t-70 32q-44 0 -75 -30t-41 -95q-12 -76 12 -108.5t69 -32.5z" />
    <glyph glyph-name="uni0257" unicode="&#x257;" horiz-adv-x="642" 
d="M230 -11q-69 0 -118 36t-69.5 100t-7.5 147q20 124 91.5 185.5t169.5 61.5q59 0 102 -26.5t51 -70.5h-11l17 110q17 109 83 162t177 53q19 0 41.5 -3t35.5 -9l-32 -130q-11 3 -19.5 4t-19.5 1q-33 0 -57.5 -19t-32.5 -67l-83 -524h-175l14 91h16q-22 -46 -67.5 -74
t-105.5 -28zM295 121q44 0 75 30.5t41 94.5q12 77 -11.5 109t-70.5 32q-44 0 -74.5 -30t-41.5 -95q-12 -76 11.5 -108.5t70.5 -32.5z" />
    <glyph glyph-name="uni0259" unicode="&#x259;" horiz-adv-x="552" 
d="M248 -11q-83 0 -136 34t-73.5 92.5t-8.5 133.5l5 35h341l-12 -84h-210l20 18q-11 -57 8.5 -84.5t61.5 -27.5q29 0 50 14.5t34.5 39t17.5 54.5l7 45q9 61 -20 94.5t-105 33.5q-33 0 -65 -8t-66 -27l-42 116q46 26 98 38.5t112 12.5q92 0 153 -36.5t87.5 -101t12.5 -148.5
q-12 -73 -48 -128t-92 -85.5t-130 -30.5z" />
    <glyph glyph-name="uni02B9" unicode="&#x2b9;" horiz-adv-x="269" 
d="M98 398l6 307h204l-91 -307h-119z" />
    <glyph glyph-name="uni02BA" unicode="&#x2ba;" horiz-adv-x="515" 
d="M98 398l6 307h204l-91 -307h-119zM345 398l6 307h204l-91 -307h-119z" />
    <glyph glyph-name="uni02BB" unicode="&#x2bb;" horiz-adv-x="500" 
d="M214 560l12 84q8 47 25.5 80t63.5 62l50 -46q-23 -17 -33.5 -35t-14.5 -39l-32 20h117l-19 -126h-169z" />
    <glyph glyph-name="uni02BC" unicode="&#x2bc;" horiz-adv-x="382" 
d="M269 561l-56 41q22 18 31.5 37t10.5 40l34 -20h-118l20 127h169l-13 -77q-7 -45 -23 -81t-55 -67z" />
    <glyph glyph-name="uni02BE" unicode="&#x2be;" horiz-adv-x="500" 
d="M296 549l11 65q22 1 36 16t14 37q0 16 -9.5 26.5t-26.5 11.5l11 66q43 -4 69.5 -32.5t26.5 -68.5q0 -35 -18.5 -63.5t-48.5 -44t-65 -13.5z" />
    <glyph glyph-name="uni02BF" unicode="&#x2bf;" horiz-adv-x="500" 
d="M298 549q-43 4 -69.5 32.5t-26.5 67.5q0 36 18.5 64t48.5 44t65 14l-11 -66q-20 -1 -35 -16t-15 -37q0 -15 10 -26t26 -12z" />
    <glyph glyph-name="circumflex" unicode="&#x2c6;" horiz-adv-x="500" 
d="M112 557l132 205h148l91 -205h-107l-66 113l-90 -113h-108z" />
    <glyph glyph-name="caron" unicode="&#x2c7;" horiz-adv-x="500" 
d="M236 557l-91 205h108l64 -113l91 113h108l-132 -205h-148z" />
    <glyph glyph-name="uni02C8" unicode="&#x2c8;" horiz-adv-x="500" 
d="M252 593l32 206h106l-32 -206h-106z" />
    <glyph glyph-name="uni02C9" unicode="&#x2c9;" horiz-adv-x="500" 
d="M137 605l15 97h338l-15 -97h-338z" />
    <glyph glyph-name="uni02CA" unicode="&#x2ca;" horiz-adv-x="500" 
d="M241 557l128 205h171l-185 -205h-114z" />
    <glyph glyph-name="uni02CB" unicode="&#x2cb;" horiz-adv-x="500" 
d="M262 557l-142 205h166l90 -205h-114z" />
    <glyph glyph-name="uni02CC" unicode="&#x2cc;" horiz-adv-x="500" 
d="M114 -270l33 206h106l-33 -206h-106z" />
    <glyph glyph-name="breve" unicode="&#x2d8;" horiz-adv-x="500" 
d="M314 553q-53 0 -91.5 24.5t-58 69t-16.5 103.5l96 9q0 -51 20 -78t57 -27t61.5 27t31.5 78l95 -9q-6 -59 -32 -103.5t-68 -69t-95 -24.5z" />
    <glyph glyph-name="dotaccent" unicode="&#x2d9;" horiz-adv-x="500" 
d="M223 583l24 150h159l-24 -150h-159z" />
    <glyph glyph-name="ring" unicode="&#x2da;" horiz-adv-x="500" 
d="M319 545q-37 0 -68 17t-49 47t-18 66q0 37 18 66.5t49 47t68 17.5q39 0 69.5 -17.5t48 -47t17.5 -66.5t-17.5 -66.5t-48 -46.5t-69.5 -17zM319 618q25 0 41 16t16 41t-16 41t-41 16q-24 0 -40 -16t-16 -41t16 -41t40 -16z" />
    <glyph glyph-name="ogonek" unicode="&#x2db;" horiz-adv-x="500" 
d="M156 -198q-57 0 -87 26.5t-30 72.5q0 50 34 89.5t86 57.5l43 -48q-32 -12 -45.5 -31.5t-13.5 -38.5q0 -18 14 -29.5t35 -11.5q14 0 26.5 3t27.5 7l12 -81q-32 -8 -54 -12t-48 -4z" />
    <glyph glyph-name="tilde" unicode="&#x2dc;" horiz-adv-x="500" 
d="M174 577l-81 5q9 80 48 122.5t97 42.5q27 0 46.5 -9t35.5 -20q14 -10 29 -17t33 -7q49 0 65 59l81 -6q-10 -79 -48.5 -122t-96.5 -43q-27 0 -47.5 10t-37.5 21q-15 9 -29 16t-31 7q-48 0 -64 -59z" />
    <glyph glyph-name="hungarumlaut" unicode="&#x2dd;" horiz-adv-x="500" 
d="M336 557l63 205h141l-113 -205h-91zM162 557l63 205h141l-112 -205h-92z" />
    <glyph glyph-name="gravecomb" unicode="&#x300;" 
d="M12 557l-143 205h166l91 -205h-114z" />
    <glyph glyph-name="acutecomb" unicode="&#x301;" 
d="M-9 557l130 205h171l-187 -205h-114z" />
    <glyph glyph-name="uni0302" unicode="&#x302;" 
d="M-138 557l132 205h148l91 -205h-107l-66 113l-90 -113h-108z" />
    <glyph glyph-name="tildecomb" unicode="&#x303;" 
d="M-76 577l-81 5q9 80 48 122.5t97 42.5q27 0 46.5 -9t35.5 -20q14 -10 29 -17t33 -7q49 0 65 59l81 -6q-10 -79 -48.5 -122t-96.5 -43q-27 0 -47.5 10t-37.5 21q-15 9 -29 16t-31 7q-48 0 -64 -59z" />
    <glyph glyph-name="uni0304" unicode="&#x304;" 
d="M-113 605l15 97h338l-15 -97h-338z" />
    <glyph glyph-name="uni0306" unicode="&#x306;" 
d="M64 553q-53 0 -91.5 24.5t-58 69t-16.5 103.5l96 9q0 -51 20 -78t57 -27t61.5 27t31.5 78l95 -9q-6 -59 -32 -103.5t-68 -69t-95 -24.5z" />
    <glyph glyph-name="uni0307" unicode="&#x307;" 
d="M-27 583l24 150h159l-24 -150h-159z" />
    <glyph glyph-name="uni0308" unicode="&#x308;" 
d="M81 582l23 150h149l-23 -150h-149zM-125 582l23 150h148l-22 -150h-149z" />
    <glyph glyph-name="hookabovecomb" unicode="&#x309;" 
d="M9 557l4 23q3 19 12 31.5t20 22t18.5 18.5t7.5 20t-9.5 15.5t-22.5 4.5q-16 0 -30.5 -3.5t-29.5 -11.5l-19 68q26 14 58 20t70 6q53 0 82.5 -18.5t29.5 -51.5q0 -27 -12 -44t-28 -28.5t-29.5 -24t-16.5 -31.5l-3 -16h-102z" />
    <glyph glyph-name="uni030A" unicode="&#x30a;" 
d="M69 545q-37 0 -68 17t-49 47t-18 66q0 37 18 66.5t49 47t68 17.5q39 0 69.5 -17.5t48 -47t17.5 -66.5t-17.5 -66.5t-48 -46.5t-69.5 -17zM69 618q25 0 41 16t16 41t-16 41t-41 16q-24 0 -40 -16t-16 -41t16 -41t40 -16z" />
    <glyph glyph-name="uni030B" unicode="&#x30b;" 
d="M86 557l63 205h141l-113 -205h-91zM-88 557l63 205h141l-112 -205h-92z" />
    <glyph glyph-name="uni030C" unicode="&#x30c;" 
d="M-14 557l-91 205h108l64 -113l91 113h108l-132 -205h-148z" />
    <glyph glyph-name="uni030F" unicode="&#x30f;" 
d="M107 557l-76 205h141l26 -205h-91zM-67 557l-76 205h141l26 -205h-91z" />
    <glyph glyph-name="uni0311" unicode="&#x311;" 
d="M-36 553l-95 8q6 60 32 104.5t68 69t95 24.5t91 -25t58 -69.5t17 -103.5l-97 -8q1 50 -18.5 77t-56.5 27t-61.5 -27t-32.5 -77z" />
    <glyph glyph-name="uni0312" unicode="&#x312;" 
d="M-37 560l13 85q8 48 25 80t64 61l50 -46q-24 -16 -34 -34t-14 -40l-32 20h118l-20 -126h-170z" />
    <glyph glyph-name="uni031B" unicode="&#x31b;" 
d="M137 412l-102 65l3 15q27 1 45 7.5t30 27.5t19 62l4 27h154l-8 -49q-10 -60 -48 -103.5t-97 -51.5z" />
    <glyph glyph-name="dotbelowcomb" unicode="&#x323;" 
d="M-156 -224l24 149h159l-24 -149h-159z" />
    <glyph glyph-name="uni0324" unicode="&#x324;" 
d="M-44 -205l24 149h148l-24 -149h-148zM-250 -205l24 149h148l-24 -149h-148z" />
    <glyph glyph-name="uni0326" unicode="&#x326;" 
d="M-69 -290l-49 45q24 17 34 34.5t14 40.5l32 -20h-118l20 125h169l-14 -85q-7 -46 -24 -79t-64 -61z" />
    <glyph glyph-name="uni0327" unicode="&#x327;" 
d="M-72 -198q-33 0 -63.5 5.5t-52.5 17.5l31 70q17 -8 36 -12.5t37 -4.5q27 0 39 5.5t12 17.5q0 7 -7.5 11.5t-26.5 4.5q-8 0 -16.5 -1t-19.5 -3l-19 21l26 86h84l-24 -77l-39 17q12 5 24 7t22 2q45 0 69 -18t24 -51q0 -45 -39 -71.5t-97 -26.5z" />
    <glyph glyph-name="uni0328" unicode="&#x328;" 
d="M-94 -198q-57 0 -87 26.5t-30 72.5q0 50 34 89.5t86 57.5l43 -48q-32 -12 -45.5 -31.5t-13.5 -38.5q0 -18 14 -29.5t35 -11.5q14 0 26.5 3t27.5 7l12 -81q-32 -8 -54 -12t-48 -4z" />
    <glyph glyph-name="uni032E" unicode="&#x32e;" 
d="M-60 -215q-80 0 -128 43t-41 114l95 9q1 -31 21.5 -49t57.5 -18t60.5 18t29.5 49l96 -9q-8 -71 -59.5 -114t-131.5 -43z" />
    <glyph glyph-name="uni0331" unicode="&#x331;" 
d="M-237 -175l16 97h338l-16 -97h-338z" />
    <glyph glyph-name="uni0335" unicode="&#x335;" 
d="M-177 537l19 121h444l-19 -121h-444z" />
    <glyph glyph-name="uni0337" unicode="&#x337;" 
d="M-142 203l-56 123l387 188l56 -123z" />
    <glyph glyph-name="uni0338" unicode="&#x338;" 
d="M-101 -58l-74 51l419 561l73 -50z" />
    <glyph glyph-name="uni0394" unicode="&#x394;" horiz-adv-x="768" 
d="M-8 0l16 99l370 606h146l179 -606l-11 -99h-700zM426 514l-242 -415l7 43h353l-7 -43l-109 415h-2z" />
    <glyph glyph-name="Sigma" unicode="&#x3a3;" horiz-adv-x="625" 
d="M-21 -180l20 128l311 341l15 -52l-226 340l20 128h555l-23 -149h-360l-7 37l191 -285l-15 -91l-259 -285l-2 37h359l-24 -149h-555z" />
    <glyph glyph-name="uni03A9" unicode="&#x3a9;" horiz-adv-x="832" 
d="M-1 0l23 146h235l-2 -43q-95 50 -141.5 121.5t-46.5 151.5q0 109 51 185t140 115.5t204 39.5q73 0 136 -19.5t111.5 -55.5t75.5 -85.5t27 -109.5q0 -89 -34 -156t-96.5 -113t-147.5 -74l2 43h246l-23 -146h-331l22 143q76 42 123.5 107.5t47.5 149.5q0 51 -19 87
t-55.5 55.5t-90.5 19.5q-64 0 -108.5 -26t-67 -72t-22.5 -107q0 -55 23.5 -110.5t71.5 -103.5l-23 -143h-331z" />
    <glyph glyph-name="uni03BC" unicode="&#x3bc;" horiz-adv-x="618" 
d="M-20 -216l113 724h179l-45 -296q-6 -42 7 -64.5t46 -22.5q39 0 67 30t36 81l41 272h180l-80 -508h-180l13 89h-1q-15 -48 -40.5 -74t-59.5 -26q-25 0 -40 10t-24 28h-3l-25 -243h-184z" />
    <glyph glyph-name="pi" unicode="&#x3c0;" horiz-adv-x="650" 
d="M-3 0q35 77 59 139.5t40 120t25 117.5h-97l21 131h616l-22 -131h-85l-27 -163q-4 -28 -2 -49t18.5 -33.5t51.5 -15.5l24 -2l-24 -123l-32 2q-88 5 -139.5 28.5t-68 74t-2.5 136.5l23 145h-79q-12 -78 -28 -142t-38 -121t-51 -114h-183z" />
    <glyph glyph-name="uni0400" unicode="&#x400;" horiz-adv-x="603" 
d="M25 0l112 705h506l-23 -141h-329l-21 -135h305l-22 -142h-306l-23 -145h329l-22 -142h-506zM363 765l-159 176h175l106 -176h-122z" />
    <glyph glyph-name="uni0401" unicode="&#x401;" horiz-adv-x="603" 
d="M25 0l112 705h506l-23 -141h-329l-21 -135h305l-22 -142h-306l-23 -145h329l-22 -142h-506zM453 771l24 149h148l-24 -149h-148zM246 771l24 149h149l-24 -149h-149z" />
    <glyph glyph-name="uni0402" unicode="&#x402;" horiz-adv-x="913" 
d="M546 -191q-38 0 -71 5.5t-58 15.5l39 131q17 -5 38 -8.5t42 -3.5q46 0 77.5 30t39.5 83l13 79q14 84 -23.5 120.5t-114.5 36.5q-28 0 -57.5 -5t-55.5 -16l-44 -277h-185l88 556h-214l24 149h613l-25 -149h-213l-21 -127q25 9 62 15t75 6q154 0 226.5 -75t48.5 -228
l-12 -77q-15 -95 -56 -152.5t-101.5 -83t-134.5 -25.5z" />
    <glyph glyph-name="uni0403" unicode="&#x403;" horiz-adv-x="592" 
d="M25 0l112 705h509l-24 -148h-326l-88 -557h-183zM310 765l130 176h182l-190 -176h-122z" />
    <glyph glyph-name="uni0404" unicode="&#x404;" horiz-adv-x="705" 
d="M420 -11q-103 0 -176 29.5t-117 82.5t-59.5 122t-2.5 148q17 110 73 187.5t148 118t213 39.5q67 0 123.5 -17t94.5 -46l-61 -145q-42 26 -80 38t-95 12q-86 0 -143 -45t-78 -130l-39 46h339l-23 -140h-341l58 45q-6 -85 34 -136t140 -51q52 0 97 14.5t90 47.5l50 -145
q-51 -36 -114.5 -55.5t-130.5 -19.5z" />
    <glyph glyph-name="uni0405" unicode="&#x405;" horiz-adv-x="671" 
d="M298 -11q-79 0 -151 18t-119 48l58 142q45 -23 104.5 -40t123.5 -17q66 0 94.5 17t32.5 44q3 24 -10 39.5t-53 22.5l-116 20q-90 15 -137 70.5t-33 142.5q11 69 54 118t113 75.5t161 26.5q68 0 130.5 -16.5t99.5 -46.5l-60 -139q-35 23 -82 37t-107 14q-58 0 -90.5 -16.5
t-38.5 -48.5q-4 -22 10 -40.5t56 -25.5l115 -19q94 -16 138.5 -70t30.5 -140q-9 -63 -50.5 -112t-110.5 -76.5t-163 -27.5z" />
    <glyph glyph-name="uni0406" unicode="&#x406;" horiz-adv-x="315" 
d="M25 0l112 705h185l-112 -705h-185z" />
    <glyph glyph-name="uni0407" unicode="&#x407;" horiz-adv-x="315" 
d="M25 0l112 705h185l-112 -705h-185zM268 771l24 149h148l-24 -149h-148zM61 771l24 149h149l-24 -149h-149z" />
    <glyph glyph-name="uni0408" unicode="&#x408;" horiz-adv-x="401" 
d="M32 -187q-18 0 -44.5 2.5t-53.5 10.5l23 141q19 -6 37.5 -8t29.5 -2q45 0 67 25t30 81l102 642h185l-105 -658q-13 -85 -44.5 -136.5t-86.5 -74.5t-140 -23z" />
    <glyph glyph-name="uni0409" unicode="&#x409;" horiz-adv-x="1170" 
d="M68 -19l-89 130q50 24 86.5 53t63 69t45 95.5t30.5 133.5l39 243h544l-44 -275h158q126 0 189.5 -58.5t44.5 -176.5q-16 -100 -91 -147.5t-192 -47.5h-360l88 557h-193l-21 -133q-14 -93 -41.5 -164.5t-65.5 -124t-86.5 -90t-104.5 -64.5zM696 137h151q55 0 82.5 19
t33.5 57q6 41 -14.5 60t-75.5 19h-152z" />
    <glyph glyph-name="uni040A" unicode="&#x40a;" horiz-adv-x="1171" 
d="M25 0l112 705h183l-44 -273h285l43 273h183l-44 -275h159q126 0 189 -58.5t44 -176.5q-16 -100 -91 -147.5t-191 -47.5h-361l45 283h-284l-45 -283h-183zM697 137h151q55 0 82.5 19t33.5 57q6 41 -15 60t-76 19h-151z" />
    <glyph glyph-name="uni040B" unicode="&#x40b;" horiz-adv-x="898" 
d="M186 0l88 556h-214l24 149h613l-24 -149h-214l-21 -127q26 9 64 15t75 6q146 0 213 -77.5t44 -225.5l-23 -147h-183l22 141q14 84 -19 120.5t-105 36.5q-26 0 -54.5 -4.5t-56.5 -16.5l-44 -277h-185z" />
    <glyph glyph-name="uni040C" unicode="&#x40c;" horiz-adv-x="730" 
d="M25 0l112 705h183l-46 -283h92l-34 -18l235 301h207l-277 -338l-68 48q71 -13 111 -50.5t63 -106.5l88 -258h-191l-61 198q-13 41 -41 58.5t-75 17.5h-72l-43 -274h-183zM381 765l130 176h182l-190 -176h-122z" />
    <glyph glyph-name="uni040D" unicode="&#x40d;" horiz-adv-x="765" 
d="M25 0l112 705h171l-71 -447l-27 -4l427 451h135l-112 -705h-171l71 447l26 4l-426 -451h-135zM404 765l-159 176h175l106 -176h-122z" />
    <glyph glyph-name="uni040E" unicode="&#x40e;" horiz-adv-x="699" 
d="M118 0l165 243v-51l-239 513h187l160 -355h-33l241 355h196l-481 -705h-196zM430 760q-63 0 -104.5 20t-64.5 54t-30 76l86 27q15 -46 43 -66t77 -20q51 0 82.5 22.5t49.5 62.5l78 -26q-13 -45 -43 -78.5t-74 -52.5t-100 -19z" />
    <glyph glyph-name="uni040F" unicode="&#x40f;" horiz-adv-x="780" 
d="M243 -175l28 175h-246l112 705h183l-89 -557h285l89 557h182l-112 -705h-245l-28 -175h-159z" />
    <glyph glyph-name="uni0410" unicode="&#x410;" horiz-adv-x="769" 
d="M-62 0l442 705h150l220 -705h-179l-54 194l63 -51h-414l78 51l-115 -194h-191zM430 515l-161 -279l-21 47h294l-33 -47l-74 279h-5z" />
    <glyph glyph-name="uni0411" unicode="&#x411;" horiz-adv-x="704" 
d="M25 0l112 705h538l-23 -140h-362l-21 -135h166q125 0 188 -58.5t45 -176.5q-15 -100 -90 -147.5t-192 -47.5h-361zM222 137h159q55 0 82.5 19t32.5 57q7 41 -14 60t-76 19h-159z" />
    <glyph glyph-name="uni0412" unicode="&#x412;" horiz-adv-x="701" 
d="M25 0l112 705h336q122 0 178.5 -50.5t42.5 -140.5q-9 -58 -52 -100.5t-110 -58.5l2 16q73 -13 106.5 -61.5t22.5 -119.5q-14 -87 -86.5 -138.5t-190.5 -51.5h-361zM223 135h155q52 0 79.5 18t32.5 54q5 30 -4 48.5t-30.5 26.5t-56.5 8h-152zM269 425h134q53 0 79 17
t31 51q7 41 -14 59t-74 18h-133z" />
    <glyph glyph-name="uni0413" unicode="&#x413;" horiz-adv-x="592" 
d="M25 0l112 705h509l-24 -148h-326l-88 -557h-183z" />
    <glyph glyph-name="uni0414" unicode="&#x414;" horiz-adv-x="845" 
d="M-56 -175l49 315h74q52 54 89 148t58 229l30 188h548l-90 -565h103l-50 -315h-158l28 175h-496l-27 -175h-158zM253 140h266l67 425h-197l-10 -67q-20 -124 -52 -212.5t-74 -145.5z" />
    <glyph glyph-name="uni0415" unicode="&#x415;" horiz-adv-x="603" 
d="M25 0l112 705h506l-23 -141h-329l-21 -135h305l-22 -142h-306l-23 -145h329l-22 -142h-506z" />
    <glyph glyph-name="uni0416" unicode="&#x416;" horiz-adv-x="1092" 
d="M-48 0l170 258q45 69 100 106.5t131 50.5l-77 -48l-169 338h193l139 -301l-21 18h68l45 283h175l-45 -283h67l-33 -18l235 301h206l-276 -338l-68 48q69 -13 109 -50.5t64 -106.5l88 -258h-190l-62 198q-13 41 -40.5 58.5t-74.5 17.5h-48l-44 -274h-175l43 274h-48
q-46 0 -76 -17.5t-56 -58.5l-125 -198h-205z" />
    <glyph glyph-name="uni0417" unicode="&#x417;" horiz-adv-x="632" 
d="M278 -11q-89 0 -155.5 20.5t-114.5 56.5l57 132q36 -28 88.5 -44t119.5 -16q68 0 105 19.5t43 57.5t-15.5 55.5t-70.5 17.5h-184l23 140h165q49 0 74.5 16t31.5 48q5 34 -20 54.5t-90 20.5q-54 0 -109 -15.5t-99 -44.5l-50 133q54 35 129.5 55.5t159.5 20.5
q100 0 160.5 -26.5t84.5 -72.5t15 -103q-9 -56 -49 -98.5t-113 -58.5l2 16q66 -12 103 -59t24 -124q-9 -58 -47 -103.5t-104.5 -71.5t-163.5 -26z" />
    <glyph glyph-name="uni0418" unicode="&#x418;" horiz-adv-x="765" 
d="M25 0l112 705h171l-71 -447l-27 -4l427 451h135l-112 -705h-171l71 447l26 4l-426 -451h-135z" />
    <glyph glyph-name="uni0419" unicode="&#x419;" horiz-adv-x="765" 
d="M25 0l112 705h171l-71 -447l-27 -4l427 451h135l-112 -705h-171l71 447l26 4l-426 -451h-135zM461 760q-63 0 -104.5 20t-64.5 54t-30 76l86 27q15 -46 43 -66t77 -20q51 0 82.5 22.5t49.5 62.5l78 -26q-13 -45 -43 -78.5t-74 -52.5t-100 -19z" />
    <glyph glyph-name="uni041A" unicode="&#x41a;" horiz-adv-x="730" 
d="M25 0l112 705h183l-46 -283h92l-34 -18l235 301h207l-277 -338l-68 48q71 -13 111 -50.5t63 -106.5l88 -258h-191l-61 198q-13 41 -41 58.5t-75 17.5h-72l-43 -274h-183z" />
    <glyph glyph-name="uni041B" unicode="&#x41b;" horiz-adv-x="784" 
d="M68 -19l-89 130q50 24 87 53t63 69t45 95.5t30 133.5l39 243h548l-112 -705h-183l88 557h-197l-21 -133q-14 -93 -41.5 -164.5t-65.5 -124t-86.5 -90t-104.5 -64.5z" />
    <glyph glyph-name="uni041C" unicode="&#x41c;" horiz-adv-x="884" 
d="M28 0l112 705h160l149 -517h-33l312 517h161l-112 -705h-167l68 432h44l-269 -432h-103l-133 432h46l-69 -432h-166z" />
    <glyph glyph-name="uni041D" unicode="&#x41d;" horiz-adv-x="784" 
d="M25 0l112 705h185l-44 -272h284l44 272h185l-112 -705h-185l45 282h-284l-45 -282h-185z" />
    <glyph glyph-name="uni041E" unicode="&#x41e;" horiz-adv-x="804" 
d="M65 371q17 110 70 187t135 117.5t186 40.5q120 0 195.5 -49.5t106.5 -136t13 -195.5q-17 -110 -70.5 -187t-135 -118t-187.5 -41q-118 0 -194 50t-106 136.5t-13 195.5zM256 361q-11 -69 1.5 -118t47 -74.5t89.5 -25.5q79 0 125 55t60 147q12 69 -1 117.5t-47.5 74
t-90.5 25.5q-79 0 -124 -54t-60 -147z" />
    <glyph glyph-name="uni041F" unicode="&#x41f;" horiz-adv-x="780" 
d="M25 0l112 705h650l-112 -705h-182l87 557h-284l-88 -557h-183z" />
    <glyph glyph-name="uni0420" unicode="&#x420;" horiz-adv-x="684" 
d="M25 0l112 705h329q128 0 185 -65t40 -172q-9 -60 -42.5 -106.5t-92 -72.5t-142.5 -26h-162l-42 -263h-185zM274 405h137q49 0 74.5 19t30.5 56q7 40 -13 62t-71 22h-133z" />
    <glyph glyph-name="uni0421" unicode="&#x421;" horiz-adv-x="685" 
d="M395 -11q-125 0 -204.5 50t-111 136.5t-14.5 195.5q17 110 72.5 187.5t143 118t199.5 39.5q69 0 124.5 -18t92.5 -47l-61 -146q-40 28 -77 39.5t-86 11.5q-86 0 -143.5 -49.5t-72.5 -142.5q-10 -66 5 -114.5t54.5 -74.5t103.5 -26q44 0 87.5 13.5t90.5 46.5l48 -145
q-52 -36 -116.5 -55.5t-134.5 -19.5z" />
    <glyph glyph-name="uni0422" unicode="&#x422;" horiz-adv-x="638" 
d="M186 0l88 556h-214l24 149h613l-24 -149h-214l-88 -556h-185z" />
    <glyph glyph-name="uni0423" unicode="&#x423;" horiz-adv-x="699" 
d="M118 0l165 243v-51l-239 513h187l160 -355h-33l241 355h196l-481 -705h-196z" />
    <glyph glyph-name="uni0424" unicode="&#x424;" horiz-adv-x="952" 
d="M339 -28l19 111l38 -29h-21q-110 0 -185 37.5t-108 109.5t-17 175q23 143 125.5 214.5t262.5 71.5h39l-48 -29l17 105h183l-17 -105l-39 29h22q111 0 186 -37t107.5 -109t16.5 -176q-15 -95 -67 -159t-133.5 -95.5t-187.5 -31.5h-40l48 29l-18 -111h-183zM371 161l62 394
l31 -27h-38q-66 0 -114.5 -36.5t-63.5 -124.5q-9 -63 5 -103t46 -58t74 -18h38zM551 161l-31 27h38q44 0 81 16t63 51.5t34 93.5q11 64 -3.5 103.5t-46 57.5t-74.5 18h-39l41 27z" />
    <glyph glyph-name="uni0425" unicode="&#x425;" horiz-adv-x="693" 
d="M-72 0l363 397l-6 -83l-232 391h209l140 -257h-59l224 257h223l-357 -391l6 83l239 -397h-210l-147 263h59l-230 -263h-222z" />
    <glyph glyph-name="uni0426" unicode="&#x426;" horiz-adv-x="840" 
d="M592 -175l27 175h-594l112 705h183l-89 -557h285l89 557h182l-89 -557h104l-51 -323h-159z" />
    <glyph glyph-name="uni0427" unicode="&#x427;" horiz-adv-x="736" 
d="M448 0l40 249q-26 -9 -64.5 -15t-75.5 -6q-90 0 -153.5 33t-91.5 100.5t-13 169.5l29 174h183l-28 -168q-13 -85 18 -121t110 -36q27 0 54 5t56 15l48 305h183l-112 -705h-183z" />
    <glyph glyph-name="uni0428" unicode="&#x428;" horiz-adv-x="1117" 
d="M25 0l112 705h181l-89 -557h223l89 557h179l-88 -557h223l89 557h179l-112 -705h-986z" />
    <glyph glyph-name="uni0429" unicode="&#x429;" horiz-adv-x="1177" 
d="M929 -175l27 175h-931l112 705h181l-89 -557h223l89 557h179l-88 -557h223l89 557h179l-88 -557h103l-51 -323h-158z" />
    <glyph glyph-name="uni042A" unicode="&#x42a;" horiz-adv-x="853" 
d="M175 0l87 557h-202l24 148h386l-44 -275h159q125 0 188.5 -58.5t44.5 -176.5q-16 -100 -91 -147.5t-192 -47.5h-360zM379 137h151q55 0 82.5 19t33.5 57q6 41 -14.5 60t-75.5 19h-152z" />
    <glyph glyph-name="uni042B" unicode="&#x42b;" horiz-adv-x="975" 
d="M25 0l112 705h183l-44 -275h129q125 0 188.5 -58.5t44.5 -176.5q-15 -100 -90 -147.5t-192 -47.5h-331zM230 137h121q55 0 82.5 19t32.5 57q7 41 -14 60t-76 19h-121zM687 0l112 705h183l-112 -705h-183z" />
    <glyph glyph-name="uni042C" unicode="&#x42c;" horiz-adv-x="704" 
d="M25 0l112 705h183l-44 -275h159q125 0 188.5 -58.5t44.5 -176.5q-15 -100 -90 -147.5t-192 -47.5h-361zM230 137h151q55 0 82.5 19t32.5 57q7 41 -14 60t-76 19h-151z" />
    <glyph glyph-name="uni042D" unicode="&#x42d;" horiz-adv-x="705" 
d="M237 -11q-67 0 -124 17.5t-94 46.5l60 144q42 -26 80.5 -38t94.5 -12q87 0 144 45.5t77 129.5l45 -33h-342l23 140h339l-58 -58q6 85 -34 136t-140 51q-51 0 -96.5 -14.5t-91.5 -47.5l-50 145q59 39 127.5 57t135.5 18q97 0 166.5 -29.5t111.5 -82t57 -122t3 -148.5
q-17 -110 -73.5 -187.5t-147.5 -118t-213 -39.5z" />
    <glyph glyph-name="uni042E" unicode="&#x42e;" horiz-adv-x="1112" 
d="M686 -11q-101 0 -171 37.5t-107 104t-40 152.5h-115l-45 -283h-183l112 705h183l-44 -274h110q38 137 137.5 211t240.5 74q120 0 195.5 -49.5t106 -135.5t13.5 -196t-70.5 -187t-135.5 -118t-187 -41zM701 143q78 0 124.5 55t61.5 147q11 69 -1.5 117.5t-47.5 74
t-90 25.5q-79 0 -124 -54t-60 -147q-11 -69 1 -118t46.5 -74.5t89.5 -25.5z" />
    <glyph glyph-name="uni042F" unicode="&#x42f;" horiz-adv-x="726" 
d="M-24 0l146 200q30 42 68.5 64t82.5 22h44l-3 -18q-76 0 -128.5 28t-76 80t-12.5 122q17 106 91 156.5t196 50.5h349l-112 -705h-183l42 263h-54q-18 0 -32.5 -4t-25.5 -13t-22 -23l-162 -223h-208zM365 392h136l27 173h-133q-61 0 -90.5 -20.5t-35.5 -60.5q-7 -44 18 -68
t78 -24z" />
    <glyph glyph-name="uni0430" unicode="&#x430;" horiz-adv-x="661" 
d="M239 -11q-69 0 -118 36t-69.5 100t-7.5 147q20 124 91.5 185.5t169.5 61.5q59 0 102 -26.5t51 -70.5l-9 -4l26 90h171q-9 -34 -16.5 -69t-13.5 -69l-59 -370h-176l14 91h17q-22 -46 -66.5 -74t-106.5 -28zM304 121q44 0 75 30.5t41 94.5q12 77 -11.5 109t-70.5 32
q-44 0 -74.5 -30t-41.5 -95q-12 -76 11.5 -108.5t70.5 -32.5z" />
    <glyph glyph-name="uni0431" unicode="&#x431;" horiz-adv-x="636" 
d="M302 -11q-145 0 -211 81t-44 224l12 73q23 142 110.5 230.5t233.5 114.5l192 35l25 -137l-216 -39q-77 -14 -119.5 -60t-54.5 -112l-11 -68h-22q17 44 46 79.5t71.5 56t95.5 20.5q64 0 109 -31.5t65 -89.5t8 -138q-13 -79 -54.5 -132.5t-102.5 -80t-133 -26.5zM300 119
q46 0 76.5 29.5t38.5 86.5q10 61 -13 91.5t-69 30.5q-47 0 -76.5 -29.5t-39.5 -85.5q-10 -62 13 -92.5t70 -30.5z" />
    <glyph glyph-name="uni0432" unicode="&#x432;" horiz-adv-x="604" 
d="M20 0l81 508h292q75 0 117 -17t57 -47.5t8 -71.5q-7 -46 -43 -78t-89 -42l2 16q65 -6 92.5 -38.5t18.5 -88.5q-10 -66 -65.5 -103.5t-143.5 -37.5h-327zM199 103h124q34 0 53.5 12.5t23.5 38.5q5 28 -11 41t-49 13h-125zM232 311h115q30 0 46 12t20 35q3 25 -10.5 36.5
t-43.5 11.5h-112z" />
    <glyph glyph-name="uni0433" unicode="&#x433;" horiz-adv-x="493" 
d="M20 0l81 508h413l-22 -137h-236l-58 -371h-178z" />
    <glyph glyph-name="uni0434" unicode="&#x434;" horiz-adv-x="663" 
d="M-36 -130l42 262h63q31 42 49.5 97t31.5 140l23 139h432l-60 -376h85l-41 -262h-150l21 130h-326l-21 -130h-149zM227 131h153l39 246h-119l-9 -54q-8 -52 -25 -104t-39 -88z" />
    <glyph glyph-name="uni0435" unicode="&#x435;" horiz-adv-x="570" 
d="M308 -11q-97 0 -160 36.5t-89.5 101t-13.5 148.5q12 75 49.5 129.5t96 84.5t133.5 30q78 0 128.5 -33.5t71.5 -92t8 -134.5l-5 -35h-341l13 84h210l-20 -18q9 57 -10 84.5t-60 27.5q-30 0 -51 -14t-34 -38.5t-18 -55.5l-7 -44q-8 -62 20.5 -95.5t104.5 -33.5q34 0 65.5 9
t65.5 29l45 -116q-43 -28 -94 -41t-108 -13z" />
    <glyph glyph-name="uni0436" unicode="&#x436;" horiz-adv-x="890" 
d="M-56 0l142 204q19 27 41.5 47.5t48 34t52.5 16.5l-36 -57l-144 263h183l97 -182h44l30 182h176l-29 -182h37l156 182h194l-225 -263l-25 57q26 -3 46 -16.5t34.5 -34t24.5 -47.5l77 -204h-183l-55 147q-6 17 -15 26.5t-21 13.5t-28 4h-38l-31 -191h-176l31 191h-40
q-15 0 -27 -4t-22.5 -13.5t-22.5 -26.5l-102 -147h-194z" />
    <glyph glyph-name="uni0437" unicode="&#x437;" horiz-adv-x="556" 
d="M236 -11q-70 0 -131 14t-102 43l51 111q34 -22 85.5 -34.5t104.5 -12.5q52 0 78 11t31 35q4 21 -11 31.5t-50 10.5h-146l18 117h133q31 0 48 10t20 28q4 21 -16 33.5t-76 12.5q-52 0 -97.5 -11t-83.5 -30l-36 107q47 25 113 39.5t143 14.5q115 0 170 -39t44 -110
q-7 -43 -42.5 -75t-89.5 -42l2 16q64 -6 92.5 -40.5t20.5 -88.5q-11 -68 -81 -109.5t-192 -41.5z" />
    <glyph glyph-name="uni0438" unicode="&#x438;" horiz-adv-x="638" 
d="M20 0l81 508h160l-52 -328l-39 1l304 327h144l-80 -508h-160l52 328h40l-305 -328h-145z" />
    <glyph glyph-name="uni0439" unicode="&#x439;" horiz-adv-x="638" 
d="M20 0l81 508h160l-52 -328l-39 1l304 327h144l-80 -508h-160l52 328h40l-305 -328h-145zM372 553q-59 0 -98.5 21t-60.5 55t-26 73l83 27q12 -45 38.5 -65t71.5 -20t71.5 22.5t43.5 61.5l80 -26q-12 -44 -40 -77.5t-69 -52.5t-94 -19z" />
    <glyph glyph-name="uni043A" unicode="&#x43a;" horiz-adv-x="609" 
d="M20 0l81 508h176l-29 -182h49l156 182h194l-224 -263l-26 57q27 -3 46.5 -16.5t34 -34t24.5 -47.5l77 -204h-183l-55 147q-6 17 -15 26.5t-20.5 13.5t-27.5 4h-51l-30 -191h-177z" />
    <glyph glyph-name="uni043B" unicode="&#x43b;" horiz-adv-x="635" 
d="M29 -17l-36 140q31 7 55 21.5t40.5 38t28 57.5t18.5 79l31 189h450l-81 -508h-176l59 374h-114l-12 -77q-12 -71 -33.5 -126t-54.5 -94t-76.5 -62t-98.5 -32z" />
    <glyph glyph-name="uni043C" unicode="&#x43c;" horiz-adv-x="728" 
d="M20 0l81 508h147l115 -260l198 260h148l-81 -508h-156l49 308h29l-170 -225h-79l-98 225h22l-49 -308h-156z" />
    <glyph glyph-name="uni043D" unicode="&#x43d;" horiz-adv-x="642" 
d="M20 0l81 508h176l-29 -182h169l29 182h177l-81 -508h-176l31 191h-170l-30 -191h-177z" />
    <glyph glyph-name="uni043E" unicode="&#x43e;" horiz-adv-x="635" 
d="M291 -11q-90 0 -150 34.5t-85 98t-12 150.5q13 82 55 137t105.5 82.5t141.5 27.5q91 0 150 -34.5t84 -97.5t11 -151q-13 -82 -54.5 -137t-104.5 -82.5t-141 -27.5zM301 121q42 0 72 30.5t41 94.5q12 77 -11 109t-68 32q-43 0 -72.5 -30t-40.5 -95q-12 -76 10.5 -108.5
t68.5 -32.5z" />
    <glyph glyph-name="uni043F" unicode="&#x43f;" horiz-adv-x="639" 
d="M20 0l81 508h519l-81 -508h-176l59 374h-166l-59 -374h-177z" />
    <glyph glyph-name="uni0440" unicode="&#x440;" horiz-adv-x="661" 
d="M-10 -216l93 586q6 34 9 69t5 69h171l-2 -90h-15q22 45 66.5 73t105.5 28q70 0 118.5 -35.5t69.5 -99.5t7 -148q-20 -123 -91.5 -185t-169.5 -62q-58 0 -101 26.5t-52 70.5h12l-48 -302h-178zM324 121q45 0 75.5 30.5t40.5 94.5q12 77 -11 109t-70 32q-44 0 -75 -30
t-41 -95q-12 -76 12 -108.5t69 -32.5z" />
    <glyph glyph-name="uni0441" unicode="&#x441;" horiz-adv-x="532" 
d="M298 -11q-92 0 -153.5 36.5t-87.5 100.5t-13 146q20 123 103.5 185t206.5 62q45 0 92 -12.5t75 -36.5l-53 -120q-21 17 -51.5 26t-58.5 9q-50 0 -86 -29t-46 -93q-10 -60 16.5 -99.5t86.5 -39.5q25 0 55.5 10t56.5 28l45 -119q-29 -24 -80.5 -39t-107.5 -15z" />
    <glyph glyph-name="uni0442" unicode="&#x442;" horiz-adv-x="518" 
d="M131 0l58 371h-162l23 137h501l-23 -137h-162l-59 -371h-176z" />
    <glyph glyph-name="uni0443" unicode="&#x443;" horiz-adv-x="576" 
d="M-10 -227l-27 138q50 9 84 19.5t57.5 28.5t41.5 47l34 58l-9 -67l-140 511h181l77 -337h-34l189 337h182l-310 -519q-37 -61 -74 -100t-76 -62t-82 -34.5t-94 -19.5z" />
    <glyph glyph-name="uni0444" unicode="&#x444;" horiz-adv-x="912" 
d="M293 -216l47 297h16q-25 -45 -63 -68.5t-82 -23.5q-65 0 -107.5 35t-58 97t-3.5 143q20 129 83.5 192t149.5 63q51 0 87 -24t45 -67h-11l48 308h177l-49 -308h-15q24 44 62 67.5t82 23.5q66 0 108.5 -34.5t58.5 -97t3 -143.5q-20 -128 -84 -191.5t-150 -63.5
q-50 0 -86 24t-45 68h10l-46 -297h-177zM275 118q35 0 60 32.5t36 104.5t-6 104t-53 32q-34 0 -58.5 -32.5t-36.5 -103.5q-11 -72 5.5 -104.5t52.5 -32.5zM600 118q34 0 59 32t36 103q12 72 -4.5 105t-53.5 33q-35 0 -59.5 -33t-35.5 -105q-11 -71 5.5 -103t52.5 -32z" />
    <glyph glyph-name="uni0445" unicode="&#x445;" horiz-adv-x="583" 
d="M-71 0l294 300l-4 -77l-187 285h200l99 -165h-63l152 165h217l-279 -286l7 80l199 -302h-206l-111 179h66l-168 -179h-216z" />
    <glyph glyph-name="uni0446" unicode="&#x446;" horiz-adv-x="665" 
d="M442 -130l21 130h-443l81 508h176l-59 -374h154l59 374h176l-59 -374h84l-41 -264h-149z" />
    <glyph glyph-name="uni0447" unicode="&#x447;" horiz-adv-x="610" 
d="M337 0l25 160q-26 -9 -53 -13t-52 -4q-69 0 -118 25t-70.5 75t-10.5 124l23 141h177l-20 -125q-8 -53 9 -76.5t68 -23.5q18 0 35 3.5t30 9.5l34 212h176l-81 -508h-172z" />
    <glyph glyph-name="uni0448" unicode="&#x448;" horiz-adv-x="886" 
d="M20 0l81 508h165l-59 -374h135l60 374h163l-58 -374h136l59 374h164l-80 -508h-766z" />
    <glyph glyph-name="uni0449" unicode="&#x449;" horiz-adv-x="924" 
d="M701 -130l21 130h-702l81 508h165l-59 -374h135l60 374h163l-58 -374h136l59 374h164l-59 -374h84l-41 -264h-149z" />
    <glyph glyph-name="uni044A" unicode="&#x44a;" horiz-adv-x="672" 
d="M110 0l59 371h-142l23 137h316l-24 -155h100q113 0 160 -48.5t33 -135.5q-13 -86 -77 -127.5t-162 -41.5h-286zM303 111h83q39 0 61.5 15.5t27.5 46.5q6 36 -12 52.5t-59 16.5h-80z" />
    <glyph glyph-name="uni044B" unicode="&#x44b;" horiz-adv-x="843" 
d="M20 0l81 508h176l-25 -155h101q113 0 160 -48.5t33 -135.5q-13 -86 -77 -127.5t-162 -41.5h-287zM214 111h83q39 0 61.5 15.5t27.5 46.5q6 36 -12 52.5t-59 16.5h-80zM566 0l81 508h176l-81 -508h-176z" />
    <glyph glyph-name="uni044C" unicode="&#x44c;" horiz-adv-x="583" 
d="M20 0l81 508h176l-25 -155h101q113 0 160 -48.5t33 -135.5q-13 -86 -77 -127.5t-162 -41.5h-287zM214 111h83q39 0 61.5 15.5t27.5 46.5q6 36 -12 52.5t-59 16.5h-80z" />
    <glyph glyph-name="uni044D" unicode="&#x44d;" horiz-adv-x="561" 
d="M195 -11q-57 0 -104.5 13t-75.5 36l48 112q25 -20 58 -29.5t70 -9.5q63 0 103 28.5t57 86.5l14 -26h-238l18 114h239l-30 -37q3 62 -30 91t-95 29q-36 0 -71 -10t-68 -31l-32 109q32 24 85.5 39t116.5 15q90 0 152.5 -36t90.5 -100t15 -147t-57.5 -138t-112.5 -82
t-153 -27z" />
    <glyph glyph-name="uni044E" unicode="&#x44e;" horiz-adv-x="890" 
d="M546 -11q-112 0 -177 54t-71 148h-74l-31 -191h-173l81 508h173l-30 -182h69q32 96 108.5 144.5t179.5 48.5q91 0 150 -34.5t84 -97.5t11 -151q-13 -82 -54.5 -137t-104.5 -82.5t-141 -27.5zM556 121q43 0 72.5 30.5t40.5 94.5q12 77 -11 109t-68 32q-43 0 -72 -30
t-40 -95q-12 -76 10.5 -108.5t67.5 -32.5z" />
    <glyph glyph-name="uni044F" unicode="&#x44f;" horiz-adv-x="595" 
d="M-27 0l93 128q26 35 61 55.5t66 20.5h33l-5 -14q-93 0 -134 47t-30 120q11 69 69.5 110t154.5 41h294l-80 -508h-161l25 158h-31q-20 0 -38 -11.5t-31 -30.5l-84 -116h-202zM287 269h89l21 128h-87q-40 0 -63.5 -16.5t-27.5 -45.5q-5 -32 13 -49t55 -17z" />
    <glyph glyph-name="uni0450" unicode="&#x450;" horiz-adv-x="570" 
d="M308 -11q-97 0 -160 36.5t-89.5 101t-13.5 148.5q12 75 49.5 129.5t96 84.5t133.5 30q78 0 128.5 -33.5t71.5 -92t8 -134.5l-5 -35h-341l13 84h210l-20 -18q9 57 -10 84.5t-60 27.5q-30 0 -51 -14t-34 -38.5t-18 -55.5l-7 -44q-8 -62 20.5 -95.5t104.5 -33.5q34 0 65.5 9
t65.5 29l45 -116q-43 -28 -94 -41t-108 -13zM290 557l-143 205h166l91 -205h-114z" />
    <glyph glyph-name="uni0451" unicode="&#x451;" horiz-adv-x="570" 
d="M308 -11q-97 0 -160 36.5t-89.5 101t-13.5 148.5q12 75 49.5 129.5t96 84.5t133.5 30q78 0 128.5 -33.5t71.5 -92t8 -134.5l-5 -35h-341l13 84h210l-20 -18q9 57 -10 84.5t-60 27.5q-30 0 -51 -14t-34 -38.5t-18 -55.5l-7 -44q-8 -62 20.5 -95.5t104.5 -33.5q34 0 65.5 9
t65.5 29l45 -116q-43 -28 -94 -41t-108 -13zM381 582l23 150h149l-23 -150h-149zM175 582l23 150h148l-22 -150h-149z" />
    <glyph glyph-name="uni0452" unicode="&#x452;" horiz-adv-x="638" 
d="M292 -188l-37 127q42 11 65 26t35 38.5t17 61.5l32 204q8 47 -8 67t-47 20q-43 0 -71 -26.5t-35 -71.5l-41 -258h-178l88 552h-86l19 122h86l10 62h178l-10 -62h189l-19 -122h-189l-26 -158l-15 -2q30 50 78 75.5t106 25.5q90 0 128.5 -55.5t20.5 -170.5l-32 -201
q-10 -66 -37.5 -114.5t-80 -82t-140.5 -57.5z" />
    <glyph glyph-name="uni0453" unicode="&#x453;" horiz-adv-x="493" 
d="M20 0l81 508h413l-22 -137h-236l-58 -371h-178zM240 557l130 205h171l-187 -205h-114z" />
    <glyph glyph-name="uni0454" unicode="&#x454;" horiz-adv-x="564" 
d="M318 -11q-99 0 -164.5 36.5t-94 100.5t-15.5 146q13 84 57.5 138.5t112.5 81.5t152 27q58 0 105.5 -12.5t74.5 -36.5l-47 -112q-25 20 -58.5 30t-70.5 10q-62 0 -102 -29t-57 -86l-13 31h238l-18 -114h-239l29 32q-4 -62 29.5 -91.5t94.5 -29.5q37 0 72 10t67 31l41 -109
q-29 -24 -81 -39t-113 -15z" />
    <glyph glyph-name="uni0455" unicode="&#x455;" horiz-adv-x="524" 
d="M230 -11q-68 0 -123.5 13.5t-90.5 36.5l46 116q37 -20 83.5 -33t92.5 -13q38 0 57 11t22 30q3 16 -7 26t-31 14l-93 14q-72 11 -102 51.5t-20 103.5q8 52 41 88t85 54t115 18q57 0 107 -11.5t85 -37.5l-50 -112q-28 18 -67.5 30t-74.5 12q-41 0 -61 -12t-23 -31
q-2 -14 6 -25t29 -14l94 -15q73 -11 103.5 -49.5t20.5 -103.5q-9 -54 -42.5 -90t-85.5 -53.5t-116 -17.5z" />
    <glyph glyph-name="uni0456" unicode="&#x456;" horiz-adv-x="306" 
d="M24 0l81 508h178l-81 -508h-178zM112 580l25 160h187l-26 -160h-186z" />
    <glyph glyph-name="uni0457" unicode="&#x457;" horiz-adv-x="306" 
d="M24 0l81 508h178l-81 -508h-178zM235 582l23 150h149l-23 -150h-149zM29 582l23 150h148l-22 -150h-149z" />
    <glyph glyph-name="uni0458" unicode="&#x458;" horiz-adv-x="306" 
d="M-44 -225q-24 0 -47 3t-44 12l22 137q13 -5 26.5 -7t28.5 -2q28 0 51 16.5t30 59.5l81 514h178l-82 -520q-17 -105 -75.5 -159t-168.5 -54zM110 580l26 160h186l-25 -160h-187z" />
    <glyph glyph-name="uni0459" unicode="&#x459;" horiz-adv-x="917" 
d="M29 -17l-36 140q31 7 55 21.5t40.5 38t28 57.5t18.5 79l31 189h446l-25 -155h101q112 0 159.5 -48.5t33.5 -135.5q-14 -86 -78 -127.5t-162 -41.5h-282l59 374h-114l-12 -77q-11 -71 -33 -126t-54.5 -94t-76.5 -62t-99 -32zM549 111h83q39 0 61.5 15.5t27.5 46.5
q6 36 -12.5 52.5t-58.5 16.5h-81z" />
    <glyph glyph-name="uni045A" unicode="&#x45a;" horiz-adv-x="928" 
d="M20 0l81 508h176l-29 -182h169l30 182h176l-25 -155h101q112 0 159.5 -48.5t33.5 -135.5q-14 -86 -78 -127.5t-162 -41.5h-286l31 191h-170l-30 -191h-177zM560 111h83q39 0 61.5 15.5t27.5 46.5q6 36 -12 52.5t-59 16.5h-81z" />
    <glyph glyph-name="uni045B" unicode="&#x45b;" horiz-adv-x="641" 
d="M24 0l88 552h-86l19 122h87l9 62h178l-9 -62h188l-19 -122h-189l-24 -150l-15 -1q30 50 78 75t106 25q89 0 128.5 -55t20.5 -169l-44 -277h-178l44 278q8 47 -7.5 67t-48.5 20q-43 0 -70.5 -27t-34.5 -71l-43 -267h-178z" />
    <glyph glyph-name="uni045C" unicode="&#x45c;" horiz-adv-x="609" 
d="M20 0l81 508h176l-29 -182h49l156 182h194l-224 -263l-26 57q27 -3 46.5 -16.5t34 -34t24.5 -47.5l77 -204h-183l-55 147q-6 17 -15 26.5t-20.5 13.5t-27.5 4h-51l-30 -191h-177zM323 557l130 205h171l-187 -205h-114z" />
    <glyph glyph-name="uni045D" unicode="&#x45d;" horiz-adv-x="638" 
d="M20 0l81 508h160l-52 -328l-39 1l304 327h144l-80 -508h-160l52 328h40l-305 -328h-145zM311 557l-143 205h166l91 -205h-114z" />
    <glyph glyph-name="uni045E" unicode="&#x45e;" horiz-adv-x="576" 
d="M-10 -227l-27 138q50 9 84 19.5t57.5 28.5t41.5 47l34 58l-9 -67l-140 511h181l77 -337h-34l189 337h182l-310 -519q-37 -61 -74 -100t-76 -62t-82 -34.5t-94 -19.5zM339 553q-59 0 -98.5 21t-60.5 55t-26 73l83 27q12 -45 38.5 -65t71.5 -20t71.5 22.5t43.5 61.5l80 -26
q-12 -44 -40 -77.5t-69 -52.5t-94 -19z" />
    <glyph glyph-name="uni045F" unicode="&#x45f;" horiz-adv-x="639" 
d="M183 -130l21 130h-184l81 508h176l-59 -374h167l58 374h177l-81 -508h-185l-21 -130h-150z" />
    <glyph glyph-name="uni0462" unicode="&#x462;" horiz-adv-x="787" 
d="M117 0l80 507h-177l21 127h176l12 71h174l-11 -71h241l-20 -127h-241l-12 -77h158q126 0 189 -58.5t44 -176.5q-15 -100 -90 -147.5t-192 -47.5h-352zM313 137h151q55 0 83 19t33 57q6 41 -14.5 60t-75.5 19h-152z" />
    <glyph glyph-name="uni0463" unicode="&#x463;" horiz-adv-x="672" 
d="M110 0l63 396h-142l18 112h141l37 228h176l-36 -228h173l-17 -112h-174l-11 -73h120q95 0 141.5 -43.5t33.5 -126.5q-13 -81 -72.5 -117t-152.5 -36h-298zM302 100h90q35 0 56 15t26 45q5 33 -12 47.5t-51 14.5h-90z" />
    <glyph glyph-name="uni046A" unicode="&#x46a;" horiz-adv-x="1093" 
d="M-48 0l173 264q51 77 124.5 116.5t165.5 39.5h32l-14 -39l-233 324h838l-337 -324l-1 39h30q62 0 108 -18t77.5 -52.5t48.5 -85.5l90 -264h-191l-62 198q-8 26 -21.5 43t-35.5 25t-57 8h-46l-43 -274h-182l43 274h-46q-52 0 -79 -19t-52 -57l-125 -198h-205zM571 416h2
l215 207l-6 -38h-366l5 38z" />
    <glyph glyph-name="uni046B" unicode="&#x46b;" horiz-adv-x="898" 
d="M-56 0l138 185q32 44 61.5 70.5t66.5 38.5t89 12h52l-40 -51l-178 253h712l-258 -253l-24 51h51q53 0 84.5 -12.5t52 -39t38.5 -69.5l79 -185h-183l-57 126q-8 18 -16.5 27.5t-20 14t-27.5 4.5h-39l-28 -172h-176l27 172h-40q-15 0 -26.5 -4.5t-22 -14t-23.5 -27.5
l-98 -126h-194zM450 269h2l175 179l-8 -48h-296l8 48z" />
    <glyph glyph-name="uni0472" unicode="&#x472;" horiz-adv-x="804" 
d="M156 292l20 132h522l-21 -132h-521zM65 371q17 110 70 187t135 117.5t186 40.5q120 0 195.5 -49.5t106.5 -136t13 -195.5q-17 -110 -70.5 -187t-135 -118t-187.5 -41q-118 0 -194 50t-106 136.5t-13 195.5zM256 361q-11 -69 1.5 -118t47 -74.5t89.5 -25.5q79 0 125 55
t60 147q12 69 -1 117.5t-47.5 74t-90.5 25.5q-79 0 -124 -54t-60 -147z" />
    <glyph glyph-name="uni0473" unicode="&#x473;" horiz-adv-x="635" 
d="M291 -11q-90 0 -150 34.5t-85 98t-12 150.5q13 82 55 137t105.5 82.5t140.5 27.5q92 0 151 -34.5t83.5 -97.5t10.5 -151q-13 -82 -54 -137t-104 -82.5t-141 -27.5zM300 121q54 0 86.5 31t44.5 96q11 70 -15 104.5t-80 34.5q-55 0 -88 -30.5t-43 -95.5q-10 -66 12.5 -103
t82.5 -37zM147 200l18 109h324l-17 -109h-325z" />
    <glyph glyph-name="uni0474" unicode="&#x474;" horiz-adv-x="823" 
d="M252 0l-200 705h192l135 -536h-55l202 333q38 61 73 102.5t74.5 66t90.5 35t119 10.5l-7 -147q-53 0 -85.5 -13.5t-59.5 -45t-63 -87.5l-267 -423h-149z" />
    <glyph glyph-name="uni0475" unicode="&#x475;" horiz-adv-x="616" 
d="M171 0l-140 508h181l77 -338h-35l114 202q34 60 69.5 92t84.5 43.5t121 11.5l-7 -140q-32 1 -55.5 -6t-42 -23.5t-36.5 -46.5l-180 -303h-151z" />
    <glyph glyph-name="uni048A" unicode="&#x48a;" horiz-adv-x="802" 
d="M482 -174l87 174h-80l23 142h282l-158 -316h-154zM25 0l112 705h171l-71 -447l-27 -4l427 451h135l-112 -705h-171l71 447l26 4l-426 -451h-135zM461 760q-63 0 -104.5 20t-64.5 54t-30 76l86 27q15 -46 43 -66t77 -20q51 0 83 22.5t49 62.5l78 -26q-12 -45 -42 -78.5
t-74.5 -52.5t-100.5 -19z" />
    <glyph glyph-name="uni048B" unicode="&#x48b;" horiz-adv-x="675" 
d="M384 -130l66 130h-71l21 130h261l-131 -260h-146zM20 0l81 508h160l-52 -328l-39 1l304 327h144l-80 -508h-160l52 328h40l-305 -328h-145zM372 553q-60 0 -99 21t-60 55t-26 73l82 27q13 -45 39 -65t71 -20q46 0 72.5 22.5t42.5 61.5l81 -26q-12 -44 -40 -77.5
t-69.5 -52.5t-93.5 -19z" />
    <glyph glyph-name="uni048C" unicode="&#x48c;" horiz-adv-x="774" 
d="M105 0l81 507h-146l21 127h144l12 71h175l-12 -71h145l-20 -127h-145l-12 -77h158q125 0 188.5 -58.5t44.5 -176.5q-16 -100 -91 -147.5t-191 -47.5h-352zM301 137h151q55 0 82.5 19t32.5 57q6 41 -14.5 60t-75.5 19h-151z" />
    <glyph glyph-name="uni048D" unicode="&#x48d;" horiz-adv-x="672" 
d="M110 0l63 396h-142l18 112h141l37 228h176l-36 -228h173l-17 -112h-174l-11 -73h120q95 0 141.5 -43.5t33.5 -126.5q-13 -81 -72.5 -117t-152.5 -36h-298zM302 100h90q35 0 56 15t26 45q5 33 -12 47.5t-51 14.5h-90z" />
    <glyph glyph-name="uni048E" unicode="&#x48e;" horiz-adv-x="684" 
d="M25 0l112 705h321q130 0 190.5 -63t41.5 -185q-10 -64 -53 -116t-113 -78l17 19l39 -72l-82 -49l-52 100l21 -13q-12 -2 -26.5 -3t-30.5 -1h-163l-39 -244h-183zM268 384h134q7 0 16.5 0.5t16.5 1.5l-45 -16l-36 69l77 46l51 -93l-26 4q26 9 41.5 28.5t20.5 47.5
q7 48 -17 70.5t-80 22.5h-124z" />
    <glyph glyph-name="uni048F" unicode="&#x48f;" horiz-adv-x="661" 
d="M-10 -216l93 586q5 34 8.5 69t4.5 69h172l-3 -90h-15q23 45 67.5 73t105.5 28q70 0 118.5 -35.5t69.5 -99.5t7 -148q-13 -81 -46.5 -132.5t-87.5 -83.5l3 21l42 -65l-68 -45l-48 76l23 -4q-18 -7 -38 -10.5t-41 -3.5q-58 0 -101 26.5t-52 70.5h12l-48 -302h-178zM358 387
q-44 0 -74.5 -30t-41.5 -95q-12 -76 11.5 -108.5t66.5 -32.5q22 0 39 8l-8 -22l-55 89l66 45l54 -85l-17 -1q15 16 25.5 36.5t15.5 54.5q12 77 -11.5 109t-70.5 32z" />
    <glyph glyph-name="uni0490" unicode="&#x490;" horiz-adv-x="592" 
d="M25 0l112 705h352l26 166h158l-50 -314h-327l-88 -557h-183z" />
    <glyph glyph-name="uni0491" unicode="&#x491;" horiz-adv-x="493" 
d="M20 0l81 508h264l17 110h150l-39 -247h-238l-58 -371h-177z" />
    <glyph glyph-name="uni0492" unicode="&#x492;" horiz-adv-x="643" 
d="M76 0l44 278h-94l19 127h95l48 300h509l-24 -148h-326l-24 -152h179l-20 -127h-179l-44 -278h-183z" />
    <glyph glyph-name="uni0493" unicode="&#x493;" horiz-adv-x="524" 
d="M51 0l26 161h-87l19 120h87l36 227h413l-22 -136h-236l-14 -91h139l-20 -120h-138l-26 -161h-177z" />
    <glyph glyph-name="uni0494" unicode="&#x494;" horiz-adv-x="752" 
d="M391 -191q-32 0 -60.5 3t-49.5 9l14 139q17 -5 38 -8t42 -3q46 0 77.5 30t39.5 84l13 78q13 84 -24.5 120.5t-113.5 36.5q-28 0 -58.5 -5t-56.5 -16l-44 -277h-183l112 705h519l-24 -148h-336l-21 -128q25 9 63 15t75 6q155 0 227.5 -75t48.5 -228l-12 -76
q-15 -93 -56 -150.5t-100.5 -84.5t-129.5 -27z" />
    <glyph glyph-name="uni0495" unicode="&#x495;" horiz-adv-x="616" 
d="M296 -188l-37 127q42 11 66 26t36 38.5t17 61.5l7 42q7 48 -6 68t-55 20q-47 0 -76 -26.5t-36 -71.5l-15 -97h-177l81 508h413l-19 -120h-237l-26 -164h-20q32 51 81 78.5t113 27.5q93 0 133 -53.5t23 -162.5l-7 -49q-10 -61 -37 -109.5t-80 -84t-142 -59.5z" />
    <glyph glyph-name="uni0496" unicode="&#x496;" horiz-adv-x="1119" 
d="M917 -174l28 174h-61l22 142h219l-49 -316h-159zM-48 0l170 258q45 69 100 106.5t131 50.5l-77 -48l-169 338h193l139 -301l-21 18h68l45 283h175l-45 -283h67l-33 -18l235 301h206l-276 -338l-68 48q69 -13 109 -50.5t64 -106.5l88 -258h-190l-62 198q-13 41 -40.5 58.5
t-74.5 17.5h-48l-44 -274h-175l43 274h-48q-46 0 -76 -17.5t-56 -58.5l-125 -198h-205z" />
    <glyph glyph-name="uni0497" unicode="&#x497;" horiz-adv-x="945" 
d="M719 -130l21 130h-41l21 130h191l-41 -260h-151zM-56 0l142 204q19 27 41.5 47.5t48 34t52.5 16.5l-36 -57l-144 263h183l97 -182h44l30 182h176l-29 -182h37l156 182h194l-225 -263l-25 57q26 -3 46 -16.5t34.5 -34t24.5 -47.5l77 -204h-183l-55 147q-6 17 -15 26.5
t-21 13.5t-28 4h-38l-31 -191h-176l31 191h-40q-15 0 -27 -4t-22.5 -13.5t-22.5 -26.5l-102 -147h-194z" />
    <glyph glyph-name="uni0498" unicode="&#x498;" horiz-adv-x="632" 
d="M175 -174l41 264h150l-42 -264h-149zM278 -11q-89 0 -155.5 20.5t-114.5 56.5l57 132q36 -28 88.5 -44t119.5 -16q68 0 105 19.5t43 57.5t-15.5 55.5t-70.5 17.5h-184l23 140h165q49 0 74.5 16t31.5 48q5 34 -20 54.5t-90 20.5q-54 0 -109 -15.5t-99 -44.5l-50 133
q54 35 129.5 55.5t159.5 20.5q100 0 160.5 -26.5t84.5 -72.5t15 -103q-9 -56 -49 -98.5t-113 -58.5l2 16q66 -12 103 -59t24 -124q-9 -58 -47 -103.5t-104.5 -71.5t-163.5 -26z" />
    <glyph glyph-name="uni0499" unicode="&#x499;" horiz-adv-x="556" 
d="M152 -130l32 203h138l-33 -203h-137zM236 -11q-70 0 -131 14t-102 43l51 111q34 -22 85.5 -34.5t104.5 -12.5q52 0 78 11t31 35q4 21 -11 31.5t-50 10.5h-146l18 117h133q31 0 48 10t20 28q4 21 -16 33.5t-76 12.5q-52 0 -97.5 -11t-83.5 -30l-36 107q47 25 113 39.5
t143 14.5q115 0 170 -39t44 -110q-7 -43 -42.5 -75t-89.5 -42l2 16q64 -6 92.5 -40.5t20.5 -88.5q-11 -68 -81 -109.5t-192 -41.5z" />
    <glyph glyph-name="uni049A" unicode="&#x49a;" horiz-adv-x="778" 
d="M554 -174l27 174h-61l22 142h220l-50 -316h-158zM25 0l112 705h183l-46 -283h92l-34 -18l235 301h207l-277 -338l-68 48q71 -13 111 -50.5t63 -106.5l88 -258h-191l-61 198q-13 41 -41 58.5t-75 17.5h-72l-43 -274h-183z" />
    <glyph glyph-name="uni049B" unicode="&#x49b;" horiz-adv-x="664" 
d="M430 -130l21 130h-41l21 130h191l-41 -260h-151zM20 0l81 508h176l-29 -182h49l156 182h194l-224 -263l-26 57q27 -3 46.5 -16.5t34 -34t24.5 -47.5l77 -204h-183l-55 147q-6 17 -15 26.5t-20.5 13.5t-27.5 4h-51l-30 -191h-177z" />
    <glyph glyph-name="uni049C" unicode="&#x49c;" horiz-adv-x="809" 
d="M25 0l112 705h183l-45 -283h49l25 160h99l-25 -160h1l222 283h207l-277 -338l-69 48q72 -13 112 -50.5t63 -106.5l88 -258h-190l-62 198q-13 41 -40.5 60t-74.5 19h-22l21 12l-26 -167h-99l24 155h-49l-44 -277h-183z" />
    <glyph glyph-name="uni049D" unicode="&#x49d;" horiz-adv-x="714" 
d="M20 0l81 508h176l-29 -182h46l17 109h100l-17 -109h9l155 182h195l-224 -263l-27 57q26 -3 46 -16.5t34.5 -34t24.5 -47.5l77 -204h-182l-56 147q-6 17 -15 26.5t-20.5 13.5t-27.5 4h-19l11 16l-21 -137h-100l19 121h-46l-30 -191h-177z" />
    <glyph glyph-name="uni049E" unicode="&#x49e;" horiz-adv-x="809" 
d="M95 0l81 514h-145l19 119h145l12 72h182l-11 -72h114l-20 -119h-113l-15 -92h123l-49 -37l258 320h206l-299 -356l-42 53q40 -11 73.5 -43t57.5 -101l88 -258h-191l-62 198q-12 41 -40 58.5t-75 17.5h-71l-44 -274h-182z" />
    <glyph glyph-name="uni049F" unicode="&#x49f;" horiz-adv-x="612" 
d="M24 0l88 552h-86l19 122h86l10 62h178l-10 -62h189l-19 -122h-189l-37 -232h52l144 164h194l-221 -252l-16 56q26 -3 43 -14.5t30 -31.5t24 -49l79 -193h-182l-56 142q-7 17 -16 26.5t-20.5 13.5t-27.5 4h-49l-29 -186h-178z" />
    <glyph glyph-name="uni04A0" unicode="&#x4a0;" horiz-adv-x="876" 
d="M60 557l24 148h384l-24 -148h-384zM174 0l112 705h183l-46 -283h92l-34 -18l235 301h207l-277 -338l-68 48q71 -13 111 -50.5t63 -106.5l88 -258h-191l-61 198q-13 41 -41 58.5t-75 17.5h-72l-43 -274h-183z" />
    <glyph glyph-name="uni04A1" unicode="&#x4a1;" horiz-adv-x="698" 
d="M109 0l59 371h-141l23 137h316l-29 -182h50l155 182h195l-224 -263l-27 57q27 -3 46.5 -16.5t34 -34t24.5 -47.5l77 -204h-183l-55 147q-6 17 -15 26.5t-21 13.5t-28 4h-49l-31 -191h-177z" />
    <glyph glyph-name="uni04A2" unicode="&#x4a2;" horiz-adv-x="837" 
d="M609 -174l27 174h-116l22 142h274l-50 -316h-157zM25 0l112 705h185l-44 -272h284l44 272h185l-112 -705h-185l45 282h-284l-45 -282h-185z" />
    <glyph glyph-name="uni04A3" unicode="&#x4a3;" horiz-adv-x="643" 
d="M458 -130l21 130h-101l20 130h250l-41 -260h-149zM20 0l81 508h176l-29 -182h169l29 182h177l-81 -508h-176l31 191h-170l-30 -191h-177z" />
    <glyph glyph-name="uni04A4" unicode="&#x4a4;" horiz-adv-x="960" 
d="M25 0l112 705h183l-44 -273h285l44 273h414l-24 -148h-232l-88 -557h-182l45 283h-285l-45 -283h-183z" />
    <glyph glyph-name="uni04A5" unicode="&#x4a5;" horiz-adv-x="798" 
d="M20 0l81 508h176l-29 -182h168l29 182h375l-23 -137h-198l-58 -371h-176l30 191h-168l-30 -191h-177z" />
    <glyph glyph-name="uni04A8" unicode="&#x4a8;" horiz-adv-x="903" 
d="M386 -11q-122 0 -199.5 48t-108.5 134.5t-13 201.5q18 116 74 192t141 113.5t190 37.5q24 0 40.5 -1.5t30.5 -4.5l-25 -139q-13 2 -24 2.5t-23 0.5q-89 0 -145 -56t-73 -157q-17 -110 21.5 -175.5t138.5 -65.5q77 0 127.5 19.5t79.5 62t40 110.5q7 47 -6.5 73t-44.5 26
q-30 0 -51 -26t-29 -74q-10 -65 5 -107.5t59 -63t121 -20.5q37 0 75 8.5t78 24.5l30 -122q-38 -21 -88 -31.5t-108 -10.5q-79 0 -144.5 26t-111.5 72.5t-66.5 108t-8.5 133.5q11 67 45.5 115.5t86.5 74t116 25.5q73 0 123 -28.5t71.5 -81t9.5 -124.5q-11 -66 -50.5 -124
t-99.5 -102.5t-132.5 -69.5t-151.5 -25z" />
    <glyph glyph-name="uni04A9" unicode="&#x4a9;" horiz-adv-x="781" 
d="M324 -11q-106 0 -172.5 36.5t-93 101t-13.5 148.5q13 82 55.5 136t107 81t139.5 27q23 0 43 -2t36 -8l-25 -118q-8 3 -19.5 4t-22.5 1q-58 0 -97.5 -36.5t-49.5 -102.5q-12 -74 24.5 -113.5t116.5 -39.5q92 0 137.5 27t54.5 86q6 33 -6 50.5t-38 17.5q-24 0 -39.5 -17
t-20.5 -46q-8 -60 25.5 -89t129.5 -29q38 0 78 8.5t72 24.5l14 -119q-36 -14 -73.5 -21.5t-80.5 -7.5q-70 0 -128 19t-98.5 54t-59 81t-9.5 101q7 42 33 76.5t69 54.5t98 20q56 0 97 -21t60 -61t10 -96q-7 -46 -39 -87t-81.5 -73t-110 -50t-123.5 -18z" />
    <glyph glyph-name="uni04AA" unicode="&#x4aa;" horiz-adv-x="685" 
d="M275 -174l41 264h150l-42 -264h-149zM395 -11q-125 0 -204.5 50t-111 136.5t-14.5 195.5q17 110 72.5 187.5t143 118t199.5 39.5q69 0 124.5 -18t92.5 -47l-61 -146q-40 28 -77 39.5t-86 11.5q-86 0 -143.5 -49.5t-72.5 -142.5q-10 -66 5 -114.5t54.5 -74.5t103.5 -26
q44 0 87.5 13.5t90.5 46.5l48 -145q-52 -36 -116.5 -55.5t-134.5 -19.5z" />
    <glyph glyph-name="uni04AB" unicode="&#x4ab;" horiz-adv-x="532" 
d="M179 -130l33 203h137l-32 -203h-138zM297 -11q-92 0 -153 36.5t-87 100.5t-13 146q20 123 103 185t206 62q46 0 92.5 -12.5t74.5 -36.5l-53 -120q-20 17 -50.5 26t-58.5 9q-50 0 -86.5 -29t-46.5 -93q-10 -60 16.5 -99.5t86.5 -39.5q25 0 55.5 10t57.5 28l45 -119
q-29 -24 -80.5 -39t-108.5 -15z" />
    <glyph glyph-name="uni04AC" unicode="&#x4ac;" horiz-adv-x="638" 
d="M286 -175l28 175h-128l88 556h-214l24 149h613l-24 -149h-214l-66 -413h101l-50 -318h-158z" />
    <glyph glyph-name="uni04AD" unicode="&#x4ad;" horiz-adv-x="519" 
d="M222 -130l21 130h-102l21 130h250l-42 -260h-148zM131 0l58 371h-162l23 137h501l-23 -137h-162l-59 -371h-176z" />
    <glyph glyph-name="uni04AE" unicode="&#x4ae;" horiz-adv-x="656" 
d="M196 0l54 337l19 -102l-239 470h205l134 -283h-36l225 283h212l-390 -478l54 110l-53 -337h-185z" />
    <glyph glyph-name="uni04AF" unicode="&#x4af;" horiz-adv-x="573" 
d="M123 -216l38 243l-132 481h181l77 -338h-35l191 338h180l-284 -474l-40 -250h-176z" />
    <glyph glyph-name="uni04B0" unicode="&#x4b0;" horiz-adv-x="656" 
d="M196 0l54 337l19 -102l-239 470h205l134 -283h-36l225 283h212l-390 -478l54 110l-53 -337h-185zM74 251l14 98h509l-15 -98h-508z" />
    <glyph glyph-name="uni04B1" unicode="&#x4b1;" horiz-adv-x="573" 
d="M124 -209l23 147h-135l19 121h136l-5 -33l-133 482h179l79 -340h-35l191 340h180l-286 -476l4 27h135l-19 -121h-134l-23 -147h-176z" />
    <glyph glyph-name="uni04B2" unicode="&#x4b2;" horiz-adv-x="741" 
d="M536 -174l27 174h-61l23 142h219l-50 -316h-158zM-72 0l363 397l-6 -83l-232 391h209l140 -257h-59l224 257h223l-357 -391l6 83l239 -397h-210l-147 263h59l-230 -263h-222z" />
    <glyph glyph-name="uni04B3" unicode="&#x4b3;" horiz-adv-x="646" 
d="M450 -130l21 130h-41l21 130h192l-42 -260h-151zM-71 0l294 300l-4 -77l-187 285h200l99 -165h-63l152 165h216l-278 -286l7 80l199 -302h-206l-111 179h66l-168 -179h-216z" />
    <glyph glyph-name="uni04B4" unicode="&#x4b4;" horiz-adv-x="990" 
d="M742 -175l29 175h-596l87 557h-202l24 148h556l-25 -148h-170l-64 -409h284l89 557h183l-89 -557h104l-51 -323h-159z" />
    <glyph glyph-name="uni04B5" unicode="&#x4b5;" horiz-adv-x="794" 
d="M571 -130l21 130h-483l59 371h-141l23 137h431l-22 -137h-115l-37 -237h193l60 374h176l-59 -374h84l-41 -264h-149z" />
    <glyph glyph-name="uni04B6" unicode="&#x4b6;" horiz-adv-x="790" 
d="M547 -174l27 174h-117l23 142h274l-50 -316h-157zM448 0l40 249q-26 -9 -64.5 -15t-75.5 -6q-90 0 -153.5 33t-91.5 100.5t-13 169.5l29 174h183l-28 -168q-13 -85 18 -121t110 -36q27 0 54 5t56 15l48 305h183l-112 -705h-183z" />
    <glyph glyph-name="uni04B7" unicode="&#x4b7;" horiz-adv-x="610" 
d="M426 -130l21 130h-101l20 130h250l-41 -260h-149zM337 0l25 160q-26 -9 -53 -13t-52 -4q-69 0 -118 25t-70.5 75t-10.5 124l23 141h177l-20 -125q-8 -53 9 -76.5t68 -23.5q18 0 35 3.5t30 9.5l34 212h176l-81 -508h-172z" />
    <glyph glyph-name="uni04B8" unicode="&#x4b8;" horiz-adv-x="736" 
d="M448 0l40 249q-23 -8 -52 -13.5t-53 -6.5l29 22l-23 -151h-100l24 151l13 -23q-80 4 -139 37t-85.5 99t-11.5 167l29 174h183l-28 -168q-11 -70 10.5 -109.5t79.5 -45.5l-32 -12l26 166h100l-26 -166l-33 10q26 0 58.5 5.5t54.5 14.5l48 305h183l-112 -705h-183z" />
    <glyph glyph-name="uni04B9" unicode="&#x4b9;" horiz-adv-x="664" 
d="M387 0l26 164q-21 -7 -43 -11t-42 -5l37 26l-18 -116h-100l18 116l24 -28q-125 0 -186 56.5t-45 164.5l23 141h177l-20 -128q-8 -52 12.5 -73.5t65.5 -25.5l-36 -18l21 137h100l-21 -137l-25 17q18 0 39 3t40 10l34 215h176l-81 -508h-176z" />
    <glyph glyph-name="uni04BA" unicode="&#x4ba;" horiz-adv-x="736" 
d="M25 0l112 705h183l-39 -248q26 9 64 15t75 6q94 0 157.5 -33.5t90.5 -100.5t10 -170l-28 -174h-183l27 168q13 84 -17.5 120.5t-103.5 36.5q-26 0 -57 -4t-60 -16l-48 -305h-183z" />
    <glyph glyph-name="uni04BB" unicode="&#x4bb;" horiz-adv-x="641" 
d="M24 0l117 736h178l-50 -317h-16q30 50 78 75t106 25q90 0 129 -55t21 -169l-47 -295h-178l47 296q7 47 -8 67t-48 20q-43 0 -70.5 -27t-34.5 -71l-46 -285h-178z" />
    <glyph glyph-name="uni04BC" unicode="&#x4bc;" horiz-adv-x="991" 
d="M611 -11q-94 0 -161 28t-109 76t-60.5 108.5t-13.5 125.5l24 -43h-62q-111 0 -155.5 54.5t-29.5 153.5l9 52h178l-9 -50q-5 -40 6 -56.5t45 -16.5h32l-32 -44q17 105 70.5 181t135 117t181.5 41q116 0 188.5 -48t100 -134.5t8.5 -202.5l-8 -48h-547l51 67
q-9 -56 5 -103.5t56 -75.5t116 -28q58 0 108.5 15t97.5 46l48 -139q-40 -23 -79.5 -40.5t-86 -26.5t-107.5 -9zM650 570q-72 0 -123.5 -47.5t-69.5 -150.5l-33 50h409l-53 -70q18 111 -11.5 164.5t-118.5 53.5z" />
    <glyph glyph-name="uni04BD" unicode="&#x4bd;" horiz-adv-x="710" 
d="M451 -11q-97 0 -158.5 35.5t-88 94.5t-19.5 129l4 -28h-26q-88 0 -117.5 36.5t-18.5 109.5l5 33h135l-5 -33q-6 -33 3.5 -47.5t36.5 -14.5h19l-34 -29q13 76 50.5 130.5t96.5 84t133 29.5q78 0 128 -33.5t71.5 -92t8.5 -134.5l-5 -35h-340l22 27q-10 -61 19 -95.5
t105 -34.5q34 0 66 9t66 29l44 -116q-42 -28 -93.5 -41t-107.5 -13zM462 402q-44 0 -69.5 -30.5t-33.5 -75.5l-17 12h209l-19 -18q9 57 -10 84.5t-60 27.5z" />
    <glyph glyph-name="uni04BE" unicode="&#x4be;" horiz-adv-x="991" 
d="M611 -11q-94 0 -161 28t-109 76t-60.5 108.5t-13.5 125.5l24 -43h-62q-111 0 -155.5 54.5t-29.5 153.5l9 52h178l-9 -50q-5 -40 6 -56.5t45 -16.5h32l-32 -44q17 105 70.5 181t135 117t181.5 41q116 0 188.5 -48t100 -134.5t8.5 -202.5l-8 -48h-547l51 67
q-9 -56 5 -103.5t56 -75.5t116 -28q58 0 108.5 15t97.5 46l48 -139q-40 -23 -79.5 -40.5t-86 -26.5t-107.5 -9zM650 570q-72 0 -123.5 -47.5t-69.5 -150.5l-33 50h409l-53 -70q18 111 -11.5 164.5t-118.5 53.5zM646 -198q-57 0 -87 26.5t-30 72.5q0 50 34 89.5t86 57.5
l43 -48q-32 -12 -45.5 -31.5t-13.5 -38.5q0 -18 14 -29.5t35 -11.5q14 0 26.5 3t27.5 7l12 -81q-32 -8 -54 -12t-48 -4z" />
    <glyph glyph-name="uni04BF" unicode="&#x4bf;" horiz-adv-x="710" 
d="M451 -11q-97 0 -158.5 35.5t-88 94.5t-19.5 129l4 -28h-26q-88 0 -117.5 36.5t-18.5 109.5l5 33h135l-5 -33q-6 -33 3.5 -47.5t36.5 -14.5h19l-34 -29q13 76 50.5 130.5t96.5 84t133 29.5q78 0 128 -33.5t71.5 -92t8.5 -134.5l-5 -35h-340l22 27q-10 -61 19 -95.5
t105 -34.5q34 0 66 9t66 29l44 -116q-42 -28 -93.5 -41t-107.5 -13zM462 402q-44 0 -69.5 -30.5t-33.5 -75.5l-17 12h209l-19 -18q9 57 -10 84.5t-60 27.5zM472 -198q-57 0 -87 26.5t-30 72.5q0 50 34 89.5t86 57.5l43 -48q-32 -12 -45.5 -31.5t-13.5 -38.5q0 -18 14 -29.5
t35 -11.5q14 0 26.5 3t27.5 7l12 -81q-32 -8 -54 -12t-48 -4z" />
    <glyph glyph-name="uni04C0" unicode="&#x4c0;" horiz-adv-x="315" 
d="M25 0l112 705h185l-112 -705h-185z" />
    <glyph glyph-name="uni04C1" unicode="&#x4c1;" horiz-adv-x="1092" 
d="M-48 0l170 258q45 69 100 106.5t131 50.5l-77 -48l-169 338h193l139 -301l-21 18h68l45 283h175l-45 -283h67l-33 -18l235 301h206l-276 -338l-68 48q69 -13 109 -50.5t64 -106.5l88 -258h-190l-62 198q-13 41 -40.5 58.5t-74.5 17.5h-48l-44 -274h-175l43 274h-48
q-46 0 -76 -17.5t-56 -58.5l-125 -198h-205zM624 760q-63 0 -104.5 20t-64.5 54t-30 76l86 27q15 -46 43 -66t77 -20q51 0 82.5 22.5t49.5 62.5l78 -26q-13 -45 -43 -78.5t-74 -52.5t-100 -19z" />
    <glyph glyph-name="uni04C2" unicode="&#x4c2;" horiz-adv-x="890" 
d="M-56 0l142 204q19 27 41.5 47.5t48 34t52.5 16.5l-36 -57l-144 263h183l97 -182h44l30 182h176l-29 -182h37l156 182h194l-225 -263l-25 57q26 -3 46 -16.5t34.5 -34t24.5 -47.5l77 -204h-183l-55 147q-6 17 -15 26.5t-21 13.5t-28 4h-38l-31 -191h-176l31 191h-40
q-15 0 -27 -4t-22.5 -13.5t-22.5 -26.5l-102 -147h-194zM501 553q-59 0 -98.5 21t-60.5 55t-26 73l83 27q12 -45 38.5 -65t71.5 -20t71.5 22.5t43.5 61.5l80 -26q-12 -44 -40 -77.5t-69 -52.5t-94 -19z" />
    <glyph glyph-name="uni04C3" unicode="&#x4c3;" horiz-adv-x="752" 
d="M391 -191q-32 0 -60.5 3t-49.5 9l14 140q17 -5 38 -8.5t42 -3.5q46 0 78.5 30t40.5 83l8 60q12 85 -25 123.5t-115 38.5h-109l-45 -284h-183l112 705h183l-44 -273h114l-46 -28l236 301h206l-277 -338l-24 58q113 -16 168 -88.5t33 -208.5l-9 -58q-15 -92 -56 -149.5
t-100.5 -84.5t-129.5 -27z" />
    <glyph glyph-name="uni04C4" unicode="&#x4c4;" horiz-adv-x="616" 
d="M292 -188l-36 127q42 11 65.5 25.5t35 38.5t17.5 61l4 23q9 55 -14 79.5t-73 24.5h-64l-30 -191h-177l81 508h176l-29 -182h49l156 182h193l-223 -263l-72 74q77 0 126.5 -28t70 -78.5t8.5 -117.5l-5 -30q-10 -61 -37 -109.5t-80 -84t-142 -59.5z" />
    <glyph glyph-name="uni04C5" unicode="&#x4c5;" horiz-adv-x="821" 
d="M499 -174l87 174h-80l23 142h282l-158 -316h-154zM68 -19l-89 130q50 24 87 53t63 69t45 95.5t30 133.5l39 243h548l-112 -705h-183l88 557h-197l-21 -133q-14 -93 -41.5 -164.5t-65.5 -124t-86.5 -90t-104.5 -64.5z" />
    <glyph glyph-name="uni04C6" unicode="&#x4c6;" horiz-adv-x="672" 
d="M376 -130l65 130h-70l20 130h261l-131 -260h-145zM29 -17l-36 140q31 7 55 21.5t40.5 38t28 57.5t18.5 79l31 189h450l-81 -508h-176l59 374h-114l-12 -77q-12 -71 -33.5 -126t-54.5 -94t-76.5 -62t-98.5 -32z" />
    <glyph glyph-name="uni04C7" unicode="&#x4c7;" horiz-adv-x="784" 
d="M415 -187q-18 0 -44.5 2t-53.5 8l23 141q19 -4 37.5 -5.5t29.5 -1.5q45 0 67 25t30 80l35 220h-284l-45 -282h-185l112 705h185l-44 -273h284l44 273h185l-103 -642q-12 -85 -44 -140.5t-88 -82.5t-141 -27z" />
    <glyph glyph-name="uni04C8" unicode="&#x4c8;" horiz-adv-x="643" 
d="M234 -193l8 125l52 5q33 3 50 19t22 47l31 188h-170l-30 -191h-177l81 508h176l-29 -182h169l30 182h176l-76 -480q-12 -74 -41 -120t-83 -69t-142 -29z" />
    <glyph glyph-name="uni04C9" unicode="&#x4c9;" horiz-adv-x="821" 
d="M513 -174l87 174h-80l22 142h283l-159 -316h-153zM25 0l112 705h185l-44 -272h284l44 272h185l-112 -705h-185l45 282h-284l-45 -282h-185z" />
    <glyph glyph-name="uni04CA" unicode="&#x4ca;" horiz-adv-x="676" 
d="M383 -130l65 130h-70l20 130h261l-131 -260h-145zM20 0l81 508h176l-29 -182h169l29 182h177l-81 -508h-176l31 191h-170l-30 -191h-177z" />
    <glyph glyph-name="uni04CB" unicode="&#x4cb;" horiz-adv-x="736" 
d="M484 -174h-160l50 316h217l-23 -142h-57zM448 0l40 249q-26 -9 -64.5 -15t-75.5 -6q-90 0 -153.5 33t-91.5 100.5t-13 169.5l29 174h183l-28 -168q-13 -85 18 -121t110 -36q27 0 54 5t56 15l48 305h183l-112 -705h-183z" />
    <glyph glyph-name="uni04CC" unicode="&#x4cc;" horiz-adv-x="648" 
d="M382 -130h-149l35 222h241l-15 -92h-91zM337 0l25 160q-26 -9 -53 -13t-52 -4q-69 0 -118 25t-70.5 75t-10.5 124l23 141h177l-20 -125q-8 -53 9 -76.5t68 -23.5q18 0 35 3.5t30 9.5l34 212h176l-81 -508h-172z" />
    <glyph glyph-name="uni04CD" unicode="&#x4cd;" horiz-adv-x="921" 
d="M629 -174l87 174h-80l22 142h283l-159 -316h-153zM28 0l112 705h160l149 -517h-33l312 517h161l-112 -705h-167l68 432h44l-269 -432h-103l-133 432h46l-69 -432h-166z" />
    <glyph glyph-name="uni04CE" unicode="&#x4ce;" horiz-adv-x="765" 
d="M478 -130l65 130h-70l20 130h261l-131 -260h-145zM20 0l81 508h147l115 -260l198 260h148l-81 -508h-156l49 308h29l-170 -225h-79l-98 225h22l-49 -308h-156z" />
    <glyph glyph-name="uni04CF" unicode="&#x4cf;" horiz-adv-x="306" 
d="M24 0l117 736h178l-117 -736h-178z" />
    <glyph glyph-name="uni04D0" unicode="&#x4d0;" horiz-adv-x="769" 
d="M-62 0l442 705h150l220 -705h-179l-54 194l63 -51h-414l78 51l-115 -194h-191zM430 515l-161 -279l-21 47h294l-33 -47l-74 279h-5zM467 760q-63 0 -104.5 20t-64.5 54t-30 76l86 27q15 -46 43 -66t77 -20q51 0 82.5 22.5t49.5 62.5l78 -26q-13 -45 -43 -78.5t-74 -52.5
t-100 -19z" />
    <glyph glyph-name="uni04D1" unicode="&#x4d1;" horiz-adv-x="661" 
d="M239 -11q-69 0 -118 36t-69.5 100t-7.5 147q20 124 91.5 185.5t169.5 61.5q59 0 102 -26.5t51 -70.5l-9 -4l26 90h171q-9 -34 -16.5 -69t-13.5 -69l-59 -370h-176l14 91h17q-22 -46 -66.5 -74t-106.5 -28zM304 121q44 0 75 30.5t41 94.5q12 77 -11.5 109t-70.5 32
q-44 0 -74.5 -30t-41.5 -95q-12 -76 11.5 -108.5t70.5 -32.5zM377 553q-59 0 -98.5 21t-60.5 55t-26 73l83 27q12 -45 38.5 -65t71.5 -20t71.5 22.5t43.5 61.5l80 -26q-12 -44 -40 -77.5t-69 -52.5t-94 -19z" />
    <glyph glyph-name="uni04D2" unicode="&#x4d2;" horiz-adv-x="769" 
d="M-62 0l442 705h150l220 -705h-179l-54 194l63 -51h-414l78 51l-115 -194h-191zM430 515l-161 -279l-21 47h294l-33 -47l-74 279h-5zM500 771l24 149h148l-24 -149h-148zM293 771l24 149h149l-24 -149h-149z" />
    <glyph glyph-name="uni04D3" unicode="&#x4d3;" horiz-adv-x="661" 
d="M239 -11q-69 0 -118 36t-69.5 100t-7.5 147q20 124 91.5 185.5t169.5 61.5q59 0 102 -26.5t51 -70.5l-9 -4l26 90h171q-9 -34 -16.5 -69t-13.5 -69l-59 -370h-176l14 91h17q-22 -46 -66.5 -74t-106.5 -28zM304 121q44 0 75 30.5t41 94.5q12 77 -11.5 109t-70.5 32
q-44 0 -74.5 -30t-41.5 -95q-12 -76 11.5 -108.5t70.5 -32.5zM407 582l23 150h149l-23 -150h-149zM201 582l23 150h148l-22 -150h-149z" />
    <glyph glyph-name="uni04D4" unicode="&#x4d4;" horiz-adv-x="1030" 
d="M-82 0l558 705h593l-22 -141h-351l29 19l-18 -205l-10 51h306l-22 -142h-308l27 10l-16 -189l-16 34h312l-23 -142h-446l16 191l24 -48h-351l63 47l-143 -190h-202zM545 563l-245 -323l-7 44h260l-22 -51l28 330h-14z" />
    <glyph glyph-name="uni04D5" unicode="&#x4d5;" horiz-adv-x="878" 
d="M216 -11q-75 0 -119.5 27.5t-62 70.5t-10.5 87q8 46 40.5 75.5t96 44t162.5 14.5h50l-12 -84h-61q-39 0 -65.5 -6.5t-40.5 -19t-17 -32.5q-5 -25 10.5 -42.5t52.5 -17.5q42 0 69.5 25t34.5 68l16 105q7 43 -15.5 63.5t-65.5 20.5q-42 0 -79.5 -9t-82.5 -30l-42 119
q30 15 68.5 26.5t79.5 18t77 6.5q81 0 125.5 -20.5t62.5 -63.5h-46q41 46 88.5 65t102.5 19q78 0 128 -33.5t71 -92t9 -134.5l-6 -35h-335l13 84h204l-20 -18q9 57 -9.5 84.5t-59.5 27.5q-29 0 -50.5 -14t-34 -38.5t-17.5 -55.5l-7 -44q-9 -62 20 -95.5t104 -33.5
q33 0 64.5 9t66.5 29l44 -116q-42 -28 -93.5 -41t-107.5 -13q-87 0 -146 32t-88 91h34q-29 -58 -80 -90.5t-121 -32.5z" />
    <glyph glyph-name="uni04D6" unicode="&#x4d6;" horiz-adv-x="603" 
d="M25 0l112 705h506l-23 -141h-329l-21 -135h305l-22 -142h-306l-23 -145h329l-22 -142h-506zM420 760q-63 0 -104.5 20t-64.5 54t-30 76l86 27q15 -46 43 -66t77 -20q51 0 82.5 22.5t49.5 62.5l78 -26q-13 -45 -43 -78.5t-74 -52.5t-100 -19z" />
    <glyph glyph-name="uni04D7" unicode="&#x4d7;" horiz-adv-x="570" 
d="M308 -11q-97 0 -160 36.5t-89.5 101t-13.5 148.5q12 75 49.5 129.5t96 84.5t133.5 30q78 0 128.5 -33.5t71.5 -92t8 -134.5l-5 -35h-341l13 84h210l-20 -18q9 57 -10 84.5t-60 27.5q-30 0 -51 -14t-34 -38.5t-18 -55.5l-7 -44q-8 -62 20.5 -95.5t104.5 -33.5q34 0 65.5 9
t65.5 29l45 -116q-43 -28 -94 -41t-108 -13zM351 553q-59 0 -98.5 21t-60.5 55t-26 73l83 27q12 -45 38.5 -65t71.5 -20t71.5 22.5t43.5 61.5l80 -26q-12 -44 -40 -77.5t-69 -52.5t-94 -19z" />
    <glyph glyph-name="uni04D8" unicode="&#x4d8;" horiz-adv-x="785" 
d="M373 -11q-121 0 -194.5 49.5t-101.5 134.5t-13 193l9 56h547l-22 -139h-409l57 70q-11 -74 -1.5 -122t42.5 -71.5t91 -23.5q77 0 124 48.5t63 152.5q17 109 -21 167t-147 58q-57 0 -111 -13.5t-109 -45.5l-50 139q61 36 135 55t163 19q125 0 203.5 -49t109.5 -135
t14 -197q-17 -108 -70.5 -186t-133 -119t-175.5 -41z" />
    <glyph glyph-name="uni04D9" unicode="&#x4d9;" horiz-adv-x="570" 
d="M257 -11q-83 0 -136 34t-73.5 92.5t-8.5 133.5l5 35h341l-12 -84h-210l20 18q-11 -57 8.5 -84.5t61.5 -27.5q29 0 50 14.5t34.5 39t17.5 54.5l7 45q9 61 -20 94.5t-105 33.5q-33 0 -65 -8t-66 -27l-42 116q46 26 98 38.5t112 12.5q92 0 153 -36.5t87.5 -101t12.5 -148.5
q-12 -73 -48 -128t-92 -85.5t-130 -30.5z" />
    <glyph glyph-name="uni04DA" unicode="&#x4da;" horiz-adv-x="785" 
d="M373 -11q-121 0 -194.5 49.5t-101.5 134.5t-13 193l9 56h547l-22 -139h-409l57 70q-11 -74 -1.5 -122t42.5 -71.5t91 -23.5q77 0 124 48.5t63 152.5q17 109 -21 167t-147 58q-57 0 -111 -13.5t-109 -45.5l-50 139q61 36 135 55t163 19q125 0 203.5 -49t109.5 -135
t14 -197q-17 -108 -70.5 -186t-133 -119t-175.5 -41zM507 771l24 149h148l-24 -149h-148zM300 771l24 149h149l-24 -149h-149z" />
    <glyph glyph-name="uni04DB" unicode="&#x4db;" horiz-adv-x="570" 
d="M257 -11q-83 0 -136 34t-73.5 92.5t-8.5 133.5l5 35h341l-12 -84h-210l20 18q-11 -57 8.5 -84.5t61.5 -27.5q29 0 50 14.5t34.5 39t17.5 54.5l7 45q9 61 -20 94.5t-105 33.5q-33 0 -65 -8t-66 -27l-42 116q46 26 98 38.5t112 12.5q92 0 153 -36.5t87.5 -101t12.5 -148.5
q-12 -73 -48 -128t-92 -85.5t-130 -30.5zM366 582l23 150h149l-23 -150h-149zM160 582l23 150h148l-22 -150h-149z" />
    <glyph glyph-name="uni04DC" unicode="&#x4dc;" horiz-adv-x="1092" 
d="M-48 0l170 258q45 69 100 106.5t131 50.5l-77 -48l-169 338h193l139 -301l-21 18h68l45 283h175l-45 -283h67l-33 -18l235 301h206l-276 -338l-68 48q69 -13 109 -50.5t64 -106.5l88 -258h-190l-62 198q-13 41 -40.5 58.5t-74.5 17.5h-48l-44 -274h-175l43 274h-48
q-46 0 -76 -17.5t-56 -58.5l-125 -198h-205zM657 771l24 149h148l-24 -149h-148zM450 771l24 149h149l-24 -149h-149z" />
    <glyph glyph-name="uni04DD" unicode="&#x4dd;" horiz-adv-x="890" 
d="M-56 0l142 204q19 27 41.5 47.5t48 34t52.5 16.5l-36 -57l-144 263h183l97 -182h44l30 182h176l-29 -182h37l156 182h194l-225 -263l-25 57q26 -3 46 -16.5t34.5 -34t24.5 -47.5l77 -204h-183l-55 147q-6 17 -15 26.5t-21 13.5t-28 4h-38l-31 -191h-176l31 191h-40
q-15 0 -27 -4t-22.5 -13.5t-22.5 -26.5l-102 -147h-194zM531 582l23 150h149l-23 -150h-149zM325 582l23 150h148l-22 -150h-149z" />
    <glyph glyph-name="uni04DE" unicode="&#x4de;" horiz-adv-x="632" 
d="M278 -11q-89 0 -155.5 20.5t-114.5 56.5l57 132q36 -28 88.5 -44t119.5 -16q68 0 105 19.5t43 57.5t-15.5 55.5t-70.5 17.5h-184l23 140h165q49 0 74.5 16t31.5 48q5 34 -20 54.5t-90 20.5q-54 0 -109 -15.5t-99 -44.5l-50 133q54 35 129.5 55.5t159.5 20.5
q100 0 160.5 -26.5t84.5 -72.5t15 -103q-9 -56 -49 -98.5t-113 -58.5l2 16q66 -12 103 -59t24 -124q-9 -58 -47 -103.5t-104.5 -71.5t-163.5 -26zM420 771l24 149h148l-24 -149h-148zM213 771l24 149h149l-24 -149h-149z" />
    <glyph glyph-name="uni04DF" unicode="&#x4df;" horiz-adv-x="556" 
d="M236 -11q-70 0 -131 14t-102 43l51 111q34 -22 85.5 -34.5t104.5 -12.5q52 0 78 11t31 35q4 21 -11 31.5t-50 10.5h-146l18 117h133q31 0 48 10t20 28q4 21 -16 33.5t-76 12.5q-52 0 -97.5 -11t-83.5 -30l-36 107q47 25 113 39.5t143 14.5q115 0 170 -39t44 -110
q-7 -43 -42.5 -75t-89.5 -42l2 16q64 -6 92.5 -40.5t20.5 -88.5q-11 -68 -81 -109.5t-192 -41.5zM354 590l23 150h149l-23 -150h-149zM148 590l23 150h148l-22 -150h-149z" />
    <glyph glyph-name="uni04E0" unicode="&#x4e0;" horiz-adv-x="632" 
d="M279 -11q-89 0 -156 20.5t-115 56.5l57 133q36 -29 88.5 -45t116.5 -16q72 0 109 19.5t42 57.5q6 38 -15.5 55.5t-70.5 17.5h-158l16 107l251 201l-6 -39h-353l24 148h533l-21 -126l-251 -202l-38 44h58q116 0 169 -58t36 -164q-10 -62 -49.5 -109.5t-106.5 -74
t-160 -26.5z" />
    <glyph glyph-name="uni04E1" unicode="&#x4e1;" horiz-adv-x="553" 
d="M190 -191q-75 0 -134 15t-99 45l49 121q32 -23 75.5 -35.5t98.5 -12.5q60 0 95.5 22t41.5 63q8 48 -16.5 70.5t-87.5 22.5h-110l13 82l245 212v-36h-314l21 130h467l-19 -116l-221 -190l-60 32h56q74 0 121.5 -27t68 -72t11.5 -102q-12 -77 -53.5 -127t-105.5 -73.5
t-143 -23.5z" />
    <glyph glyph-name="uni04E2" unicode="&#x4e2;" horiz-adv-x="765" 
d="M25 0l112 705h171l-71 -447l-27 -4l427 451h135l-112 -705h-171l71 447l26 4l-426 -451h-135zM285 796l15 97h368l-15 -97h-368z" />
    <glyph glyph-name="uni04E3" unicode="&#x4e3;" horiz-adv-x="638" 
d="M20 0l81 508h160l-52 -328l-39 1l304 327h144l-80 -508h-160l52 328h40l-305 -328h-145zM207 605l15 97h338l-15 -97h-338z" />
    <glyph glyph-name="uni04E4" unicode="&#x4e4;" horiz-adv-x="765" 
d="M25 0l112 705h171l-71 -447l-27 -4l427 451h135l-112 -705h-171l71 447l26 4l-426 -451h-135zM494 771l24 149h148l-24 -149h-148zM287 771l24 149h149l-24 -149h-149z" />
    <glyph glyph-name="uni04E5" unicode="&#x4e5;" horiz-adv-x="638" 
d="M20 0l81 508h160l-52 -328l-39 1l304 327h144l-80 -508h-160l52 328h40l-305 -328h-145zM401 582l23 150h149l-23 -150h-149zM195 582l23 150h148l-22 -150h-149z" />
    <glyph glyph-name="uni04E6" unicode="&#x4e6;" horiz-adv-x="804" 
d="M65 371q17 110 70 187t135 117.5t186 40.5q120 0 195.5 -49.5t106.5 -136t13 -195.5q-17 -110 -70.5 -187t-135 -118t-187.5 -41q-118 0 -194 50t-106 136.5t-13 195.5zM256 361q-11 -69 1.5 -118t47 -74.5t89.5 -25.5q79 0 125 55t60 147q12 69 -1 117.5t-47.5 74
t-90.5 25.5q-79 0 -124 -54t-60 -147zM522 771l24 149h148l-24 -149h-148zM315 771l24 149h149l-24 -149h-149z" />
    <glyph glyph-name="uni04E7" unicode="&#x4e7;" horiz-adv-x="635" 
d="M291 -11q-90 0 -150 34.5t-85 98t-12 150.5q13 82 55 137t105.5 82.5t141.5 27.5q91 0 150 -34.5t84 -97.5t11 -151q-13 -82 -54.5 -137t-104.5 -82.5t-141 -27.5zM301 121q42 0 72 30.5t41 94.5q12 77 -11 109t-68 32q-43 0 -72.5 -30t-40.5 -95q-12 -76 10.5 -108.5
t68.5 -32.5zM400 582l23 150h149l-23 -150h-149zM194 582l23 150h148l-22 -150h-149z" />
    <glyph glyph-name="uni04E8" unicode="&#x4e8;" horiz-adv-x="804" 
d="M156 292l20 132h522l-21 -132h-521zM65 371q17 110 70 187t135 117.5t186 40.5q120 0 195.5 -49.5t106.5 -136t13 -195.5q-17 -110 -70.5 -187t-135 -118t-187.5 -41q-118 0 -194 50t-106 136.5t-13 195.5zM256 361q-11 -69 1.5 -118t47 -74.5t89.5 -25.5q79 0 125 55
t60 147q12 69 -1 117.5t-47.5 74t-90.5 25.5q-79 0 -124 -54t-60 -147z" />
    <glyph glyph-name="uni04E9" unicode="&#x4e9;" horiz-adv-x="635" 
d="M291 -11q-90 0 -150 34.5t-85 98t-12 150.5q13 82 55 137t105.5 82.5t140.5 27.5q92 0 151 -34.5t83.5 -97.5t10.5 -151q-13 -82 -54 -137t-104 -82.5t-141 -27.5zM300 121q54 0 86.5 31t44.5 96q11 70 -15 104.5t-80 34.5q-55 0 -88 -30.5t-43 -95.5q-10 -66 12.5 -103
t82.5 -37zM147 200l18 109h324l-17 -109h-325z" />
    <glyph glyph-name="uni04EA" unicode="&#x4ea;" horiz-adv-x="804" 
d="M156 292l20 132h522l-21 -132h-521zM65 371q17 110 70 187t135 117.5t186 40.5q120 0 195.5 -49.5t106.5 -136t13 -195.5q-17 -110 -70.5 -187t-135 -118t-187.5 -41q-118 0 -194 50t-106 136.5t-13 195.5zM256 361q-11 -69 1.5 -118t47 -74.5t89.5 -25.5q79 0 125 55
t60 147q12 69 -1 117.5t-47.5 74t-90.5 25.5q-79 0 -124 -54t-60 -147zM520 771l24 149h148l-24 -149h-148zM313 771l24 149h149l-24 -149h-149z" />
    <glyph glyph-name="uni04EB" unicode="&#x4eb;" horiz-adv-x="635" 
d="M291 -11q-90 0 -150 34.5t-85 98t-12 150.5q13 82 55 137t105.5 82.5t140.5 27.5q92 0 151 -34.5t83.5 -97.5t10.5 -151q-13 -82 -54 -137t-104 -82.5t-141 -27.5zM300 121q54 0 86.5 31t44.5 96q11 70 -15 104.5t-80 34.5q-55 0 -88 -30.5t-43 -95.5q-10 -66 12.5 -103
t82.5 -37zM147 200l18 109h324l-17 -109h-325zM400 582l23 150h149l-23 -150h-149zM194 582l23 150h148l-22 -150h-149z" />
    <glyph glyph-name="uni04EC" unicode="&#x4ec;" horiz-adv-x="705" 
d="M237 -11q-67 0 -124 17.5t-94 46.5l60 144q42 -26 80.5 -38t94.5 -12q87 0 144 45.5t77 129.5l45 -33h-342l23 140h339l-58 -58q6 85 -34 136t-140 51q-51 0 -96.5 -14.5t-91.5 -47.5l-50 145q59 39 127.5 57t135.5 18q97 0 166.5 -29.5t111.5 -82t57 -122t3 -148.5
q-17 -110 -73.5 -187.5t-147.5 -118t-213 -39.5zM433 771l24 149h148l-24 -149h-148zM226 771l24 149h149l-24 -149h-149z" />
    <glyph glyph-name="uni04ED" unicode="&#x4ed;" horiz-adv-x="561" 
d="M195 -11q-57 0 -104.5 13t-75.5 36l48 112q25 -20 58 -29.5t70 -9.5q63 0 103 28.5t57 86.5l14 -26h-238l18 114h239l-30 -37q3 62 -30 91t-95 29q-36 0 -71 -10t-68 -31l-32 109q32 24 85.5 39t116.5 15q90 0 152.5 -36t90.5 -100t15 -147t-57.5 -138t-112.5 -82
t-153 -27zM336 582l23 150h149l-23 -150h-149zM130 582l23 150h148l-22 -150h-149z" />
    <glyph glyph-name="uni04EE" unicode="&#x4ee;" horiz-adv-x="699" 
d="M118 0l165 243v-51l-239 513h187l160 -355h-33l241 355h196l-481 -705h-196zM255 796l15 97h368l-15 -97h-368z" />
    <glyph glyph-name="uni04EF" unicode="&#x4ef;" horiz-adv-x="572" 
d="M-11 -227l-27 138q50 9 84 19.5t57.5 28.5t41.5 47l34 58l-9 -67l-140 511h181l77 -337h-34l189 337h182l-310 -519q-37 -61 -74 -100t-76 -62t-82 -34.5t-94 -19.5zM149 605l15 97h338l-15 -97h-338z" />
    <glyph glyph-name="uni04F0" unicode="&#x4f0;" horiz-adv-x="699" 
d="M118 0l165 243v-51l-239 513h187l160 -355h-33l241 355h196l-481 -705h-196zM464 771l24 149h148l-24 -149h-148zM257 771l24 149h149l-24 -149h-149z" />
    <glyph glyph-name="uni04F1" unicode="&#x4f1;" horiz-adv-x="572" 
d="M-11 -227l-27 138q50 9 84 19.5t57.5 28.5t41.5 47l34 58l-9 -67l-140 511h181l77 -337h-34l189 337h182l-310 -519q-37 -61 -74 -100t-76 -62t-82 -34.5t-94 -19.5zM343 582l23 150h149l-23 -150h-149zM137 582l23 150h148l-22 -150h-149z" />
    <glyph glyph-name="uni04F2" unicode="&#x4f2;" horiz-adv-x="699" 
d="M118 0l165 243v-51l-239 513h187l160 -355h-33l241 355h196l-481 -705h-196zM300 765l101 176h150l-152 -176h-99zM471 765l116 176h151l-168 -176h-99z" />
    <glyph glyph-name="uni04F3" unicode="&#x4f3;" horiz-adv-x="572" 
d="M-11 -227l-27 138q50 9 84 19.5t57.5 28.5t41.5 47l34 58l-9 -67l-140 511h181l77 -337h-34l189 337h182l-310 -519q-37 -61 -74 -100t-76 -62t-82 -34.5t-94 -19.5zM348 557l63 205h141l-113 -205h-91zM174 557l63 205h141l-112 -205h-92z" />
    <glyph glyph-name="uni04F4" unicode="&#x4f4;" horiz-adv-x="736" 
d="M448 0l40 249q-26 -9 -64.5 -15t-75.5 -6q-90 0 -153.5 33t-91.5 100.5t-13 169.5l29 174h183l-28 -168q-13 -85 18 -121t110 -36q27 0 54 5t56 15l48 305h183l-112 -705h-183zM464 771l24 149h148l-24 -149h-148zM257 771l24 149h149l-24 -149h-149z" />
    <glyph glyph-name="uni04F5" unicode="&#x4f5;" horiz-adv-x="610" 
d="M337 0l25 160q-26 -9 -53 -13t-52 -4q-69 0 -118 25t-70.5 75t-10.5 124l23 141h177l-20 -125q-8 -53 9 -76.5t68 -23.5q18 0 35 3.5t30 9.5l34 212h176l-81 -508h-172zM378 582l23 150h149l-23 -150h-149zM172 582l23 150h148l-22 -150h-149z" />
    <glyph glyph-name="uni04F6" unicode="&#x4f6;" horiz-adv-x="592" 
d="M128 -174l27 174h-116l22 142h274l-50 -316h-157zM25 0l112 705h509l-24 -148h-326l-88 -557h-183z" />
    <glyph glyph-name="uni04F7" unicode="&#x4f7;" horiz-adv-x="494" 
d="M113 -130l21 130h-101l20 130h250l-41 -260h-149zM20 0l81 508h413l-22 -137h-236l-58 -371h-178z" />
    <glyph glyph-name="uni04F8" unicode="&#x4f8;" horiz-adv-x="975" 
d="M25 0l112 705h183l-44 -275h129q125 0 188.5 -58.5t44.5 -176.5q-15 -100 -90 -147.5t-192 -47.5h-331zM230 137h121q55 0 82.5 19t32.5 57q7 41 -14 60t-76 19h-121zM687 0l112 705h183l-112 -705h-183zM598 771l24 149h148l-24 -149h-148zM391 771l24 149h149l-24 -149
h-149z" />
    <glyph glyph-name="uni04F9" unicode="&#x4f9;" horiz-adv-x="843" 
d="M20 0l81 508h176l-25 -155h101q113 0 160 -48.5t33 -135.5q-13 -86 -77 -127.5t-162 -41.5h-287zM214 111h83q39 0 61.5 15.5t27.5 46.5q6 36 -12 52.5t-59 16.5h-80zM566 0l81 508h176l-81 -508h-176zM504 582l23 150h149l-23 -150h-149zM298 582l23 150h148l-22 -150
h-149z" />
    <glyph glyph-name="uni04FA" unicode="&#x4fa;" horiz-adv-x="643" 
d="M19 -188l6 116l65 6q49 4 75 21t30 45h-119l44 278h-94l19 127h95l48 300h509l-24 -148h-326l-24 -152h179l-20 -127h-179l-21 -136h102l-17 -106q-17 -104 -80 -157.5t-184 -60.5z" />
    <glyph glyph-name="uni04FB" unicode="&#x4fb;" horiz-adv-x="524" 
d="M10 -188l6 117l72 6q32 2 47 20t20 45h-104l28 178h-87l19 113h86l35 217h413l-22 -136h-236l-12 -81h138l-18 -113h-139l-13 -84h84l-9 -58q-16 -104 -76 -158t-149 -60z" />
    <glyph glyph-name="uni04FC" unicode="&#x4fc;" horiz-adv-x="693" 
d="M360 -189l-4 142q42 5 63.5 18.5t24.5 36.5q3 19 -5 39.5t-23 47.5l-95 168h59l-230 -263h-222l363 397l-6 -83l-232 391h209l140 -257h-59l224 257h223l-357 -391l6 83l142 -236q33 -54 44 -96t4 -82q-12 -75 -76.5 -117.5t-192.5 -54.5z" />
    </font>
</defs>
</svg>
