<?xml version="1.0" standalone="no"?>
<!DOCTYPE svg PUBLIC "-//W3C//DTD SVG 1.1//EN" "http://www.w3.org/Graphics/SVG/1.1/DTD/svg11.dtd" >
<svg xmlns="http://www.w3.org/2000/svg" xmlns:xlink="http://www.w3.org/1999/xlink" version="1.1">
<metadata>
Created by FontForge 20201107 at Thu Sep 30 21:20:51 2021
 By 
Copyright 2016 The Mulish Project Authors (https://github.com/googlefonts/mulish)
</metadata>
<defs>
<font id="Mulish-BoldItalic" horiz-adv-x="0" >
  <font-face 
    font-family="Mulish"
    font-weight="700"
    font-style="italic"
    font-stretch="normal"
    units-per-em="1000"
    panose-1="0 0 0 0 0 0 0 0 0 0"
    ascent="800"
    descent="-200"
    x-height="505"
    cap-height="705"
    bbox="-308 -278 1382 1051"
    underline-thickness="44"
    underline-position="-107"
    slope="-9"
    unicode-range="U+000D-FB02"
  />
<missing-glyph horiz-adv-x="500" 
 />
    <glyph glyph-name="fi" unicode="fi" horiz-adv-x="627" 
d="M62 0l65 411h-97l15 94h132l-40 -32l13 82q16 92 70 138.5t145 46.5q22 0 46.5 -3t40.5 -11l-16 -98q-12 5 -29.5 8t-34.5 3q-39 0 -65.5 -22.5t-34.5 -72.5l-9 -61l-15 22h351l-80 -505h-125l65 411h-207l-65 -411h-125zM482 600l19 122h140l-20 -122h-139z" />
    <glyph glyph-name="fl" unicode="fl" horiz-adv-x="628" 
d="M62 0l65 411h-97l15 94h132l-40 -32l13 82q15 92 71 138.5t154 46.5q22 0 44 -3.5t38 -10.5l-16 -98q-12 5 -27 8t-32 3q-26 0 -49 -10t-39 -30.5t-22 -54.5l-9 -61l-15 22h151l-15 -94h-132l-65 -411h-125zM396 0l117 736h125l-117 -736h-125z" />
    <glyph glyph-name=".notdef" horiz-adv-x="500" 
 />
    <glyph glyph-name="uni0000" 
 />
    <glyph glyph-name="uni0000" 
 />
    <glyph glyph-name="nonmarkingreturn" horiz-adv-x="333" 
 />
    <glyph glyph-name="CR" unicode="&#xd;" horiz-adv-x="274" 
 />
    <glyph glyph-name="space" unicode=" " horiz-adv-x="274" 
 />
    <glyph glyph-name="exclam" unicode="!" horiz-adv-x="248" 
d="M80 209l39 496h154l-117 -496h-76zM14 0l22 139h140l-22 -139h-140z" />
    <glyph glyph-name="quotedbl" unicode="&#x22;" horiz-adv-x="448" 
d="M106 415l15 290h145l-76 -290h-84zM311 415l15 290h145l-76 -290h-84z" />
    <glyph glyph-name="numbersign" unicode="#" horiz-adv-x="600" 
d="M38 0l61 172h-75l13 80h90l76 209h-110l12 81h127l59 163h87l-59 -163h128l59 163h87l-59 -163h74l-12 -81h-91l-76 -209h112l-13 -80h-128l-61 -172h-88l62 172h-127l-60 -172h-88zM215 252h127l75 209h-127z" />
    <glyph glyph-name="dollar" unicode="$" horiz-adv-x="600" 
d="M202 -115l20 131l25 -22q-43 3 -87.5 11.5t-83.5 24t-66 37.5l50 99q41 -29 95.5 -46.5t124.5 -17.5q71 0 109 25.5t44 64.5q6 35 -15.5 57.5t-78.5 32.5l-93 19q-56 12 -94.5 39.5t-55.5 69t-9 94.5q10 62 45 105.5t91 69t129 30.5l-23 -15l21 126h100l-21 -126l-17 16
q52 -3 102.5 -21.5t82.5 -50.5l-47 -95q-32 29 -77.5 44.5t-100.5 15.5q-70 0 -112 -27t-50 -72q-6 -37 14 -60t73 -34l93 -19q99 -20 139.5 -70.5t27.5 -130.5q-13 -84 -82.5 -134t-174.5 -60l23 21l-21 -132h-100z" />
    <glyph glyph-name="percent" unicode="%" horiz-adv-x="950" 
d="M286 0h-112l522 705h113zM236 284q-88 0 -129.5 60t-25.5 166q16 97 70.5 151t134.5 54q89 0 130 -59.5t24 -165.5q-15 -96 -69 -151t-135 -55zM241 364q38 0 62.5 32t35.5 99q11 74 -5.5 106.5t-53.5 32.5t-61 -30.5t-35 -98.5q-12 -74 4 -107.5t53 -33.5zM697 -10
q-89 0 -130.5 60t-24.5 167q16 97 70 150.5t134 53.5q89 0 130.5 -59.5t24.5 -164.5q-16 -97 -69.5 -152t-134.5 -55zM702 71q38 0 62.5 32t34.5 99q12 73 -4.5 106t-53.5 33t-61.5 -30.5t-35.5 -98.5q-11 -75 5 -108t53 -33z" />
    <glyph glyph-name="ampersand" unicode="&#x26;" horiz-adv-x="688" 
d="M617 -10q-44 16 -83 43.5t-68 58.5l34 -1q-47 -47 -112.5 -74t-137.5 -27q-77 0 -131 25.5t-78.5 70.5t-15.5 105q10 62 55.5 106.5t118.5 83.5l45 24l-26 -23q-36 43 -50 86.5t-7 90.5q7 44 33 79.5t71 56t109 20.5q54 0 93.5 -19t58.5 -55t11 -87q-5 -34 -25.5 -66.5
t-58 -62.5t-96.5 -60l3 27l147 -181h-24q32 41 55.5 96t35.5 116h108q-16 -82 -49 -155t-80 -129l-5 30q23 -28 54 -51t69 -38zM269 87q50 0 91.5 19t78.5 56l-12 -30l-177 213l54 -3l-38 -21q-52 -28 -80.5 -55.5t-35.5 -68.5q-7 -49 23 -79.5t96 -30.5zM369 630
q-38 0 -62.5 -21t-29.5 -52q-3 -23 0 -41.5t15 -38t34 -47.5l-27 -2q68 34 100.5 62.5t37.5 64.5q6 35 -13 55t-55 20z" />
    <glyph glyph-name="quotesingle" unicode="'" horiz-adv-x="243" 
d="M106 415l15 290h145l-76 -290h-84z" />
    <glyph glyph-name="parenleft" unicode="(" horiz-adv-x="356" 
d="M159 -180q-33 78 -49 159.5t-16 159.5q0 108 26.5 210.5t72.5 193t104 162.5h104q-77 -133 -127.5 -285t-50.5 -322q0 -61 10 -132.5t26 -145.5h-100z" />
    <glyph glyph-name="parenright" unicode=")" horiz-adv-x="356" 
d="M62 -180h-104q77 133 127.5 285.5t50.5 321.5q0 62 -9.5 133t-26.5 145h100q33 -78 49 -159t16 -160q0 -107 -26.5 -209.5t-72 -193t-104.5 -163.5z" />
    <glyph glyph-name="asterisk" unicode="*" horiz-adv-x="457" 
d="M181 353l-67 49l105 117l-145 42l31 78l139 -54l5 151h83l-19 -150l147 53l21 -78l-151 -42l86 -117l-67 -49l-73 126z" />
    <glyph glyph-name="plus" unicode="+" horiz-adv-x="600" 
d="M221 40l32 203h-201l14 88h201l31 197h91l-31 -197h200l-14 -88h-200l-32 -203h-91z" />
    <glyph glyph-name="comma" unicode="," horiz-adv-x="248" 
d="M59 -133l-44 48q35 31 49.5 55.5t20.5 58.5l27 -29h-98l22 139h139l-16 -103q-5 -34 -15.5 -62t-30.5 -54t-54 -53z" />
    <glyph glyph-name="hyphen" unicode="-" horiz-adv-x="438" 
d="M63 226l16 99h303l-15 -99h-304z" />
    <glyph glyph-name="period" unicode="." horiz-adv-x="248" 
d="M14 0l22 139h140l-22 -139h-140z" />
    <glyph glyph-name="slash" unicode="/" horiz-adv-x="316" 
d="M34 -59h-108l397 811h107z" />
    <glyph glyph-name="zero" unicode="0" horiz-adv-x="600" 
d="M270 -10q-133 0 -185.5 99t-24.5 280q29 178 105 262t197 84q130 0 184.5 -95t25.5 -280q-28 -178 -106.5 -264t-195.5 -86zM278 96q66 0 108.5 60t63.5 194q15 95 9 152t-32.5 82.5t-72.5 25.5q-66 0 -108 -58t-63 -192q-15 -94 -9 -152.5t32.5 -85t71.5 -26.5z" />
    <glyph glyph-name="one" unicode="1" horiz-adv-x="600" 
d="M71 0l17 107h162l78 490l61 -3l-227 -124l19 125l201 110h92l-95 -598h152l-17 -107h-443z" />
    <glyph glyph-name="two" unicode="2" horiz-adv-x="600" 
d="M38 0l15 95l278 252q50 45 75 80t32 75q8 52 -20.5 78.5t-87.5 26.5q-50 0 -98 -16t-96 -53l-40 96q49 38 117.5 59.5t135.5 21.5q80 0 132 -25.5t74 -72.5t12 -112q-10 -64 -49 -117.5t-106 -111.5l-232 -203v34h350l-17 -107h-475z" />
    <glyph glyph-name="three" unicode="3" horiz-adv-x="600" 
d="M261 -10q-73 0 -136.5 21.5t-101.5 59.5l47 97q41 -36 89.5 -53t103.5 -17q66 0 105 24t47 78q15 105 -115 105h-117l16 103h102q58 0 96.5 26t45.5 75q8 47 -20.5 72.5t-87.5 25.5q-55 0 -103.5 -17t-95.5 -53l-40 96q50 40 117.5 61t137.5 21q118 0 175 -52.5
t43 -144.5q-9 -59 -52 -102.5t-107 -58.5l1 12q68 -11 102.5 -60.5t22.5 -123.5q-15 -96 -88.5 -145.5t-186.5 -49.5z" />
    <glyph glyph-name="four" unicode="4" horiz-adv-x="600" 
d="M316 0l22 138h-317l15 90l410 477h106l-75 -469h101l-16 -98h-101l-21 -138h-124zM353 236l51 317h27l-297 -347v30h219z" />
    <glyph glyph-name="five" unicode="5" horiz-adv-x="600" 
d="M276 -10q-46 0 -90 10t-80.5 28t-60.5 43l45 97q41 -35 89 -52.5t100 -17.5q64 0 105.5 30.5t50.5 87.5q9 58 -21 92.5t-91 34.5q-43 0 -80.5 -16.5t-70.5 -50.5h-85l68 429h438l-18 -106h-316l-35 -225h-32q32 36 76.5 55t98.5 19q65 0 112 -29t68.5 -82.5t9.5 -128.5
q-10 -66 -46.5 -115t-96 -76t-138.5 -27z" />
    <glyph glyph-name="six" unicode="6" horiz-adv-x="600" 
d="M293 -10q-89 0 -147 42t-79 124.5t-2 203.5q19 120 67 198.5t120.5 117.5t162.5 39q59 0 111 -18t86 -55l-48 -96q-33 32 -72 46.5t-83 14.5q-90 0 -146 -59t-77 -184l-12 -75h-12q23 76 76.5 119.5t132.5 43.5q63 0 108.5 -30t66.5 -84.5t9 -128.5q-11 -69 -46.5 -118
t-90.5 -75t-125 -26zM296 92q63 0 97.5 34t43.5 89q10 63 -20 99.5t-86 36.5q-58 0 -95.5 -35.5t-46.5 -91.5q-10 -60 19.5 -96t87.5 -36z" />
    <glyph glyph-name="seven" unicode="7" horiz-adv-x="600" 
d="M41 0l443 642l-2 -45h-374l18 108h493l-15 -96l-417 -609h-146z" />
    <glyph glyph-name="eight" unicode="8" horiz-adv-x="600" 
d="M270 -10q-131 0 -194 58.5t-48 156.5q12 72 64 115.5t125 52.5l-3 -21q-63 14 -94 65t-21 118q14 86 84 133t187 47q77 0 129 -25t75.5 -70t14.5 -105q-11 -67 -56 -111t-111 -55l3 20q47 -8 78.5 -33.5t45 -64.5t4.5 -90q-15 -93 -89.5 -142t-193.5 -49zM276 90
q71 0 111.5 27t48.5 81q9 54 -23 81.5t-105 27.5q-72 0 -112 -26t-49 -78q-8 -52 24 -82.5t105 -30.5zM325 407q62 0 99 25.5t44 75.5q8 50 -20 78.5t-90 28.5q-63 0 -98.5 -26.5t-43.5 -71.5q-7 -48 20.5 -79t88.5 -31z" />
    <glyph glyph-name="nine" unicode="9" horiz-adv-x="600" 
d="M217 -10q-58 0 -110 18.5t-87 55.5l48 95q33 -31 72.5 -46t83.5 -15q89 0 146 59.5t76 183.5l12 75h13q-23 -76 -76.5 -119.5t-132.5 -43.5q-62 0 -108 30t-67 85t-10 129q11 69 46.5 117.5t91.5 74.5t126 26q89 0 146.5 -42t78.5 -124.5t2 -203.5q-19 -119 -67.5 -198
t-121 -118t-162.5 -39zM301 355q59 0 96.5 35.5t46.5 91.5q9 59 -20 95.5t-87 36.5q-62 0 -97.5 -34t-43.5 -90q-10 -62 19.5 -98.5t85.5 -36.5z" />
    <glyph glyph-name="colon" unicode=":" horiz-adv-x="248" 
d="M72 367l22 138h140l-22 -138h-140zM14 0l22 139h139l-22 -139h-139z" />
    <glyph glyph-name="semicolon" unicode=";" horiz-adv-x="248" 
d="M56 -133l-45 40q38 33 55 61.5t21 60.5l23 -29h-94l22 139h139l-16 -100q-7 -51 -30.5 -92t-74.5 -80zM72 366l22 139h140l-22 -139h-140z" />
    <glyph glyph-name="less" unicode="&#x3c;" horiz-adv-x="600" 
d="M510 33l-458 207l15 95l524 207l-16 -102l-483 -189l10 61l423 -188z" />
    <glyph glyph-name="equal" unicode="=" horiz-adv-x="600" 
d="M68 343l14 88h491l-14 -88h-491zM37 144l14 87h491l-14 -87h-491z" />
    <glyph glyph-name="greater" unicode="&#x3e;" horiz-adv-x="600" 
d="M20 33l16 101l483 189l-10 -62l-423 189l15 92l458 -207l-15 -95z" />
    <glyph glyph-name="question" unicode="?" horiz-adv-x="464" 
d="M164 209l7 40q5 31 16 58t33.5 55t58.5 61q20 18 37.5 38.5t29 43t11.5 45.5q0 29 -22.5 44.5t-63.5 15.5q-40 0 -79.5 -12t-75.5 -32l17 108q37 20 84 30.5t89 10.5q54 0 94.5 -17.5t63 -49t22.5 -74.5q0 -42 -17 -78t-45.5 -65.5t-62.5 -54.5q-56 -44 -80 -76t-32 -63
l-9 -28h-76zM99 0l22 139h140l-22 -139h-140z" />
    <glyph glyph-name="at" unicode="@" horiz-adv-x="965" 
d="M502 -165q-96 0 -176 30.5t-138.5 88t-90.5 137t-32 177.5q0 101 33 183t93.5 141t144 91t183.5 32q89 0 162 -26.5t126.5 -75.5t82.5 -118t29 -153q0 -87 -26 -150.5t-71.5 -98t-103.5 -34.5q-61 0 -94.5 33.5t-35.5 93.5l31 10q-25 -68 -71 -102.5t-100 -34.5
q-80 0 -124 50t-44 137q0 73 27.5 130t76 90t110.5 33q53 0 87 -26.5t46 -77.5h-17l17 94h93l-42 -241q-3 -16 -4.5 -29.5t-1.5 -24.5q0 -31 13 -46t39 -15q32 0 58.5 26t42.5 73.5t16 109.5q0 69 -23 124t-65.5 93.5t-102 58.5t-132.5 20q-82 0 -149 -26t-115.5 -74.5
t-75 -117t-26.5 -152.5q0 -111 43.5 -191t122.5 -122.5t184 -42.5q75 0 137 21.5t106 61.5l40 -66q-48 -45 -121 -69.5t-162 -24.5zM466 138q38 0 67.5 23.5t46 65t16.5 95.5q0 48 -21 72.5t-65 24.5q-38 0 -68 -22t-47 -60.5t-17 -89.5q0 -53 23 -81t65 -28z" />
    <glyph glyph-name="A" unicode="A" horiz-adv-x="750" 
d="M-40 0l431 705h108l211 -705h-126l-55 198l47 -35h-423l59 35l-117 -198h-135zM427 567l-194 -334l-21 31h336l-26 -31l-91 334h-4z" />
    <glyph glyph-name="B" unicode="B" horiz-adv-x="690" 
d="M38 0l112 705h309q115 0 169 -49.5t40 -140.5q-10 -63 -55 -105t-114 -57l2 15q75 -11 109.5 -59.5t23.5 -121.5q-14 -90 -84 -138.5t-186 -48.5h-326zM177 98h184q65 0 104 23.5t47 74.5q7 42 -5.5 66.5t-40.5 35.5t-70 11h-186zM226 406h165q69 0 105.5 24.5t43.5 69.5
q9 56 -18.5 82t-91.5 26h-172z" />
    <glyph glyph-name="C" unicode="C" horiz-adv-x="685" 
d="M383 -10q-120 0 -195 48.5t-103.5 134t-11.5 195.5q18 111 70.5 188.5t135.5 118.5t190 40q70 0 125.5 -19.5t93.5 -54.5l-46 -103q-42 35 -82.5 49t-96.5 14q-103 0 -170 -62.5t-86 -178.5q-12 -78 4.5 -135.5t63.5 -89t123 -31.5q50 0 99 16.5t96 54.5l38 -101
q-49 -40 -114 -62t-134 -22z" />
    <glyph glyph-name="D" unicode="D" horiz-adv-x="762" 
d="M38 0l112 705h244q128 0 206.5 -44.5t108.5 -126.5t12 -196q-27 -169 -135.5 -253.5t-286.5 -84.5h-261zM184 107h119q128 0 199.5 59t90.5 180q20 130 -33 191.5t-181 61.5h-118z" />
    <glyph glyph-name="E" unicode="E" horiz-adv-x="595" 
d="M38 0l112 705h475l-16 -101h-352l-30 -195h328l-16 -102h-328l-33 -205h351l-16 -102h-475z" />
    <glyph glyph-name="F" unicode="F" horiz-adv-x="572" 
d="M38 0l112 705h465l-17 -101h-336l-31 -200h313l-16 -101h-313l-48 -303h-129z" />
    <glyph glyph-name="G" unicode="G" horiz-adv-x="740" 
d="M391 -10q-127 0 -203.5 47t-104.5 131.5t-10 197.5q18 112 73 189.5t141.5 118.5t197.5 41q77 0 132 -18t92 -50l-47 -101q-41 31 -80.5 44t-101.5 13q-115 0 -185 -64.5t-88 -183.5q-19 -120 27 -187.5t170 -67.5q46 0 86.5 8t83.5 24l-38 -55l33 211h-164l15 94h272
l-54 -337q-33 -17 -75 -29.5t-86.5 -19t-85.5 -6.5z" />
    <glyph glyph-name="H" unicode="H" horiz-adv-x="774" 
d="M38 0l112 705h129l-47 -294h361l47 294h129l-112 -705h-129l48 304h-361l-48 -304h-129z" />
    <glyph glyph-name="I" unicode="I" horiz-adv-x="284" 
d="M38 0l112 705h129l-112 -705h-129z" />
    <glyph glyph-name="J" unicode="J" horiz-adv-x="362" 
d="M20 -187q-17 0 -40.5 2.5t-46.5 9.5l16 102q19 -7 36 -9t30 -2q46 0 71 27t34 86l107 676h129l-109 -686q-11 -72 -38.5 -117.5t-73.5 -67t-115 -21.5z" />
    <glyph glyph-name="K" unicode="K" horiz-adv-x="666" 
d="M38 0l112 705h129l-50 -312h2l352 312h161l-419 -367l-4 56l335 -394h-155l-280 326h-2l-52 -326h-129z" />
    <glyph glyph-name="L" unicode="L" horiz-adv-x="560" 
d="M38 0l112 705h129l-95 -596h332l-17 -109h-461z" />
    <glyph glyph-name="M" unicode="M" horiz-adv-x="870" 
d="M39 0l112 705h113l166 -583h-31l352 583h112l-112 -705h-117l83 523h37l-321 -523h-75l-156 523h37l-83 -523h-117z" />
    <glyph glyph-name="N" unicode="N" horiz-adv-x="755" 
d="M38 0l112 705h97l322 -536l-23 7l84 529h120l-112 -705h-97l-322 536l23 -7l-84 -529h-120z" />
    <glyph glyph-name="O" unicode="O" horiz-adv-x="787" 
d="M73 368q18 111 69 188.5t130.5 118t180.5 40.5q112 0 183 -48.5t99 -133.5t10 -195q-17 -111 -68.5 -188.5t-130.5 -118.5t-181 -41q-111 0 -182 48.5t-99 134t-11 195.5zM207 358q-13 -81 2.5 -138.5t57.5 -88.5t108 -31q99 0 159 66.5t78 181.5q13 81 -3 138.5t-58 88
t-109 30.5q-99 0 -157.5 -65.5t-77.5 -181.5z" />
    <glyph glyph-name="P" unicode="P" horiz-adv-x="666" 
d="M38 0l112 705h301q121 0 176 -60.5t38 -163.5q-9 -60 -42.5 -104.5t-89 -68.5t-132.5 -24h-189l-45 -284h-129zM228 386h169q65 0 100.5 26t43.5 78q9 56 -19 85t-93 29h-167z" />
    <glyph glyph-name="Q" unicode="Q" horiz-adv-x="787" 
d="M512 -192q-29 18 -57 47.5t-50.5 66.5t-36.5 75l111 44q17 -52 53.5 -94t76.5 -71zM73 368q18 111 69 188.5t130.5 118t180.5 40.5q112 0 183 -48.5t99 -133.5t10 -195q-17 -111 -68.5 -188.5t-130.5 -118.5t-181 -41q-111 0 -182 48.5t-99 134t-11 195.5zM207 358
q-13 -81 2.5 -138.5t57.5 -88.5t108 -31q99 0 159 66.5t78 181.5q13 81 -3 138.5t-58 88t-109 30.5q-99 0 -157.5 -65.5t-77.5 -181.5z" />
    <glyph glyph-name="R" unicode="R" horiz-adv-x="702" 
d="M38 0l112 705h296q125 0 181 -57t39 -161q-9 -61 -44.5 -105t-91 -67.5t-125.5 -23.5l5 19h31q42 0 70.5 -22.5t44.5 -66.5l75 -221h-135l-76 229q-10 35 -37 46t-67 11h-104l-45 -286h-129zM227 381h166q65 0 102.5 28t45.5 80q9 58 -21.5 86.5t-98.5 28.5h-159z" />
    <glyph glyph-name="S" unicode="S" horiz-adv-x="645" 
d="M291 -10q-82 0 -150.5 19.5t-113.5 50.5l45 101q47 -28 103 -45.5t126 -17.5q78 0 117 26t45 67q6 38 -14 61t-77 31l-104 17q-94 15 -138.5 68.5t-31.5 137.5q10 64 50 110.5t105.5 72.5t150.5 26q71 0 131 -18.5t97 -50.5l-45 -99q-37 28 -85.5 44t-110.5 16
q-72 0 -115 -26.5t-51 -73.5q-7 -39 14 -64.5t79 -34.5l104 -16q96 -15 139 -66t30 -135q-9 -58 -48 -103.5t-102.5 -71.5t-149.5 -26z" />
    <glyph glyph-name="T" unicode="T" horiz-adv-x="619" 
d="M204 0l95 599h-233l17 106h595l-17 -106h-233l-95 -599h-129z" />
    <glyph glyph-name="U" unicode="U" horiz-adv-x="740" 
d="M340 -10q-94 0 -158 33.5t-91 100.5t-11 169l66 412h129l-66 -417q-15 -93 18 -140.5t126 -47.5q83 0 130.5 45t63.5 145l66 415h127l-67 -421q-16 -100 -57 -165t-109.5 -97t-166.5 -32z" />
    <glyph glyph-name="V" unicode="V" horiz-adv-x="721" 
d="M266 0l-201 705h133l159 -592h-41l346 592h139l-426 -705h-109z" />
    <glyph glyph-name="W" unicode="W" horiz-adv-x="1121" 
d="M234 0l-137 705h129l100 -578h-40l299 578h96l100 -578h-37l293 578h131l-363 -705h-107l-100 542h21l-278 -542h-107z" />
    <glyph glyph-name="X" unicode="X" horiz-adv-x="671" 
d="M-51 0l351 386l-3 -55l-221 374h146l158 -281h-41l247 281h158l-340 -374l2 55l230 -386h-147l-167 294h45l-261 -294h-157z" />
    <glyph glyph-name="Y" unicode="Y" horiz-adv-x="629" 
d="M210 0l53 333l14 -77l-230 449h143l157 -320h-28l259 320h149l-374 -454l39 82l-53 -333h-129z" />
    <glyph glyph-name="Z" unicode="Z" horiz-adv-x="608" 
d="M5 0l15 95l475 544l-6 -41h-389l17 107h518l-15 -94l-476 -544l6 40h403l-17 -107h-531z" />
    <glyph glyph-name="bracketleft" unicode="[" horiz-adv-x="354" 
d="M33 -180l140 885h239l-15 -94h-116l-110 -697h116l-15 -94h-239z" />
    <glyph glyph-name="backslash" unicode="\" horiz-adv-x="316" 
d="M195 -59l-141 811h101l141 -811h-101z" />
    <glyph glyph-name="bracketright" unicode="]" horiz-adv-x="354" 
d="M-55 -180l14 94h116l110 697h-115l15 94h238l-140 -885h-238z" />
    <glyph glyph-name="asciicircum" unicode="^" horiz-adv-x="600" 
d="M26 140l286 488h94l132 -488h-92l-119 450h61l-262 -450h-100z" />
    <glyph glyph-name="underscore" unicode="_" horiz-adv-x="505" 
d="M-40 -75l12 75h481l-12 -75h-481z" />
    <glyph glyph-name="grave" unicode="`" horiz-adv-x="500" 
d="M288 554l-142 203h122l104 -203h-84z" />
    <glyph glyph-name="a" unicode="a" horiz-adv-x="620" 
d="M234 -10q-69 0 -117 34t-67.5 96.5t-6.5 147.5q20 122 90.5 184.5t168.5 62.5q63 0 107 -30.5t53 -82.5l-10 -3l28 106h120q-8 -31 -15.5 -63t-12.5 -63l-60 -379h-124l17 107h16q-25 -54 -72.5 -85.5t-114.5 -31.5zM275 86q58 0 99.5 40.5t54.5 121.5q14 88 -16.5 129.5
t-91.5 41.5q-58 0 -99 -40.5t-54 -120.5q-14 -88 16 -130t91 -42z" />
    <glyph glyph-name="b" unicode="b" horiz-adv-x="620" 
d="M319 -10q-63 0 -107 31t-53 83l10 3l-17 -107h-124l117 736h125l-53 -334l-17 -3q25 53 72.5 84.5t114.5 31.5q70 0 117.5 -34t67.5 -96t6 -147q-20 -122 -90.5 -185t-168.5 -63zM300 86q59 0 99.5 40.5t53.5 121.5q14 88 -15.5 129.5t-91.5 41.5q-58 0 -99.5 -40.5
t-54.5 -120.5q-13 -88 17 -130t91 -42z" />
    <glyph glyph-name="c" unicode="c" horiz-adv-x="504" 
d="M272 -10q-83 0 -139 34.5t-79.5 97t-10.5 146.5q20 122 97.5 184.5t191.5 62.5q47 0 91.5 -14t71.5 -41l-41 -85q-24 22 -56 32.5t-62 10.5q-64 0 -108.5 -39.5t-57.5 -119.5q-13 -79 19.5 -125t102.5 -46q30 0 64.5 11.5t64.5 36.5l36 -86q-31 -27 -81.5 -43.5
t-103.5 -16.5z" />
    <glyph glyph-name="d" unicode="d" horiz-adv-x="620" 
d="M234 -10q-69 0 -117 34t-67.5 96.5t-6.5 147.5q20 122 90.5 184.5t168.5 62.5q63 0 107 -30.5t53 -82.5h-11l53 334h125l-117 -736h-123l17 107h15q-25 -54 -72.5 -85.5t-114.5 -31.5zM275 86q58 0 99.5 40.5t54.5 121.5q14 88 -16.5 129.5t-91.5 41.5q-58 0 -99 -40.5
t-54 -120.5q-14 -88 16 -130t91 -42z" />
    <glyph glyph-name="e" unicode="e" horiz-adv-x="548" 
d="M285 -10q-89 0 -147.5 35t-82.5 98.5t-11 147.5q12 76 48.5 130.5t93.5 84t130 29.5t120.5 -32t67.5 -87.5t8 -128.5l-5 -32h-367l10 66h279l-19 -16q11 71 -14.5 107.5t-84.5 36.5q-42 0 -72.5 -19t-49 -52.5t-24.5 -75.5l-5 -33q-11 -78 23.5 -120.5t117.5 -42.5
q39 0 76.5 11.5t72.5 37.5l36 -84q-41 -30 -93 -45.5t-108 -15.5z" />
    <glyph glyph-name="f" unicode="f" horiz-adv-x="368" 
d="M62 0l65 411h-97l15 94h132l-40 -32l13 82q15 92 71 138.5t154 46.5q22 0 44 -3.5t38 -10.5l-16 -98q-12 5 -27 8t-32 3q-26 0 -49 -10t-39 -30.5t-22 -54.5l-9 -61l-15 22h151l-15 -94h-132l-65 -411h-125z" />
    <glyph glyph-name="g" unicode="g" horiz-adv-x="622" 
d="M234 -224q-69 0 -123 15t-95 46l36 91q26 -19 54.5 -31.5t60.5 -18.5t66 -6q72 0 111 34.5t49 98.5l19 121h11q-22 -51 -71 -82t-114 -31q-68 0 -116.5 32t-69 92t-7.5 142q19 115 89 175.5t170 60.5q64 0 108 -30.5t52 -82.5l-7 6l25 97h121q-9 -31 -16 -63t-12 -63
l-57 -359q-19 -119 -90.5 -181.5t-193.5 -62.5zM278 108q61 0 102 40.5t52 113.5q12 77 -17.5 117t-90.5 40t-102 -40t-53 -114q-12 -76 18 -116.5t91 -40.5z" />
    <glyph glyph-name="h" unicode="h" horiz-adv-x="603" 
d="M28 0l117 736h125l-53 -332h-15q30 55 80.5 83t113.5 28q92 0 129 -53.5t20 -160.5l-47 -301h-125l47 301q10 62 -10 89t-68 27q-58 0 -96 -35.5t-47 -94.5l-46 -287h-125z" />
    <glyph glyph-name="i" unicode="i" horiz-adv-x="261" 
d="M28 0l80 505h125l-80 -505h-125zM116 600l20 122h139l-20 -122h-139z" />
    <glyph glyph-name="j" unicode="j" horiz-adv-x="261" 
d="M-58 -222q-19 0 -40 3t-38 10l16 99q12 -4 26.5 -7t28.5 -3q36 0 60 22t32 74l84 529h125l-85 -536q-15 -94 -66 -142.5t-143 -48.5zM118 600l20 122h139l-20 -122h-139z" />
    <glyph glyph-name="k" unicode="k" horiz-adv-x="552" 
d="M28 0l117 736h125l-71 -446h2l234 215h156l-293 -267v50l231 -288h-150l-188 226h-2l-36 -226h-125z" />
    <glyph glyph-name="l" unicode="l" horiz-adv-x="261" 
d="M28 0l117 736h125l-117 -736h-125z" />
    <glyph glyph-name="m" unicode="m" horiz-adv-x="899" 
d="M28 0l60 379q5 31 8 63t4 63h121l-6 -100h-13q29 55 75.5 82.5t106.5 27.5t97 -29t42 -88h-17q29 53 81 85t112 32q87 0 123.5 -52t19.5 -164l-48 -299h-125l48 304q9 59 -7.5 86t-61.5 27q-52 0 -86 -36.5t-44 -98.5l-45 -282h-125l48 304q10 59 -6.5 86t-61.5 27
q-53 0 -86.5 -36.5t-43.5 -98.5l-45 -282h-125z" />
    <glyph glyph-name="n" unicode="n" horiz-adv-x="603" 
d="M28 0l60 379q5 31 8 63t4 63h121l-6 -100l-13 -1q30 55 80.5 83t113.5 28q92 0 129 -53.5t20 -160.5l-47 -301h-125l47 301q10 62 -10.5 89t-67.5 27q-58 0 -96 -35.5t-47 -94.5l-46 -287h-125z" />
    <glyph glyph-name="o" unicode="o" horiz-adv-x="592" 
d="M266 -10q-82 0 -136.5 33t-77 95.5t-9.5 149.5q13 81 52.5 136t99 83t132.5 28q83 0 137 -33t76.5 -95t8.5 -149q-13 -81 -52.5 -136t-98.5 -83.5t-132 -28.5zM273 86q57 0 98 40.5t54 121.5q14 88 -16 129.5t-90 41.5q-58 0 -98 -40.5t-53 -120.5q-14 -88 15 -130
t90 -42z" />
    <glyph glyph-name="p" unicode="p" horiz-adv-x="620" 
d="M-6 -216l94 595q5 31 8 63t4 63h121l-6 -106h-15q25 53 72.5 84.5t114.5 31.5q70 0 117.5 -34t67.5 -96t6 -147q-20 -122 -90.5 -185t-168.5 -63q-63 0 -107 31t-53 83h11l-51 -320h-125zM300 86q59 0 99.5 40.5t53.5 121.5q14 88 -15.5 129.5t-91.5 41.5
q-58 0 -99.5 -40.5t-54.5 -120.5q-13 -88 17 -130t91 -42z" />
    <glyph glyph-name="q" unicode="q" horiz-adv-x="620" 
d="M353 -216l51 320l17 3q-25 -54 -72.5 -85.5t-114.5 -31.5q-69 0 -117 34t-67.5 96.5t-6.5 147.5q20 122 90.5 184.5t168.5 62.5q63 0 107 -30.5t53 -82.5l-10 -3l28 106h120q-8 -31 -15.5 -63t-12.5 -63l-94 -595h-125zM275 86q58 0 99.5 40.5t54.5 121.5
q14 88 -16.5 129.5t-91.5 41.5q-58 0 -99 -40.5t-54 -120.5q-14 -88 16 -130t91 -42z" />
    <glyph glyph-name="r" unicode="r" horiz-adv-x="393" 
d="M27 0l60 376q5 32 8.5 65t4.5 64h121l-7 -138h-22q18 50 46.5 83t65.5 49t78 16q14 0 26 -1.5t23 -3.5l-19 -111q-16 7 -29.5 9t-33.5 2q-40 0 -72 -17t-53 -48.5t-28 -75.5l-43 -269h-126z" />
    <glyph glyph-name="s" unicode="s" horiz-adv-x="501" 
d="M217 -10q-62 0 -114.5 14.5t-84.5 39.5l37 84q35 -22 78.5 -35.5t89.5 -13.5q49 0 76.5 16.5t31.5 44.5q4 25 -10 40.5t-47 20.5l-81 13q-73 12 -102.5 52t-20.5 100q8 48 38.5 81t78 50.5t105.5 17.5q56 0 103 -13.5t77 -37.5l-40 -82q-27 20 -64.5 32.5t-75.5 12.5
q-50 0 -77 -18t-32 -46q-4 -24 8 -40.5t43 -21.5l83 -14q75 -12 105.5 -49.5t20.5 -97.5q-7 -48 -38 -81.5t-79 -51t-109 -17.5z" />
    <glyph glyph-name="t" unicode="t" horiz-adv-x="379" 
d="M247 -10q-94 0 -132.5 48.5t-24.5 139.5l37 233h-97l15 94h97l21 129l130 32l-26 -161h135l-15 -94h-135l-35 -224q-8 -52 9 -73.5t53 -21.5q17 0 31 3t28 8l-16 -99q-19 -7 -37.5 -10.5t-37.5 -3.5z" />
    <glyph glyph-name="u" unicode="u" horiz-adv-x="596" 
d="M217 -10q-92 0 -134 53t-26 158l48 304h125l-48 -302q-9 -60 11 -87t69 -27q56 0 91 36t45 96l45 284h125l-80 -505h-122l16 103h15q-29 -54 -75 -83.5t-105 -29.5z" />
    <glyph glyph-name="v" unicode="v" horiz-adv-x="544" 
d="M176 0l-137 505h128l95 -395h-31l225 395h129l-299 -505h-110z" />
    <glyph glyph-name="w" unicode="w" horiz-adv-x="883" 
d="M168 0l-117 505h124l80 -393h-26l207 393h89l80 -393h-23l204 393h126l-277 -505h-110l-88 402h54l-212 -402h-111z" />
    <glyph glyph-name="x" unicode="x" horiz-adv-x="549" 
d="M-54 0l281 289l-2 -57l-179 273h141l115 -187h-44l174 187h154l-264 -273l4 57l188 -289h-145l-125 201h46l-190 -201h-154z" />
    <glyph glyph-name="y" unicode="y" horiz-adv-x="543" 
d="M-17 -227l-20 99q49 10 83 23t58.5 34t44.5 54l34 59l-6 -49l-139 512h129l95 -394h-29l222 394h130l-314 -533q-32 -54 -64.5 -89.5t-67 -57t-73 -33.5t-83.5 -19z" />
    <glyph glyph-name="z" unicode="z" horiz-adv-x="526" 
d="M8 0l13 82l367 359l-5 -30h-310l15 94h429l-13 -82l-370 -362l5 33h324l-15 -94h-440z" />
    <glyph glyph-name="braceleft" unicode="{" horiz-adv-x="392" 
d="M220 -180q-47 0 -77.5 15.5t-42.5 43t-6 63.5l30 193q6 40 -3.5 57.5t-47.5 20.5l-37 4l14 91l38 4q37 3 53.5 20.5t23.5 56.5l31 194q10 62 43.5 92t87.5 30h124l-15 -94h-69q-20 0 -33.5 -10t-17.5 -34l-30 -192q-5 -36 -24 -61.5t-43.5 -38.5t-46.5 -13v4
q22 0 41.5 -14t30.5 -40t5 -62l-29 -192q-4 -24 5 -34t30 -10h71l-15 -94h-91z" />
    <glyph glyph-name="bar" unicode="|" horiz-adv-x="282" 
d="M10 -180l140 885h125l-140 -885h-125z" />
    <glyph glyph-name="braceright" unicode="}" horiz-adv-x="392" 
d="M-57 -180l15 94h70q20 0 33.5 10t17.5 34l30 192q6 37 24.5 62t43 38.5t46.5 13.5l1 -4q-22 0 -42 14t-30.5 40t-5.5 62l30 191q4 24 -5.5 34t-29.5 10h-72l15 94h91q48 0 78 -15.5t42.5 -43t6.5 -63.5l-31 -193q-6 -40 4 -57.5t47 -20.5l37 -3l-14 -92l-37 -3
q-37 -3 -54 -21t-23 -57l-31 -194q-10 -62 -44 -92t-88 -30h-125z" />
    <glyph glyph-name="asciitilde" unicode="~" horiz-adv-x="600" 
d="M417 209q-33 0 -64.5 13t-59.5 27q-25 14 -47.5 23.5t-42.5 9.5q-28 0 -49 -16.5t-37 -45.5l-61 43q25 49 59 76t79 27q34 0 66.5 -13.5t60.5 -27.5q26 -13 47 -22.5t40 -9.5q29 0 50 16.5t37 45.5l61 -44q-25 -48 -59.5 -75t-79.5 -27z" />
    <glyph glyph-name="uni00A0" unicode="&#xa0;" horiz-adv-x="274" 
 />
    <glyph glyph-name="exclamdown" unicode="&#xa1;" horiz-adv-x="248" 
d="M-22 -180l115 477h76l-37 -477h-154zM72 367l22 138h140l-22 -138h-140z" />
    <glyph glyph-name="cent" unicode="&#xa2;" horiz-adv-x="600" 
d="M208 -115l22 140l20 -28q-91 17 -137.5 82.5t-29.5 173.5q17 103 80 164.5t165 74.5l-29 -33l24 150h100l-23 -143l-22 29q49 -1 90.5 -14.5t67.5 -39.5l-41 -84q-24 21 -56 31t-62 10q-64 0 -109 -37.5t-57 -111.5q-8 -48 3.5 -84.5t42 -56.5t76.5 -20q30 0 64.5 11.5
t64.5 34.5l36 -85q-34 -28 -89 -44.5t-112 -14.5l32 29l-21 -134h-100z" />
    <glyph glyph-name="sterling" unicode="&#xa3;" horiz-adv-x="600" 
d="M3 0l13 86q44 15 70 37.5t32 59.5l21 132h-87l12 77h87l17 105q17 106 84 162t176 56q63 0 113.5 -17.5t84.5 -51.5l-47 -90q-34 29 -67.5 42.5t-77.5 13.5q-61 0 -94.5 -28.5t-42.5 -87.5l-17 -104h169l-12 -77h-168l-17 -102q-7 -45 -30 -72.5t-58 -40.5l1 5h380
l-17 -105h-525z" />
    <glyph glyph-name="currency" unicode="&#xa4;" horiz-adv-x="600" 
d="M116 -30l-51 52l73 75q-22 31 -34.5 69t-12.5 79q0 42 12.5 80t34.5 69l-73 75l51 51l74 -75q30 23 66.5 35.5t76.5 12.5t76 -12t66 -35l73 76l54 -55l-74 -75q23 -31 34.5 -68.5t11.5 -78.5t-12 -78.5t-35 -69.5l74 -75l-51 -51l-73 75q-30 -23 -66.5 -36t-77.5 -13
q-40 0 -77 13t-67 35zM333 98q38 0 69.5 20t50 53.5t18.5 73.5q0 41 -18.5 74.5t-50 53.5t-69.5 20t-70 -20t-50.5 -53.5t-18.5 -74.5q0 -40 18.5 -73.5t50 -53.5t70.5 -20z" />
    <glyph glyph-name="yen" unicode="&#xa5;" horiz-adv-x="600" 
d="M196 0l26 166h-167l11 74h168l13 82h-168l12 74h140l-2 -15l-173 324h135l145 -284h-29l237 284h144l-276 -324l2 15h141l-12 -74h-168l-13 -82h168l-11 -74h-168l-27 -166h-128z" />
    <glyph glyph-name="brokenbar" unicode="&#xa6;" horiz-adv-x="282" 
d="M97 372l53 333h125l-53 -333h-125zM10 -180l53 334h125l-53 -334h-125z" />
    <glyph glyph-name="section" unicode="&#xa7;" horiz-adv-x="570" 
d="M221 -190q-65 0 -122.5 17t-104.5 50l43 82q23 -19 52 -32.5t62 -21t66 -7.5q55 0 87 26.5t32 68.5q0 32 -15 51t-50 38l-115 64q-56 32 -85 71t-29 85q0 51 24.5 90.5t71.5 67.5l-4 -13q-8 17 -12.5 34.5t-4.5 38.5q0 61 32 104.5t85.5 67t118.5 23.5q57 0 110 -15.5
t96 -48.5l-37 -80q-33 26 -78.5 41t-87.5 15q-55 0 -87 -26.5t-32 -69.5q0 -31 15 -50.5t50 -39.5l113 -63q58 -32 87 -71t29 -84q0 -51 -25.5 -91t-72.5 -69l3 19q11 -17 15.5 -35.5t4.5 -39.5q0 -62 -32 -106.5t-85 -67.5t-118 -23zM153 324q0 -28 19.5 -51t56.5 -44
l104 -57q21 -13 37.5 -25t26.5 -26h-14q19 19 28 40t9 40q0 28 -20 50.5t-58 44.5l-102 55q-20 13 -36.5 25t-27.5 27l16 5q-20 -20 -29.5 -42t-9.5 -42z" />
    <glyph glyph-name="dieresis" unicode="&#xa8;" horiz-adv-x="500" 
d="M342 597l17 115h115l-18 -115h-114zM153 597l17 115h115l-17 -115h-115z" />
    <glyph glyph-name="copyright" unicode="&#xa9;" horiz-adv-x="815" 
d="M429 -10q-77 0 -143 27.5t-115.5 77t-77 115.5t-27.5 143t27.5 143t77 115t115.5 76.5t143 27.5t143 -27.5t115 -76.5t76.5 -115t27.5 -143t-27.5 -143t-76.5 -115.5t-115 -77t-143 -27.5zM446 137q-100 0 -158 59t-58 159q0 99 58 156t158 57q40 0 80 -12.5t65 -35.5
l-31 -75q-23 20 -50 30t-55 10q-55 0 -87 -34.5t-32 -96.5t32 -97.5t87 -35.5q28 0 55 10t50 30l31 -75q-25 -22 -65.5 -35.5t-79.5 -13.5zM429 43q66 0 121.5 23.5t97 65.5t64.5 98.5t23 122.5t-23 122.5t-64.5 98t-97 65t-121.5 23.5t-122 -23.5t-97.5 -65t-64.5 -98
t-23 -122.5t23 -122.5t64.5 -98.5t97.5 -65.5t122 -23.5z" />
    <glyph glyph-name="ordfeminine" unicode="&#xaa;" horiz-adv-x="341" 
d="M160 408q-32 0 -56 12.5t-35.5 35.5t-7.5 53q5 30 25.5 47.5t56 25t84.5 7.5h63l-8 -44h-64q-70 0 -76 -39q-3 -19 8 -31t36 -12q32 0 56.5 21t30.5 58l9 58q4 26 -10 40t-49 14q-24 0 -53 -6.5t-55 -20.5l-18 57q27 14 65 22.5t72 8.5q74 0 105.5 -32t20.5 -97l-28 -172
h-76l9 55h-3q-19 -31 -44 -46t-58 -15z" />
    <glyph glyph-name="guillemotleft" unicode="&#xab;" horiz-adv-x="498" 
d="M128 86l-102 181l160 183h112l-163 -190l95 -174h-102zM336 86l-102 181l160 183h112l-163 -190l95 -174h-102z" />
    <glyph glyph-name="logicalnot" unicode="&#xac;" horiz-adv-x="600" 
d="M437 140l33 204h-401l14 88h491l-46 -292h-91z" />
    <glyph glyph-name="uni00AD" unicode="&#xad;" horiz-adv-x="438" 
d="M63 226l16 99h303l-15 -99h-304z" />
    <glyph glyph-name="registered" unicode="&#xae;" horiz-adv-x="815" 
d="M429 -10q-77 0 -143 27.5t-115.5 77t-77 115.5t-27.5 143t27.5 143t77 115t115.5 76.5t143 27.5t143 -27.5t115 -76.5t76.5 -115t27.5 -143t-27.5 -143t-76.5 -115.5t-115 -77t-143 -27.5zM429 43q66 0 121.5 23.5t97 65.5t64.5 98.5t23 122.5t-23 122.5t-64.5 98t-97 65
t-121.5 23.5t-122 -23.5t-97.5 -65t-64.5 -98t-23 -122.5t23 -122.5t64.5 -98.5t97.5 -65.5t122 -23.5zM273 142v423h184q70 0 108 -34.5t38 -90.5q0 -58 -37 -88.5t-105 -30.5l22 11q33 0 53.5 -15.5t32.5 -59.5l38 -115h-97l-40 125q-7 22 -21.5 29.5t-35.5 7.5h-59l16 11
v-173h-97zM369 376h74q35 0 51.5 14t16.5 45q0 30 -16.5 44t-51.5 14h-74v-117z" />
    <glyph glyph-name="macron" unicode="&#xaf;" horiz-adv-x="500" 
d="M150 616l11 74h316l-12 -74h-315z" />
    <glyph glyph-name="degree" unicode="&#xb0;" horiz-adv-x="379" 
d="M240 405q-45 0 -80.5 20t-56 55t-20.5 79t20.5 79t56 55t80.5 20t80 -20t55.5 -55t20.5 -79t-20.5 -79t-55.5 -55t-80 -20zM240 476q35 0 57 23.5t22 59.5t-22 59.5t-57 23.5t-57.5 -23.5t-22.5 -59.5t22.5 -59.5t57.5 -23.5z" />
    <glyph glyph-name="plusminus" unicode="&#xb1;" horiz-adv-x="600" 
d="M237 139l24 152h-201l14 88h201l24 152h91l-24 -152h198l-13 -88h-199l-24 -152h-91zM14 0l14 88h491l-14 -88h-491z" />
    <glyph glyph-name="uni00B2" unicode="&#xb2;" horiz-adv-x="380" 
d="M51 282l12 73l151 130q29 26 43.5 46t17.5 38q5 29 -9.5 43t-44.5 14q-25 0 -55 -9.5t-54 -27.5l-17 76q30 21 69 32.5t84 11.5q72 0 110 -34.5t28 -95.5q-5 -28 -25 -58t-60 -64l-118 -101l-3 10h188l-14 -84h-303z" />
    <glyph glyph-name="uni00B3" unicode="&#xb3;" horiz-adv-x="380" 
d="M201 277q-50 0 -89 10.5t-65 30.5l24 73q23 -17 54.5 -26t68.5 -9q35 0 57 13.5t26 40.5q4 25 -13 36.5t-49 11.5h-84l12 74h72q32 0 52 13t24 38q4 23 -11 35.5t-50 12.5q-31 0 -64.5 -10.5t-55.5 -27.5l-17 74q33 20 74 31t86 11q74 0 110.5 -31.5t27.5 -84.5
q-6 -39 -36.5 -66t-71.5 -35l2 11q47 -5 70.5 -33.5t15.5 -75.5q-8 -55 -56.5 -86t-113.5 -31z" />
    <glyph glyph-name="acute" unicode="&#xb4;" horiz-adv-x="500" 
d="M256 554l132 203h126l-174 -203h-84z" />
    <glyph glyph-name="uni00B5" unicode="&#xb5;" horiz-adv-x="581" 
d="M-12 -216l113 721h125l-46 -304q-9 -57 9 -84.5t64 -27.5q56 0 91 38t45 102l42 276h125l-78 -505h-122l16 102h4q-19 -52 -53 -82t-81 -30q-35 0 -61 14t-38 40l2 1l-31 -261h-126z" />
    <glyph glyph-name="paragraph" unicode="&#xb6;" horiz-adv-x="632" 
d="M185 -180l73 460q-56 0 -98 24.5t-64.5 66t-22.5 93.5q0 73 32 127t88.5 84t128.5 30h303l-140 -885h-91l126 794h-118l-126 -794h-91z" />
    <glyph glyph-name="periodcentered" unicode="&#xb7;" horiz-adv-x="251" 
d="M48 206l22 139h140l-21 -139h-141z" />
    <glyph glyph-name="cedilla" unicode="&#xb8;" horiz-adv-x="500" 
d="M181 -195q-29 0 -55.5 5.5t-44.5 15.5l23 56q17 -8 34.5 -12.5t38.5 -4.5q27 0 42 8t15 24q0 10 -8.5 15.5t-26.5 5.5q-9 0 -18.5 -1t-23.5 -5l-17 18l28 90h66l-24 -76l-31 11q12 4 24 6t22 2q39 0 61.5 -17t22.5 -49q0 -42 -36.5 -67t-91.5 -25z" />
    <glyph glyph-name="uni00B9" unicode="&#xb9;" horiz-adv-x="380" 
d="M66 282l14 84h99l39 252l42 -1l-142 -71l15 96l126 63h74l-54 -339h85l-13 -84h-285z" />
    <glyph glyph-name="ordmasculine" unicode="&#xba;" horiz-adv-x="356" 
d="M210 409q-72 0 -111 42.5t-28 118.5q11 68 57 106.5t116 38.5q73 0 112 -41.5t27 -118.5q-10 -67 -56 -106.5t-117 -39.5zM214 472q33 0 57 23.5t31 67.5t-9.5 67t-51.5 23q-34 0 -57.5 -22.5t-30.5 -67.5t9.5 -68t51.5 -23z" />
    <glyph glyph-name="guillemotright" unicode="&#xbb;" horiz-adv-x="498" 
d="M117 86h-112l162 191l-95 173h103l102 -181zM324 86h-112l162 191l-95 173h103l102 -181z" />
    <glyph glyph-name="onequarter" unicode="&#xbc;" horiz-adv-x="914" 
d="M66 282l14 84h99l39 252l42 -1l-142 -71l15 96l126 63h74l-54 -339h85l-13 -84h-285zM286 -10h-108l539 725h109zM711 0l12 75h-196l11 69l248 279h84l-43 -272h59l-12 -76h-59l-12 -75h-92zM738 151l27 173h13l-165 -188l-1 15h126z" />
    <glyph glyph-name="onehalf" unicode="&#xbd;" horiz-adv-x="962" 
d="M66 282l14 84h99l39 252l42 -1l-142 -71l15 96l126 63h74l-54 -339h85l-13 -84h-285zM286 -10h-108l539 725h109zM588 0l12 73l151 130q29 26 43.5 46t17.5 38q5 29 -9.5 43t-44.5 14q-25 0 -55 -9.5t-54 -27.5l-17 76q30 21 69 32.5t84 11.5q72 0 110 -34.5t28 -95.5
q-5 -28 -25 -58t-60 -64l-118 -101l-3 10h188l-14 -84h-303z" />
    <glyph glyph-name="threequarters" unicode="&#xbe;" horiz-adv-x="914" 
d="M201 277q-50 0 -89 10.5t-65 30.5l24 73q23 -17 54.5 -26t68.5 -9q35 0 57 13.5t26 40.5q4 25 -13 36.5t-49 11.5h-84l12 74h72q32 0 52 13t24 38q4 23 -11 35.5t-50 12.5q-31 0 -64.5 -10.5t-55.5 -27.5l-17 74q33 20 74 31t86 11q74 0 110.5 -31.5t27.5 -84.5
q-6 -39 -36.5 -66t-71.5 -35l2 11q47 -5 70.5 -33.5t15.5 -75.5q-8 -55 -56.5 -86t-113.5 -31zM286 -10h-108l539 725h109zM711 0l12 75h-196l11 69l248 279h84l-43 -272h59l-12 -76h-59l-12 -75h-92zM738 151l27 173h13l-165 -188l-1 15h126z" />
    <glyph glyph-name="questiondown" unicode="&#xbf;" horiz-adv-x="464" 
d="M159 -203q-53 0 -94 17.5t-63.5 49.5t-22.5 74q0 43 17.5 79t46 65.5t61.5 54.5q57 44 80 76.5t33 62.5l8 21h76l-6 -33q-5 -30 -16.5 -57.5t-33 -55.5t-58.5 -61q-20 -18 -38 -38.5t-29 -43t-11 -46.5q0 -28 22.5 -44t62.5 -16t79.5 12.5t76.5 31.5l-17 -107
q-37 -20 -84 -31t-90 -11zM367 505l-22 -138h-141l22 138h141z" />
    <glyph glyph-name="Agrave" unicode="&#xc0;" horiz-adv-x="750" 
d="M-40 0l431 705h108l211 -705h-126l-55 198l47 -35h-423l59 35l-117 -198h-135zM427 567l-194 -334l-21 31h336l-26 -31l-91 334h-4zM411 765l-145 174h129l105 -174h-89z" />
    <glyph glyph-name="Aacute" unicode="&#xc1;" horiz-adv-x="750" 
d="M-40 0l431 705h108l211 -705h-126l-55 198l47 -35h-423l59 35l-117 -198h-135zM427 567l-194 -334l-21 31h336l-26 -31l-91 334h-4zM412 765l130 174h133l-174 -174h-89z" />
    <glyph glyph-name="Acircumflex" unicode="&#xc2;" horiz-adv-x="750" 
d="M-40 0l431 705h108l211 -705h-126l-55 198l47 -35h-423l59 35l-117 -198h-135zM427 567l-194 -334l-21 31h336l-26 -31l-91 334h-4zM271 765l142 174h107l107 -174h-87l-79 104l-103 -104h-87z" />
    <glyph glyph-name="Atilde" unicode="&#xc3;" horiz-adv-x="750" 
d="M-40 0l431 705h108l211 -705h-126l-55 198l47 -35h-423l59 35l-117 -198h-135zM427 567l-194 -334l-21 31h336l-26 -31l-91 334h-4zM293 772l-62 4q11 71 48.5 109.5t92.5 38.5q30 0 56 -11.5t49 -25.5q20 -11 38 -20t37 -9q56 0 74 70l62 -4q-11 -71 -48 -109.5
t-92 -38.5q-30 0 -56 12t-49 25q-20 11 -38.5 20t-37.5 9q-56 0 -74 -70z" />
    <glyph glyph-name="Adieresis" unicode="&#xc4;" horiz-adv-x="750" 
d="M-40 0l431 705h108l211 -705h-126l-55 198l47 -35h-423l59 35l-117 -198h-135zM427 567l-194 -334l-21 31h336l-26 -31l-91 334h-4zM496 790l18 115h115l-19 -115h-114zM307 790l18 115h115l-18 -115h-115z" />
    <glyph glyph-name="Aring" unicode="&#xc5;" horiz-adv-x="750" 
d="M-40 0l431 705h108l211 -705h-126l-55 198l47 -35h-423l59 35l-117 -198h-135zM427 567l-194 -334l-21 31h336l-26 -31l-91 334h-4zM469 755q-35 0 -64 16.5t-45.5 44.5t-16.5 62q0 35 16.5 62.5t45.5 43.5t64 16q36 0 64.5 -16t45 -43.5t16.5 -62.5q0 -34 -16.5 -62
t-45 -44.5t-64.5 -16.5zM469 812q29 0 47 19t18 47t-18 46.5t-47 18.5q-28 0 -46.5 -18.5t-18.5 -46.5t18.5 -47t46.5 -19z" />
    <glyph glyph-name="AE" unicode="&#xc6;" horiz-adv-x="1017" 
d="M-60 0l549 705h558l-17 -101h-377l27 21l-19 -251l-12 35h329l-16 -102h-326l20 10l-17 -243l-12 28h324l-16 -102h-419l14 194l24 -31h-369l48 34l-149 -197h-144zM539 603l-279 -369l-8 31h298l-16 -35l28 373h-23z" />
    <glyph glyph-name="Ccedilla" unicode="&#xc7;" horiz-adv-x="685" 
d="M383 -10q-120 0 -195 48.5t-103.5 134t-11.5 195.5q18 111 70.5 188.5t135.5 118.5t190 40q70 0 125.5 -19.5t93.5 -54.5l-46 -103q-42 35 -82.5 49t-96.5 14q-103 0 -170 -62.5t-86 -178.5q-12 -78 4.5 -135.5t63.5 -89t123 -31.5q50 0 99 16.5t96 54.5l38 -101
q-49 -40 -114 -62t-134 -22zM336 -195q-29 0 -55.5 5.5t-44.5 15.5l23 56q17 -8 34.5 -12.5t38.5 -4.5q27 0 42 8t15 24q0 10 -8.5 15.5t-26.5 5.5q-9 0 -18.5 -1t-23.5 -5l-17 18l28 90h66l-24 -76l-31 11q12 4 24 6t22 2q39 0 61.5 -17t22.5 -49q0 -42 -36.5 -67
t-91.5 -25z" />
    <glyph glyph-name="Egrave" unicode="&#xc8;" horiz-adv-x="595" 
d="M38 0l112 705h475l-16 -101h-352l-30 -195h328l-16 -102h-328l-33 -205h351l-16 -102h-475zM370 765l-145 174h129l105 -174h-89z" />
    <glyph glyph-name="Eacute" unicode="&#xc9;" horiz-adv-x="595" 
d="M38 0l112 705h475l-16 -101h-352l-30 -195h328l-16 -102h-328l-33 -205h351l-16 -102h-475zM371 765l130 174h133l-174 -174h-89z" />
    <glyph glyph-name="Ecircumflex" unicode="&#xca;" horiz-adv-x="595" 
d="M38 0l112 705h475l-16 -101h-352l-30 -195h328l-16 -102h-328l-33 -205h351l-16 -102h-475zM230 765l142 174h107l107 -174h-87l-79 104l-103 -104h-87z" />
    <glyph glyph-name="Edieresis" unicode="&#xcb;" horiz-adv-x="595" 
d="M38 0l112 705h475l-16 -101h-352l-30 -195h328l-16 -102h-328l-33 -205h351l-16 -102h-475zM455 790l18 115h115l-19 -115h-114zM266 790l18 115h115l-18 -115h-115z" />
    <glyph glyph-name="Igrave" unicode="&#xcc;" horiz-adv-x="284" 
d="M38 0l112 705h129l-112 -705h-129zM179 765l-145 174h129l105 -174h-89z" />
    <glyph glyph-name="Iacute" unicode="&#xcd;" horiz-adv-x="284" 
d="M38 0l112 705h129l-112 -705h-129zM180 765l130 174h133l-174 -174h-89z" />
    <glyph glyph-name="Icircumflex" unicode="&#xce;" horiz-adv-x="284" 
d="M38 0l112 705h129l-112 -705h-129zM39 765l142 174h107l107 -174h-87l-79 104l-103 -104h-87z" />
    <glyph glyph-name="Idieresis" unicode="&#xcf;" horiz-adv-x="284" 
d="M38 0l112 705h129l-112 -705h-129zM264 790l18 115h115l-19 -115h-114zM75 790l18 115h115l-18 -115h-115z" />
    <glyph glyph-name="Eth" unicode="&#xd0;" horiz-adv-x="762" 
d="M38 0l112 705h244q128 0 206.5 -44.5t108.5 -126.5t12 -196q-27 -169 -135.5 -253.5t-286.5 -84.5h-261zM184 107h119q128 0 199.5 59t90.5 180q20 130 -33 191.5t-181 61.5h-118zM3 310l15 94h405l-15 -94h-405z" />
    <glyph glyph-name="Ntilde" unicode="&#xd1;" horiz-adv-x="755" 
d="M38 0l112 705h97l322 -536l-23 7l84 529h120l-112 -705h-97l-322 536l23 -7l-84 -529h-120zM299 772l-62 4q11 71 48.5 109.5t92.5 38.5q30 0 56 -11.5t49 -25.5q20 -11 38 -20t37 -9q56 0 74 70l62 -4q-11 -71 -48 -109.5t-92 -38.5q-30 0 -56 12t-49 25
q-20 11 -38.5 20t-37.5 9q-56 0 -74 -70z" />
    <glyph glyph-name="Ograve" unicode="&#xd2;" horiz-adv-x="787" 
d="M73 368q18 111 69 188.5t130.5 118t180.5 40.5q112 0 183 -48.5t99 -133.5t10 -195q-17 -111 -68.5 -188.5t-130.5 -118.5t-181 -41q-111 0 -182 48.5t-99 134t-11 195.5zM207 358q-13 -81 2.5 -138.5t57.5 -88.5t108 -31q99 0 159 66.5t78 181.5q13 81 -3 138.5t-58 88
t-109 30.5q-99 0 -157.5 -65.5t-77.5 -181.5zM430 765l-145 174h129l105 -174h-89z" />
    <glyph glyph-name="Oacute" unicode="&#xd3;" horiz-adv-x="787" 
d="M73 368q18 111 69 188.5t130.5 118t180.5 40.5q112 0 183 -48.5t99 -133.5t10 -195q-17 -111 -68.5 -188.5t-130.5 -118.5t-181 -41q-111 0 -182 48.5t-99 134t-11 195.5zM207 358q-13 -81 2.5 -138.5t57.5 -88.5t108 -31q99 0 159 66.5t78 181.5q13 81 -3 138.5t-58 88
t-109 30.5q-99 0 -157.5 -65.5t-77.5 -181.5zM431 765l130 174h133l-174 -174h-89z" />
    <glyph glyph-name="Ocircumflex" unicode="&#xd4;" horiz-adv-x="787" 
d="M73 368q18 111 69 188.5t130.5 118t180.5 40.5q112 0 183 -48.5t99 -133.5t10 -195q-17 -111 -68.5 -188.5t-130.5 -118.5t-181 -41q-111 0 -182 48.5t-99 134t-11 195.5zM207 358q-13 -81 2.5 -138.5t57.5 -88.5t108 -31q99 0 159 66.5t78 181.5q13 81 -3 138.5t-58 88
t-109 30.5q-99 0 -157.5 -65.5t-77.5 -181.5zM290 765l142 174h107l107 -174h-87l-79 104l-103 -104h-87z" />
    <glyph glyph-name="Otilde" unicode="&#xd5;" horiz-adv-x="787" 
d="M73 368q18 111 69 188.5t130.5 118t180.5 40.5q112 0 183 -48.5t99 -133.5t10 -195q-17 -111 -68.5 -188.5t-130.5 -118.5t-181 -41q-111 0 -182 48.5t-99 134t-11 195.5zM207 358q-13 -81 2.5 -138.5t57.5 -88.5t108 -31q99 0 159 66.5t78 181.5q13 81 -3 138.5t-58 88
t-109 30.5q-99 0 -157.5 -65.5t-77.5 -181.5zM312 772l-62 4q11 71 48.5 109.5t92.5 38.5q30 0 56 -11.5t49 -25.5q20 -11 38 -20t37 -9q56 0 74 70l62 -4q-11 -71 -48 -109.5t-92 -38.5q-30 0 -56 12t-49 25q-20 11 -38.5 20t-37.5 9q-56 0 -74 -70z" />
    <glyph glyph-name="Odieresis" unicode="&#xd6;" horiz-adv-x="787" 
d="M73 368q18 111 69 188.5t130.5 118t180.5 40.5q112 0 183 -48.5t99 -133.5t10 -195q-17 -111 -68.5 -188.5t-130.5 -118.5t-181 -41q-111 0 -182 48.5t-99 134t-11 195.5zM207 358q-13 -81 2.5 -138.5t57.5 -88.5t108 -31q99 0 159 66.5t78 181.5q13 81 -3 138.5t-58 88
t-109 30.5q-99 0 -157.5 -65.5t-77.5 -181.5zM515 790l18 115h115l-19 -115h-114zM326 790l18 115h115l-18 -115h-115z" />
    <glyph glyph-name="multiply" unicode="&#xd7;" horiz-adv-x="600" 
d="M127 51l-61 62l188 174l-156 170l64 63l157 -172l187 172l60 -63l-188 -172l156 -172l-63 -62l-157 172z" />
    <glyph glyph-name="Oslash" unicode="&#xd8;" horiz-adv-x="787" 
d="M73 368q18 111 69 188.5t130.5 118t180.5 40.5q112 0 183 -48.5t99 -133.5t10 -195q-17 -111 -68.5 -188.5t-130.5 -118.5t-181 -41q-111 0 -182 48.5t-99 134t-11 195.5zM207 358q-13 -81 2.5 -138.5t57.5 -88.5t108 -31q99 0 159 66.5t78 181.5q13 81 -3 138.5t-58 88
t-109 30.5q-99 0 -157.5 -65.5t-77.5 -181.5zM254 62l-80 -109l-78 54l81 109l49 53l318 422l29 54l81 108l78 -54l-81 -108l-49 -54l-318 -422z" />
    <glyph glyph-name="Ugrave" unicode="&#xd9;" horiz-adv-x="740" 
d="M340 -10q-94 0 -158 33.5t-91 100.5t-11 169l66 412h129l-66 -417q-15 -93 18 -140.5t126 -47.5q83 0 130.5 45t63.5 145l66 415h127l-67 -421q-16 -100 -57 -165t-109.5 -97t-166.5 -32zM409 765l-145 174h129l105 -174h-89z" />
    <glyph glyph-name="Uacute" unicode="&#xda;" horiz-adv-x="740" 
d="M340 -10q-94 0 -158 33.5t-91 100.5t-11 169l66 412h129l-66 -417q-15 -93 18 -140.5t126 -47.5q83 0 130.5 45t63.5 145l66 415h127l-67 -421q-16 -100 -57 -165t-109.5 -97t-166.5 -32zM410 765l130 174h133l-174 -174h-89z" />
    <glyph glyph-name="Ucircumflex" unicode="&#xdb;" horiz-adv-x="740" 
d="M340 -10q-94 0 -158 33.5t-91 100.5t-11 169l66 412h129l-66 -417q-15 -93 18 -140.5t126 -47.5q83 0 130.5 45t63.5 145l66 415h127l-67 -421q-16 -100 -57 -165t-109.5 -97t-166.5 -32zM269 765l142 174h107l107 -174h-87l-79 104l-103 -104h-87z" />
    <glyph glyph-name="Udieresis" unicode="&#xdc;" horiz-adv-x="740" 
d="M340 -10q-94 0 -158 33.5t-91 100.5t-11 169l66 412h129l-66 -417q-15 -93 18 -140.5t126 -47.5q83 0 130.5 45t63.5 145l66 415h127l-67 -421q-16 -100 -57 -165t-109.5 -97t-166.5 -32zM494 790l18 115h115l-19 -115h-114zM305 790l18 115h115l-18 -115h-115z" />
    <glyph glyph-name="Yacute" unicode="&#xdd;" horiz-adv-x="629" 
d="M210 0l53 333l14 -77l-230 449h143l157 -320h-28l259 320h149l-374 -454l39 82l-53 -333h-129zM353 765l130 174h133l-174 -174h-89z" />
    <glyph glyph-name="Thorn" unicode="&#xde;" horiz-adv-x="667" 
d="M38 0l112 705h129l-20 -123h172q122 0 176.5 -60.5t38.5 -163.5q-9 -60 -42.5 -104.5t-89 -68.5t-132.5 -24h-190l-25 -161h-129zM208 263h169q65 0 101 26t44 78q9 56 -19 85t-93 29h-167z" />
    <glyph glyph-name="germandbls" unicode="&#xdf;" horiz-adv-x="674" 
d="M28 0l75 474q22 135 95.5 202.5t206.5 67.5q68 0 117.5 -22t72.5 -64.5t13 -105.5q-5 -36 -25.5 -70.5t-61.5 -65.5t-110 -56l2 24q81 -23 133 -54t74 -73.5t13 -100.5q-8 -54 -39 -91t-78 -56t-105 -19q-63 0 -108 14t-78 38l36 84q35 -22 70.5 -33.5t75.5 -11.5
q46 0 74 21t34 60q5 31 -11.5 58t-62.5 51.5t-132 46.5l15 95q61 19 96 40.5t51 46t20 51.5q8 47 -17 74t-80 27q-68 0 -108.5 -38t-54.5 -124l-78 -490h-125z" />
    <glyph glyph-name="agrave" unicode="&#xe0;" horiz-adv-x="620" 
d="M234 -10q-69 0 -117 34t-67.5 96.5t-6.5 147.5q20 122 90.5 184.5t168.5 62.5q63 0 107 -30.5t53 -82.5l-10 -3l28 106h120q-8 -31 -15.5 -63t-12.5 -63l-60 -379h-124l17 107h16q-25 -54 -72.5 -85.5t-114.5 -31.5zM275 86q58 0 99.5 40.5t54.5 121.5q14 88 -16.5 129.5
t-91.5 41.5q-58 0 -99 -40.5t-54 -120.5q-14 -88 16 -130t91 -42zM310 554l-142 203h122l104 -203h-84z" />
    <glyph glyph-name="aacute" unicode="&#xe1;" horiz-adv-x="620" 
d="M234 -10q-69 0 -117 34t-67.5 96.5t-6.5 147.5q20 122 90.5 184.5t168.5 62.5q63 0 107 -30.5t53 -82.5l-10 -3l28 106h120q-8 -31 -15.5 -63t-12.5 -63l-60 -379h-124l17 107h16q-25 -54 -72.5 -85.5t-114.5 -31.5zM275 86q58 0 99.5 40.5t54.5 121.5q14 88 -16.5 129.5
t-91.5 41.5q-58 0 -99 -40.5t-54 -120.5q-14 -88 16 -130t91 -42zM311 554l132 203h126l-174 -203h-84z" />
    <glyph glyph-name="acircumflex" unicode="&#xe2;" horiz-adv-x="620" 
d="M234 -10q-69 0 -117 34t-67.5 96.5t-6.5 147.5q20 122 90.5 184.5t168.5 62.5q63 0 107 -30.5t53 -82.5l-10 -3l28 106h120q-8 -31 -15.5 -63t-12.5 -63l-60 -379h-124l17 107h16q-25 -54 -72.5 -85.5t-114.5 -31.5zM275 86q58 0 99.5 40.5t54.5 121.5q14 88 -16.5 129.5
t-91.5 41.5q-58 0 -99 -40.5t-54 -120.5q-14 -88 16 -130t91 -42zM183 554l132 203h109l90 -203h-79l-71 132l-101 -132h-80z" />
    <glyph glyph-name="atilde" unicode="&#xe3;" horiz-adv-x="620" 
d="M234 -10q-69 0 -117 34t-67.5 96.5t-6.5 147.5q20 122 90.5 184.5t168.5 62.5q63 0 107 -30.5t53 -82.5l-10 -3l28 106h120q-8 -31 -15.5 -63t-12.5 -63l-60 -379h-124l17 107h16q-25 -54 -72.5 -85.5t-114.5 -31.5zM275 86q58 0 99.5 40.5t54.5 121.5q14 88 -16.5 129.5
t-91.5 41.5q-58 0 -99 -40.5t-54 -120.5q-14 -88 16 -130t91 -42zM226 584l-62 4q10 71 44 109.5t85 38.5q27 0 45.5 -11t34.5 -25q14 -12 28.5 -21t31.5 -9q50 0 67 70l62 -4q-10 -71 -44 -109.5t-84 -38.5q-27 0 -46.5 12t-35.5 25q-14 11 -28 20t-31 9q-50 0 -67 -70z
" />
    <glyph glyph-name="adieresis" unicode="&#xe4;" horiz-adv-x="620" 
d="M234 -10q-69 0 -117 34t-67.5 96.5t-6.5 147.5q20 122 90.5 184.5t168.5 62.5q63 0 107 -30.5t53 -82.5l-10 -3l28 106h120q-8 -31 -15.5 -63t-12.5 -63l-60 -379h-124l17 107h16q-25 -54 -72.5 -85.5t-114.5 -31.5zM275 86q58 0 99.5 40.5t54.5 121.5q14 88 -16.5 129.5
t-91.5 41.5q-58 0 -99 -40.5t-54 -120.5q-14 -88 16 -130t91 -42zM398 597l17 115h115l-18 -115h-114zM209 597l17 115h115l-17 -115h-115z" />
    <glyph glyph-name="aring" unicode="&#xe5;" horiz-adv-x="620" 
d="M234 -10q-69 0 -117 34t-67.5 96.5t-6.5 147.5q20 122 90.5 184.5t168.5 62.5q63 0 107 -30.5t53 -82.5l-10 -3l28 106h120q-8 -31 -15.5 -63t-12.5 -63l-60 -379h-124l17 107h16q-25 -54 -72.5 -85.5t-114.5 -31.5zM275 86q58 0 99.5 40.5t54.5 121.5q14 88 -16.5 129.5
t-91.5 41.5q-58 0 -99 -40.5t-54 -120.5q-14 -88 16 -130t91 -42zM371 546q-35 0 -64 16t-45.5 44t-16.5 62q0 35 16.5 62.5t45.5 44t64 16.5q36 0 64.5 -16.5t45 -44t16.5 -62.5q0 -34 -16.5 -62t-45 -44t-64.5 -16zM371 603q29 0 47 19t18 46q0 29 -18 47t-47 18
q-28 0 -46.5 -18t-18.5 -46q0 -29 18.5 -47.5t46.5 -18.5z" />
    <glyph glyph-name="ae" unicode="&#xe6;" horiz-adv-x="872" 
d="M208 -10q-66 0 -108 25t-59 65t-10 85q9 50 45 79.5t101 42.5t161 13h51l-10 -65h-56q-55 0 -94 -7t-60.5 -24t-26.5 -46q-6 -36 15.5 -58.5t67.5 -22.5q56 0 92.5 34.5t45.5 91.5l17 111q9 55 -16.5 80.5t-74.5 25.5q-46 0 -85.5 -10.5t-85.5 -35.5l-33 86
q29 17 65.5 29.5t75.5 19t75 6.5q81 0 122.5 -27t51.5 -80h-36q38 54 90 80.5t114 26.5q72 0 119 -32t66.5 -87.5t8.5 -128.5l-5 -32h-360l10 66h271l-18 -16q10 71 -15 107.5t-82 36.5q-41 0 -71.5 -19t-48.5 -52.5t-24 -75.5l-5 -33q-11 -78 23.5 -120.5t115.5 -42.5
q38 0 74.5 11.5t72.5 37.5l35 -84q-40 -30 -92 -45.5t-106 -15.5q-88 0 -144 37t-78 105h28q-28 -67 -82 -104.5t-128 -37.5z" />
    <glyph glyph-name="ccedilla" unicode="&#xe7;" horiz-adv-x="504" 
d="M272 -10q-83 0 -139 34.5t-79.5 97t-10.5 146.5q20 122 97.5 184.5t191.5 62.5q47 0 91.5 -14t71.5 -41l-41 -85q-24 22 -56 32.5t-62 10.5q-64 0 -108.5 -39.5t-57.5 -119.5q-13 -79 19.5 -125t102.5 -46q30 0 64.5 11.5t64.5 36.5l36 -86q-31 -27 -81.5 -43.5
t-103.5 -16.5zM231 -195q-29 0 -55.5 5.5t-44.5 15.5l23 56q17 -8 34.5 -12.5t38.5 -4.5q27 0 42 8t15 24q0 10 -8.5 15.5t-26.5 5.5q-9 0 -18.5 -1t-23.5 -5l-17 18l28 90h66l-24 -76l-31 11q12 4 24 6t22 2q39 0 61.5 -17t22.5 -49q0 -42 -36.5 -67t-91.5 -25z" />
    <glyph glyph-name="egrave" unicode="&#xe8;" horiz-adv-x="548" 
d="M285 -10q-89 0 -147.5 35t-82.5 98.5t-11 147.5q12 76 48.5 130.5t93.5 84t130 29.5t120.5 -32t67.5 -87.5t8 -128.5l-5 -32h-367l10 66h279l-19 -16q11 71 -14.5 107.5t-84.5 36.5q-42 0 -72.5 -19t-49 -52.5t-24.5 -75.5l-5 -33q-11 -78 23.5 -120.5t117.5 -42.5
q39 0 76.5 11.5t72.5 37.5l36 -84q-41 -30 -93 -45.5t-108 -15.5zM293 554l-142 203h122l104 -203h-84z" />
    <glyph glyph-name="eacute" unicode="&#xe9;" horiz-adv-x="548" 
d="M285 -10q-89 0 -147.5 35t-82.5 98.5t-11 147.5q12 76 48.5 130.5t93.5 84t130 29.5t120.5 -32t67.5 -87.5t8 -128.5l-5 -32h-367l10 66h279l-19 -16q11 71 -14.5 107.5t-84.5 36.5q-42 0 -72.5 -19t-49 -52.5t-24.5 -75.5l-5 -33q-11 -78 23.5 -120.5t117.5 -42.5
q39 0 76.5 11.5t72.5 37.5l36 -84q-41 -30 -93 -45.5t-108 -15.5zM294 554l132 203h126l-174 -203h-84z" />
    <glyph glyph-name="ecircumflex" unicode="&#xea;" horiz-adv-x="548" 
d="M285 -10q-89 0 -147.5 35t-82.5 98.5t-11 147.5q12 76 48.5 130.5t93.5 84t130 29.5t120.5 -32t67.5 -87.5t8 -128.5l-5 -32h-367l10 66h279l-19 -16q11 71 -14.5 107.5t-84.5 36.5q-42 0 -72.5 -19t-49 -52.5t-24.5 -75.5l-5 -33q-11 -78 23.5 -120.5t117.5 -42.5
q39 0 76.5 11.5t72.5 37.5l36 -84q-41 -30 -93 -45.5t-108 -15.5zM166 554l132 203h109l90 -203h-79l-71 132l-101 -132h-80z" />
    <glyph glyph-name="edieresis" unicode="&#xeb;" horiz-adv-x="548" 
d="M285 -10q-89 0 -147.5 35t-82.5 98.5t-11 147.5q12 76 48.5 130.5t93.5 84t130 29.5t120.5 -32t67.5 -87.5t8 -128.5l-5 -32h-367l10 66h279l-19 -16q11 71 -14.5 107.5t-84.5 36.5q-42 0 -72.5 -19t-49 -52.5t-24.5 -75.5l-5 -33q-11 -78 23.5 -120.5t117.5 -42.5
q39 0 76.5 11.5t72.5 37.5l36 -84q-41 -30 -93 -45.5t-108 -15.5zM381 597l17 115h115l-18 -115h-114zM192 597l17 115h115l-17 -115h-115z" />
    <glyph glyph-name="igrave" unicode="&#xec;" horiz-adv-x="261" 
d="M28 0l80 505h125l-80 -505h-125zM136 554l-142 203h122l104 -203h-84z" />
    <glyph glyph-name="iacute" unicode="&#xed;" horiz-adv-x="261" 
d="M28 0l80 505h125l-80 -505h-125zM137 554l132 203h126l-174 -203h-84z" />
    <glyph glyph-name="icircumflex" unicode="&#xee;" horiz-adv-x="261" 
d="M28 0l80 505h125l-80 -505h-125zM9 554l132 203h109l90 -203h-79l-71 132l-101 -132h-80z" />
    <glyph glyph-name="idieresis" unicode="&#xef;" horiz-adv-x="261" 
d="M28 0l80 505h125l-80 -505h-125zM224 597l17 115h115l-18 -115h-114zM35 597l17 115h115l-17 -115h-115z" />
    <glyph glyph-name="eth" unicode="&#xf0;" horiz-adv-x="599" 
d="M265 -10q-79 0 -134 31t-79.5 87.5t-12.5 130.5q10 66 47 114.5t93 74.5t125 26q71 0 118 -32.5t57 -103.5h-28q12 77 -10 146t-75 119h28l-214 -88l-23 55l177 72l-2 -14q-28 20 -61 34.5t-70 22.5l33 80q68 -10 120.5 -33.5t91.5 -55.5l-25 3l129 53l24 -54l-106 -44
l3 18q43 -46 66.5 -104t29.5 -122.5t-5 -131.5q-22 -139 -100 -211.5t-197 -72.5zM273 87q59 0 99 36.5t50 97.5q11 65 -18 101.5t-91 36.5q-60 0 -99.5 -35t-50.5 -99q-10 -66 19.5 -102t90.5 -36z" />
    <glyph glyph-name="ntilde" unicode="&#xf1;" horiz-adv-x="603" 
d="M28 0l60 379q5 31 8 63t4 63h121l-6 -100l-13 -1q30 55 80.5 83t113.5 28q92 0 129 -53.5t20 -160.5l-47 -301h-125l47 301q10 62 -10.5 89t-67.5 27q-58 0 -96 -35.5t-47 -94.5l-46 -287h-125zM223 584l-62 4q10 71 44 109.5t85 38.5q27 0 45.5 -11t34.5 -25
q14 -12 28.5 -21t31.5 -9q50 0 67 70l62 -4q-10 -71 -44 -109.5t-84 -38.5q-27 0 -46.5 12t-35.5 25q-14 11 -28 20t-31 9q-50 0 -67 -70z" />
    <glyph glyph-name="ograve" unicode="&#xf2;" horiz-adv-x="592" 
d="M266 -10q-82 0 -136.5 33t-77 95.5t-9.5 149.5q13 81 52.5 136t99 83t132.5 28q83 0 137 -33t76.5 -95t8.5 -149q-13 -81 -52.5 -136t-98.5 -83.5t-132 -28.5zM273 86q57 0 98 40.5t54 121.5q14 88 -16 129.5t-90 41.5q-58 0 -98 -40.5t-53 -120.5q-14 -88 15 -130
t90 -42zM302 554l-142 203h122l104 -203h-84z" />
    <glyph glyph-name="oacute" unicode="&#xf3;" horiz-adv-x="592" 
d="M266 -10q-82 0 -136.5 33t-77 95.5t-9.5 149.5q13 81 52.5 136t99 83t132.5 28q83 0 137 -33t76.5 -95t8.5 -149q-13 -81 -52.5 -136t-98.5 -83.5t-132 -28.5zM273 86q57 0 98 40.5t54 121.5q14 88 -16 129.5t-90 41.5q-58 0 -98 -40.5t-53 -120.5q-14 -88 15 -130
t90 -42zM303 554l132 203h126l-174 -203h-84z" />
    <glyph glyph-name="ocircumflex" unicode="&#xf4;" horiz-adv-x="592" 
d="M266 -10q-82 0 -136.5 33t-77 95.5t-9.5 149.5q13 81 52.5 136t99 83t132.5 28q83 0 137 -33t76.5 -95t8.5 -149q-13 -81 -52.5 -136t-98.5 -83.5t-132 -28.5zM273 86q57 0 98 40.5t54 121.5q14 88 -16 129.5t-90 41.5q-58 0 -98 -40.5t-53 -120.5q-14 -88 15 -130
t90 -42zM175 554l132 203h109l90 -203h-79l-71 132l-101 -132h-80z" />
    <glyph glyph-name="otilde" unicode="&#xf5;" horiz-adv-x="592" 
d="M266 -10q-82 0 -136.5 33t-77 95.5t-9.5 149.5q13 81 52.5 136t99 83t132.5 28q83 0 137 -33t76.5 -95t8.5 -149q-13 -81 -52.5 -136t-98.5 -83.5t-132 -28.5zM273 86q57 0 98 40.5t54 121.5q14 88 -16 129.5t-90 41.5q-58 0 -98 -40.5t-53 -120.5q-14 -88 15 -130
t90 -42zM218 584l-62 4q10 71 44 109.5t85 38.5q27 0 45.5 -11t34.5 -25q14 -12 28.5 -21t31.5 -9q50 0 67 70l62 -4q-10 -71 -44 -109.5t-84 -38.5q-27 0 -46.5 12t-35.5 25q-14 11 -28 20t-31 9q-50 0 -67 -70z" />
    <glyph glyph-name="odieresis" unicode="&#xf6;" horiz-adv-x="592" 
d="M266 -10q-82 0 -136.5 33t-77 95.5t-9.5 149.5q13 81 52.5 136t99 83t132.5 28q83 0 137 -33t76.5 -95t8.5 -149q-13 -81 -52.5 -136t-98.5 -83.5t-132 -28.5zM273 86q57 0 98 40.5t54 121.5q14 88 -16 129.5t-90 41.5q-58 0 -98 -40.5t-53 -120.5q-14 -88 15 -130
t90 -42zM390 597l17 115h115l-18 -115h-114zM201 597l17 115h115l-17 -115h-115z" />
    <glyph glyph-name="divide" unicode="&#xf7;" horiz-adv-x="600" 
d="M52 243l14 88h492l-14 -88h-492zM208 38l17 104h104l-17 -104h-104zM271 432l16 104h104l-16 -104h-104z" />
    <glyph glyph-name="oslash" unicode="&#xf8;" horiz-adv-x="592" 
d="M266 -10q-82 0 -136.5 33t-77 95.5t-9.5 149.5q13 81 52.5 136t99 83t132.5 28q83 0 137 -33t76.5 -95t8.5 -149q-13 -81 -52.5 -136t-98.5 -83.5t-132 -28.5zM273 86q64 0 106.5 41t55.5 122q14 84 -18 127t-98 43q-64 0 -106.5 -40.5t-54.5 -121.5q-13 -82 16 -126.5
t99 -44.5zM124 -42l-57 40l405 547l55 -39z" />
    <glyph glyph-name="ugrave" unicode="&#xf9;" horiz-adv-x="596" 
d="M217 -10q-92 0 -134 53t-26 158l48 304h125l-48 -302q-9 -60 11 -87t69 -27q56 0 91 36t45 96l45 284h125l-80 -505h-122l16 103h15q-29 -54 -75 -83.5t-105 -29.5zM303 555l-142 203h122l104 -203h-84z" />
    <glyph glyph-name="uacute" unicode="&#xfa;" horiz-adv-x="596" 
d="M217 -10q-92 0 -134 53t-26 158l48 304h125l-48 -302q-9 -60 11 -87t69 -27q56 0 91 36t45 96l45 284h125l-80 -505h-122l16 103h15q-29 -54 -75 -83.5t-105 -29.5zM304 555l132 203h126l-174 -203h-84z" />
    <glyph glyph-name="ucircumflex" unicode="&#xfb;" horiz-adv-x="596" 
d="M217 -10q-92 0 -134 53t-26 158l48 304h125l-48 -302q-9 -60 11 -87t69 -27q56 0 91 36t45 96l45 284h125l-80 -505h-122l16 103h15q-29 -54 -75 -83.5t-105 -29.5zM176 555l132 203h109l90 -203h-79l-71 132l-101 -132h-80z" />
    <glyph glyph-name="udieresis" unicode="&#xfc;" horiz-adv-x="596" 
d="M217 -10q-92 0 -134 53t-26 158l48 304h125l-48 -302q-9 -60 11 -87t69 -27q56 0 91 36t45 96l45 284h125l-80 -505h-122l16 103h15q-29 -54 -75 -83.5t-105 -29.5zM391 598l17 115h115l-18 -115h-114zM202 598l17 115h115l-17 -115h-115z" />
    <glyph glyph-name="yacute" unicode="&#xfd;" horiz-adv-x="543" 
d="M-17 -227l-20 99q49 10 83 23t58.5 34t44.5 54l34 59l-6 -49l-139 512h129l95 -394h-29l222 394h130l-314 -533q-32 -54 -64.5 -89.5t-67 -57t-73 -33.5t-83.5 -19zM277 554l132 203h126l-174 -203h-84z" />
    <glyph glyph-name="thorn" unicode="&#xfe;" horiz-adv-x="620" 
d="M-6 -216l151 952h125l-53 -334l-17 -3q25 53 72.5 84.5t114.5 31.5q70 0 117.5 -34t67.5 -96t6 -147q-20 -122 -90.5 -185t-168.5 -63q-63 0 -107 31t-53 83h11l-51 -320h-125zM300 86q59 0 99.5 40.5t53.5 121.5q14 88 -15.5 129.5t-91.5 41.5q-58 0 -99.5 -40.5
t-54.5 -120.5q-13 -88 17 -130t91 -42z" />
    <glyph glyph-name="ydieresis" unicode="&#xff;" horiz-adv-x="543" 
d="M-17 -227l-20 99q49 10 83 23t58.5 34t44.5 54l34 59l-6 -49l-139 512h129l95 -394h-29l222 394h130l-314 -533q-32 -54 -64.5 -89.5t-67 -57t-73 -33.5t-83.5 -19zM364 597l17 115h115l-18 -115h-114zM175 597l17 115h115l-17 -115h-115z" />
    <glyph glyph-name="Amacron" unicode="&#x100;" horiz-adv-x="750" 
d="M-40 0l431 705h108l211 -705h-126l-55 198l47 -35h-423l59 35l-117 -198h-135zM427 567l-194 -334l-21 31h336l-26 -31l-91 334h-4zM289 806l11 74h346l-12 -74h-345z" />
    <glyph glyph-name="amacron" unicode="&#x101;" horiz-adv-x="620" 
d="M234 -10q-69 0 -117 34t-67.5 96.5t-6.5 147.5q20 122 90.5 184.5t168.5 62.5q63 0 107 -30.5t53 -82.5l-10 -3l28 106h120q-8 -31 -15.5 -63t-12.5 -63l-60 -379h-124l17 107h16q-25 -54 -72.5 -85.5t-114.5 -31.5zM275 86q58 0 99.5 40.5t54.5 121.5q14 88 -16.5 129.5
t-91.5 41.5q-58 0 -99 -40.5t-54 -120.5q-14 -88 16 -130t91 -42zM206 616l11 74h316l-12 -74h-315z" />
    <glyph glyph-name="Abreve" unicode="&#x102;" horiz-adv-x="750" 
d="M-40 0l431 705h108l211 -705h-126l-55 198l47 -35h-423l59 35l-117 -198h-135zM427 567l-194 -334l-21 31h336l-26 -31l-91 334h-4zM458 760q-51 0 -89 21.5t-59 60t-21 88.5l71 9q-1 -49 27 -76.5t76 -27.5t80 27.5t41 76.5l70 -9q-12 -78 -65 -124t-131 -46z" />
    <glyph glyph-name="abreve" unicode="&#x103;" horiz-adv-x="620" 
d="M234 -10q-69 0 -117 34t-67.5 96.5t-6.5 147.5q20 122 90.5 184.5t168.5 62.5q63 0 107 -30.5t53 -82.5l-10 -3l28 106h120q-8 -31 -15.5 -63t-12.5 -63l-60 -379h-124l17 107h16q-25 -54 -72.5 -85.5t-114.5 -31.5zM275 86q58 0 99.5 40.5t54.5 121.5q14 88 -16.5 129.5
t-91.5 41.5q-58 0 -99 -40.5t-54 -120.5q-14 -88 16 -130t91 -42zM361 551q-48 0 -83.5 23.5t-53.5 67t-15 102.5l72 7q-2 -60 20.5 -92t64.5 -32t69.5 32t35.5 92l71 -7q-7 -59 -31 -102.5t-62.5 -67t-87.5 -23.5z" />
    <glyph glyph-name="Aogonek" unicode="&#x104;" horiz-adv-x="750" 
d="M-40 0l431 705h108l211 -705h-126l-55 198l47 -35h-423l59 35l-117 -198h-135zM427 567l-194 -334l-21 31h336l-26 -31l-91 334h-4zM629 -195q-51 0 -78.5 25.5t-27.5 68.5q0 48 32 86t81 57l33 -42q-35 -14 -51 -36t-16 -45q0 -21 14 -34t37 -13q14 0 26.5 3t27.5 8
l12 -62q-24 -7 -45 -11.5t-45 -4.5z" />
    <glyph glyph-name="aogonek" unicode="&#x105;" horiz-adv-x="620" 
d="M234 -10q-69 0 -117 34t-67.5 96.5t-6.5 147.5q20 122 90.5 184.5t168.5 62.5q63 0 107 -30.5t53 -82.5l-10 -3l28 106h120q-8 -31 -15.5 -63t-12.5 -63l-60 -379h-124l17 107h16q-25 -54 -72.5 -85.5t-114.5 -31.5zM275 86q58 0 99.5 40.5t54.5 121.5q14 88 -16.5 129.5
t-91.5 41.5q-58 0 -99 -40.5t-54 -120.5q-14 -88 16 -130t91 -42zM451 -195q-51 0 -78.5 25.5t-27.5 68.5q0 48 32 86t81 57l33 -42q-35 -14 -51 -36t-16 -45q0 -21 14 -34t37 -13q14 0 26.5 3t27.5 8l12 -62q-24 -7 -45 -11.5t-45 -4.5z" />
    <glyph glyph-name="Cacute" unicode="&#x106;" horiz-adv-x="685" 
d="M383 -10q-120 0 -195 48.5t-103.5 134t-11.5 195.5q18 111 70.5 188.5t135.5 118.5t190 40q70 0 125.5 -19.5t93.5 -54.5l-46 -103q-42 35 -82.5 49t-96.5 14q-103 0 -170 -62.5t-86 -178.5q-12 -78 4.5 -135.5t63.5 -89t123 -31.5q50 0 99 16.5t96 54.5l38 -101
q-49 -40 -114 -62t-134 -22zM436 765l130 174h133l-174 -174h-89z" />
    <glyph glyph-name="cacute" unicode="&#x107;" horiz-adv-x="504" 
d="M272 -10q-83 0 -139 34.5t-79.5 97t-10.5 146.5q20 122 97.5 184.5t191.5 62.5q47 0 91.5 -14t71.5 -41l-41 -85q-24 22 -56 32.5t-62 10.5q-64 0 -108.5 -39.5t-57.5 -119.5q-13 -79 19.5 -125t102.5 -46q30 0 64.5 11.5t64.5 36.5l36 -86q-31 -27 -81.5 -43.5
t-103.5 -16.5zM299 554l132 203h126l-174 -203h-84z" />
    <glyph glyph-name="Ccircumflex" unicode="&#x108;" horiz-adv-x="685" 
d="M383 -10q-120 0 -195 48.5t-103.5 134t-11.5 195.5q18 111 70.5 188.5t135.5 118.5t190 40q70 0 125.5 -19.5t93.5 -54.5l-46 -103q-42 35 -82.5 49t-96.5 14q-103 0 -170 -62.5t-86 -178.5q-12 -78 4.5 -135.5t63.5 -89t123 -31.5q50 0 99 16.5t96 54.5l38 -101
q-49 -40 -114 -62t-134 -22zM295 765l142 174h107l107 -174h-87l-79 104l-103 -104h-87z" />
    <glyph glyph-name="ccircumflex" unicode="&#x109;" horiz-adv-x="504" 
d="M272 -10q-83 0 -139 34.5t-79.5 97t-10.5 146.5q20 122 97.5 184.5t191.5 62.5q47 0 91.5 -14t71.5 -41l-41 -85q-24 22 -56 32.5t-62 10.5q-64 0 -108.5 -39.5t-57.5 -119.5q-13 -79 19.5 -125t102.5 -46q30 0 64.5 11.5t64.5 36.5l36 -86q-31 -27 -81.5 -43.5
t-103.5 -16.5zM171 554l132 203h109l90 -203h-79l-71 132l-101 -132h-80z" />
    <glyph glyph-name="Cdotaccent" unicode="&#x10a;" horiz-adv-x="685" 
d="M383 -10q-120 0 -195 48.5t-103.5 134t-11.5 195.5q18 111 70.5 188.5t135.5 118.5t190 40q70 0 125.5 -19.5t93.5 -54.5l-46 -103q-42 35 -82.5 49t-96.5 14q-103 0 -170 -62.5t-86 -178.5q-12 -78 4.5 -135.5t63.5 -89t123 -31.5q50 0 99 16.5t96 54.5l38 -101
q-49 -40 -114 -62t-134 -22zM423 794l18 116h121l-18 -116h-121z" />
    <glyph glyph-name="cdotaccent" unicode="&#x10b;" horiz-adv-x="504" 
d="M272 -10q-83 0 -139 34.5t-79.5 97t-10.5 146.5q20 122 97.5 184.5t191.5 62.5q47 0 91.5 -14t71.5 -41l-41 -85q-24 22 -56 32.5t-62 10.5q-64 0 -108.5 -39.5t-57.5 -119.5q-13 -79 19.5 -125t102.5 -46q30 0 64.5 11.5t64.5 36.5l36 -86q-31 -27 -81.5 -43.5
t-103.5 -16.5zM286 597l19 116h122l-18 -116h-123z" />
    <glyph glyph-name="Ccaron" unicode="&#x10c;" horiz-adv-x="685" 
d="M383 -10q-120 0 -195 48.5t-103.5 134t-11.5 195.5q18 111 70.5 188.5t135.5 118.5t190 40q70 0 125.5 -19.5t93.5 -54.5l-46 -103q-42 35 -82.5 49t-96.5 14q-103 0 -170 -62.5t-86 -178.5q-12 -78 4.5 -135.5t63.5 -89t123 -31.5q50 0 99 16.5t96 54.5l38 -101
q-49 -40 -114 -62t-134 -22zM426 765l-108 174h85l80 -104l101 104h91l-142 -174h-107z" />
    <glyph glyph-name="ccaron" unicode="&#x10d;" horiz-adv-x="504" 
d="M272 -10q-83 0 -139 34.5t-79.5 97t-10.5 146.5q20 122 97.5 184.5t191.5 62.5q47 0 91.5 -14t71.5 -41l-41 -85q-24 22 -56 32.5t-62 10.5q-64 0 -108.5 -39.5t-57.5 -119.5q-13 -79 19.5 -125t102.5 -46q30 0 64.5 11.5t64.5 36.5l36 -86q-31 -27 -81.5 -43.5
t-103.5 -16.5zM287 554l-90 203h79l70 -132l101 132h80l-131 -203h-109z" />
    <glyph glyph-name="Dcaron" unicode="&#x10e;" horiz-adv-x="762" 
d="M38 0l112 705h244q128 0 206.5 -44.5t108.5 -126.5t12 -196q-27 -169 -135.5 -253.5t-286.5 -84.5h-261zM184 107h119q128 0 199.5 59t90.5 180q20 130 -33 191.5t-181 61.5h-118zM416 765l-108 174h85l80 -104l101 104h91l-142 -174h-107z" />
    <glyph glyph-name="dcaron" unicode="&#x10f;" horiz-adv-x="620" 
d="M234 -10q-69 0 -117 34t-67.5 96.5t-6.5 147.5q20 122 90.5 184.5t168.5 62.5q63 0 107 -30.5t53 -82.5h-11l53 334h125l-117 -736h-123l17 107h15q-25 -54 -72.5 -85.5t-114.5 -31.5zM275 86q58 0 99.5 40.5t54.5 121.5q14 88 -16.5 129.5t-91.5 41.5q-58 0 -99 -40.5
t-54 -120.5q-14 -88 16 -130t91 -42zM640 544l31 192h84l-57 -192h-58z" />
    <glyph glyph-name="Dcroat" unicode="&#x110;" horiz-adv-x="762" 
d="M38 0l112 705h244q128 0 206.5 -44.5t108.5 -126.5t12 -196q-27 -169 -135.5 -253.5t-286.5 -84.5h-261zM184 107h119q128 0 199.5 59t90.5 180q20 130 -33 191.5t-181 61.5h-118zM3 310l15 94h405l-15 -94h-405z" />
    <glyph glyph-name="dcroat" unicode="&#x111;" horiz-adv-x="620" 
d="M234 -10q-69 0 -117 33t-67.5 93.5t-6.5 142.5q20 119 90.5 179.5t168.5 60.5q63 0 107 -30t53 -81l-11 14l27 167h-193l14 88h193l12 79h125l-12 -79h89l-14 -88h-90l-90 -569h-123l17 107l15 -3q-25 -52 -72.5 -83t-114.5 -31zM275 86q58 0 99.5 39t54.5 115
q14 83 -16.5 123t-91.5 40q-58 0 -99 -38.5t-54 -115.5q-14 -82 16 -122.5t91 -40.5z" />
    <glyph glyph-name="Emacron" unicode="&#x112;" horiz-adv-x="595" 
d="M38 0l112 705h475l-16 -101h-352l-30 -195h328l-16 -102h-328l-33 -205h351l-16 -102h-475zM248 806l11 74h346l-12 -74h-345z" />
    <glyph glyph-name="emacron" unicode="&#x113;" horiz-adv-x="548" 
d="M285 -10q-89 0 -147.5 35t-82.5 98.5t-11 147.5q12 76 48.5 130.5t93.5 84t130 29.5t120.5 -32t67.5 -87.5t8 -128.5l-5 -32h-367l10 66h279l-19 -16q11 71 -14.5 107.5t-84.5 36.5q-42 0 -72.5 -19t-49 -52.5t-24.5 -75.5l-5 -33q-11 -78 23.5 -120.5t117.5 -42.5
q39 0 76.5 11.5t72.5 37.5l36 -84q-41 -30 -93 -45.5t-108 -15.5zM189 616l11 74h316l-12 -74h-315z" />
    <glyph glyph-name="Ebreve" unicode="&#x114;" horiz-adv-x="595" 
d="M38 0l112 705h475l-16 -101h-352l-30 -195h328l-16 -102h-328l-33 -205h351l-16 -102h-475zM417 760q-51 0 -89 21.5t-59 60t-21 88.5l71 9q-1 -49 27 -76.5t76 -27.5t80 27.5t41 76.5l70 -9q-12 -78 -65 -124t-131 -46z" />
    <glyph glyph-name="ebreve" unicode="&#x115;" horiz-adv-x="548" 
d="M285 -10q-89 0 -147.5 35t-82.5 98.5t-11 147.5q12 76 48.5 130.5t93.5 84t130 29.5t120.5 -32t67.5 -87.5t8 -128.5l-5 -32h-367l10 66h279l-19 -16q11 71 -14.5 107.5t-84.5 36.5q-42 0 -72.5 -19t-49 -52.5t-24.5 -75.5l-5 -33q-11 -78 23.5 -120.5t117.5 -42.5
q39 0 76.5 11.5t72.5 37.5l36 -84q-41 -30 -93 -45.5t-108 -15.5zM344 551q-48 0 -83.5 23.5t-53.5 67t-15 102.5l72 7q-2 -60 20.5 -92t64.5 -32t69.5 32t35.5 92l71 -7q-7 -59 -31 -102.5t-62.5 -67t-87.5 -23.5z" />
    <glyph glyph-name="Edotaccent" unicode="&#x116;" horiz-adv-x="595" 
d="M38 0l112 705h475l-16 -101h-352l-30 -195h328l-16 -102h-328l-33 -205h351l-16 -102h-475zM358 794l18 116h121l-18 -116h-121z" />
    <glyph glyph-name="edotaccent" unicode="&#x117;" horiz-adv-x="548" 
d="M285 -10q-89 0 -147.5 35t-82.5 98.5t-11 147.5q12 76 48.5 130.5t93.5 84t130 29.5t120.5 -32t67.5 -87.5t8 -128.5l-5 -32h-367l10 66h279l-19 -16q11 71 -14.5 107.5t-84.5 36.5q-42 0 -72.5 -19t-49 -52.5t-24.5 -75.5l-5 -33q-11 -78 23.5 -120.5t117.5 -42.5
q39 0 76.5 11.5t72.5 37.5l36 -84q-41 -30 -93 -45.5t-108 -15.5zM281 597l19 116h122l-18 -116h-123z" />
    <glyph glyph-name="Eogonek" unicode="&#x118;" horiz-adv-x="595" 
d="M38 0l112 705h475l-16 -101h-352l-30 -195h328l-16 -102h-328l-33 -205h351l-16 -102h-475zM431 -195q-51 0 -78.5 25.5t-27.5 68.5q0 48 32 86t81 57l33 -42q-35 -14 -51 -36t-16 -45q0 -21 14 -34t37 -13q14 0 26.5 3t27.5 8l12 -62q-24 -7 -45 -11.5t-45 -4.5z" />
    <glyph glyph-name="eogonek" unicode="&#x119;" horiz-adv-x="548" 
d="M285 -10q-89 0 -147.5 35t-82.5 98.5t-11 147.5q12 76 48.5 130.5t93.5 84t130 29.5t120.5 -32t67.5 -87.5t8 -128.5l-5 -32h-367l10 66h279l-19 -16q11 71 -14.5 107.5t-84.5 36.5q-42 0 -72.5 -19t-49 -52.5t-24.5 -75.5l-5 -33q-11 -78 23.5 -120.5t117.5 -42.5
q39 0 76.5 11.5t72.5 37.5l36 -84q-41 -30 -93 -45.5t-108 -15.5zM306 -195q-51 0 -78.5 25.5t-27.5 68.5q0 48 32 86t81 57l33 -42q-35 -14 -51 -36t-16 -45q0 -21 14 -34t37 -13q14 0 26.5 3t27.5 8l12 -62q-24 -7 -45 -11.5t-45 -4.5z" />
    <glyph glyph-name="Ecaron" unicode="&#x11a;" horiz-adv-x="595" 
d="M38 0l112 705h475l-16 -101h-352l-30 -195h328l-16 -102h-328l-33 -205h351l-16 -102h-475zM361 765l-108 174h85l80 -104l101 104h91l-142 -174h-107z" />
    <glyph glyph-name="ecaron" unicode="&#x11b;" horiz-adv-x="548" 
d="M285 -10q-89 0 -147.5 35t-82.5 98.5t-11 147.5q12 76 48.5 130.5t93.5 84t130 29.5t120.5 -32t67.5 -87.5t8 -128.5l-5 -32h-367l10 66h279l-19 -16q11 71 -14.5 107.5t-84.5 36.5q-42 0 -72.5 -19t-49 -52.5t-24.5 -75.5l-5 -33q-11 -78 23.5 -120.5t117.5 -42.5
q39 0 76.5 11.5t72.5 37.5l36 -84q-41 -30 -93 -45.5t-108 -15.5zM282 554l-90 203h79l70 -132l101 132h80l-131 -203h-109z" />
    <glyph glyph-name="Gcircumflex" unicode="&#x11c;" horiz-adv-x="740" 
d="M391 -10q-127 0 -203.5 47t-104.5 131.5t-10 197.5q18 112 73 189.5t141.5 118.5t197.5 41q77 0 132 -18t92 -50l-47 -101q-41 31 -80.5 44t-101.5 13q-115 0 -185 -64.5t-88 -183.5q-19 -120 27 -187.5t170 -67.5q46 0 86.5 8t83.5 24l-38 -55l33 211h-164l15 94h272
l-54 -337q-33 -17 -75 -29.5t-86.5 -19t-85.5 -6.5zM307 765l142 174h107l107 -174h-87l-79 104l-103 -104h-87z" />
    <glyph glyph-name="gcircumflex" unicode="&#x11d;" horiz-adv-x="622" 
d="M234 -224q-69 0 -123 15t-95 46l36 91q26 -19 54.5 -31.5t60.5 -18.5t66 -6q72 0 111 34.5t49 98.5l19 121h11q-22 -51 -71 -82t-114 -31q-68 0 -116.5 32t-69 92t-7.5 142q19 115 89 175.5t170 60.5q64 0 108 -30.5t52 -82.5l-7 6l25 97h121q-9 -31 -16 -63t-12 -63
l-57 -359q-19 -119 -90.5 -181.5t-193.5 -62.5zM278 108q61 0 102 40.5t52 113.5q12 77 -17.5 117t-90.5 40t-102 -40t-53 -114q-12 -76 18 -116.5t91 -40.5zM193 554l132 203h109l90 -203h-79l-71 132l-101 -132h-80z" />
    <glyph glyph-name="Gbreve" unicode="&#x11e;" horiz-adv-x="740" 
d="M391 -10q-127 0 -203.5 47t-104.5 131.5t-10 197.5q18 112 73 189.5t141.5 118.5t197.5 41q77 0 132 -18t92 -50l-47 -101q-41 31 -80.5 44t-101.5 13q-115 0 -185 -64.5t-88 -183.5q-19 -120 27 -187.5t170 -67.5q46 0 86.5 8t83.5 24l-38 -55l33 211h-164l15 94h272
l-54 -337q-33 -17 -75 -29.5t-86.5 -19t-85.5 -6.5zM494 760q-51 0 -89 21.5t-59 60t-21 88.5l71 9q-1 -49 27 -76.5t76 -27.5t80 27.5t41 76.5l70 -9q-12 -78 -65 -124t-131 -46z" />
    <glyph glyph-name="gbreve" unicode="&#x11f;" horiz-adv-x="622" 
d="M234 -224q-69 0 -123 15t-95 46l36 91q26 -19 54.5 -31.5t60.5 -18.5t66 -6q72 0 111 34.5t49 98.5l19 121h11q-22 -51 -71 -82t-114 -31q-68 0 -116.5 32t-69 92t-7.5 142q19 115 89 175.5t170 60.5q64 0 108 -30.5t52 -82.5l-7 6l25 97h121q-9 -31 -16 -63t-12 -63
l-57 -359q-19 -119 -90.5 -181.5t-193.5 -62.5zM278 108q61 0 102 40.5t52 113.5q12 77 -17.5 117t-90.5 40t-102 -40t-53 -114q-12 -76 18 -116.5t91 -40.5zM371 551q-48 0 -83.5 23.5t-53.5 67t-15 102.5l72 7q-2 -60 20.5 -92t64.5 -32t69.5 32t35.5 92l71 -7
q-7 -59 -31 -102.5t-62.5 -67t-87.5 -23.5z" />
    <glyph glyph-name="Gdotaccent" unicode="&#x120;" horiz-adv-x="740" 
d="M391 -10q-127 0 -203.5 47t-104.5 131.5t-10 197.5q18 112 73 189.5t141.5 118.5t197.5 41q77 0 132 -18t92 -50l-47 -101q-41 31 -80.5 44t-101.5 13q-115 0 -185 -64.5t-88 -183.5q-19 -120 27 -187.5t170 -67.5q46 0 86.5 8t83.5 24l-38 -55l33 211h-164l15 94h272
l-54 -337q-33 -17 -75 -29.5t-86.5 -19t-85.5 -6.5zM435 794l18 116h121l-18 -116h-121z" />
    <glyph glyph-name="gdotaccent" unicode="&#x121;" horiz-adv-x="622" 
d="M234 -224q-69 0 -123 15t-95 46l36 91q26 -19 54.5 -31.5t60.5 -18.5t66 -6q72 0 111 34.5t49 98.5l19 121h11q-22 -51 -71 -82t-114 -31q-68 0 -116.5 32t-69 92t-7.5 142q19 115 89 175.5t170 60.5q64 0 108 -30.5t52 -82.5l-7 6l25 97h121q-9 -31 -16 -63t-12 -63
l-57 -359q-19 -119 -90.5 -181.5t-193.5 -62.5zM278 108q61 0 102 40.5t52 113.5q12 77 -17.5 117t-90.5 40t-102 -40t-53 -114q-12 -76 18 -116.5t91 -40.5zM308 597l19 116h122l-18 -116h-123z" />
    <glyph glyph-name="uni0122" unicode="&#x122;" horiz-adv-x="740" 
d="M391 -10q-127 0 -203.5 47t-104.5 131.5t-10 197.5q18 112 73 189.5t141.5 118.5t197.5 41q77 0 132 -18t92 -50l-47 -101q-41 31 -80.5 44t-101.5 13q-115 0 -185 -64.5t-88 -183.5q-19 -120 27 -187.5t170 -67.5q46 0 86.5 8t83.5 24l-38 -55l33 211h-164l15 94h272
l-54 -337q-33 -17 -75 -29.5t-86.5 -19t-85.5 -6.5zM344 -278l-38 36q26 20 35 38.5t13 43.5l25 -15h-92l17 102h131l-13 -76q-7 -43 -23 -73.5t-55 -55.5z" />
    <glyph glyph-name="uni0123" unicode="&#x123;" horiz-adv-x="622" 
d="M234 -224q-69 0 -123 15t-95 46l36 91q26 -19 54.5 -31.5t60.5 -18.5t66 -6q72 0 111 34.5t49 98.5l19 121h11q-22 -51 -71 -82t-114 -31q-68 0 -116.5 32t-69 92t-7.5 142q19 115 89 175.5t170 60.5q64 0 108 -30.5t52 -82.5l-7 6l25 97h121q-9 -31 -16 -63t-12 -63
l-57 -359q-19 -119 -90.5 -181.5t-193.5 -62.5zM278 108q61 0 102 40.5t52 113.5q12 77 -17.5 117t-90.5 40t-102 -40t-53 -114q-12 -76 18 -116.5t91 -40.5zM299 564l12 76q8 43 24 73.5t55 55.5l38 -36q-25 -19 -34 -38t-14 -44l-25 15h92l-17 -102h-131z" />
    <glyph glyph-name="Hcircumflex" unicode="&#x124;" horiz-adv-x="774" 
d="M38 0l112 705h129l-47 -294h361l47 294h129l-112 -705h-129l48 304h-361l-48 -304h-129zM285 765l142 174h107l107 -174h-87l-79 104l-103 -104h-87z" />
    <glyph glyph-name="hcircumflex" unicode="&#x125;" horiz-adv-x="603" 
d="M28 0l117 736h125l-53 -332h-15q30 55 80.5 83t113.5 28q92 0 129 -53.5t20 -160.5l-47 -301h-125l47 301q10 62 -10 89t-68 27q-58 0 -96 -35.5t-47 -94.5l-46 -287h-125zM205 781l142 174h107l107 -174h-87l-79 104l-103 -104h-87z" />
    <glyph glyph-name="Hbar" unicode="&#x126;" horiz-adv-x="821" 
d="M62 0l80 511h-87l15 94h87l17 100h129l-17 -100h360l17 100h129l-17 -100h87l-15 -94h-87l-80 -511h-129l46 292h-360l-46 -292h-129zM254 400h360l17 111h-360z" />
    <glyph glyph-name="hbar" unicode="&#x127;" horiz-adv-x="603" 
d="M28 0l90 569h-91l14 88h92l12 79h125l-12 -79h194l-14 -88h-195l-28 -176h-14q30 55 80.5 83t113.5 28q91 0 128.5 -53.5t20.5 -160.5l-46 -290h-125l46 290q10 62 -10.5 89t-68.5 27q-58 0 -95.5 -35.5t-47.5 -94.5l-44 -276h-125z" />
    <glyph glyph-name="Itilde" unicode="&#x128;" horiz-adv-x="284" 
d="M38 0l112 705h129l-112 -705h-129zM61 772l-62 4q11 71 48.5 109.5t92.5 38.5q30 0 56 -11.5t49 -25.5q20 -11 38 -20t37 -9q56 0 74 70l62 -4q-11 -71 -48 -109.5t-92 -38.5q-30 0 -56 12t-49 25q-20 11 -38.5 20t-37.5 9q-56 0 -74 -70z" />
    <glyph glyph-name="itilde" unicode="&#x129;" horiz-adv-x="261" 
d="M28 0l80 505h125l-80 -505h-125zM52 584l-62 4q10 71 44 109.5t85 38.5q27 0 45.5 -11t34.5 -25q14 -12 28.5 -21t31.5 -9q50 0 67 70l62 -4q-10 -71 -44 -109.5t-84 -38.5q-27 0 -46.5 12t-35.5 25q-14 11 -28 20t-31 9q-50 0 -67 -70z" />
    <glyph glyph-name="Imacron" unicode="&#x12a;" horiz-adv-x="284" 
d="M38 0l112 705h129l-112 -705h-129zM57 806l11 74h346l-12 -74h-345z" />
    <glyph glyph-name="imacron" unicode="&#x12b;" horiz-adv-x="261" 
d="M28 0l80 505h125l-80 -505h-125zM32 616l11 74h316l-12 -74h-315z" />
    <glyph glyph-name="Ibreve" unicode="&#x12c;" horiz-adv-x="284" 
d="M38 0l112 705h129l-112 -705h-129zM226 760q-51 0 -89 21.5t-59 60t-21 88.5l71 9q-1 -49 27 -76.5t76 -27.5t80 27.5t41 76.5l70 -9q-12 -78 -65 -124t-131 -46z" />
    <glyph glyph-name="ibreve" unicode="&#x12d;" horiz-adv-x="261" 
d="M28 0l80 505h125l-80 -505h-125zM187 551q-48 0 -83.5 23.5t-53.5 67t-15 102.5l72 7q-2 -60 20.5 -92t64.5 -32t69.5 32t35.5 92l71 -7q-7 -59 -31 -102.5t-62.5 -67t-87.5 -23.5z" />
    <glyph glyph-name="Iogonek" unicode="&#x12e;" horiz-adv-x="284" 
d="M38 0l112 705h129l-112 -705h-129zM99 -195q-51 0 -78.5 25.5t-27.5 68.5q0 48 32 86t81 57l33 -42q-35 -14 -51 -36t-16 -45q0 -21 14 -34t37 -13q14 0 26.5 3t27.5 8l12 -62q-24 -7 -45 -11.5t-45 -4.5z" />
    <glyph glyph-name="iogonek" unicode="&#x12f;" horiz-adv-x="261" 
d="M28 0l80 505h125l-80 -505h-125zM115 600l20 122h139l-19 -122h-140zM88 -195q-51 0 -78.5 25.5t-27.5 68.5q0 48 32 86t81 57l33 -42q-35 -14 -51 -36t-16 -45q0 -21 14 -34t37 -13q14 0 26.5 3t27.5 8l12 -62q-24 -7 -45 -11.5t-45 -4.5z" />
    <glyph glyph-name="Idotaccent" unicode="&#x130;" horiz-adv-x="284" 
d="M38 0l112 705h129l-112 -705h-129zM167 794l18 116h121l-18 -116h-121z" />
    <glyph glyph-name="dotlessi" unicode="&#x131;" horiz-adv-x="261" 
d="M28 0l80 505h125l-80 -505h-125z" />
    <glyph glyph-name="IJ" unicode="&#x132;" horiz-adv-x="646" 
d="M38 0l112 705h129l-112 -705h-129zM304 -187q-17 0 -40.5 2.5t-46.5 9.5l16 102q19 -7 36 -9t30 -2q46 0 71 27t34 86l107 676h129l-109 -686q-11 -72 -38.5 -117.5t-73.5 -67t-115 -21.5z" />
    <glyph glyph-name="Jcircumflex" unicode="&#x134;" horiz-adv-x="362" 
d="M20 -187q-17 0 -40.5 2.5t-46.5 9.5l16 102q19 -7 36 -9t30 -2q46 0 71 27t34 86l107 676h129l-109 -686q-11 -72 -38.5 -117.5t-73.5 -67t-115 -21.5zM118 765l142 174h107l107 -174h-87l-79 104l-103 -104h-87z" />
    <glyph glyph-name="jcircumflex" unicode="&#x135;" horiz-adv-x="261" 
d="M-57 -222q-19 0 -40 3t-38 10l16 99q12 -4 26.5 -7t28.5 -3q36 0 60 22t32 74l84 529h125l-85 -536q-15 -94 -66 -142.5t-143 -48.5zM12 554l132 203h109l90 -203h-79l-71 132l-101 -132h-80z" />
    <glyph glyph-name="uni0136" unicode="&#x136;" horiz-adv-x="666" 
d="M38 0l112 705h129l-50 -312h2l352 312h161l-419 -367l-4 56l335 -394h-155l-280 326h-2l-52 -326h-129zM262 -278l-38 36q26 20 35 38.5t13 43.5l25 -15h-92l17 102h131l-13 -76q-7 -43 -23 -73.5t-55 -55.5z" />
    <glyph glyph-name="uni0137" unicode="&#x137;" horiz-adv-x="552" 
d="M28 0l117 736h125l-71 -446h2l234 215h156l-293 -267v50l231 -288h-150l-188 226h-2l-36 -226h-125zM198 -278l-38 36q26 20 35 38.5t13 43.5l25 -15h-92l17 102h131l-13 -76q-7 -43 -23 -73.5t-55 -55.5z" />
    <glyph glyph-name="kgreenlandic" unicode="&#x138;" horiz-adv-x="552" 
d="M28 0l80 505h125l-34 -215h2l234 215h156l-293 -267v50l231 -288h-150l-188 226h-2l-36 -226h-125z" />
    <glyph glyph-name="Lacute" unicode="&#x139;" horiz-adv-x="560" 
d="M38 0l112 705h129l-95 -596h332l-17 -109h-461zM180 765l130 174h133l-174 -174h-89z" />
    <glyph glyph-name="lacute" unicode="&#x13a;" horiz-adv-x="261" 
d="M28 0l117 736h125l-117 -736h-125zM171 781l130 174h133l-174 -174h-89z" />
    <glyph glyph-name="uni013B" unicode="&#x13b;" horiz-adv-x="560" 
d="M38 0l112 705h129l-95 -596h332l-17 -109h-461zM236 -278l-38 36q26 20 35 38.5t13 43.5l25 -15h-92l17 102h131l-13 -76q-7 -43 -23 -73.5t-55 -55.5z" />
    <glyph glyph-name="uni013C" unicode="&#x13c;" horiz-adv-x="261" 
d="M28 0l117 736h125l-117 -736h-125zM54 -278l-38 36q26 20 35 38.5t13 43.5l25 -15h-92l17 102h131l-13 -76q-7 -43 -23 -73.5t-55 -55.5z" />
    <glyph glyph-name="Lcaron" unicode="&#x13d;" horiz-adv-x="560" 
d="M38 0l112 705h129l-95 -596h332l-17 -109h-461zM346 469l38 236h97l-61 -236h-74z" />
    <glyph glyph-name="lcaron" unicode="&#x13e;" horiz-adv-x="261" 
d="M28 0l117 736h125l-117 -736h-125zM281 544l31 192h84l-57 -192h-58z" />
    <glyph glyph-name="Ldot" unicode="&#x13f;" horiz-adv-x="560" 
d="M38 0l112 705h129l-95 -596h332l-17 -109h-461zM370 332l20 123h140l-19 -123h-141z" />
    <glyph glyph-name="ldot" unicode="&#x140;" horiz-adv-x="261" 
d="M28 0l117 736h125l-117 -736h-125zM248 292l20 123h140l-19 -123h-141z" />
    <glyph glyph-name="Lslash" unicode="&#x141;" horiz-adv-x="560" 
d="M38 0l112 705h129l-95 -596h332l-17 -109h-461zM14 246l-41 88l419 195l41 -88z" />
    <glyph glyph-name="lslash" unicode="&#x142;" horiz-adv-x="261" 
d="M28 0l117 736h125l-117 -736h-125zM7 244l-41 89l330 159l41 -89z" />
    <glyph glyph-name="Nacute" unicode="&#x143;" horiz-adv-x="755" 
d="M38 0l112 705h97l322 -536l-23 7l84 529h120l-112 -705h-97l-322 536l23 -7l-84 -529h-120zM418 765l130 174h133l-174 -174h-89z" />
    <glyph glyph-name="nacute" unicode="&#x144;" horiz-adv-x="603" 
d="M28 0l60 379q5 31 8 63t4 63h121l-6 -100l-13 -1q30 55 80.5 83t113.5 28q92 0 129 -53.5t20 -160.5l-47 -301h-125l47 301q10 62 -10.5 89t-67.5 27q-58 0 -96 -35.5t-47 -94.5l-46 -287h-125zM308 554l132 203h126l-174 -203h-84z" />
    <glyph glyph-name="uni0145" unicode="&#x145;" horiz-adv-x="755" 
d="M38 0l112 705h97l322 -536l-23 7l84 529h120l-112 -705h-97l-322 536l23 -7l-84 -529h-120zM304 -278l-38 36q26 20 35 38.5t13 43.5l25 -15h-92l17 102h131l-13 -76q-7 -43 -23 -73.5t-55 -55.5z" />
    <glyph glyph-name="uni0146" unicode="&#x146;" horiz-adv-x="603" 
d="M28 0l60 379q5 31 8 63t4 63h121l-6 -100l-13 -1q30 55 80.5 83t113.5 28q92 0 129 -53.5t20 -160.5l-47 -301h-125l47 301q10 62 -10.5 89t-67.5 27q-58 0 -96 -35.5t-47 -94.5l-46 -287h-125zM225 -278l-38 36q26 20 35 38.5t13 43.5l25 -15h-92l17 102h131l-13 -76
q-7 -43 -23 -73.5t-55 -55.5z" />
    <glyph glyph-name="Ncaron" unicode="&#x147;" horiz-adv-x="755" 
d="M38 0l112 705h97l322 -536l-23 7l84 529h120l-112 -705h-97l-322 536l23 -7l-84 -529h-120zM408 765l-108 174h85l80 -104l101 104h91l-142 -174h-107z" />
    <glyph glyph-name="ncaron" unicode="&#x148;" horiz-adv-x="603" 
d="M28 0l60 379q5 31 8 63t4 63h121l-6 -100l-13 -1q30 55 80.5 83t113.5 28q92 0 129 -53.5t20 -160.5l-47 -301h-125l47 301q10 62 -10.5 89t-67.5 27q-58 0 -96 -35.5t-47 -94.5l-46 -287h-125zM296 554l-90 203h79l70 -132l101 132h80l-131 -203h-109z" />
    <glyph glyph-name="napostrophe" unicode="&#x149;" horiz-adv-x="689" 
d="M184 567l-43 32q23 20 32.5 40t11.5 40l27 -14h-92l17 104h130l-12 -70q-6 -40 -21 -71.5t-50 -60.5zM114 0l60 379q5 31 8 63t4 63h121l-6 -100l-13 -1q30 55 80.5 83t113.5 28q92 0 129 -53.5t20 -160.5l-47 -301h-125l47 301q10 62 -10.5 89t-67.5 27q-58 0 -96 -35.5
t-47 -94.5l-46 -287h-125z" />
    <glyph glyph-name="Eng" unicode="&#x14a;" horiz-adv-x="755" 
d="M363 -193l6 91l50 5q42 3 66.5 25.5t31.5 64.5l9 58l15 -51l-322 536l23 -7l-84 -529h-120l112 705h97l322 -536l-23 7l84 529h120l-111 -700q-10 -65 -37 -106.5t-74 -62.5t-119 -26z" />
    <glyph glyph-name="eng" unicode="&#x14b;" horiz-adv-x="603" 
d="M28 0l60 379q5 31 8 63t4 63h121l-6 -100l-13 -1q30 55 80.5 83t113.5 28q92 0 129 -53.5t20 -160.5l-52 -329q-16 -94 -68.5 -144t-147.5 -50q-22 0 -41.5 3t-36.5 10l16 99q13 -4 25.5 -7t29.5 -3q39 0 65 23.5t34 75.5l51 322q10 62 -10.5 89t-67.5 27
q-58 0 -96 -35.5t-47 -94.5l-46 -287h-125z" />
    <glyph glyph-name="Omacron" unicode="&#x14c;" horiz-adv-x="787" 
d="M73 368q18 111 69 188.5t130.5 118t180.5 40.5q112 0 183 -48.5t99 -133.5t10 -195q-17 -111 -68.5 -188.5t-130.5 -118.5t-181 -41q-111 0 -182 48.5t-99 134t-11 195.5zM207 358q-13 -81 2.5 -138.5t57.5 -88.5t108 -31q99 0 159 66.5t78 181.5q13 81 -3 138.5t-58 88
t-109 30.5q-99 0 -157.5 -65.5t-77.5 -181.5zM308 806l11 74h346l-12 -74h-345z" />
    <glyph glyph-name="omacron" unicode="&#x14d;" horiz-adv-x="592" 
d="M266 -10q-82 0 -136.5 33t-77 95.5t-9.5 149.5q13 81 52.5 136t99 83t132.5 28q83 0 137 -33t76.5 -95t8.5 -149q-13 -81 -52.5 -136t-98.5 -83.5t-132 -28.5zM273 86q57 0 98 40.5t54 121.5q14 88 -16 129.5t-90 41.5q-58 0 -98 -40.5t-53 -120.5q-14 -88 15 -130
t90 -42zM198 616l11 74h316l-12 -74h-315z" />
    <glyph glyph-name="Obreve" unicode="&#x14e;" horiz-adv-x="787" 
d="M73 368q18 111 69 188.5t130.5 118t180.5 40.5q112 0 183 -48.5t99 -133.5t10 -195q-17 -111 -68.5 -188.5t-130.5 -118.5t-181 -41q-111 0 -182 48.5t-99 134t-11 195.5zM207 358q-13 -81 2.5 -138.5t57.5 -88.5t108 -31q99 0 159 66.5t78 181.5q13 81 -3 138.5t-58 88
t-109 30.5q-99 0 -157.5 -65.5t-77.5 -181.5zM477 760q-51 0 -89 21.5t-59 60t-21 88.5l71 9q-1 -49 27 -76.5t76 -27.5t80 27.5t41 76.5l70 -9q-12 -78 -65 -124t-131 -46z" />
    <glyph glyph-name="obreve" unicode="&#x14f;" horiz-adv-x="592" 
d="M266 -10q-82 0 -136.5 33t-77 95.5t-9.5 149.5q13 81 52.5 136t99 83t132.5 28q83 0 137 -33t76.5 -95t8.5 -149q-13 -81 -52.5 -136t-98.5 -83.5t-132 -28.5zM273 86q57 0 98 40.5t54 121.5q14 88 -16 129.5t-90 41.5q-58 0 -98 -40.5t-53 -120.5q-14 -88 15 -130
t90 -42zM353 551q-48 0 -83.5 23.5t-53.5 67t-15 102.5l72 7q-2 -60 20.5 -92t64.5 -32t69.5 32t35.5 92l71 -7q-7 -59 -31 -102.5t-62.5 -67t-87.5 -23.5z" />
    <glyph glyph-name="Ohungarumlaut" unicode="&#x150;" horiz-adv-x="787" 
d="M73 368q18 111 69 188.5t130.5 118t180.5 40.5q112 0 183 -48.5t99 -133.5t10 -195q-17 -111 -68.5 -188.5t-130.5 -118.5t-181 -41q-111 0 -182 48.5t-99 134t-11 195.5zM207 358q-13 -81 2.5 -138.5t57.5 -88.5t108 -31q99 0 159 66.5t78 181.5q13 81 -3 138.5t-58 88
t-109 30.5q-99 0 -157.5 -65.5t-77.5 -181.5zM366 765l101 174h112l-142 -174h-71zM513 765l110 174h112l-151 -174h-71z" />
    <glyph glyph-name="ohungarumlaut" unicode="&#x151;" horiz-adv-x="592" 
d="M266 -10q-82 0 -136.5 33t-77 95.5t-9.5 149.5q13 81 52.5 136t99 83t132.5 28q83 0 137 -33t76.5 -95t8.5 -149q-13 -81 -52.5 -136t-98.5 -83.5t-132 -28.5zM273 86q57 0 98 40.5t54 121.5q14 88 -16 129.5t-90 41.5q-58 0 -98 -40.5t-53 -120.5q-14 -88 15 -130
t90 -42zM384 554l68 203h105l-107 -203h-66zM235 554l68 203h105l-106 -203h-67z" />
    <glyph glyph-name="OE" unicode="&#x152;" horiz-adv-x="1055" 
d="M505 0l112 705h468l-16 -101h-345l-30 -195h322l-16 -102h-322l-33 -205h344l-16 -102h-468zM345 -10q-105 0 -171.5 48.5t-92 134t-8.5 195.5q18 111 67.5 188.5t125.5 118t172 40.5q60 0 108.5 -17.5t76.5 -52.5l-22 -135q-22 48 -62 71.5t-97 23.5q-99 0 -158 -65.5
t-77 -181.5q-13 -80 1.5 -138t55 -89t105.5 -31q62 0 105.5 23t74.5 63l-20 -129q-37 -32 -82 -49.5t-102 -17.5z" />
    <glyph glyph-name="oe" unicode="&#x153;" horiz-adv-x="931" 
d="M266 -10q-82 0 -137 33t-77.5 95.5t-8.5 149.5q13 81 52.5 136t99 83t132.5 28q77 0 126 -33t68 -96h-37q24 44 57.5 72.5t74 42.5t84.5 14q72 0 118.5 -31.5t66.5 -86.5t10 -127l-5 -35h-362l10 66h275l-21 -16q11 71 -15 107.5t-81 36.5q-41 0 -71.5 -19t-48.5 -52.5
t-24 -75.5l-5 -33q-11 -78 23 -120.5t116 -42.5q38 0 74.5 11.5t71.5 37.5l36 -84q-40 -30 -92 -45.5t-106 -15.5q-84 0 -139 34.5t-75 96.5l37 2q-34 -64 -92 -98.5t-135 -34.5zM273 86q57 0 98 40.5t54 121.5q14 88 -16 129.5t-90 41.5q-58 0 -97.5 -40.5t-53.5 -120.5
q-14 -88 15 -130t90 -42z" />
    <glyph glyph-name="Racute" unicode="&#x154;" horiz-adv-x="702" 
d="M38 0l112 705h296q125 0 181 -57t39 -161q-9 -61 -44.5 -105t-91 -67.5t-125.5 -23.5l5 19h31q42 0 70.5 -22.5t44.5 -66.5l75 -221h-135l-76 229q-10 35 -37 46t-67 11h-104l-45 -286h-129zM227 381h166q65 0 102.5 28t45.5 80q9 58 -21.5 86.5t-98.5 28.5h-159z
M392 765l130 174h133l-174 -174h-89z" />
    <glyph glyph-name="racute" unicode="&#x155;" horiz-adv-x="393" 
d="M27 0l60 376q5 32 8.5 65t4.5 64h121l-7 -138h-22q18 50 46.5 83t65.5 49t78 16q14 0 26 -1.5t23 -3.5l-19 -111q-16 7 -29.5 9t-33.5 2q-40 0 -72 -17t-53 -48.5t-28 -75.5l-43 -269h-126zM245 554l132 203h126l-174 -203h-84z" />
    <glyph glyph-name="uni0156" unicode="&#x156;" horiz-adv-x="702" 
d="M38 0l112 705h296q125 0 181 -57t39 -161q-9 -61 -44.5 -105t-91 -67.5t-125.5 -23.5l5 19h31q42 0 70.5 -22.5t44.5 -66.5l75 -221h-135l-76 229q-10 35 -37 46t-67 11h-104l-45 -286h-129zM227 381h166q65 0 102.5 28t45.5 80q9 58 -21.5 86.5t-98.5 28.5h-159z
M278 -278l-38 36q26 20 35 38.5t13 43.5l25 -15h-92l17 102h131l-13 -76q-7 -43 -23 -73.5t-55 -55.5z" />
    <glyph glyph-name="uni0157" unicode="&#x157;" horiz-adv-x="393" 
d="M27 0l60 376q5 32 8.5 65t4.5 64h121l-7 -138h-22q18 50 46.5 83t65.5 49t78 16q14 0 26 -1.5t23 -3.5l-19 -111q-16 7 -29.5 9t-33.5 2q-40 0 -72 -17t-53 -48.5t-28 -75.5l-43 -269h-126zM53 -278l-38 36q26 20 35 38.5t13 43.5l25 -15h-92l17 102h131l-13 -76
q-7 -43 -23 -73.5t-55 -55.5z" />
    <glyph glyph-name="Rcaron" unicode="&#x158;" horiz-adv-x="702" 
d="M38 0l112 705h296q125 0 181 -57t39 -161q-9 -61 -44.5 -105t-91 -67.5t-125.5 -23.5l5 19h31q42 0 70.5 -22.5t44.5 -66.5l75 -221h-135l-76 229q-10 35 -37 46t-67 11h-104l-45 -286h-129zM227 381h166q65 0 102.5 28t45.5 80q9 58 -21.5 86.5t-98.5 28.5h-159z
M382 765l-108 174h85l80 -104l101 104h91l-142 -174h-107z" />
    <glyph glyph-name="rcaron" unicode="&#x159;" horiz-adv-x="393" 
d="M27 0l60 376q5 32 8.5 65t4.5 64h121l-7 -138h-22q18 50 46.5 83t65.5 49t78 16q14 0 26 -1.5t23 -3.5l-19 -111q-16 7 -29.5 9t-33.5 2q-40 0 -72 -17t-53 -48.5t-28 -75.5l-43 -269h-126zM233 554l-90 203h79l70 -132l101 132h80l-131 -203h-109z" />
    <glyph glyph-name="Sacute" unicode="&#x15a;" horiz-adv-x="645" 
d="M291 -10q-82 0 -150.5 19.5t-113.5 50.5l45 101q47 -28 103 -45.5t126 -17.5q78 0 117 26t45 67q6 38 -14 61t-77 31l-104 17q-94 15 -138.5 68.5t-31.5 137.5q10 64 50 110.5t105.5 72.5t150.5 26q71 0 131 -18.5t97 -50.5l-45 -99q-37 28 -85.5 44t-110.5 16
q-72 0 -115 -26.5t-51 -73.5q-7 -39 14 -64.5t79 -34.5l104 -16q96 -15 139 -66t30 -135q-9 -58 -48 -103.5t-102.5 -71.5t-149.5 -26zM369 765l130 174h133l-174 -174h-89z" />
    <glyph glyph-name="sacute" unicode="&#x15b;" horiz-adv-x="501" 
d="M217 -10q-62 0 -114.5 14.5t-84.5 39.5l37 84q35 -22 78.5 -35.5t89.5 -13.5q49 0 76.5 16.5t31.5 44.5q4 25 -10 40.5t-47 20.5l-81 13q-73 12 -102.5 52t-20.5 100q8 48 38.5 81t78 50.5t105.5 17.5q56 0 103 -13.5t77 -37.5l-40 -82q-27 20 -64.5 32.5t-75.5 12.5
q-50 0 -77 -18t-32 -46q-4 -24 8 -40.5t43 -21.5l83 -14q75 -12 105.5 -49.5t20.5 -97.5q-7 -48 -38 -81.5t-79 -51t-109 -17.5zM262 554l132 203h126l-174 -203h-84z" />
    <glyph glyph-name="Scircumflex" unicode="&#x15c;" horiz-adv-x="645" 
d="M291 -10q-82 0 -150.5 19.5t-113.5 50.5l45 101q47 -28 103 -45.5t126 -17.5q78 0 117 26t45 67q6 38 -14 61t-77 31l-104 17q-94 15 -138.5 68.5t-31.5 137.5q10 64 50 110.5t105.5 72.5t150.5 26q71 0 131 -18.5t97 -50.5l-45 -99q-37 28 -85.5 44t-110.5 16
q-72 0 -115 -26.5t-51 -73.5q-7 -39 14 -64.5t79 -34.5l104 -16q96 -15 139 -66t30 -135q-9 -58 -48 -103.5t-102.5 -71.5t-149.5 -26zM228 765l142 174h107l107 -174h-87l-79 104l-103 -104h-87z" />
    <glyph glyph-name="scircumflex" unicode="&#x15d;" horiz-adv-x="501" 
d="M217 -10q-62 0 -114.5 14.5t-84.5 39.5l37 84q35 -22 78.5 -35.5t89.5 -13.5q49 0 76.5 16.5t31.5 44.5q4 25 -10 40.5t-47 20.5l-81 13q-73 12 -102.5 52t-20.5 100q8 48 38.5 81t78 50.5t105.5 17.5q56 0 103 -13.5t77 -37.5l-40 -82q-27 20 -64.5 32.5t-75.5 12.5
q-50 0 -77 -18t-32 -46q-4 -24 8 -40.5t43 -21.5l83 -14q75 -12 105.5 -49.5t20.5 -97.5q-7 -48 -38 -81.5t-79 -51t-109 -17.5zM134 554l132 203h109l90 -203h-79l-71 132l-101 -132h-80z" />
    <glyph glyph-name="Scedilla" unicode="&#x15e;" horiz-adv-x="645" 
d="M291 -10q-82 0 -150.5 19.5t-113.5 50.5l45 101q47 -28 103 -45.5t126 -17.5q78 0 117 26t45 67q6 38 -14 61t-77 31l-104 17q-94 15 -138.5 68.5t-31.5 137.5q10 64 50 110.5t105.5 72.5t150.5 26q71 0 131 -18.5t97 -50.5l-45 -99q-37 28 -85.5 44t-110.5 16
q-72 0 -115 -26.5t-51 -73.5q-7 -39 14 -64.5t79 -34.5l104 -16q96 -15 139 -66t30 -135q-9 -58 -48 -103.5t-102.5 -71.5t-149.5 -26zM268 -195q-29 0 -55.5 5.5t-44.5 15.5l23 56q17 -8 34.5 -12.5t38.5 -4.5q27 0 42 8t15 24q0 10 -8.5 15.5t-26.5 5.5q-9 0 -18.5 -1
t-23.5 -5l-17 18l28 90h66l-24 -76l-31 11q12 4 24 6t22 2q39 0 61.5 -17t22.5 -49q0 -42 -36.5 -67t-91.5 -25z" />
    <glyph glyph-name="scedilla" unicode="&#x15f;" horiz-adv-x="501" 
d="M217 -10q-62 0 -114.5 14.5t-84.5 39.5l37 84q35 -22 78.5 -35.5t89.5 -13.5q49 0 76.5 16.5t31.5 44.5q4 25 -10 40.5t-47 20.5l-81 13q-73 12 -102.5 52t-20.5 100q8 48 38.5 81t78 50.5t105.5 17.5q56 0 103 -13.5t77 -37.5l-40 -82q-27 20 -64.5 32.5t-75.5 12.5
q-50 0 -77 -18t-32 -46q-4 -24 8 -40.5t43 -21.5l83 -14q75 -12 105.5 -49.5t20.5 -97.5q-7 -48 -38 -81.5t-79 -51t-109 -17.5zM186 -195q-29 0 -55.5 5.5t-44.5 15.5l23 56q17 -8 34.5 -12.5t38.5 -4.5q27 0 42 8t15 24q0 10 -8.5 15.5t-26.5 5.5q-9 0 -18.5 -1t-23.5 -5
l-17 18l28 90h66l-24 -76l-31 11q12 4 24 6t22 2q39 0 61.5 -17t22.5 -49q0 -42 -36.5 -67t-91.5 -25z" />
    <glyph glyph-name="Scaron" unicode="&#x160;" horiz-adv-x="645" 
d="M291 -10q-82 0 -150.5 19.5t-113.5 50.5l45 101q47 -28 103 -45.5t126 -17.5q78 0 117 26t45 67q6 38 -14 61t-77 31l-104 17q-94 15 -138.5 68.5t-31.5 137.5q10 64 50 110.5t105.5 72.5t150.5 26q71 0 131 -18.5t97 -50.5l-45 -99q-37 28 -85.5 44t-110.5 16
q-72 0 -115 -26.5t-51 -73.5q-7 -39 14 -64.5t79 -34.5l104 -16q96 -15 139 -66t30 -135q-9 -58 -48 -103.5t-102.5 -71.5t-149.5 -26zM359 765l-108 174h85l80 -104l101 104h91l-142 -174h-107z" />
    <glyph glyph-name="scaron" unicode="&#x161;" horiz-adv-x="501" 
d="M217 -10q-62 0 -114.5 14.5t-84.5 39.5l37 84q35 -22 78.5 -35.5t89.5 -13.5q49 0 76.5 16.5t31.5 44.5q4 25 -10 40.5t-47 20.5l-81 13q-73 12 -102.5 52t-20.5 100q8 48 38.5 81t78 50.5t105.5 17.5q56 0 103 -13.5t77 -37.5l-40 -82q-27 20 -64.5 32.5t-75.5 12.5
q-50 0 -77 -18t-32 -46q-4 -24 8 -40.5t43 -21.5l83 -14q75 -12 105.5 -49.5t20.5 -97.5q-7 -48 -38 -81.5t-79 -51t-109 -17.5zM250 554l-90 203h79l70 -132l101 132h80l-131 -203h-109z" />
    <glyph glyph-name="uni0162" unicode="&#x162;" horiz-adv-x="619" 
d="M204 0l95 599h-233l17 106h595l-17 -106h-233l-95 -599h-129zM248 -195q-29 0 -55.5 5.5t-44.5 15.5l23 56q17 -8 34.5 -12.5t38.5 -4.5q27 0 42 8t15 24q0 10 -8.5 15.5t-26.5 5.5q-9 0 -18.5 -1t-23.5 -5l-17 18l28 90h66l-24 -76l-31 11q12 4 24 6t22 2q39 0 61.5 -17
t22.5 -49q0 -42 -36.5 -67t-91.5 -25z" />
    <glyph glyph-name="uni0163" unicode="&#x163;" horiz-adv-x="379" 
d="M247 -10q-94 0 -132.5 48.5t-24.5 139.5l37 233h-97l15 94h97l21 129l130 32l-26 -161h135l-15 -94h-135l-35 -224q-8 -52 9 -73.5t53 -21.5q17 0 31 3t28 8l-16 -99q-19 -7 -37.5 -10.5t-37.5 -3.5zM178 -195q-29 0 -55.5 5.5t-44.5 15.5l23 56q17 -8 34.5 -12.5
t38.5 -4.5q27 0 42 8t15 24q0 10 -8.5 15.5t-26.5 5.5q-9 0 -18.5 -1t-23.5 -5l-17 18l28 90h66l-24 -76l-31 11q12 4 24 6t22 2q39 0 61.5 -17t22.5 -49q0 -42 -36.5 -67t-91.5 -25z" />
    <glyph glyph-name="Tcaron" unicode="&#x164;" horiz-adv-x="619" 
d="M204 0l95 599h-233l17 106h595l-17 -106h-233l-95 -599h-129zM338 765l-108 174h85l80 -104l101 104h91l-142 -174h-107z" />
    <glyph glyph-name="tcaron" unicode="&#x165;" horiz-adv-x="379" 
d="M247 -10q-94 0 -132.5 48.5t-24.5 139.5l37 233h-97l15 94h97l21 129l130 32l-26 -161h135l-15 -94h-135l-35 -224q-8 -52 9 -73.5t53 -21.5q17 0 31 3t28 8l-16 -99q-19 -7 -37.5 -10.5t-37.5 -3.5zM331 538l29 183h84l-56 -183h-57z" />
    <glyph glyph-name="Tbar" unicode="&#x166;" horiz-adv-x="619" 
d="M204 0l95 599h-233l17 106h595l-17 -106h-233l-95 -599h-129zM116 310l15 94h405l-15 -94h-405z" />
    <glyph glyph-name="tbar" unicode="&#x167;" horiz-adv-x="379" 
d="M247 -10q-94 0 -132.5 48.5t-24.5 139.5l37 233h-97l15 94h97l21 129l130 32l-26 -161h135l-15 -94h-135l-35 -224q-8 -52 9 -73.5t53 -21.5q17 0 31 3t28 8l-16 -99q-19 -7 -37.5 -10.5t-37.5 -3.5zM31 232l12 76h308l-13 -76h-307z" />
    <glyph glyph-name="Utilde" unicode="&#x168;" horiz-adv-x="740" 
d="M340 -10q-94 0 -158 33.5t-91 100.5t-11 169l66 412h129l-66 -417q-15 -93 18 -140.5t126 -47.5q83 0 130.5 45t63.5 145l66 415h127l-67 -421q-16 -100 -57 -165t-109.5 -97t-166.5 -32zM291 772l-62 4q11 71 48.5 109.5t92.5 38.5q30 0 56 -11.5t49 -25.5
q20 -11 38 -20t37 -9q56 0 74 70l62 -4q-11 -71 -48 -109.5t-92 -38.5q-30 0 -56 12t-49 25q-20 11 -38.5 20t-37.5 9q-56 0 -74 -70z" />
    <glyph glyph-name="utilde" unicode="&#x169;" horiz-adv-x="596" 
d="M217 -10q-92 0 -134 53t-26 158l48 304h125l-48 -302q-9 -60 11 -87t69 -27q56 0 91 36t45 96l45 284h125l-80 -505h-122l16 103h15q-29 -54 -75 -83.5t-105 -29.5zM219 585l-62 4q10 71 44 109.5t85 38.5q27 0 45.5 -11t34.5 -25q14 -12 28.5 -21t31.5 -9q50 0 67 70
l62 -4q-10 -71 -44 -109.5t-84 -38.5q-27 0 -46.5 12t-35.5 25q-14 11 -28 20t-31 9q-50 0 -67 -70z" />
    <glyph glyph-name="Umacron" unicode="&#x16a;" horiz-adv-x="740" 
d="M340 -10q-94 0 -158 33.5t-91 100.5t-11 169l66 412h129l-66 -417q-15 -93 18 -140.5t126 -47.5q83 0 130.5 45t63.5 145l66 415h127l-67 -421q-16 -100 -57 -165t-109.5 -97t-166.5 -32zM287 806l11 74h346l-12 -74h-345z" />
    <glyph glyph-name="umacron" unicode="&#x16b;" horiz-adv-x="596" 
d="M217 -10q-92 0 -134 53t-26 158l48 304h125l-48 -302q-9 -60 11 -87t69 -27q56 0 91 36t45 96l45 284h125l-80 -505h-122l16 103h15q-29 -54 -75 -83.5t-105 -29.5zM199 617l11 74h316l-12 -74h-315z" />
    <glyph glyph-name="Ubreve" unicode="&#x16c;" horiz-adv-x="740" 
d="M340 -10q-94 0 -158 33.5t-91 100.5t-11 169l66 412h129l-66 -417q-15 -93 18 -140.5t126 -47.5q83 0 130.5 45t63.5 145l66 415h127l-67 -421q-16 -100 -57 -165t-109.5 -97t-166.5 -32zM456 760q-51 0 -89 21.5t-59 60t-21 88.5l71 9q-1 -49 27 -76.5t76 -27.5t80 27.5
t41 76.5l70 -9q-12 -78 -65 -124t-131 -46z" />
    <glyph glyph-name="ubreve" unicode="&#x16d;" horiz-adv-x="596" 
d="M217 -10q-92 0 -134 53t-26 158l48 304h125l-48 -302q-9 -60 11 -87t69 -27q56 0 91 36t45 96l45 284h125l-80 -505h-122l16 103h15q-29 -54 -75 -83.5t-105 -29.5zM354 552q-48 0 -83.5 23.5t-53.5 67t-15 102.5l72 7q-2 -60 20.5 -92t64.5 -32t69.5 32t35.5 92l71 -7
q-7 -59 -31 -102.5t-62.5 -67t-87.5 -23.5z" />
    <glyph glyph-name="Uring" unicode="&#x16e;" horiz-adv-x="740" 
d="M340 -10q-94 0 -158 33.5t-91 100.5t-11 169l66 412h129l-66 -417q-15 -93 18 -140.5t126 -47.5q83 0 130.5 45t63.5 145l66 415h127l-67 -421q-16 -100 -57 -165t-109.5 -97t-166.5 -32zM467 755q-35 0 -64 16.5t-45.5 44.5t-16.5 62q0 35 16.5 62.5t45.5 43.5t64 16
q36 0 64.5 -16t45 -43.5t16.5 -62.5q0 -34 -16.5 -62t-45 -44.5t-64.5 -16.5zM467 812q29 0 47 19t18 47t-18 46.5t-47 18.5q-28 0 -46.5 -18.5t-18.5 -46.5t18.5 -47t46.5 -19z" />
    <glyph glyph-name="uring" unicode="&#x16f;" horiz-adv-x="596" 
d="M217 -10q-92 0 -134 53t-26 158l48 304h125l-48 -302q-9 -60 11 -87t69 -27q56 0 91 36t45 96l45 284h125l-80 -505h-122l16 103h15q-29 -54 -75 -83.5t-105 -29.5zM364 547q-35 0 -64 16t-45.5 44t-16.5 62q0 35 16.5 62.5t45.5 44t64 16.5q36 0 64.5 -16.5t45 -44
t16.5 -62.5q0 -34 -16.5 -62t-45 -44t-64.5 -16zM364 604q29 0 47 19t18 46q0 29 -18 47t-47 18q-28 0 -46.5 -18t-18.5 -46q0 -29 18.5 -47.5t46.5 -18.5z" />
    <glyph glyph-name="Uhungarumlaut" unicode="&#x170;" horiz-adv-x="740" 
d="M340 -10q-94 0 -158 33.5t-91 100.5t-11 169l66 412h129l-66 -417q-15 -93 18 -140.5t126 -47.5q83 0 130.5 45t63.5 145l66 415h127l-67 -421q-16 -100 -57 -165t-109.5 -97t-166.5 -32zM345 765l101 174h112l-142 -174h-71zM492 765l110 174h112l-151 -174h-71z" />
    <glyph glyph-name="uhungarumlaut" unicode="&#x171;" horiz-adv-x="596" 
d="M217 -10q-92 0 -134 53t-26 158l48 304h125l-48 -302q-9 -60 11 -87t69 -27q56 0 91 36t45 96l45 284h125l-80 -505h-122l16 103h15q-29 -54 -75 -83.5t-105 -29.5zM385 555l68 203h105l-107 -203h-66zM236 555l68 203h105l-106 -203h-67z" />
    <glyph glyph-name="Uogonek" unicode="&#x172;" horiz-adv-x="740" 
d="M340 -10q-94 0 -158 33.5t-91 100.5t-11 169l66 412h129l-66 -417q-15 -93 18 -140.5t126 -47.5q83 0 130.5 45t63.5 145l66 415h127l-67 -421q-16 -100 -57 -165t-109.5 -97t-166.5 -32zM381 -195q-51 0 -78.5 25.5t-27.5 68.5q0 48 32 86t81 57l33 -42q-35 -14 -51 -36
t-16 -45q0 -21 14 -34t37 -13q14 0 26.5 3t27.5 8l12 -62q-24 -7 -45 -11.5t-45 -4.5z" />
    <glyph glyph-name="uogonek" unicode="&#x173;" horiz-adv-x="596" 
d="M217 -10q-92 0 -134 53t-26 158l48 304h125l-48 -302q-9 -60 11 -87t69 -27q56 0 91 36t45 96l45 284h125l-80 -505h-122l16 103h15q-29 -54 -75 -83.5t-105 -29.5zM418 -195q-51 0 -78.5 25.5t-27.5 68.5q0 48 32 86t81 57l33 -42q-35 -14 -51 -36t-16 -45q0 -21 14 -34
t37 -13q14 0 26.5 3t27.5 8l12 -62q-24 -7 -45 -11.5t-45 -4.5z" />
    <glyph glyph-name="Wcircumflex" unicode="&#x174;" horiz-adv-x="1121" 
d="M234 0l-137 705h129l100 -578h-40l299 578h96l100 -578h-37l293 578h131l-363 -705h-107l-100 542h21l-278 -542h-107zM458 765l142 174h107l107 -174h-87l-79 104l-103 -104h-87z" />
    <glyph glyph-name="wcircumflex" unicode="&#x175;" horiz-adv-x="883" 
d="M168 0l-117 505h124l80 -393h-26l207 393h89l80 -393h-23l204 393h126l-277 -505h-110l-88 402h54l-212 -402h-111zM320 554l132 203h109l90 -203h-79l-71 132l-101 -132h-80z" />
    <glyph glyph-name="Ycircumflex" unicode="&#x176;" horiz-adv-x="629" 
d="M210 0l53 333l14 -77l-230 449h143l157 -320h-28l259 320h149l-374 -454l39 82l-53 -333h-129zM212 765l142 174h107l107 -174h-87l-79 104l-103 -104h-87z" />
    <glyph glyph-name="ycircumflex" unicode="&#x177;" horiz-adv-x="543" 
d="M-17 -227l-20 99q49 10 83 23t58.5 34t44.5 54l34 59l-6 -49l-139 512h129l95 -394h-29l222 394h130l-314 -533q-32 -54 -64.5 -89.5t-67 -57t-73 -33.5t-83.5 -19zM149 554l132 203h109l90 -203h-79l-71 132l-101 -132h-80z" />
    <glyph glyph-name="Ydieresis" unicode="&#x178;" horiz-adv-x="629" 
d="M210 0l53 333l14 -77l-230 449h143l157 -320h-28l259 320h149l-374 -454l39 82l-53 -333h-129zM437 790l18 115h115l-19 -115h-114zM248 790l18 115h115l-18 -115h-115z" />
    <glyph glyph-name="Zacute" unicode="&#x179;" horiz-adv-x="608" 
d="M5 0l15 95l475 544l-6 -41h-389l17 107h518l-15 -94l-476 -544l6 40h403l-17 -107h-531zM349 765l130 174h133l-174 -174h-89z" />
    <glyph glyph-name="zacute" unicode="&#x17a;" horiz-adv-x="526" 
d="M8 0l13 82l367 359l-5 -30h-310l15 94h429l-13 -82l-370 -362l5 33h324l-15 -94h-440zM273 554l132 203h126l-174 -203h-84z" />
    <glyph glyph-name="Zdotaccent" unicode="&#x17b;" horiz-adv-x="608" 
d="M5 0l15 95l475 544l-6 -41h-389l17 107h518l-15 -94l-476 -544l6 40h403l-17 -107h-531zM336 794l18 116h121l-18 -116h-121z" />
    <glyph glyph-name="zdotaccent" unicode="&#x17c;" horiz-adv-x="526" 
d="M8 0l13 82l367 359l-5 -30h-310l15 94h429l-13 -82l-370 -362l5 33h324l-15 -94h-440zM260 597l19 116h122l-18 -116h-123z" />
    <glyph glyph-name="Zcaron" unicode="&#x17d;" horiz-adv-x="608" 
d="M5 0l15 95l475 544l-6 -41h-389l17 107h518l-15 -94l-476 -544l6 40h403l-17 -107h-531zM339 765l-108 174h85l80 -104l101 104h91l-142 -174h-107z" />
    <glyph glyph-name="zcaron" unicode="&#x17e;" horiz-adv-x="526" 
d="M8 0l13 82l367 359l-5 -30h-310l15 94h429l-13 -82l-370 -362l5 33h324l-15 -94h-440zM261 554l-90 203h79l70 -132l101 132h80l-131 -203h-109z" />
    <glyph glyph-name="uni0181" unicode="&#x181;" horiz-adv-x="845" 
d="M192 0l97 614h-27q-52 0 -79.5 -23.5t-35.5 -73.5l-8 -48h-105l8 52q15 92 74.5 138t168.5 46h328q115 0 169 -49.5t40 -140.5q-10 -63 -55 -105t-113 -57l2 15q74 -11 109 -59.5t24 -121.5q-14 -90 -84.5 -138.5t-186.5 -48.5h-326zM332 98h183q65 0 104 23.5t47 74.5
q7 42 -5.5 66.5t-40.5 35.5t-70 11h-185zM381 406h165q68 0 105 24.5t44 69.5q8 56 -19.5 82t-91.5 26h-172z" />
    <glyph glyph-name="uni018A" unicode="&#x18a;" horiz-adv-x="917" 
d="M192 0l97 614h-27q-52 0 -79.5 -23.5t-35.5 -73.5l-8 -48h-105l8 52q15 92 74.5 138t163.5 46h268q129 0 207.5 -44.5t108.5 -126.5t12 -196q-27 -169 -135.5 -253.5t-286.5 -84.5h-262zM338 107h119q128 0 200 59t91 180q20 130 -33 191.5t-182 61.5h-117z" />
    <glyph glyph-name="uni018F" unicode="&#x18f;" horiz-adv-x="766" 
d="M355 -10q-114 0 -182 47.5t-92.5 130.5t-8.5 191l7 45h552l-16 -100h-455l40 49q-13 -85 -2 -142t50 -86t111 -29q96 0 156 62t79 186q20 126 -26 193.5t-165 67.5q-64 0 -118.5 -16t-110.5 -53l-39 98q59 40 129.5 60.5t156.5 20.5q117 0 190.5 -47t102.5 -131.5
t11 -197.5q-17 -108 -68 -186.5t-128 -120.5t-174 -42z" />
    <glyph glyph-name="florin" unicode="&#x192;" horiz-adv-x="600" 
d="M-38 -190l15 99h58q36 0 62.5 20.5t45.5 70.5l151 410l21 -15h-134l15 94h149l-27 -17l23 65q29 83 91 130.5t149 47.5h60l-16 -100h-48q-43 0 -70 -20.5t-46 -70.5l-19 -52l-15 17h135l-15 -94h-151l23 16l-158 -424q-31 -82 -90.5 -129.5t-142.5 -47.5h-66z" />
    <glyph glyph-name="Ohorn" unicode="&#x1a0;" horiz-adv-x="787" 
d="M73 368q18 111 69 188.5t130.5 118t180.5 40.5q112 0 183 -48.5t99 -133.5t10 -195q-17 -111 -68.5 -188.5t-130.5 -118.5t-181 -41q-111 0 -182 48.5t-99 134t-11 195.5zM207 358q-13 -81 2.5 -138.5t57.5 -88.5t108 -31q99 0 159 66.5t78 181.5q13 81 -3 138.5t-58 88
t-109 30.5q-99 0 -157.5 -65.5t-77.5 -181.5zM559 641l-36 68q22 -1 38.5 -2.5t32.5 -1.5q36 0 58 9.5t34.5 33t19.5 63.5l3 21h110l-6 -37q-7 -44 -28 -79t-55 -55t-79 -20h-92z" />
    <glyph glyph-name="ohorn" unicode="&#x1a1;" horiz-adv-x="592" 
d="M266 -10q-82 0 -136.5 33t-77 95.5t-9.5 149.5q13 81 52.5 136t99 83t132.5 28q83 0 137 -33t76.5 -95t8.5 -149q-13 -81 -52.5 -136t-98.5 -83.5t-132 -28.5zM273 86q57 0 98 40.5t54 121.5q14 88 -16 129.5t-90 41.5q-58 0 -98 -40.5t-53 -120.5q-14 -88 15 -130
t90 -42zM457 441l-68 45l3 19q36 1 58 10.5t34.5 32.5t19.5 63l3 21h110l-7 -40q-10 -64 -49.5 -104.5t-103.5 -46.5z" />
    <glyph glyph-name="Uhorn" unicode="&#x1af;" horiz-adv-x="740" 
d="M340 -10q-94 0 -158 33.5t-91 100.5t-11 169l66 412h129l-66 -417q-15 -93 18 -140.5t126 -47.5q83 0 130.5 45t63.5 145l66 415h127l-67 -421q-16 -100 -57 -165t-109.5 -97t-166.5 -32zM722 641l-67 45l3 19q36 1 58 10t35 31.5t19 62.5l3 23h110l-6 -39
q-10 -64 -50.5 -105t-104.5 -47z" />
    <glyph glyph-name="uhorn" unicode="&#x1b0;" horiz-adv-x="596" 
d="M217 -10q-92 0 -134 53t-26 158l48 304h125l-48 -302q-9 -60 11 -87t69 -27q56 0 91 36t45 96l45 284h125l-80 -505h-122l16 103h15q-29 -54 -75 -83.5t-105 -29.5zM539 441l-68 45l3 19q36 1 58 10.5t34.5 32.5t19.5 63l3 21h110l-7 -40q-10 -64 -49.5 -104.5
t-103.5 -46.5z" />
    <glyph glyph-name="uni01B3" unicode="&#x1b3;" horiz-adv-x="629" 
d="M210 0l53 333l14 -77l-230 449h143l157 -320h-28l192 237q29 36 57.5 56t61 28.5t72.5 8.5q22 0 40 -3t31 -9l-14 -89q-10 4 -22 5.5t-27 1.5q-25 0 -47.5 -11t-44.5 -37l-265 -322l39 82l-53 -333h-129z" />
    <glyph glyph-name="uni01B4" unicode="&#x1b4;" horiz-adv-x="589" 
d="M-18 -227l-19 99q50 10 84 23t58 34t44 54l34 59l-6 -49l-139 512h129l95 -394h-29l158 282q24 43 51 70t61.5 39.5t82.5 12.5q21 0 39.5 -3t30.5 -8l-25 -93q-10 4 -19.5 5t-19.5 1q-31 0 -55 -16t-50 -60l-216 -369q-32 -54 -64.5 -89.5t-67 -57t-73.5 -33.5t-84 -19z
" />
    <glyph glyph-name="uni01C4" unicode="&#x1c4;" horiz-adv-x="1355" 
d="M38 0l112 705h244q128 0 206.5 -44.5t108.5 -126.5t12 -196q-27 -169 -135.5 -253.5t-286.5 -84.5h-261zM184 107h119q128 0 199.5 59t90.5 180q20 130 -33 191.5t-181 61.5h-118zM752 0l15 95l475 544l-6 -41h-389l17 107h518l-15 -94l-476 -544l6 40h403l-17 -107h-531
zM1086 765l-108 174h85l80 -104l101 104h91l-142 -174h-107z" />
    <glyph glyph-name="uni01C5" unicode="&#x1c5;" horiz-adv-x="1288" 
d="M38 0l112 705h244q128 0 206.5 -44.5t108.5 -126.5t12 -196q-27 -169 -135.5 -253.5t-286.5 -84.5h-261zM184 107h119q128 0 199.5 59t90.5 180q20 130 -33 191.5t-181 61.5h-118zM770 0l13 82l367 359l-5 -30h-310l15 94h429l-13 -82l-370 -362l5 33h324l-15 -94h-440z
M1023 554l-90 203h79l70 -132l101 132h80l-131 -203h-109z" />
    <glyph glyph-name="uni01C6" unicode="&#x1c6;" horiz-adv-x="1146" 
d="M234 -10q-69 0 -117 34t-67.5 96.5t-6.5 147.5q20 122 90.5 184.5t168.5 62.5q63 0 107 -30.5t53 -82.5h-11l53 334h125l-117 -736h-123l17 107h15q-25 -54 -72.5 -85.5t-114.5 -31.5zM275 86q58 0 99.5 40.5t54.5 121.5q14 88 -16.5 129.5t-91.5 41.5q-58 0 -99 -40.5
t-54 -120.5q-14 -88 16 -130t91 -42zM628 0l13 82l367 359l-5 -30h-310l15 94h429l-13 -82l-370 -362l5 33h324l-15 -94h-440zM881 554l-90 203h79l70 -132l101 132h80l-131 -203h-109z" />
    <glyph glyph-name="uni01C7" unicode="&#x1c7;" horiz-adv-x="962" 
d="M38 0l112 705h129l-95 -596h332l-17 -109h-461zM620 -187q-17 0 -40.5 2.5t-46.5 9.5l16 102q19 -7 36 -9t30 -2q46 0 71 27t34 86l107 676h129l-109 -686q-11 -72 -38.5 -117.5t-73.5 -67t-115 -21.5z" />
    <glyph glyph-name="uni01C8" unicode="&#x1c8;" horiz-adv-x="821" 
d="M38 0l112 705h129l-95 -596h332l-17 -109h-461zM502 -222q-19 0 -40 3t-38 10l16 99q12 -4 26.5 -7t28.5 -3q36 0 60 22t32 74l84 529h125l-85 -536q-15 -94 -66 -142.5t-143 -48.5zM678 600l20 122h139l-20 -122h-139z" />
    <glyph glyph-name="uni01C9" unicode="&#x1c9;" horiz-adv-x="521" 
d="M28 0l117 736h125l-117 -736h-125zM203 -222q-19 0 -40 3t-38 10l16 99q12 -4 26.5 -7t28.5 -3q36 0 60 22t32 74l84 529h125l-85 -536q-15 -94 -66 -142.5t-143 -48.5zM379 600l20 122h139l-20 -122h-139z" />
    <glyph glyph-name="uni01CA" unicode="&#x1ca;" horiz-adv-x="1117" 
d="M38 0l112 705h97l322 -536l-23 7l84 529h120l-112 -705h-97l-322 536l23 -7l-84 -529h-120zM775 -187q-17 0 -40.5 2.5t-46.5 9.5l16 102q19 -7 36 -9t30 -2q46 0 71 27t34 86l107 676h129l-109 -686q-11 -72 -38.5 -117.5t-73.5 -67t-115 -21.5z" />
    <glyph glyph-name="uni01CB" unicode="&#x1cb;" horiz-adv-x="1016" 
d="M38 0l112 705h97l322 -536l-23 7l84 529h120l-112 -705h-97l-322 536l23 -7l-84 -529h-120zM697 -222q-19 0 -40 3t-38 10l16 99q12 -4 26.5 -7t28.5 -3q36 0 60 22t32 74l84 529h125l-85 -536q-15 -94 -66 -142.5t-143 -48.5zM873 600l20 122h139l-20 -122h-139z" />
    <glyph glyph-name="uni01CC" unicode="&#x1cc;" horiz-adv-x="863" 
d="M28 0l60 379q5 31 8 63t4 63h121l-6 -100l-13 -1q30 55 80.5 83t113.5 28q92 0 129 -53.5t20 -160.5l-47 -301h-125l47 301q10 62 -10.5 89t-67.5 27q-58 0 -96 -35.5t-47 -94.5l-46 -287h-125zM545 -222q-19 0 -40 3t-38 10l16 99q12 -4 26.5 -7t28.5 -3q36 0 60 22
t32 74l84 529h125l-85 -536q-15 -94 -66 -142.5t-143 -48.5zM721 600l20 122h139l-20 -122h-139z" />
    <glyph glyph-name="uni01CD" unicode="&#x1cd;" horiz-adv-x="750" 
d="M-40 0l431 705h108l211 -705h-126l-55 198l47 -35h-423l59 35l-117 -198h-135zM427 567l-194 -334l-21 31h336l-26 -31l-91 334h-4zM402 765l-108 174h85l80 -104l101 104h91l-142 -174h-107z" />
    <glyph glyph-name="uni01CE" unicode="&#x1ce;" horiz-adv-x="620" 
d="M234 -10q-69 0 -117 34t-67.5 96.5t-6.5 147.5q20 122 90.5 184.5t168.5 62.5q63 0 107 -30.5t53 -82.5l-10 -3l28 106h120q-8 -31 -15.5 -63t-12.5 -63l-60 -379h-124l17 107h16q-25 -54 -72.5 -85.5t-114.5 -31.5zM275 86q58 0 99.5 40.5t54.5 121.5q14 88 -16.5 129.5
t-91.5 41.5q-58 0 -99 -40.5t-54 -120.5q-14 -88 16 -130t91 -42zM299 554l-90 203h79l70 -132l101 132h80l-131 -203h-109z" />
    <glyph glyph-name="uni01D4" unicode="&#x1d4;" horiz-adv-x="596" 
d="M217 -10q-92 0 -134 53t-26 158l48 304h125l-48 -302q-9 -60 11 -87t69 -27q56 0 91 36t45 96l45 284h125l-80 -505h-122l16 103h15q-29 -54 -75 -83.5t-105 -29.5zM292 555l-90 203h79l70 -132l101 132h80l-131 -203h-109z" />
    <glyph glyph-name="uni01E5" unicode="&#x1e5;" horiz-adv-x="623" 
d="M231 -223q-70 0 -123 14.5t-93 45.5l34 86q26 -17 55 -30t61.5 -19.5t65.5 -6.5q108 0 144 79l7 -11h-130l9 57h144l-19 -22q2 7 3 13.5t2 13.5l24 149h12q-24 -51 -75 -80.5t-113 -29.5q-68 0 -115.5 32t-68 89t-8.5 133q12 74 47 124t88.5 75.5t117.5 25.5
q65 0 109.5 -29.5t55.5 -81.5l-8 4l25 97h121q-9 -31 -16 -63t-12 -63l-57 -358q-1 -10 -3.5 -20.5t-4.5 -20.5l-11 12h76l-10 -57h-84l18 13q-31 -84 -97.5 -127.5t-170.5 -43.5zM282 130q59 0 100 37.5t51 104.5q11 71 -19 109t-92 38q-60 0 -100 -37t-51 -105
q-11 -72 19.5 -109.5t91.5 -37.5z" />
    <glyph glyph-name="Gcaron" unicode="&#x1e6;" horiz-adv-x="740" 
d="M391 -10q-127 0 -203.5 47t-104.5 131.5t-10 197.5q18 112 73 189.5t141.5 118.5t197.5 41q77 0 132 -18t92 -50l-47 -101q-41 31 -80.5 44t-101.5 13q-115 0 -185 -64.5t-88 -183.5q-19 -120 27 -187.5t170 -67.5q46 0 86.5 8t83.5 24l-38 -55l33 211h-164l15 94h272
l-54 -337q-33 -17 -75 -29.5t-86.5 -19t-85.5 -6.5zM438 765l-108 174h85l80 -104l101 104h91l-142 -174h-107z" />
    <glyph glyph-name="gcaron" unicode="&#x1e7;" horiz-adv-x="622" 
d="M234 -224q-69 0 -123 15t-95 46l36 91q26 -19 54.5 -31.5t60.5 -18.5t66 -6q72 0 111 34.5t49 98.5l19 121h11q-22 -51 -71 -82t-114 -31q-68 0 -116.5 32t-69 92t-7.5 142q19 115 89 175.5t170 60.5q64 0 108 -30.5t52 -82.5l-7 6l25 97h121q-9 -31 -16 -63t-12 -63
l-57 -359q-19 -119 -90.5 -181.5t-193.5 -62.5zM278 108q61 0 102 40.5t52 113.5q12 77 -17.5 117t-90.5 40t-102 -40t-53 -114q-12 -76 18 -116.5t91 -40.5zM309 554l-90 203h79l70 -132l101 132h80l-131 -203h-109z" />
    <glyph glyph-name="uni01E9" unicode="&#x1e9;" horiz-adv-x="552" 
d="M28 0l117 736h125l-71 -446h2l234 215h156l-293 -267v50l231 -288h-150l-188 226h-2l-36 -226h-125zM311 781l-108 174h85l80 -104l101 104h91l-142 -174h-107z" />
    <glyph glyph-name="uni01EA" unicode="&#x1ea;" horiz-adv-x="787" 
d="M73 368q18 111 69 188.5t130.5 118t180.5 40.5q112 0 183 -48.5t99 -133.5t10 -195q-17 -111 -68.5 -188.5t-130.5 -118.5t-181 -41q-111 0 -182 48.5t-99 134t-11 195.5zM207 358q-13 -81 2.5 -138.5t57.5 -88.5t108 -31q99 0 159 66.5t78 181.5q13 81 -3 138.5t-58 88
t-109 30.5q-99 0 -157.5 -65.5t-77.5 -181.5zM380 -195q-51 0 -78.5 25.5t-27.5 68.5q0 48 32 86t81 57l33 -42q-35 -14 -51 -36t-16 -45q0 -21 14 -34t37 -13q14 0 26.5 3t27.5 8l12 -62q-24 -7 -45 -11.5t-45 -4.5z" />
    <glyph glyph-name="uni01EB" unicode="&#x1eb;" horiz-adv-x="592" 
d="M266 -10q-82 0 -136.5 33t-77 95.5t-9.5 149.5q13 81 52.5 136t99 83t132.5 28q83 0 137 -33t76.5 -95t8.5 -149q-13 -81 -52.5 -136t-98.5 -83.5t-132 -28.5zM273 86q57 0 98 40.5t54 121.5q14 88 -16 129.5t-90 41.5q-58 0 -98 -40.5t-53 -120.5q-14 -88 15 -130
t90 -42zM273 -195q-51 0 -78.5 25.5t-27.5 68.5q0 48 32 86t81 57l33 -42q-35 -14 -51 -36t-16 -45q0 -21 14 -34t37 -13q14 0 26.5 3t27.5 8l12 -62q-24 -7 -45 -11.5t-45 -4.5z" />
    <glyph glyph-name="Aringacute" unicode="&#x1fa;" horiz-adv-x="750" 
d="M-40 0l431 705h108l211 -705h-126l-55 198l47 -35h-423l59 35l-117 -198h-135zM427 567l-194 -334l-21 31h336l-26 -31l-91 334h-4zM457 755q-34 0 -61.5 15.5t-44 42.5t-16.5 60t16.5 59.5t44 42t61.5 15.5q17 0 33.5 -4.5t29.5 -12.5l65 60h100l-122 -105
q15 -24 15 -55q0 -33 -16 -60t-43.5 -42.5t-61.5 -15.5zM457 807q28 0 46.5 19t18.5 47t-18.5 46.5t-46.5 18.5t-46.5 -18.5t-18.5 -46.5t18.5 -47t46.5 -19z" />
    <glyph glyph-name="aringacute" unicode="&#x1fb;" horiz-adv-x="620" 
d="M234 -10q-69 0 -117 34t-67.5 96.5t-6.5 147.5q20 122 90.5 184.5t168.5 62.5q63 0 107 -30.5t53 -82.5l-10 -3l28 106h120q-8 -31 -15.5 -63t-12.5 -63l-60 -379h-124l17 107h16q-25 -54 -72.5 -85.5t-114.5 -31.5zM275 86q58 0 99.5 40.5t54.5 121.5q14 88 -16.5 129.5
t-91.5 41.5q-58 0 -99 -40.5t-54 -120.5q-14 -88 16 -130t91 -42zM368 541q-34 0 -61.5 15.5t-43.5 42t-16 59.5t16 60t43.5 42.5t61.5 15.5q18 0 34 -5t30 -13l65 60h100l-122 -104q14 -26 14 -56q0 -33 -16 -59.5t-43.5 -42t-61.5 -15.5zM368 593q29 0 47 18.5t18 46.5
q0 29 -18 47t-47 18q-28 0 -46.5 -18t-18.5 -47q0 -28 18.5 -46.5t46.5 -18.5z" />
    <glyph glyph-name="AEacute" unicode="&#x1fc;" horiz-adv-x="1017" 
d="M-60 0l549 705h558l-17 -101h-377l27 21l-19 -251l-12 35h329l-16 -102h-326l20 10l-17 -243l-12 28h324l-16 -102h-419l14 194l24 -31h-369l48 34l-149 -197h-144zM539 603l-279 -369l-8 31h298l-16 -35l28 373h-23zM557 765l130 174h133l-174 -174h-89z" />
    <glyph glyph-name="aeacute" unicode="&#x1fd;" horiz-adv-x="872" 
d="M208 -10q-66 0 -108 25t-59 65t-10 85q9 50 45 79.5t101 42.5t161 13h51l-10 -65h-56q-55 0 -94 -7t-60.5 -24t-26.5 -46q-6 -36 15.5 -58.5t67.5 -22.5q56 0 92.5 34.5t45.5 91.5l17 111q9 55 -16.5 80.5t-74.5 25.5q-46 0 -85.5 -10.5t-85.5 -35.5l-33 86
q29 17 65.5 29.5t75.5 19t75 6.5q81 0 122.5 -27t51.5 -80h-36q38 54 90 80.5t114 26.5q72 0 119 -32t66.5 -87.5t8.5 -128.5l-5 -32h-360l10 66h271l-18 -16q10 71 -15 107.5t-82 36.5q-41 0 -71.5 -19t-48.5 -52.5t-24 -75.5l-5 -33q-11 -78 23.5 -120.5t115.5 -42.5
q38 0 74.5 11.5t72.5 37.5l35 -84q-40 -30 -92 -45.5t-106 -15.5q-88 0 -144 37t-78 105h28q-28 -67 -82 -104.5t-128 -37.5zM440 554l132 203h126l-174 -203h-84z" />
    <glyph glyph-name="Oslashacute" unicode="&#x1fe;" horiz-adv-x="787" 
d="M73 368q18 111 69 188.5t130.5 118t180.5 40.5q112 0 183 -48.5t99 -133.5t10 -195q-17 -111 -68.5 -188.5t-130.5 -118.5t-181 -41q-111 0 -182 48.5t-99 134t-11 195.5zM207 358q-13 -81 2.5 -138.5t57.5 -88.5t108 -31q99 0 159 66.5t78 181.5q13 81 -3 138.5t-58 88
t-109 30.5q-99 0 -157.5 -65.5t-77.5 -181.5zM254 62l-80 -109l-78 54l81 109l49 53l318 422l29 54l81 108l78 -54l-81 -108l-49 -54l-318 -422zM431 765l130 174h133l-174 -174h-89z" />
    <glyph glyph-name="oslashacute" unicode="&#x1ff;" horiz-adv-x="592" 
d="M266 -10q-82 0 -136.5 33t-77 95.5t-9.5 149.5q13 81 52.5 136t99 83t132.5 28q83 0 137 -33t76.5 -95t8.5 -149q-13 -81 -52.5 -136t-98.5 -83.5t-132 -28.5zM273 86q64 0 106.5 41t55.5 122q14 84 -18 127t-98 43q-64 0 -106.5 -40.5t-54.5 -121.5q-13 -82 16 -126.5
t99 -44.5zM124 -42l-57 40l405 547l55 -39zM303 554l132 203h126l-174 -203h-84z" />
    <glyph glyph-name="uni0200" unicode="&#x200;" horiz-adv-x="750" 
d="M-40 0l431 705h108l211 -705h-126l-55 198l47 -35h-423l59 35l-117 -198h-135zM427 567l-194 -334l-21 31h336l-26 -31l-91 334h-4zM494 765l-112 174h112l70 -174h-70zM347 765l-121 174h111l81 -174h-71z" />
    <glyph glyph-name="uni0201" unicode="&#x201;" horiz-adv-x="620" 
d="M234 -10q-69 0 -117 34t-67.5 96.5t-6.5 147.5q20 122 90.5 184.5t168.5 62.5q63 0 107 -30.5t53 -82.5l-10 -3l28 106h120q-8 -31 -15.5 -63t-12.5 -63l-60 -379h-124l17 107h16q-25 -54 -72.5 -85.5t-114.5 -31.5zM275 86q58 0 99.5 40.5t54.5 121.5q14 88 -16.5 129.5
t-91.5 41.5q-58 0 -99 -40.5t-54 -120.5q-14 -88 16 -130t91 -42zM396 554l-70 203h104l32 -203h-66zM247 554l-70 203h104l33 -203h-67z" />
    <glyph glyph-name="uni0202" unicode="&#x202;" horiz-adv-x="750" 
d="M-40 0l431 705h108l211 -705h-126l-55 198l47 -35h-423l59 35l-117 -198h-135zM427 567l-194 -334l-21 31h336l-26 -31l-91 334h-4zM341 760l-71 9q12 79 65.5 124.5t131.5 45.5q51 0 89 -21t59 -59.5t21 -89.5l-72 -9q1 50 -26.5 77.5t-75.5 27.5t-80.5 -27.5
t-40.5 -77.5z" />
    <glyph glyph-name="uni0203" unicode="&#x203;" horiz-adv-x="620" 
d="M234 -10q-69 0 -117 34t-67.5 96.5t-6.5 147.5q20 122 90.5 184.5t168.5 62.5q63 0 107 -30.5t53 -82.5l-10 -3l28 106h120q-8 -31 -15.5 -63t-12.5 -63l-60 -379h-124l17 107h16q-25 -54 -72.5 -85.5t-114.5 -31.5zM275 86q58 0 99.5 40.5t54.5 121.5q14 88 -16.5 129.5
t-91.5 41.5q-58 0 -99 -40.5t-54 -120.5q-14 -88 16 -130t91 -42zM252 551l-71 6q7 60 31.5 103.5t62.5 67t87 23.5t84 -24t53 -67.5t15 -102.5l-72 -6q2 59 -20 91.5t-64 32.5t-70 -32.5t-36 -91.5z" />
    <glyph glyph-name="uni0204" unicode="&#x204;" horiz-adv-x="595" 
d="M38 0l112 705h475l-16 -101h-352l-30 -195h328l-16 -102h-328l-33 -205h351l-16 -102h-475zM453 765l-112 174h112l70 -174h-70zM306 765l-121 174h111l81 -174h-71z" />
    <glyph glyph-name="uni0205" unicode="&#x205;" horiz-adv-x="548" 
d="M285 -10q-89 0 -147.5 35t-82.5 98.5t-11 147.5q12 76 48.5 130.5t93.5 84t130 29.5t120.5 -32t67.5 -87.5t8 -128.5l-5 -32h-367l10 66h279l-19 -16q11 71 -14.5 107.5t-84.5 36.5q-42 0 -72.5 -19t-49 -52.5t-24.5 -75.5l-5 -33q-11 -78 23.5 -120.5t117.5 -42.5
q39 0 76.5 11.5t72.5 37.5l36 -84q-41 -30 -93 -45.5t-108 -15.5zM379 554l-70 203h104l32 -203h-66zM230 554l-70 203h104l33 -203h-67z" />
    <glyph glyph-name="uni0206" unicode="&#x206;" horiz-adv-x="595" 
d="M38 0l112 705h475l-16 -101h-352l-30 -195h328l-16 -102h-328l-33 -205h351l-16 -102h-475zM300 760l-71 9q12 79 65.5 124.5t131.5 45.5q51 0 89 -21t59 -59.5t21 -89.5l-72 -9q1 50 -26.5 77.5t-75.5 27.5t-80.5 -27.5t-40.5 -77.5z" />
    <glyph glyph-name="uni0207" unicode="&#x207;" horiz-adv-x="548" 
d="M285 -10q-89 0 -147.5 35t-82.5 98.5t-11 147.5q12 76 48.5 130.5t93.5 84t130 29.5t120.5 -32t67.5 -87.5t8 -128.5l-5 -32h-367l10 66h279l-19 -16q11 71 -14.5 107.5t-84.5 36.5q-42 0 -72.5 -19t-49 -52.5t-24.5 -75.5l-5 -33q-11 -78 23.5 -120.5t117.5 -42.5
q39 0 76.5 11.5t72.5 37.5l36 -84q-41 -30 -93 -45.5t-108 -15.5zM235 551l-71 6q7 60 31.5 103.5t62.5 67t87 23.5t84 -24t53 -67.5t15 -102.5l-72 -6q2 59 -20 91.5t-64 32.5t-70 -32.5t-36 -91.5z" />
    <glyph glyph-name="uni0208" unicode="&#x208;" horiz-adv-x="284" 
d="M38 0l112 705h129l-112 -705h-129zM262 765l-112 174h112l70 -174h-70zM115 765l-121 174h111l81 -174h-71z" />
    <glyph glyph-name="uni0209" unicode="&#x209;" horiz-adv-x="261" 
d="M28 0l80 505h125l-80 -505h-125zM222 554l-70 203h104l32 -203h-66zM73 554l-70 203h104l33 -203h-67z" />
    <glyph glyph-name="uni020A" unicode="&#x20a;" horiz-adv-x="284" 
d="M38 0l112 705h129l-112 -705h-129zM109 760l-71 9q12 79 65.5 124.5t131.5 45.5q51 0 89 -21t59 -59.5t21 -89.5l-72 -9q1 50 -26.5 77.5t-75.5 27.5t-80.5 -27.5t-40.5 -77.5z" />
    <glyph glyph-name="uni020B" unicode="&#x20b;" horiz-adv-x="261" 
d="M28 0l80 505h125l-80 -505h-125zM78 551l-71 6q7 60 31.5 103.5t62.5 67t87 23.5t84 -24t53 -67.5t15 -102.5l-72 -6q2 59 -20 91.5t-64 32.5t-70 -32.5t-36 -91.5z" />
    <glyph glyph-name="uni020C" unicode="&#x20c;" horiz-adv-x="787" 
d="M73 368q18 111 69 188.5t130.5 118t180.5 40.5q112 0 183 -48.5t99 -133.5t10 -195q-17 -111 -68.5 -188.5t-130.5 -118.5t-181 -41q-111 0 -182 48.5t-99 134t-11 195.5zM207 358q-13 -81 2.5 -138.5t57.5 -88.5t108 -31q99 0 159 66.5t78 181.5q13 81 -3 138.5t-58 88
t-109 30.5q-99 0 -157.5 -65.5t-77.5 -181.5zM513 765l-112 174h112l70 -174h-70zM366 765l-121 174h111l81 -174h-71z" />
    <glyph glyph-name="uni020D" unicode="&#x20d;" horiz-adv-x="592" 
d="M266 -10q-82 0 -136.5 33t-77 95.5t-9.5 149.5q13 81 52.5 136t99 83t132.5 28q83 0 137 -33t76.5 -95t8.5 -149q-13 -81 -52.5 -136t-98.5 -83.5t-132 -28.5zM273 86q57 0 98 40.5t54 121.5q14 88 -16 129.5t-90 41.5q-58 0 -98 -40.5t-53 -120.5q-14 -88 15 -130
t90 -42zM388 554l-70 203h104l32 -203h-66zM239 554l-70 203h104l33 -203h-67z" />
    <glyph glyph-name="uni020E" unicode="&#x20e;" horiz-adv-x="787" 
d="M73 368q18 111 69 188.5t130.5 118t180.5 40.5q112 0 183 -48.5t99 -133.5t10 -195q-17 -111 -68.5 -188.5t-130.5 -118.5t-181 -41q-111 0 -182 48.5t-99 134t-11 195.5zM207 358q-13 -81 2.5 -138.5t57.5 -88.5t108 -31q99 0 159 66.5t78 181.5q13 81 -3 138.5t-58 88
t-109 30.5q-99 0 -157.5 -65.5t-77.5 -181.5zM360 760l-71 9q12 79 65.5 124.5t131.5 45.5q51 0 89 -21t59 -59.5t21 -89.5l-72 -9q1 50 -26.5 77.5t-75.5 27.5t-80.5 -27.5t-40.5 -77.5z" />
    <glyph glyph-name="uni020F" unicode="&#x20f;" horiz-adv-x="592" 
d="M266 -10q-82 0 -136.5 33t-77 95.5t-9.5 149.5q13 81 52.5 136t99 83t132.5 28q83 0 137 -33t76.5 -95t8.5 -149q-13 -81 -52.5 -136t-98.5 -83.5t-132 -28.5zM273 86q57 0 98 40.5t54 121.5q14 88 -16 129.5t-90 41.5q-58 0 -98 -40.5t-53 -120.5q-14 -88 15 -130
t90 -42zM244 551l-71 6q7 60 31.5 103.5t62.5 67t87 23.5t84 -24t53 -67.5t15 -102.5l-72 -6q2 59 -20 91.5t-64 32.5t-70 -32.5t-36 -91.5z" />
    <glyph glyph-name="uni0210" unicode="&#x210;" horiz-adv-x="702" 
d="M38 0l112 705h296q125 0 181 -57t39 -161q-9 -61 -44.5 -105t-91 -67.5t-125.5 -23.5l5 19h31q42 0 70.5 -22.5t44.5 -66.5l75 -221h-135l-76 229q-10 35 -37 46t-67 11h-104l-45 -286h-129zM227 381h166q65 0 102.5 28t45.5 80q9 58 -21.5 86.5t-98.5 28.5h-159z
M474 765l-112 174h112l70 -174h-70zM327 765l-121 174h111l81 -174h-71z" />
    <glyph glyph-name="uni0211" unicode="&#x211;" horiz-adv-x="393" 
d="M27 0l60 376q5 32 8.5 65t4.5 64h121l-7 -138h-22q18 50 46.5 83t65.5 49t78 16q14 0 26 -1.5t23 -3.5l-19 -111q-16 7 -29.5 9t-33.5 2q-40 0 -72 -17t-53 -48.5t-28 -75.5l-43 -269h-126zM330 554l-70 203h104l32 -203h-66zM181 554l-70 203h104l33 -203h-67z" />
    <glyph glyph-name="uni0212" unicode="&#x212;" horiz-adv-x="702" 
d="M38 0l112 705h296q125 0 181 -57t39 -161q-9 -61 -44.5 -105t-91 -67.5t-125.5 -23.5l5 19h31q42 0 70.5 -22.5t44.5 -66.5l75 -221h-135l-76 229q-10 35 -37 46t-67 11h-104l-45 -286h-129zM227 381h166q65 0 102.5 28t45.5 80q9 58 -21.5 86.5t-98.5 28.5h-159z
M321 760l-71 9q12 79 65.5 124.5t131.5 45.5q51 0 89 -21t59 -59.5t21 -89.5l-72 -9q1 50 -26.5 77.5t-75.5 27.5t-80.5 -27.5t-40.5 -77.5z" />
    <glyph glyph-name="uni0213" unicode="&#x213;" horiz-adv-x="393" 
d="M27 0l60 376q5 32 8.5 65t4.5 64h121l-7 -138h-22q18 50 46.5 83t65.5 49t78 16q14 0 26 -1.5t23 -3.5l-19 -111q-16 7 -29.5 9t-33.5 2q-40 0 -72 -17t-53 -48.5t-28 -75.5l-43 -269h-126zM186 551l-71 6q7 60 31.5 103.5t62.5 67t87 23.5t84 -24t53 -67.5t15 -102.5
l-72 -6q2 59 -20 91.5t-64 32.5t-70 -32.5t-36 -91.5z" />
    <glyph glyph-name="uni0214" unicode="&#x214;" horiz-adv-x="740" 
d="M340 -10q-94 0 -158 33.5t-91 100.5t-11 169l66 412h129l-66 -417q-15 -93 18 -140.5t126 -47.5q83 0 130.5 45t63.5 145l66 415h127l-67 -421q-16 -100 -57 -165t-109.5 -97t-166.5 -32zM492 765l-112 174h112l70 -174h-70zM345 765l-121 174h111l81 -174h-71z" />
    <glyph glyph-name="uni0215" unicode="&#x215;" horiz-adv-x="596" 
d="M217 -10q-92 0 -134 53t-26 158l48 304h125l-48 -302q-9 -60 11 -87t69 -27q56 0 91 36t45 96l45 284h125l-80 -505h-122l16 103h15q-29 -54 -75 -83.5t-105 -29.5zM389 555l-70 203h104l32 -203h-66zM240 555l-70 203h104l33 -203h-67z" />
    <glyph glyph-name="uni0216" unicode="&#x216;" horiz-adv-x="740" 
d="M340 -10q-94 0 -158 33.5t-91 100.5t-11 169l66 412h129l-66 -417q-15 -93 18 -140.5t126 -47.5q83 0 130.5 45t63.5 145l66 415h127l-67 -421q-16 -100 -57 -165t-109.5 -97t-166.5 -32zM339 760l-71 9q12 79 65.5 124.5t131.5 45.5q51 0 89 -21t59 -59.5t21 -89.5
l-72 -9q1 50 -26.5 77.5t-75.5 27.5t-80.5 -27.5t-40.5 -77.5z" />
    <glyph glyph-name="uni0217" unicode="&#x217;" horiz-adv-x="596" 
d="M217 -10q-92 0 -134 53t-26 158l48 304h125l-48 -302q-9 -60 11 -87t69 -27q56 0 91 36t45 96l45 284h125l-80 -505h-122l16 103h15q-29 -54 -75 -83.5t-105 -29.5zM245 552l-71 6q7 60 31.5 103.5t62.5 67t87 23.5t84 -24t53 -67.5t15 -102.5l-72 -6q2 59 -20 91.5
t-64 32.5t-70 -32.5t-36 -91.5z" />
    <glyph glyph-name="uni0218" unicode="&#x218;" horiz-adv-x="645" 
d="M291 -10q-82 0 -150.5 19.5t-113.5 50.5l45 101q47 -28 103 -45.5t126 -17.5q78 0 117 26t45 67q6 38 -14 61t-77 31l-104 17q-94 15 -138.5 68.5t-31.5 137.5q10 64 50 110.5t105.5 72.5t150.5 26q71 0 131 -18.5t97 -50.5l-45 -99q-37 28 -85.5 44t-110.5 16
q-72 0 -115 -26.5t-51 -73.5q-7 -39 14 -64.5t79 -34.5l104 -16q96 -15 139 -66t30 -135q-9 -58 -48 -103.5t-102.5 -71.5t-149.5 -26zM253 -278l-38 36q26 20 35 38.5t13 43.5l25 -15h-92l17 102h131l-13 -76q-7 -43 -23 -73.5t-55 -55.5z" />
    <glyph glyph-name="uni0219" unicode="&#x219;" horiz-adv-x="501" 
d="M217 -10q-62 0 -114.5 14.5t-84.5 39.5l37 84q35 -22 78.5 -35.5t89.5 -13.5q49 0 76.5 16.5t31.5 44.5q4 25 -10 40.5t-47 20.5l-81 13q-73 12 -102.5 52t-20.5 100q8 48 38.5 81t78 50.5t105.5 17.5q56 0 103 -13.5t77 -37.5l-40 -82q-27 20 -64.5 32.5t-75.5 12.5
q-50 0 -77 -18t-32 -46q-4 -24 8 -40.5t43 -21.5l83 -14q75 -12 105.5 -49.5t20.5 -97.5q-7 -48 -38 -81.5t-79 -51t-109 -17.5zM171 -278l-38 36q26 20 35 38.5t13 43.5l25 -15h-92l17 102h131l-13 -76q-7 -43 -23 -73.5t-55 -55.5z" />
    <glyph glyph-name="uni021A" unicode="&#x21a;" horiz-adv-x="619" 
d="M204 0l95 599h-233l17 106h595l-17 -106h-233l-95 -599h-129zM233 -278l-38 36q26 20 35 38.5t13 43.5l25 -15h-92l17 102h131l-13 -76q-7 -43 -23 -73.5t-55 -55.5z" />
    <glyph glyph-name="uni021B" unicode="&#x21b;" horiz-adv-x="379" 
d="M247 -10q-94 0 -132.5 48.5t-24.5 139.5l37 233h-97l15 94h97l21 129l130 32l-26 -161h135l-15 -94h-135l-35 -224q-8 -52 9 -73.5t53 -21.5q17 0 31 3t28 8l-16 -99q-19 -7 -37.5 -10.5t-37.5 -3.5zM163 -278l-38 36q26 20 35 38.5t13 43.5l25 -15h-92l17 102h131
l-13 -76q-7 -43 -23 -73.5t-55 -55.5z" />
    <glyph glyph-name="uni021F" unicode="&#x21f;" horiz-adv-x="603" 
d="M28 0l117 736h125l-53 -332h-15q30 55 80.5 83t113.5 28q92 0 129 -53.5t20 -160.5l-47 -301h-125l47 301q10 62 -10 89t-68 27q-58 0 -96 -35.5t-47 -94.5l-46 -287h-125zM336 781l-108 174h85l80 -104l101 104h91l-142 -174h-107z" />
    <glyph glyph-name="uni0226" unicode="&#x226;" horiz-adv-x="750" 
d="M-40 0l431 705h108l211 -705h-126l-55 198l47 -35h-423l59 35l-117 -198h-135zM427 567l-194 -334l-21 31h336l-26 -31l-91 334h-4zM399 794l18 116h121l-18 -116h-121z" />
    <glyph glyph-name="uni0227" unicode="&#x227;" horiz-adv-x="620" 
d="M234 -10q-69 0 -117 34t-67.5 96.5t-6.5 147.5q20 122 90.5 184.5t168.5 62.5q63 0 107 -30.5t53 -82.5l-10 -3l28 106h120q-8 -31 -15.5 -63t-12.5 -63l-60 -379h-124l17 107h16q-25 -54 -72.5 -85.5t-114.5 -31.5zM275 86q58 0 99.5 40.5t54.5 121.5q14 88 -16.5 129.5
t-91.5 41.5q-58 0 -99 -40.5t-54 -120.5q-14 -88 16 -130t91 -42zM298 597l19 116h122l-18 -116h-123z" />
    <glyph glyph-name="uni0228" unicode="&#x228;" horiz-adv-x="595" 
d="M38 0l112 705h475l-16 -101h-352l-30 -195h328l-16 -102h-328l-33 -205h351l-16 -102h-475zM271 -195q-29 0 -55.5 5.5t-44.5 15.5l23 56q17 -8 34.5 -12.5t38.5 -4.5q27 0 42 8t15 24q0 10 -8.5 15.5t-26.5 5.5q-9 0 -18.5 -1t-23.5 -5l-17 18l28 90h66l-24 -76l-31 11
q12 4 24 6t22 2q39 0 61.5 -17t22.5 -49q0 -42 -36.5 -67t-91.5 -25z" />
    <glyph glyph-name="uni022A" unicode="&#x22a;" horiz-adv-x="787" 
d="M73 368q18 111 69 188.5t130.5 118t180.5 40.5q112 0 183 -48.5t99 -133.5t10 -195q-17 -111 -68.5 -188.5t-130.5 -118.5t-181 -41q-111 0 -182 48.5t-99 134t-11 195.5zM207 358q-13 -81 2.5 -138.5t57.5 -88.5t108 -31q99 0 159 66.5t78 181.5q13 81 -3 138.5t-58 88
t-109 30.5q-99 0 -157.5 -65.5t-77.5 -181.5zM342 924l11 74h316l-12 -74h-315zM326 788l14 87h115l-14 -87h-115zM515 788l14 87h115l-14 -87h-115z" />
    <glyph glyph-name="uni022B" unicode="&#x22b;" horiz-adv-x="592" 
d="M266 -10q-82 0 -136.5 33t-77 95.5t-9.5 149.5q13 81 52.5 136t99 83t132.5 28q83 0 137 -33t76.5 -95t8.5 -149q-13 -81 -52.5 -136t-98.5 -83.5t-132 -28.5zM273 86q57 0 98 40.5t54 121.5q14 88 -16 129.5t-90 41.5q-58 0 -98 -40.5t-53 -120.5q-14 -88 15 -130
t90 -42zM211 708l12 74h316l-12 -74h-316zM196 572l13 87h115l-13 -87h-115zM385 572l13 87h115l-14 -87h-114z" />
    <glyph glyph-name="uni022C" unicode="&#x22c;" horiz-adv-x="787" 
d="M73 368q18 111 69 188.5t130.5 118t180.5 40.5q112 0 183 -48.5t99 -133.5t10 -195q-17 -111 -68.5 -188.5t-130.5 -118.5t-181 -41q-111 0 -182 48.5t-99 134t-11 195.5zM207 358q-13 -81 2.5 -138.5t57.5 -88.5t108 -31q99 0 159 66.5t78 181.5q13 81 -3 138.5t-58 88
t-109 30.5q-99 0 -157.5 -65.5t-77.5 -181.5zM342 924l12 74h315l-11 -74h-316zM551 767q-22 0 -41.5 8t-37.5 16q-14 8 -27.5 14t-27.5 6q-23 0 -36 -11t-19 -34l-58 3q8 54 38 81t76 27q21 0 40.5 -7.5t37.5 -16.5q14 -7 28 -13.5t27 -6.5q23 0 35.5 11t19.5 34l58 -3
q-8 -54 -38.5 -81t-74.5 -27z" />
    <glyph glyph-name="uni022D" unicode="&#x22d;" horiz-adv-x="592" 
d="M266 -10q-82 0 -136.5 33t-77 95.5t-9.5 149.5q13 81 52.5 136t99 83t132.5 28q83 0 137 -33t76.5 -95t8.5 -149q-13 -81 -52.5 -136t-98.5 -83.5t-132 -28.5zM273 86q57 0 98 40.5t54 121.5q14 88 -16 129.5t-90 41.5q-58 0 -98 -40.5t-53 -120.5q-14 -88 15 -130
t90 -42zM210 708l12 74h315l-12 -74h-315zM230 550l-58 3q8 54 37 81t74 27q23 0 43 -8t38 -16q15 -8 28.5 -14t26.5 -6q23 0 35.5 11t19.5 34l58 -3q-8 -54 -37.5 -81t-73.5 -27q-22 0 -42.5 8t-38.5 17q-15 8 -28.5 13.5t-26.5 5.5q-23 0 -36 -11t-19 -34z" />
    <glyph glyph-name="uni0230" unicode="&#x230;" horiz-adv-x="787" 
d="M73 368q18 111 69 188.5t130.5 118t180.5 40.5q112 0 183 -48.5t99 -133.5t10 -195q-17 -111 -68.5 -188.5t-130.5 -118.5t-181 -41q-111 0 -182 48.5t-99 134t-11 195.5zM207 358q-13 -81 2.5 -138.5t57.5 -88.5t108 -31q99 0 159 66.5t78 181.5q13 81 -3 138.5t-58 88
t-109 30.5q-99 0 -157.5 -65.5t-77.5 -181.5zM342 924l11 74h316l-12 -74h-315zM421 788l14 87h115l-14 -87h-115z" />
    <glyph glyph-name="uni0231" unicode="&#x231;" horiz-adv-x="592" 
d="M266 -10q-82 0 -136.5 33t-77 95.5t-9.5 149.5q13 81 52.5 136t99 83t132.5 28q83 0 137 -33t76.5 -95t8.5 -149q-13 -81 -52.5 -136t-98.5 -83.5t-132 -28.5zM273 86q57 0 98 40.5t54 121.5q14 88 -16 129.5t-90 41.5q-58 0 -98 -40.5t-53 -120.5q-14 -88 15 -130
t90 -42zM206 708l12 74h316l-12 -74h-316zM285 572l14 87h115l-14 -87h-115z" />
    <glyph glyph-name="uni0232" unicode="&#x232;" horiz-adv-x="629" 
d="M210 0l53 333l14 -77l-230 449h143l157 -320h-28l259 320h149l-374 -454l39 82l-53 -333h-129zM230 806l11 74h346l-12 -74h-345z" />
    <glyph glyph-name="uni0233" unicode="&#x233;" horiz-adv-x="543" 
d="M-17 -227l-20 99q49 10 83 23t58.5 34t44.5 54l34 59l-6 -49l-139 512h129l95 -394h-29l222 394h130l-314 -533q-32 -54 -64.5 -89.5t-67 -57t-73 -33.5t-83.5 -19zM172 616l11 74h316l-12 -74h-315z" />
    <glyph glyph-name="uni0237" unicode="&#x237;" horiz-adv-x="261" 
d="M-57 -222q-19 0 -40 3t-38 10l16 99q12 -4 26.5 -7t28.5 -3q36 0 60 22t32 74l84 529h125l-85 -536q-15 -94 -66 -142.5t-143 -48.5z" />
    <glyph glyph-name="uni0253" unicode="&#x253;" horiz-adv-x="620" 
d="M319 -10q-63 0 -107 31t-53 83l10 3l-17 -107h-124l88 553q16 98 72 145.5t153 47.5q17 0 34.5 -2.5t30.5 -7.5l-24 -94q-12 4 -20 5t-19 1q-87 0 -102 -96l-24 -150l-17 -3q25 53 72.5 84.5t114.5 31.5q70 0 117.5 -34t67.5 -96t6 -147q-20 -122 -90.5 -185t-168.5 -63z
M300 86q59 0 99.5 40.5t53.5 121.5q14 88 -15.5 129.5t-91.5 41.5q-58 0 -99.5 -40.5t-54.5 -120.5q-13 -88 17 -130t91 -42z" />
    <glyph glyph-name="uni0257" unicode="&#x257;" horiz-adv-x="619" 
d="M234 -10q-69 0 -117 34t-67.5 96.5t-6.5 147.5q20 122 90.5 184.5t168.5 62.5q63 0 107 -30.5t53 -82.5h-11l25 154q15 98 72 144t152 46q17 0 35 -2.5t31 -7.5l-25 -94q-12 4 -20 5t-19 1q-41 0 -68 -23.5t-35 -73.5l-87 -551h-123l17 107h15q-25 -54 -73 -85.5
t-114 -31.5zM275 86q58 0 99.5 40.5t54.5 121.5q14 88 -16.5 129.5t-91.5 41.5q-58 0 -99 -40.5t-54 -120.5q-14 -88 16 -130t91 -42z" />
    <glyph glyph-name="uni0259" unicode="&#x259;" horiz-adv-x="548" 
d="M241 -10q-77 0 -126.5 32t-69.5 88t-9 128l5 32h368l-10 -66h-279l20 16q-13 -70 13 -106.5t87 -36.5q41 0 71 19t48.5 52.5t24.5 74.5l5 33q11 79 -24 121t-118 42q-38 0 -75.5 -10.5t-73.5 -36.5l-34 84q43 30 95.5 44.5t110.5 14.5q86 0 143 -35t81.5 -98t10.5 -148
q-12 -74 -47.5 -129t-90.5 -85t-126 -30z" />
    <glyph glyph-name="uni02B9" unicode="&#x2b9;" horiz-adv-x="243" 
d="M106 415l15 290h145l-76 -290h-84z" />
    <glyph glyph-name="uni02BA" unicode="&#x2ba;" horiz-adv-x="448" 
d="M106 415l15 290h145l-76 -290h-84zM311 415l15 290h145l-76 -290h-84z" />
    <glyph glyph-name="uni02BB" unicode="&#x2bb;" horiz-adv-x="500" 
d="M234 564l11 72q6 42 23.5 74t56.5 59l39 -35q-25 -21 -35.5 -40.5t-14.5 -42.5l-25 15h91l-16 -102h-130z" />
    <glyph glyph-name="uni02BC" unicode="&#x2bc;" horiz-adv-x="350" 
d="M239 567l-43 32q23 20 32.5 40t11.5 40l27 -14h-92l17 104h130l-12 -70q-6 -40 -21 -71.5t-50 -60.5z" />
    <glyph glyph-name="uni02BE" unicode="&#x2be;" horiz-adv-x="500" 
d="M297 552l9 54q24 -1 40.5 16t16.5 41q0 19 -11 31t-30 13l9 54q41 -4 66 -30.5t25 -64.5q0 -33 -17.5 -60t-46 -41.5t-61.5 -12.5z" />
    <glyph glyph-name="uni02BF" unicode="&#x2bf;" horiz-adv-x="500" 
d="M299 552q-41 3 -66 30t-25 65q0 33 17.5 59.5t46 41.5t61.5 13l-9 -54q-24 0 -40.5 -16.5t-16.5 -41.5q0 -18 11 -30t30 -14z" />
    <glyph glyph-name="circumflex" unicode="&#x2c6;" horiz-adv-x="500" 
d="M132 554l132 203h109l90 -203h-79l-71 132l-101 -132h-80z" />
    <glyph glyph-name="caron" unicode="&#x2c7;" horiz-adv-x="500" 
d="M255 554l-90 203h79l70 -132l101 132h80l-131 -203h-109z" />
    <glyph glyph-name="uni02C8" unicode="&#x2c8;" horiz-adv-x="500" 
d="M264 594l32 203h81l-32 -203h-81z" />
    <glyph glyph-name="uni02C9" unicode="&#x2c9;" horiz-adv-x="500" 
d="M150 616l12 74h315l-12 -74h-315z" />
    <glyph glyph-name="uni02CA" unicode="&#x2ca;" horiz-adv-x="500" 
d="M256 554l126 203h125l-167 -203h-84z" />
    <glyph glyph-name="uni02CB" unicode="&#x2cb;" horiz-adv-x="500" 
d="M288 554l-141 203h122l103 -203h-84z" />
    <glyph glyph-name="uni02CC" unicode="&#x2cc;" horiz-adv-x="500" 
d="M127 -270l32 203h81l-32 -203h-81z" />
    <glyph glyph-name="breve" unicode="&#x2d8;" horiz-adv-x="500" 
d="M313 551q-48 0 -83.5 23.5t-53.5 67t-15 102.5l72 7q-2 -60 20.5 -92t64.5 -32t69.5 32t35.5 92l71 -7q-7 -59 -31 -102.5t-62.5 -67t-87.5 -23.5z" />
    <glyph glyph-name="dotaccent" unicode="&#x2d9;" horiz-adv-x="500" 
d="M243 597l19 116h122l-18 -116h-123z" />
    <glyph glyph-name="ring" unicode="&#x2da;" horiz-adv-x="500" 
d="M318 546q-35 0 -64 16t-45.5 44t-16.5 62q0 35 16.5 62.5t45.5 44t64 16.5q36 0 64.5 -16.5t45 -44t16.5 -62.5q0 -34 -16.5 -62t-45 -44t-64.5 -16zM318 603q29 0 47 19t18 46q0 29 -18 47t-47 18q-28 0 -46.5 -18t-18.5 -46q0 -29 18.5 -47.5t46.5 -18.5z" />
    <glyph glyph-name="ogonek" unicode="&#x2db;" horiz-adv-x="500" 
d="M162 -195q-51 0 -78.5 25.5t-27.5 68.5q0 48 32 86t81 57l33 -42q-35 -14 -51 -36t-16 -45q0 -21 14 -34t37 -13q14 0 26.5 3t27.5 8l12 -62q-24 -7 -45 -11.5t-45 -4.5z" />
    <glyph glyph-name="tilde" unicode="&#x2dc;" horiz-adv-x="500" 
d="M172 584l-62 4q10 71 44 109.5t85 38.5q27 0 45.5 -11t34.5 -25q14 -12 28.5 -21t31.5 -9q50 0 67 70l62 -4q-10 -71 -44 -109.5t-84 -38.5q-27 0 -46.5 12t-35.5 25q-14 11 -28 20t-31 9q-50 0 -67 -70z" />
    <glyph glyph-name="hungarumlaut" unicode="&#x2dd;" horiz-adv-x="500" 
d="M337 554l68 203h105l-107 -203h-66zM188 554l68 203h105l-106 -203h-67z" />
    <glyph glyph-name="gravecomb" unicode="&#x300;" 
d="M38 554l-142 203h122l104 -203h-84z" />
    <glyph glyph-name="acutecomb" unicode="&#x301;" 
d="M6 554l132 203h126l-174 -203h-84z" />
    <glyph glyph-name="uni0302" unicode="&#x302;" 
d="M-118 554l132 203h109l90 -203h-79l-71 132l-101 -132h-80z" />
    <glyph glyph-name="tildecomb" unicode="&#x303;" 
d="M-78 584l-62 4q10 71 44 109.5t85 38.5q27 0 45.5 -11t34.5 -25q14 -12 28.5 -21t31.5 -9q50 0 67 70l62 -4q-10 -71 -44 -109.5t-84 -38.5q-27 0 -46.5 12t-35.5 25q-14 11 -28 20t-31 9q-50 0 -67 -70z" />
    <glyph glyph-name="uni0304" unicode="&#x304;" 
d="M-100 616l11 74h316l-12 -74h-315z" />
    <glyph glyph-name="uni0306" unicode="&#x306;" 
d="M63 551q-48 0 -83.5 23.5t-53.5 67t-15 102.5l72 7q-2 -60 20.5 -92t64.5 -32t69.5 32t35.5 92l71 -7q-7 -59 -31 -102.5t-62.5 -67t-87.5 -23.5z" />
    <glyph glyph-name="uni0307" unicode="&#x307;" 
d="M-7 597l19 116h122l-18 -116h-123z" />
    <glyph glyph-name="uni0308" unicode="&#x308;" 
d="M92 597l17 115h115l-18 -115h-114zM-97 597l17 115h115l-17 -115h-115z" />
    <glyph glyph-name="hookabovecomb" unicode="&#x309;" 
d="M22 554l3 22q3 21 13.5 34.5t22.5 24.5t21 21t9 23q0 12 -10 17.5t-29 5.5q-16 0 -31 -3.5t-32 -11.5l-14 54q23 12 50.5 18t59.5 6q48 0 74.5 -17.5t26.5 -48.5q0 -27 -11.5 -43.5t-27 -28t-29 -24t-17.5 -33.5l-3 -16h-76z" />
    <glyph glyph-name="uni030A" unicode="&#x30a;" 
d="M68 546q-35 0 -64 16t-45.5 44t-16.5 62q0 35 16.5 62.5t45.5 44t64 16.5q36 0 64.5 -16.5t45 -44t16.5 -62.5q0 -34 -16.5 -62t-45 -44t-64.5 -16zM68 603q29 0 47 19t18 46q0 29 -18 47t-47 18q-28 0 -46.5 -18t-18.5 -46q0 -29 18.5 -47.5t46.5 -18.5z" />
    <glyph glyph-name="uni030B" unicode="&#x30b;" 
d="M87 554l68 203h105l-107 -203h-66zM-62 554l68 203h105l-106 -203h-67z" />
    <glyph glyph-name="uni030C" unicode="&#x30c;" 
d="M5 554l-90 203h79l70 -132l101 132h80l-131 -203h-109z" />
    <glyph glyph-name="uni030F" unicode="&#x30f;" 
d="M105 554l-70 203h104l32 -203h-66zM-44 554l-70 203h104l33 -203h-67z" />
    <glyph glyph-name="uni0311" unicode="&#x311;" 
d="M-47 551l-71 6q7 60 31.5 103.5t62.5 67t87 23.5t84 -24t53 -67.5t15 -102.5l-72 -6q2 59 -20 91.5t-64 32.5t-70 -32.5t-36 -91.5z" />
    <glyph glyph-name="uni0312" unicode="&#x312;" 
d="M-17 564l12 76q8 43 24 73.5t55 55.5l38 -36q-25 -19 -34 -38t-14 -44l-25 15h92l-17 -102h-131z" />
    <glyph glyph-name="uni031B" unicode="&#x31b;" 
d="M102 425l-68 45l3 19q36 1 58 10.5t34.5 32.5t19.5 63l3 21h110l-7 -40q-10 -64 -49.5 -104.5t-103.5 -46.5z" />
    <glyph glyph-name="dotbelowcomb" unicode="&#x323;" 
d="M-134 -204l19 116h122l-19 -116h-122z" />
    <glyph glyph-name="uni0324" unicode="&#x324;" 
d="M-34 -192l18 114h115l-18 -114h-115zM-223 -192l19 114h114l-18 -114h-115z" />
    <glyph glyph-name="uni0326" unicode="&#x326;" 
d="M-79 -278l-38 36q26 20 35 38.5t13 43.5l25 -15h-92l17 102h131l-13 -76q-7 -43 -23 -73.5t-55 -55.5z" />
    <glyph glyph-name="uni0327" unicode="&#x327;" 
d="M-69 -195q-29 0 -55.5 5.5t-44.5 15.5l23 56q17 -8 34.5 -12.5t38.5 -4.5q27 0 42 8t15 24q0 10 -8.5 15.5t-26.5 5.5q-9 0 -18.5 -1t-23.5 -5l-17 18l28 90h66l-24 -76l-31 11q12 4 24 6t22 2q39 0 61.5 -17t22.5 -49q0 -42 -36.5 -67t-91.5 -25z" />
    <glyph glyph-name="uni0328" unicode="&#x328;" 
d="M-88 -195q-51 0 -78.5 25.5t-27.5 68.5q0 48 32 86t81 57l33 -42q-35 -14 -51 -36t-16 -45q0 -21 14 -34t37 -13q14 0 26.5 3t27.5 8l12 -62q-24 -7 -45 -11.5t-45 -4.5z" />
    <glyph glyph-name="uni032E" unicode="&#x32e;" 
d="M-61 -215q-73 0 -116.5 41.5t-38.5 111.5l71 7q-1 -40 22 -63t65 -23t69 23t34 63l71 -7q-8 -70 -55.5 -111.5t-121.5 -41.5z" />
    <glyph glyph-name="uni0331" unicode="&#x331;" 
d="M-224 -165l12 74h316l-12 -74h-316z" />
    <glyph glyph-name="uni0335" unicode="&#x335;" 
d="M-157 531l14 88h402l-14 -88h-402z" />
    <glyph glyph-name="uni0337" unicode="&#x337;" 
d="M-124 234l-41 89l330 159l41 -89z" />
    <glyph glyph-name="uni0338" unicode="&#x338;" 
d="M31 -47l-57 40l405 547l55 -39z" />
    <glyph glyph-name="uni0394" unicode="&#x394;" horiz-adv-x="746" 
d="M-7 0l12 72l381 633h104l181 -633l-9 -72h-669zM420 566l-294 -502l6 38h430l-6 -38l-134 502h-2z" />
    <glyph glyph-name="Sigma" unicode="&#x3a3;" horiz-adv-x="615" 
d="M-20 -180l15 90l328 373l10 -40l-226 372l14 90h529l-16 -106h-393l-5 28l201 -330l-11 -69l-291 -330v28h392l-17 -106h-530z" />
    <glyph glyph-name="uni03A9" unicode="&#x3a9;" horiz-adv-x="807" 
d="M-2 0l17 104h237l-1 -32q-92 59 -137 135t-45 159q0 108 47.5 186.5t132.5 120.5t198 42q71 0 130.5 -20t104.5 -56.5t69.5 -87t24.5 -110.5q0 -92 -34.5 -163t-97.5 -122.5t-149 -83.5l1 32h244l-16 -104h-309l16 101q95 53 153 131t58 181q0 58 -23.5 101t-68 67
t-108.5 24q-77 0 -130.5 -32t-81 -88t-27.5 -129q0 -67 30 -131.5t91 -123.5l-16 -101h-310z" />
    <glyph glyph-name="uni03BC" unicode="&#x3bc;" horiz-adv-x="596" 
d="M-7 -216l112 721h126l-46 -300q-9 -58 10 -87t65 -29q58 0 94.5 39t46.5 104l41 273h126l-78 -505h-126l15 102h4q-19 -52 -54.5 -82t-83.5 -30q-35 0 -58 13.5t-34 39.5l2 1l-33 -260h-129z" />
    <glyph glyph-name="pi" unicode="&#x3c0;" horiz-adv-x="619" 
d="M-4 0q35 71 60.5 137t43.5 133.5t29 140.5h-99l15 94h580l-16 -94h-103l-33 -210q-6 -35 -1 -60t25.5 -39t60.5 -17l27 -2l-17 -91l-34 2q-76 5 -120.5 27.5t-60 69t-3.5 121.5l31 199h-128q-13 -86 -31 -157.5t-41.5 -133.5t-54.5 -120h-130z" />
    <glyph glyph-name="uni0400" unicode="&#x400;" horiz-adv-x="595" 
d="M38 0l112 705h475l-16 -101h-352l-30 -195h328l-16 -102h-328l-33 -205h351l-16 -102h-475zM375 765l-145 174h129l105 -174h-89z" />
    <glyph glyph-name="uni0401" unicode="&#x401;" horiz-adv-x="595" 
d="M38 0l112 705h475l-16 -101h-352l-30 -195h328l-16 -102h-328l-33 -205h351l-16 -102h-475zM460 790l18 115h115l-19 -115h-114zM271 790l18 115h115l-18 -115h-115z" />
    <glyph glyph-name="uni0402" unicode="&#x402;" horiz-adv-x="882" 
d="M533 -190q-36 0 -67.5 5.5t-54.5 15.5l29 94q18 -7 40 -10.5t47 -3.5q57 0 94 36.5t48 106.5l14 88q17 100 -24 145.5t-134 45.5q-39 0 -75.5 -7.5t-68.5 -22.5l-48 -303h-129l95 599h-233l17 106h595l-18 -106h-232l-30 -186q29 13 72 21t86 8q146 0 213 -73t43 -221
l-14 -89q-13 -88 -49 -143t-91 -80.5t-125 -25.5z" />
    <glyph glyph-name="uni0403" unicode="&#x403;" horiz-adv-x="572" 
d="M38 0l112 705h478l-17 -105h-351l-94 -600h-128zM324 765l130 174h133l-174 -174h-89z" />
    <glyph glyph-name="uni0404" unicode="&#x404;" horiz-adv-x="697" 
d="M398 -10q-96 0 -163.5 28.5t-107.5 80t-53.5 120t-0.5 149.5q18 111 71 188.5t138.5 118.5t197.5 40q70 0 126 -19t94 -54l-46 -102q-43 34 -83.5 48.5t-102.5 14.5q-105 0 -170 -60t-88 -168l-30 34h369l-16 -101h-371l43 31q-12 -109 35.5 -172.5t162.5 -63.5
q56 0 105.5 17t95.5 56l39 -102q-49 -40 -113 -62t-132 -22z" />
    <glyph glyph-name="uni0405" unicode="&#x405;" horiz-adv-x="645" 
d="M291 -10q-82 0 -150.5 19.5t-113.5 50.5l45 101q47 -28 103 -45.5t126 -17.5q78 0 117 26t45 67q6 38 -14 61t-77 31l-104 17q-94 15 -138.5 68.5t-31.5 137.5q10 64 50 110.5t105.5 72.5t150.5 26q71 0 131 -18.5t97 -50.5l-45 -99q-37 28 -85.5 44t-110.5 16
q-72 0 -115 -26.5t-51 -73.5q-7 -39 14 -64.5t79 -34.5l104 -16q96 -15 139 -66t30 -135q-9 -58 -48 -103.5t-102.5 -71.5t-149.5 -26z" />
    <glyph glyph-name="uni0406" unicode="&#x406;" horiz-adv-x="284" 
d="M38 0l112 705h129l-112 -705h-129z" />
    <glyph glyph-name="uni0407" unicode="&#x407;" horiz-adv-x="284" 
d="M38 0l112 705h129l-112 -705h-129zM264 790l18 115h115l-19 -115h-114zM75 790l18 115h115l-18 -115h-115z" />
    <glyph glyph-name="uni0408" unicode="&#x408;" horiz-adv-x="362" 
d="M20 -187q-17 0 -40.5 2.5t-46.5 9.5l16 102q19 -7 36 -9t30 -2q46 0 71 27t34 86l107 676h129l-109 -686q-11 -72 -38.5 -117.5t-73.5 -67t-115 -21.5z" />
    <glyph glyph-name="uni0409" unicode="&#x409;" horiz-adv-x="1167" 
d="M41 -17l-61 94q48 23 85.5 52.5t66.5 74t50.5 110.5t36.5 161l36 230h501l-47 -295h188q121 0 180.5 -55t42.5 -165q-15 -96 -86.5 -143t-184.5 -47h-333l95 600h-255l-24 -152q-16 -103 -42.5 -179.5t-63 -130.5t-83 -91.5t-102.5 -63.5zM659 99h185q71 0 108.5 25.5
t45.5 78.5q9 56 -19.5 82t-99.5 26h-186z" />
    <glyph glyph-name="uni040A" unicode="&#x40a;" horiz-adv-x="1177" 
d="M38 0l112 705h127l-47 -294h362l46 294h128l-47 -295h188q122 0 181 -55t42 -165q-15 -96 -86.5 -143t-183.5 -47h-334l49 305h-361l-49 -305h-127zM670 99h185q71 0 108.5 25.5t45.5 78.5q8 56 -20 82t-99 26h-186z" />
    <glyph glyph-name="uni040B" unicode="&#x40b;" horiz-adv-x="879" 
d="M204 0l95 599h-233l17 106h595l-17 -106h-233l-30 -186q32 14 76 21.5t86 7.5q143 0 207.5 -75t41.5 -219l-23 -148h-128l22 142q17 101 -22.5 146.5t-128.5 45.5q-37 0 -74.5 -7t-73.5 -24l-48 -303h-129z" />
    <glyph glyph-name="uni040C" unicode="&#x40c;" horiz-adv-x="690" 
d="M38 0l112 705h127l-48 -300h120l-31 -17l259 317h147l-286 -341l-47 36q66 -10 105 -46.5t61 -102.5l86 -251h-132l-65 203q-17 53 -49.5 75t-85.5 22h-98l-48 -300h-127zM384 765l130 174h133l-174 -174h-89z" />
    <glyph glyph-name="uni040D" unicode="&#x40d;" horiz-adv-x="755" 
d="M38 0l112 705h119l-84 -532l-25 -1l493 533h97l-112 -705h-120l84 532l24 1l-493 -533h-95zM416 765l-145 174h129l105 -174h-89z" />
    <glyph glyph-name="uni040E" unicode="&#x40e;" horiz-adv-x="679" 
d="M141 0l162 235v-40l-244 510h132l187 -398h-25l273 398h138l-484 -705h-139zM419 760q-52 0 -91 17t-63.5 48.5t-34.5 74.5l66 22q15 -49 46 -70.5t81 -21.5q52 0 86 22t59 69l60 -21q-18 -46 -49 -77t-71.5 -47t-88.5 -16z" />
    <glyph glyph-name="uni040F" unicode="&#x40f;" horiz-adv-x="772" 
d="M263 -165l27 165h-252l112 705h128l-96 -599h361l96 599h128l-112 -705h-252l-27 -165h-113z" />
    <glyph glyph-name="uni0410" unicode="&#x410;" horiz-adv-x="750" 
d="M-40 0l431 705h108l211 -705h-126l-55 198l47 -35h-423l59 35l-117 -198h-135zM427 567l-194 -334l-21 31h336l-26 -31l-91 334h-4z" />
    <glyph glyph-name="uni0411" unicode="&#x411;" horiz-adv-x="689" 
d="M38 0l112 705h503l-17 -100h-379l-31 -195h193q121 0 180.5 -55t42.5 -165q-15 -96 -86.5 -143t-184.5 -47h-333zM177 99h189q71 0 108.5 25.5t45.5 78.5q9 56 -19.5 82t-99.5 26h-190z" />
    <glyph glyph-name="uni0412" unicode="&#x412;" horiz-adv-x="690" 
d="M38 0l112 705h309q115 0 169 -49.5t40 -140.5q-10 -63 -55 -105t-114 -57l2 15q75 -11 109.5 -59.5t23.5 -121.5q-14 -90 -84 -138.5t-186 -48.5h-326zM177 98h184q65 0 104 23.5t47 74.5q7 42 -5.5 66.5t-40.5 35.5t-70 11h-186zM226 406h165q69 0 105.5 24.5t43.5 69.5
q9 56 -18.5 82t-91.5 26h-172z" />
    <glyph glyph-name="uni0413" unicode="&#x413;" horiz-adv-x="572" 
d="M38 0l112 705h478l-17 -105h-351l-94 -600h-128z" />
    <glyph glyph-name="uni0414" unicode="&#x414;" horiz-adv-x="822" 
d="M-52 -165l42 266h73q59 60 99.5 163.5t64.5 255.5l30 185h511l-96 -604h103l-42 -266h-112l26 165h-560l-26 -165h-113zM197 101h347l79 504h-265l-15 -96q-22 -145 -58.5 -244t-87.5 -164z" />
    <glyph glyph-name="uni0415" unicode="&#x415;" horiz-adv-x="595" 
d="M38 0l112 705h475l-16 -101h-352l-30 -195h328l-16 -102h-328l-33 -205h351l-16 -102h-475z" />
    <glyph glyph-name="uni0416" unicode="&#x416;" horiz-adv-x="1040" 
d="M-39 0l165 251q44 66 96.5 102.5t123.5 46.5l-52 -36l-177 341h135l158 -317l-19 17h92l48 300h123l-48 -300h93l-31 -17l259 317h146l-285 -341l-46 36q61 -10 101.5 -46.5t63.5 -102.5l86 -251h-132l-66 203q-17 52 -49 74.5t-85 22.5h-71l-48 -300h-123l47 300h-71
q-53 0 -90 -22.5t-70 -74.5l-130 -203h-144z" />
    <glyph glyph-name="uni0417" unicode="&#x417;" horiz-adv-x="644" 
d="M284 -10q-89 0 -156 22.5t-110 62.5l43 94q41 -35 95.5 -53.5t127.5 -18.5q83 0 128.5 27.5t53.5 79.5q8 53 -21.5 78t-96.5 25h-182l16 101h166q68 0 104 24.5t43 70.5q8 50 -25.5 77.5t-112.5 27.5q-61 0 -119 -17.5t-108 -52.5l-39 95q56 39 130 60.5t155 21.5
q93 0 150.5 -25.5t81 -70.5t14.5 -104q-9 -58 -51 -101.5t-117 -59.5l2 15q70 -11 107.5 -58t24.5 -124q-9 -59 -46 -103.5t-101.5 -69t-156.5 -24.5z" />
    <glyph glyph-name="uni0418" unicode="&#x418;" horiz-adv-x="755" 
d="M38 0l112 705h119l-84 -532l-25 -1l493 533h97l-112 -705h-120l84 532l24 1l-493 -533h-95z" />
    <glyph glyph-name="uni0419" unicode="&#x419;" horiz-adv-x="755" 
d="M38 0l112 705h119l-84 -532l-25 -1l493 533h97l-112 -705h-120l84 532l24 1l-493 -533h-95zM456 760q-52 0 -91 17t-63.5 48.5t-34.5 74.5l66 22q15 -49 46 -70.5t81 -21.5q52 0 86 22t59 69l60 -21q-18 -46 -49 -77t-71.5 -47t-88.5 -16z" />
    <glyph glyph-name="uni041A" unicode="&#x41a;" horiz-adv-x="690" 
d="M38 0l112 705h127l-48 -300h120l-31 -17l259 317h147l-286 -341l-47 36q66 -10 105 -46.5t61 -102.5l86 -251h-132l-65 203q-17 53 -49.5 75t-85.5 22h-98l-48 -300h-127z" />
    <glyph glyph-name="uni041B" unicode="&#x41b;" horiz-adv-x="772" 
d="M41 -17l-61 94q48 23 86 52.5t66.5 74t50 110.5t36.5 161l36 230h512l-112 -705h-128l95 600h-266l-24 -152q-16 -103 -42.5 -179.5t-63 -130.5t-83 -91.5t-102.5 -63.5z" />
    <glyph glyph-name="uni041C" unicode="&#x41c;" horiz-adv-x="870" 
d="M39 0l112 705h113l166 -583h-31l352 583h112l-112 -705h-117l83 523h37l-321 -523h-75l-156 523h37l-83 -523h-117z" />
    <glyph glyph-name="uni041D" unicode="&#x41d;" horiz-adv-x="774" 
d="M38 0l112 705h129l-47 -294h361l47 294h129l-112 -705h-129l48 304h-361l-48 -304h-129z" />
    <glyph glyph-name="uni041E" unicode="&#x41e;" horiz-adv-x="787" 
d="M73 368q18 111 69 188.5t130.5 118t180.5 40.5q112 0 183 -48.5t99 -133.5t10 -195q-17 -111 -68.5 -188.5t-130.5 -118.5t-181 -41q-111 0 -182 48.5t-99 134t-11 195.5zM207 358q-13 -81 2.5 -138.5t57.5 -88.5t108 -31q99 0 159 66.5t78 181.5q13 81 -3 138.5t-58 88
t-109 30.5q-99 0 -157.5 -65.5t-77.5 -181.5z" />
    <glyph glyph-name="uni041F" unicode="&#x41f;" horiz-adv-x="772" 
d="M38 0l112 705h617l-112 -705h-128l94 600h-361l-95 -600h-127z" />
    <glyph glyph-name="uni0420" unicode="&#x420;" horiz-adv-x="666" 
d="M38 0l112 705h301q121 0 176 -60.5t38 -163.5q-9 -60 -42.5 -104.5t-89 -68.5t-132.5 -24h-189l-45 -284h-129zM228 386h169q65 0 100.5 26t43.5 78q9 56 -19 85t-93 29h-167z" />
    <glyph glyph-name="uni0421" unicode="&#x421;" horiz-adv-x="685" 
d="M383 -10q-120 0 -195 48.5t-103.5 134t-11.5 195.5q18 111 70.5 188.5t135.5 118.5t190 40q70 0 125.5 -19.5t93.5 -54.5l-46 -103q-42 35 -82.5 49t-96.5 14q-103 0 -170 -62.5t-86 -178.5q-12 -78 4.5 -135.5t63.5 -89t123 -31.5q50 0 99 16.5t96 54.5l38 -101
q-49 -40 -114 -62t-134 -22z" />
    <glyph glyph-name="uni0422" unicode="&#x422;" horiz-adv-x="619" 
d="M204 0l95 599h-233l17 106h595l-17 -106h-233l-95 -599h-129z" />
    <glyph glyph-name="uni0423" unicode="&#x423;" horiz-adv-x="679" 
d="M141 0l162 235v-40l-244 510h132l187 -398h-25l273 398h138l-484 -705h-139z" />
    <glyph glyph-name="uni0424" unicode="&#x424;" horiz-adv-x="907" 
d="M345 -25l17 104l28 -24h-23q-106 0 -177 38.5t-101 110t-15 169.5q23 142 121.5 215t252.5 73h38l-36 -24l16 98h128l-16 -98l-28 24h23q108 0 178.5 -38t100.5 -109t14 -171q-15 -93 -65 -157.5t-128.5 -97.5t-180.5 -33h-38l36 24l-17 -104h-128zM371 130l72 456
l23 -22h-37q-88 0 -148.5 -48t-77.5 -150q-11 -71 6.5 -119t57.5 -71.5t97 -23.5h37zM497 130l-24 22h38q58 0 105.5 22t79 66t41.5 110q12 73 -5.5 120t-57.5 70.5t-98 23.5h-38l31 22z" />
    <glyph glyph-name="uni0425" unicode="&#x425;" horiz-adv-x="671" 
d="M-51 0l351 386l-3 -55l-221 374h146l158 -281h-41l247 281h158l-340 -374l2 55l230 -386h-147l-167 294h45l-261 -294h-157z" />
    <glyph glyph-name="uni0426" unicode="&#x426;" horiz-adv-x="820" 
d="M619 -165l26 165h-607l112 705h127l-95 -599h361l96 599h128l-96 -599h104l-43 -271h-113z" />
    <glyph glyph-name="uni0427" unicode="&#x427;" horiz-adv-x="712" 
d="M467 0l43 276q-31 -13 -75 -21t-88 -8q-91 0 -152 32.5t-86.5 98t-10.5 163.5l27 164h128l-26 -158q-16 -103 22 -147t132 -44q38 0 74.5 7t72.5 23l51 319h128l-112 -705h-128z" />
    <glyph glyph-name="uni0428" unicode="&#x428;" horiz-adv-x="1098" 
d="M38 0l112 705h126l-95 -599h282l95 599h126l-95 -599h282l95 599h126l-112 -705h-942z" />
    <glyph glyph-name="uni0429" unicode="&#x429;" horiz-adv-x="1146" 
d="M945 -165l26 165h-933l112 705h126l-95 -599h282l95 599h126l-95 -599h282l95 599h126l-95 -599h103l-43 -271h-112z" />
    <glyph glyph-name="uni042A" unicode="&#x42a;" horiz-adv-x="836" 
d="M185 0l94 600h-213l17 105h342l-47 -295h188q121 0 180.5 -55t42.5 -165q-15 -96 -86.5 -143t-184.5 -47h-333zM328 99h185q71 0 108.5 25.5t45.5 78.5q9 56 -19.5 82t-99.5 26h-186z" />
    <glyph glyph-name="uni042B" unicode="&#x42b;" horiz-adv-x="920" 
d="M38 0l112 705h128l-47 -295h158q121 0 180.5 -55t42.5 -165q-15 -96 -86.5 -143t-184.5 -47h-303zM181 99h155q71 0 108.5 25.5t45.5 78.5q9 56 -19.5 82t-99.5 26h-156zM674 0l112 705h128l-112 -705h-128z" />
    <glyph glyph-name="uni042C" unicode="&#x42c;" horiz-adv-x="689" 
d="M38 0l112 705h128l-47 -295h188q121 0 180.5 -55t42.5 -165q-15 -96 -86.5 -143t-184.5 -47h-333zM181 99h185q71 0 108.5 25.5t45.5 78.5q9 56 -19.5 82t-99.5 26h-186z" />
    <glyph glyph-name="uni042D" unicode="&#x42d;" horiz-adv-x="697" 
d="M248 -10q-70 0 -126 19.5t-95 54.5l46 102q43 -34 84 -48.5t102 -14.5q105 0 171 60t88 167l34 -22h-371l16 101h369l-43 -43q12 110 -35.5 173.5t-160.5 63.5q-55 0 -105.5 -17.5t-97.5 -55.5l-39 102q54 42 122 62.5t135 20.5q91 0 156 -28.5t104 -79.5t52.5 -120
t0.5 -150q-17 -110 -71 -188t-139 -119t-197 -40z" />
    <glyph glyph-name="uni042E" unicode="&#x42e;" horiz-adv-x="1073" 
d="M651 -10q-98 0 -165.5 39t-100.5 110t-30 166h-141l-48 -305h-128l112 705h128l-47 -295h137q35 148 133 226.5t238 78.5q112 0 183 -48t99.5 -133t10.5 -195q-17 -111 -69.5 -189t-132 -119t-179.5 -41zM660 100q97 0 158 66.5t80 181.5q13 81 -3 138.5t-58 88
t-109 30.5q-99 0 -158 -65.5t-77 -181.5q-13 -80 1.5 -138t56.5 -89t109 -31z" />
    <glyph glyph-name="uni042F" unicode="&#x42f;" horiz-adv-x="706" 
d="M-13 0l157 217q31 43 67.5 64.5t78.5 21.5h34l-13 -16q-72 0 -122 26t-72 75.5t-12 117.5q17 99 87 149t188 50h320l-112 -705h-128l45 282h-94q-27 0 -47 -5t-36 -17.5t-32 -35.5l-162 -224h-147zM348 376h172l36 229h-166q-77 0 -116 -28t-47 -82q-9 -58 22.5 -88.5
t98.5 -30.5z" />
    <glyph glyph-name="uni0430" unicode="&#x430;" horiz-adv-x="634" 
d="M241 -10q-69 0 -117 34t-67.5 96.5t-6.5 147.5q20 122 90.5 184.5t168.5 62.5q63 0 107 -30.5t53 -82.5l-10 -3l28 106h120q-8 -31 -15.5 -63t-12.5 -63l-60 -379h-124l17 107h16q-25 -54 -72.5 -85.5t-114.5 -31.5zM282 86q58 0 99.5 40.5t54.5 121.5q14 88 -16.5 129.5
t-91.5 41.5q-58 0 -99 -40.5t-54 -120.5q-14 -88 16 -130t91 -42z" />
    <glyph glyph-name="uni0431" unicode="&#x431;" horiz-adv-x="608" 
d="M280 -10q-129 0 -189 77t-38 216l15 91q21 131 99 216.5t214 113.5l191 42l19 -100l-200 -42q-91 -20 -139 -73t-62 -133l-9 -53h-18q18 45 48 78.5t71.5 52.5t91.5 19q66 0 112 -31t65.5 -89.5t6.5 -141.5q-13 -79 -52.5 -133.5t-97.5 -82t-128 -27.5zM281 85
q59 0 100 40t53 116q13 79 -17 119.5t-92 40.5q-60 0 -100 -40t-53 -116q-13 -79 17 -119.5t92 -40.5z" />
    <glyph glyph-name="uni0432" unicode="&#x432;" horiz-adv-x="579" 
d="M31 0l80 505h262q67 0 106.5 -16t54.5 -46.5t8 -73.5q-7 -46 -44 -78t-91 -40l1 14q63 -4 93 -37.5t21 -89.5q-10 -67 -64 -102.5t-139 -35.5h-288zM159 77h149q44 0 70.5 17t31.5 53q6 36 -15 54t-65 18h-149zM194 296h140q40 0 64 17.5t28 48.5q5 33 -13.5 50t-59.5 17
h-139z" />
    <glyph glyph-name="uni0433" unicode="&#x433;" horiz-adv-x="467" 
d="M31 0l80 505h379l-16 -98h-254l-64 -407h-125z" />
    <glyph glyph-name="uni0434" unicode="&#x434;" horiz-adv-x="633" 
d="M-35 -130l36 225h58q38 47 61.5 110.5t37.5 155.5l23 144h389l-65 -410h81l-35 -225h-106l21 130h-374l-21 -130h-106zM175 94h213l50 317h-166l-12 -78q-10 -67 -32 -131t-53 -108z" />
    <glyph glyph-name="uni0435" unicode="&#x435;" horiz-adv-x="562" 
d="M292 -10q-89 0 -147.5 35t-82.5 98.5t-11 147.5q12 76 48.5 130.5t93.5 84t130 29.5t120.5 -32t67.5 -87.5t8 -128.5l-5 -32h-367l10 66h279l-19 -16q11 71 -14.5 107.5t-84.5 36.5q-42 0 -72.5 -19t-49 -52.5t-24.5 -75.5l-5 -33q-11 -78 23.5 -120.5t117.5 -42.5
q39 0 76.5 11.5t72.5 37.5l36 -84q-41 -30 -93 -45.5t-108 -15.5z" />
    <glyph glyph-name="uni0436" unicode="&#x436;" horiz-adv-x="844" 
d="M-48 0l137 189q25 33 48 54.5t47.5 33.5t52.5 15l-28 -39l-150 252h130l117 -198h65l32 198h124l-32 -198h60l180 198h139l-227 -252l-22 39q26 -3 45.5 -15t35 -33.5t29.5 -54.5l76 -189h-128l-62 152q-9 23 -20.5 36t-27.5 18t-39 5h-54l-33 -211h-124l33 211h-55
q-23 0 -39 -5t-30 -18t-32 -36l-109 -152h-139z" />
    <glyph glyph-name="uni0437" unicode="&#x437;" horiz-adv-x="530" 
d="M223 -10q-66 0 -123 16t-92 46l40 82q32 -27 80.5 -41t100.5 -14q63 0 95 17.5t37 51.5q6 32 -14.5 48.5t-65.5 16.5h-131l13 86h120q40 0 65 16t29 45q5 31 -18.5 49t-84.5 18q-52 0 -97.5 -12t-86.5 -35l-30 78q47 28 108 42.5t131 14.5q104 0 154 -38.5t39 -107.5
q-7 -45 -43.5 -77.5t-90.5 -40.5l2 14q62 -4 92 -39t21 -90q-10 -65 -73 -105.5t-177 -40.5z" />
    <glyph glyph-name="uni0438" unicode="&#x438;" horiz-adv-x="615" 
d="M31 0l80 505h113l-60 -382l-33 1l350 381h103l-80 -505h-113l61 383l33 -1l-351 -382h-103z" />
    <glyph glyph-name="uni0439" unicode="&#x439;" horiz-adv-x="615" 
d="M31 0l80 505h113l-60 -382l-33 1l350 381h103l-80 -505h-113l61 383l33 -1l-351 -382h-103zM359 551q-48 0 -84.5 17.5t-58.5 49t-30 72.5l63 22q14 -48 42 -70t73 -22q46 0 75 22.5t51 68.5l61 -21q-16 -46 -44.5 -77t-65.5 -46.5t-82 -15.5z" />
    <glyph glyph-name="uni043A" unicode="&#x43a;" horiz-adv-x="570" 
d="M31 0l80 505h124l-31 -198h73l179 198h139l-226 -252l-23 39q28 -3 47 -15t34 -33.5t29 -54.5l77 -189h-129l-62 152q-9 23 -20.5 36t-27 18t-38.5 5h-67l-34 -211h-124z" />
    <glyph glyph-name="uni043B" unicode="&#x43b;" horiz-adv-x="609" 
d="M20 -14l-28 99q35 12 60.5 31t43.5 49.5t31 74.5t23 105l26 160h402l-80 -505h-124l65 409h-165l-12 -78q-13 -79 -33.5 -138t-49.5 -100.5t-68.5 -67t-90.5 -39.5z" />
    <glyph glyph-name="uni043C" unicode="&#x43c;" horiz-adv-x="698" 
d="M31 0l80 505h104l126 -302l222 302h104l-80 -505h-110l58 365h26l-207 -283h-58l-117 283h20l-58 -365h-110z" />
    <glyph glyph-name="uni043D" unicode="&#x43d;" horiz-adv-x="618" 
d="M31 0l80 505h124l-31 -198h228l31 198h124l-80 -505h-124l34 211h-228l-34 -211h-124z" />
    <glyph glyph-name="uni043E" unicode="&#x43e;" horiz-adv-x="606" 
d="M273 -10q-82 0 -136.5 33t-77 95.5t-9.5 149.5q13 81 52.5 136t99 83t132.5 28q83 0 137 -33t76.5 -95t8.5 -149q-13 -81 -52.5 -136t-98.5 -83.5t-132 -28.5zM280 86q57 0 98 40.5t54 121.5q14 88 -16 129.5t-90 41.5q-58 0 -98 -40.5t-53 -120.5q-14 -88 15 -130
t90 -42z" />
    <glyph glyph-name="uni043F" unicode="&#x43f;" horiz-adv-x="615" 
d="M31 0l80 505h473l-80 -505h-124l65 409h-225l-65 -409h-124z" />
    <glyph glyph-name="uni0440" unicode="&#x440;" horiz-adv-x="634" 
d="M1 -216l94 595q5 31 8 63t4 63h121l-6 -106h-15q25 53 72.5 84.5t114.5 31.5q70 0 117.5 -34t67.5 -96t6 -147q-20 -122 -90.5 -185t-168.5 -63q-63 0 -107 31t-53 83h11l-51 -320h-125zM307 86q59 0 99.5 40.5t53.5 121.5q14 88 -15.5 129.5t-91.5 41.5
q-58 0 -99.5 -40.5t-54.5 -120.5q-13 -88 17 -130t91 -42z" />
    <glyph glyph-name="uni0441" unicode="&#x441;" horiz-adv-x="518" 
d="M279 -10q-83 0 -139 34.5t-79.5 97t-10.5 146.5q20 122 97.5 184.5t191.5 62.5q47 0 91.5 -14t71.5 -41l-41 -85q-24 22 -56 32.5t-62 10.5q-64 0 -108.5 -39.5t-57.5 -119.5q-13 -79 19.5 -125t102.5 -46q30 0 64.5 11.5t64.5 36.5l36 -86q-31 -27 -81.5 -43.5
t-103.5 -16.5z" />
    <glyph glyph-name="uni0442" unicode="&#x442;" horiz-adv-x="484" 
d="M140 0l64 407h-173l16 98h471l-16 -98h-174l-64 -407h-124z" />
    <glyph glyph-name="uni0443" unicode="&#x443;" horiz-adv-x="557" 
d="M-10 -227l-20 99q49 10 83 23t58.5 34t44.5 54l34 59l-6 -49l-139 512h129l95 -394h-29l222 394h130l-314 -533q-32 -54 -64.5 -89.5t-67 -57t-73 -33.5t-83.5 -19z" />
    <glyph glyph-name="uni0444" unicode="&#x444;" horiz-adv-x="860" 
d="M294 -216l49 314h14q-25 -52 -64 -80t-88 -28q-61 0 -100.5 34.5t-54 96t-1.5 142.5q20 125 80 188.5t143 63.5q53 0 88 -28t43 -79h-10l52 328h124l-52 -328h-14q25 51 64 79t88 28q62 0 101.5 -34t54 -95.5t1.5 -142.5q-20 -124 -80.5 -188.5t-144.5 -64.5
q-52 0 -87 28.5t-43 79.5h10l-49 -314h-124zM246 84q47 0 79 42t45 127q13 84 -7.5 126.5t-67.5 42.5q-45 0 -77.5 -42.5t-46.5 -126.5q-13 -85 7.5 -127t67.5 -42zM564 84q46 0 79 41.5t46 126.5q14 84 -7 127t-68 43q-46 0 -78.5 -43t-45.5 -127q-13 -85 7.5 -126.5
t66.5 -41.5z" />
    <glyph glyph-name="uni0445" unicode="&#x445;" horiz-adv-x="563" 
d="M-47 0l281 289l-2 -57l-179 273h141l115 -187h-44l174 187h154l-264 -273l4 57l188 -289h-145l-125 201h46l-190 -201h-154z" />
    <glyph glyph-name="uni0446" unicode="&#x446;" horiz-adv-x="635" 
d="M448 -130l21 130h-438l80 505h124l-64 -409h213l65 409h123l-64 -409h81l-36 -226h-105z" />
    <glyph glyph-name="uni0447" unicode="&#x447;" horiz-adv-x="584" 
d="M352 0l29 184q-29 -13 -61 -20t-64 -7q-67 0 -112.5 23.5t-65.5 70.5t-9 117l22 137h124l-20 -126q-10 -64 13.5 -92.5t85.5 -28.5q29 0 53 6t47 19l35 222h124l-80 -505h-121z" />
    <glyph glyph-name="uni0448" unicode="&#x448;" horiz-adv-x="848" 
d="M31 0l80 505h117l-64 -409h177l65 409h116l-64 -409h178l64 409h117l-80 -505h-706z" />
    <glyph glyph-name="uni0449" unicode="&#x449;" horiz-adv-x="880" 
d="M693 -130l21 130h-683l80 505h117l-64 -409h177l65 409h116l-64 -409h178l64 409h117l-64 -409h80l-35 -226h-105z" />
    <glyph glyph-name="uni044A" unicode="&#x44a;" horiz-adv-x="650" 
d="M117 0l65 407h-151l16 98h274l-27 -169h126q106 0 151 -46t31 -129q-13 -82 -72.5 -121.5t-154.5 -39.5h-258zM254 82h117q51 0 80.5 20t36.5 62q8 47 -16 68.5t-76 21.5h-115z" />
    <glyph glyph-name="uni044B" unicode="&#x44b;" horiz-adv-x="789" 
d="M31 0l80 505h124l-27 -169h126q106 0 151 -46t32 -129q-13 -82 -72.5 -121.5t-155.5 -39.5h-258zM168 82h117q51 0 80.5 20t36.5 62q8 47 -15.5 68.5t-75.5 21.5h-116zM554 0l80 505h124l-80 -505h-124z" />
    <glyph glyph-name="uni044C" unicode="&#x44c;" horiz-adv-x="564" 
d="M31 0l80 505h124l-27 -169h126q106 0 151 -46t32 -129q-13 -82 -72.5 -121.5t-155.5 -39.5h-258zM168 82h117q51 0 80.5 20t36.5 62q8 47 -15.5 68.5t-75.5 21.5h-116z" />
    <glyph glyph-name="uni044D" unicode="&#x44d;" horiz-adv-x="539" 
d="M190 -10q-55 0 -100 14.5t-72 40.5l38 80q26 -23 60 -34t71 -11q74 0 120.5 39.5t62.5 110.5l12 -16h-254l14 85h255l-24 -32q8 78 -28 118t-109 40q-38 0 -75.5 -11.5t-71.5 -37.5l-28 79q32 28 84.5 44t110.5 16q83 0 140 -34.5t82 -96.5t11 -146q-13 -82 -54 -137
t-103.5 -83t-141.5 -28z" />
    <glyph glyph-name="uni044E" unicode="&#x44e;" horiz-adv-x="834" 
d="M501 -10q-107 0 -167 58.5t-58 162.5h-90l-33 -211h-122l80 505h122l-32 -198h87q29 102 101.5 155t172.5 53q83 0 137 -33t76.5 -95t8.5 -149q-13 -81 -52 -136t-98.5 -83.5t-132.5 -28.5zM509 86q57 0 97.5 40.5t53.5 121.5q14 88 -16 129.5t-90 41.5
q-58 0 -97.5 -40.5t-52.5 -120.5q-14 -88 15 -130t90 -42z" />
    <glyph glyph-name="uni044F" unicode="&#x44f;" horiz-adv-x="570" 
d="M-14 0l100 136q26 35 58.5 54.5t60.5 19.5h27l-8 -11q-85 0 -125.5 44.5t-29.5 117.5q11 66 65 105t147 39h258l-80 -505h-114l28 178h-59q-29 0 -53 -15t-41 -39l-90 -124h-144zM268 259h118l26 165h-112q-52 0 -81 -21t-34 -56q-7 -43 16 -65.5t67 -22.5z" />
    <glyph glyph-name="uni0450" unicode="&#x450;" horiz-adv-x="562" 
d="M292 -10q-89 0 -147.5 35t-82.5 98.5t-11 147.5q12 76 48.5 130.5t93.5 84t130 29.5t120.5 -32t67.5 -87.5t8 -128.5l-5 -32h-367l10 66h279l-19 -16q11 71 -14.5 107.5t-84.5 36.5q-42 0 -72.5 -19t-49 -52.5t-24.5 -75.5l-5 -33q-11 -78 23.5 -120.5t117.5 -42.5
q39 0 76.5 11.5t72.5 37.5l36 -84q-41 -30 -93 -45.5t-108 -15.5zM300 554l-142 203h122l104 -203h-84z" />
    <glyph glyph-name="uni0451" unicode="&#x451;" horiz-adv-x="562" 
d="M292 -10q-89 0 -147.5 35t-82.5 98.5t-11 147.5q12 76 48.5 130.5t93.5 84t130 29.5t120.5 -32t67.5 -87.5t8 -128.5l-5 -32h-367l10 66h279l-19 -16q11 71 -14.5 107.5t-84.5 36.5q-42 0 -72.5 -19t-49 -52.5t-24.5 -75.5l-5 -33q-11 -78 23.5 -120.5t117.5 -42.5
q39 0 76.5 11.5t72.5 37.5l36 -84q-41 -30 -93 -45.5t-108 -15.5zM388 597l17 115h115l-18 -115h-114zM199 597l17 115h115l-17 -115h-115z" />
    <glyph glyph-name="uni0452" unicode="&#x452;" horiz-adv-x="613" 
d="M272 -187l-25 92q50 12 78 30.5t42.5 48.5t21.5 75l35 225q10 63 -10.5 89.5t-67.5 26.5q-58 0 -96 -35t-47 -94l-43 -271h-125l90 569h-91l14 88h91l13 79h125l-13 -79h195l-14 -88h-195l-29 -181l-15 -1q30 56 80.5 84t113.5 28q92 0 129 -54t20 -161l-35 -223
q-11 -71 -37 -119t-75 -78.5t-130 -50.5z" />
    <glyph glyph-name="uni0453" unicode="&#x453;" horiz-adv-x="467" 
d="M31 0l80 505h379l-16 -98h-254l-64 -407h-125zM250 554l132 203h126l-174 -203h-84z" />
    <glyph glyph-name="uni0454" unicode="&#x454;" horiz-adv-x="544" 
d="M294 -10q-88 0 -147.5 34.5t-84.5 97t-12 146.5q13 82 54 136.5t104 82.5t141 28q56 0 101 -14t72 -41l-38 -80q-27 24 -61 35t-71 11q-73 0 -119.5 -40t-62.5 -111l-10 24h254l-14 -85h-255l21 25q-7 -79 28.5 -119t108.5 -40q39 0 76.5 12t71.5 38l33 -80
q-30 -27 -82 -43.5t-108 -16.5z" />
    <glyph glyph-name="uni0455" unicode="&#x455;" horiz-adv-x="515" 
d="M224 -10q-62 0 -114.5 14.5t-84.5 39.5l37 84q35 -22 78.5 -35.5t89.5 -13.5q49 0 76.5 16.5t31.5 44.5q4 25 -10 40.5t-47 20.5l-81 13q-73 12 -102.5 52t-20.5 100q8 48 38.5 81t78 50.5t105.5 17.5q56 0 103 -13.5t77 -37.5l-40 -82q-27 20 -64.5 32.5t-75.5 12.5
q-50 0 -77 -18t-32 -46q-4 -24 8 -40.5t43 -21.5l83 -14q75 -12 105.5 -49.5t20.5 -97.5q-7 -48 -38 -81.5t-79 -51t-109 -17.5z" />
    <glyph glyph-name="uni0456" unicode="&#x456;" horiz-adv-x="275" 
d="M35 0l80 505h125l-80 -505h-125zM123 600l20 122h139l-20 -122h-139z" />
    <glyph glyph-name="uni0457" unicode="&#x457;" horiz-adv-x="275" 
d="M35 0l80 505h125l-80 -505h-125zM231 597l17 115h115l-18 -115h-114zM42 597l17 115h115l-17 -115h-115z" />
    <glyph glyph-name="uni0458" unicode="&#x458;" horiz-adv-x="275" 
d="M-51 -222q-19 0 -40 3t-38 10l16 99q12 -4 26.5 -7t28.5 -3q36 0 60 22t32 74l84 529h125l-85 -536q-15 -94 -66 -142.5t-143 -48.5zM125 600l20 122h139l-20 -122h-139z" />
    <glyph glyph-name="uni0459" unicode="&#x459;" horiz-adv-x="905" 
d="M20 -14l-28 99q35 12 60.5 31t43.5 49.5t31 74.5t23 105l26 160h400l-27 -169h126q106 0 151 -46t31 -129q-13 -82 -72.5 -121.5t-154.5 -39.5h-256l65 409h-165l-12 -78q-13 -79 -33 -138t-49.5 -100.5t-69 -67t-90.5 -39.5zM509 82h117q51 0 80.5 20t36.5 62
q8 47 -16 68.5t-76 21.5h-115z" />
    <glyph glyph-name="uni045A" unicode="&#x45a;" horiz-adv-x="916" 
d="M31 0l80 505h124l-31 -198h228l32 198h123l-27 -169h126q106 0 151 -46t32 -129q-13 -82 -72.5 -121.5t-155.5 -39.5h-257l33 211h-228l-34 -211h-124zM520 82h117q51 0 80.5 20t36.5 62q8 47 -15.5 68.5t-75.5 21.5h-116z" />
    <glyph glyph-name="uni045B" unicode="&#x45b;" horiz-adv-x="617" 
d="M35 0l90 569h-91l14 88h92l12 79h125l-12 -79h194l-14 -88h-195l-28 -176h-14q30 55 80.5 83t113.5 28q91 0 128.5 -53.5t20.5 -160.5l-46 -290h-125l46 290q10 62 -10.5 89t-68.5 27q-58 0 -95.5 -35.5t-47.5 -94.5l-44 -276h-125z" />
    <glyph glyph-name="uni045C" unicode="&#x45c;" horiz-adv-x="570" 
d="M31 0l80 505h124l-31 -198h73l179 198h139l-226 -252l-23 39q28 -3 47 -15t34 -33.5t29 -54.5l77 -189h-129l-62 152q-9 23 -20.5 36t-27 18t-38.5 5h-67l-34 -211h-124zM318 554l132 203h126l-174 -203h-84z" />
    <glyph glyph-name="uni045D" unicode="&#x45d;" horiz-adv-x="615" 
d="M31 0l80 505h113l-60 -382l-33 1l350 381h103l-80 -505h-113l61 383l33 -1l-351 -382h-103zM313 554l-142 203h122l104 -203h-84z" />
    <glyph glyph-name="uni045E" unicode="&#x45e;" horiz-adv-x="557" 
d="M-10 -227l-20 99q49 10 83 23t58.5 34t44.5 54l34 59l-6 -49l-139 512h129l95 -394h-29l222 394h130l-314 -533q-32 -54 -64.5 -89.5t-67 -57t-73 -33.5t-83.5 -19zM328 551q-48 0 -84.5 17.5t-58.5 49t-30 72.5l63 22q14 -48 42 -70t73 -22q46 0 75 22.5t51 68.5l61 -21
q-16 -46 -44.5 -77t-65.5 -46.5t-82 -15.5z" />
    <glyph glyph-name="uni045F" unicode="&#x45f;" horiz-adv-x="615" 
d="M193 -130l21 130h-183l80 505h124l-64 -409h225l64 409h124l-80 -505h-184l-21 -130h-106z" />
    <glyph glyph-name="uni0462" unicode="&#x462;" horiz-adv-x="764" 
d="M118 0l83 523h-178l15 93h178l14 89h123l-14 -89h244l-15 -93h-244l-18 -113h188q122 0 181 -55t42 -165q-15 -96 -86.5 -143t-183.5 -47h-329zM257 99h185q71 0 108.5 25.5t45.5 78.5q8 56 -20 82t-99 26h-186z" />
    <glyph glyph-name="uni0463" unicode="&#x463;" horiz-adv-x="651" 
d="M118 0l67 422h-151l13 83h151l37 231h124l-37 -231h171l-13 -83h-171l-16 -104h138q95 0 139.5 -43.5t31.5 -123.5q-13 -79 -69.5 -115t-149.5 -36h-265zM254 75h121q49 0 78 19.5t35 61.5q7 46 -16 66t-71 20h-121z" />
    <glyph glyph-name="uni046A" unicode="&#x46a;" horiz-adv-x="1031" 
d="M-39 0l167 254q48 74 114 112t156 38h52l-12 -29l-239 330h778l-345 -330l-2 29h47q62 0 105 -17.5t71 -51t44 -81.5l87 -254h-132l-66 203q-12 36 -29 57.5t-42 30.5t-62 9h-66l-47 -300h-128l48 300h-66q-57 0 -92 -23.5t-67 -73.5l-130 -203h-144zM537 403h2l258 248
l-5 -34h-439l5 34z" />
    <glyph glyph-name="uni046B" unicode="&#x46b;" horiz-adv-x="848" 
d="M-48 0l134 177q33 44 61.5 69.5t61.5 37t81 11.5h64l-25 -34l-172 244h614l-249 -244l-15 34h64q48 0 76.5 -11.5t48 -37.5t38.5 -69l77 -177h-128l-63 139q-11 24 -22.5 37t-26.5 18t-38 5h-55l-32 -199h-124l32 199h-56q-22 0 -38 -5t-30 -18t-32 -37l-107 -139h-139z
M426 278h2l180 182l-6 -35h-305l6 35z" />
    <glyph glyph-name="uni0472" unicode="&#x472;" horiz-adv-x="787" 
d="M134 311l15 95h551l-15 -95h-551zM73 368q18 111 69 188.5t130.5 118t180.5 40.5q112 0 183 -48.5t99 -133.5t10 -195q-17 -111 -68.5 -188.5t-130.5 -118.5t-181 -41q-111 0 -182 48.5t-99 134t-11 195.5zM207 358q-13 -81 2.5 -138.5t57.5 -88.5t108 -31q99 0 159 66.5
t78 181.5q13 81 -3 138.5t-58 88t-109 30.5q-99 0 -157.5 -65.5t-77.5 -181.5z" />
    <glyph glyph-name="uni0473" unicode="&#x473;" horiz-adv-x="606" 
d="M273 -10q-82 0 -136.5 33t-77 95.5t-9.5 149.5q13 81 52.5 136t99 83t132.5 28q83 0 137 -33t76.5 -95t8.5 -149q-13 -81 -52.5 -136t-98.5 -83.5t-132 -28.5zM280 86q64 0 106.5 41t55.5 122q14 84 -18 127t-98 43q-64 0 -106.5 -40.5t-54.5 -121.5q-13 -82 16 -126.5
t99 -44.5zM120 213l12 81h356l-12 -81h-356z" />
    <glyph glyph-name="uni0474" unicode="&#x474;" horiz-adv-x="792" 
d="M261 0l-196 705h133l154 -592h-41l240 402q35 58 67 96.5t67.5 61.5t79.5 32.5t103 9.5l-5 -104q-50 0 -83 -13t-61 -44.5t-63 -87.5l-286 -466h-109z" />
    <glyph glyph-name="uni0475" unicode="&#x475;" horiz-adv-x="589" 
d="M182 0l-137 505h128l96 -395h-31l155 273q30 53 61 81.5t72.5 39.5t101.5 11l-5 -99q-32 0 -55.5 -8t-42 -26t-37.5 -50l-195 -332h-111z" />
    <glyph glyph-name="uni048A" unicode="&#x48a;" horiz-adv-x="783" 
d="M520 -165l83 165h-85l16 102h229l-134 -267h-109zM38 0l112 705h119l-84 -532l-25 -1l493 533h97l-112 -705h-120l84 532l24 1l-493 -533h-95zM456 760q-52 0 -91 17t-63.5 48.5t-34.5 74.5l66 22q15 -49 46 -70.5t81 -21.5q52 0 86 22t59 69l60 -21q-18 -46 -49 -77
t-71.5 -47t-88.5 -16z" />
    <glyph glyph-name="uni048B" unicode="&#x48b;" horiz-adv-x="646" 
d="M394 -130l67 130h-69l15 94h206l-115 -224h-104zM31 0l80 505h113l-60 -382l-33 1l350 381h103l-80 -505h-113l61 383l33 -1l-351 -382h-103zM359 551q-48 0 -84.5 17.5t-58.5 49t-30 72.5l63 22q14 -48 42 -70t73 -22q46 0 75 22.5t51 68.5l61 -21q-16 -46 -44.5 -77
t-65.5 -46.5t-82 -15.5z" />
    <glyph glyph-name="uni048C" unicode="&#x48c;" horiz-adv-x="752" 
d="M107 0l83 524h-147l15 92h146l15 89h123l-15 -89h146l-14 -92h-146l-18 -114h187q122 0 181 -55t42 -165q-15 -96 -86.5 -143t-183.5 -47h-328zM245 99h185q71 0 108.5 25.5t45.5 78.5q8 56 -20 82t-99 26h-186z" />
    <glyph glyph-name="uni048D" unicode="&#x48d;" horiz-adv-x="651" 
d="M118 0l67 422h-151l13 83h151l37 231h124l-37 -231h171l-13 -83h-171l-16 -104h138q95 0 139.5 -43.5t31.5 -123.5q-13 -79 -69.5 -115t-149.5 -36h-265zM254 75h121q49 0 78 19.5t35 61.5q7 46 -16 66t-71 20h-121z" />
    <glyph glyph-name="uni048E" unicode="&#x48e;" horiz-adv-x="666" 
d="M38 0l112 705h292q128 0 184 -59t38 -174q-10 -64 -51.5 -114.5t-108.5 -75.5l10 17l42 -79l-61 -37l-53 101l17 -14q-15 -2 -32 -3.5t-37 -1.5h-183l-42 -265h-127zM223 365h164q10 0 23 1t22 3l-27 -14l-40 77l59 35l52 -96l-21 7q38 12 59.5 38.5t27.5 65.5
q10 62 -19 92.5t-103 30.5h-159z" />
    <glyph glyph-name="uni048F" unicode="&#x48f;" horiz-adv-x="634" 
d="M0 -216l94 595q5 31 8 63t4 63h121l-6 -106h-15q25 53 72.5 84.5t114.5 31.5q70 0 117.5 -34t67.5 -96t6 -147q-13 -77 -44 -128t-81 -83l2 17l41 -64l-53 -36l-44 71l16 -3q-22 -12 -46 -17t-50 -5q-62 0 -106 31t-54 83h11l-51 -320h-125zM352 419q-58 0 -99.5 -40.5
t-54.5 -120.5q-13 -88 17 -130t89 -42q36 0 62 16l-5 -16l-50 79l52 35l50 -80l-14 4q23 20 38 50t22 74q14 88 -15.5 129.5t-91.5 41.5z" />
    <glyph glyph-name="uni0490" unicode="&#x490;" horiz-adv-x="573" 
d="M38 0l112 705h366l26 160h112l-42 -265h-352l-94 -600h-128z" />
    <glyph glyph-name="uni0491" unicode="&#x491;" horiz-adv-x="467" 
d="M31 0l80 505h273l18 113h106l-33 -211h-256l-64 -407h-124z" />
    <glyph glyph-name="uni0492" unicode="&#x492;" horiz-adv-x="616" 
d="M82 0l48 302h-98l14 92h98l50 311h478l-17 -105h-351l-32 -206h186l-15 -92h-185l-48 -302h-128z" />
    <glyph glyph-name="uni0493" unicode="&#x493;" horiz-adv-x="493" 
d="M58 0l30 190h-94l15 87h93l36 228h379l-16 -97h-254l-21 -131h146l-14 -87h-146l-30 -190h-124z" />
    <glyph glyph-name="uni0494" unicode="&#x494;" horiz-adv-x="715" 
d="M368 -190q-30 0 -58 3.5t-47 10.5l11 100q18 -7 40 -10.5t46 -3.5q57 0 94.5 37.5t48.5 107.5l14 87q16 100 -25 145.5t-133 45.5q-40 0 -77 -7.5t-69 -22.5l-48 -303h-127l112 705h483l-18 -105h-355l-30 -187q29 13 72.5 21t86.5 8q148 0 214 -74t43 -220l-14 -88
q-13 -88 -50 -143t-92 -81t-122 -26z" />
    <glyph glyph-name="uni0495" unicode="&#x495;" horiz-adv-x="587" 
d="M274 -187l-23 92q50 12 78 30.5t42.5 48.5t21.5 75l9 59q10 63 -9 89.5t-74 26.5q-61 0 -99.5 -35t-47.5 -94l-17 -105h-124l80 505h379l-14 -88h-255l-31 -199l-18 -1q31 56 82 85.5t118 29.5q94 0 132.5 -53t22.5 -155l-10 -64q-10 -66 -36 -114t-75.5 -80.5
t-131.5 -52.5z" />
    <glyph glyph-name="uni0496" unicode="&#x496;" horiz-adv-x="1057" 
d="M909 -165l26 165h-54l16 102h167l-42 -267h-113zM-39 0l165 251q44 66 96.5 102.5t123.5 46.5l-52 -36l-177 341h135l158 -317l-19 17h92l48 300h123l-48 -300h93l-31 -17l259 317h146l-285 -341l-46 36q61 -10 101.5 -46.5t63.5 -102.5l86 -251h-132l-66 203
q-17 52 -49 74.5t-85 22.5h-71l-48 -300h-123l47 300h-71q-53 0 -90 -22.5t-70 -74.5l-130 -203h-144z" />
    <glyph glyph-name="uni0497" unicode="&#x497;" horiz-adv-x="892" 
d="M710 -130l21 130h-39l15 94h147l-36 -224h-108zM-48 0l137 189q25 33 48 54.5t47.5 33.5t52.5 15l-28 -39l-150 252h130l117 -198h65l32 198h124l-32 -198h60l180 198h139l-227 -252l-22 39q26 -3 45.5 -15t35 -33.5t29.5 -54.5l76 -189h-128l-62 152q-9 23 -20.5 36
t-27.5 18t-39 5h-54l-33 -211h-124l33 211h-55q-23 0 -39 -5t-30 -18t-32 -36l-109 -152h-139z" />
    <glyph glyph-name="uni0498" unicode="&#x498;" horiz-adv-x="644" 
d="M202 -165l35 225h109l-36 -225h-108zM284 -10q-89 0 -156 22.5t-110 62.5l43 94q41 -35 95.5 -53.5t127.5 -18.5q83 0 128.5 27.5t53.5 79.5q8 53 -21.5 78t-96.5 25h-182l16 101h166q68 0 104 24.5t43 70.5q8 50 -25.5 77.5t-112.5 27.5q-61 0 -119 -17.5t-108 -52.5
l-39 95q56 39 130 60.5t155 21.5q93 0 150.5 -25.5t81 -70.5t14.5 -104q-9 -58 -51 -101.5t-117 -59.5l2 15q70 -11 107.5 -58t24.5 -124q-9 -59 -46 -103.5t-101.5 -69t-156.5 -24.5z" />
    <glyph glyph-name="uni0499" unicode="&#x499;" horiz-adv-x="530" 
d="M155 -130l30 184h99l-29 -184h-100zM223 -10q-66 0 -123 16t-92 46l40 82q32 -27 80.5 -41t100.5 -14q63 0 95 17.5t37 51.5q6 32 -14.5 48.5t-65.5 16.5h-131l13 86h120q40 0 65 16t29 45q5 31 -18.5 49t-84.5 18q-52 0 -97.5 -12t-86.5 -35l-30 78q47 28 108 42.5
t131 14.5q104 0 154 -38.5t39 -107.5q-7 -45 -43.5 -77.5t-90.5 -40.5l2 14q62 -4 92 -39t21 -90q-10 -65 -73 -105.5t-177 -40.5z" />
    <glyph glyph-name="uni049A" unicode="&#x49a;" horiz-adv-x="727" 
d="M557 -165l26 165h-54l16 102h167l-42 -267h-113zM38 0l112 705h127l-48 -300h120l-31 -17l259 317h147l-286 -341l-47 36q66 -10 105 -46.5t61 -102.5l86 -251h-132l-65 203q-17 53 -49.5 75t-85.5 22h-98l-48 -300h-127z" />
    <glyph glyph-name="uni049B" unicode="&#x49b;" horiz-adv-x="619" 
d="M431 -130l21 130h-39l15 94h147l-36 -224h-108zM31 0l80 505h124l-31 -198h73l179 198h139l-226 -252l-23 39q28 -3 47 -15t34 -33.5t29 -54.5l77 -189h-129l-62 152q-9 23 -20.5 36t-27 18t-38.5 5h-67l-34 -211h-124z" />
    <glyph glyph-name="uni049C" unicode="&#x49c;" horiz-adv-x="742" 
d="M38 0l112 705h128l-48 -300h63l26 164h74l-26 -164h15l246 300h147l-286 -341l-47 36q67 -10 106 -46t61 -103l86 -251h-132l-65 203q-17 53 -49.5 75.5t-85.5 22.5h-27l17 11l-27 -172h-75l26 161h-63l-48 -301h-128z" />
    <glyph glyph-name="uni049D" unicode="&#x49d;" horiz-adv-x="634" 
d="M31 0l80 505h124l-31 -198h51l18 113h75l-18 -113h11l179 198h140l-226 -252l-24 39q27 -3 46.5 -15t34.5 -33.5t29 -54.5l77 -189h-128l-63 152q-9 23 -20 35.5t-26.5 18t-39.5 5.5h-17l14 14l-21 -138h-75l19 124h-51l-34 -211h-124z" />
    <glyph glyph-name="uni049E" unicode="&#x49e;" horiz-adv-x="752" 
d="M94 0l84 529h-146l14 87h146l14 89h127l-14 -89h131l-14 -87h-131l-20 -124h139l-40 -28l273 328h146l-299 -352l-31 39q47 -9 82 -42t58 -99l86 -251h-133l-65 203q-16 53 -49 75t-86 22h-97l-48 -300h-127z" />
    <glyph glyph-name="uni049F" unicode="&#x49f;" horiz-adv-x="573" 
d="M35 0l90 569h-91l14 88h91l13 79h125l-13 -79h195l-14 -88h-195l-42 -266h75l172 187h139l-224 -245l-17 39q27 -3 45 -14t31.5 -32t28.5 -56l78 -182h-128l-63 149q-10 23 -21.5 36t-27 18t-38.5 5h-66l-32 -208h-125z" />
    <glyph glyph-name="uni04A0" unicode="&#x4a0;" horiz-adv-x="835" 
d="M66 600l17 105h340l-17 -105h-340zM185 0l112 705h127l-48 -300h120l-31 -17l259 317h147l-286 -341l-47 36q66 -10 105 -46.5t61 -102.5l86 -251h-132l-65 203q-17 53 -49.5 75t-85.5 22h-98l-48 -300h-127z" />
    <glyph glyph-name="uni04A1" unicode="&#x4a1;" horiz-adv-x="656" 
d="M117 0l64 407h-150l16 98h274l-31 -198h73l179 198h140l-226 -252l-24 39q27 -3 46.5 -15t34.5 -33.5t29 -54.5l77 -189h-129l-62 152q-9 23 -20.5 36t-27.5 18t-39 5h-66l-34 -211h-124z" />
    <glyph glyph-name="uni04A2" unicode="&#x4a2;" horiz-adv-x="821" 
d="M637 -165l26 165h-112l16 102h224l-42 -267h-112zM38 0l112 705h129l-47 -294h361l47 294h129l-112 -705h-129l48 304h-361l-48 -304h-129z" />
    <glyph glyph-name="uni04A3" unicode="&#x4a3;" horiz-adv-x="619" 
d="M463 -130l21 130h-93l15 94h199l-36 -224h-106zM31 0l80 505h124l-31 -198h228l31 198h124l-80 -505h-124l34 211h-228l-34 -211h-124z" />
    <glyph glyph-name="uni04A4" unicode="&#x4a4;" horiz-adv-x="957" 
d="M38 0l112 705h127l-47 -294h362l47 294h377l-17 -105h-250l-94 -600h-128l49 305h-362l-49 -305h-127z" />
    <glyph glyph-name="uni04A5" unicode="&#x4a5;" horiz-adv-x="776" 
d="M31 0l80 505h124l-31 -198h224l32 198h340l-16 -98h-216l-64 -407h-124l33 211h-224l-34 -211h-124z" />
    <glyph glyph-name="uni04A8" unicode="&#x4a8;" horiz-adv-x="865" 
d="M374 -10q-114 0 -187.5 47t-102.5 132t-11 200q18 114 71.5 191t134.5 116t181 39q24 0 41.5 -1.5t30.5 -4.5l-18 -102q-15 2 -28.5 3.5t-26.5 1.5q-102 0 -168.5 -66.5t-86.5 -187.5q-20 -127 26.5 -199.5t159.5 -72.5q79 0 137 26.5t94.5 78.5t48.5 129q10 63 -10.5 98
t-66.5 35q-44 0 -74.5 -35t-40.5 -98q-12 -76 7.5 -128.5t69 -79t128.5 -26.5q39 0 75 8.5t73 24.5l20 -91q-34 -19 -79 -28.5t-98 -9.5q-76 0 -138 25.5t-104.5 71.5t-61 109.5t-6.5 138.5q11 67 43.5 115.5t82 74.5t110.5 26q69 0 114.5 -28.5t64.5 -80.5t7 -123
q-11 -70 -48 -130t-93.5 -104.5t-125.5 -69.5t-145 -25z" />
    <glyph glyph-name="uni04A9" unicode="&#x4a9;" horiz-adv-x="715" 
d="M300 -10q-94 0 -154 35.5t-84 99t-11 146.5q13 80 53 134.5t100 82t132 27.5q28 0 51.5 -3.5t39.5 -11.5l-20 -86q-12 6 -29.5 8.5t-34.5 2.5q-69 0 -115.5 -45t-58.5 -124q-14 -87 25.5 -134t123.5 -47q92 0 143.5 36.5t62.5 107.5q7 42 -8.5 65.5t-47.5 23.5
q-31 0 -52.5 -23t-27.5 -62q-11 -74 28 -111t132 -37q32 0 67.5 8t64.5 23l13 -86q-33 -15 -67.5 -22.5t-73.5 -7.5q-64 0 -115.5 18.5t-86.5 52t-50.5 79t-6.5 99.5q7 43 31 77t63 54t88 20q50 0 86 -20.5t52.5 -59.5t7.5 -93q-7 -48 -36.5 -89t-74 -72t-98.5 -48.5
t-112 -17.5z" />
    <glyph glyph-name="uni04AA" unicode="&#x4aa;" horiz-adv-x="685" 
d="M286 -165l35 225h109l-36 -225h-108zM383 -10q-120 0 -195 48.5t-103.5 134t-11.5 195.5q18 111 70.5 188.5t135.5 118.5t190 40q70 0 125.5 -19.5t93.5 -54.5l-46 -103q-42 35 -82.5 49t-96.5 14q-103 0 -170 -62.5t-86 -178.5q-12 -78 4.5 -135.5t63.5 -89t123 -31.5
q50 0 99 16.5t96 54.5l38 -101q-49 -40 -114 -62t-134 -22z" />
    <glyph glyph-name="uni04AB" unicode="&#x4ab;" horiz-adv-x="518" 
d="M188 -130l30 184h99l-29 -184h-100zM279 -10q-83 0 -139 34.5t-79.5 97t-10.5 146.5q20 122 97.5 184.5t191.5 62.5q47 0 91.5 -14t71.5 -41l-41 -85q-24 22 -56 32.5t-62 10.5q-64 0 -108.5 -39.5t-57.5 -119.5q-13 -79 19.5 -125t102.5 -46q30 0 64.5 11.5t64.5 36.5
l36 -86q-31 -27 -81.5 -43.5t-103.5 -16.5z" />
    <glyph glyph-name="uni04AC" unicode="&#x4ac;" horiz-adv-x="619" 
d="M296 -165l27 165h-119l95 599h-233l17 106h595l-17 -106h-233l-79 -496h102l-42 -268h-113z" />
    <glyph glyph-name="uni04AD" unicode="&#x4ad;" horiz-adv-x="485" 
d="M219 -130l21 130h-93l15 94h199l-36 -224h-106zM140 0l64 407h-173l16 98h471l-16 -98h-174l-64 -407h-124z" />
    <glyph glyph-name="uni04AE" unicode="&#x4ae;" horiz-adv-x="629" 
d="M210 0l53 333l14 -77l-230 449h143l157 -320h-28l259 320h149l-374 -454l39 82l-53 -333h-129z" />
    <glyph glyph-name="uni04AF" unicode="&#x4af;" horiz-adv-x="550" 
d="M136 -216l36 230l-133 491h128l96 -395h-31l224 395h129l-288 -487l-37 -234h-124z" />
    <glyph glyph-name="uni04B0" unicode="&#x4b0;" horiz-adv-x="629" 
d="M210 0l53 333l14 -77l-230 449h143l157 -320h-28l259 320h149l-374 -454l39 82l-53 -333h-129zM90 273l11 74h456l-11 -74h-456z" />
    <glyph glyph-name="uni04B1" unicode="&#x4b1;" horiz-adv-x="550" 
d="M139 -198l23 146h-130l14 88h132l-4 -27l-135 496h127l97 -396h-31l224 396h129l-291 -492l3 23h132l-14 -88h-129l-23 -146h-124z" />
    <glyph glyph-name="uni04B2" unicode="&#x4b2;" horiz-adv-x="708" 
d="M545 -165l26 165h-54l16 102h167l-42 -267h-113zM-51 0l351 386l-3 -55l-221 374h146l158 -281h-41l247 281h158l-340 -374l2 55l230 -386h-147l-167 294h45l-261 -294h-157z" />
    <glyph glyph-name="uni04B3" unicode="&#x4b3;" horiz-adv-x="604" 
d="M437 -130l21 130h-39l15 94h147l-36 -224h-108zM-47 0l281 289l-2 -57l-179 273h141l115 -187h-44l174 187h154l-264 -273l4 57l188 -289h-145l-125 201h46l-190 -201h-154z" />
    <glyph glyph-name="uni04B4" unicode="&#x4b4;" horiz-adv-x="967" 
d="M766 -165l27 165h-608l94 600h-213l17 105h535l-18 -105h-193l-78 -494h361l96 599h128l-96 -599h104l-43 -271h-113z" />
    <glyph glyph-name="uni04B5" unicode="&#x4b5;" horiz-adv-x="748" 
d="M560 -130l21 130h-464l64 407h-150l16 98h413l-16 -98h-139l-49 -311h240l65 409h124l-65 -409h81l-35 -226h-106z" />
    <glyph glyph-name="uni04B6" unicode="&#x4b6;" horiz-adv-x="759" 
d="M558 -165l26 165h-112l16 102h224l-42 -267h-112zM467 0l43 276q-31 -13 -75 -21t-88 -8q-91 0 -152 32.5t-86.5 98t-10.5 163.5l27 164h128l-26 -158q-16 -103 22 -147t132 -44q38 0 74.5 7t72.5 23l51 319h128l-112 -705h-128z" />
    <glyph glyph-name="uni04B7" unicode="&#x4b7;" horiz-adv-x="585" 
d="M429 -130l21 130h-93l15 94h199l-36 -224h-106zM352 0l29 184q-29 -13 -61 -20t-64 -7q-67 0 -112.5 23.5t-65.5 70.5t-9 117l22 137h124l-20 -126q-10 -64 13.5 -92.5t85.5 -28.5q29 0 53 6t47 19l35 222h124l-80 -505h-121z" />
    <glyph glyph-name="uni04B8" unicode="&#x4b8;" horiz-adv-x="712" 
d="M467 0l44 276q-30 -13 -69 -20.5t-75 -7.5l23 17l-25 -159h-76l25 159l12 -18q-81 4 -137.5 36.5t-81 96t-9.5 161.5l27 164h128l-26 -158q-15 -93 16.5 -139t108.5 -51l-25 -11l28 175h76l-28 -175l-24 10q36 0 76.5 7.5t73.5 22.5l50 319h128l-112 -705h-128z" />
    <glyph glyph-name="uni04B9" unicode="&#x4b9;" horiz-adv-x="617" 
d="M382 0l30 186q-26 -12 -54.5 -18.5t-54.5 -7.5l27 20l-18 -116h-75l18 116l20 -21q-113 0 -167.5 53t-38.5 156l22 137h124l-20 -128q-10 -63 15 -90.5t83 -29.5l-28 -14l22 138h75l-22 -138l-19 13q26 0 53 6t53 19l35 224h124l-80 -505h-124z" />
    <glyph glyph-name="uni04BA" unicode="&#x4ba;" horiz-adv-x="712" 
d="M38 0l112 705h128l-44 -275q31 14 76 21.5t88 7.5q92 0 153 -32.5t86 -98t9 -164.5l-26 -164h-128l25 158q16 101 -22 146.5t-128 45.5q-37 0 -76 -6.5t-75 -23.5l-50 -320h-128z" />
    <glyph glyph-name="uni04BB" unicode="&#x4bb;" horiz-adv-x="617" 
d="M35 0l117 736h125l-53 -332h-15q30 55 80.5 83t113.5 28q92 0 129 -53.5t20 -160.5l-47 -301h-125l47 301q10 62 -10 89t-68 27q-58 0 -96 -35.5t-47 -94.5l-46 -287h-125z" />
    <glyph glyph-name="uni04BC" unicode="&#x4bc;" horiz-adv-x="946" 
d="M570 -10q-89 0 -152.5 27t-103 74t-56 108.5t-10.5 130.5l21 -29h-51q-103 0 -143 48.5t-25 139.5l9 54h125l-9 -52q-7 -48 8 -69t64 -21h30l-23 -28q18 108 69.5 184.5t130 117t175.5 40.5q113 0 180.5 -46.5t91.5 -130.5t4 -197l-6 -40h-553l34 46q-11 -73 6.5 -128.5
t65.5 -87t130 -31.5q61 0 114 17.5t100 54.5l38 -98q-35 -26 -75 -45t-86.5 -29t-102.5 -10zM622 610q-94 0 -156.5 -62t-82.5 -184l-21 37h456l-38 -49q21 128 -14.5 193t-143.5 65z" />
    <glyph glyph-name="uni04BD" unicode="&#x4bd;" horiz-adv-x="676" 
d="M415 -10q-89 0 -146.5 34.5t-81.5 94t-15 133.5l4 -19h-22q-77 0 -104.5 34.5t-17.5 101.5l6 36h98l-6 -36q-7 -37 4.5 -53.5t45.5 -16.5h24l-30 -23q14 75 50.5 128.5t93 82t128.5 28.5q73 0 120.5 -32t67.5 -87.5t8 -128.5l-5 -32h-364l17 19q-12 -79 22 -123.5
t119 -44.5q39 0 76.5 11.5t72.5 37.5l36 -84q-41 -30 -93 -45.5t-108 -15.5zM441 429q-61 0 -98 -40t-47 -102l-13 14h276l-19 -16q11 71 -14.5 107.5t-84.5 36.5z" />
    <glyph glyph-name="uni04BE" unicode="&#x4be;" horiz-adv-x="946" 
d="M570 -10q-89 0 -152.5 27t-103 74t-56 108.5t-10.5 130.5l21 -29h-51q-103 0 -143 48.5t-25 139.5l9 54h125l-9 -52q-7 -48 8 -69t64 -21h30l-23 -28q18 108 69.5 184.5t130 117t175.5 40.5q113 0 180.5 -46.5t91.5 -130.5t4 -197l-6 -40h-553l34 46q-11 -73 6.5 -128.5
t65.5 -87t130 -31.5q61 0 114 17.5t100 54.5l38 -98q-35 -26 -75 -45t-86.5 -29t-102.5 -10zM622 610q-94 0 -156.5 -62t-82.5 -184l-21 37h456l-38 -49q21 128 -14.5 193t-143.5 65zM589 -195q-51 0 -78.5 25.5t-27.5 68.5q0 48 32 86t81 57l33 -42q-35 -14 -51 -36
t-16 -45q0 -21 14 -34t37 -13q14 0 26.5 3t27.5 8l12 -62q-24 -7 -45 -11.5t-45 -4.5z" />
    <glyph glyph-name="uni04BF" unicode="&#x4bf;" horiz-adv-x="676" 
d="M415 -10q-89 0 -146.5 34.5t-81.5 94t-15 133.5l4 -19h-22q-77 0 -104.5 34.5t-17.5 101.5l6 36h98l-6 -36q-7 -37 4.5 -53.5t45.5 -16.5h24l-30 -23q14 75 50.5 128.5t93 82t128.5 28.5q73 0 120.5 -32t67.5 -87.5t8 -128.5l-5 -32h-364l17 19q-12 -79 22 -123.5
t119 -44.5q39 0 76.5 11.5t72.5 37.5l36 -84q-41 -30 -93 -45.5t-108 -15.5zM441 429q-61 0 -98 -40t-47 -102l-13 14h276l-19 -16q11 71 -14.5 107.5t-84.5 36.5zM435 -195q-51 0 -78.5 25.5t-27.5 68.5q0 48 32 86t81 57l33 -42q-35 -14 -51 -36t-16 -45q0 -21 14 -34
t37 -13q14 0 26.5 3t27.5 8l12 -62q-24 -7 -45 -11.5t-45 -4.5z" />
    <glyph glyph-name="uni04C0" unicode="&#x4c0;" horiz-adv-x="284" 
d="M38 0l112 705h129l-112 -705h-129z" />
    <glyph glyph-name="uni04C1" unicode="&#x4c1;" horiz-adv-x="1040" 
d="M-39 0l165 251q44 66 96.5 102.5t123.5 46.5l-52 -36l-177 341h135l158 -317l-19 17h92l48 300h123l-48 -300h93l-31 -17l259 317h146l-285 -341l-46 36q61 -10 101.5 -46.5t63.5 -102.5l86 -251h-132l-66 203q-17 52 -49 74.5t-85 22.5h-71l-48 -300h-123l47 300h-71
q-53 0 -90 -22.5t-70 -74.5l-130 -203h-144zM597 760q-52 0 -91 17t-63.5 48.5t-34.5 74.5l66 22q15 -49 46 -70.5t81 -21.5q52 0 86 22t59 69l60 -21q-18 -46 -49 -77t-71.5 -47t-88.5 -16z" />
    <glyph glyph-name="uni04C2" unicode="&#x4c2;" horiz-adv-x="844" 
d="M-48 0l137 189q25 33 48 54.5t47.5 33.5t52.5 15l-28 -39l-150 252h130l117 -198h65l32 198h124l-32 -198h60l180 198h139l-227 -252l-22 39q26 -3 45.5 -15t35 -33.5t29.5 -54.5l76 -189h-128l-62 152q-9 23 -20.5 36t-27.5 18t-39 5h-54l-33 -211h-124l33 211h-55
q-23 0 -39 -5t-30 -18t-32 -36l-109 -152h-139zM475 551q-48 0 -84.5 17.5t-58.5 49t-30 72.5l63 22q14 -48 42 -70t73 -22q46 0 75 22.5t51 68.5l61 -21q-16 -46 -44.5 -77t-65.5 -46.5t-82 -15.5z" />
    <glyph glyph-name="uni04C3" unicode="&#x4c3;" horiz-adv-x="715" 
d="M368 -190q-30 0 -58 3.5t-47 9.5l11 102q18 -7 40 -11t46 -4q58 0 96 37t48 107l8 57q15 102 -27 148.5t-139 46.5h-132l-49 -306h-127l112 705h127l-47 -294h133l-39 -23l260 317h146l-286 -341l-14 42q119 -10 176 -81t35 -208l-9 -58q-13 -87 -50 -142t-92 -81
t-122 -26z" />
    <glyph glyph-name="uni04C4" unicode="&#x4c4;" horiz-adv-x="581" 
d="M266 -187l-23 92q49 12 77 30t42 47.5t21 73.5l5 28q11 67 -16 97t-89 30h-94l-34 -211h-124l80 505h124l-31 -198h73l179 198h138l-225 -252l-49 50q72 0 119 -25t66.5 -72.5t7.5 -115.5l-5 -33q-10 -63 -35.5 -110.5t-75 -80.5t-131.5 -53z" />
    <glyph glyph-name="uni04C5" unicode="&#x4c5;" horiz-adv-x="800" 
d="M535 -165l83 165h-85l16 102h229l-134 -267h-109zM41 -17l-61 94q48 23 86 52.5t66.5 74t50 110.5t36.5 161l36 230h512l-112 -705h-128l95 600h-266l-24 -152q-16 -103 -42.5 -179.5t-63 -130.5t-83 -91.5t-102.5 -63.5z" />
    <glyph glyph-name="uni04C6" unicode="&#x4c6;" horiz-adv-x="640" 
d="M384 -130l67 130h-69l15 94h206l-115 -224h-104zM20 -14l-28 99q35 12 60.5 31t43.5 49.5t31 74.5t23 105l26 160h402l-80 -505h-124l65 409h-165l-12 -78q-13 -79 -33.5 -138t-49.5 -100.5t-68.5 -67t-90.5 -39.5z" />
    <glyph glyph-name="uni04C7" unicode="&#x4c7;" horiz-adv-x="774" 
d="M433 -187q-17 0 -40.5 2t-46.5 7l16 102q19 -4 36 -6t30 -2q45 0 70 26.5t34 85.5l44 276h-361l-48 -304h-129l112 705h129l-47 -294h361l47 294h129l-108 -676q-11 -74 -38.5 -122t-74 -71t-115.5 -23z" />
    <glyph glyph-name="uni04C8" unicode="&#x4c8;" horiz-adv-x="619" 
d="M233 -193l6 91l49 4q41 4 64.5 26t30.5 65l34 218h-228l-34 -211h-124l80 505h124l-31 -198h228l32 198h123l-78 -496q-11 -67 -37.5 -109.5t-73.5 -63.5t-119 -26z" />
    <glyph glyph-name="uni04C9" unicode="&#x4c9;" horiz-adv-x="802" 
d="M553 -165l83 165h-85l16 102h229l-134 -267h-109zM38 0l112 705h129l-47 -294h361l47 294h129l-112 -705h-129l48 304h-361l-48 -304h-129z" />
    <glyph glyph-name="uni04CA" unicode="&#x4ca;" horiz-adv-x="645" 
d="M393 -130l67 130h-69l15 94h206l-115 -224h-104zM31 0l80 505h124l-31 -198h228l31 198h124l-80 -505h-124l34 211h-228l-34 -211h-124z" />
    <glyph glyph-name="uni04CB" unicode="&#x4cb;" horiz-adv-x="712" 
d="M458 -165h-114l42 267h174l-16 -102h-60zM467 0l43 276q-31 -13 -75 -21t-88 -8q-91 0 -152 32.5t-86.5 98t-10.5 163.5l27 164h128l-26 -158q-16 -103 22 -147t132 -44q38 0 74.5 7t72.5 23l51 319h128l-112 -705h-128z" />
    <glyph glyph-name="uni04CC" unicode="&#x4cc;" horiz-adv-x="614" 
d="M356 -130h-106l32 200h185l-11 -70h-79zM352 0l29 184q-29 -13 -61 -20t-64 -7q-67 0 -112.5 23.5t-65.5 70.5t-9 117l22 137h124l-20 -126q-10 -64 13.5 -92.5t85.5 -28.5q29 0 53 6t47 19l35 222h124l-80 -505h-121z" />
    <glyph glyph-name="uni04CD" unicode="&#x4cd;" horiz-adv-x="898" 
d="M660 -165l83 165h-85l16 102h229l-134 -267h-109zM39 0l112 705h113l166 -583h-31l352 583h112l-112 -705h-117l83 523h37l-321 -523h-75l-156 523h37l-83 -523h-117z" />
    <glyph glyph-name="uni04CE" unicode="&#x4ce;" horiz-adv-x="729" 
d="M479 -130l67 130h-69l15 94h206l-115 -224h-104zM31 0l80 505h104l126 -302l222 302h104l-80 -505h-110l58 365h26l-207 -283h-58l-117 283h20l-58 -365h-110z" />
    <glyph glyph-name="uni04CF" unicode="&#x4cf;" horiz-adv-x="275" 
d="M35 0l117 736h125l-117 -736h-125z" />
    <glyph glyph-name="uni04D0" unicode="&#x4d0;" horiz-adv-x="750" 
d="M-40 0l431 705h108l211 -705h-126l-55 198l47 -35h-423l59 35l-117 -198h-135zM427 567l-194 -334l-21 31h336l-26 -31l-91 334h-4zM454 760q-52 0 -91 17t-63.5 48.5t-34.5 74.5l66 22q15 -49 46 -70.5t81 -21.5q52 0 86 22t59 69l60 -21q-18 -46 -49 -77t-71.5 -47
t-88.5 -16z" />
    <glyph glyph-name="uni04D1" unicode="&#x4d1;" horiz-adv-x="634" 
d="M241 -10q-69 0 -117 34t-67.5 96.5t-6.5 147.5q20 122 90.5 184.5t168.5 62.5q63 0 107 -30.5t53 -82.5l-10 -3l28 106h120q-8 -31 -15.5 -63t-12.5 -63l-60 -379h-124l17 107h16q-25 -54 -72.5 -85.5t-114.5 -31.5zM282 86q58 0 99.5 40.5t54.5 121.5q14 88 -16.5 129.5
t-91.5 41.5q-58 0 -99 -40.5t-54 -120.5q-14 -88 16 -130t91 -42zM362 551q-48 0 -84.5 17.5t-58.5 49t-30 72.5l63 22q14 -48 42 -70t73 -22q46 0 75 22.5t51 68.5l61 -21q-16 -46 -44.5 -77t-65.5 -46.5t-82 -15.5z" />
    <glyph glyph-name="uni04D2" unicode="&#x4d2;" horiz-adv-x="750" 
d="M-40 0l431 705h108l211 -705h-126l-55 198l47 -35h-423l59 35l-117 -198h-135zM427 567l-194 -334l-21 31h336l-26 -31l-91 334h-4zM499 790l18 115h115l-19 -115h-114zM310 790l18 115h115l-18 -115h-115z" />
    <glyph glyph-name="uni04D3" unicode="&#x4d3;" horiz-adv-x="634" 
d="M241 -10q-69 0 -117 34t-67.5 96.5t-6.5 147.5q20 122 90.5 184.5t168.5 62.5q63 0 107 -30.5t53 -82.5l-10 -3l28 106h120q-8 -31 -15.5 -63t-12.5 -63l-60 -379h-124l17 107h16q-25 -54 -72.5 -85.5t-114.5 -31.5zM282 86q58 0 99.5 40.5t54.5 121.5q14 88 -16.5 129.5
t-91.5 41.5q-58 0 -99 -40.5t-54 -120.5q-14 -88 16 -130t91 -42zM404 597l17 115h115l-18 -115h-114zM215 597l17 115h115l-17 -115h-115z" />
    <glyph glyph-name="uni04D4" unicode="&#x4d4;" horiz-adv-x="1017" 
d="M-60 0l549 705h558l-17 -101h-377l27 21l-19 -251l-12 35h329l-16 -102h-326l20 10l-17 -243l-12 28h324l-16 -102h-419l14 194l24 -31h-369l48 34l-149 -197h-144zM539 603l-279 -369l-8 31h298l-16 -35l28 373h-23z" />
    <glyph glyph-name="uni04D5" unicode="&#x4d5;" horiz-adv-x="886" 
d="M215 -10q-66 0 -108 25t-59 65t-10 85q9 50 45 79.5t101 42.5t161 13h51l-10 -65h-56q-55 0 -94 -7t-60.5 -24t-26.5 -46q-6 -36 15.5 -58.5t67.5 -22.5q56 0 92.5 34.5t45.5 91.5l17 111q9 55 -16.5 80.5t-74.5 25.5q-46 0 -85.5 -10.5t-85.5 -35.5l-33 86
q29 17 65.5 29.5t75.5 19t75 6.5q81 0 122.5 -27t51.5 -80h-36q38 54 90 80.5t114 26.5q72 0 119 -32t66.5 -87.5t8.5 -128.5l-5 -32h-360l10 66h271l-18 -16q10 71 -15 107.5t-82 36.5q-41 0 -71.5 -19t-48.5 -52.5t-24 -75.5l-5 -33q-11 -78 23.5 -120.5t115.5 -42.5
q38 0 74.5 11.5t72.5 37.5l35 -84q-40 -30 -92 -45.5t-106 -15.5q-88 0 -144 37t-78 105h28q-28 -67 -82 -104.5t-128 -37.5z" />
    <glyph glyph-name="uni04D6" unicode="&#x4d6;" horiz-adv-x="595" 
d="M38 0l112 705h475l-16 -101h-352l-30 -195h328l-16 -102h-328l-33 -205h351l-16 -102h-475zM415 760q-52 0 -91 17t-63.5 48.5t-34.5 74.5l66 22q15 -49 46 -70.5t81 -21.5q52 0 86 22t59 69l60 -21q-18 -46 -49 -77t-71.5 -47t-88.5 -16z" />
    <glyph glyph-name="uni04D7" unicode="&#x4d7;" horiz-adv-x="562" 
d="M292 -10q-89 0 -147.5 35t-82.5 98.5t-11 147.5q12 76 48.5 130.5t93.5 84t130 29.5t120.5 -32t67.5 -87.5t8 -128.5l-5 -32h-367l10 66h279l-19 -16q11 71 -14.5 107.5t-84.5 36.5q-42 0 -72.5 -19t-49 -52.5t-24.5 -75.5l-5 -33q-11 -78 23.5 -120.5t117.5 -42.5
q39 0 76.5 11.5t72.5 37.5l36 -84q-41 -30 -93 -45.5t-108 -15.5zM346 551q-48 0 -84.5 17.5t-58.5 49t-30 72.5l63 22q14 -48 42 -70t73 -22q46 0 75 22.5t51 68.5l61 -21q-16 -46 -44.5 -77t-65.5 -46.5t-82 -15.5z" />
    <glyph glyph-name="uni04D8" unicode="&#x4d8;" horiz-adv-x="766" 
d="M355 -10q-114 0 -182 47.5t-92.5 130.5t-8.5 191l7 45h552l-16 -100h-455l40 49q-13 -85 -2 -142t50 -86t111 -29q96 0 156 62t79 186q20 126 -26 193.5t-165 67.5q-64 0 -118.5 -16t-110.5 -53l-39 98q59 40 129.5 60.5t156.5 20.5q117 0 190.5 -47t102.5 -131.5
t11 -197.5q-17 -108 -68 -186.5t-128 -120.5t-174 -42z" />
    <glyph glyph-name="uni04D9" unicode="&#x4d9;" horiz-adv-x="562" 
d="M248 -10q-77 0 -126.5 32t-69.5 88t-9 128l5 32h368l-10 -66h-279l20 16q-13 -70 13 -106.5t87 -36.5q41 0 71 19t48.5 52.5t24.5 74.5l5 33q11 79 -24 121t-118 42q-38 0 -75.5 -10.5t-73.5 -36.5l-34 84q43 30 95.5 44.5t110.5 14.5q86 0 143 -35t81.5 -98t10.5 -148
q-12 -74 -47.5 -129t-90.5 -85t-126 -30z" />
    <glyph glyph-name="uni04DA" unicode="&#x4da;" horiz-adv-x="766" 
d="M355 -10q-114 0 -182 47.5t-92.5 130.5t-8.5 191l7 45h552l-16 -100h-455l40 49q-13 -85 -2 -142t50 -86t111 -29q96 0 156 62t79 186q20 126 -26 193.5t-165 67.5q-64 0 -118.5 -16t-110.5 -53l-39 98q59 40 129.5 60.5t156.5 20.5q117 0 190.5 -47t102.5 -131.5
t11 -197.5q-17 -108 -68 -186.5t-128 -120.5t-174 -42zM507 790l18 115h115l-19 -115h-114zM318 790l18 115h115l-18 -115h-115z" />
    <glyph glyph-name="uni04DB" unicode="&#x4db;" horiz-adv-x="562" 
d="M248 -10q-77 0 -126.5 32t-69.5 88t-9 128l5 32h368l-10 -66h-279l20 16q-13 -70 13 -106.5t87 -36.5q41 0 71 19t48.5 52.5t24.5 74.5l5 33q11 79 -24 121t-118 42q-38 0 -75.5 -10.5t-73.5 -36.5l-34 84q43 30 95.5 44.5t110.5 14.5q86 0 143 -35t81.5 -98t10.5 -148
q-12 -74 -47.5 -129t-90.5 -85t-126 -30zM369 597l17 115h115l-18 -115h-114zM180 597l17 115h115l-17 -115h-115z" />
    <glyph glyph-name="uni04DC" unicode="&#x4dc;" horiz-adv-x="1040" 
d="M-39 0l165 251q44 66 96.5 102.5t123.5 46.5l-52 -36l-177 341h135l158 -317l-19 17h92l48 300h123l-48 -300h93l-31 -17l259 317h146l-285 -341l-46 36q61 -10 101.5 -46.5t63.5 -102.5l86 -251h-132l-66 203q-17 52 -49 74.5t-85 22.5h-71l-48 -300h-123l47 300h-71
q-53 0 -90 -22.5t-70 -74.5l-130 -203h-144zM642 790l18 115h115l-19 -115h-114zM453 790l18 115h115l-18 -115h-115z" />
    <glyph glyph-name="uni04DD" unicode="&#x4dd;" horiz-adv-x="844" 
d="M-48 0l137 189q25 33 48 54.5t47.5 33.5t52.5 15l-28 -39l-150 252h130l117 -198h65l32 198h124l-32 -198h60l180 198h139l-227 -252l-22 39q26 -3 45.5 -15t35 -33.5t29.5 -54.5l76 -189h-128l-62 152q-9 23 -20.5 36t-27.5 18t-39 5h-54l-33 -211h-124l33 211h-55
q-23 0 -39 -5t-30 -18t-32 -36l-109 -152h-139zM517 597l17 115h115l-18 -115h-114zM328 597l17 115h115l-17 -115h-115z" />
    <glyph glyph-name="uni04DE" unicode="&#x4de;" horiz-adv-x="644" 
d="M284 -10q-89 0 -156 22.5t-110 62.5l43 94q41 -35 95.5 -53.5t127.5 -18.5q83 0 128.5 27.5t53.5 79.5q8 53 -21.5 78t-96.5 25h-182l16 101h166q68 0 104 24.5t43 70.5q8 50 -25.5 77.5t-112.5 27.5q-61 0 -119 -17.5t-108 -52.5l-39 95q56 39 130 60.5t155 21.5
q93 0 150.5 -25.5t81 -70.5t14.5 -104q-9 -58 -51 -101.5t-117 -59.5l2 15q70 -11 107.5 -58t24.5 -124q-9 -59 -46 -103.5t-101.5 -69t-156.5 -24.5zM439 790l18 115h115l-19 -115h-114zM250 790l18 115h115l-18 -115h-115z" />
    <glyph glyph-name="uni04DF" unicode="&#x4df;" horiz-adv-x="530" 
d="M223 -10q-66 0 -123 16t-92 46l40 82q32 -27 80.5 -41t100.5 -14q63 0 95 17.5t37 51.5q6 32 -14.5 48.5t-65.5 16.5h-131l13 86h120q40 0 65 16t29 45q5 31 -18.5 49t-84.5 18q-52 0 -97.5 -12t-86.5 -35l-30 78q47 28 108 42.5t131 14.5q104 0 154 -38.5t39 -107.5
q-7 -45 -43.5 -77.5t-90.5 -40.5l2 14q62 -4 92 -39t21 -90q-10 -65 -73 -105.5t-177 -40.5zM354 602l17 115h115l-18 -115h-114zM165 602l17 115h115l-17 -115h-115z" />
    <glyph glyph-name="uni04E0" unicode="&#x4e0;" horiz-adv-x="645" 
d="M284 -10q-89 0 -156.5 22.5t-111.5 62.5l45 95q39 -36 93.5 -54.5t124.5 -18.5q89 0 134 28t53 80q8 53 -21 77.5t-96 24.5h-143l13 80l280 245l-5 -32h-392l17 105h520l-14 -89l-281 -245l-22 33h64q111 0 165.5 -54t37.5 -158q-10 -61 -47.5 -106.5t-102 -70.5
t-155.5 -25z" />
    <glyph glyph-name="uni04E1" unicode="&#x4e1;" horiz-adv-x="528" 
d="M180 -190q-71 0 -127 16t-92 46l38 87q32 -26 75.5 -39.5t99.5 -13.5q72 0 114.5 30t50.5 85q10 62 -19.5 91.5t-100.5 29.5h-110l10 59l261 237l-1 -27h-322l15 94h435l-13 -82l-248 -224l-36 27h57q72 0 119 -25.5t66.5 -71t10.5 -104.5q-11 -71 -48.5 -119t-97 -72
t-137.5 -24z" />
    <glyph glyph-name="uni04E2" unicode="&#x4e2;" horiz-adv-x="755" 
d="M38 0l112 705h119l-84 -532l-25 -1l493 533h97l-112 -705h-120l84 532l24 1l-493 -533h-95zM294 806l11 74h346l-12 -74h-345z" />
    <glyph glyph-name="uni04E3" unicode="&#x4e3;" horiz-adv-x="615" 
d="M31 0l80 505h113l-60 -382l-33 1l350 381h103l-80 -505h-113l61 383l33 -1l-351 -382h-103zM209 616l11 74h316l-12 -74h-315z" />
    <glyph glyph-name="uni04E4" unicode="&#x4e4;" horiz-adv-x="755" 
d="M38 0l112 705h119l-84 -532l-25 -1l493 533h97l-112 -705h-120l84 532l24 1l-493 -533h-95zM501 790l18 115h115l-19 -115h-114zM312 790l18 115h115l-18 -115h-115z" />
    <glyph glyph-name="uni04E5" unicode="&#x4e5;" horiz-adv-x="615" 
d="M31 0l80 505h113l-60 -382l-33 1l350 381h103l-80 -505h-113l61 383l33 -1l-351 -382h-103zM401 597l17 115h115l-18 -115h-114zM212 597l17 115h115l-17 -115h-115z" />
    <glyph glyph-name="uni04E6" unicode="&#x4e6;" horiz-adv-x="787" 
d="M73 368q18 111 69 188.5t130.5 118t180.5 40.5q112 0 183 -48.5t99 -133.5t10 -195q-17 -111 -68.5 -188.5t-130.5 -118.5t-181 -41q-111 0 -182 48.5t-99 134t-11 195.5zM207 358q-13 -81 2.5 -138.5t57.5 -88.5t108 -31q99 0 159 66.5t78 181.5q13 81 -3 138.5t-58 88
t-109 30.5q-99 0 -157.5 -65.5t-77.5 -181.5zM524 790l18 115h115l-19 -115h-114zM335 790l18 115h115l-18 -115h-115z" />
    <glyph glyph-name="uni04E7" unicode="&#x4e7;" horiz-adv-x="606" 
d="M273 -10q-82 0 -136.5 33t-77 95.5t-9.5 149.5q13 81 52.5 136t99 83t132.5 28q83 0 137 -33t76.5 -95t8.5 -149q-13 -81 -52.5 -136t-98.5 -83.5t-132 -28.5zM280 86q57 0 98 40.5t54 121.5q14 88 -16 129.5t-90 41.5q-58 0 -98 -40.5t-53 -120.5q-14 -88 15 -130
t90 -42zM396 597l17 115h115l-18 -115h-114zM207 597l17 115h115l-17 -115h-115z" />
    <glyph glyph-name="uni04E8" unicode="&#x4e8;" horiz-adv-x="787" 
d="M134 311l15 95h551l-15 -95h-551zM73 368q18 111 69 188.5t130.5 118t180.5 40.5q112 0 183 -48.5t99 -133.5t10 -195q-17 -111 -68.5 -188.5t-130.5 -118.5t-181 -41q-111 0 -182 48.5t-99 134t-11 195.5zM207 358q-13 -81 2.5 -138.5t57.5 -88.5t108 -31q99 0 159 66.5
t78 181.5q13 81 -3 138.5t-58 88t-109 30.5q-99 0 -157.5 -65.5t-77.5 -181.5z" />
    <glyph glyph-name="uni04E9" unicode="&#x4e9;" horiz-adv-x="606" 
d="M273 -10q-82 0 -136.5 33t-77 95.5t-9.5 149.5q13 81 52.5 136t99 83t132.5 28q83 0 137 -33t76.5 -95t8.5 -149q-13 -81 -52.5 -136t-98.5 -83.5t-132 -28.5zM280 86q64 0 106.5 41t55.5 122q14 84 -18 127t-98 43q-64 0 -106.5 -40.5t-54.5 -121.5q-13 -82 16 -126.5
t99 -44.5zM120 213l12 81h356l-12 -81h-356z" />
    <glyph glyph-name="uni04EA" unicode="&#x4ea;" horiz-adv-x="787" 
d="M134 311l15 95h551l-15 -95h-551zM73 368q18 111 69 188.5t130.5 118t180.5 40.5q112 0 183 -48.5t99 -133.5t10 -195q-17 -111 -68.5 -188.5t-130.5 -118.5t-181 -41q-111 0 -182 48.5t-99 134t-11 195.5zM207 358q-13 -81 2.5 -138.5t57.5 -88.5t108 -31q99 0 159 66.5
t78 181.5q13 81 -3 138.5t-58 88t-109 30.5q-99 0 -157.5 -65.5t-77.5 -181.5zM520 790l18 115h115l-19 -115h-114zM331 790l18 115h115l-18 -115h-115z" />
    <glyph glyph-name="uni04EB" unicode="&#x4eb;" horiz-adv-x="606" 
d="M273 -10q-82 0 -136.5 33t-77 95.5t-9.5 149.5q13 81 52.5 136t99 83t132.5 28q83 0 137 -33t76.5 -95t8.5 -149q-13 -81 -52.5 -136t-98.5 -83.5t-132 -28.5zM280 86q64 0 106.5 41t55.5 122q14 84 -18 127t-98 43q-64 0 -106.5 -40.5t-54.5 -121.5q-13 -82 16 -126.5
t99 -44.5zM120 213l12 81h356l-12 -81h-356zM396 597l17 115h115l-18 -115h-114zM207 597l17 115h115l-17 -115h-115z" />
    <glyph glyph-name="uni04EC" unicode="&#x4ec;" horiz-adv-x="697" 
d="M248 -10q-70 0 -126 19.5t-95 54.5l46 102q43 -34 84 -48.5t102 -14.5q105 0 171 60t88 167l34 -22h-371l16 101h369l-43 -43q12 110 -35.5 173.5t-160.5 63.5q-55 0 -105.5 -17.5t-97.5 -55.5l-39 102q54 42 122 62.5t135 20.5q91 0 156 -28.5t104 -79.5t52.5 -120
t0.5 -150q-17 -110 -71 -188t-139 -119t-197 -40zM439 790l18 115h115l-19 -115h-114zM250 790l18 115h115l-18 -115h-115z" />
    <glyph glyph-name="uni04ED" unicode="&#x4ed;" horiz-adv-x="539" 
d="M190 -10q-55 0 -100 14.5t-72 40.5l38 80q26 -23 60 -34t71 -11q74 0 120.5 39.5t62.5 110.5l12 -16h-254l14 85h255l-24 -32q8 78 -28 118t-109 40q-38 0 -75.5 -11.5t-71.5 -37.5l-28 79q32 28 84.5 44t110.5 16q83 0 140 -34.5t82 -96.5t11 -146q-13 -82 -54 -137
t-103.5 -83t-141.5 -28zM338 597l17 115h115l-18 -115h-114zM149 597l17 115h115l-17 -115h-115z" />
    <glyph glyph-name="uni04EE" unicode="&#x4ee;" horiz-adv-x="679" 
d="M141 0l162 235v-40l-244 510h132l187 -398h-25l273 398h138l-484 -705h-139zM257 806l11 74h346l-12 -74h-345z" />
    <glyph glyph-name="uni04EF" unicode="&#x4ef;" horiz-adv-x="554" 
d="M-11 -227l-20 99q49 10 83 23t58.5 34t44.5 54l34 59l-6 -49l-139 512h129l95 -394h-29l222 394h130l-314 -533q-32 -54 -64.5 -89.5t-67 -57t-73 -33.5t-83.5 -19zM163 616l11 74h316l-12 -74h-315z" />
    <glyph glyph-name="uni04F0" unicode="&#x4f0;" horiz-adv-x="679" 
d="M141 0l162 235v-40l-244 510h132l187 -398h-25l273 398h138l-484 -705h-139zM464 790l18 115h115l-19 -115h-114zM275 790l18 115h115l-18 -115h-115z" />
    <glyph glyph-name="uni04F1" unicode="&#x4f1;" horiz-adv-x="554" 
d="M-11 -227l-20 99q49 10 83 23t58.5 34t44.5 54l34 59l-6 -49l-139 512h129l95 -394h-29l222 394h130l-314 -533q-32 -54 -64.5 -89.5t-67 -57t-73 -33.5t-83.5 -19zM355 597l17 115h115l-18 -115h-114zM166 597l17 115h115l-17 -115h-115z" />
    <glyph glyph-name="uni04F2" unicode="&#x4f2;" horiz-adv-x="679" 
d="M141 0l162 235v-40l-244 510h132l187 -398h-25l273 398h138l-484 -705h-139zM315 765l101 174h112l-142 -174h-71zM462 765l110 174h112l-151 -174h-71z" />
    <glyph glyph-name="uni04F3" unicode="&#x4f3;" horiz-adv-x="554" 
d="M-11 -227l-20 99q49 10 83 23t58.5 34t44.5 54l34 59l-6 -49l-139 512h129l95 -394h-29l222 394h130l-314 -533q-32 -54 -64.5 -89.5t-67 -57t-73 -33.5t-83.5 -19zM349 554l68 203h105l-107 -203h-66zM200 554l68 203h105l-106 -203h-67z" />
    <glyph glyph-name="uni04F4" unicode="&#x4f4;" horiz-adv-x="712" 
d="M467 0l43 276q-31 -13 -75 -21t-88 -8q-91 0 -152 32.5t-86.5 98t-10.5 163.5l27 164h128l-26 -158q-16 -103 22 -147t132 -44q38 0 74.5 7t72.5 23l51 319h128l-112 -705h-128zM460 790l18 115h115l-19 -115h-114zM271 790l18 115h115l-18 -115h-115z" />
    <glyph glyph-name="uni04F5" unicode="&#x4f5;" horiz-adv-x="584" 
d="M352 0l29 184q-29 -13 -61 -20t-64 -7q-67 0 -112.5 23.5t-65.5 70.5t-9 117l22 137h124l-20 -126q-10 -64 13.5 -92.5t85.5 -28.5q29 0 53 6t47 19l35 222h124l-80 -505h-121zM376 597l17 115h115l-18 -115h-114zM187 597l17 115h115l-17 -115h-115z" />
    <glyph glyph-name="uni04F6" unicode="&#x4f6;" horiz-adv-x="572" 
d="M133 -165l26 165h-112l16 102h224l-42 -267h-112zM38 0l112 705h478l-17 -105h-351l-94 -600h-128z" />
    <glyph glyph-name="uni04F7" unicode="&#x4f7;" horiz-adv-x="468" 
d="M111 -130l21 130h-93l15 94h199l-36 -224h-106zM31 0l80 505h379l-16 -98h-254l-64 -407h-125z" />
    <glyph glyph-name="uni04F8" unicode="&#x4f8;" horiz-adv-x="920" 
d="M38 0l112 705h128l-47 -295h158q121 0 180.5 -55t42.5 -165q-15 -96 -86.5 -143t-184.5 -47h-303zM181 99h155q71 0 108.5 25.5t45.5 78.5q9 56 -19.5 82t-99.5 26h-156zM674 0l112 705h128l-112 -705h-128zM582 790l18 115h115l-19 -115h-114zM393 790l18 115h115
l-18 -115h-115z" />
    <glyph glyph-name="uni04F9" unicode="&#x4f9;" horiz-adv-x="789" 
d="M31 0l80 505h124l-27 -169h126q106 0 151 -46t32 -129q-13 -82 -72.5 -121.5t-155.5 -39.5h-258zM168 82h117q51 0 80.5 20t36.5 62q8 47 -15.5 68.5t-75.5 21.5h-116zM554 0l80 505h124l-80 -505h-124zM488 597l17 115h115l-18 -115h-114zM299 597l17 115h115l-17 -115
h-115z" />
    </font>
</defs>
</svg>
