<?xml version="1.0" standalone="no"?>
<!DOCTYPE svg PUBLIC "-//W3C//DTD SVG 1.1//EN" "http://www.w3.org/Graphics/SVG/1.1/DTD/svg11.dtd" >
<svg xmlns="http://www.w3.org/2000/svg" xmlns:xlink="http://www.w3.org/1999/xlink" version="1.1">
<metadata>
Created by FontForge 20201107 at Thu Sep 30 21:20:51 2021
 By 
Copyright 2016 The Mulish Project Authors (https://github.com/googlefonts/mulish)
</metadata>
<defs>
<font id="Mulish-ExtraLightItalic" horiz-adv-x="0" >
  <font-face 
    font-family="Mulish ExtraLight"
    font-weight="200"
    font-style="italic"
    font-stretch="normal"
    units-per-em="1000"
    panose-1="0 0 0 0 0 0 0 0 0 0"
    ascent="800"
    descent="-200"
    x-height="500"
    cap-height="705"
    bbox="-279 -270 1326 1036"
    underline-thickness="44"
    underline-position="-107"
    slope="-9"
    unicode-range="U+000D-FB02"
  />
<missing-glyph horiz-adv-x="500" 
 />
    <glyph glyph-name="fi" unicode="fi" horiz-adv-x="527" 
d="M68 0l73 464h-100l6 36h110l-12 -11l16 99q12 73 55.5 112.5t112.5 39.5q17 0 35.5 -3.5t28.5 -8.5l-6 -40q-10 5 -26.5 9t-35.5 4q-53 0 -83.5 -33t-41.5 -97l-13 -85l-6 14h297l-79 -500h-42l73 464h-247l-73 -464h-42zM445 631l10 63h65l-10 -63h-65z" />
    <glyph glyph-name="fl" unicode="fl" horiz-adv-x="529" 
d="M68 0l73 464h-100l6 36h110l-12 -11l16 99q12 73 55.5 112.5t112.5 39.5q17 0 35.5 -3.5t28.5 -8.5l-6 -40q-10 5 -26.5 9t-35.5 4q-35 0 -60.5 -15t-41.5 -43.5t-23 -71.5l-13 -85l-6 14h155l-6 -36h-147l-73 -464h-42zM359 0l117 736h42l-117 -736h-42z" />
    <glyph glyph-name=".notdef" horiz-adv-x="500" 
 />
    <glyph glyph-name="uni0000" 
 />
    <glyph glyph-name="uni0000" 
 />
    <glyph glyph-name="nonmarkingreturn" horiz-adv-x="333" 
 />
    <glyph glyph-name="CR" unicode="&#xd;" horiz-adv-x="250" 
 />
    <glyph glyph-name="space" unicode=" " horiz-adv-x="250" 
 />
    <glyph glyph-name="exclam" unicode="!" horiz-adv-x="211" 
d="M78 162l73 543h53l-99 -543h-27zM31 0l11 70h69l-11 -70h-69z" />
    <glyph glyph-name="quotedbl" unicode="&#x22;" horiz-adv-x="342" 
d="M118 440l29 265h52l-53 -265h-28zM258 440l29 265h52l-53 -265h-28z" />
    <glyph glyph-name="numbersign" unicode="#" horiz-adv-x="600" 
d="M53 0l69 191h-109l7 40h116l91 251h-147l6 40h155l66 183h42l-65 -183h183l65 183h44l-66 -183h109l-6 -40h-117l-91 -251h148l-7 -40h-155l-69 -191h-44l69 191h-182l-68 -191h-44zM179 231h183l91 251h-183z" />
    <glyph glyph-name="dollar" unicode="$" horiz-adv-x="600" 
d="M232 -115l19 124l11 -13q-42 2 -85.5 10.5t-81.5 25t-66 41.5l25 33q42 -33 92.5 -51t132.5 -18q88 0 141 39t63 100q9 56 -21.5 90t-108.5 47l-92 16q-57 10 -92.5 35.5t-48.5 65.5t-5 92q9 57 43.5 98.5t88.5 64.5t120 24l-7 -13l20 124h40l-20 -124l-5 12
q51 -1 100.5 -21.5t84.5 -58.5l-26 -34q-34 37 -79.5 55.5t-107.5 18.5q-85 0 -143 -40.5t-69 -111.5q-10 -60 17.5 -97t97.5 -49l92 -16q93 -16 134 -62t29 -121q-12 -76 -78 -123.5t-171 -51.5l16 14l-20 -125h-40z" />
    <glyph glyph-name="percent" unicode="%" horiz-adv-x="926" 
d="M237 0h-46l530 705h46zM242 281q-78 0 -118.5 58.5t-23.5 167.5q15 95 65.5 150t126.5 55q78 0 118 -58.5t23 -166.5q-15 -96 -64.5 -151t-126.5 -55zM242 318q59 0 98 45.5t53 133.5q14 85 -14.5 131.5t-87.5 46.5q-58 0 -96.5 -45.5t-52.5 -132.5q-13 -85 14.5 -132
t85.5 -47zM666 -8q-78 0 -118.5 58.5t-22.5 167.5q15 95 65 150t126 55q78 0 118.5 -58.5t23.5 -166.5q-16 -96 -65.5 -151t-126.5 -55zM667 29q59 0 97.5 45.5t52.5 133.5q14 85 -14.5 131.5t-87.5 46.5q-58 0 -96.5 -45.5t-52.5 -132.5q-13 -85 15 -132t86 -47z" />
    <glyph glyph-name="ampersand" unicode="&#x26;" horiz-adv-x="655" 
d="M605 -8q-43 26 -75 58.5t-51 59.5h17q-52 -56 -117 -87t-136 -31q-69 0 -114.5 23.5t-65 64.5t-11.5 93q10 62 55.5 106.5t120.5 90.5l50 31l-7 -8q-41 56 -57 97t-8 92q6 37 27.5 66.5t57.5 47t84 17.5q41 0 73.5 -16.5t49.5 -46.5t10 -73q-5 -33 -23.5 -63.5t-57 -62.5
t-106.5 -72l-3 17l172 -236h-6q32 42 58 106.5t39 137.5h42q-16 -84 -46 -154.5t-67 -123.5l-7 18q20 -28 53.5 -61.5t73.5 -57.5zM245 31q69 0 125.5 28.5t101.5 82.5l-2 -18l-185 249l16 -4l-51 -32q-71 -44 -109.5 -79t-46.5 -86q-10 -65 28.5 -103t122.5 -38zM375 674
q-52 0 -86 -27.5t-41 -68.5q-4 -29 -1 -52t17 -48.5t42 -64.5l-10 -4q85 50 124 87.5t46 79.5q8 44 -17.5 71t-73.5 27z" />
    <glyph glyph-name="quotesingle" unicode="'" horiz-adv-x="202" 
d="M118 440l29 265h52l-53 -265h-28z" />
    <glyph glyph-name="parenleft" unicode="(" horiz-adv-x="284" 
d="M134 -180q-19 71 -29.5 141.5t-10.5 140.5q0 114 24 222.5t66.5 205.5t95.5 175h45q-80 -129 -133.5 -281.5t-53.5 -323.5q0 -66 9 -137.5t25 -142.5h-38z" />
    <glyph glyph-name="parenright" unicode=")" horiz-adv-x="284" 
d="M7 -180h-45q80 129 133.5 281.5t53.5 323.5q0 66 -8.5 137.5t-25.5 142.5h38q19 -71 29.5 -141.5t10.5 -140.5q0 -113 -24 -222t-66 -206t-96 -175z" />
    <glyph glyph-name="asterisk" unicode="*" horiz-adv-x="452" 
d="M168 377l-32 23l113 135l-159 51l14 37l156 -56l10 169h41l-17 -170l164 57l10 -37l-166 -52l92 -134l-32 -23l-84 141z" />
    <glyph glyph-name="plus" unicode="+" horiz-adv-x="600" 
d="M247 40l36 227h-229l6 39h229l35 222h40l-35 -222h227l-6 -39h-227l-36 -227h-40z" />
    <glyph glyph-name="comma" unicode="," horiz-adv-x="211" 
d="M44 -98l-23 24q25 24 32 42.5t10 37.5l18 -6h-51l11 70h69l-10 -61q-3 -21 -9 -39.5t-16.5 -34.5t-30.5 -33z" />
    <glyph glyph-name="hyphen" unicode="-" horiz-adv-x="420" 
d="M76 254l6 38h268l-6 -38h-268z" />
    <glyph glyph-name="period" unicode="." horiz-adv-x="211" 
d="M31 0l11 70h69l-11 -70h-69z" />
    <glyph glyph-name="slash" unicode="/" horiz-adv-x="259" 
d="M-27 -52h-42l385 796h42z" />
    <glyph glyph-name="zero" unicode="0" horiz-adv-x="600" 
d="M266 -8q-121 0 -169 96t-20 274q29 180 103 265.5t187 85.5q121 0 168.5 -95.5t18.5 -274.5q-28 -179 -102 -265t-186 -86zM267 33q96 0 157 75t87 245q17 109 6.5 179.5t-48.5 105t-104 34.5q-97 0 -157.5 -74.5t-86.5 -244.5q-17 -108 -6.5 -179t48.5 -106t104 -35z
" />
    <glyph glyph-name="one" unicode="1" horiz-adv-x="600" 
d="M102 0l6 39h169l100 628h27l-200 -118l7 47l183 109h31l-106 -666h159l-6 -39h-370z" />
    <glyph glyph-name="two" unicode="2" horiz-adv-x="600" 
d="M54 0l5 32l320 293q57 53 89 98t42 104q11 71 -26 108t-117 37q-64 0 -118 -20t-106 -63l-20 36q45 40 111 64t130 24q66 0 111.5 -22t66.5 -64.5t11 -103.5q-10 -64 -47.5 -117.5t-103.5 -113.5l-296 -267l-2 14h403l-6 -39h-447z" />
    <glyph glyph-name="three" unicode="3" horiz-adv-x="600" 
d="M269 -8q-69 0 -129.5 22.5t-99.5 65.5l24 36q45 -44 96.5 -63.5t112.5 -19.5q85 0 137.5 36t64.5 115q24 155 -168 155h-99l6 39h97q80 0 134.5 41t66.5 115q11 67 -28 102.5t-119 35.5q-63 0 -117 -20t-106 -65l-19 36q47 44 111 67t133 23q98 0 149.5 -48t37.5 -138
q-9 -59 -54 -107.5t-113 -65.5l1 10q75 -13 108.5 -63t21.5 -127q-13 -88 -80 -135t-169 -47z" />
    <glyph glyph-name="four" unicode="4" horiz-adv-x="600" 
d="M373 0l26 166h-355l6 33l442 506h35l-80 -500h115l-6 -39h-115l-26 -166h-42zM405 205l72 450h25l-404 -462l-4 12h311z" />
    <glyph glyph-name="five" unicode="5" horiz-adv-x="600" 
d="M285 -8q-45 0 -86.5 10t-76.5 30t-61 48l21 36q44 -43 95 -63t111 -20q84 0 141 44.5t70 131.5q13 81 -26 133t-123 52q-59 0 -108 -24t-89 -76h-38l65 411h400l-7 -39h-357l-52 -330h-16q36 49 90.5 74t111.5 25q68 0 115 -28t68 -80t9 -124q-10 -68 -45.5 -115
t-89.5 -71.5t-122 -24.5z" />
    <glyph glyph-name="six" unicode="6" horiz-adv-x="600" 
d="M287 -8q-77 0 -131 37t-75 116t-1 206q20 124 65 204t112.5 119t152.5 39q58 0 108.5 -21t78.5 -61l-26 -31q-34 39 -74.5 55.5t-89.5 16.5q-112 0 -184.5 -79.5t-101.5 -252.5l-18 -110h-8q23 94 86 149t159 55q69 0 117 -29t69.5 -81.5t9.5 -124.5q-9 -60 -40.5 -106.5
t-83.5 -73.5t-125 -27zM285 33q95 0 145.5 47t62.5 123q14 88 -29.5 139t-124.5 51q-85 0 -141.5 -50t-69.5 -129q-13 -80 30.5 -130.5t126.5 -50.5z" />
    <glyph glyph-name="seven" unicode="7" horiz-adv-x="600" 
d="M92 0l463 694l-1 -28h-413l7 39h448l-5 -31l-448 -674h-51z" />
    <glyph glyph-name="eight" unicode="8" horiz-adv-x="600" 
d="M266 -8q-122 0 -178 55.5t-42 146.5q12 75 63 118t129 53l-1 -9q-67 15 -98.5 66t-21.5 115q13 80 76 128t176 48q72 0 120.5 -24.5t69.5 -68.5t12 -103q-10 -64 -54.5 -107.5t-115.5 -57.5l1 9q49 -9 81 -33t45.5 -62t4.5 -89q-14 -89 -82.5 -137t-184.5 -48zM269 32
q99 0 154 38t67 115q13 77 -31 114.5t-146 37.5t-156.5 -36.5t-66.5 -109.5q-12 -74 31.5 -116.5t147.5 -42.5zM320 377q89 0 142 35t65 108q11 74 -30 113.5t-131 39.5q-93 0 -144 -37.5t-61 -101.5q-10 -68 30 -112.5t129 -44.5z" />
    <glyph glyph-name="nine" unicode="9" horiz-adv-x="600" 
d="M223 -8q-58 0 -108 21t-79 61l26 31q34 -39 74.5 -55.5t89.5 -16.5q112 0 185 80t101 252l18 110h8q-22 -94 -85.5 -149t-159.5 -55q-68 0 -116 29t-69.5 82t-10.5 124q10 60 41.5 107t84.5 73.5t125 26.5q78 0 131 -37t73.5 -116t0.5 -206q-19 -123 -64.5 -203.5
t-113 -119.5t-152.5 -39zM294 312q86 0 142 50t69 129q13 80 -29.5 130.5t-125.5 50.5q-94 0 -146 -46.5t-64 -123.5q-13 -88 30 -139t124 -51z" />
    <glyph glyph-name="colon" unicode=":" horiz-adv-x="211" 
d="M99 430l11 70h69l-11 -70h-69zM30 0l11 70h69l-11 -70h-69z" />
    <glyph glyph-name="semicolon" unicode=";" horiz-adv-x="211" 
d="M44 -98l-23 20q26 24 34.5 44.5t11.5 39.5l9 -6h-42l11 70h69l-9 -61q-4 -31 -18 -57.5t-43 -49.5zM99 430l11 70h69l-11 -70h-69z" />
    <glyph glyph-name="less" unicode="&#x3c;" horiz-adv-x="600" 
d="M512 37l-458 232l6 36l531 232l-7 -46l-501 -218l4 22l432 -217z" />
    <glyph glyph-name="equal" unicode="=" horiz-adv-x="600" 
d="M70 367l6 39h495l-6 -39h-495zM39 168l6 39h495l-6 -39h-495z" />
    <glyph glyph-name="greater" unicode="&#x3e;" horiz-adv-x="600" 
d="M19 37l7 46l501 217l-4 -22l-432 218l7 41l458 -232l-6 -36z" />
    <glyph glyph-name="question" unicode="?" horiz-adv-x="433" 
d="M159 162l3 20q6 36 19 68t40 67.5t73 79.5q24 23 49 52t41.5 62.5t16.5 70.5q0 43 -32 66.5t-88 23.5q-40 0 -75.5 -9t-68.5 -26l7 46q33 16 70 23t73 7q49 0 84.5 -15.5t54.5 -43.5t19 -67q0 -45 -19.5 -84t-48.5 -71.5t-58 -61.5q-59 -58 -86.5 -99t-38.5 -87l-5 -22
h-30zM113 0l11 70h69l-11 -70h-69z" />
    <glyph glyph-name="at" unicode="@" horiz-adv-x="973" 
d="M508 -162q-95 0 -173.5 30.5t-136 87.5t-88.5 138t-31 183q0 96 33 176t92.5 138.5t139.5 90t174 31.5q85 0 157 -26.5t125.5 -75.5t83.5 -116t30 -149q0 -87 -27 -151.5t-72.5 -100t-102.5 -35.5q-58 0 -86 35.5t-18 93.5l8 -19q-26 -52 -71.5 -81t-93.5 -29
q-75 0 -116.5 47t-41.5 130q0 74 28.5 132t78 91t111.5 33q56 0 91.5 -27.5t44.5 -75.5h-7l16 95h42l-47 -275q-2 -11 -3 -21.5t-1 -19.5q0 -36 17 -54t51 -18q43 0 79 31t58.5 87.5t22.5 131.5q0 72 -27 132.5t-76 104t-114 67.5t-141 24q-85 0 -157.5 -28.5t-126 -81.5
t-83 -125.5t-29.5 -161.5q0 -125 49 -214.5t136 -137.5t202 -48q86 0 154.5 28.5t110.5 79.5l27 -32q-49 -55 -124.5 -85t-167.5 -30zM452 98q50 0 89.5 30t62.5 82t23 117q0 64 -28.5 95t-87.5 31q-49 0 -89 -28t-63 -77t-23 -112q0 -67 30.5 -102.5t85.5 -35.5z" />
    <glyph glyph-name="A" unicode="A" horiz-adv-x="721" 
d="M-6 0l415 705h41l197 -705h-43l-57 204l22 -9h-437l29 9l-119 -204h-48zM422 649l-246 -421l-21 6h403l-17 -6l-117 421h-2z" />
    <glyph glyph-name="B" unicode="B" horiz-adv-x="672" 
d="M57 0l112 705h267q104 0 154.5 -48.5t36.5 -140.5q-12 -72 -59 -112.5t-121 -54.5l2 14q77 -7 114.5 -56t25.5 -126q-15 -94 -81.5 -137.5t-179.5 -43.5h-271zM105 39h228q86 0 143.5 33t68.5 106q10 60 -8 94.5t-56 49.5t-91 15h-238zM159 376h213q93 0 146.5 36
t63.5 99q12 78 -26 116.5t-119 38.5h-233z" />
    <glyph glyph-name="C" unicode="C" horiz-adv-x="684" 
d="M363 -8q-111 0 -178.5 46t-92 129.5t-7.5 195.5q18 112 67 190t124.5 119t173.5 41q74 0 129 -22t95 -66l-23 -36q-44 46 -91.5 64.5t-112.5 18.5q-131 0 -212.5 -83.5t-105.5 -235.5q-15 -96 4.5 -168t76.5 -112t153 -40q61 0 118 21t104 68l22 -34
q-45 -47 -110.5 -71.5t-133.5 -24.5z" />
    <glyph glyph-name="D" unicode="D" horiz-adv-x="733" 
d="M57 0l112 705h209q119 0 191.5 -42.5t100 -123.5t9.5 -196q-28 -173 -132.5 -258t-275.5 -85h-214zM105 39h168q158 0 248 77t115 237q25 157 -40.5 235t-223.5 78h-168z" />
    <glyph glyph-name="E" unicode="E" horiz-adv-x="582" 
d="M57 0l112 705h428l-7 -39h-386l-45 -289h364l-6 -39h-364l-48 -299h386l-6 -39h-428z" />
    <glyph glyph-name="F" unicode="F" horiz-adv-x="554" 
d="M57 0l112 705h418l-7 -39h-376l-45 -289h355l-6 -39h-355l-54 -338h-42z" />
    <glyph glyph-name="G" unicode="G" horiz-adv-x="723" 
d="M372 -8q-116 0 -185.5 45t-94 128.5t-6.5 197.5q18 112 67.5 190t127.5 119t179 41q78 0 130 -22t90 -62l-24 -37q-40 42 -84.5 61t-114.5 19q-133 0 -218.5 -84t-109.5 -236q-24 -150 34 -234.5t208 -84.5q57 0 108 11t99 33l-18 -39l44 280h-194l7 39h234l-50 -313
q-27 -16 -66 -27.5t-81.5 -18t-81.5 -6.5z" />
    <glyph glyph-name="H" unicode="H" horiz-adv-x="759" 
d="M57 0l112 705h42l-52 -328h481l52 328h42l-112 -705h-42l54 338h-481l-54 -338h-42z" />
    <glyph glyph-name="I" unicode="I" horiz-adv-x="236" 
d="M57 0l112 705h42l-112 -705h-42z" />
    <glyph glyph-name="J" unicode="J" horiz-adv-x="300" 
d="M1 -186q-16 0 -33.5 2t-35.5 9l6 39q18 -7 33.5 -9.5t29.5 -2.5q46 0 76 30t40 94l116 729h42l-116 -731q-8 -50 -28.5 -86t-53 -55t-76.5 -19z" />
    <glyph glyph-name="K" unicode="K" horiz-adv-x="605" 
d="M57 0l112 705h42l-52 -328h2l414 328h65l-462 -362v30l381 -373h-61l-343 338h-2l-54 -338h-42z" />
    <glyph glyph-name="L" unicode="L" horiz-adv-x="532" 
d="M57 0l112 705h42l-106 -666h378l-6 -39h-420z" />
    <glyph glyph-name="M" unicode="M" horiz-adv-x="848" 
d="M57 0l112 705h37l195 -688h-28l414 688h36l-112 -705h-39l105 664h27l-402 -664h-32l-191 665h22l-105 -665h-39z" />
    <glyph glyph-name="N" unicode="N" horiz-adv-x="739" 
d="M57 0l112 705h36l381 -663h-16l105 663h39l-112 -705h-35l-381 663h15l-105 -663h-39z" />
    <glyph glyph-name="O" unicode="O" horiz-adv-x="759" 
d="M86 363q18 112 66.5 190t123.5 119t171 41q100 0 163.5 -46.5t88 -130t6.5 -194.5q-17 -111 -66 -189.5t-124 -119.5t-172 -41q-99 0 -162.5 46t-87.5 129.5t-7 195.5zM129 353q-16 -99 4.5 -170.5t74.5 -110.5t138 -39q130 0 211 84t105 235q16 98 -5 170t-74.5 111
t-137.5 39q-130 0 -210.5 -83.5t-105.5 -235.5z" />
    <glyph glyph-name="P" unicode="P" horiz-adv-x="638" 
d="M57 0l112 705h258q110 0 161.5 -53.5t35.5 -150.5q-9 -61 -42 -102t-84.5 -61.5t-117.5 -20.5h-231l-50 -317h-42zM155 356h219q89 0 141.5 37t64.5 112q13 79 -27 120t-129 41h-220z" />
    <glyph glyph-name="Q" unicode="Q" horiz-adv-x="759" 
d="M501 -191q-24 20 -49 51t-46 67.5t-35 73.5l48 11q19 -52 51 -95t66 -75zM86 363q18 112 66.5 190t123.5 119t171 41q100 0 163.5 -46.5t88 -130t6.5 -194.5q-17 -111 -66 -189.5t-124 -119.5t-172 -41q-99 0 -162.5 46t-87.5 129.5t-7 195.5zM129 353
q-16 -99 4.5 -170.5t74.5 -110.5t138 -39q130 0 211 84t105 235q16 98 -5 170t-74.5 111t-137.5 39q-130 0 -210.5 -83.5t-105.5 -235.5z" />
    <glyph glyph-name="R" unicode="R" horiz-adv-x="684" 
d="M57 0l112 705h265q110 0 161.5 -53t36.5 -148q-9 -56 -42 -95.5t-83 -59.5t-110 -20l8 8h8q40 0 67.5 -19t40.5 -66l71 -252h-45l-65 236q-15 54 -49.5 70t-95.5 16h-187l-51 -322h-42zM156 361h234q85 0 136 39t62 109q12 77 -29 117t-131 40h-224z" />
    <glyph glyph-name="S" unicode="S" horiz-adv-x="604" 
d="M280 -8q-86 0 -149 21.5t-106 53.5l24 36q50 -34 101 -52t130 -18q96 0 152 39t66 102q10 59 -21 94t-114 46l-86 12q-101 14 -142 65.5t-28 130.5q9 55 44.5 98t93.5 68t134 25q74 0 131 -22.5t94 -56.5l-22 -36q-42 37 -91 55.5t-116 18.5q-93 0 -153.5 -42.5
t-71.5 -112.5q-10 -64 21 -101.5t114 -48.5l87 -12q101 -13 141.5 -59t27.5 -127q-8 -50 -42.5 -90.5t-90.5 -63.5t-128 -23z" />
    <glyph glyph-name="T" unicode="T" horiz-adv-x="590" 
d="M232 0l105 666h-262l7 39h566l-7 -39h-262l-105 -666h-42z" />
    <glyph glyph-name="U" unicode="U" horiz-adv-x="722" 
d="M328 -8q-90 0 -146.5 31.5t-78.5 93.5t-8 153l69 435h42l-68 -429q-19 -122 25 -182.5t168 -60.5q107 0 173.5 55.5t87.5 187.5l68 429h42l-69 -435q-15 -98 -55.5 -159.5t-103.5 -90t-146 -28.5z" />
    <glyph glyph-name="V" unicode="V" horiz-adv-x="677" 
d="M274 0l-190 705h42l184 -681h-20l400 681h47l-417 -705h-46z" />
    <glyph glyph-name="W" unicode="W" horiz-adv-x="1104" 
d="M245 0l-131 705h42l126 -686h-30l352 686h39l124 -686h-27l348 686h46l-358 -705h-44l-121 672h20l-344 -672h-42z" />
    <glyph glyph-name="X" unicode="X" horiz-adv-x="636" 
d="M-18 0l332 367l2 -10l-204 348h48l185 -318h-12l283 318h55l-313 -348l-3 10l215 -367h-48l-199 342h22l-308 -342h-55z" />
    <glyph glyph-name="Y" unicode="Y" horiz-adv-x="587" 
d="M232 0l52 326l5 -38l-216 417h46l192 -378h-15l312 378h50l-348 -417l16 38l-52 -326h-42z" />
    <glyph glyph-name="Z" unicode="Z" horiz-adv-x="585" 
d="M2 0l5 31l554 658l-4 -23h-450l7 39h494l-5 -31l-555 -658l3 23h461l-6 -39h-504z" />
    <glyph glyph-name="bracketleft" unicode="[" horiz-adv-x="284" 
d="M41 -180l140 885h170l-6 -37h-128l-128 -811h128l-6 -37h-170z" />
    <glyph glyph-name="backslash" unicode="\" horiz-adv-x="259" 
d="M192 -52l-135 796h40l135 -796h-40z" />
    <glyph glyph-name="bracketright" unicode="]" horiz-adv-x="284" 
d="M-64 -180l5 37h128l128 811h-127l6 37h169l-140 -885h-169z" />
    <glyph glyph-name="asciicircum" unicode="^" horiz-adv-x="600" 
d="M29 140l312 488h36l158 -488h-39l-150 459h22l-294 -459h-45z" />
    <glyph glyph-name="underscore" unicode="_" horiz-adv-x="505" 
d="M-41 -33l5 33h497l-5 -33h-497z" />
    <glyph glyph-name="grave" unicode="`" horiz-adv-x="500" 
d="M329 549l-140 200h53l123 -200h-36z" />
    <glyph glyph-name="a" unicode="a" horiz-adv-x="583" 
d="M240 -8q-69 0 -115.5 31t-65 91t-4.5 146q20 120 89 184t167 64q70 0 115.5 -37t55.5 -102h-12l31 131h41q-7 -28 -14 -55t-11 -53l-62 -392h-42l21 131h14q-28 -65 -81 -102t-127 -37zM244 31q80 0 137.5 56.5t74.5 162.5t-24 162.5t-125 56.5q-80 0 -136.5 -56.5
t-73.5 -162.5t22.5 -162.5t124.5 -56.5z" />
    <glyph glyph-name="b" unicode="b" horiz-adv-x="583" 
d="M272 -8q-70 0 -115 37t-56 102h10l-21 -131h-42l117 736h42l-58 -367h-14q28 65 81 102t127 37q70 0 116 -31t64.5 -91t4.5 -146q-19 -120 -88.5 -184t-167.5 -64zM276 31q80 0 136.5 56.5t73.5 162.5t-22.5 162.5t-124.5 56.5q-79 0 -137 -56.5t-75 -162.5
q-16 -106 24.5 -162.5t124.5 -56.5z" />
    <glyph glyph-name="c" unicode="c" horiz-adv-x="487" 
d="M246 -8q-69 0 -117 31t-68 91t-6 146q20 120 88.5 184t168.5 64q48 0 89 -16t67 -48l-23 -30q-29 29 -63.5 42t-67.5 13q-85 0 -142.5 -56t-74.5 -160q-17 -108 24.5 -165t125.5 -57q39 0 80 14.5t76 48.5l21 -33q-32 -33 -82.5 -51t-95.5 -18z" />
    <glyph glyph-name="d" unicode="d" horiz-adv-x="583" 
d="M240 -8q-69 0 -115.5 31t-65 91t-4.5 146q20 120 89 184t167 64q70 0 115.5 -37t55.5 -102h-10l58 367h42l-117 -736h-42l21 131h14q-28 -65 -81 -102t-127 -37zM244 31q80 0 137.5 56.5t74.5 162.5t-24 162.5t-125 56.5q-80 0 -136.5 -56.5t-73.5 -162.5t22.5 -162.5
t124.5 -56.5z" />
    <glyph glyph-name="e" unicode="e" horiz-adv-x="541" 
d="M263 -8q-78 0 -129 32.5t-71 93.5t-7 146q13 78 48 132.5t89 83t123 28.5q66 0 109 -28.5t61 -80t8 -120.5l-4 -27h-409l6 38h387l-17 -13q13 92 -23 142.5t-122 50.5q-62 0 -107 -27t-72 -73.5t-35 -106.5l-2 -15q-14 -105 29.5 -161t138.5 -56q47 0 93 15t83 51l22 -33
q-39 -34 -91.5 -53t-107.5 -19z" />
    <glyph glyph-name="f" unicode="f" horiz-adv-x="311" 
d="M68 0l73 464h-100l6 36h110l-12 -11l16 99q12 73 55.5 112.5t112.5 39.5q17 0 35.5 -3.5t28.5 -8.5l-6 -40q-10 5 -26.5 9t-35.5 4q-35 0 -60.5 -15t-41.5 -43.5t-23 -71.5l-13 -85l-6 14h155l-6 -36h-147l-73 -464h-42z" />
    <glyph glyph-name="g" unicode="g" horiz-adv-x="587" 
d="M223 -223q-59 0 -109.5 17.5t-87.5 52.5l22 34q29 -24 56 -38t57.5 -20.5t68.5 -6.5q78 0 125 42.5t60 121.5l27 171h12q-26 -66 -82 -103t-127 -37q-69 0 -115.5 33t-65.5 91.5t-7 134.5q18 114 87.5 176t169.5 62q72 0 118 -37t54 -104l-8 13l28 120h41q-7 -28 -14 -55
t-11 -53l-64 -405q-16 -104 -75.5 -157t-159.5 -53zM246 50q83 0 140 55.5t73 154.5t-24 154t-123 55t-140.5 -55t-73.5 -154t24.5 -154.5t123.5 -55.5z" />
    <glyph glyph-name="h" unicode="h" horiz-adv-x="570" 
d="M48 0l117 736h42l-57 -357h-14q30 63 84.5 96t125.5 33q93 0 128 -52t20 -146l-49 -310h-42l49 308q14 87 -14 124t-100 37q-82 0 -135.5 -49t-66.5 -130l-46 -290h-42z" />
    <glyph glyph-name="i" unicode="i" horiz-adv-x="218" 
d="M48 0l79 500h42l-79 -500h-42zM137 631l10 63h64l-10 -63h-64z" />
    <glyph glyph-name="j" unicode="j" horiz-adv-x="218" 
d="M-66 -218q-10 0 -28.5 2.5t-29.5 8.5l7 40q11 -4 27 -8t29 -4q47 0 73 31t36 97l87 551h42l-89 -560q-12 -78 -51.5 -118t-102.5 -40zM145 631l10 63h64l-10 -63h-64z" />
    <glyph glyph-name="k" unicode="k" horiz-adv-x="482" 
d="M48 0l117 736h42l-74 -467h2l291 231h62l-330 -259v33l284 -274h-57l-254 245h-2l-39 -245h-42z" />
    <glyph glyph-name="l" unicode="l" horiz-adv-x="218" 
d="M48 0l117 736h42l-117 -736h-42z" />
    <glyph glyph-name="m" unicode="m" horiz-adv-x="860" 
d="M48 0l62 392q4 26 6 53t3 55h41l-10 -120h-14q29 63 77.5 95.5t111.5 32.5q65 0 101.5 -33t36.5 -96h-12q25 57 77 93t119 36q80 0 117 -48t20 -152l-49 -308h-42l50 314q13 81 -11 118t-90 37q-73 0 -122 -49t-62 -132l-46 -288h-42l50 314q13 81 -10.5 118t-90.5 37
q-73 0 -121.5 -49t-61.5 -132l-46 -288h-42z" />
    <glyph glyph-name="n" unicode="n" horiz-adv-x="570" 
d="M48 0l62 392q4 26 6 53t3 55h41l-10 -120l-14 -1q30 63 84.5 96t125.5 33q93 0 128 -52t20 -146l-49 -310h-42l49 308q14 87 -14 124t-100 37q-82 0 -135.5 -49t-66.5 -130l-46 -290h-42z" />
    <glyph glyph-name="o" unicode="o" horiz-adv-x="553" 
d="M240 -8q-69 0 -115.5 31t-64.5 91t-5 146q13 80 48.5 135.5t88.5 84t119 28.5q70 0 116 -31t65 -91t5 -146q-13 -80 -49 -135.5t-89 -84t-119 -28.5zM244 31q80 0 137.5 56.5t74.5 162.5t-24 162.5t-125 56.5q-80 0 -136.5 -56.5t-73.5 -162.5t22.5 -162.5t124.5 -56.5z
" />
    <glyph glyph-name="p" unicode="p" horiz-adv-x="583" 
d="M14 -216l96 608q4 26 6 53t3 55h41l-11 -131h-14q28 65 81 102t127 37q70 0 116 -31t64.5 -91t4.5 -146q-19 -120 -88.5 -184t-167.5 -64q-70 0 -115 37t-56 102h10l-55 -347h-42zM276 31q80 0 136.5 56.5t73.5 162.5t-22.5 162.5t-124.5 56.5q-79 0 -137 -56.5
t-75 -162.5q-16 -106 24.5 -162.5t124.5 -56.5z" />
    <glyph glyph-name="q" unicode="q" horiz-adv-x="583" 
d="M379 -216l55 347h14q-28 -65 -81 -102t-127 -37q-69 0 -115.5 31t-65 91t-4.5 146q20 120 89 184t167 64q70 0 115.5 -37t55.5 -102h-12l31 131h41q-7 -28 -14 -55t-11 -53l-96 -608h-42zM244 31q80 0 137.5 56.5t74.5 162.5t-24 162.5t-125 56.5q-80 0 -136.5 -56.5
t-73.5 -162.5t22.5 -162.5t124.5 -56.5z" />
    <glyph glyph-name="r" unicode="r" horiz-adv-x="336" 
d="M46 0l61 386q5 28 8 57t4 57h41l-9 -109l-10 -1q16 40 45 66t65.5 39t72.5 13q12 0 23 -1t22 -4l-9 -39q-9 3 -20.5 4t-24.5 1q-49 0 -86.5 -21.5t-60.5 -55.5t-29 -72l-51 -320h-42z" />
    <glyph glyph-name="s" unicode="s" horiz-adv-x="492" 
d="M209 -8q-52 0 -99.5 16.5t-74.5 42.5l22 34q32 -26 71 -40t85 -14q66 0 106 25.5t47 67.5q6 38 -14 62.5t-71 32.5l-64 11q-75 12 -103.5 51.5t-19.5 95.5q7 41 33.5 70t67.5 45t90 16q54 0 96.5 -16t64.5 -39l-23 -34q-26 24 -61 37t-77 13q-64 0 -102 -27.5t-45 -69.5
q-6 -39 11.5 -64.5t63.5 -33.5l67 -12q77 -13 107.5 -49t21.5 -90q-6 -38 -31.5 -68t-68.5 -46.5t-100 -16.5z" />
    <glyph glyph-name="t" unicode="t" horiz-adv-x="324" 
d="M203 -8q-68 0 -96 38.5t-16 117.5l50 316h-100l6 36h100l23 143l44 16l-25 -159h152l-6 -36h-152l-48 -305q-10 -66 5.5 -97t61.5 -31q20 0 36.5 4t28.5 9l-6 -40q-12 -5 -26 -8.5t-32 -3.5z" />
    <glyph glyph-name="u" unicode="u" horiz-adv-x="561" 
d="M229 -8q-85 0 -127.5 47t-26.5 153l49 308h42l-48 -303q-13 -88 14.5 -127t97.5 -39q79 0 130.5 50t64.5 133l45 286h42l-79 -500h-41l19 122h15q-28 -62 -80.5 -96t-116.5 -34z" />
    <glyph glyph-name="v" unicode="v" horiz-adv-x="520" 
d="M196 0l-133 500h46l124 -484h-24l277 484h49l-291 -500h-48z" />
    <glyph glyph-name="w" unicode="w" horiz-adv-x="857" 
d="M178 0l-97 500h45l90 -486h-26l251 486h52l94 -486h-27l246 486h48l-256 -500h-50l-95 491h30l-254 -491h-51z" />
    <glyph glyph-name="x" unicode="x" horiz-adv-x="522" 
d="M-12 0l259 271v-26l-165 255h49l140 -221h-15l209 221h55l-241 -252v19l171 -267h-50l-148 235h15l-224 -235h-55z" />
    <glyph glyph-name="y" unicode="y" horiz-adv-x="520" 
d="M-14 -227l-9 39q49 11 82.5 27.5t59 42.5t48.5 65l35 60l-2 -21l-137 514h46l125 -484h-23l274 484h50l-321 -554q-25 -43 -50.5 -72.5t-53 -49.5t-58 -32t-66.5 -19z" />
    <glyph glyph-name="z" unicode="z" horiz-adv-x="512" 
d="M11 0l5 30l425 447l-2 -13h-355l6 36h401l-5 -30l-426 -448l2 14h368l-6 -36h-413z" />
    <glyph glyph-name="braceleft" unicode="{" horiz-adv-x="322" 
d="M186 -180q-36 0 -58 9.5t-29.5 29t-3.5 47.5l40 256q6 41 -7 60.5t-57 21.5l-21 1l5 36l23 1q44 2 63 21.5t26 60.5l41 255q7 41 31 63.5t67 22.5h84l-6 -37h-81q-23 0 -36 -12t-17 -35l-41 -260q-5 -36 -22 -58t-39 -32t-42 -10v4q20 0 38.5 -10t28.5 -31.5t4 -58.5
l-40 -261q-4 -22 4.5 -34.5t32.5 -12.5h82l-6 -37h-64z" />
    <glyph glyph-name="bar" unicode="|" horiz-adv-x="248" 
d="M34 -180l140 885h42l-140 -885h-42z" />
    <glyph glyph-name="braceright" unicode="}" horiz-adv-x="322" 
d="M-64 -180l5 37h81q23 0 36.5 12.5t17.5 34.5l41 260q6 37 22.5 58.5t38.5 31.5t42 10v-4q-20 0 -38.5 10t-28 32t-4.5 58l40 261q4 23 -5 35t-32 12h-82l6 37h64q37 0 58.5 -9.5t29.5 -28.5t3 -48l-40 -256q-6 -41 7.5 -60.5t56.5 -21.5l20 -1l-5 -36l-22 -1
q-44 -2 -63 -21.5t-26 -60.5l-41 -255q-7 -41 -31 -63.5t-67 -22.5h-84z" />
    <glyph glyph-name="asciitilde" unicode="~" horiz-adv-x="600" 
d="M423 224q-36 0 -68.5 15t-60.5 31q-28 17 -52.5 29t-49.5 12q-37 0 -62.5 -21t-42.5 -48l-33 19q27 44 58.5 66.5t76.5 22.5q36 0 70 -15t62 -32q28 -16 51 -28t48 -12q38 0 63.5 21t41.5 48l33 -19q-27 -43 -58.5 -66t-76.5 -23z" />
    <glyph glyph-name="uni00A0" unicode="&#xa0;" horiz-adv-x="250" 
 />
    <glyph glyph-name="exclamdown" unicode="&#xa1;" horiz-adv-x="211" 
d="M10 -180l96 519h27l-70 -519h-53zM99 430l11 70h69l-11 -70h-69z" />
    <glyph glyph-name="cent" unicode="&#xa2;" horiz-adv-x="600" 
d="M238 -115l19 123l8 -14q-91 9 -137.5 72.5t-26.5 183.5q20 115 85 173.5t157 64.5l-13 -20l22 136h40l-22 -136l-5 19q44 0 84 -15.5t65 -45.5l-23 -29q-29 28 -63.5 40t-67.5 12q-85 0 -142.5 -53.5t-74.5 -152.5q-11 -69 4 -116t52.5 -71.5t93.5 -24.5q39 0 80 14
t76 46l21 -33q-32 -31 -83.5 -48.5t-102.5 -17.5l13 16l-19 -123h-40z" />
    <glyph glyph-name="sterling" unicode="&#xa3;" horiz-adv-x="600" 
d="M9 0l5 33q57 23 93.5 54.5t43.5 79.5l27 169h-116l6 36h116l24 150q16 97 73.5 144t151.5 47q59 0 105 -18.5t77 -56.5l-24 -32q-30 32 -65.5 49t-93.5 17q-78 0 -123.5 -38t-59.5 -120l-23 -142h199l-6 -36h-199l-24 -150q-10 -64 -42.5 -100t-77.5 -53l1 6h448l-6 -39
h-510z" />
    <glyph glyph-name="currency" unicode="&#xa4;" horiz-adv-x="600" 
d="M109 -22l-35 36l74 76q-24 32 -38 72t-14 83q0 44 13.5 84t38.5 71l-74 76l35 36l74 -76q31 27 70.5 42t82.5 15t81.5 -14.5t69.5 -40.5l71 74l36 -36l-73 -73q26 -33 40.5 -73t14.5 -85t-14.5 -85t-40.5 -72l73 -74l-36 -36l-72 74q-31 -26 -69 -40.5t-81 -14.5t-82 15
t-71 41zM335 40q54 0 97.5 27.5t69 74t25.5 103.5t-25.5 103.5t-69 74.5t-97.5 27q-53 0 -96.5 -27.5t-69.5 -74t-26 -103.5t26 -103.5t69.5 -74t96.5 -27.5z" />
    <glyph glyph-name="yen" unicode="&#xa5;" horiz-adv-x="600" 
d="M239 0l30 189h-203l6 36h203l18 114h-203l5 36h179l-1 -7l-196 337h47l198 -343h-15l307 343h53l-302 -337l1 7h177l-5 -36h-203l-18 -114h203l-6 -36h-203l-30 -189h-42z" />
    <glyph glyph-name="brokenbar" unicode="&#xa6;" horiz-adv-x="248" 
d="M121 372l53 333h42l-53 -333h-42zM34 -180l53 333h42l-53 -333h-42z" />
    <glyph glyph-name="section" unicode="&#xa7;" horiz-adv-x="518" 
d="M184 -188q-70 0 -120.5 17.5t-82.5 48.5l24 33q21 -21 47.5 -34t59 -19.5t71.5 -6.5q81 0 126.5 42.5t45.5 102.5q0 46 -21 71.5t-68 54.5l-91 56q-58 36 -89.5 74.5t-31.5 82.5q0 39 22 77t62 66l-2 -10q-6 16 -8.5 31.5t-2.5 31.5q0 53 29 94t78 64.5t109 23.5
q57 0 105.5 -16t80.5 -52l-22 -32q-25 29 -70 45t-93 16q-82 0 -127.5 -42.5t-45.5 -102.5q0 -46 20 -73.5t69 -56.5l87 -52q62 -37 93 -75t31 -82q0 -39 -21.5 -77.5t-62.5 -65.5l2 11q7 -15 9.5 -31t2.5 -33q0 -53 -29 -94t-77.5 -64.5t-108.5 -23.5zM96 340
q0 -37 26.5 -66t76.5 -61l77 -49q35 -22 61 -42.5t41 -45.5l-9 3q29 23 44 52t15 54q0 37 -27 65.5t-80 61.5l-72 45q-34 22 -60.5 43t-41.5 46l8 -1q-29 -22 -44 -50.5t-15 -54.5z" />
    <glyph glyph-name="dieresis" unicode="&#xa8;" horiz-adv-x="500" 
d="M358 620l9 60h61l-9 -60h-61zM197 620l9 60h61l-9 -60h-61z" />
    <glyph glyph-name="copyright" unicode="&#xa9;" horiz-adv-x="815" 
d="M429 -8q-76 0 -142 27.5t-115 76.5t-76.5 115t-27.5 142q0 77 27.5 142.5t76.5 114t114.5 76t142.5 27.5t142.5 -27.5t114 -76t76 -114t27.5 -142.5q0 -76 -27.5 -142t-76 -115t-114 -76.5t-142.5 -27.5zM438 137q-94 0 -147 60.5t-53 158.5t53 155t147 57q40 0 78 -15.5
t63 -41.5l-18 -32q-29 28 -61.5 39.5t-62.5 11.5q-74 0 -116 -46t-42 -129q0 -82 42 -131t116 -49q30 0 62.5 12t61.5 40l18 -33q-25 -26 -64 -41.5t-77 -15.5zM429 28q68 0 127 24.5t103 69t68.5 103.5t24.5 128t-24.5 128t-68.5 103t-103 68.5t-127 24.5q-69 0 -128 -24.5
t-103 -68.5t-68.5 -103t-24.5 -128t24.5 -128t68.5 -103.5t103 -69t128 -24.5z" />
    <glyph glyph-name="ordfeminine" unicode="&#xaa;" horiz-adv-x="313" 
d="M160 413q-33 0 -55 12t-32 32.5t-6 46.5q5 32 25.5 49.5t50.5 24.5t63 7h88l-5 -29h-86q-92 0 -100 -52q-4 -26 10 -43t51 -17q45 0 77.5 28t40.5 77l9 57q6 38 -11 57t-58 19q-27 0 -55 -7.5t-51 -22.5l-12 29q26 16 58.5 24t63.5 8q55 0 81 -28.5t16 -89.5l-28 -177
h-33l8 53h-2q-19 -31 -46 -44.5t-62 -13.5z" />
    <glyph glyph-name="guillemotleft" unicode="&#xab;" horiz-adv-x="398" 
d="M132 89l-101 178l160 180h50l-161 -186l97 -172h-45zM292 89l-101 178l160 180h50l-161 -186l97 -172h-45z" />
    <glyph glyph-name="logicalnot" unicode="&#xac;" horiz-adv-x="600" 
d="M493 157l34 213h-456l6 39h496l-40 -252h-40z" />
    <glyph glyph-name="uni00AD" unicode="&#xad;" horiz-adv-x="420" 
d="M76 254l6 38h268l-6 -38h-268z" />
    <glyph glyph-name="registered" unicode="&#xae;" horiz-adv-x="815" 
d="M429 -8q-76 0 -142 27.5t-115 76.5t-76.5 115t-27.5 142q0 77 27.5 142.5t76.5 114t114.5 76t142.5 27.5t142.5 -27.5t114 -76t76 -114t27.5 -142.5q0 -76 -27.5 -142t-76 -115t-114 -76.5t-142.5 -27.5zM429 28q68 0 127 24.5t103 69t68.5 103.5t24.5 128t-24.5 128
t-68.5 103t-103 68.5t-127 24.5q-69 0 -128 -24.5t-103 -68.5t-68.5 -103t-24.5 -128t24.5 -128t68.5 -103.5t103 -69t128 -24.5zM294 142v421h162q65 0 100 -31t35 -89q0 -57 -35.5 -87.5t-100.5 -30.5l3 9q29 0 49.5 -12t32.5 -41l57 -139h-43l-56 134q-12 28 -33.5 37.5
t-52.5 9.5h-88l11 9v-190h-41zM335 360h116q50 0 74.5 20t24.5 63q0 42 -24 62.5t-75 20.5h-116v-166z" />
    <glyph glyph-name="macron" unicode="&#xaf;" horiz-adv-x="500" 
d="M170 633l6 38h280l-6 -38h-280z" />
    <glyph glyph-name="degree" unicode="&#xb0;" horiz-adv-x="364" 
d="M233 426q-40 0 -72 19t-50.5 51t-18.5 72t18.5 72t50.5 51t72 19t71 -18.5t49.5 -50.5t18.5 -73q0 -40 -18.5 -72.5t-49.5 -51t-71 -18.5zM233 466q44 0 70.5 28.5t26.5 73.5t-26.5 73.5t-70.5 28.5q-43 0 -70.5 -28.5t-27.5 -73.5t27.5 -73.5t70.5 -28.5z" />
    <glyph glyph-name="plusminus" unicode="&#xb1;" horiz-adv-x="600" 
d="M260 117l29 186h-229l6 39h230l29 186h40l-29 -186h223l-4 -39h-226l-29 -186h-40zM12 0l6 39h495l-6 -39h-495z" />
    <glyph glyph-name="uni00B2" unicode="&#xb2;" horiz-adv-x="380" 
d="M62 282l5 29l180 161q38 35 56.5 62t22.5 50q7 45 -13.5 66.5t-61.5 21.5q-32 0 -66 -12.5t-62 -38.5l-22 30q31 29 70 43.5t80 14.5q58 0 92.5 -32t24.5 -94q-4 -25 -23 -58t-60 -69l-167 -147l-4 10h233l-6 -37h-279z" />
    <glyph glyph-name="uni00B3" unicode="&#xb3;" horiz-adv-x="380" 
d="M199 279q-48 0 -85.5 15.5t-57.5 42.5l22 30q20 -24 51 -37.5t68 -13.5q41 0 71.5 19.5t37.5 62.5t-19.5 61.5t-76.5 18.5h-73l6 37h64q49 0 80.5 21t38.5 62q5 35 -15 54.5t-63 19.5q-34 0 -69 -13.5t-60 -38.5l-21 31q29 27 69.5 42.5t85.5 15.5q60 0 91.5 -30
t23.5 -83q-6 -38 -33.5 -64.5t-62.5 -37.5l1 6q39 -8 60.5 -35.5t13.5 -73.5q-8 -52 -50 -82t-98 -30z" />
    <glyph glyph-name="acute" unicode="&#xb4;" horiz-adv-x="500" 
d="M279 549l135 200h55l-154 -200h-36z" />
    <glyph glyph-name="uni00B5" unicode="&#xb5;" horiz-adv-x="561" 
d="M13 -216l111 716h42l-47 -306q-13 -84 15.5 -123.5t93.5 -39.5q84 0 134 53t63 141l42 275h42l-77 -500h-41l19 121h11q-25 -59 -75.5 -94t-118.5 -35q-50 0 -86.5 19t-53.5 56l8 2l-40 -285h-42z" />
    <glyph glyph-name="paragraph" unicode="&#xb6;" horiz-adv-x="570" 
d="M179 -180l81 515q-52 0 -89 21t-57 57.5t-20 80.5q0 63 28 110.5t77.5 74t113.5 26.5h231l-140 -885h-42l134 847h-141l-134 -847h-42z" />
    <glyph glyph-name="periodcentered" unicode="&#xb7;" horiz-adv-x="214" 
d="M70 238l11 70h70l-11 -70h-70z" />
    <glyph glyph-name="cedilla" unicode="&#xb8;" horiz-adv-x="500" 
d="M187 -190q-23 0 -43.5 5t-33.5 13l12 34q18 -9 33 -12.5t39 -3.5q28 0 47 11.5t19 33.5q0 14 -9 22t-26 8q-11 0 -23 -2t-30 -8l-13 13l31 96h38l-25 -75l-18 2q13 3 24.5 5t21.5 2q29 0 49 -15.5t20 -44.5q0 -37 -32 -60.5t-81 -23.5z" />
    <glyph glyph-name="uni00B9" unicode="&#xb9;" horiz-adv-x="380" 
d="M105 282l6 37h96l55 351l21 -2l-121 -72l7 46l105 63h33l-61 -386h86l-6 -37h-221z" />
    <glyph glyph-name="ordmasculine" unicode="&#xba;" horiz-adv-x="328" 
d="M194 413q-61 0 -94.5 40t-22.5 115q11 71 54 108t101 37q61 0 95 -39.5t22 -115.5q-11 -70 -54 -107.5t-101 -37.5zM196 444q45 0 77 30.5t41 88.5t-13.5 88.5t-70.5 30.5q-45 0 -77 -30.5t-41 -88.5t13.5 -88.5t70.5 -30.5z" />
    <glyph glyph-name="guillemotright" unicode="&#xbb;" horiz-adv-x="398" 
d="M67 89h-50l161 186l-97 172h45l101 -178zM225 89h-50l161 186l-97 172h45l101 -178z" />
    <glyph glyph-name="onequarter" unicode="&#xbc;" horiz-adv-x="880" 
d="M105 282l6 37h96l55 351l21 -2l-121 -72l7 46l105 63h33l-61 -386h86l-6 -37h-221zM229 -8h-46l540 721h46zM709 0l15 94h-206l5 33l259 296h33l-46 -292h69l-6 -37h-69l-15 -94h-39zM730 131l37 238h15l-223 -253l-2 15h173z" />
    <glyph glyph-name="onehalf" unicode="&#xbd;" horiz-adv-x="920" 
d="M105 282l6 37h96l55 351l21 -2l-121 -72l7 46l105 63h33l-61 -386h86l-6 -37h-221zM229 -8h-46l540 721h46zM557 0l5 29l180 161q38 35 56.5 62t22.5 50q7 45 -13.5 66.5t-61.5 21.5q-32 0 -66 -12.5t-62 -38.5l-22 30q31 29 70 43.5t80 14.5q58 0 92.5 -32t24.5 -94
q-4 -25 -23 -58t-60 -69l-167 -147l-4 10h233l-6 -37h-279z" />
    <glyph glyph-name="threequarters" unicode="&#xbe;" horiz-adv-x="880" 
d="M199 279q-48 0 -85.5 15.5t-57.5 42.5l22 30q20 -24 51 -37.5t68 -13.5q41 0 71.5 19.5t37.5 62.5t-19.5 61.5t-76.5 18.5h-73l6 37h64q49 0 80.5 21t38.5 62q5 35 -15 54.5t-63 19.5q-34 0 -69 -13.5t-60 -38.5l-21 31q29 27 69.5 42.5t85.5 15.5q60 0 91.5 -30
t23.5 -83q-6 -38 -33.5 -64.5t-62.5 -37.5l1 6q39 -8 60.5 -35.5t13.5 -73.5q-8 -52 -50 -82t-98 -30zM229 -8h-46l540 721h46zM709 0l15 94h-206l5 33l259 296h33l-46 -292h69l-6 -37h-69l-15 -94h-39zM730 131l37 238h15l-223 -253l-2 15h173z" />
    <glyph glyph-name="questiondown" unicode="&#xbf;" horiz-adv-x="433" 
d="M145 -213q-49 0 -84.5 15.5t-54.5 44t-19 66.5q0 46 19.5 84.5t48.5 71.5t58 61q59 58 87 99t38 87l5 22h30l-3 -20q-5 -35 -18.5 -67.5t-40.5 -67.5t-73 -80q-24 -23 -48.5 -52t-41.5 -62.5t-17 -70.5q0 -43 32 -66.5t88 -23.5q41 0 76 9.5t68 25.5l-7 -46
q-33 -16 -70 -23t-73 -7zM319 500l-11 -70h-69l11 70h69z" />
    <glyph glyph-name="Agrave" unicode="&#xc0;" horiz-adv-x="721" 
d="M-6 0l415 705h41l197 -705h-43l-57 204l22 -9h-437l29 9l-119 -204h-48zM422 649l-246 -421l-21 6h403l-17 -6l-117 421h-2zM421 765l-122 170h55l105 -170h-38z" />
    <glyph glyph-name="Aacute" unicode="&#xc1;" horiz-adv-x="721" 
d="M-6 0l415 705h41l197 -705h-43l-57 204l22 -9h-437l29 9l-119 -204h-48zM422 649l-246 -421l-21 6h403l-17 -6l-117 421h-2zM421 765l131 170h57l-150 -170h-38z" />
    <glyph glyph-name="Acircumflex" unicode="&#xc2;" horiz-adv-x="721" 
d="M-6 0l415 705h41l197 -705h-43l-57 204l22 -9h-437l29 9l-119 -204h-48zM422 649l-246 -421l-21 6h403l-17 -6l-117 421h-2zM286 765l139 170h48l103 -170h-37l-92 132l-124 -132h-37z" />
    <glyph glyph-name="Atilde" unicode="&#xc3;" horiz-adv-x="721" 
d="M-6 0l415 705h41l197 -705h-43l-57 204l22 -9h-437l29 9l-119 -204h-48zM422 649l-246 -421l-21 6h403l-17 -6l-117 421h-2zM275 792l-32 2q11 58 40.5 89.5t73.5 31.5q29 0 54 -15t48 -32q20 -15 38 -26.5t37 -11.5q59 0 79 87l32 -2q-11 -58 -40 -89.5t-73 -31.5
q-29 0 -54.5 15.5t-48.5 31.5q-19 15 -38 26.5t-37 11.5q-59 0 -79 -87z" />
    <glyph glyph-name="Adieresis" unicode="&#xc4;" horiz-adv-x="721" 
d="M-6 0l415 705h41l197 -705h-43l-57 204l22 -9h-437l29 9l-119 -204h-48zM422 649l-246 -421l-21 6h403l-17 -6l-117 421h-2zM498 820l10 60h61l-10 -60h-61zM337 820l10 60h61l-10 -60h-61z" />
    <glyph glyph-name="Aring" unicode="&#xc5;" horiz-adv-x="721" 
d="M-6 0l415 705h41l197 -705h-43l-57 204l22 -9h-437l29 9l-119 -204h-48zM422 649l-246 -421l-21 6h403l-17 -6l-117 421h-2zM457 760q-31 0 -56.5 15t-40.5 40t-15 55q0 31 15 55.5t40.5 39.5t56.5 15q32 0 57 -15t40 -39.5t15 -55.5q0 -30 -15 -55t-40 -40t-57 -15z
M457 792q35 0 56.5 22.5t21.5 55.5t-21.5 55.5t-56.5 22.5q-34 0 -56 -22.5t-22 -55.5t22 -55.5t56 -22.5z" />
    <glyph glyph-name="AE" unicode="&#xc6;" horiz-adv-x="996" 
d="M-26 0l535 705h502l-7 -39h-419l24 24l-20 -324l-16 11h365l-6 -39h-354l9 10l-20 -328l-4 19h342l-6 -39h-376l12 198l24 -3h-398l24 12l-158 -207h-53zM529 665l-332 -441l-10 10h359l-8 -9l27 440h-36z" />
    <glyph glyph-name="Ccedilla" unicode="&#xc7;" horiz-adv-x="684" 
d="M363 -8q-111 0 -178.5 46t-92 129.5t-7.5 195.5q18 112 67 190t124.5 119t173.5 41q74 0 129 -22t95 -66l-23 -36q-44 46 -91.5 64.5t-112.5 18.5q-131 0 -212.5 -83.5t-105.5 -235.5q-15 -96 4.5 -168t76.5 -112t153 -40q61 0 118 21t104 68l22 -34
q-45 -47 -110.5 -71.5t-133.5 -24.5zM326 -190q-23 0 -43.5 5t-33.5 13l12 34q18 -9 33 -12.5t39 -3.5q28 0 47 11.5t19 33.5q0 14 -9 22t-26 8q-11 0 -23 -2t-30 -8l-13 13l31 96h38l-25 -75l-18 2q13 3 24.5 5t21.5 2q29 0 49 -15.5t20 -44.5q0 -37 -32 -60.5t-81 -23.5z
" />
    <glyph glyph-name="Egrave" unicode="&#xc8;" horiz-adv-x="582" 
d="M57 0l112 705h428l-7 -39h-386l-45 -289h364l-6 -39h-364l-48 -299h386l-6 -39h-428zM386 765l-122 170h55l105 -170h-38z" />
    <glyph glyph-name="Eacute" unicode="&#xc9;" horiz-adv-x="582" 
d="M57 0l112 705h428l-7 -39h-386l-45 -289h364l-6 -39h-364l-48 -299h386l-6 -39h-428zM386 765l131 170h57l-150 -170h-38z" />
    <glyph glyph-name="Ecircumflex" unicode="&#xca;" horiz-adv-x="582" 
d="M57 0l112 705h428l-7 -39h-386l-45 -289h364l-6 -39h-364l-48 -299h386l-6 -39h-428zM251 765l139 170h48l103 -170h-37l-92 132l-124 -132h-37z" />
    <glyph glyph-name="Edieresis" unicode="&#xcb;" horiz-adv-x="582" 
d="M57 0l112 705h428l-7 -39h-386l-45 -289h364l-6 -39h-364l-48 -299h386l-6 -39h-428zM463 820l10 60h61l-10 -60h-61zM302 820l10 60h61l-10 -60h-61z" />
    <glyph glyph-name="Igrave" unicode="&#xcc;" horiz-adv-x="236" 
d="M57 0l112 705h42l-112 -705h-42zM181 765l-122 170h55l105 -170h-38z" />
    <glyph glyph-name="Iacute" unicode="&#xcd;" horiz-adv-x="236" 
d="M57 0l112 705h42l-112 -705h-42zM181 765l131 170h57l-150 -170h-38z" />
    <glyph glyph-name="Icircumflex" unicode="&#xce;" horiz-adv-x="236" 
d="M57 0l112 705h42l-112 -705h-42zM46 765l139 170h48l103 -170h-37l-92 132l-124 -132h-37z" />
    <glyph glyph-name="Idieresis" unicode="&#xcf;" horiz-adv-x="236" 
d="M57 0l112 705h42l-112 -705h-42zM258 820l10 60h61l-10 -60h-61zM97 820l10 60h61l-10 -60h-61z" />
    <glyph glyph-name="Eth" unicode="&#xd0;" horiz-adv-x="733" 
d="M57 0l112 705h209q119 0 191.5 -42.5t100 -123.5t9.5 -196q-28 -173 -132.5 -258t-275.5 -85h-214zM105 39h168q158 0 248 77t115 237q25 157 -40.5 235t-223.5 78h-168zM23 340l6 37h334l-6 -37h-334z" />
    <glyph glyph-name="Ntilde" unicode="&#xd1;" horiz-adv-x="739" 
d="M57 0l112 705h36l381 -663h-16l105 663h39l-112 -705h-35l-381 663h15l-105 -663h-39zM287 792l-32 2q11 58 40.5 89.5t73.5 31.5q29 0 54 -15t48 -32q20 -15 38 -26.5t37 -11.5q59 0 79 87l32 -2q-11 -58 -40 -89.5t-73 -31.5q-29 0 -54.5 15.5t-48.5 31.5
q-19 15 -38 26.5t-37 11.5q-59 0 -79 -87z" />
    <glyph glyph-name="Ograve" unicode="&#xd2;" horiz-adv-x="759" 
d="M86 363q18 112 66.5 190t123.5 119t171 41q100 0 163.5 -46.5t88 -130t6.5 -194.5q-17 -111 -66 -189.5t-124 -119.5t-172 -41q-99 0 -162.5 46t-87.5 129.5t-7 195.5zM129 353q-16 -99 4.5 -170.5t74.5 -110.5t138 -39q130 0 211 84t105 235q16 98 -5 170t-74.5 111
t-137.5 39q-130 0 -210.5 -83.5t-105.5 -235.5zM442 765l-122 170h55l105 -170h-38z" />
    <glyph glyph-name="Oacute" unicode="&#xd3;" horiz-adv-x="759" 
d="M86 363q18 112 66.5 190t123.5 119t171 41q100 0 163.5 -46.5t88 -130t6.5 -194.5q-17 -111 -66 -189.5t-124 -119.5t-172 -41q-99 0 -162.5 46t-87.5 129.5t-7 195.5zM129 353q-16 -99 4.5 -170.5t74.5 -110.5t138 -39q130 0 211 84t105 235q16 98 -5 170t-74.5 111
t-137.5 39q-130 0 -210.5 -83.5t-105.5 -235.5zM442 765l131 170h57l-150 -170h-38z" />
    <glyph glyph-name="Ocircumflex" unicode="&#xd4;" horiz-adv-x="759" 
d="M86 363q18 112 66.5 190t123.5 119t171 41q100 0 163.5 -46.5t88 -130t6.5 -194.5q-17 -111 -66 -189.5t-124 -119.5t-172 -41q-99 0 -162.5 46t-87.5 129.5t-7 195.5zM129 353q-16 -99 4.5 -170.5t74.5 -110.5t138 -39q130 0 211 84t105 235q16 98 -5 170t-74.5 111
t-137.5 39q-130 0 -210.5 -83.5t-105.5 -235.5zM307 765l139 170h48l103 -170h-37l-92 132l-124 -132h-37z" />
    <glyph glyph-name="Otilde" unicode="&#xd5;" horiz-adv-x="759" 
d="M86 363q18 112 66.5 190t123.5 119t171 41q100 0 163.5 -46.5t88 -130t6.5 -194.5q-17 -111 -66 -189.5t-124 -119.5t-172 -41q-99 0 -162.5 46t-87.5 129.5t-7 195.5zM129 353q-16 -99 4.5 -170.5t74.5 -110.5t138 -39q130 0 211 84t105 235q16 98 -5 170t-74.5 111
t-137.5 39q-130 0 -210.5 -83.5t-105.5 -235.5zM296 792l-32 2q11 58 40.5 89.5t73.5 31.5q29 0 54 -15t48 -32q20 -15 38 -26.5t37 -11.5q59 0 79 87l32 -2q-11 -58 -40 -89.5t-73 -31.5q-29 0 -54.5 15.5t-48.5 31.5q-19 15 -38 26.5t-37 11.5q-59 0 -79 -87z" />
    <glyph glyph-name="Odieresis" unicode="&#xd6;" horiz-adv-x="759" 
d="M86 363q18 112 66.5 190t123.5 119t171 41q100 0 163.5 -46.5t88 -130t6.5 -194.5q-17 -111 -66 -189.5t-124 -119.5t-172 -41q-99 0 -162.5 46t-87.5 129.5t-7 195.5zM129 353q-16 -99 4.5 -170.5t74.5 -110.5t138 -39q130 0 211 84t105 235q16 98 -5 170t-74.5 111
t-137.5 39q-130 0 -210.5 -83.5t-105.5 -235.5zM519 820l10 60h61l-10 -60h-61zM358 820l10 60h61l-10 -60h-61z" />
    <glyph glyph-name="multiply" unicode="&#xd7;" horiz-adv-x="600" 
d="M91 49l-28 28l226 209l-186 204l28 28l188 -206l224 206l28 -28l-226 -208l186 -205l-28 -28l-188 206z" />
    <glyph glyph-name="Oslash" unicode="&#xd8;" horiz-adv-x="759" 
d="M86 363q18 112 66.5 190t123.5 119t171 41q100 0 163.5 -46.5t88 -130t6.5 -194.5q-17 -111 -66 -189.5t-124 -119.5t-172 -41q-99 0 -162.5 46t-87.5 129.5t-7 195.5zM129 353q-16 -99 4.5 -170.5t74.5 -110.5t138 -39q130 0 211 84t105 235q16 98 -5 170t-74.5 111
t-137.5 39q-130 0 -210.5 -83.5t-105.5 -235.5zM198 54l-58 -78l-30 22l58 79l17 22l392 530l16 22l59 78l30 -22l-59 -79l-16 -22l-392 -530z" />
    <glyph glyph-name="Ugrave" unicode="&#xd9;" horiz-adv-x="722" 
d="M328 -8q-90 0 -146.5 31.5t-78.5 93.5t-8 153l69 435h42l-68 -429q-19 -122 25 -182.5t168 -60.5q107 0 173.5 55.5t87.5 187.5l68 429h42l-69 -435q-15 -98 -55.5 -159.5t-103.5 -90t-146 -28.5zM424 765l-122 170h55l105 -170h-38z" />
    <glyph glyph-name="Uacute" unicode="&#xda;" horiz-adv-x="722" 
d="M328 -8q-90 0 -146.5 31.5t-78.5 93.5t-8 153l69 435h42l-68 -429q-19 -122 25 -182.5t168 -60.5q107 0 173.5 55.5t87.5 187.5l68 429h42l-69 -435q-15 -98 -55.5 -159.5t-103.5 -90t-146 -28.5zM424 765l131 170h57l-150 -170h-38z" />
    <glyph glyph-name="Ucircumflex" unicode="&#xdb;" horiz-adv-x="722" 
d="M328 -8q-90 0 -146.5 31.5t-78.5 93.5t-8 153l69 435h42l-68 -429q-19 -122 25 -182.5t168 -60.5q107 0 173.5 55.5t87.5 187.5l68 429h42l-69 -435q-15 -98 -55.5 -159.5t-103.5 -90t-146 -28.5zM289 765l139 170h48l103 -170h-37l-92 132l-124 -132h-37z" />
    <glyph glyph-name="Udieresis" unicode="&#xdc;" horiz-adv-x="722" 
d="M328 -8q-90 0 -146.5 31.5t-78.5 93.5t-8 153l69 435h42l-68 -429q-19 -122 25 -182.5t168 -60.5q107 0 173.5 55.5t87.5 187.5l68 429h42l-69 -435q-15 -98 -55.5 -159.5t-103.5 -90t-146 -28.5zM501 820l10 60h61l-10 -60h-61zM340 820l10 60h61l-10 -60h-61z" />
    <glyph glyph-name="Yacute" unicode="&#xdd;" horiz-adv-x="587" 
d="M232 0l52 326l5 -38l-216 417h46l192 -378h-15l312 378h50l-348 -417l16 38l-52 -326h-42zM357 765l131 170h57l-150 -170h-38z" />
    <glyph glyph-name="Thorn" unicode="&#xde;" horiz-adv-x="638" 
d="M57 0l112 705h42l-23 -146h216q110 0 161 -53.5t36 -150.5q-9 -61 -42 -102t-84.5 -61.5t-117.5 -20.5h-231l-27 -171h-42zM132 210h219q89 0 141.5 37t64.5 112q13 79 -27 120t-129 41h-220z" />
    <glyph glyph-name="germandbls" unicode="&#xdf;" horiz-adv-x="599" 
d="M48 0l81 510q18 116 78 173t162 57q57 0 95 -19.5t55 -56.5t8 -91q-6 -41 -29 -79t-67 -71t-115 -60l-1 11q91 -26 144 -60t73.5 -76.5t11.5 -95.5q-7 -44 -33 -78t-68 -53t-98 -19q-53 0 -97.5 15.5t-70.5 40.5l20 34q33 -25 69 -38t81 -13q64 0 105 31t50 89
q6 40 -10.5 73.5t-68.5 63.5t-151 58l6 38q74 28 118 58t65.5 63.5t26.5 69.5q10 61 -20.5 94t-99.5 33q-87 0 -134.5 -47.5t-62.5 -142.5l-81 -512h-42z" />
    <glyph glyph-name="agrave" unicode="&#xe0;" horiz-adv-x="583" 
d="M240 -8q-69 0 -115.5 31t-65 91t-4.5 146q20 120 89 184t167 64q70 0 115.5 -37t55.5 -102h-12l31 131h41q-7 -28 -14 -55t-11 -53l-62 -392h-42l21 131h14q-28 -65 -81 -102t-127 -37zM244 31q80 0 137.5 56.5t74.5 162.5t-24 162.5t-125 56.5q-80 0 -136.5 -56.5
t-73.5 -162.5t22.5 -162.5t124.5 -56.5zM312 549l-140 200h53l123 -200h-36z" />
    <glyph glyph-name="aacute" unicode="&#xe1;" horiz-adv-x="583" 
d="M240 -8q-69 0 -115.5 31t-65 91t-4.5 146q20 120 89 184t167 64q70 0 115.5 -37t55.5 -102h-12l31 131h41q-7 -28 -14 -55t-11 -53l-62 -392h-42l21 131h14q-28 -65 -81 -102t-127 -37zM244 31q80 0 137.5 56.5t74.5 162.5t-24 162.5t-125 56.5q-80 0 -136.5 -56.5
t-73.5 -162.5t22.5 -162.5t124.5 -56.5zM314 549l135 200h55l-154 -200h-36z" />
    <glyph glyph-name="acircumflex" unicode="&#xe2;" horiz-adv-x="583" 
d="M240 -8q-69 0 -115.5 31t-65 91t-4.5 146q20 120 89 184t167 64q70 0 115.5 -37t55.5 -102h-12l31 131h41q-7 -28 -14 -55t-11 -53l-62 -392h-42l21 131h14q-28 -65 -81 -102t-127 -37zM244 31q80 0 137.5 56.5t74.5 162.5t-24 162.5t-125 56.5q-80 0 -136.5 -56.5
t-73.5 -162.5t22.5 -162.5t124.5 -56.5zM198 549l131 200h48l87 -200h-34l-79 161l-117 -161h-36z" />
    <glyph glyph-name="atilde" unicode="&#xe3;" horiz-adv-x="583" 
d="M240 -8q-69 0 -115.5 31t-65 91t-4.5 146q20 120 89 184t167 64q70 0 115.5 -37t55.5 -102h-12l31 131h41q-7 -28 -14 -55t-11 -53l-62 -392h-42l21 131h14q-28 -65 -81 -102t-127 -37zM244 31q80 0 137.5 56.5t74.5 162.5t-24 162.5t-125 56.5q-80 0 -136.5 -56.5
t-73.5 -162.5t22.5 -162.5t124.5 -56.5zM202 595l-32 2q11 58 37.5 89.5t66.5 31.5q26 0 43.5 -15t32.5 -32q14 -15 27.5 -26.5t29.5 -11.5q52 0 71 87l32 -2q-10 -58 -37 -89.5t-66 -31.5q-25 0 -43.5 15t-33.5 32q-13 15 -26.5 26.5t-30.5 11.5q-52 0 -71 -87z" />
    <glyph glyph-name="adieresis" unicode="&#xe4;" horiz-adv-x="583" 
d="M240 -8q-69 0 -115.5 31t-65 91t-4.5 146q20 120 89 184t167 64q70 0 115.5 -37t55.5 -102h-12l31 131h41q-7 -28 -14 -55t-11 -53l-62 -392h-42l21 131h14q-28 -65 -81 -102t-127 -37zM244 31q80 0 137.5 56.5t74.5 162.5t-24 162.5t-125 56.5q-80 0 -136.5 -56.5
t-73.5 -162.5t22.5 -162.5t124.5 -56.5zM394 620l9 60h61l-9 -60h-61zM233 620l9 60h61l-9 -60h-61z" />
    <glyph glyph-name="aring" unicode="&#xe5;" horiz-adv-x="583" 
d="M240 -8q-69 0 -115.5 31t-65 91t-4.5 146q20 120 89 184t167 64q70 0 115.5 -37t55.5 -102h-12l31 131h41q-7 -28 -14 -55t-11 -53l-62 -392h-42l21 131h14q-28 -65 -81 -102t-127 -37zM244 31q80 0 137.5 56.5t74.5 162.5t-24 162.5t-125 56.5q-80 0 -136.5 -56.5
t-73.5 -162.5t22.5 -162.5t124.5 -56.5zM350 547q-31 0 -56.5 15t-40.5 40t-15 55q0 31 15 55.5t40.5 39.5t56.5 15q32 0 57 -15t40 -39.5t15 -55.5q0 -30 -15 -55t-40 -40t-57 -15zM350 579q35 0 56.5 22.5t21.5 55.5t-21.5 55.5t-56.5 22.5q-34 0 -56 -22.5t-22 -55.5
t22 -55.5t56 -22.5z" />
    <glyph glyph-name="ae" unicode="&#xe6;" horiz-adv-x="890" 
d="M210 -8q-53 0 -90.5 20.5t-54.5 56.5t-9 82q10 56 51 85.5t109.5 40.5t158.5 11h52l-5 -37h-50q-80 0 -138 -8t-92 -31t-41 -68q-8 -51 22.5 -82.5t91.5 -31.5q76 0 127 50t64 129l19 119q12 75 -18.5 108t-87.5 33q-52 0 -95.5 -13t-90.5 -43l-19 34q29 20 61.5 33.5
t68 20.5t71.5 7q81 0 117.5 -37.5t34.5 -104.5h-18q32 67 91.5 104.5t130.5 37.5q64 0 106 -28.5t59.5 -80t7.5 -120.5l-4 -27h-399l6 38h377l-17 -13q13 92 -22 142.5t-118 50.5q-59 0 -103 -27t-71 -73.5t-35 -106.5l-2 -15q-14 -105 29 -161t134 -56q45 0 89.5 15
t81.5 51l22 -33q-36 -34 -89.5 -53t-104.5 -19q-90 0 -141.5 44.5t-61.5 126.5h17q-26 -80 -83.5 -125.5t-138.5 -45.5z" />
    <glyph glyph-name="ccedilla" unicode="&#xe7;" horiz-adv-x="487" 
d="M246 -8q-69 0 -117 31t-68 91t-6 146q20 120 88.5 184t168.5 64q48 0 89 -16t67 -48l-23 -30q-29 29 -63.5 42t-67.5 13q-85 0 -142.5 -56t-74.5 -160q-17 -108 24.5 -165t125.5 -57q39 0 80 14.5t76 48.5l21 -33q-32 -33 -82.5 -51t-95.5 -18zM223 -190q-23 0 -43.5 5
t-33.5 13l12 34q18 -9 33 -12.5t39 -3.5q28 0 47 11.5t19 33.5q0 14 -9 22t-26 8q-11 0 -23 -2t-30 -8l-13 13l31 96h38l-25 -75l-18 2q13 3 24.5 5t21.5 2q29 0 49 -15.5t20 -44.5q0 -37 -32 -60.5t-81 -23.5z" />
    <glyph glyph-name="egrave" unicode="&#xe8;" horiz-adv-x="541" 
d="M263 -8q-78 0 -129 32.5t-71 93.5t-7 146q13 78 48 132.5t89 83t123 28.5q66 0 109 -28.5t61 -80t8 -120.5l-4 -27h-409l6 38h387l-17 -13q13 92 -23 142.5t-122 50.5q-62 0 -107 -27t-72 -73.5t-35 -106.5l-2 -15q-14 -105 29.5 -161t138.5 -56q47 0 93 15t83 51l22 -33
q-39 -34 -91.5 -53t-107.5 -19zM312 549l-140 200h53l123 -200h-36z" />
    <glyph glyph-name="eacute" unicode="&#xe9;" horiz-adv-x="541" 
d="M263 -8q-78 0 -129 32.5t-71 93.5t-7 146q13 78 48 132.5t89 83t123 28.5q66 0 109 -28.5t61 -80t8 -120.5l-4 -27h-409l6 38h387l-17 -13q13 92 -23 142.5t-122 50.5q-62 0 -107 -27t-72 -73.5t-35 -106.5l-2 -15q-14 -105 29.5 -161t138.5 -56q47 0 93 15t83 51l22 -33
q-39 -34 -91.5 -53t-107.5 -19zM314 549l135 200h55l-154 -200h-36z" />
    <glyph glyph-name="ecircumflex" unicode="&#xea;" horiz-adv-x="541" 
d="M263 -8q-78 0 -129 32.5t-71 93.5t-7 146q13 78 48 132.5t89 83t123 28.5q66 0 109 -28.5t61 -80t8 -120.5l-4 -27h-409l6 38h387l-17 -13q13 92 -23 142.5t-122 50.5q-62 0 -107 -27t-72 -73.5t-35 -106.5l-2 -15q-14 -105 29.5 -161t138.5 -56q47 0 93 15t83 51l22 -33
q-39 -34 -91.5 -53t-107.5 -19zM198 549l131 200h48l87 -200h-34l-79 161l-117 -161h-36z" />
    <glyph glyph-name="edieresis" unicode="&#xeb;" horiz-adv-x="541" 
d="M263 -8q-78 0 -129 32.5t-71 93.5t-7 146q13 78 48 132.5t89 83t123 28.5q66 0 109 -28.5t61 -80t8 -120.5l-4 -27h-409l6 38h387l-17 -13q13 92 -23 142.5t-122 50.5q-62 0 -107 -27t-72 -73.5t-35 -106.5l-2 -15q-14 -105 29.5 -161t138.5 -56q47 0 93 15t83 51l22 -33
q-39 -34 -91.5 -53t-107.5 -19zM394 620l9 60h61l-9 -60h-61zM233 620l9 60h61l-9 -60h-61z" />
    <glyph glyph-name="igrave" unicode="&#xec;" horiz-adv-x="218" 
d="M48 0l79 500h42l-79 -500h-42zM136 549l-140 200h53l123 -200h-36z" />
    <glyph glyph-name="iacute" unicode="&#xed;" horiz-adv-x="218" 
d="M48 0l79 500h42l-79 -500h-42zM138 549l135 200h55l-154 -200h-36z" />
    <glyph glyph-name="icircumflex" unicode="&#xee;" horiz-adv-x="218" 
d="M48 0l79 500h42l-79 -500h-42zM22 549l131 200h48l87 -200h-34l-79 161l-117 -161h-36z" />
    <glyph glyph-name="idieresis" unicode="&#xef;" horiz-adv-x="218" 
d="M48 0l79 500h42l-79 -500h-42zM218 620l9 60h61l-9 -60h-61zM57 620l9 60h61l-9 -60h-61z" />
    <glyph glyph-name="eth" unicode="&#xf0;" horiz-adv-x="556" 
d="M241 -8q-68 0 -115 29.5t-66.5 84.5t-7.5 131q11 67 44.5 118t86.5 79.5t120 28.5q78 0 127.5 -42.5t54.5 -127.5h-19q16 98 -6 185.5t-86 148.5l18 -1l-207 -79l-13 31l187 72l1 -12q-27 23 -60.5 40.5t-72.5 29.5l15 33q48 -15 87.5 -36.5t70.5 -48.5l-17 3l121 46
l13 -31l-103 -40v9q42 -45 66 -104t30 -127.5t-6 -145.5q-21 -132 -88 -203t-175 -71zM241 31q83 0 140.5 52.5t71.5 143.5q14 92 -26 144t-123 52t-139 -50t-72 -146q-15 -93 26.5 -144.5t121.5 -51.5z" />
    <glyph glyph-name="ntilde" unicode="&#xf1;" horiz-adv-x="570" 
d="M48 0l62 392q4 26 6 53t3 55h41l-10 -120l-14 -1q30 63 84.5 96t125.5 33q93 0 128 -52t20 -146l-49 -310h-42l49 308q14 87 -14 124t-100 37q-82 0 -135.5 -49t-66.5 -130l-46 -290h-42zM201 595l-32 2q11 58 37.5 89.5t66.5 31.5q26 0 43.5 -15t32.5 -32
q14 -15 27.5 -26.5t29.5 -11.5q52 0 71 87l32 -2q-10 -58 -37 -89.5t-66 -31.5q-25 0 -43.5 15t-33.5 32q-13 15 -26.5 26.5t-30.5 11.5q-52 0 -71 -87z" />
    <glyph glyph-name="ograve" unicode="&#xf2;" horiz-adv-x="553" 
d="M240 -8q-69 0 -115.5 31t-64.5 91t-5 146q13 80 48.5 135.5t88.5 84t119 28.5q70 0 116 -31t65 -91t5 -146q-13 -80 -49 -135.5t-89 -84t-119 -28.5zM244 31q80 0 137.5 56.5t74.5 162.5t-24 162.5t-125 56.5q-80 0 -136.5 -56.5t-73.5 -162.5t22.5 -162.5t124.5 -56.5z
M304 549l-140 200h53l123 -200h-36z" />
    <glyph glyph-name="oacute" unicode="&#xf3;" horiz-adv-x="553" 
d="M240 -8q-69 0 -115.5 31t-64.5 91t-5 146q13 80 48.5 135.5t88.5 84t119 28.5q70 0 116 -31t65 -91t5 -146q-13 -80 -49 -135.5t-89 -84t-119 -28.5zM244 31q80 0 137.5 56.5t74.5 162.5t-24 162.5t-125 56.5q-80 0 -136.5 -56.5t-73.5 -162.5t22.5 -162.5t124.5 -56.5z
M306 549l135 200h55l-154 -200h-36z" />
    <glyph glyph-name="ocircumflex" unicode="&#xf4;" horiz-adv-x="553" 
d="M240 -8q-69 0 -115.5 31t-64.5 91t-5 146q13 80 48.5 135.5t88.5 84t119 28.5q70 0 116 -31t65 -91t5 -146q-13 -80 -49 -135.5t-89 -84t-119 -28.5zM244 31q80 0 137.5 56.5t74.5 162.5t-24 162.5t-125 56.5q-80 0 -136.5 -56.5t-73.5 -162.5t22.5 -162.5t124.5 -56.5z
M190 549l131 200h48l87 -200h-34l-79 161l-117 -161h-36z" />
    <glyph glyph-name="otilde" unicode="&#xf5;" horiz-adv-x="553" 
d="M240 -8q-69 0 -115.5 31t-64.5 91t-5 146q13 80 48.5 135.5t88.5 84t119 28.5q70 0 116 -31t65 -91t5 -146q-13 -80 -49 -135.5t-89 -84t-119 -28.5zM244 31q80 0 137.5 56.5t74.5 162.5t-24 162.5t-125 56.5q-80 0 -136.5 -56.5t-73.5 -162.5t22.5 -162.5t124.5 -56.5z
M194 595l-32 2q11 58 37.5 89.5t66.5 31.5q26 0 43.5 -15t32.5 -32q14 -15 27.5 -26.5t29.5 -11.5q52 0 71 87l32 -2q-10 -58 -37 -89.5t-66 -31.5q-25 0 -43.5 15t-33.5 32q-13 15 -26.5 26.5t-30.5 11.5q-52 0 -71 -87z" />
    <glyph glyph-name="odieresis" unicode="&#xf6;" horiz-adv-x="553" 
d="M240 -8q-69 0 -115.5 31t-64.5 91t-5 146q13 80 48.5 135.5t88.5 84t119 28.5q70 0 116 -31t65 -91t5 -146q-13 -80 -49 -135.5t-89 -84t-119 -28.5zM244 31q80 0 137.5 56.5t74.5 162.5t-24 162.5t-125 56.5q-80 0 -136.5 -56.5t-73.5 -162.5t22.5 -162.5t124.5 -56.5z
M386 620l9 60h61l-9 -60h-61zM225 620l9 60h61l-9 -60h-61z" />
    <glyph glyph-name="divide" unicode="&#xf7;" horiz-adv-x="600" 
d="M54 267l6 39h496l-6 -39h-496zM227 51l12 70h70l-12 -70h-70zM291 452l11 70h70l-11 -70h-70z" />
    <glyph glyph-name="oslash" unicode="&#xf8;" horiz-adv-x="553" 
d="M240 -8q-69 0 -115.5 31t-64.5 91t-5 146q13 80 48.5 135.5t88.5 84t119 28.5q70 0 116 -31t65 -91t5 -146q-13 -80 -49 -135.5t-89 -84t-119 -28.5zM244 31q80 0 137.5 56.5t74.5 162.5t-24 162.5t-125 56.5q-80 0 -136.5 -56.5t-73.5 -162.5t22.5 -162.5t124.5 -56.5z
M102 -24l-29 23l381 524l28 -22z" />
    <glyph glyph-name="ugrave" unicode="&#xf9;" horiz-adv-x="561" 
d="M229 -8q-85 0 -127.5 47t-26.5 153l49 308h42l-48 -303q-13 -88 14.5 -127t97.5 -39q79 0 130.5 50t64.5 133l45 286h42l-79 -500h-41l19 122h15q-28 -62 -80.5 -96t-116.5 -34zM308 550l-140 200h53l123 -200h-36z" />
    <glyph glyph-name="uacute" unicode="&#xfa;" horiz-adv-x="561" 
d="M229 -8q-85 0 -127.5 47t-26.5 153l49 308h42l-48 -303q-13 -88 14.5 -127t97.5 -39q79 0 130.5 50t64.5 133l45 286h42l-79 -500h-41l19 122h15q-28 -62 -80.5 -96t-116.5 -34zM310 550l135 200h55l-154 -200h-36z" />
    <glyph glyph-name="ucircumflex" unicode="&#xfb;" horiz-adv-x="561" 
d="M229 -8q-85 0 -127.5 47t-26.5 153l49 308h42l-48 -303q-13 -88 14.5 -127t97.5 -39q79 0 130.5 50t64.5 133l45 286h42l-79 -500h-41l19 122h15q-28 -62 -80.5 -96t-116.5 -34zM194 550l131 200h48l87 -200h-34l-79 161l-117 -161h-36z" />
    <glyph glyph-name="udieresis" unicode="&#xfc;" horiz-adv-x="561" 
d="M229 -8q-85 0 -127.5 47t-26.5 153l49 308h42l-48 -303q-13 -88 14.5 -127t97.5 -39q79 0 130.5 50t64.5 133l45 286h42l-79 -500h-41l19 122h15q-28 -62 -80.5 -96t-116.5 -34zM390 621l9 60h61l-9 -60h-61zM229 621l9 60h61l-9 -60h-61z" />
    <glyph glyph-name="yacute" unicode="&#xfd;" horiz-adv-x="520" 
d="M-14 -227l-9 39q49 11 82.5 27.5t59 42.5t48.5 65l35 60l-2 -21l-137 514h46l125 -484h-23l274 484h50l-321 -554q-25 -43 -50.5 -72.5t-53 -49.5t-58 -32t-66.5 -19zM288 549l135 200h55l-154 -200h-36z" />
    <glyph glyph-name="thorn" unicode="&#xfe;" horiz-adv-x="583" 
d="M14 -216l151 952h42l-58 -367h-14q28 65 81 102t127 37q70 0 116 -31t64.5 -91t4.5 -146q-19 -120 -88.5 -184t-167.5 -64q-70 0 -115 37t-56 102h10l-55 -347h-42zM276 31q80 0 136.5 56.5t73.5 162.5t-22.5 162.5t-124.5 56.5q-79 0 -137 -56.5t-75 -162.5
q-16 -106 24.5 -162.5t124.5 -56.5z" />
    <glyph glyph-name="ydieresis" unicode="&#xff;" horiz-adv-x="520" 
d="M-14 -227l-9 39q49 11 82.5 27.5t59 42.5t48.5 65l35 60l-2 -21l-137 514h46l125 -484h-23l274 484h50l-321 -554q-25 -43 -50.5 -72.5t-53 -49.5t-58 -32t-66.5 -19zM368 620l9 60h61l-9 -60h-61zM207 620l9 60h61l-9 -60h-61z" />
    <glyph glyph-name="Amacron" unicode="&#x100;" horiz-adv-x="721" 
d="M-6 0l415 705h41l197 -705h-43l-57 204l22 -9h-437l29 9l-119 -204h-48zM422 649l-246 -421l-21 6h403l-17 -6l-117 421h-2zM294 822l6 38h310l-6 -38h-310z" />
    <glyph glyph-name="amacron" unicode="&#x101;" horiz-adv-x="583" 
d="M240 -8q-69 0 -115.5 31t-65 91t-4.5 146q20 120 89 184t167 64q70 0 115.5 -37t55.5 -102h-12l31 131h41q-7 -28 -14 -55t-11 -53l-62 -392h-42l21 131h14q-28 -65 -81 -102t-127 -37zM244 31q80 0 137.5 56.5t74.5 162.5t-24 162.5t-125 56.5q-80 0 -136.5 -56.5
t-73.5 -162.5t22.5 -162.5t124.5 -56.5zM206 633l6 38h280l-6 -38h-280z" />
    <glyph glyph-name="Abreve" unicode="&#x102;" horiz-adv-x="721" 
d="M-6 0l415 705h41l197 -705h-43l-57 204l22 -9h-437l29 9l-119 -204h-48zM422 649l-246 -421l-21 6h403l-17 -6l-117 421h-2zM443 760q-42 0 -75 20t-51 57.5t-17 89.5l33 4q-3 -64 28.5 -99.5t84.5 -35.5t89 35.5t46 99.5l33 -4q-13 -78 -60 -122.5t-111 -44.5z" />
    <glyph glyph-name="abreve" unicode="&#x103;" horiz-adv-x="583" 
d="M240 -8q-69 0 -115.5 31t-65 91t-4.5 146q20 120 89 184t167 64q70 0 115.5 -37t55.5 -102h-12l31 131h41q-7 -28 -14 -55t-11 -53l-62 -392h-42l21 131h14q-28 -65 -81 -102t-127 -37zM244 31q80 0 137.5 56.5t74.5 162.5t-24 162.5t-125 56.5q-80 0 -136.5 -56.5
t-73.5 -162.5t22.5 -162.5t124.5 -56.5zM341 547q-41 0 -71.5 22.5t-46 64.5t-12.5 100l33 4q-4 -74 22.5 -114.5t75.5 -40.5q50 0 82 40.5t42 114.5l33 -4q-8 -58 -29.5 -100t-54 -64.5t-74.5 -22.5z" />
    <glyph glyph-name="Aogonek" unicode="&#x104;" horiz-adv-x="721" 
d="M-6 0l415 705h41l197 -705h-43l-57 204l22 -9h-437l29 9l-119 -204h-48zM422 649l-246 -421l-21 6h403l-17 -6l-117 421h-2zM617 -190q-43 0 -66 24.5t-23 62.5q0 44 28.5 79.5t72.5 54.5l18 -31q-40 -16 -60 -43t-20 -56q0 -25 13.5 -40t41.5 -15q12 0 25.5 3t28.5 10
l9 -34q-10 -5 -29 -10t-39 -5z" />
    <glyph glyph-name="aogonek" unicode="&#x105;" horiz-adv-x="583" 
d="M240 -8q-69 0 -115.5 31t-65 91t-4.5 146q20 120 89 184t167 64q70 0 115.5 -37t55.5 -102h-12l31 131h41q-7 -28 -14 -55t-11 -53l-62 -392h-42l21 131h14q-28 -65 -81 -102t-127 -37zM244 31q80 0 137.5 56.5t74.5 162.5t-24 162.5t-125 56.5q-80 0 -136.5 -56.5
t-73.5 -162.5t22.5 -162.5t124.5 -56.5zM425 -190q-43 0 -66 24.5t-23 62.5q0 44 28.5 79.5t72.5 54.5l18 -31q-40 -16 -60 -43t-20 -56q0 -25 13.5 -40t41.5 -15q12 0 25.5 3t28.5 10l9 -34q-10 -5 -29 -10t-39 -5z" />
    <glyph glyph-name="Cacute" unicode="&#x106;" horiz-adv-x="684" 
d="M363 -8q-111 0 -178.5 46t-92 129.5t-7.5 195.5q18 112 67 190t124.5 119t173.5 41q74 0 129 -22t95 -66l-23 -36q-44 46 -91.5 64.5t-112.5 18.5q-131 0 -212.5 -83.5t-105.5 -235.5q-15 -96 4.5 -168t76.5 -112t153 -40q61 0 118 21t104 68l22 -34
q-45 -47 -110.5 -71.5t-133.5 -24.5zM449 765l131 170h57l-150 -170h-38z" />
    <glyph glyph-name="cacute" unicode="&#x107;" horiz-adv-x="487" 
d="M246 -8q-69 0 -117 31t-68 91t-6 146q20 120 88.5 184t168.5 64q48 0 89 -16t67 -48l-23 -30q-29 29 -63.5 42t-67.5 13q-85 0 -142.5 -56t-74.5 -160q-17 -108 24.5 -165t125.5 -57q39 0 80 14.5t76 48.5l21 -33q-32 -33 -82.5 -51t-95.5 -18zM310 549l135 200h55
l-154 -200h-36z" />
    <glyph glyph-name="Ccircumflex" unicode="&#x108;" horiz-adv-x="684" 
d="M363 -8q-111 0 -178.5 46t-92 129.5t-7.5 195.5q18 112 67 190t124.5 119t173.5 41q74 0 129 -22t95 -66l-23 -36q-44 46 -91.5 64.5t-112.5 18.5q-131 0 -212.5 -83.5t-105.5 -235.5q-15 -96 4.5 -168t76.5 -112t153 -40q61 0 118 21t104 68l22 -34
q-45 -47 -110.5 -71.5t-133.5 -24.5zM314 765l139 170h48l103 -170h-37l-92 132l-124 -132h-37z" />
    <glyph glyph-name="ccircumflex" unicode="&#x109;" horiz-adv-x="487" 
d="M246 -8q-69 0 -117 31t-68 91t-6 146q20 120 88.5 184t168.5 64q48 0 89 -16t67 -48l-23 -30q-29 29 -63.5 42t-67.5 13q-85 0 -142.5 -56t-74.5 -160q-17 -108 24.5 -165t125.5 -57q39 0 80 14.5t76 48.5l21 -33q-32 -33 -82.5 -51t-95.5 -18zM194 549l131 200h48
l87 -200h-34l-79 161l-117 -161h-36z" />
    <glyph glyph-name="Cdotaccent" unicode="&#x10a;" horiz-adv-x="684" 
d="M363 -8q-111 0 -178.5 46t-92 129.5t-7.5 195.5q18 112 67 190t124.5 119t173.5 41q74 0 129 -22t95 -66l-23 -36q-44 46 -91.5 64.5t-112.5 18.5q-131 0 -212.5 -83.5t-105.5 -235.5q-15 -96 4.5 -168t76.5 -112t153 -40q61 0 118 21t104 68l22 -34
q-45 -47 -110.5 -71.5t-133.5 -24.5zM445 818l10 63h62l-10 -63h-62z" />
    <glyph glyph-name="cdotaccent" unicode="&#x10b;" horiz-adv-x="487" 
d="M246 -8q-69 0 -117 31t-68 91t-6 146q20 120 88.5 184t168.5 64q48 0 89 -16t67 -48l-23 -30q-29 29 -63.5 42t-67.5 13q-85 0 -142.5 -56t-74.5 -160q-17 -108 24.5 -165t125.5 -57q39 0 80 14.5t76 48.5l21 -33q-32 -33 -82.5 -51t-95.5 -18zM307 619l10 63h64l-10 -63
h-64z" />
    <glyph glyph-name="Ccaron" unicode="&#x10c;" horiz-adv-x="684" 
d="M363 -8q-111 0 -178.5 46t-92 129.5t-7.5 195.5q18 112 67 190t124.5 119t173.5 41q74 0 129 -22t95 -66l-23 -36q-44 46 -91.5 64.5t-112.5 18.5q-131 0 -212.5 -83.5t-105.5 -235.5q-15 -96 4.5 -168t76.5 -112t153 -40q61 0 118 21t104 68l22 -34
q-45 -47 -110.5 -71.5t-133.5 -24.5zM444 765l-103 170h36l91 -132l125 132h38l-139 -170h-48z" />
    <glyph glyph-name="ccaron" unicode="&#x10d;" horiz-adv-x="487" 
d="M246 -8q-69 0 -117 31t-68 91t-6 146q20 120 88.5 184t168.5 64q48 0 89 -16t67 -48l-23 -30q-29 29 -63.5 42t-67.5 13q-85 0 -142.5 -56t-74.5 -160q-17 -108 24.5 -165t125.5 -57q39 0 80 14.5t76 48.5l21 -33q-32 -33 -82.5 -51t-95.5 -18zM304 549l-87 200h34
l79 -161l117 161h36l-131 -200h-48z" />
    <glyph glyph-name="Dcaron" unicode="&#x10e;" horiz-adv-x="733" 
d="M57 0l112 705h209q119 0 191.5 -42.5t100 -123.5t9.5 -196q-28 -173 -132.5 -258t-275.5 -85h-214zM105 39h168q158 0 248 77t115 237q25 157 -40.5 235t-223.5 78h-168zM430 765l-103 170h36l91 -132l125 132h38l-139 -170h-48z" />
    <glyph glyph-name="dcaron" unicode="&#x10f;" horiz-adv-x="583" 
d="M240 -8q-69 0 -115.5 31t-65 91t-4.5 146q20 120 89 184t167 64q70 0 115.5 -37t55.5 -102h-10l58 367h42l-117 -736h-42l21 131h14q-28 -65 -81 -102t-127 -37zM244 31q80 0 137.5 56.5t74.5 162.5t-24 162.5t-125 56.5q-80 0 -136.5 -56.5t-73.5 -162.5t22.5 -162.5
t124.5 -56.5zM597 548l30 188h49l-52 -188h-27z" />
    <glyph glyph-name="Dcroat" unicode="&#x110;" horiz-adv-x="733" 
d="M57 0l112 705h209q119 0 191.5 -42.5t100 -123.5t9.5 -196q-28 -173 -132.5 -258t-275.5 -85h-214zM105 39h168q158 0 248 77t115 237q25 157 -40.5 235t-223.5 78h-168zM23 340l6 37h334l-6 -37h-334z" />
    <glyph glyph-name="dcroat" unicode="&#x111;" horiz-adv-x="583" 
d="M240 -8q-69 0 -115.5 31t-65 91t-4.5 146q20 120 89 184t167 64q70 0 115.5 -37t55.5 -102h-10l36 225h-197l6 37h196l17 105h42l-17 -105h98l-6 -37h-98l-94 -594h-42l21 131h14q-28 -65 -81 -102t-127 -37zM244 31q80 0 137.5 56.5t74.5 162.5t-24 162.5t-125 56.5
q-80 0 -136.5 -56.5t-73.5 -162.5t22.5 -162.5t124.5 -56.5z" />
    <glyph glyph-name="Emacron" unicode="&#x112;" horiz-adv-x="582" 
d="M57 0l112 705h428l-7 -39h-386l-45 -289h364l-6 -39h-364l-48 -299h386l-6 -39h-428zM259 822l6 38h310l-6 -38h-310z" />
    <glyph glyph-name="emacron" unicode="&#x113;" horiz-adv-x="541" 
d="M263 -8q-78 0 -129 32.5t-71 93.5t-7 146q13 78 48 132.5t89 83t123 28.5q66 0 109 -28.5t61 -80t8 -120.5l-4 -27h-409l6 38h387l-17 -13q13 92 -23 142.5t-122 50.5q-62 0 -107 -27t-72 -73.5t-35 -106.5l-2 -15q-14 -105 29.5 -161t138.5 -56q47 0 93 15t83 51l22 -33
q-39 -34 -91.5 -53t-107.5 -19zM206 633l6 38h280l-6 -38h-280z" />
    <glyph glyph-name="Ebreve" unicode="&#x114;" horiz-adv-x="582" 
d="M57 0l112 705h428l-7 -39h-386l-45 -289h364l-6 -39h-364l-48 -299h386l-6 -39h-428zM408 760q-42 0 -75 20t-51 57.5t-17 89.5l33 4q-3 -64 28.5 -99.5t84.5 -35.5t89 35.5t46 99.5l33 -4q-13 -78 -60 -122.5t-111 -44.5z" />
    <glyph glyph-name="ebreve" unicode="&#x115;" horiz-adv-x="541" 
d="M263 -8q-78 0 -129 32.5t-71 93.5t-7 146q13 78 48 132.5t89 83t123 28.5q66 0 109 -28.5t61 -80t8 -120.5l-4 -27h-409l6 38h387l-17 -13q13 92 -23 142.5t-122 50.5q-62 0 -107 -27t-72 -73.5t-35 -106.5l-2 -15q-14 -105 29.5 -161t138.5 -56q47 0 93 15t83 51l22 -33
q-39 -34 -91.5 -53t-107.5 -19zM341 547q-41 0 -71.5 22.5t-46 64.5t-12.5 100l33 4q-4 -74 22.5 -114.5t75.5 -40.5q50 0 82 40.5t42 114.5l33 -4q-8 -58 -29.5 -100t-54 -64.5t-74.5 -22.5z" />
    <glyph glyph-name="Edotaccent" unicode="&#x116;" horiz-adv-x="582" 
d="M57 0l112 705h428l-7 -39h-386l-45 -289h364l-6 -39h-364l-48 -299h386l-6 -39h-428zM382 818l10 63h62l-10 -63h-62z" />
    <glyph glyph-name="edotaccent" unicode="&#x117;" horiz-adv-x="541" 
d="M263 -8q-78 0 -129 32.5t-71 93.5t-7 146q13 78 48 132.5t89 83t123 28.5q66 0 109 -28.5t61 -80t8 -120.5l-4 -27h-409l6 38h387l-17 -13q13 92 -23 142.5t-122 50.5q-62 0 -107 -27t-72 -73.5t-35 -106.5l-2 -15q-14 -105 29.5 -161t138.5 -56q47 0 93 15t83 51l22 -33
q-39 -34 -91.5 -53t-107.5 -19zM311 619l10 63h64l-10 -63h-64z" />
    <glyph glyph-name="Eogonek" unicode="&#x118;" horiz-adv-x="582" 
d="M57 0l112 705h428l-7 -39h-386l-45 -289h364l-6 -39h-364l-48 -299h386l-6 -39h-428zM429 -190q-43 0 -66 24.5t-23 62.5q0 44 28.5 79.5t72.5 54.5l18 -31q-40 -16 -60 -43t-20 -56q0 -25 13.5 -40t41.5 -15q12 0 25.5 3t28.5 10l9 -34q-10 -5 -29 -10t-39 -5z" />
    <glyph glyph-name="eogonek" unicode="&#x119;" horiz-adv-x="541" 
d="M263 -8q-78 0 -129 32.5t-71 93.5t-7 146q13 78 48 132.5t89 83t123 28.5q66 0 109 -28.5t61 -80t8 -120.5l-4 -27h-409l6 38h387l-17 -13q13 92 -23 142.5t-122 50.5q-62 0 -107 -27t-72 -73.5t-35 -106.5l-2 -15q-14 -105 29.5 -161t138.5 -56q47 0 93 15t83 51l22 -33
q-39 -34 -91.5 -53t-107.5 -19zM284 -190q-43 0 -66 24.5t-23 62.5q0 44 28.5 79.5t72.5 54.5l18 -31q-40 -16 -60 -43t-20 -56q0 -25 13.5 -40t41.5 -15q12 0 25.5 3t28.5 10l9 -34q-10 -5 -29 -10t-39 -5z" />
    <glyph glyph-name="Ecaron" unicode="&#x11a;" horiz-adv-x="582" 
d="M57 0l112 705h428l-7 -39h-386l-45 -289h364l-6 -39h-364l-48 -299h386l-6 -39h-428zM381 765l-103 170h36l91 -132l125 132h38l-139 -170h-48z" />
    <glyph glyph-name="ecaron" unicode="&#x11b;" horiz-adv-x="541" 
d="M263 -8q-78 0 -129 32.5t-71 93.5t-7 146q13 78 48 132.5t89 83t123 28.5q66 0 109 -28.5t61 -80t8 -120.5l-4 -27h-409l6 38h387l-17 -13q13 92 -23 142.5t-122 50.5q-62 0 -107 -27t-72 -73.5t-35 -106.5l-2 -15q-14 -105 29.5 -161t138.5 -56q47 0 93 15t83 51l22 -33
q-39 -34 -91.5 -53t-107.5 -19zM308 549l-87 200h34l79 -161l117 161h36l-131 -200h-48z" />
    <glyph glyph-name="Gcircumflex" unicode="&#x11c;" horiz-adv-x="723" 
d="M372 -8q-116 0 -185.5 45t-94 128.5t-6.5 197.5q18 112 67.5 190t127.5 119t179 41q78 0 130 -22t90 -62l-24 -37q-40 42 -84.5 61t-114.5 19q-133 0 -218.5 -84t-109.5 -236q-24 -150 34 -234.5t208 -84.5q57 0 108 11t99 33l-18 -39l44 280h-194l7 39h234l-50 -313
q-27 -16 -66 -27.5t-81.5 -18t-81.5 -6.5zM319 765l139 170h48l103 -170h-37l-92 132l-124 -132h-37z" />
    <glyph glyph-name="gcircumflex" unicode="&#x11d;" horiz-adv-x="587" 
d="M223 -223q-59 0 -109.5 17.5t-87.5 52.5l22 34q29 -24 56 -38t57.5 -20.5t68.5 -6.5q78 0 125 42.5t60 121.5l27 171h12q-26 -66 -82 -103t-127 -37q-69 0 -115.5 33t-65.5 91.5t-7 134.5q18 114 87.5 176t169.5 62q72 0 118 -37t54 -104l-8 13l28 120h41q-7 -28 -14 -55
t-11 -53l-64 -405q-16 -104 -75.5 -157t-159.5 -53zM246 50q83 0 140 55.5t73 154.5t-24 154t-123 55t-140.5 -55t-73.5 -154t24.5 -154.5t123.5 -55.5zM209 549l131 200h48l87 -200h-34l-79 161l-117 -161h-36z" />
    <glyph glyph-name="Gbreve" unicode="&#x11e;" horiz-adv-x="723" 
d="M372 -8q-116 0 -185.5 45t-94 128.5t-6.5 197.5q18 112 67.5 190t127.5 119t179 41q78 0 130 -22t90 -62l-24 -37q-40 42 -84.5 61t-114.5 19q-133 0 -218.5 -84t-109.5 -236q-24 -150 34 -234.5t208 -84.5q57 0 108 11t99 33l-18 -39l44 280h-194l7 39h234l-50 -313
q-27 -16 -66 -27.5t-81.5 -18t-81.5 -6.5zM476 760q-42 0 -75 20t-51 57.5t-17 89.5l33 4q-3 -64 28.5 -99.5t84.5 -35.5t89 35.5t46 99.5l33 -4q-13 -78 -60 -122.5t-111 -44.5z" />
    <glyph glyph-name="gbreve" unicode="&#x11f;" horiz-adv-x="587" 
d="M223 -223q-59 0 -109.5 17.5t-87.5 52.5l22 34q29 -24 56 -38t57.5 -20.5t68.5 -6.5q78 0 125 42.5t60 121.5l27 171h12q-26 -66 -82 -103t-127 -37q-69 0 -115.5 33t-65.5 91.5t-7 134.5q18 114 87.5 176t169.5 62q72 0 118 -37t54 -104l-8 13l28 120h41q-7 -28 -14 -55
t-11 -53l-64 -405q-16 -104 -75.5 -157t-159.5 -53zM246 50q83 0 140 55.5t73 154.5t-24 154t-123 55t-140.5 -55t-73.5 -154t24.5 -154.5t123.5 -55.5zM352 547q-41 0 -71.5 22.5t-46 64.5t-12.5 100l33 4q-4 -74 22.5 -114.5t75.5 -40.5q50 0 82 40.5t42 114.5l33 -4
q-8 -58 -29.5 -100t-54 -64.5t-74.5 -22.5z" />
    <glyph glyph-name="Gdotaccent" unicode="&#x120;" horiz-adv-x="723" 
d="M372 -8q-116 0 -185.5 45t-94 128.5t-6.5 197.5q18 112 67.5 190t127.5 119t179 41q78 0 130 -22t90 -62l-24 -37q-40 42 -84.5 61t-114.5 19q-133 0 -218.5 -84t-109.5 -236q-24 -150 34 -234.5t208 -84.5q57 0 108 11t99 33l-18 -39l44 280h-194l7 39h234l-50 -313
q-27 -16 -66 -27.5t-81.5 -18t-81.5 -6.5zM450 818l10 63h62l-10 -63h-62z" />
    <glyph glyph-name="gdotaccent" unicode="&#x121;" horiz-adv-x="587" 
d="M223 -223q-59 0 -109.5 17.5t-87.5 52.5l22 34q29 -24 56 -38t57.5 -20.5t68.5 -6.5q78 0 125 42.5t60 121.5l27 171h12q-26 -66 -82 -103t-127 -37q-69 0 -115.5 33t-65.5 91.5t-7 134.5q18 114 87.5 176t169.5 62q72 0 118 -37t54 -104l-8 13l28 120h41q-7 -28 -14 -55
t-11 -53l-64 -405q-16 -104 -75.5 -157t-159.5 -53zM246 50q83 0 140 55.5t73 154.5t-24 154t-123 55t-140.5 -55t-73.5 -154t24.5 -154.5t123.5 -55.5zM322 619l10 63h64l-10 -63h-64z" />
    <glyph glyph-name="uni0122" unicode="&#x122;" horiz-adv-x="723" 
d="M372 -8q-116 0 -185.5 45t-94 128.5t-6.5 197.5q18 112 67.5 190t127.5 119t179 41q78 0 130 -22t90 -62l-24 -37q-40 42 -84.5 61t-114.5 19q-133 0 -218.5 -84t-109.5 -236q-24 -150 34 -234.5t208 -84.5q57 0 108 11t99 33l-18 -39l44 280h-194l7 39h234l-50 -313
q-27 -16 -66 -27.5t-81.5 -18t-81.5 -6.5zM316 -259l-20 22q27 23 35 44t13 49l13 -7h-50l11 65h70l-10 -61q-6 -36 -20.5 -64t-41.5 -48z" />
    <glyph glyph-name="uni0123" unicode="&#x123;" horiz-adv-x="587" 
d="M223 -223q-59 0 -109.5 17.5t-87.5 52.5l22 34q29 -24 56 -38t57.5 -20.5t68.5 -6.5q78 0 125 42.5t60 121.5l27 171h12q-26 -66 -82 -103t-127 -37q-69 0 -115.5 33t-65.5 91.5t-7 134.5q18 114 87.5 176t169.5 62q72 0 118 -37t54 -104l-8 13l28 120h41q-7 -28 -14 -55
t-11 -53l-64 -405q-16 -104 -75.5 -157t-159.5 -53zM246 50q83 0 140 55.5t73 154.5t-24 154t-123 55t-140.5 -55t-73.5 -154t24.5 -154.5t123.5 -55.5zM312 570l10 61q6 36 20.5 64t41.5 48l20 -22q-27 -23 -35 -43.5t-13 -49.5l-13 7h50l-11 -65h-70z" />
    <glyph glyph-name="Hcircumflex" unicode="&#x124;" horiz-adv-x="759" 
d="M57 0l112 705h42l-52 -328h481l52 328h42l-112 -705h-42l54 338h-481l-54 -338h-42zM308 765l139 170h48l103 -170h-37l-92 132l-124 -132h-37z" />
    <glyph glyph-name="hcircumflex" unicode="&#x125;" horiz-adv-x="570" 
d="M48 0l117 736h42l-57 -357h-14q30 63 84.5 96t125.5 33q93 0 128 -52t20 -146l-49 -310h-42l49 308q14 87 -14 124t-100 37q-82 0 -135.5 -49t-66.5 -130l-46 -290h-42zM218 765l139 170h48l103 -170h-37l-92 132l-124 -132h-37z" />
    <glyph glyph-name="Hbar" unicode="&#x126;" horiz-adv-x="767" 
d="M62 0l83 527h-98l6 38h98l23 140h42l-23 -140h479l23 140h42l-23 -140h98l-6 -38h-98l-83 -527h-42l54 338h-479l-54 -338h-42zM164 377h479l23 150h-479z" />
    <glyph glyph-name="hbar" unicode="&#x127;" horiz-adv-x="570" 
d="M48 0l94 594h-99l6 37h99l17 105h42l-17 -105h204l-6 -37h-204l-34 -215h-14q30 63 84.5 96t125.5 33q93 0 128 -52t20 -146l-49 -310h-42l49 308q14 87 -14 124t-100 37q-82 0 -135.5 -49t-66.5 -130l-46 -290h-42z" />
    <glyph glyph-name="Itilde" unicode="&#x128;" horiz-adv-x="236" 
d="M57 0l112 705h42l-112 -705h-42zM35 792l-32 2q11 58 40.5 89.5t73.5 31.5q29 0 54 -15t48 -32q20 -15 38 -26.5t37 -11.5q59 0 79 87l32 -2q-11 -58 -40 -89.5t-73 -31.5q-29 0 -54.5 15.5t-48.5 31.5q-19 15 -38 26.5t-37 11.5q-59 0 -79 -87z" />
    <glyph glyph-name="itilde" unicode="&#x129;" horiz-adv-x="218" 
d="M48 0l79 500h42l-79 -500h-42zM26 595l-32 2q11 58 37.5 89.5t66.5 31.5q26 0 43.5 -15t32.5 -32q14 -15 27.5 -26.5t29.5 -11.5q52 0 71 87l32 -2q-10 -58 -37 -89.5t-66 -31.5q-25 0 -43.5 15t-33.5 32q-13 15 -26.5 26.5t-30.5 11.5q-52 0 -71 -87z" />
    <glyph glyph-name="Imacron" unicode="&#x12a;" horiz-adv-x="236" 
d="M57 0l112 705h42l-112 -705h-42zM54 822l6 38h310l-6 -38h-310z" />
    <glyph glyph-name="imacron" unicode="&#x12b;" horiz-adv-x="218" 
d="M48 0l79 500h42l-79 -500h-42zM30 633l6 38h280l-6 -38h-280z" />
    <glyph glyph-name="Ibreve" unicode="&#x12c;" horiz-adv-x="236" 
d="M57 0l112 705h42l-112 -705h-42zM203 760q-42 0 -75 20t-51 57.5t-17 89.5l33 4q-3 -64 28.5 -99.5t84.5 -35.5t89 35.5t46 99.5l33 -4q-13 -78 -60 -122.5t-111 -44.5z" />
    <glyph glyph-name="ibreve" unicode="&#x12d;" horiz-adv-x="218" 
d="M48 0l79 500h42l-79 -500h-42zM165 547q-41 0 -71.5 22.5t-46 64.5t-12.5 100l33 4q-4 -74 22.5 -114.5t75.5 -40.5q50 0 82 40.5t42 114.5l33 -4q-8 -58 -29.5 -100t-54 -64.5t-74.5 -22.5z" />
    <glyph glyph-name="Iogonek" unicode="&#x12e;" horiz-adv-x="236" 
d="M57 0l112 705h42l-112 -705h-42zM69 -190q-43 0 -66 24.5t-23 62.5q0 44 28.5 79.5t72.5 54.5l18 -31q-40 -16 -60 -43t-20 -56q0 -25 13.5 -40t41.5 -15q12 0 25.5 3t28.5 10l9 -34q-10 -5 -29 -10t-39 -5z" />
    <glyph glyph-name="iogonek" unicode="&#x12f;" horiz-adv-x="218" 
d="M48 0l79 500h42l-79 -500h-42zM137 631l10 63h64l-10 -63h-64zM61 -190q-43 0 -66 24.5t-23 62.5q0 44 28.5 79.5t72.5 54.5l18 -31q-40 -16 -60 -43t-20 -56q0 -25 13.5 -40t41.5 -15q12 0 25.5 3t28.5 10l9 -34q-10 -5 -29 -10t-39 -5z" />
    <glyph glyph-name="Idotaccent" unicode="&#x130;" horiz-adv-x="236" 
d="M57 0l112 705h42l-112 -705h-42zM177 818l10 63h62l-10 -63h-62z" />
    <glyph glyph-name="dotlessi" unicode="&#x131;" horiz-adv-x="218" 
d="M48 0l79 500h42l-79 -500h-42z" />
    <glyph glyph-name="IJ" unicode="&#x132;" horiz-adv-x="536" 
d="M57 0l112 705h42l-112 -705h-42zM237 -186q-16 0 -33.5 2t-35.5 9l6 39q18 -7 33.5 -9.5t29.5 -2.5q46 0 76 30t40 94l116 729h42l-116 -731q-8 -50 -28.5 -86t-53 -55t-76.5 -19z" />
    <glyph glyph-name="Jcircumflex" unicode="&#x134;" horiz-adv-x="300" 
d="M1 -186q-16 0 -33.5 2t-35.5 9l6 39q18 -7 33.5 -9.5t29.5 -2.5q46 0 76 30t40 94l116 729h42l-116 -731q-8 -50 -28.5 -86t-53 -55t-76.5 -19zM109 765l139 170h48l103 -170h-37l-92 132l-124 -132h-37z" />
    <glyph glyph-name="jcircumflex" unicode="&#x135;" horiz-adv-x="218" 
d="M-66 -218q-10 0 -28.5 3.5t-29.5 7.5l7 40q11 -4 27 -8t29 -4q47 0 73 31t36 97l87 551h42l-89 -560q-12 -78 -51.5 -118t-102.5 -40zM30 549l131 200h48l87 -200h-34l-79 161l-117 -161h-36z" />
    <glyph glyph-name="uni0136" unicode="&#x136;" horiz-adv-x="605" 
d="M57 0l112 705h42l-52 -328h2l414 328h65l-462 -362v30l381 -373h-61l-343 338h-2l-54 -338h-42zM219 -259l-20 22q27 23 35 44t13 49l13 -7h-50l11 65h70l-10 -61q-6 -36 -20.5 -64t-41.5 -48z" />
    <glyph glyph-name="uni0137" unicode="&#x137;" horiz-adv-x="482" 
d="M48 0l117 736h42l-74 -467h2l291 231h62l-330 -259v33l284 -274h-57l-254 245h-2l-39 -245h-42zM151 -259l-20 22q27 23 35 44t13 49l13 -7h-50l11 65h70l-10 -61q-6 -36 -20.5 -64t-41.5 -48z" />
    <glyph glyph-name="kgreenlandic" unicode="&#x138;" horiz-adv-x="482" 
d="M48 0l79 500h42l-36 -231h2l291 231h62l-330 -259v33l284 -274h-57l-254 245h-2l-39 -245h-42z" />
    <glyph glyph-name="Lacute" unicode="&#x139;" horiz-adv-x="532" 
d="M57 0l112 705h42l-106 -666h378l-6 -39h-420zM181 765l131 170h57l-150 -170h-38z" />
    <glyph glyph-name="lacute" unicode="&#x13a;" horiz-adv-x="218" 
d="M48 0l117 736h42l-117 -736h-42zM172 765l131 170h57l-150 -170h-38z" />
    <glyph glyph-name="uni013B" unicode="&#x13b;" horiz-adv-x="532" 
d="M57 0l112 705h42l-106 -666h378l-6 -39h-420zM213 -259l-20 22q27 23 35 44t13 49l13 -7h-50l11 65h70l-10 -61q-6 -36 -20.5 -64t-41.5 -48z" />
    <glyph glyph-name="uni013C" unicode="&#x13c;" horiz-adv-x="218" 
d="M48 0l117 736h42l-117 -736h-42zM19 -259l-20 22q27 23 35 44t13 49l13 -7h-50l11 65h70l-10 -61q-6 -36 -20.5 -64t-41.5 -48z" />
    <glyph glyph-name="Lcaron" unicode="&#x13d;" horiz-adv-x="532" 
d="M57 0l112 705h42l-106 -666h378l-6 -39h-420zM294 489l34 216h49l-53 -216h-30z" />
    <glyph glyph-name="lcaron" unicode="&#x13e;" horiz-adv-x="218" 
d="M48 0l117 736h42l-117 -736h-42zM229 548l30 188h49l-52 -188h-27z" />
    <glyph glyph-name="Ldot" unicode="&#x13f;" horiz-adv-x="532" 
d="M57 0l112 705h42l-106 -666h378l-6 -39h-420zM365 352l11 68h69l-11 -68h-69z" />
    <glyph glyph-name="ldot" unicode="&#x140;" horiz-adv-x="218" 
d="M48 0l117 736h42l-117 -736h-42zM197 323l11 68h69l-11 -68h-69z" />
    <glyph glyph-name="Lslash" unicode="&#x141;" horiz-adv-x="532" 
d="M57 0l112 705h42l-106 -666h378l-6 -39h-420zM21 294l-17 34l339 157l17 -34z" />
    <glyph glyph-name="lslash" unicode="&#x142;" horiz-adv-x="218" 
d="M48 0l117 736h42l-117 -736h-42zM17 283l-17 35l240 113l17 -36z" />
    <glyph glyph-name="Nacute" unicode="&#x143;" horiz-adv-x="739" 
d="M57 0l112 705h36l381 -663h-16l105 663h39l-112 -705h-35l-381 663h15l-105 -663h-39zM433 765l131 170h57l-150 -170h-38z" />
    <glyph glyph-name="nacute" unicode="&#x144;" horiz-adv-x="570" 
d="M48 0l62 392q4 26 6 53t3 55h41l-10 -120l-14 -1q30 63 84.5 96t125.5 33q93 0 128 -52t20 -146l-49 -310h-42l49 308q14 87 -14 124t-100 37q-82 0 -135.5 -49t-66.5 -130l-46 -290h-42zM313 549l135 200h55l-154 -200h-36z" />
    <glyph glyph-name="uni0145" unicode="&#x145;" horiz-adv-x="739" 
d="M57 0l112 705h36l381 -663h-16l105 663h39l-112 -705h-35l-381 663h15l-105 -663h-39zM280 -259l-20 22q27 23 35 44t13 49l13 -7h-50l11 65h70l-10 -61q-6 -36 -20.5 -64t-41.5 -48z" />
    <glyph glyph-name="uni0146" unicode="&#x146;" horiz-adv-x="570" 
d="M48 0l62 392q4 26 6 53t3 55h41l-10 -120l-14 -1q30 63 84.5 96t125.5 33q93 0 128 -52t20 -146l-49 -310h-42l49 308q14 87 -14 124t-100 37q-82 0 -135.5 -49t-66.5 -130l-46 -290h-42zM194 -259l-20 22q27 23 35 44t13 49l13 -7h-50l11 65h70l-10 -61
q-6 -36 -20.5 -64t-41.5 -48z" />
    <glyph glyph-name="Ncaron" unicode="&#x147;" horiz-adv-x="739" 
d="M57 0l112 705h36l381 -663h-16l105 663h39l-112 -705h-35l-381 663h15l-105 -663h-39zM428 765l-103 170h36l91 -132l125 132h38l-139 -170h-48z" />
    <glyph glyph-name="ncaron" unicode="&#x148;" horiz-adv-x="570" 
d="M48 0l62 392q4 26 6 53t3 55h41l-10 -120l-14 -1q30 63 84.5 96t125.5 33q93 0 128 -52t20 -146l-49 -310h-42l49 308q14 87 -14 124t-100 37q-82 0 -135.5 -49t-66.5 -130l-46 -290h-42zM307 549l-87 200h34l79 -161l117 161h36l-131 -200h-48z" />
    <glyph glyph-name="napostrophe" unicode="&#x149;" horiz-adv-x="662" 
d="M162 575l-23 20q25 24 34 44.5t12 39.5l18 -6h-51l11 70h69l-10 -61q-5 -32 -18 -57t-42 -50zM140 0l62 392q4 26 6 53t3 55h41l-10 -120l-14 -1q30 63 84.5 96t125.5 33q93 0 128 -52t20 -146l-49 -310h-42l49 308q14 87 -14 124t-100 37q-82 0 -135.5 -49t-66.5 -130
l-46 -290h-42z" />
    <glyph glyph-name="Eng" unicode="&#x14a;" horiz-adv-x="739" 
d="M380 -193l3 38l44 3q55 4 89 37t44 93l7 48v-26l-381 663h15l-105 -663h-39l112 705h36l381 -663h-16l105 663h39l-115 -726q-8 -51 -31.5 -88t-59 -57.5t-82.5 -23.5z" />
    <glyph glyph-name="eng" unicode="&#x14b;" horiz-adv-x="570" 
d="M48 0l62 392q4 26 6 53t3 55h41l-10 -120l-14 -1q30 63 84.5 96t125.5 33q93 0 128 -52t20 -146l-58 -364q-13 -78 -56.5 -121t-112.5 -43q-16 0 -31.5 3.5t-26.5 7.5l7 40q11 -4 23.5 -8t31.5 -4q54 0 84.5 34t40.5 100l56 353q14 87 -14 124t-100 37q-82 0 -135.5 -49
t-66.5 -130l-46 -290h-42z" />
    <glyph glyph-name="Omacron" unicode="&#x14c;" horiz-adv-x="759" 
d="M86 363q18 112 66.5 190t123.5 119t171 41q100 0 163.5 -46.5t88 -130t6.5 -194.5q-17 -111 -66 -189.5t-124 -119.5t-172 -41q-99 0 -162.5 46t-87.5 129.5t-7 195.5zM129 353q-16 -99 4.5 -170.5t74.5 -110.5t138 -39q130 0 211 84t105 235q16 98 -5 170t-74.5 111
t-137.5 39q-130 0 -210.5 -83.5t-105.5 -235.5zM315 822l6 38h310l-6 -38h-310z" />
    <glyph glyph-name="omacron" unicode="&#x14d;" horiz-adv-x="553" 
d="M240 -8q-69 0 -115.5 31t-64.5 91t-5 146q13 80 48.5 135.5t88.5 84t119 28.5q70 0 116 -31t65 -91t5 -146q-13 -80 -49 -135.5t-89 -84t-119 -28.5zM244 31q80 0 137.5 56.5t74.5 162.5t-24 162.5t-125 56.5q-80 0 -136.5 -56.5t-73.5 -162.5t22.5 -162.5t124.5 -56.5z
M198 633l6 38h280l-6 -38h-280z" />
    <glyph glyph-name="Obreve" unicode="&#x14e;" horiz-adv-x="759" 
d="M86 363q18 112 66.5 190t123.5 119t171 41q100 0 163.5 -46.5t88 -130t6.5 -194.5q-17 -111 -66 -189.5t-124 -119.5t-172 -41q-99 0 -162.5 46t-87.5 129.5t-7 195.5zM129 353q-16 -99 4.5 -170.5t74.5 -110.5t138 -39q130 0 211 84t105 235q16 98 -5 170t-74.5 111
t-137.5 39q-130 0 -210.5 -83.5t-105.5 -235.5zM464 760q-42 0 -75 20t-51 57.5t-17 89.5l33 4q-3 -64 28.5 -99.5t84.5 -35.5t89 35.5t46 99.5l33 -4q-13 -78 -60 -122.5t-111 -44.5z" />
    <glyph glyph-name="obreve" unicode="&#x14f;" horiz-adv-x="553" 
d="M240 -8q-69 0 -115.5 31t-64.5 91t-5 146q13 80 48.5 135.5t88.5 84t119 28.5q70 0 116 -31t65 -91t5 -146q-13 -80 -49 -135.5t-89 -84t-119 -28.5zM244 31q80 0 137.5 56.5t74.5 162.5t-24 162.5t-125 56.5q-80 0 -136.5 -56.5t-73.5 -162.5t22.5 -162.5t124.5 -56.5z
M333 547q-41 0 -71.5 22.5t-46 64.5t-12.5 100l33 4q-4 -74 22.5 -114.5t75.5 -40.5q50 0 82 40.5t42 114.5l33 -4q-8 -58 -29.5 -100t-54 -64.5t-74.5 -22.5z" />
    <glyph glyph-name="Ohungarumlaut" unicode="&#x150;" horiz-adv-x="759" 
d="M86 363q18 112 66.5 190t123.5 119t171 41q100 0 163.5 -46.5t88 -130t6.5 -194.5q-17 -111 -66 -189.5t-124 -119.5t-172 -41q-99 0 -162.5 46t-87.5 129.5t-7 195.5zM129 353q-16 -99 4.5 -170.5t74.5 -110.5t138 -39q130 0 211 84t105 235q16 98 -5 170t-74.5 111
t-137.5 39q-130 0 -210.5 -83.5t-105.5 -235.5zM393 765l100 170h52l-125 -170h-27zM502 765l99 170h52l-124 -170h-27z" />
    <glyph glyph-name="ohungarumlaut" unicode="&#x151;" horiz-adv-x="553" 
d="M240 -8q-69 0 -115.5 31t-64.5 91t-5 146q13 80 48.5 135.5t88.5 84t119 28.5q70 0 116 -31t65 -91t5 -146q-13 -80 -49 -135.5t-89 -84t-119 -28.5zM244 31q80 0 137.5 56.5t74.5 162.5t-24 162.5t-125 56.5q-80 0 -136.5 -56.5t-73.5 -162.5t22.5 -162.5t124.5 -56.5z
M365 549l76 200h48l-97 -200h-27zM256 549l76 200h48l-97 -200h-27z" />
    <glyph glyph-name="OE" unicode="&#x152;" horiz-adv-x="1057" 
d="M532 0l112 705h428l-7 -39h-386l-45 -289h366l-6 -39h-366l-48 -299h386l-6 -39h-428zM343 -8q-102 0 -165 46.5t-86 130t-6 194.5q18 112 66.5 190t123.5 119t171 41q65 0 118 -22t87 -68l-10 -58q-26 50 -76.5 78.5t-120.5 28.5q-130 0 -211 -83.5t-105 -235.5
q-15 -97 3.5 -169t72 -111.5t139.5 -39.5q71 0 129.5 27.5t101.5 80.5l-10 -66q-46 -42 -101 -62.5t-121 -20.5z" />
    <glyph glyph-name="oe" unicode="&#x153;" horiz-adv-x="936" 
d="M240 -8q-69 0 -115.5 31t-65 91t-4.5 146q13 80 48.5 135.5t88.5 84t119 28.5q84 0 132 -46t53 -131h-17q21 62 58.5 101t84 57.5t93.5 18.5q64 0 105.5 -28t59 -78t9.5 -117l-4 -33h-404l6 38h382l-18 -13q13 92 -22 142.5t-118 50.5q-59 0 -103 -27t-71 -73.5
t-35 -106.5l-2 -15q-14 -105 29 -161t134 -56q44 0 89 15t82 51l22 -33q-36 -34 -89.5 -53t-104.5 -19q-90 0 -141.5 44.5t-61.5 126.5l16 3q-32 -84 -92 -129t-143 -45zM244 31q80 0 138 56.5t74 162.5q17 106 -24 162.5t-125 56.5q-80 0 -136.5 -56.5t-73.5 -162.5
t22.5 -162.5t124.5 -56.5z" />
    <glyph glyph-name="Racute" unicode="&#x154;" horiz-adv-x="684" 
d="M57 0l112 705h265q110 0 161.5 -53t36.5 -148q-9 -56 -42 -95.5t-83 -59.5t-110 -20l8 8h8q40 0 67.5 -19t40.5 -66l71 -252h-45l-65 236q-15 54 -49.5 70t-95.5 16h-187l-51 -322h-42zM156 361h234q85 0 136 39t62 109q12 77 -29 117t-131 40h-224zM401 765l131 170h57
l-150 -170h-38z" />
    <glyph glyph-name="racute" unicode="&#x155;" horiz-adv-x="336" 
d="M46 0l61 386q5 28 8 57t4 57h41l-9 -109l-10 -1q16 40 45 66t65.5 39t72.5 13q12 0 23 -1t22 -4l-9 -39q-9 3 -20.5 4t-24.5 1q-49 0 -86.5 -21.5t-60.5 -55.5t-29 -72l-51 -320h-42zM237 549l135 200h55l-154 -200h-36z" />
    <glyph glyph-name="uni0156" unicode="&#x156;" horiz-adv-x="684" 
d="M57 0l112 705h265q110 0 161.5 -53t36.5 -148q-9 -56 -42 -95.5t-83 -59.5t-110 -20l8 8h8q40 0 67.5 -19t40.5 -66l71 -252h-45l-65 236q-15 54 -49.5 70t-95.5 16h-187l-51 -322h-42zM156 361h234q85 0 136 39t62 109q12 77 -29 117t-131 40h-224zM248 -259l-20 22
q27 23 35 44t13 49l13 -7h-50l11 65h70l-10 -61q-6 -36 -20.5 -64t-41.5 -48z" />
    <glyph glyph-name="uni0157" unicode="&#x157;" horiz-adv-x="336" 
d="M46 0l61 386q5 28 8 57t4 57h41l-9 -109l-10 -1q16 40 45 66t65.5 39t72.5 13q12 0 23 -1t22 -4l-9 -39q-9 3 -20.5 4t-24.5 1q-49 0 -86.5 -21.5t-60.5 -55.5t-29 -72l-51 -320h-42zM17 -259l-20 22q27 23 35 44t13 49l13 -7h-50l11 65h70l-10 -61q-6 -36 -20.5 -64
t-41.5 -48z" />
    <glyph glyph-name="Rcaron" unicode="&#x158;" horiz-adv-x="684" 
d="M57 0l112 705h265q110 0 161.5 -53t36.5 -148q-9 -56 -42 -95.5t-83 -59.5t-110 -20l8 8h8q40 0 67.5 -19t40.5 -66l71 -252h-45l-65 236q-15 54 -49.5 70t-95.5 16h-187l-51 -322h-42zM156 361h234q85 0 136 39t62 109q12 77 -29 117t-131 40h-224zM396 765l-103 170h36
l91 -132l125 132h38l-139 -170h-48z" />
    <glyph glyph-name="rcaron" unicode="&#x159;" horiz-adv-x="336" 
d="M46 0l61 386q5 28 8 57t4 57h41l-9 -109l-10 -1q16 40 45 66t65.5 39t72.5 13q12 0 23 -1t22 -4l-9 -39q-9 3 -20.5 4t-24.5 1q-49 0 -86.5 -21.5t-60.5 -55.5t-29 -72l-51 -320h-42zM231 549l-87 200h34l79 -161l117 161h36l-131 -200h-48z" />
    <glyph glyph-name="Sacute" unicode="&#x15a;" horiz-adv-x="604" 
d="M280 -8q-86 0 -149 21.5t-106 53.5l24 36q50 -34 101 -52t130 -18q96 0 152 39t66 102q10 59 -21 94t-114 46l-86 12q-101 14 -142 65.5t-28 130.5q9 55 44.5 98t93.5 68t134 25q74 0 131 -22.5t94 -56.5l-22 -36q-42 37 -91 55.5t-116 18.5q-93 0 -153.5 -42.5
t-71.5 -112.5q-10 -64 21 -101.5t114 -48.5l87 -12q101 -13 141.5 -59t27.5 -127q-8 -50 -42.5 -90.5t-90.5 -63.5t-128 -23zM376 765l131 170h57l-150 -170h-38z" />
    <glyph glyph-name="sacute" unicode="&#x15b;" horiz-adv-x="492" 
d="M209 -8q-52 0 -99.5 16.5t-74.5 42.5l22 34q32 -26 71 -40t85 -14q66 0 106 25.5t47 67.5q6 38 -14 62.5t-71 32.5l-64 11q-75 12 -103.5 51.5t-19.5 95.5q7 41 33.5 70t67.5 45t90 16q54 0 96.5 -16t64.5 -39l-23 -34q-26 24 -61 37t-77 13q-64 0 -102 -27.5t-45 -69.5
q-6 -39 11.5 -64.5t63.5 -33.5l67 -12q77 -13 107.5 -49t21.5 -90q-6 -38 -31.5 -68t-68.5 -46.5t-100 -16.5zM281 549l135 200h55l-154 -200h-36z" />
    <glyph glyph-name="Scircumflex" unicode="&#x15c;" horiz-adv-x="604" 
d="M280 -8q-86 0 -149 21.5t-106 53.5l24 36q50 -34 101 -52t130 -18q96 0 152 39t66 102q10 59 -21 94t-114 46l-86 12q-101 14 -142 65.5t-28 130.5q9 55 44.5 98t93.5 68t134 25q74 0 131 -22.5t94 -56.5l-22 -36q-42 37 -91 55.5t-116 18.5q-93 0 -153.5 -42.5
t-71.5 -112.5q-10 -64 21 -101.5t114 -48.5l87 -12q101 -13 141.5 -59t27.5 -127q-8 -50 -42.5 -90.5t-90.5 -63.5t-128 -23zM241 765l139 170h48l103 -170h-37l-92 132l-124 -132h-37z" />
    <glyph glyph-name="scircumflex" unicode="&#x15d;" horiz-adv-x="492" 
d="M209 -8q-52 0 -99.5 16.5t-74.5 42.5l22 34q32 -26 71 -40t85 -14q66 0 106 25.5t47 67.5q6 38 -14 62.5t-71 32.5l-64 11q-75 12 -103.5 51.5t-19.5 95.5q7 41 33.5 70t67.5 45t90 16q54 0 96.5 -16t64.5 -39l-23 -34q-26 24 -61 37t-77 13q-64 0 -102 -27.5t-45 -69.5
q-6 -39 11.5 -64.5t63.5 -33.5l67 -12q77 -13 107.5 -49t21.5 -90q-6 -38 -31.5 -68t-68.5 -46.5t-100 -16.5zM165 549l131 200h48l87 -200h-34l-79 161l-117 -161h-36z" />
    <glyph glyph-name="Scedilla" unicode="&#x15e;" horiz-adv-x="604" 
d="M280 -8q-86 0 -149 21.5t-106 53.5l24 36q50 -34 101 -52t130 -18q96 0 152 39t66 102q10 59 -21 94t-114 46l-86 12q-101 14 -142 65.5t-28 130.5q9 55 44.5 98t93.5 68t134 25q74 0 131 -22.5t94 -56.5l-22 -36q-42 37 -91 55.5t-116 18.5q-93 0 -153.5 -42.5
t-71.5 -112.5q-10 -64 21 -101.5t114 -48.5l87 -12q101 -13 141.5 -59t27.5 -127q-8 -50 -42.5 -90.5t-90.5 -63.5t-128 -23zM261 -190q-23 0 -43.5 5t-33.5 13l12 34q18 -9 33 -12.5t39 -3.5q28 0 47 11.5t19 33.5q0 14 -9 22t-26 8q-11 0 -23 -2t-30 -8l-13 13l31 96h38
l-25 -75l-18 2q13 3 24.5 5t21.5 2q29 0 49 -15.5t20 -44.5q0 -37 -32 -60.5t-81 -23.5z" />
    <glyph glyph-name="scedilla" unicode="&#x15f;" horiz-adv-x="492" 
d="M209 -8q-52 0 -99.5 16.5t-74.5 42.5l22 34q32 -26 71 -40t85 -14q66 0 106 25.5t47 67.5q6 38 -14 62.5t-71 32.5l-64 11q-75 12 -103.5 51.5t-19.5 95.5q7 41 33.5 70t67.5 45t90 16q54 0 96.5 -16t64.5 -39l-23 -34q-26 24 -61 37t-77 13q-64 0 -102 -27.5t-45 -69.5
q-6 -39 11.5 -64.5t63.5 -33.5l67 -12q77 -13 107.5 -49t21.5 -90q-6 -38 -31.5 -68t-68.5 -46.5t-100 -16.5zM186 -190q-23 0 -43.5 5t-33.5 13l12 34q18 -9 33 -12.5t39 -3.5q28 0 47 11.5t19 33.5q0 14 -9 22t-26 8q-11 0 -23 -2t-30 -8l-13 13l31 96h38l-25 -75l-18 2
q13 3 24.5 5t21.5 2q29 0 49 -15.5t20 -44.5q0 -37 -32 -60.5t-81 -23.5z" />
    <glyph glyph-name="Scaron" unicode="&#x160;" horiz-adv-x="604" 
d="M280 -8q-86 0 -149 21.5t-106 53.5l24 36q50 -34 101 -52t130 -18q96 0 152 39t66 102q10 59 -21 94t-114 46l-86 12q-101 14 -142 65.5t-28 130.5q9 55 44.5 98t93.5 68t134 25q74 0 131 -22.5t94 -56.5l-22 -36q-42 37 -91 55.5t-116 18.5q-93 0 -153.5 -42.5
t-71.5 -112.5q-10 -64 21 -101.5t114 -48.5l87 -12q101 -13 141.5 -59t27.5 -127q-8 -50 -42.5 -90.5t-90.5 -63.5t-128 -23zM371 765l-103 170h36l91 -132l125 132h38l-139 -170h-48z" />
    <glyph glyph-name="scaron" unicode="&#x161;" horiz-adv-x="492" 
d="M209 -8q-52 0 -99.5 16.5t-74.5 42.5l22 34q32 -26 71 -40t85 -14q66 0 106 25.5t47 67.5q6 38 -14 62.5t-71 32.5l-64 11q-75 12 -103.5 51.5t-19.5 95.5q7 41 33.5 70t67.5 45t90 16q54 0 96.5 -16t64.5 -39l-23 -34q-26 24 -61 37t-77 13q-64 0 -102 -27.5t-45 -69.5
q-6 -39 11.5 -64.5t63.5 -33.5l67 -12q77 -13 107.5 -49t21.5 -90q-6 -38 -31.5 -68t-68.5 -46.5t-100 -16.5zM275 549l-87 200h34l79 -161l117 161h36l-131 -200h-48z" />
    <glyph glyph-name="uni0162" unicode="&#x162;" horiz-adv-x="590" 
d="M232 0l105 666h-262l7 39h566l-7 -39h-262l-105 -666h-42zM237 -190q-23 0 -43.5 5t-33.5 13l12 34q18 -9 33 -12.5t39 -3.5q28 0 47 11.5t19 33.5q0 14 -9 22t-26 8q-11 0 -23 -2t-30 -8l-13 13l31 96h38l-25 -75l-18 2q13 3 24.5 5t21.5 2q29 0 49 -15.5t20 -44.5
q0 -37 -32 -60.5t-81 -23.5z" />
    <glyph glyph-name="uni0163" unicode="&#x163;" horiz-adv-x="324" 
d="M203 -8q-68 0 -96 38.5t-16 117.5l50 316h-100l6 36h100l23 143l44 16l-25 -159h152l-6 -36h-152l-48 -305q-10 -66 5.5 -97t61.5 -31q20 0 36.5 4t28.5 9l-6 -40q-12 -5 -26 -8.5t-32 -3.5zM153 -190q-23 0 -43.5 5t-33.5 13l12 34q18 -9 33 -12.5t39 -3.5q28 0 47 11.5
t19 33.5q0 14 -9 22t-26 8q-11 0 -23 -2t-30 -8l-13 13l31 96h38l-25 -75l-18 2q13 3 24.5 5t21.5 2q29 0 49 -15.5t20 -44.5q0 -37 -32 -60.5t-81 -23.5z" />
    <glyph glyph-name="Tcaron" unicode="&#x164;" horiz-adv-x="590" 
d="M232 0l105 666h-262l7 39h566l-7 -39h-262l-105 -666h-42zM353 765l-103 170h36l91 -132l125 132h38l-139 -170h-48z" />
    <glyph glyph-name="tcaron" unicode="&#x165;" horiz-adv-x="324" 
d="M203 -8q-68 0 -96 38.5t-16 117.5l50 316h-100l6 36h100l23 143l44 16l-25 -159h152l-6 -36h-152l-48 -305q-10 -66 5.5 -97t61.5 -31q20 0 36.5 4t28.5 9l-6 -40q-12 -5 -26 -8.5t-32 -3.5zM275 517l30 188h49l-52 -188h-27z" />
    <glyph glyph-name="Tbar" unicode="&#x166;" horiz-adv-x="590" 
d="M232 0l105 666h-262l7 39h566l-7 -39h-262l-105 -666h-42zM142 340l6 37h334l-6 -37h-334z" />
    <glyph glyph-name="tbar" unicode="&#x167;" horiz-adv-x="324" 
d="M203 -8q-68 0 -96 38.5t-16 117.5l50 316h-100l6 36h100l23 143l44 16l-25 -159h152l-6 -36h-152l-48 -305q-10 -66 5.5 -97t61.5 -31q20 0 36.5 4t28.5 9l-6 -40q-12 -5 -26 -8.5t-32 -3.5zM36 262l6 36h245l-6 -36h-245z" />
    <glyph glyph-name="Utilde" unicode="&#x168;" horiz-adv-x="722" 
d="M328 -8q-90 0 -146.5 31.5t-78.5 93.5t-8 153l69 435h42l-68 -429q-19 -122 25 -182.5t168 -60.5q107 0 173.5 55.5t87.5 187.5l68 429h42l-69 -435q-15 -98 -55.5 -159.5t-103.5 -90t-146 -28.5zM278 792l-32 2q11 58 40.5 89.5t73.5 31.5q29 0 54 -15t48 -32
q20 -15 38 -26.5t37 -11.5q59 0 79 87l32 -2q-11 -58 -40 -89.5t-73 -31.5q-29 0 -54.5 15.5t-48.5 31.5q-19 15 -38 26.5t-37 11.5q-59 0 -79 -87z" />
    <glyph glyph-name="utilde" unicode="&#x169;" horiz-adv-x="561" 
d="M229 -8q-85 0 -127.5 47t-26.5 153l49 308h42l-48 -303q-13 -88 14.5 -127t97.5 -39q79 0 130.5 50t64.5 133l45 286h42l-79 -500h-41l19 122h15q-28 -62 -80.5 -96t-116.5 -34zM198 596l-32 2q11 58 37.5 89.5t66.5 31.5q26 0 43.5 -15t32.5 -32q14 -15 27.5 -26.5
t29.5 -11.5q52 0 71 87l32 -2q-10 -58 -37 -89.5t-66 -31.5q-25 0 -43.5 15t-33.5 32q-13 15 -26.5 26.5t-30.5 11.5q-52 0 -71 -87z" />
    <glyph glyph-name="Umacron" unicode="&#x16a;" horiz-adv-x="722" 
d="M328 -8q-90 0 -146.5 31.5t-78.5 93.5t-8 153l69 435h42l-68 -429q-19 -122 25 -182.5t168 -60.5q107 0 173.5 55.5t87.5 187.5l68 429h42l-69 -435q-15 -98 -55.5 -159.5t-103.5 -90t-146 -28.5zM297 822l6 38h310l-6 -38h-310z" />
    <glyph glyph-name="umacron" unicode="&#x16b;" horiz-adv-x="561" 
d="M229 -8q-85 0 -127.5 47t-26.5 153l49 308h42l-48 -303q-13 -88 14.5 -127t97.5 -39q79 0 130.5 50t64.5 133l45 286h42l-79 -500h-41l19 122h15q-28 -62 -80.5 -96t-116.5 -34zM202 634l6 38h280l-6 -38h-280z" />
    <glyph glyph-name="Ubreve" unicode="&#x16c;" horiz-adv-x="722" 
d="M328 -8q-90 0 -146.5 31.5t-78.5 93.5t-8 153l69 435h42l-68 -429q-19 -122 25 -182.5t168 -60.5q107 0 173.5 55.5t87.5 187.5l68 429h42l-69 -435q-15 -98 -55.5 -159.5t-103.5 -90t-146 -28.5zM446 760q-42 0 -75 20t-51 57.5t-17 89.5l33 4q-3 -64 28.5 -99.5
t84.5 -35.5t89 35.5t46 99.5l33 -4q-13 -78 -60 -122.5t-111 -44.5z" />
    <glyph glyph-name="ubreve" unicode="&#x16d;" horiz-adv-x="561" 
d="M229 -8q-85 0 -127.5 47t-26.5 153l49 308h42l-48 -303q-13 -88 14.5 -127t97.5 -39q79 0 130.5 50t64.5 133l45 286h42l-79 -500h-41l19 122h15q-28 -62 -80.5 -96t-116.5 -34zM337 548q-41 0 -71.5 22.5t-46 64.5t-12.5 100l33 4q-4 -74 22.5 -114.5t75.5 -40.5
q50 0 82 40.5t42 114.5l33 -4q-8 -58 -29.5 -100t-54 -64.5t-74.5 -22.5z" />
    <glyph glyph-name="Uring" unicode="&#x16e;" horiz-adv-x="722" 
d="M328 -8q-90 0 -146.5 31.5t-78.5 93.5t-8 153l69 435h42l-68 -429q-19 -122 25 -182.5t168 -60.5q107 0 173.5 55.5t87.5 187.5l68 429h42l-69 -435q-15 -98 -55.5 -159.5t-103.5 -90t-146 -28.5zM460 760q-31 0 -56.5 15t-40.5 40t-15 55q0 31 15 55.5t40.5 39.5
t56.5 15q32 0 57 -15t40 -39.5t15 -55.5q0 -30 -15 -55t-40 -40t-57 -15zM460 792q35 0 56.5 22.5t21.5 55.5t-21.5 55.5t-56.5 22.5q-34 0 -56 -22.5t-22 -55.5t22 -55.5t56 -22.5z" />
    <glyph glyph-name="uring" unicode="&#x16f;" horiz-adv-x="561" 
d="M229 -8q-85 0 -127.5 47t-26.5 153l49 308h42l-48 -303q-13 -88 14.5 -127t97.5 -39q79 0 130.5 50t64.5 133l45 286h42l-79 -500h-41l19 122h15q-28 -62 -80.5 -96t-116.5 -34zM346 548q-31 0 -56.5 15t-40.5 40t-15 55q0 31 15 55.5t40.5 39.5t56.5 15q32 0 57 -15
t40 -39.5t15 -55.5q0 -30 -15 -55t-40 -40t-57 -15zM346 580q35 0 56.5 22.5t21.5 55.5t-21.5 55.5t-56.5 22.5q-34 0 -56 -22.5t-22 -55.5t22 -55.5t56 -22.5z" />
    <glyph glyph-name="Uhungarumlaut" unicode="&#x170;" horiz-adv-x="722" 
d="M328 -8q-90 0 -146.5 31.5t-78.5 93.5t-8 153l69 435h42l-68 -429q-19 -122 25 -182.5t168 -60.5q107 0 173.5 55.5t87.5 187.5l68 429h42l-69 -435q-15 -98 -55.5 -159.5t-103.5 -90t-146 -28.5zM375 765l100 170h52l-125 -170h-27zM484 765l99 170h52l-124 -170h-27z
" />
    <glyph glyph-name="uhungarumlaut" unicode="&#x171;" horiz-adv-x="561" 
d="M229 -8q-85 0 -127.5 47t-26.5 153l49 308h42l-48 -303q-13 -88 14.5 -127t97.5 -39q79 0 130.5 50t64.5 133l45 286h42l-79 -500h-41l19 122h15q-28 -62 -80.5 -96t-116.5 -34zM369 550l76 200h48l-97 -200h-27zM260 550l76 200h48l-97 -200h-27z" />
    <glyph glyph-name="Uogonek" unicode="&#x172;" horiz-adv-x="722" 
d="M328 -8q-90 0 -146.5 31.5t-78.5 93.5t-8 153l69 435h42l-68 -429q-19 -122 25 -182.5t168 -60.5q107 0 173.5 55.5t87.5 187.5l68 429h42l-69 -435q-15 -98 -55.5 -159.5t-103.5 -90t-146 -28.5zM359 -190q-43 0 -66 24.5t-23 62.5q0 44 28.5 79.5t72.5 54.5l18 -31
q-40 -16 -60 -43t-20 -56q0 -25 13.5 -40t41.5 -15q12 0 25.5 3t28.5 10l9 -34q-10 -5 -29 -10t-39 -5z" />
    <glyph glyph-name="uogonek" unicode="&#x173;" horiz-adv-x="561" 
d="M229 -8q-85 0 -127.5 47t-26.5 153l49 308h42l-48 -303q-13 -88 14.5 -127t97.5 -39q79 0 130.5 50t64.5 133l45 286h42l-79 -500h-41l19 122h15q-28 -62 -80.5 -96t-116.5 -34zM403 -190q-43 0 -66 24.5t-23 62.5q0 44 28.5 79.5t72.5 54.5l18 -31q-40 -16 -60 -43
t-20 -56q0 -25 13.5 -40t41.5 -15q12 0 25.5 3t28.5 10l9 -34q-10 -5 -29 -10t-39 -5z" />
    <glyph glyph-name="Wcircumflex" unicode="&#x174;" horiz-adv-x="1104" 
d="M245 0l-131 705h42l126 -686h-30l352 686h39l124 -686h-27l348 686h46l-358 -705h-44l-121 672h20l-344 -672h-42zM480 765l139 170h48l103 -170h-37l-92 132l-124 -132h-37z" />
    <glyph glyph-name="wcircumflex" unicode="&#x175;" horiz-adv-x="857" 
d="M178 0l-97 500h45l90 -486h-26l251 486h52l94 -486h-27l246 486h48l-256 -500h-50l-95 491h30l-254 -491h-51zM341 549l131 200h48l87 -200h-34l-79 161l-117 -161h-36z" />
    <glyph glyph-name="Ycircumflex" unicode="&#x176;" horiz-adv-x="587" 
d="M232 0l52 326l5 -38l-216 417h46l192 -378h-15l312 378h50l-348 -417l16 38l-52 -326h-42zM222 765l139 170h48l103 -170h-37l-92 132l-124 -132h-37z" />
    <glyph glyph-name="ycircumflex" unicode="&#x177;" horiz-adv-x="520" 
d="M-14 -227l-9 39q49 11 82.5 27.5t59 42.5t48.5 65l35 60l-2 -21l-137 514h46l125 -484h-23l274 484h50l-321 -554q-25 -43 -50.5 -72.5t-53 -49.5t-58 -32t-66.5 -19zM172 549l131 200h48l87 -200h-34l-79 161l-117 -161h-36z" />
    <glyph glyph-name="Ydieresis" unicode="&#x178;" horiz-adv-x="587" 
d="M232 0l52 326l5 -38l-216 417h46l192 -378h-15l312 378h50l-348 -417l16 38l-52 -326h-42zM434 820l10 60h61l-10 -60h-61zM273 820l10 60h61l-10 -60h-61z" />
    <glyph glyph-name="Zacute" unicode="&#x179;" horiz-adv-x="585" 
d="M2 0l5 31l554 658l-4 -23h-450l7 39h494l-5 -31l-555 -658l3 23h461l-6 -39h-504zM357 765l131 170h57l-150 -170h-38z" />
    <glyph glyph-name="zacute" unicode="&#x17a;" horiz-adv-x="512" 
d="M11 0l5 30l425 447l-2 -13h-355l6 36h401l-5 -30l-426 -448l2 14h368l-6 -36h-413zM280 549l135 200h55l-154 -200h-36z" />
    <glyph glyph-name="Zdotaccent" unicode="&#x17b;" horiz-adv-x="585" 
d="M2 0l5 31l554 658l-4 -23h-450l7 39h494l-5 -31l-555 -658l3 23h461l-6 -39h-504zM353 818l10 63h62l-10 -63h-62z" />
    <glyph glyph-name="zdotaccent" unicode="&#x17c;" horiz-adv-x="512" 
d="M11 0l5 30l425 447l-2 -13h-355l6 36h401l-5 -30l-426 -448l2 14h368l-6 -36h-413zM277 619l10 63h64l-10 -63h-64z" />
    <glyph glyph-name="Zcaron" unicode="&#x17d;" horiz-adv-x="585" 
d="M2 0l5 31l554 658l-4 -23h-450l7 39h494l-5 -31l-555 -658l3 23h461l-6 -39h-504zM352 765l-103 170h36l91 -132l125 132h38l-139 -170h-48z" />
    <glyph glyph-name="zcaron" unicode="&#x17e;" horiz-adv-x="512" 
d="M11 0l5 30l425 447l-2 -13h-355l6 36h401l-5 -30l-426 -448l2 14h368l-6 -36h-413zM274 549l-87 200h34l79 -161l117 161h36l-131 -200h-48z" />
    <glyph glyph-name="uni0181" unicode="&#x181;" horiz-adv-x="778" 
d="M163 0l105 666h-39q-64 0 -98.5 -28.5t-44.5 -88.5l-7 -43h-40l7 45q13 78 61 116t140 38h295q104 0 155 -48.5t36 -140.5q-12 -72 -59 -112.5t-121 -54.5l2 14q77 -7 114.5 -56t25.5 -126q-15 -94 -82 -137.5t-180 -43.5h-270zM211 39h228q86 0 143 33t69 106
q10 60 -8 94.5t-56 49.5t-91 15h-238zM265 376h213q93 0 146.5 36t63.5 99q12 78 -26 116.5t-119 38.5h-233z" />
    <glyph glyph-name="uni018A" unicode="&#x18a;" horiz-adv-x="839" 
d="M163 0l105 666h-39q-64 0 -98.5 -28.5t-44.5 -88.5l-7 -43h-40l7 45q13 78 60.5 116t131.5 38h246q119 0 192 -42.5t100.5 -123.5t8.5 -196q-28 -173 -132.5 -258t-275.5 -85h-214zM211 39h168q158 0 248 77t115 237q25 157 -40.5 235t-223.5 78h-168z" />
    <glyph glyph-name="uni018F" unicode="&#x18f;" horiz-adv-x="736" 
d="M327 -8q-104 0 -163.5 44t-78.5 124t-2 188l5 28h560l-7 -39h-528l15 16q-15 -103 -2.5 -174.5t61.5 -108.5t142 -37q125 0 205 83t105 238q24 152 -34 235t-192 83q-77 0 -132 -19.5t-113 -66.5l-20 35q56 47 120.5 69.5t145.5 22.5q103 0 169.5 -43.5t92.5 -126
t7 -199.5q-17 -108 -64.5 -187t-121 -122t-170.5 -43z" />
    <glyph glyph-name="florin" unicode="&#x192;" horiz-adv-x="600" 
d="M-21 -188l6 37h39q50 0 85.5 25.5t60.5 91.5l179 485l10 -3h-141l6 36h146l-12 -12l39 108q22 59 67.5 96t119.5 37h38l-6 -39h-38q-51 0 -85.5 -24t-60.5 -92l-31 -86l-7 12h143l-6 -36h-154l17 5l-190 -509q-22 -58 -67 -95t-119 -37h-39z" />
    <glyph glyph-name="Ohorn" unicode="&#x1a0;" horiz-adv-x="759" 
d="M86 363q18 112 66.5 190t123.5 119t171 41q100 0 163.5 -46.5t88 -130t6.5 -194.5q-17 -111 -66 -189.5t-124 -119.5t-172 -41q-99 0 -162.5 46t-87.5 129.5t-7 195.5zM129 353q-16 -99 4.5 -170.5t74.5 -110.5t138 -39q130 0 211 84t105 235q16 98 -5 170t-74.5 111
t-137.5 39q-130 0 -210.5 -83.5t-105.5 -235.5zM548 667l-47 42q29 -2 50 -3t43 -1q49 0 76.5 13.5t42 40.5t20.5 66l2 12h40l-3 -20q-7 -49 -27.5 -82.5t-55 -50.5t-85.5 -17h-56z" />
    <glyph glyph-name="ohorn" unicode="&#x1a1;" horiz-adv-x="553" 
d="M240 -8q-69 0 -115.5 31t-64.5 91t-5 146q13 80 48.5 135.5t88.5 84t119 28.5q70 0 116 -31t65 -91t5 -146q-13 -80 -49 -135.5t-89 -84t-119 -28.5zM244 31q80 0 137.5 56.5t74.5 162.5t-24 162.5t-125 56.5q-80 0 -136.5 -56.5t-73.5 -162.5t22.5 -162.5t124.5 -56.5z
M373 462l-14 13l4 25q49 1 77 15t42 40.5t20 64.5l2 12h40l-4 -27q-10 -69 -52.5 -104.5t-114.5 -38.5z" />
    <glyph glyph-name="Uhorn" unicode="&#x1af;" horiz-adv-x="722" 
d="M328 -8q-90 0 -146.5 31.5t-78.5 93.5t-8 153l69 435h42l-68 -429q-19 -122 25 -182.5t168 -60.5q107 0 173.5 55.5t87.5 187.5l68 429h42l-69 -435q-15 -98 -55.5 -159.5t-103.5 -90t-146 -28.5zM677 667l-13 13l4 25q49 1 77 14.5t42 40.5t20 65l2 12h40l-3 -20
q-10 -70 -54 -108.5t-115 -41.5z" />
    <glyph glyph-name="uhorn" unicode="&#x1b0;" horiz-adv-x="561" 
d="M229 -8q-85 0 -127.5 47t-26.5 153l49 308h42l-48 -303q-13 -88 14.5 -127t97.5 -39q79 0 130.5 50t64.5 133l45 286h42l-79 -500h-41l19 122h15q-28 -62 -80.5 -96t-116.5 -34zM480 462l-14 13l4 25q49 1 77 15t42 40.5t20 64.5l2 12h40l-4 -27q-10 -69 -52.5 -104.5
t-114.5 -38.5z" />
    <glyph glyph-name="uni01B3" unicode="&#x1b3;" horiz-adv-x="587" 
d="M232 0l52 326l5 -38l-216 417h46l192 -378h-15l261 316q21 25 41.5 40t43 22t48.5 7q19 0 29.5 -1.5t23.5 -6.5l-6 -37q-10 4 -21.5 6t-25.5 2q-27 0 -52 -11.5t-49 -40.5l-279 -335l16 38l-52 -326h-42z" />
    <glyph glyph-name="uni01B4" unicode="&#x1b4;" horiz-adv-x="554" 
d="M-16 -227l-6 39q49 11 82.5 27.5t58.5 42.5t48 65l35 60l-2 -21l-137 514h46l125 -484h-23l220 390q21 37 42.5 59t47.5 32.5t59 10.5q16 0 27 -1.5t22 -5.5l-12 -37q-8 3 -18.5 4.5t-18.5 1.5q-35 0 -58.5 -18t-55.5 -71l-252 -435q-25 -43 -50.5 -72.5t-53 -49.5
t-59 -32t-67.5 -19z" />
    <glyph glyph-name="uni01C4" unicode="&#x1c4;" horiz-adv-x="1303" 
d="M57 0l112 705h209q119 0 191.5 -42.5t100 -123.5t9.5 -196q-28 -173 -132.5 -258t-275.5 -85h-214zM105 39h168q158 0 248 77t115 237q25 157 -40.5 235t-223.5 78h-168zM720 0l5 31l554 658l-4 -23h-450l7 39h494l-5 -31l-555 -658l3 23h461l-6 -39h-504zM1070 765
l-103 170h36l91 -132l125 132h38l-139 -170h-48z" />
    <glyph glyph-name="uni01C5" unicode="&#x1c5;" horiz-adv-x="1245" 
d="M57 0l112 705h209q119 0 191.5 -42.5t100 -123.5t9.5 -196q-28 -173 -132.5 -258t-275.5 -85h-214zM105 39h168q158 0 248 77t115 237q25 157 -40.5 235t-223.5 78h-168zM744 0l5 30l425 447l-2 -13h-355l6 36h401l-5 -30l-426 -448l2 14h368l-6 -36h-413zM1007 549
l-87 200h34l79 -161l117 161h36l-131 -200h-48z" />
    <glyph glyph-name="uni01C6" unicode="&#x1c6;" horiz-adv-x="1095" 
d="M240 -8q-69 0 -115.5 31t-65 91t-4.5 146q20 120 89 184t167 64q70 0 115.5 -37t55.5 -102h-10l58 367h42l-117 -736h-42l21 131h14q-28 -65 -81 -102t-127 -37zM244 31q80 0 137.5 56.5t74.5 162.5t-24 162.5t-125 56.5q-80 0 -136.5 -56.5t-73.5 -162.5t22.5 -162.5
t124.5 -56.5zM594 0l5 30l425 447l-2 -13h-355l6 36h401l-5 -30l-426 -448l2 14h368l-6 -36h-413zM857 549l-87 200h34l79 -161l117 161h36l-131 -200h-48z" />
    <glyph glyph-name="uni01C7" unicode="&#x1c7;" horiz-adv-x="872" 
d="M57 0l112 705h42l-106 -666h378l-6 -39h-420zM573 -186q-16 0 -33.5 2t-35.5 9l6 39q18 -7 33.5 -9.5t29.5 -2.5q46 0 76 30t40 94l116 729h42l-116 -731q-8 -50 -28.5 -86t-53 -55t-76.5 -19z" />
    <glyph glyph-name="uni01C8" unicode="&#x1c8;" horiz-adv-x="750" 
d="M57 0l112 705h42l-106 -666h378l-6 -39h-420zM466 -218q-10 0 -28.5 2.5t-29.5 8.5l7 40q11 -4 27 -8t29 -4q47 0 73 31t36 97l87 551h42l-89 -560q-12 -78 -51.5 -118t-102.5 -40zM677 631l10 63h64l-10 -63h-64z" />
    <glyph glyph-name="uni01C9" unicode="&#x1c9;" horiz-adv-x="436" 
d="M48 0l117 736h42l-117 -736h-42zM152 -218q-10 0 -28.5 2.5t-29.5 8.5l7 40q11 -4 27 -8t29 -4q47 0 73 31t36 97l87 551h42l-89 -560q-12 -78 -51.5 -118t-102.5 -40zM363 631l10 63h64l-10 -63h-64z" />
    <glyph glyph-name="uni01CA" unicode="&#x1ca;" horiz-adv-x="1039" 
d="M57 0l112 705h36l381 -663h-16l105 663h39l-112 -705h-35l-381 663h15l-105 -663h-39zM740 -186q-16 0 -33.5 2t-35.5 9l6 39q18 -7 33.5 -9.5t29.5 -2.5q46 0 76 30t40 94l116 729h42l-116 -731q-8 -50 -28.5 -86t-53 -55t-76.5 -19z" />
    <glyph glyph-name="uni01CB" unicode="&#x1cb;" horiz-adv-x="957" 
d="M57 0l112 705h36l381 -663h-16l105 663h39l-112 -705h-35l-381 663h15l-105 -663h-39zM673 -218q-10 0 -28.5 2.5t-29.5 8.5l7 40q11 -4 27 -8t29 -4q47 0 73 31t36 97l87 551h42l-89 -560q-12 -78 -51.5 -118t-102.5 -40zM884 631l10 63h64l-10 -63h-64z" />
    <glyph glyph-name="uni01CC" unicode="&#x1cc;" horiz-adv-x="788" 
d="M48 0l62 392q4 26 6 53t3 55h41l-10 -120l-14 -1q30 63 84.5 96t125.5 33q93 0 128 -52t20 -146l-49 -310h-42l49 308q14 87 -14 124t-100 37q-82 0 -135.5 -49t-66.5 -130l-46 -290h-42zM504 -218q-10 0 -28.5 2.5t-29.5 8.5l7 40q11 -4 27 -8t29 -4q47 0 73 31t36 97
l87 551h42l-89 -560q-12 -78 -51.5 -118t-102.5 -40zM715 631l10 63h64l-10 -63h-64z" />
    <glyph glyph-name="uni01CD" unicode="&#x1cd;" horiz-adv-x="721" 
d="M-6 0l415 705h41l197 -705h-43l-57 204l22 -9h-437l29 9l-119 -204h-48zM422 649l-246 -421l-21 6h403l-17 -6l-117 421h-2zM416 765l-103 170h36l91 -132l125 132h38l-139 -170h-48z" />
    <glyph glyph-name="uni01CE" unicode="&#x1ce;" horiz-adv-x="583" 
d="M240 -8q-69 0 -115.5 31t-65 91t-4.5 146q20 120 89 184t167 64q70 0 115.5 -37t55.5 -102h-12l31 131h41q-7 -28 -14 -55t-11 -53l-62 -392h-42l21 131h14q-28 -65 -81 -102t-127 -37zM244 31q80 0 137.5 56.5t74.5 162.5t-24 162.5t-125 56.5q-80 0 -136.5 -56.5
t-73.5 -162.5t22.5 -162.5t124.5 -56.5zM308 549l-87 200h34l79 -161l117 161h36l-131 -200h-48z" />
    <glyph glyph-name="uni01D4" unicode="&#x1d4;" horiz-adv-x="561" 
d="M229 -8q-85 0 -127.5 47t-26.5 153l49 308h42l-48 -303q-13 -88 14.5 -127t97.5 -39q79 0 130.5 50t64.5 133l45 286h42l-79 -500h-41l19 122h15q-28 -62 -80.5 -96t-116.5 -34zM304 550l-87 200h34l79 -161l117 161h36l-131 -200h-48z" />
    <glyph glyph-name="uni01E5" unicode="&#x1e5;" horiz-adv-x="587" 
d="M223 -223q-61 0 -110.5 17.5t-86.5 52.5l22 34q29 -24 56 -38t57.5 -20.5t68.5 -6.5q125 0 168 105l7 -8h-134l6 36h139l-9 -6q2 9 4.5 18t3.5 19l27 171h12q-26 -66 -82 -103t-127 -37q-69 0 -115.5 33t-65.5 91.5t-7 134.5t47.5 129t89.5 81t120 28q72 0 118 -37
t54 -104l-8 13l28 120h41q-7 -28 -14 -55t-11 -53l-64 -405q-2 -12 -4.5 -23.5t-5.5 -22.5l-6 8h87l-6 -36h-92l9 7q-25 -71 -80 -107t-137 -36zM246 50q83 0 140 55.5t73 154.5t-24 154t-123 55t-140.5 -55t-73.5 -154t24.5 -154.5t123.5 -55.5z" />
    <glyph glyph-name="Gcaron" unicode="&#x1e6;" horiz-adv-x="723" 
d="M372 -8q-116 0 -185.5 45t-94 128.5t-6.5 197.5q18 112 67.5 190t127.5 119t179 41q78 0 130 -22t90 -62l-24 -37q-40 42 -84.5 61t-114.5 19q-133 0 -218.5 -84t-109.5 -236q-24 -150 34 -234.5t208 -84.5q57 0 108 11t99 33l-18 -39l44 280h-194l7 39h234l-50 -313
q-27 -16 -66 -27.5t-81.5 -18t-81.5 -6.5zM449 765l-103 170h36l91 -132l125 132h38l-139 -170h-48z" />
    <glyph glyph-name="gcaron" unicode="&#x1e7;" horiz-adv-x="587" 
d="M223 -223q-59 0 -109.5 17.5t-87.5 52.5l22 34q29 -24 56 -38t57.5 -20.5t68.5 -6.5q78 0 125 42.5t60 121.5l27 171h12q-26 -66 -82 -103t-127 -37q-69 0 -115.5 33t-65.5 91.5t-7 134.5q18 114 87.5 176t169.5 62q72 0 118 -37t54 -104l-8 13l28 120h41q-7 -28 -14 -55
t-11 -53l-64 -405q-16 -104 -75.5 -157t-159.5 -53zM246 50q83 0 140 55.5t73 154.5t-24 154t-123 55t-140.5 -55t-73.5 -154t24.5 -154.5t123.5 -55.5zM319 549l-87 200h34l79 -161l117 161h36l-131 -200h-48z" />
    <glyph glyph-name="uni01E9" unicode="&#x1e9;" horiz-adv-x="482" 
d="M48 0l117 736h42l-74 -467h2l291 231h62l-330 -259v33l284 -274h-57l-254 245h-2l-39 -245h-42zM306 765l-103 170h36l91 -132l125 132h38l-139 -170h-48z" />
    <glyph glyph-name="uni01EA" unicode="&#x1ea;" horiz-adv-x="759" 
d="M86 363q18 112 66.5 190t123.5 119t171 41q100 0 163.5 -46.5t88 -130t6.5 -194.5q-17 -111 -66 -189.5t-124 -119.5t-172 -41q-99 0 -162.5 46t-87.5 129.5t-7 195.5zM129 353q-16 -99 4.5 -170.5t74.5 -110.5t138 -39q130 0 211 84t105 235q16 98 -5 170t-74.5 111
t-137.5 39q-130 0 -210.5 -83.5t-105.5 -235.5zM366 -190q-43 0 -66 24.5t-23 62.5q0 44 28.5 79.5t72.5 54.5l18 -31q-40 -16 -60 -43t-20 -56q0 -25 13.5 -40t41.5 -15q12 0 25.5 3t28.5 10l9 -34q-10 -5 -29 -10t-39 -5z" />
    <glyph glyph-name="uni01EB" unicode="&#x1eb;" horiz-adv-x="553" 
d="M240 -8q-69 0 -115.5 31t-64.5 91t-5 146q13 80 48.5 135.5t88.5 84t119 28.5q70 0 116 -31t65 -91t5 -146q-13 -80 -49 -135.5t-89 -84t-119 -28.5zM244 31q80 0 137.5 56.5t74.5 162.5t-24 162.5t-125 56.5q-80 0 -136.5 -56.5t-73.5 -162.5t22.5 -162.5t124.5 -56.5z
M262 -190q-43 0 -66 24.5t-23 62.5q0 44 28.5 79.5t72.5 54.5l18 -31q-40 -16 -60 -43t-20 -56q0 -25 13.5 -40t41.5 -15q12 0 25.5 3t28.5 10l9 -34q-10 -5 -29 -10t-39 -5z" />
    <glyph glyph-name="Aringacute" unicode="&#x1fa;" horiz-adv-x="721" 
d="M-6 0l415 705h41l197 -705h-43l-57 204l22 -9h-437l29 9l-119 -204h-48zM422 649l-246 -421l-21 6h403l-17 -6l-117 421h-2zM439 760q-31 0 -56.5 15t-40.5 40t-15 55q0 31 15 55.5t40.5 39.5t56.5 15q20 0 37 -5.5t31 -16.5l76 71h61l-113 -95q20 -28 20 -64
q0 -30 -15 -55t-40 -40t-57 -15zM439 792q35 0 56.5 22.5t21.5 55.5t-21.5 55.5t-56.5 22.5q-34 0 -56 -22.5t-22 -55.5t22 -55.5t56 -22.5z" />
    <glyph glyph-name="aringacute" unicode="&#x1fb;" horiz-adv-x="583" 
d="M240 -8q-69 0 -115.5 31t-65 91t-4.5 146q20 120 89 184t167 64q70 0 115.5 -37t55.5 -102h-12l31 131h41q-7 -28 -14 -55t-11 -53l-62 -392h-42l21 131h14q-28 -65 -81 -102t-127 -37zM244 31q80 0 137.5 56.5t74.5 162.5t-24 162.5t-125 56.5q-80 0 -136.5 -56.5
t-73.5 -162.5t22.5 -162.5t124.5 -56.5zM348 547q-31 0 -56.5 15t-40.5 40t-15 55q0 31 15 55.5t40.5 39.5t56.5 15q20 0 37 -5.5t31 -16.5l76 71h61l-113 -95q20 -28 20 -64q0 -30 -15 -55t-40 -40t-57 -15zM348 579q35 0 56.5 22.5t21.5 55.5t-21.5 55.5t-56.5 22.5
q-34 0 -56 -22.5t-22 -55.5t22 -55.5t56 -22.5z" />
    <glyph glyph-name="AEacute" unicode="&#x1fc;" horiz-adv-x="996" 
d="M-26 0l535 705h502l-7 -39h-419l24 24l-20 -324l-16 11h365l-6 -39h-354l9 10l-20 -328l-4 19h342l-6 -39h-376l12 198l24 -3h-398l24 12l-158 -207h-53zM529 665l-332 -441l-10 10h359l-8 -9l27 440h-36zM577 765l131 170h57l-150 -170h-38z" />
    <glyph glyph-name="aeacute" unicode="&#x1fd;" horiz-adv-x="890" 
d="M210 -8q-53 0 -90.5 20.5t-54.5 56.5t-9 82q10 56 51 85.5t109.5 40.5t158.5 11h52l-5 -37h-50q-80 0 -138 -8t-92 -31t-41 -68q-8 -51 22.5 -82.5t91.5 -31.5q76 0 127 50t64 129l19 119q12 75 -18.5 108t-87.5 33q-52 0 -95.5 -13t-90.5 -43l-19 34q29 20 61.5 33.5
t68 20.5t71.5 7q81 0 117.5 -37.5t34.5 -104.5h-18q32 67 91.5 104.5t130.5 37.5q64 0 106 -28.5t59.5 -80t7.5 -120.5l-4 -27h-399l6 38h377l-17 -13q13 92 -22 142.5t-118 50.5q-59 0 -103 -27t-71 -73.5t-35 -106.5l-2 -15q-14 -105 29 -161t134 -56q45 0 89.5 15
t81.5 51l22 -33q-36 -34 -89.5 -53t-104.5 -19q-90 0 -141.5 44.5t-61.5 126.5h17q-26 -80 -83.5 -125.5t-138.5 -45.5zM465 549l135 200h55l-154 -200h-36z" />
    <glyph glyph-name="Oslashacute" unicode="&#x1fe;" horiz-adv-x="759" 
d="M86 363q18 112 66.5 190t123.5 119t171 41q100 0 163.5 -46.5t88 -130t6.5 -194.5q-17 -111 -66 -189.5t-124 -119.5t-172 -41q-99 0 -162.5 46t-87.5 129.5t-7 195.5zM129 353q-16 -99 4.5 -170.5t74.5 -110.5t138 -39q130 0 211 84t105 235q16 98 -5 170t-74.5 111
t-137.5 39q-130 0 -210.5 -83.5t-105.5 -235.5zM198 54l-58 -78l-30 22l58 79l17 22l392 530l16 22l59 78l30 -22l-59 -79l-16 -22l-392 -530zM442 765l131 170h57l-150 -170h-38z" />
    <glyph glyph-name="oslashacute" unicode="&#x1ff;" horiz-adv-x="553" 
d="M240 -8q-69 0 -115.5 31t-64.5 91t-5 146q13 80 48.5 135.5t88.5 84t119 28.5q70 0 116 -31t65 -91t5 -146q-13 -80 -49 -135.5t-89 -84t-119 -28.5zM244 31q80 0 137.5 56.5t74.5 162.5t-24 162.5t-125 56.5q-80 0 -136.5 -56.5t-73.5 -162.5t22.5 -162.5t124.5 -56.5z
M102 -24l-29 23l381 524l28 -22zM305 549l135 200h55l-154 -200h-36z" />
    <glyph glyph-name="uni0200" unicode="&#x200;" horiz-adv-x="721" 
d="M-6 0l415 705h41l197 -705h-43l-57 204l22 -9h-437l29 9l-119 -204h-48zM422 649l-246 -421l-21 6h403l-17 -6l-117 421h-2zM481 765l-97 170h51l73 -170h-27zM372 765l-96 170h51l72 -170h-27z" />
    <glyph glyph-name="uni0201" unicode="&#x201;" horiz-adv-x="583" 
d="M240 -8q-69 0 -115.5 31t-65 91t-4.5 146q20 120 89 184t167 64q70 0 115.5 -37t55.5 -102h-12l31 131h41q-7 -28 -14 -55t-11 -53l-62 -392h-42l21 131h14q-28 -65 -81 -102t-127 -37zM244 31q80 0 137.5 56.5t74.5 162.5t-24 162.5t-125 56.5q-80 0 -136.5 -56.5
t-73.5 -162.5t22.5 -162.5t124.5 -56.5zM373 549l-61 200h47l41 -200h-27zM264 549l-61 200h47l41 -200h-27z" />
    <glyph glyph-name="uni0202" unicode="&#x202;" horiz-adv-x="721" 
d="M-6 0l415 705h41l197 -705h-43l-57 204l22 -9h-437l29 9l-119 -204h-48zM422 649l-246 -421l-21 6h403l-17 -6l-117 421h-2zM309 760l-33 4q13 78 60 122.5t111 44.5q43 0 75.5 -20t51 -57.5t16.5 -89.5l-33 -4q3 65 -28.5 100t-84.5 35t-89 -35t-46 -100z" />
    <glyph glyph-name="uni0203" unicode="&#x203;" horiz-adv-x="583" 
d="M240 -8q-69 0 -115.5 31t-65 91t-4.5 146q20 120 89 184t167 64q70 0 115.5 -37t55.5 -102h-12l31 131h41q-7 -28 -14 -55t-11 -53l-62 -392h-42l21 131h14q-28 -65 -81 -102t-127 -37zM244 31q80 0 137.5 56.5t74.5 162.5t-24 162.5t-125 56.5q-80 0 -136.5 -56.5
t-73.5 -162.5t22.5 -162.5t124.5 -56.5zM214 547l-33 4q9 59 30 100.5t54 64t74 22.5q42 0 72 -22.5t45.5 -64t12.5 -100.5l-33 -4q5 74 -21.5 114.5t-76.5 40.5q-49 0 -81.5 -40.5t-42.5 -114.5z" />
    <glyph glyph-name="uni0204" unicode="&#x204;" horiz-adv-x="582" 
d="M57 0l112 705h428l-7 -39h-386l-45 -289h364l-6 -39h-364l-48 -299h386l-6 -39h-428zM446 765l-97 170h51l73 -170h-27zM337 765l-96 170h51l72 -170h-27z" />
    <glyph glyph-name="uni0205" unicode="&#x205;" horiz-adv-x="541" 
d="M263 -8q-78 0 -129 32.5t-71 93.5t-7 146q13 78 48 132.5t89 83t123 28.5q66 0 109 -28.5t61 -80t8 -120.5l-4 -27h-409l6 38h387l-17 -13q13 92 -23 142.5t-122 50.5q-62 0 -107 -27t-72 -73.5t-35 -106.5l-2 -15q-14 -105 29.5 -161t138.5 -56q47 0 93 15t83 51l22 -33
q-39 -34 -91.5 -53t-107.5 -19zM373 549l-61 200h47l41 -200h-27zM264 549l-61 200h47l41 -200h-27z" />
    <glyph glyph-name="uni0206" unicode="&#x206;" horiz-adv-x="582" 
d="M57 0l112 705h428l-7 -39h-386l-45 -289h364l-6 -39h-364l-48 -299h386l-6 -39h-428zM274 760l-33 4q13 78 60 122.5t111 44.5q43 0 75.5 -20t51 -57.5t16.5 -89.5l-33 -4q3 65 -28.5 100t-84.5 35t-89 -35t-46 -100z" />
    <glyph glyph-name="uni0207" unicode="&#x207;" horiz-adv-x="541" 
d="M263 -8q-78 0 -129 32.5t-71 93.5t-7 146q13 78 48 132.5t89 83t123 28.5q66 0 109 -28.5t61 -80t8 -120.5l-4 -27h-409l6 38h387l-17 -13q13 92 -23 142.5t-122 50.5q-62 0 -107 -27t-72 -73.5t-35 -106.5l-2 -15q-14 -105 29.5 -161t138.5 -56q47 0 93 15t83 51l22 -33
q-39 -34 -91.5 -53t-107.5 -19zM214 547l-33 4q9 59 30 100.5t54 64t74 22.5q42 0 72 -22.5t45.5 -64t12.5 -100.5l-33 -4q5 74 -21.5 114.5t-76.5 40.5q-49 0 -81.5 -40.5t-42.5 -114.5z" />
    <glyph glyph-name="uni0208" unicode="&#x208;" horiz-adv-x="236" 
d="M57 0l112 705h42l-112 -705h-42zM241 765l-97 170h51l73 -170h-27zM132 765l-96 170h51l72 -170h-27z" />
    <glyph glyph-name="uni0209" unicode="&#x209;" horiz-adv-x="218" 
d="M48 0l79 500h42l-79 -500h-42zM197 549l-61 200h47l41 -200h-27zM88 549l-61 200h47l41 -200h-27z" />
    <glyph glyph-name="uni020A" unicode="&#x20a;" horiz-adv-x="236" 
d="M57 0l112 705h42l-112 -705h-42zM69 760l-33 4q13 78 60 122.5t111 44.5q43 0 75.5 -20t51 -57.5t16.5 -89.5l-33 -4q3 65 -28.5 100t-84.5 35t-89 -35t-46 -100z" />
    <glyph glyph-name="uni020B" unicode="&#x20b;" horiz-adv-x="218" 
d="M48 0l79 500h42l-79 -500h-42zM38 547l-33 4q9 59 30 100.5t54 64t74 22.5q42 0 72 -22.5t45.5 -64t12.5 -100.5l-33 -4q5 74 -21.5 114.5t-76.5 40.5q-49 0 -81.5 -40.5t-42.5 -114.5z" />
    <glyph glyph-name="uni020C" unicode="&#x20c;" horiz-adv-x="759" 
d="M86 363q18 112 66.5 190t123.5 119t171 41q100 0 163.5 -46.5t88 -130t6.5 -194.5q-17 -111 -66 -189.5t-124 -119.5t-172 -41q-99 0 -162.5 46t-87.5 129.5t-7 195.5zM129 353q-16 -99 4.5 -170.5t74.5 -110.5t138 -39q130 0 211 84t105 235q16 98 -5 170t-74.5 111
t-137.5 39q-130 0 -210.5 -83.5t-105.5 -235.5zM502 765l-97 170h51l73 -170h-27zM393 765l-96 170h51l72 -170h-27z" />
    <glyph glyph-name="uni020D" unicode="&#x20d;" horiz-adv-x="553" 
d="M240 -8q-69 0 -115.5 31t-64.5 91t-5 146q13 80 48.5 135.5t88.5 84t119 28.5q70 0 116 -31t65 -91t5 -146q-13 -80 -49 -135.5t-89 -84t-119 -28.5zM244 31q80 0 137.5 56.5t74.5 162.5t-24 162.5t-125 56.5q-80 0 -136.5 -56.5t-73.5 -162.5t22.5 -162.5t124.5 -56.5z
M365 549l-61 200h47l41 -200h-27zM256 549l-61 200h47l41 -200h-27z" />
    <glyph glyph-name="uni020E" unicode="&#x20e;" horiz-adv-x="759" 
d="M86 363q18 112 66.5 190t123.5 119t171 41q100 0 163.5 -46.5t88 -130t6.5 -194.5q-17 -111 -66 -189.5t-124 -119.5t-172 -41q-99 0 -162.5 46t-87.5 129.5t-7 195.5zM129 353q-16 -99 4.5 -170.5t74.5 -110.5t138 -39q130 0 211 84t105 235q16 98 -5 170t-74.5 111
t-137.5 39q-130 0 -210.5 -83.5t-105.5 -235.5zM330 760l-33 4q13 78 60 122.5t111 44.5q43 0 75.5 -20t51 -57.5t16.5 -89.5l-33 -4q3 65 -28.5 100t-84.5 35t-89 -35t-46 -100z" />
    <glyph glyph-name="uni020F" unicode="&#x20f;" horiz-adv-x="553" 
d="M240 -8q-69 0 -115.5 31t-64.5 91t-5 146q13 80 48.5 135.5t88.5 84t119 28.5q70 0 116 -31t65 -91t5 -146q-13 -80 -49 -135.5t-89 -84t-119 -28.5zM244 31q80 0 137.5 56.5t74.5 162.5t-24 162.5t-125 56.5q-80 0 -136.5 -56.5t-73.5 -162.5t22.5 -162.5t124.5 -56.5z
M206 547l-33 4q9 59 30 100.5t54 64t74 22.5q42 0 72 -22.5t45.5 -64t12.5 -100.5l-33 -4q5 74 -21.5 114.5t-76.5 40.5q-49 0 -81.5 -40.5t-42.5 -114.5z" />
    <glyph glyph-name="uni0210" unicode="&#x210;" horiz-adv-x="684" 
d="M57 0l112 705h265q110 0 161.5 -53t36.5 -148q-9 -56 -42 -95.5t-83 -59.5t-110 -20l8 8h8q40 0 67.5 -19t40.5 -66l71 -252h-45l-65 236q-15 54 -49.5 70t-95.5 16h-187l-51 -322h-42zM156 361h234q85 0 136 39t62 109q12 77 -29 117t-131 40h-224zM461 765l-97 170h51
l73 -170h-27zM352 765l-96 170h51l72 -170h-27z" />
    <glyph glyph-name="uni0211" unicode="&#x211;" horiz-adv-x="336" 
d="M46 0l61 386q5 28 8 57t4 57h41l-9 -109l-10 -1q16 40 45 66t65.5 39t72.5 13q12 0 23 -1t22 -4l-9 -39q-9 3 -20.5 4t-24.5 1q-49 0 -86.5 -21.5t-60.5 -55.5t-29 -72l-51 -320h-42zM296 549l-61 200h47l41 -200h-27zM187 549l-61 200h47l41 -200h-27z" />
    <glyph glyph-name="uni0212" unicode="&#x212;" horiz-adv-x="684" 
d="M57 0l112 705h265q110 0 161.5 -53t36.5 -148q-9 -56 -42 -95.5t-83 -59.5t-110 -20l8 8h8q40 0 67.5 -19t40.5 -66l71 -252h-45l-65 236q-15 54 -49.5 70t-95.5 16h-187l-51 -322h-42zM156 361h234q85 0 136 39t62 109q12 77 -29 117t-131 40h-224zM289 760l-33 4
q13 78 60 122.5t111 44.5q43 0 75.5 -20t51 -57.5t16.5 -89.5l-33 -4q3 65 -28.5 100t-84.5 35t-89 -35t-46 -100z" />
    <glyph glyph-name="uni0213" unicode="&#x213;" horiz-adv-x="336" 
d="M46 0l61 386q5 28 8 57t4 57h41l-9 -109l-10 -1q16 40 45 66t65.5 39t72.5 13q12 0 23 -1t22 -4l-9 -39q-9 3 -20.5 4t-24.5 1q-49 0 -86.5 -21.5t-60.5 -55.5t-29 -72l-51 -320h-42zM137 547l-33 4q9 59 30 100.5t54 64t74 22.5q42 0 72 -22.5t45.5 -64t12.5 -100.5
l-33 -4q5 74 -21.5 114.5t-76.5 40.5q-49 0 -81.5 -40.5t-42.5 -114.5z" />
    <glyph glyph-name="uni0214" unicode="&#x214;" horiz-adv-x="722" 
d="M328 -8q-90 0 -146.5 31.5t-78.5 93.5t-8 153l69 435h42l-68 -429q-19 -122 25 -182.5t168 -60.5q107 0 173.5 55.5t87.5 187.5l68 429h42l-69 -435q-15 -98 -55.5 -159.5t-103.5 -90t-146 -28.5zM484 765l-97 170h51l73 -170h-27zM375 765l-96 170h51l72 -170h-27z" />
    <glyph glyph-name="uni0215" unicode="&#x215;" horiz-adv-x="561" 
d="M229 -8q-85 0 -127.5 47t-26.5 153l49 308h42l-48 -303q-13 -88 14.5 -127t97.5 -39q79 0 130.5 50t64.5 133l45 286h42l-79 -500h-41l19 122h15q-28 -62 -80.5 -96t-116.5 -34zM369 550l-61 200h47l41 -200h-27zM260 550l-61 200h47l41 -200h-27z" />
    <glyph glyph-name="uni0216" unicode="&#x216;" horiz-adv-x="722" 
d="M328 -8q-90 0 -146.5 31.5t-78.5 93.5t-8 153l69 435h42l-68 -429q-19 -122 25 -182.5t168 -60.5q107 0 173.5 55.5t87.5 187.5l68 429h42l-69 -435q-15 -98 -55.5 -159.5t-103.5 -90t-146 -28.5zM312 760l-33 4q13 78 60 122.5t111 44.5q43 0 75.5 -20t51 -57.5
t16.5 -89.5l-33 -4q3 65 -28.5 100t-84.5 35t-89 -35t-46 -100z" />
    <glyph glyph-name="uni0217" unicode="&#x217;" horiz-adv-x="561" 
d="M229 -8q-85 0 -127.5 47t-26.5 153l49 308h42l-48 -303q-13 -88 14.5 -127t97.5 -39q79 0 130.5 50t64.5 133l45 286h42l-79 -500h-41l19 122h15q-28 -62 -80.5 -96t-116.5 -34zM210 548l-33 4q9 59 30 100.5t54 64t74 22.5q42 0 72 -22.5t45.5 -64t12.5 -100.5l-33 -4
q5 74 -21.5 114.5t-76.5 40.5q-49 0 -81.5 -40.5t-42.5 -114.5z" />
    <glyph glyph-name="uni0218" unicode="&#x218;" horiz-adv-x="604" 
d="M280 -8q-86 0 -149 21.5t-106 53.5l24 36q50 -34 101 -52t130 -18q96 0 152 39t66 102q10 59 -21 94t-114 46l-86 12q-101 14 -142 65.5t-28 130.5q9 55 44.5 98t93.5 68t134 25q74 0 131 -22.5t94 -56.5l-22 -36q-42 37 -91 55.5t-116 18.5q-93 0 -153.5 -42.5
t-71.5 -112.5q-10 -64 21 -101.5t114 -48.5l87 -12q101 -13 141.5 -59t27.5 -127q-8 -50 -42.5 -90.5t-90.5 -63.5t-128 -23zM229 -259l-20 22q27 23 35 44t13 49l13 -7h-50l11 65h70l-10 -61q-6 -36 -20.5 -64t-41.5 -48z" />
    <glyph glyph-name="uni0219" unicode="&#x219;" horiz-adv-x="492" 
d="M209 -8q-52 0 -99.5 16.5t-74.5 42.5l22 34q32 -26 71 -40t85 -14q66 0 106 25.5t47 67.5q6 38 -14 62.5t-71 32.5l-64 11q-75 12 -103.5 51.5t-19.5 95.5q7 41 33.5 70t67.5 45t90 16q54 0 96.5 -16t64.5 -39l-23 -34q-26 24 -61 37t-77 13q-64 0 -102 -27.5t-45 -69.5
q-6 -39 11.5 -64.5t63.5 -33.5l67 -12q77 -13 107.5 -49t21.5 -90q-6 -38 -31.5 -68t-68.5 -46.5t-100 -16.5zM154 -259l-20 22q27 23 35 44t13 49l13 -7h-50l11 65h70l-10 -61q-6 -36 -20.5 -64t-41.5 -48z" />
    <glyph glyph-name="uni021A" unicode="&#x21a;" horiz-adv-x="590" 
d="M232 0l105 666h-262l7 39h566l-7 -39h-262l-105 -666h-42zM205 -259l-20 22q27 23 35 44t13 49l13 -7h-50l11 65h70l-10 -61q-6 -36 -20.5 -64t-41.5 -48z" />
    <glyph glyph-name="uni021B" unicode="&#x21b;" horiz-adv-x="324" 
d="M203 -8q-68 0 -96 38.5t-16 117.5l50 316h-100l6 36h100l23 143l44 16l-25 -159h152l-6 -36h-152l-48 -305q-10 -66 5.5 -97t61.5 -31q20 0 36.5 4t28.5 9l-6 -40q-12 -5 -26 -8.5t-32 -3.5zM121 -259l-20 22q27 23 35 44t13 49l13 -7h-50l11 65h70l-10 -61
q-6 -36 -20.5 -64t-41.5 -48z" />
    <glyph glyph-name="uni021F" unicode="&#x21f;" horiz-adv-x="570" 
d="M48 0l117 736h42l-57 -357h-14q30 63 84.5 96t125.5 33q93 0 128 -52t20 -146l-49 -310h-42l49 308q14 87 -14 124t-100 37q-82 0 -135.5 -49t-66.5 -130l-46 -290h-42zM348 765l-103 170h36l91 -132l125 132h38l-139 -170h-48z" />
    <glyph glyph-name="uni0226" unicode="&#x226;" horiz-adv-x="721" 
d="M-6 0l415 705h41l197 -705h-43l-57 204l22 -9h-437l29 9l-119 -204h-48zM422 649l-246 -421l-21 6h403l-17 -6l-117 421h-2zM417 818l10 63h62l-10 -63h-62z" />
    <glyph glyph-name="uni0227" unicode="&#x227;" horiz-adv-x="583" 
d="M240 -8q-69 0 -115.5 31t-65 91t-4.5 146q20 120 89 184t167 64q70 0 115.5 -37t55.5 -102h-12l31 131h41q-7 -28 -14 -55t-11 -53l-62 -392h-42l21 131h14q-28 -65 -81 -102t-127 -37zM244 31q80 0 137.5 56.5t74.5 162.5t-24 162.5t-125 56.5q-80 0 -136.5 -56.5
t-73.5 -162.5t22.5 -162.5t124.5 -56.5zM311 619l10 63h64l-10 -63h-64z" />
    <glyph glyph-name="uni0228" unicode="&#x228;" horiz-adv-x="582" 
d="M57 0l112 705h428l-7 -39h-386l-45 -289h364l-6 -39h-364l-48 -299h386l-6 -39h-428zM265 -190q-23 0 -43.5 5t-33.5 13l12 34q18 -9 33 -12.5t39 -3.5q28 0 47 11.5t19 33.5q0 14 -9 22t-26 8q-11 0 -23 -2t-30 -8l-13 13l31 96h38l-25 -75l-18 2q13 3 24.5 5t21.5 2
q29 0 49 -15.5t20 -44.5q0 -37 -32 -60.5t-81 -23.5z" />
    <glyph glyph-name="uni022A" unicode="&#x22a;" horiz-adv-x="759" 
d="M86 363q18 112 66.5 190t123.5 119t171 41q100 0 163.5 -46.5t88 -130t6.5 -194.5q-17 -111 -66 -189.5t-124 -119.5t-172 -41q-99 0 -162.5 46t-87.5 129.5t-7 195.5zM129 353q-16 -99 4.5 -170.5t74.5 -110.5t138 -39q130 0 211 84t105 235q16 98 -5 170t-74.5 111
t-137.5 39q-130 0 -210.5 -83.5t-105.5 -235.5zM346 927l6 38h280l-6 -38h-280zM356 806l10 60h61l-10 -60h-61zM517 806l10 60h61l-10 -60h-61z" />
    <glyph glyph-name="uni022B" unicode="&#x22b;" horiz-adv-x="553" 
d="M240 -8q-69 0 -115.5 31t-64.5 91t-5 146q13 80 48.5 135.5t88.5 84t119 28.5q70 0 116 -31t65 -91t5 -146q-13 -80 -49 -135.5t-89 -84t-119 -28.5zM244 31q80 0 137.5 56.5t74.5 162.5t-24 162.5t-125 56.5q-80 0 -136.5 -56.5t-73.5 -162.5t22.5 -162.5t124.5 -56.5z
M209 706l6 38h280l-6 -38h-280zM219 585l9 60h61l-9 -60h-61zM380 585l9 60h61l-9 -60h-61z" />
    <glyph glyph-name="uni022C" unicode="&#x22c;" horiz-adv-x="759" 
d="M86 363q18 112 66.5 190t123.5 119t171 41q100 0 163.5 -46.5t88 -130t6.5 -194.5q-17 -111 -66 -189.5t-124 -119.5t-172 -41q-99 0 -162.5 46t-87.5 129.5t-7 195.5zM129 353q-16 -99 4.5 -170.5t74.5 -110.5t138 -39q130 0 211 84t105 235q16 98 -5 170t-74.5 111
t-137.5 39q-130 0 -210.5 -83.5t-105.5 -235.5zM346 927l6 38h280l-6 -38h-280zM531 768q-20 0 -37 10.5t-33 21.5q-13 11 -27 19.5t-29 8.5q-22 0 -34.5 -14.5t-20.5 -47.5l-33 2q8 48 32.5 72t58.5 24q20 0 36.5 -10t32.5 -22q14 -10 27.5 -19t28.5 -9q23 0 35.5 14.5
t19.5 47.5l33 -2q-8 -48 -32 -72t-58 -24z" />
    <glyph glyph-name="uni022D" unicode="&#x22d;" horiz-adv-x="553" 
d="M240 -8q-69 0 -115.5 31t-64.5 91t-5 146q13 80 48.5 135.5t88.5 84t119 28.5q70 0 116 -31t65 -91t5 -146q-13 -80 -49 -135.5t-89 -84t-119 -28.5zM244 31q80 0 137.5 56.5t74.5 162.5t-24 162.5t-125 56.5q-80 0 -136.5 -56.5t-73.5 -162.5t22.5 -162.5t124.5 -56.5z
M209 706l6 38h280l-6 -38h-280zM213 545l-33 2q8 48 30.5 72t56.5 24q22 0 39.5 -10.5t33.5 -22.5q14 -10 27.5 -18.5t28.5 -8.5q23 0 35.5 14.5t19.5 47.5l33 -2q-8 -48 -30 -72t-56 -24q-22 0 -40 10.5t-35 22.5q-13 11 -27 19t-28 8q-22 0 -34.5 -14.5t-20.5 -47.5z" />
    <glyph glyph-name="uni0230" unicode="&#x230;" horiz-adv-x="759" 
d="M86 363q18 112 66.5 190t123.5 119t171 41q100 0 163.5 -46.5t88 -130t6.5 -194.5q-17 -111 -66 -189.5t-124 -119.5t-172 -41q-99 0 -162.5 46t-87.5 129.5t-7 195.5zM129 353q-16 -99 4.5 -170.5t74.5 -110.5t138 -39q130 0 211 84t105 235q16 98 -5 170t-74.5 111
t-137.5 39q-130 0 -210.5 -83.5t-105.5 -235.5zM346 927l6 38h280l-6 -38h-280zM437 806l10 60h61l-10 -60h-61z" />
    <glyph glyph-name="uni0231" unicode="&#x231;" horiz-adv-x="553" 
d="M240 -8q-69 0 -115.5 31t-64.5 91t-5 146q13 80 48.5 135.5t88.5 84t119 28.5q70 0 116 -31t65 -91t5 -146q-13 -80 -49 -135.5t-89 -84t-119 -28.5zM244 31q80 0 137.5 56.5t74.5 162.5t-24 162.5t-125 56.5q-80 0 -136.5 -56.5t-73.5 -162.5t22.5 -162.5t124.5 -56.5z
M209 706l6 38h280l-6 -38h-280zM300 585l9 60h61l-9 -60h-61z" />
    <glyph glyph-name="uni0232" unicode="&#x232;" horiz-adv-x="587" 
d="M232 0l52 326l5 -38l-216 417h46l192 -378h-15l312 378h50l-348 -417l16 38l-52 -326h-42zM230 822l6 38h310l-6 -38h-310z" />
    <glyph glyph-name="uni0233" unicode="&#x233;" horiz-adv-x="520" 
d="M-14 -227l-9 39q49 11 82.5 27.5t59 42.5t48.5 65l35 60l-2 -21l-137 514h46l125 -484h-23l274 484h50l-321 -554q-25 -43 -50.5 -72.5t-53 -49.5t-58 -32t-66.5 -19zM180 633l6 38h280l-6 -38h-280z" />
    <glyph glyph-name="uni0237" unicode="&#x237;" horiz-adv-x="218" 
d="M-66 -218q-10 0 -28.5 3.5t-29.5 7.5l7 40q11 -4 27 -8t29 -4q47 0 73 31t36 97l87 551h42l-89 -560q-12 -78 -51.5 -118t-102.5 -40z" />
    <glyph glyph-name="uni0253" unicode="&#x253;" horiz-adv-x="583" 
d="M272 -8q-70 0 -115 37t-56 102h10l-21 -131h-42l94 594q12 74 53 112t117 38q14 0 25.5 -1.5t21.5 -5.5l-12 -37q-13 4 -20.5 5t-18.5 1q-105 0 -123 -110l-36 -227h-14q28 65 81 102t127 37q70 0 116 -31t64.5 -91t4.5 -146q-19 -120 -88.5 -184t-167.5 -64zM276 31
q80 0 136.5 56.5t73.5 162.5t-22.5 162.5t-124.5 56.5q-79 0 -137 -56.5t-75 -162.5q-16 -106 24.5 -162.5t124.5 -56.5z" />
    <glyph glyph-name="uni0257" unicode="&#x257;" horiz-adv-x="583" 
d="M240 -8q-69 0 -115.5 31t-65 91t-4.5 146q20 120 89 184t167 64q70 0 115.5 -37t55.5 -102h-10l36 225q13 78 55.5 114t113.5 36q12 0 23 -1.5t24 -5.5l-12 -37q-13 4 -21 5t-18 1q-55 0 -85.5 -30t-38.5 -83l-94 -593h-42l21 131h14q-28 -65 -81 -102t-127 -37zM244 31
q80 0 137.5 56.5t74.5 162.5t-24 162.5t-125 56.5q-80 0 -136.5 -56.5t-73.5 -162.5t22.5 -162.5t124.5 -56.5z" />
    <glyph glyph-name="uni0259" unicode="&#x259;" horiz-adv-x="541" 
d="M230 -8q-69 0 -113.5 28.5t-62.5 80.5t-8 120l4 27h409l-6 -38h-387l21 13q-16 -91 20 -142t127 -51q59 0 103 27t70.5 74t34.5 106l2 15q14 105 -29.5 161t-138.5 56q-46 0 -92 -15t-84 -51l-22 33q39 36 91.5 54t107.5 18q78 0 129 -32.5t71.5 -93.5t6.5 -146
q-12 -77 -47 -132t-87.5 -83.5t-119.5 -28.5z" />
    <glyph glyph-name="uni02B9" unicode="&#x2b9;" horiz-adv-x="202" 
d="M118 440l29 265h52l-53 -265h-28z" />
    <glyph glyph-name="uni02BA" unicode="&#x2ba;" horiz-adv-x="342" 
d="M118 440l29 265h52l-53 -265h-28zM258 440l29 265h52l-53 -265h-28z" />
    <glyph glyph-name="uni02BB" unicode="&#x2bb;" horiz-adv-x="500" 
d="M265 570l8 54q5 34 22 64.5t44 54.5l23 -20q-28 -26 -38.5 -48t-14.5 -47l-14 7h50l-10 -65h-70z" />
    <glyph glyph-name="uni02BC" unicode="&#x2bc;" horiz-adv-x="300" 
d="M192 575l-23 20q25 24 34 44.5t12 39.5l18 -6h-51l11 70h69l-10 -61q-5 -32 -18 -57t-42 -50z" />
    <glyph glyph-name="uni02BE" unicode="&#x2be;" horiz-adv-x="500" 
d="M298 556l6 36q28 -1 47.5 18t19.5 47q0 23 -13 37.5t-36 15.5l6 35q38 -2 60.5 -26.5t22.5 -59.5q0 -30 -15.5 -54t-41.5 -37.5t-56 -11.5z" />
    <glyph glyph-name="uni02BF" unicode="&#x2bf;" horiz-adv-x="500" 
d="M299 556q-38 2 -60.5 27t-22.5 59q0 30 16 54t42 37.5t56 11.5l-6 -36q-28 2 -48 -17t-20 -48q0 -22 13 -36.5t36 -16.5z" />
    <glyph glyph-name="circumflex" unicode="&#x2c6;" horiz-adv-x="500" 
d="M164 549l131 200h48l87 -200h-34l-79 161l-117 -161h-36z" />
    <glyph glyph-name="caron" unicode="&#x2c7;" horiz-adv-x="500" 
d="M283 549l-87 200h34l79 -161l117 161h36l-131 -200h-48z" />
    <glyph glyph-name="uni02C8" unicode="&#x2c8;" horiz-adv-x="500" 
d="M283 596l31 198h42l-31 -198h-42z" />
    <glyph glyph-name="uni02C9" unicode="&#x2c9;" horiz-adv-x="500" 
d="M170 633l6 38h280l-6 -38h-280z" />
    <glyph glyph-name="uni02CA" unicode="&#x2ca;" horiz-adv-x="500" 
d="M279 549l122 200h54l-140 -200h-36z" />
    <glyph glyph-name="uni02CB" unicode="&#x2cb;" horiz-adv-x="500" 
d="M329 549l-140 200h53l123 -200h-36z" />
    <glyph glyph-name="uni02CC" unicode="&#x2cc;" horiz-adv-x="500" 
d="M146 -270l31 198h42l-31 -198h-42z" />
    <glyph glyph-name="breve" unicode="&#x2d8;" horiz-adv-x="500" 
d="M312 547q-41 0 -71.5 22.5t-46 64.5t-12.5 100l33 4q-4 -74 22.5 -114.5t75.5 -40.5q50 0 82 40.5t42 114.5l33 -4q-8 -58 -29.5 -100t-54 -64.5t-74.5 -22.5z" />
    <glyph glyph-name="dotaccent" unicode="&#x2d9;" horiz-adv-x="500" 
d="M276 619l10 63h64l-10 -63h-64z" />
    <glyph glyph-name="ring" unicode="&#x2da;" horiz-adv-x="500" 
d="M316 547q-31 0 -56.5 15t-40.5 40t-15 55q0 31 15 55.5t40.5 39.5t56.5 15q32 0 57 -15t40 -39.5t15 -55.5q0 -30 -15 -55t-40 -40t-57 -15zM316 579q35 0 56.5 22.5t21.5 55.5t-21.5 55.5t-56.5 22.5q-34 0 -56 -22.5t-22 -55.5t22 -55.5t56 -22.5z" />
    <glyph glyph-name="ogonek" unicode="&#x2db;" horiz-adv-x="500" 
d="M173 -190q-43 0 -66 24.5t-23 62.5q0 44 28.5 79.5t72.5 54.5l18 -31q-40 -16 -60 -43t-20 -56q0 -25 13.5 -40t41.5 -15q12 0 25.5 3t28.5 10l9 -34q-10 -5 -29 -10t-39 -5z" />
    <glyph glyph-name="tilde" unicode="&#x2dc;" horiz-adv-x="500" 
d="M169 595l-32 2q11 58 37.5 89.5t66.5 31.5q26 0 43.5 -15t32.5 -32q14 -15 27.5 -26.5t29.5 -11.5q52 0 71 87l32 -2q-10 -58 -37 -89.5t-66 -31.5q-25 0 -43.5 15t-33.5 32q-13 15 -26.5 26.5t-30.5 11.5q-52 0 -71 -87z" />
    <glyph glyph-name="hungarumlaut" unicode="&#x2dd;" horiz-adv-x="500" 
d="M338 549l76 200h48l-97 -200h-27zM229 549l76 200h48l-97 -200h-27z" />
    <glyph glyph-name="gravecomb" unicode="&#x300;" 
d="M79 549l-140 200h53l123 -200h-36z" />
    <glyph glyph-name="acutecomb" unicode="&#x301;" 
d="M29 549l135 200h55l-154 -200h-36z" />
    <glyph glyph-name="uni0302" unicode="&#x302;" 
d="M-86 549l131 200h48l87 -200h-34l-79 161l-117 -161h-36z" />
    <glyph glyph-name="tildecomb" unicode="&#x303;" 
d="M-81 595l-32 2q11 58 37.5 89.5t66.5 31.5q26 0 43.5 -15t32.5 -32q14 -15 27.5 -26.5t29.5 -11.5q52 0 71 87l32 -2q-10 -58 -37 -89.5t-66 -31.5q-25 0 -43.5 15t-33.5 32q-13 15 -26.5 26.5t-30.5 11.5q-52 0 -71 -87z" />
    <glyph glyph-name="uni0304" unicode="&#x304;" 
d="M-80 633l6 38h280l-6 -38h-280z" />
    <glyph glyph-name="uni0306" unicode="&#x306;" 
d="M62 547q-41 0 -71.5 22.5t-46 64.5t-12.5 100l33 4q-4 -74 22.5 -114.5t75.5 -40.5q50 0 82 40.5t42 114.5l33 -4q-8 -58 -29.5 -100t-54 -64.5t-74.5 -22.5z" />
    <glyph glyph-name="uni0307" unicode="&#x307;" 
d="M26 619l10 63h64l-10 -63h-64z" />
    <glyph glyph-name="uni0308" unicode="&#x308;" 
d="M108 620l9 60h61l-9 -60h-61zM-53 620l9 60h61l-9 -60h-61z" />
    <glyph glyph-name="hookabovecomb" unicode="&#x309;" 
d="M41 549l3 20q4 24 16 40t26.5 28.5t25 24.5t10.5 28q0 14 -11.5 21t-37.5 7q-15 0 -31 -3.5t-36 -12.5l-6 32q17 11 37.5 15.5t42.5 4.5q40 0 61.5 -15.5t21.5 -43.5q0 -27 -11 -42.5t-26 -26.5t-28 -24.5t-18 -37.5l-3 -15h-36z" />
    <glyph glyph-name="uni030A" unicode="&#x30a;" 
d="M66 547q-31 0 -56.5 15t-40.5 40t-15 55q0 31 15 55.5t40.5 39.5t56.5 15q32 0 57 -15t40 -39.5t15 -55.5q0 -30 -15 -55t-40 -40t-57 -15zM66 579q35 0 56.5 22.5t21.5 55.5t-21.5 55.5t-56.5 22.5q-34 0 -56 -22.5t-22 -55.5t22 -55.5t56 -22.5z" />
    <glyph glyph-name="uni030B" unicode="&#x30b;" 
d="M88 549l76 200h48l-97 -200h-27zM-21 549l76 200h48l-97 -200h-27z" />
    <glyph glyph-name="uni030C" unicode="&#x30c;" 
d="M33 549l-87 200h34l79 -161l117 161h36l-131 -200h-48z" />
    <glyph glyph-name="uni030F" unicode="&#x30f;" 
d="M102 549l-61 200h47l41 -200h-27zM-7 549l-61 200h47l41 -200h-27z" />
    <glyph glyph-name="uni0311" unicode="&#x311;" 
d="M-64 547l-33 4q9 59 30 100.5t54 64t74 22.5q42 0 72 -22.5t45.5 -64t12.5 -100.5l-33 -4q5 74 -21.5 114.5t-76.5 40.5q-49 0 -81.5 -40.5t-42.5 -114.5z" />
    <glyph glyph-name="uni0312" unicode="&#x312;" 
d="M15 570l10 61q6 36 20.5 64t41.5 48l20 -22q-27 -23 -35 -43.5t-13 -49.5l-13 7h50l-11 -65h-70z" />
    <glyph glyph-name="uni031B" unicode="&#x31b;" 
d="M46 446l-14 13l4 25q49 1 77 15t42 40.5t20 64.5l2 12h40l-4 -27q-10 -69 -52.5 -104.5t-114.5 -38.5z" />
    <glyph glyph-name="dotbelowcomb" unicode="&#x323;" 
d="M-99 -172l10 63h64l-10 -63h-64z" />
    <glyph glyph-name="uni0324" unicode="&#x324;" 
d="M-18 -171l10 60h61l-10 -60h-61zM-179 -171l10 60h61l-10 -60h-61z" />
    <glyph glyph-name="uni0326" unicode="&#x326;" 
d="M-94 -259l-20 22q27 23 35 44t13 49l13 -7h-50l11 65h70l-10 -61q-6 -36 -20.5 -64t-41.5 -48z" />
    <glyph glyph-name="uni0327" unicode="&#x327;" 
d="M-63 -190q-23 0 -43.5 5t-33.5 13l12 34q18 -9 33 -12.5t39 -3.5q28 0 47 11.5t19 33.5q0 14 -9 22t-26 8q-11 0 -23 -2t-30 -8l-13 13l31 96h38l-25 -75l-18 2q13 3 24.5 5t21.5 2q29 0 49 -15.5t20 -44.5q0 -37 -32 -60.5t-81 -23.5z" />
    <glyph glyph-name="uni0328" unicode="&#x328;" 
d="M-77 -190q-43 0 -66 24.5t-23 62.5q0 44 28.5 79.5t72.5 54.5l18 -31q-40 -16 -60 -43t-20 -56q0 -25 13.5 -40t41.5 -15q12 0 25.5 3t28.5 10l9 -34q-10 -5 -29 -10t-39 -5z" />
    <glyph glyph-name="uni032E" unicode="&#x32e;" 
d="M-62 -215q-62 0 -99 39t-34 108l33 4q-4 -55 24 -85t77 -30q50 0 81 30t40 85l33 -4q-10 -69 -51.5 -108t-103.5 -39z" />
    <glyph glyph-name="uni0331" unicode="&#x331;" 
d="M-203 -148l6 38h280l-6 -38h-280z" />
    <glyph glyph-name="uni0335" unicode="&#x335;" 
d="M-125 522l6 36h334l-6 -36h-334z" />
    <glyph glyph-name="uni0337" unicode="&#x337;" 
d="M-96 283l-17 35l240 113l17 -36z" />
    <glyph glyph-name="uni0338" unicode="&#x338;" 
d="M237 -29l-29 23l381 524l28 -22z" />
    <glyph glyph-name="uni0394" unicode="&#x394;" horiz-adv-x="712" 
d="M-5 0l5 29l397 676h40l183 -676l-5 -29h-620zM410 647l-376 -639l5 31h550l-5 -31l-172 639h-2z" />
    <glyph glyph-name="Sigma" unicode="&#x3a3;" horiz-adv-x="600" 
d="M-17 -180l5 31l354 422l3 -21l-227 422l5 31h490l-6 -39h-445l-1 15l217 -402l-6 -33l-340 -402l2 15h445l-6 -39h-490z" />
    <glyph glyph-name="uni03A9" unicode="&#x3a9;" horiz-adv-x="768" 
d="M-2 0l6 38h240v-16q-87 74 -130 157t-43 172q0 106 42 187.5t121 128t188 46.5q68 0 123 -21t94 -59t60 -89t21 -112q0 -95 -36 -173t-100 -137.5t-150 -99.5v16h240l-6 -38h-274l6 36q126 68 200.5 165.5t74.5 230.5q0 70 -30.5 124t-88 85t-137.5 31
q-96 0 -163.5 -41.5t-103.5 -113.5t-36 -164q0 -84 40 -163.5t122 -153.5l-6 -36h-274z" />
    <glyph glyph-name="uni03BC" unicode="&#x3bc;" horiz-adv-x="561" 
d="M13 -216l111 716h42l-47 -306q-13 -84 15.5 -123.5t93.5 -39.5q86 0 136.5 53t63.5 141l42 275h42l-77 -500h-41l19 121h11q-25 -59 -75.5 -94t-121.5 -35q-50 0 -85.5 19t-49.5 56l8 2l-45 -285h-42z" />
    <glyph glyph-name="pi" unicode="&#x3c0;" horiz-adv-x="570" 
d="M-5 0q34 60 61.5 132t49.5 155t36 177h-104l6 36h524l-6 -36h-131l-44 -285q-7 -46 2.5 -77t37 -47.5t73.5 -19.5l30 -2l-4 -39l-38 2q-56 3 -91 25t-47.5 62t-3.5 98l43 283h-205q-15 -98 -36.5 -181.5t-47.5 -153.5t-58 -129h-47z" />
    <glyph glyph-name="uni0400" unicode="&#x400;" horiz-adv-x="582" 
d="M57 0l112 705h428l-7 -39h-386l-45 -289h364l-6 -39h-364l-48 -299h386l-6 -39h-428zM393 765l-122 170h55l105 -170h-38z" />
    <glyph glyph-name="uni0401" unicode="&#x401;" horiz-adv-x="582" 
d="M57 0l112 705h428l-7 -39h-386l-45 -289h364l-6 -39h-364l-48 -299h386l-6 -39h-428zM470 820l10 60h61l-10 -60h-61zM309 820l10 60h61l-10 -60h-61z" />
    <glyph glyph-name="uni0402" unicode="&#x402;" horiz-adv-x="832" 
d="M511 -188q-33 0 -62 6t-48 15l13 37q19 -10 43.5 -14.5t54.5 -4.5q75 0 121 47t61 143l16 101q20 125 -25.5 185.5t-164.5 60.5q-56 0 -103.5 -11.5t-88.5 -34.5l-54 -342h-42l105 666h-262l7 39h566l-7 -39h-262l-44 -279q35 20 86.5 31t104.5 11q133 0 191.5 -70.5
t35.5 -210.5l-17 -107q-11 -75 -39.5 -126t-74.5 -77t-111 -26z" />
    <glyph glyph-name="uni0403" unicode="&#x403;" horiz-adv-x="541" 
d="M57 0l112 705h431l-7 -39h-389l-105 -666h-42zM344 765l131 170h57l-150 -170h-38z" />
    <glyph glyph-name="uni0404" unicode="&#x404;" horiz-adv-x="684" 
d="M363 -8q-84 0 -143 26.5t-93.5 75t-44.5 117t3 152.5q18 112 67 190t124.5 119t173.5 41q74 0 129 -22.5t95 -66.5l-23 -35q-44 46 -89.5 64.5t-114.5 18.5q-133 0 -212 -83t-105 -227l-15 16h416l-6 -40h-417l20 9q-22 -148 38 -231t197 -83q61 0 118 21.5t104 68.5
l22 -35q-45 -47 -110.5 -71.5t-133.5 -24.5z" />
    <glyph glyph-name="uni0405" unicode="&#x405;" horiz-adv-x="604" 
d="M280 -8q-86 0 -149 21.5t-106 53.5l24 36q50 -34 101 -52t130 -18q96 0 152 39t66 102q10 59 -21 94t-114 46l-86 12q-101 14 -142 65.5t-28 130.5q9 55 44.5 98t93.5 68t134 25q74 0 131 -22.5t94 -56.5l-22 -36q-42 37 -91 55.5t-116 18.5q-93 0 -153.5 -42.5
t-71.5 -112.5q-10 -64 21 -101.5t114 -48.5l87 -12q101 -13 141.5 -59t27.5 -127q-8 -50 -42.5 -90.5t-90.5 -63.5t-128 -23z" />
    <glyph glyph-name="uni0406" unicode="&#x406;" horiz-adv-x="236" 
d="M57 0l112 705h42l-112 -705h-42z" />
    <glyph glyph-name="uni0407" unicode="&#x407;" horiz-adv-x="236" 
d="M57 0l112 705h42l-112 -705h-42zM258 820l10 60h61l-10 -60h-61zM97 820l10 60h61l-10 -60h-61z" />
    <glyph glyph-name="uni0408" unicode="&#x408;" horiz-adv-x="300" 
d="M1 -186q-16 0 -33.5 2t-35.5 9l6 39q18 -7 33.5 -9.5t29.5 -2.5q46 0 76 30t40 94l116 729h42l-116 -731q-8 -50 -28.5 -86t-53 -55t-76.5 -19z" />
    <glyph glyph-name="uni0409" unicode="&#x409;" horiz-adv-x="1162" 
d="M-2 -13l-16 36q45 21 84 51.5t71 82t58.5 133.5t45.5 205l33 210h433l-52 -326h234q114 0 168 -49.5t39 -148.5q-13 -88 -80 -134.5t-172 -46.5h-291l105 666h-351l-29 -182q-19 -118 -44.5 -202t-59.5 -140.5t-78 -93.5t-98 -61zM601 39h238q96 0 149 35.5t65 113.5
t-28 115t-136 37h-240z" />
    <glyph glyph-name="uni040A" unicode="&#x40a;" horiz-adv-x="1188" 
d="M57 0l112 705h41l-52 -328h481l52 328h42l-52 -326h234q114 0 168 -49.5t39 -148.5q-13 -88 -80 -134.5t-172 -46.5h-291l54 339h-481l-54 -339h-41zM627 39h238q96 0 149 35.5t65 113.5t-28 115t-136 37h-240z" />
    <glyph glyph-name="uni040B" unicode="&#x40b;" horiz-adv-x="849" 
d="M232 0l105 666h-262l7 39h566l-7 -39h-262l-44 -279q40 21 94.5 31.5t104.5 10.5q137 0 198 -70.5t38 -210.5l-23 -148h-42l22 142q20 127 -28.5 187t-166.5 60q-53 0 -104.5 -10t-99.5 -36l-54 -343h-42z" />
    <glyph glyph-name="uni040C" unicode="&#x40c;" horiz-adv-x="627" 
d="M57 0l112 705h41l-52 -327h164l-26 -15l296 342h52l-300 -346l-12 17q57 -6 94 -40t59 -97l83 -239h-41l-71 210q-23 70 -63 99.5t-102 29.5h-139l-54 -339h-41zM386 765l131 170h57l-150 -170h-38z" />
    <glyph glyph-name="uni040D" unicode="&#x40d;" horiz-adv-x="739" 
d="M57 0l112 705h39l-105 -665l-23 3l598 662h36l-112 -705h-39l105 665l20 -4l-597 -661h-34zM435 765l-122 170h55l105 -170h-38z" />
    <glyph glyph-name="uni040E" unicode="&#x40e;" horiz-adv-x="648" 
d="M177 0l156 223v-25l-251 507h45l230 -466h-12l322 466h48l-489 -705h-49zM401 760q-35 0 -69.5 12t-61.5 39.5t-41 72.5l34 14q17 -52 51.5 -77t86.5 -25q53 0 90.5 21.5t75.5 79.5l31 -13q-27 -49 -59.5 -76t-67.5 -37.5t-70 -10.5z" />
    <glyph glyph-name="uni040F" unicode="&#x40f;" horiz-adv-x="759" 
d="M295 -150l24 150h-262l112 705h42l-106 -666h481l106 666h42l-112 -705h-262l-24 -150h-41z" />
    <glyph glyph-name="uni0410" unicode="&#x410;" horiz-adv-x="721" 
d="M-6 0l415 705h41l197 -705h-43l-57 204l22 -9h-437l29 9l-119 -204h-48zM422 649l-246 -421l-21 6h403l-17 -6l-117 421h-2z" />
    <glyph glyph-name="uni0411" unicode="&#x411;" horiz-adv-x="666" 
d="M57 0l112 705h449l-7 -39h-407l-45 -287h234q114 0 168.5 -49.5t38.5 -148.5q-13 -88 -80 -134.5t-172 -46.5h-291zM105 39h238q96 0 148.5 35.5t65.5 113.5q12 78 -28 115t-136 37h-240z" />
    <glyph glyph-name="uni0412" unicode="&#x412;" horiz-adv-x="672" 
d="M57 0l112 705h267q104 0 154.5 -48.5t36.5 -140.5q-12 -72 -59 -112.5t-121 -54.5l2 14q77 -7 114.5 -56t25.5 -126q-15 -94 -81.5 -137.5t-179.5 -43.5h-271zM105 39h228q86 0 143.5 33t68.5 106q10 60 -8 94.5t-56 49.5t-91 15h-238zM159 376h213q93 0 146.5 36
t63.5 99q12 78 -26 116.5t-119 38.5h-233z" />
    <glyph glyph-name="uni0413" unicode="&#x413;" horiz-adv-x="541" 
d="M57 0l112 705h431l-7 -39h-389l-105 -666h-42z" />
    <glyph glyph-name="uni0414" unicode="&#x414;" horiz-adv-x="785" 
d="M-45 -150l30 189h71q70 71 116.5 188.5t74.5 295.5l29 182h454l-106 -666h104l-30 -189h-41l24 150h-661l-24 -150h-41zM110 39h472l99 627h-372l-22 -141q-28 -177 -70.5 -293t-106.5 -193z" />
    <glyph glyph-name="uni0415" unicode="&#x415;" horiz-adv-x="582" 
d="M57 0l112 705h428l-7 -39h-386l-45 -289h364l-6 -39h-364l-48 -299h386l-6 -39h-428z" />
    <glyph glyph-name="uni0416" unicode="&#x416;" horiz-adv-x="957" 
d="M-25 0l157 239q41 63 90 97.5t113 39.5l-14 -17l-190 346h46l186 -342l-16 15h131l52 327h42l-52 -327h133l-28 -15l297 342h52l-300 -346l-11 17q49 -4 89.5 -39t62.5 -98l83 -239h-41l-72 210q-24 70 -63 99.5t-101 29.5h-107l-54 -339h-42l54 339h-107
q-64 0 -112.5 -30t-92.5 -99l-136 -210h-49z" />
    <glyph glyph-name="uni0417" unicode="&#x417;" horiz-adv-x="662" 
d="M293 -8q-89 0 -157 26t-104 70l23 35q47 -46 105 -68t140 -22q107 0 165.5 39t70.5 113q12 79 -30.5 115.5t-138.5 36.5h-179l7 39h166q98 0 149.5 37.5t62.5 106.5q11 73 -35 112.5t-147 39.5q-71 0 -134.5 -21t-122.5 -65l-21 35q59 46 131 69t148 23q81 0 134 -23.5
t76.5 -67t13.5 -105.5q-10 -63 -55 -108t-123 -59l2 12q76 -8 114 -55t25 -125q-10 -61 -45 -103.5t-95 -64.5t-146 -22z" />
    <glyph glyph-name="uni0418" unicode="&#x418;" horiz-adv-x="739" 
d="M57 0l112 705h39l-105 -665l-23 3l598 662h36l-112 -705h-39l105 665l20 -4l-597 -661h-34z" />
    <glyph glyph-name="uni0419" unicode="&#x419;" horiz-adv-x="739" 
d="M57 0l112 705h39l-105 -665l-23 3l598 662h36l-112 -705h-39l105 665l20 -4l-597 -661h-34zM448 760q-35 0 -69.5 12t-61.5 39.5t-41 72.5l34 14q17 -52 51.5 -77t86.5 -25q53 0 90.5 21.5t75.5 79.5l31 -13q-27 -49 -59.5 -76t-67.5 -37.5t-70 -10.5z" />
    <glyph glyph-name="uni041A" unicode="&#x41a;" horiz-adv-x="627" 
d="M57 0l112 705h41l-52 -327h164l-26 -15l296 342h52l-300 -346l-12 17q57 -6 94 -40t59 -97l83 -239h-41l-71 210q-23 70 -63 99.5t-102 29.5h-139l-54 -339h-41z" />
    <glyph glyph-name="uni041B" unicode="&#x41b;" horiz-adv-x="753" 
d="M-2 -13l-16 36q45 21 84 51.5t71 82t58.5 133.5t45.5 205l33 210h454l-112 -705h-42l106 666h-373l-29 -182q-19 -118 -44.5 -202t-59.5 -140.5t-78 -93.5t-98 -61z" />
    <glyph glyph-name="uni041C" unicode="&#x41c;" horiz-adv-x="848" 
d="M57 0l112 705h37l195 -688h-28l414 688h36l-112 -705h-39l105 664h27l-402 -664h-32l-191 665h22l-105 -665h-39z" />
    <glyph glyph-name="uni041D" unicode="&#x41d;" horiz-adv-x="759" 
d="M57 0l112 705h42l-52 -328h481l52 328h42l-112 -705h-42l54 338h-481l-54 -338h-42z" />
    <glyph glyph-name="uni041E" unicode="&#x41e;" horiz-adv-x="759" 
d="M86 363q18 112 66.5 190t123.5 119t171 41q100 0 163.5 -46.5t88 -130t6.5 -194.5q-17 -111 -66 -189.5t-124 -119.5t-172 -41q-99 0 -162.5 46t-87.5 129.5t-7 195.5zM129 353q-16 -99 4.5 -170.5t74.5 -110.5t138 -39q130 0 211 84t105 235q16 98 -5 170t-74.5 111
t-137.5 39q-130 0 -210.5 -83.5t-105.5 -235.5z" />
    <glyph glyph-name="uni041F" unicode="&#x41f;" horiz-adv-x="759" 
d="M57 0l112 705h565l-112 -705h-42l105 666h-482l-105 -666h-41z" />
    <glyph glyph-name="uni0420" unicode="&#x420;" horiz-adv-x="638" 
d="M57 0l112 705h258q110 0 161.5 -53.5t35.5 -150.5q-9 -61 -42 -102t-84.5 -61.5t-117.5 -20.5h-231l-50 -317h-42zM155 356h219q89 0 141.5 37t64.5 112q13 79 -27 120t-129 41h-220z" />
    <glyph glyph-name="uni0421" unicode="&#x421;" horiz-adv-x="684" 
d="M363 -8q-111 0 -178.5 46t-92 129.5t-7.5 195.5q18 112 67 190t124.5 119t173.5 41q74 0 129 -22t95 -66l-23 -36q-44 46 -91.5 64.5t-112.5 18.5q-131 0 -212.5 -83.5t-105.5 -235.5q-15 -96 4.5 -168t76.5 -112t153 -40q61 0 118 21t104 68l22 -34
q-45 -47 -110.5 -71.5t-133.5 -24.5z" />
    <glyph glyph-name="uni0422" unicode="&#x422;" horiz-adv-x="590" 
d="M232 0l105 666h-262l7 39h566l-7 -39h-262l-105 -666h-42z" />
    <glyph glyph-name="uni0423" unicode="&#x423;" horiz-adv-x="648" 
d="M177 0l156 223v-25l-251 507h45l230 -466h-12l322 466h48l-489 -705h-49z" />
    <glyph glyph-name="uni0424" unicode="&#x424;" horiz-adv-x="834" 
d="M354 -20l14 91l12 -14h-26q-100 0 -164.5 40t-90.5 110t-12 161q22 139 115 214.5t237 75.5h36l-16 -14l14 86h42l-14 -86l-12 14h26q103 0 167 -39t89.5 -108.5t10.5 -162.5q-14 -91 -62 -156t-122 -100t-168 -35h-36l16 14l-14 -91h-42zM370 82l87 551l12 -14h-37
q-122 0 -201 -65.5t-99 -190.5q-13 -83 9 -143t75 -92t133 -32h37zM412 82l-12 14h37q80 0 143.5 31t104.5 88t53 136q14 86 -8 145.5t-75 91t-135 31.5h-37l16 14z" />
    <glyph glyph-name="uni0425" unicode="&#x425;" horiz-adv-x="636" 
d="M-18 0l332 367l2 -10l-204 348h48l185 -318h-12l283 318h55l-313 -348l-3 10l215 -367h-48l-199 342h22l-308 -342h-55z" />
    <glyph glyph-name="uni0426" unicode="&#x426;" horiz-adv-x="788" 
d="M660 -150l24 150h-627l112 705h41l-106 -666h482l106 666h42l-106 -666h103l-30 -189h-41z" />
    <glyph glyph-name="uni0427" unicode="&#x427;" horiz-adv-x="674" 
d="M495 0l50 318q-39 -21 -92 -31.5t-107 -10.5q-93 0 -150 31.5t-78.5 94t-7.5 155.5l24 148h42l-23 -142q-22 -133 28 -189.5t167 -56.5q54 0 105.5 11t99.5 36l54 341h42l-112 -705h-42z" />
    <glyph glyph-name="uni0428" unicode="&#x428;" horiz-adv-x="1068" 
d="M57 0l112 705h42l-106 -666h374l106 666h42l-106 -666h374l106 666h42l-112 -705h-874z" />
    <glyph glyph-name="uni0429" unicode="&#x429;" horiz-adv-x="1097" 
d="M969 -150l24 150h-936l112 705h42l-106 -666h374l106 666h42l-106 -666h374l106 666h42l-106 -666h103l-30 -189h-41z" />
    <glyph glyph-name="uni042A" unicode="&#x42a;" horiz-adv-x="809" 
d="M200 0l105 666h-230l7 39h272l-52 -326h234q114 0 168 -49.5t39 -148.5q-13 -88 -80 -134.5t-172 -46.5h-291zM248 39h238q96 0 149 35.5t65 113.5t-28 115t-136 37h-240z" />
    <glyph glyph-name="uni042B" unicode="&#x42b;" horiz-adv-x="833" 
d="M57 0l112 705h42l-52 -326h204q114 0 168 -49.5t39 -148.5q-13 -88 -80 -134.5t-172 -46.5h-261zM105 39h208q96 0 149 35.5t65 113.5t-28 115t-136 37h-210zM654 0l112 705h42l-112 -705h-42z" />
    <glyph glyph-name="uni042C" unicode="&#x42c;" horiz-adv-x="666" 
d="M57 0l112 705h42l-52 -326h234q114 0 168.5 -49.5t38.5 -148.5q-13 -88 -80 -134.5t-172 -46.5h-291zM105 39h238q96 0 148.5 35.5t65.5 113.5q12 78 -28 115t-136 37h-240z" />
    <glyph glyph-name="uni042D" unicode="&#x42d;" horiz-adv-x="684" 
d="M266 -8q-73 0 -128 22.5t-96 66.5l23 35q44 -46 89.5 -64.5t114.5 -18.5q134 0 213 83t105 227l17 -5h-417l6 40h416l-20 -20q22 148 -38 231t-194 83q-61 0 -118.5 -21.5t-107.5 -68.5l-22 35q48 47 114 71.5t134 24.5q82 0 140.5 -26.5t93 -75t45 -117t-3.5 -152.5
q-18 -111 -67 -189.5t-125 -119.5t-174 -41z" />
    <glyph glyph-name="uni042E" unicode="&#x42e;" horiz-adv-x="1012" 
d="M595 -8q-94 0 -157 41.5t-89.5 119t-13.5 185.5h-182l-54 -338h-42l112 705h42l-52 -328h181q30 164 125 250t234 86q100 0 163.5 -46t88.5 -129t7 -194q-18 -112 -68.5 -190.5t-126 -120t-168.5 -41.5zM596 33q125 0 209.5 84t108.5 236q16 98 -5 169.5t-74.5 110.5
t-137.5 39q-130 0 -211 -83.5t-105 -235.5q-15 -97 4 -169t72 -111.5t139 -39.5z" />
    <glyph glyph-name="uni042F" unicode="&#x42f;" horiz-adv-x="673" 
d="M4 0l174 242q32 45 65 65.5t73 20.5h18l-29 -12q-66 0 -111.5 23.5t-65.5 69t-10 110.5q14 88 78.5 137t176.5 49h275l-112 -705h-42l49 312h-156q-40 0 -69 -7t-52.5 -25.5t-48.5 -53.5l-162 -226h-51zM321 351h229l50 316h-219q-102 0 -155 -39.5t-65 -115.5
q-13 -80 28 -120.5t132 -40.5z" />
    <glyph glyph-name="uni0430" unicode="&#x430;" horiz-adv-x="589" 
d="M243 -8q-69 0 -115.5 31t-65 91t-4.5 146q20 120 89 184t167 64q70 0 115.5 -37t55.5 -102h-12l31 131h41q-7 -28 -14 -55t-11 -53l-62 -392h-42l21 131h14q-28 -65 -81 -102t-127 -37zM247 31q80 0 137.5 56.5t74.5 162.5t-24 162.5t-125 56.5q-80 0 -136.5 -56.5
t-73.5 -162.5t22.5 -162.5t124.5 -56.5z" />
    <glyph glyph-name="uni0431" unicode="&#x431;" horiz-adv-x="559" 
d="M242 -8q-105 0 -155 70t-29 203l19 120q18 113 81.5 194t183.5 113l190 51l10 -41l-177 -47q-112 -30 -169 -94t-74 -165l-5 -29h-12q21 46 52.5 77.5t71 47.5t84.5 16q70 0 117 -31t65.5 -91t4.5 -146q-13 -80 -49 -135.5t-89.5 -84t-119.5 -28.5zM246 31
q80 0 138.5 56.5t74.5 162.5q17 106 -24 162.5t-126 56.5q-81 0 -137.5 -56.5t-73.5 -162.5t23 -162.5t125 -56.5z" />
    <glyph glyph-name="uni0432" unicode="&#x432;" horiz-adv-x="540" 
d="M48 0l79 500h214q55 0 90.5 -15t50.5 -44.5t8 -75.5t-45.5 -79t-93.5 -37l-1 11q60 0 93.5 -35t24.5 -92q-11 -68 -62 -100.5t-132 -32.5h-226zM96 36h188q61 0 97.5 24t44.5 76q8 49 -21 74.5t-90 25.5h-188zM133 272h179q57 0 92.5 25.5t42.5 70.5q8 46 -19 71t-86 25
h-179z" />
    <glyph glyph-name="uni0433" unicode="&#x433;" horiz-adv-x="425" 
d="M48 0l79 500h325l-6 -36h-283l-73 -464h-42z" />
    <glyph glyph-name="uni0434" unicode="&#x434;" horiz-adv-x="586" 
d="M-34 -130l26 166h50q50 56 80.5 133t46.5 178l24 153h321l-73 -464h76l-26 -166h-38l21 130h-449l-21 -130h-38zM93 36h307l67 428h-239l-18 -116q-14 -90 -43.5 -172t-73.5 -140z" />
    <glyph glyph-name="uni0435" unicode="&#x435;" horiz-adv-x="547" 
d="M266 -8q-78 0 -129 32.5t-71 93.5t-7 146q13 78 48 132.5t89 83t123 28.5q66 0 109 -28.5t61 -80t8 -120.5l-4 -27h-409l6 38h387l-17 -13q13 92 -23 142.5t-122 50.5q-62 0 -107 -27t-72 -73.5t-35 -106.5l-2 -15q-14 -105 29.5 -161t138.5 -56q47 0 93 15t83 51l22 -33
q-39 -34 -91.5 -53t-107.5 -19z" />
    <glyph glyph-name="uni0436" unicode="&#x436;" horiz-adv-x="771" 
d="M-35 0l128 164q34 44 58 67t46.5 33t52.5 13l-16 -12l-158 235h46l148 -223h99l35 223h42l-35 -223h94l218 223h54l-232 -235l-17 12q27 -3 46 -13t36 -33t37 -67l75 -164h-42l-73 159q-15 33 -30.5 51t-37 25t-55.5 7h-79l-38 -242h-42l38 242h-80q-34 0 -56.5 -7
t-42.5 -24.5t-46 -51.5l-122 -159h-51z" />
    <glyph glyph-name="uni0437" unicode="&#x437;" horiz-adv-x="489" 
d="M203 -8q-61 0 -111.5 18.5t-76.5 51.5l22 35q31 -34 73.5 -50.5t93.5 -16.5q81 0 122 27.5t48 77.5q8 49 -21 74.5t-91 25.5h-107l6 38h99q55 0 92 26t44 72t-23 72.5t-98 26.5q-52 0 -98 -14t-91 -43l-21 33q47 32 100 47t113 15q87 0 129 -37t31 -105
q-7 -46 -45.5 -79.5t-92.5 -38.5l2 11q59 -1 91.5 -37t23.5 -92q-10 -61 -61.5 -99.5t-152.5 -38.5z" />
    <glyph glyph-name="uni0438" unicode="&#x438;" horiz-adv-x="578" 
d="M48 0l79 500h39l-74 -468l-23 2l422 466h38l-79 -500h-39l74 468l24 -2l-423 -466h-38z" />
    <glyph glyph-name="uni0439" unicode="&#x439;" horiz-adv-x="578" 
d="M48 0l79 500h39l-74 -468l-23 2l422 466h38l-79 -500h-39l74 468l24 -2l-423 -466h-38zM339 547q-31 0 -62 12t-55.5 39.5t-36.5 72.5l33 14q14 -52 45.5 -77t76.5 -25q46 0 78 21.5t64 79.5l32 -13q-23 -49 -52 -76t-60 -37.5t-63 -10.5z" />
    <glyph glyph-name="uni043A" unicode="&#x43a;" horiz-adv-x="509" 
d="M48 0l79 500h42l-35 -223h110l217 223h53l-229 -235l-19 12q29 -3 47.5 -13t34.5 -33t36 -67l76 -164h-43l-73 159q-15 33 -30.5 51t-37 25t-55.5 7h-93l-38 -242h-42z" />
    <glyph glyph-name="uni043B" unicode="&#x43b;" horiz-adv-x="568" 
d="M6 -9l-16 35q41 20 69.5 46.5t48.5 66.5t35.5 100t29.5 146l19 115h327l-79 -500h-42l73 464h-244l-13 -80q-15 -93 -32.5 -158.5t-41.5 -110t-56.5 -74t-77.5 -50.5z" />
    <glyph glyph-name="uni043C" unicode="&#x43c;" horiz-adv-x="650" 
d="M48 0l79 500h36l143 -368l260 368h35l-79 -500h-38l72 454h22l-265 -374h-26l-147 375h18l-72 -455h-38z" />
    <glyph glyph-name="uni043D" unicode="&#x43d;" horiz-adv-x="580" 
d="M48 0l79 500h42l-35 -222h320l35 222h42l-79 -500h-42l38 241h-320l-38 -241h-42z" />
    <glyph glyph-name="uni043E" unicode="&#x43e;" horiz-adv-x="559" 
d="M243 -8q-69 0 -115.5 31t-64.5 91t-5 146q13 80 48.5 135.5t88.5 84t119 28.5q70 0 116 -31t65 -91t5 -146q-13 -80 -49 -135.5t-89 -84t-119 -28.5zM247 31q80 0 137.5 56.5t74.5 162.5t-24 162.5t-125 56.5q-80 0 -136.5 -56.5t-73.5 -162.5t22.5 -162.5t124.5 -56.5z
" />
    <glyph glyph-name="uni043F" unicode="&#x43f;" horiz-adv-x="577" 
d="M48 0l79 500h401l-79 -500h-42l73 464h-317l-73 -464h-42z" />
    <glyph glyph-name="uni0440" unicode="&#x440;" horiz-adv-x="589" 
d="M17 -216l96 608q4 26 6 53t3 55h41l-11 -131h-14q28 65 81 102t127 37q70 0 116 -31t64.5 -91t4.5 -146q-19 -120 -88.5 -184t-167.5 -64q-70 0 -115 37t-56 102h10l-55 -347h-42zM279 31q80 0 136.5 56.5t73.5 162.5t-22.5 162.5t-124.5 56.5q-79 0 -137 -56.5
t-75 -162.5q-16 -106 24.5 -162.5t124.5 -56.5z" />
    <glyph glyph-name="uni0441" unicode="&#x441;" horiz-adv-x="493" 
d="M249 -8q-69 0 -117 31t-68 91t-6 146q20 120 88.5 184t168.5 64q48 0 89 -16t67 -48l-23 -30q-29 29 -63.5 42t-67.5 13q-85 0 -142.5 -56t-74.5 -160q-17 -108 24.5 -165t125.5 -57q39 0 80 14.5t76 48.5l21 -33q-32 -33 -82.5 -51t-95.5 -18z" />
    <glyph glyph-name="uni0442" unicode="&#x442;" horiz-adv-x="430" 
d="M154 0l73 464h-191l6 36h424l-6 -36h-191l-73 -464h-42z" />
    <glyph glyph-name="uni0443" unicode="&#x443;" horiz-adv-x="526" 
d="M-11 -227l-9 39q49 11 82.5 27.5t59 42.5t48.5 65l35 60l-2 -21l-137 514h46l125 -484h-23l274 484h50l-321 -554q-25 -43 -50.5 -72.5t-53 -49.5t-58 -32t-66.5 -19z" />
    <glyph glyph-name="uni0444" unicode="&#x444;" horiz-adv-x="778" 
d="M294 -216l54 340h11q-25 -63 -66.5 -97.5t-98.5 -34.5q-55 0 -89.5 33.5t-46.5 93.5t1 141q19 119 74 183.5t134 64.5q57 0 90 -34.5t40 -97.5h-9l57 360h42l-57 -360h-12q26 63 67.5 97.5t96.5 34.5q56 0 91 -33t47.5 -93.5t-1.5 -141.5q-19 -118 -74.5 -183t-135.5 -65
q-55 0 -88.5 34.5t-40.5 97.5h10l-54 -340h-42zM199 30q65 0 109 57t61 163q16 104 -11 162t-90 58t-108 -58t-61 -162q-17 -106 10 -163t90 -57zM508 30q63 0 108.5 57t62.5 163q16 104 -11.5 162t-90.5 58q-65 0 -108.5 -58t-59.5 -162q-17 -106 9.5 -163t89.5 -57z" />
    <glyph glyph-name="uni0445" unicode="&#x445;" horiz-adv-x="528" 
d="M-9 0l259 271v-26l-165 255h49l140 -221h-15l209 221h55l-241 -252v19l171 -267h-50l-148 235h15l-224 -235h-55z" />
    <glyph glyph-name="uni0446" unicode="&#x446;" horiz-adv-x="589" 
d="M457 -130l21 130h-430l79 500h42l-73 -464h307l73 464h41l-73 -464h76l-26 -166h-37z" />
    <glyph glyph-name="uni0447" unicode="&#x447;" horiz-adv-x="544" 
d="M374 0l35 221q-33 -20 -72 -31t-83 -11q-63 0 -104.5 21t-57.5 63.5t-6 106.5l20 130h42l-20 -128q-13 -81 20 -117.5t113 -36.5q45 0 81 10t73 34l38 238h42l-79 -500h-42z" />
    <glyph glyph-name="uni0448" unicode="&#x448;" horiz-adv-x="789" 
d="M48 0l79 500h42l-73 -464h243l73 464h42l-73 -464h243l73 464h43l-79 -500h-613z" />
    <glyph glyph-name="uni0449" unicode="&#x449;" horiz-adv-x="811" 
d="M679 -130l21 130h-652l79 500h42l-73 -464h243l73 464h42l-73 -464h243l73 464h43l-73 -464h75l-26 -166h-37z" />
    <glyph glyph-name="uni044A" unicode="&#x44a;" horiz-adv-x="615" 
d="M128 0l74 464h-166l6 36h207l-30 -191h165q95 0 136.5 -42.5t29.5 -119.5q-12 -76 -64.5 -111.5t-144.5 -35.5h-213zM176 36h170q70 0 111 26.5t50 87.5q10 65 -22 94t-102 29h-170z" />
    <glyph glyph-name="uni044B" unicode="&#x44b;" horiz-adv-x="704" 
d="M48 0l79 500h42l-30 -191h165q95 0 136.5 -42.5t29.5 -119.5q-12 -76 -64.5 -111.5t-144.5 -35.5h-213zM96 36h170q70 0 111 26.5t50 87.5q10 65 -22 94t-102 29h-170zM535 0l79 500h41l-79 -500h-41z" />
    <glyph glyph-name="uni044C" unicode="&#x44c;" horiz-adv-x="535" 
d="M48 0l79 500h42l-30 -191h165q95 0 136.5 -42.5t29.5 -119.5q-12 -76 -64.5 -111.5t-144.5 -35.5h-213zM96 36h170q70 0 110.5 26.5t50.5 87.5q10 65 -22 94t-102 29h-170z" />
    <glyph glyph-name="uni044D" unicode="&#x44d;" horiz-adv-x="503" 
d="M182 -8q-52 0 -93.5 16.5t-67.5 47.5l23 30q29 -29 64 -42t72 -13q91 0 148 57t71 149l10 -1h-279l7 39h280l-14 -24q14 104 -26 161t-130 57q-42 0 -83.5 -14.5t-76.5 -48.5l-21 33q32 33 83.5 51t100.5 18q71 0 119.5 -31t68.5 -91t6 -146q-13 -80 -48.5 -135.5
t-89.5 -84t-124 -28.5z" />
    <glyph glyph-name="uni044E" unicode="&#x44e;" horiz-adv-x="746" 
d="M430 -8q-100 0 -152 65t-36 184h-115l-38 -241h-41l79 500h41l-35 -222h115q24 111 90.5 170.5t162.5 59.5q70 0 116.5 -31t65 -91t4.5 -146q-13 -80 -49 -135.5t-89 -84t-119 -28.5zM434 31q80 0 138 56.5t74 162.5q17 106 -24 162.5t-125 56.5q-80 0 -136.5 -56.5
t-73.5 -162.5t22.5 -162.5t124.5 -56.5z" />
    <glyph glyph-name="uni044F" unicode="&#x44f;" horiz-adv-x="531" 
d="M8 0l109 149q24 33 53 51.5t53 18.5h17l-12 -7q-72 0 -111.5 40t-28.5 115q10 61 56.5 97t136.5 36h201l-79 -500h-42l33 208h-102q-44 0 -77 -19.5t-57 -52.5l-99 -136h-51zM237 244h163l35 221h-152q-71 0 -108 -28t-44 -72q-10 -61 20.5 -91t85.5 -30z" />
    <glyph glyph-name="uni0450" unicode="&#x450;" horiz-adv-x="547" 
d="M266 -8q-78 0 -129 32.5t-71 93.5t-7 146q13 78 48 132.5t89 83t123 28.5q66 0 109 -28.5t61 -80t8 -120.5l-4 -27h-409l6 38h387l-17 -13q13 92 -23 142.5t-122 50.5q-62 0 -107 -27t-72 -73.5t-35 -106.5l-2 -15q-14 -105 29.5 -161t138.5 -56q47 0 93 15t83 51l22 -33
q-39 -34 -91.5 -53t-107.5 -19zM315 549l-140 200h53l123 -200h-36z" />
    <glyph glyph-name="uni0451" unicode="&#x451;" horiz-adv-x="547" 
d="M266 -8q-78 0 -129 32.5t-71 93.5t-7 146q13 78 48 132.5t89 83t123 28.5q66 0 109 -28.5t61 -80t8 -120.5l-4 -27h-409l6 38h387l-17 -13q13 92 -23 142.5t-122 50.5q-62 0 -107 -27t-72 -73.5t-35 -106.5l-2 -15q-14 -105 29.5 -161t138.5 -56q47 0 93 15t83 51l22 -33
q-39 -34 -91.5 -53t-107.5 -19zM397 620l9 60h61l-9 -60h-61zM236 620l9 60h61l-9 -60h-61z" />
    <glyph glyph-name="uni0452" unicode="&#x452;" horiz-adv-x="574" 
d="M241 -185l-6 37q61 12 96.5 36.5t54.5 64t28 96.5l41 259q14 87 -14 124t-100 37q-81 0 -135 -49t-67 -130l-46 -290h-42l94 594h-99l6 37h99l17 105h42l-17 -105h204l-6 -37h-204l-34 -215h-14q30 63 84.5 96t125.5 33q93 0 128 -52t20 -146l-41 -257
q-12 -78 -36 -125.5t-67 -73t-112 -39.5z" />
    <glyph glyph-name="uni0453" unicode="&#x453;" horiz-adv-x="425" 
d="M48 0l79 500h325l-6 -36h-283l-73 -464h-42zM266 549l135 200h55l-154 -200h-36z" />
    <glyph glyph-name="uni0454" unicode="&#x454;" horiz-adv-x="510" 
d="M254 -8q-72 0 -121 31t-69 91t-6 146q13 80 48.5 135.5t90 84t123.5 28.5q52 0 93.5 -16t67.5 -48l-23 -30q-29 29 -64 42t-72 13q-91 0 -148 -57t-71 -149l-6 12h279l-7 -39h-280l10 13q-13 -104 26.5 -161t129.5 -57q43 0 84.5 14.5t76.5 48.5l21 -33
q-31 -33 -82.5 -51t-100.5 -18z" />
    <glyph glyph-name="uni0455" unicode="&#x455;" horiz-adv-x="498" 
d="M212 -8q-52 0 -99.5 16.5t-74.5 42.5l22 34q32 -26 71 -40t85 -14q66 0 106 25.5t47 67.5q6 38 -14 62.5t-71 32.5l-64 11q-75 12 -103.5 51.5t-19.5 95.5q7 41 33.5 70t67.5 45t90 16q54 0 96.5 -16t64.5 -39l-23 -34q-26 24 -61 37t-77 13q-64 0 -102 -27.5t-45 -69.5
q-6 -39 11.5 -64.5t63.5 -33.5l67 -12q77 -13 107.5 -49t21.5 -90q-6 -38 -31.5 -68t-68.5 -46.5t-100 -16.5z" />
    <glyph glyph-name="uni0456" unicode="&#x456;" horiz-adv-x="224" 
d="M51 0l79 500h42l-79 -500h-42zM140 631l10 63h64l-10 -63h-64z" />
    <glyph glyph-name="uni0457" unicode="&#x457;" horiz-adv-x="224" 
d="M51 0l79 500h42l-79 -500h-42zM221 620l9 60h61l-9 -60h-61zM60 620l9 60h61l-9 -60h-61z" />
    <glyph glyph-name="uni0458" unicode="&#x458;" horiz-adv-x="224" 
d="M-63 -218q-10 0 -28.5 2.5t-29.5 8.5l7 40q11 -4 27 -8t29 -4q47 0 73 31t36 97l87 551h42l-89 -560q-12 -78 -51.5 -118t-102.5 -40zM148 631l10 63h64l-10 -63h-64z" />
    <glyph glyph-name="uni0459" unicode="&#x459;" horiz-adv-x="885" 
d="M6 -9l-16 35q41 20 69.5 46.5t48.5 66.5t35.5 100t29.5 146l19 115h327l-30 -191h165q95 0 136.5 -42.5t29.5 -119.5q-12 -76 -64.5 -111.5t-144.5 -35.5h-213l74 464h-245l-13 -80q-15 -93 -32.5 -158.5t-41.5 -110t-56.5 -74t-77.5 -50.5zM446 36h170q70 0 111 26.5
t50 87.5q10 65 -22 94t-102 29h-170z" />
    <glyph glyph-name="uni045A" unicode="&#x45a;" horiz-adv-x="897" 
d="M48 0l79 500h42l-35 -222h321l35 222h41l-30 -191h165q95 0 136.5 -42.5t29.5 -119.5q-12 -76 -64.5 -111.5t-144.5 -35.5h-212l38 241h-321l-38 -241h-42zM458 36h170q70 0 111 26.5t50 87.5q10 65 -22 94t-102 29h-170z" />
    <glyph glyph-name="uni045B" unicode="&#x45b;" horiz-adv-x="576" 
d="M51 0l94 594h-99l6 37h99l17 105h42l-17 -105h204l-6 -37h-204l-34 -215h-14q30 63 84.5 96t125.5 33q93 0 128 -52t20 -146l-49 -310h-42l49 308q14 87 -14 124t-100 37q-82 0 -135.5 -49t-66.5 -130l-46 -290h-42z" />
    <glyph glyph-name="uni045C" unicode="&#x45c;" horiz-adv-x="509" 
d="M48 0l79 500h42l-35 -223h110l217 223h53l-229 -235l-19 12q29 -3 47.5 -13t34.5 -33t36 -67l76 -164h-43l-73 159q-15 33 -30.5 51t-37 25t-55.5 7h-93l-38 -242h-42zM309 549l135 200h55l-154 -200h-36z" />
    <glyph glyph-name="uni045D" unicode="&#x45d;" horiz-adv-x="578" 
d="M48 0l79 500h39l-74 -468l-23 2l422 466h38l-79 -500h-39l74 468l24 -2l-423 -466h-38zM316 549l-140 200h53l123 -200h-36z" />
    <glyph glyph-name="uni045E" unicode="&#x45e;" horiz-adv-x="526" 
d="M-11 -227l-9 39q49 11 82.5 27.5t59 42.5t48.5 65l35 60l-2 -21l-137 514h46l125 -484h-23l274 484h50l-321 -554q-25 -43 -50.5 -72.5t-53 -49.5t-58 -32t-66.5 -19zM312 547q-31 0 -62 12t-55.5 39.5t-36.5 72.5l33 14q14 -52 45.5 -77t76.5 -25q46 0 78 21.5t64 79.5
l32 -13q-23 -49 -52 -76t-60 -37.5t-63 -10.5z" />
    <glyph glyph-name="uni045F" unicode="&#x45f;" horiz-adv-x="577" 
d="M208 -130l21 130h-181l79 500h42l-73 -464h317l73 464h42l-79 -500h-182l-21 -130h-38z" />
    <glyph glyph-name="uni0462" unicode="&#x462;" horiz-adv-x="729" 
d="M120 0l87 548h-180l6 39h180l19 118h42l-19 -118h248l-6 -39h-248l-27 -169h234q114 0 168 -49.5t39 -148.5q-13 -88 -80 -134.5t-172 -46.5h-291zM168 39h238q96 0 149 35.5t65 113.5t-28 115t-136 37h-240z" />
    <glyph glyph-name="uni0463" unicode="&#x463;" horiz-adv-x="616" 
d="M129 0l73 462h-166l6 38h166l38 236h42l-38 -236h166l-6 -38h-166l-24 -153h165q95 0 136.5 -42.5t29.5 -119.5q-12 -76 -64.5 -111.5t-144.5 -35.5h-213zM177 36h170q70 0 111 26.5t50 87.5q10 65 -22 94t-102 29h-170z" />
    <glyph glyph-name="uni046A" unicode="&#x46a;" horiz-adv-x="934" 
d="M-25 0l157 239q44 68 98 103.5t141 35.5h82l-7 -13l-250 340h686l-358 -340l-3 13h72q63 0 101.5 -17t61 -48.5t36.5 -73.5l83 -239h-41l-72 210q-17 52 -39.5 79.5t-52.5 38.5t-71 11h-97l-54 -339h-42l54 339h-96q-64 0 -112 -30t-92 -99l-136 -210h-49zM484 382h2
l324 312l-4 -27h-552l4 27z" />
    <glyph glyph-name="uni046B" unicode="&#x46b;" horiz-adv-x="770" 
d="M-35 0l128 164q34 44 59.5 68.5t54 34.5t69.5 10h83l-2 -7l-164 230h462l-235 -230l-1 7h84q40 0 64.5 -10t42 -34.5t37.5 -68.5l75 -164h-42l-73 159q-15 34 -31 51.5t-37.5 24.5t-55.5 7h-79l-38 -242h-42l38 242h-79q-33 0 -56 -7t-43 -24.5t-46 -51.5l-122 -159h-51z
M388 292h2l188 187l-3 -15h-320l3 15z" />
    <glyph glyph-name="uni0472" unicode="&#x472;" horiz-adv-x="759" 
d="M100 339l6 38h596l-6 -38h-596zM86 363q18 112 66.5 190t123.5 119t171 41q100 0 163.5 -46.5t88 -130t6.5 -194.5q-17 -111 -66 -189.5t-124 -119.5t-172 -41q-99 0 -162.5 46t-87.5 129.5t-7 195.5zM129 353q-16 -99 4.5 -170.5t74.5 -110.5t138 -39q130 0 211 84
t105 235q16 98 -5 170t-74.5 111t-137.5 39q-130 0 -210.5 -83.5t-105.5 -235.5z" />
    <glyph glyph-name="uni0473" unicode="&#x473;" horiz-adv-x="559" 
d="M243 -8q-69 0 -115.5 31t-64.5 91t-5 146q13 80 48.5 135.5t88.5 84t119 28.5q70 0 116 -31t65 -91t5 -146q-13 -80 -49 -135.5t-89 -84t-119 -28.5zM247 31q80 0 137.5 56.5t74.5 162.5t-24 162.5t-125 56.5q-80 0 -136.5 -56.5t-73.5 -162.5t22.5 -162.5t124.5 -56.5z
M75 232l5 36h405l-5 -36h-405z" />
    <glyph glyph-name="uni0474" unicode="&#x474;" horiz-adv-x="744" 
d="M274 0l-190 705h42l184 -681h-20l299 510q31 53 58.5 87.5t56 54.5t62.5 28.5t78 8.5l-1 -36q-46 0 -80 -12.5t-63.5 -44t-63.5 -87.5l-316 -533h-46z" />
    <glyph glyph-name="uni0475" unicode="&#x475;" horiz-adv-x="547" 
d="M199 0l-133 500h46l124 -484h-24l219 383q24 42 48.5 65.5t54.5 33.5t70 10l-1 -35q-33 -1 -56 -10t-41.5 -29.5t-39.5 -56.5l-219 -377h-48z" />
    <glyph glyph-name="uni048A" unicode="&#x48a;" horiz-adv-x="752" 
d="M580 -150l76 150h-93l6 39h144l-95 -189h-38zM57 0l112 705h39l-105 -665l-23 3l598 662h36l-112 -705h-39l105 665l20 -4l-597 -661h-34zM448 760q-35 0 -69.5 12t-61.5 39.5t-41 72.5l34 14q17 -52 51.5 -77t86.5 -25q53 0 90.5 21.5t75.5 79.5l31 -13
q-27 -49 -59.5 -76t-67.5 -37.5t-70 -10.5z" />
    <glyph glyph-name="uni048B" unicode="&#x48b;" horiz-adv-x="599" 
d="M408 -130l70 130h-67l6 37h119l-89 -167h-39zM48 0l79 500h39l-74 -468l-23 2l422 466h38l-79 -500h-39l74 468l24 -2l-423 -466h-38zM339 547q-31 0 -62 12t-55.5 39.5t-36.5 72.5l33 14q14 -52 45.5 -77t76.5 -25q46 0 78 21.5t64 79.5l32 -13q-23 -49 -52 -76
t-60 -37.5t-63 -10.5z" />
    <glyph glyph-name="uni048C" unicode="&#x48c;" horiz-adv-x="718" 
d="M109 0l87 549h-149l6 38h149l19 118h42l-19 -118h148l-6 -38h-148l-27 -170h234q114 0 168 -49.5t39 -148.5q-13 -88 -80 -134.5t-172 -46.5h-291zM157 39h238q96 0 149 35.5t65 113.5t-28 115t-136 37h-240z" />
    <glyph glyph-name="uni048D" unicode="&#x48d;" horiz-adv-x="616" 
d="M129 0l73 462h-166l6 38h166l38 236h42l-38 -236h166l-6 -38h-166l-24 -153h165q95 0 136.5 -42.5t29.5 -119.5q-12 -76 -64.5 -111.5t-144.5 -35.5h-213zM177 36h170q70 0 111 26.5t50 87.5q10 65 -22 94t-102 29h-170z" />
    <glyph glyph-name="uni048E" unicode="&#x48e;" horiz-adv-x="638" 
d="M57 0l112 705h248q123 0 173 -53t34 -156q-10 -66 -50 -114t-102 -70l-1 14l48 -92l-30 -17l-54 102l12 -15q-19 -3 -41 -5t-49 -2h-212l-47 -297h-41zM151 336h211q15 0 34 1t32 5v-10l-45 89l30 17l53 -101l-12 12q55 17 86 54.5t40 93.5q14 85 -23 127.5t-138 42.5
h-215z" />
    <glyph glyph-name="uni048F" unicode="&#x48f;" horiz-adv-x="589" 
d="M16 -216l96 608q4 26 6 53t3 55h41l-11 -131h-14q28 65 81 102t127 37q70 0 116 -31t64.5 -91t4.5 -146q-11 -70 -39 -119.5t-72 -82.5v11l40 -62l-29 -21l-39 61l7 -2q-28 -18 -58.5 -25.5t-65.5 -7.5q-70 0 -115 37t-56 102h10l-55 -347h-42zM341 469q-79 0 -137 -56.5
t-75 -162.5q-16 -106 24.5 -162.5t124.5 -56.5q56 0 99 28l-2 -7l-41 63l30 21l45 -72l-10 10q34 27 56.5 71t32.5 105q17 106 -22.5 162.5t-124.5 56.5z" />
    <glyph glyph-name="uni0490" unicode="&#x490;" horiz-adv-x="541" 
d="M57 0l112 705h390l24 150h41l-30 -189h-390l-105 -666h-42z" />
    <glyph glyph-name="uni0491" unicode="&#x491;" horiz-adv-x="425" 
d="M48 0l79 500h286l19 118h38l-24 -154h-283l-73 -464h-42z" />
    <glyph glyph-name="uni0492" unicode="&#x492;" horiz-adv-x="574" 
d="M90 0l54 338h-103l6 38h103l52 329h431l-7 -39h-389l-45 -290h196l-6 -38h-196l-54 -338h-42z" />
    <glyph glyph-name="uni0493" unicode="&#x493;" horiz-adv-x="445" 
d="M69 0l37 234h-104l6 36h104l36 230h324l-6 -36h-283l-30 -194h156l-6 -36h-156l-37 -234h-41z" />
    <glyph glyph-name="uni0494" unicode="&#x494;" horiz-adv-x="657" 
d="M331 -188q-27 0 -54 4.5t-43 11.5l7 40q18 -9 42 -13.5t54 -4.5q74 0 120.5 48t62.5 144l15 100q20 126 -25.5 186t-164.5 60q-56 0 -104 -11.5t-89 -34.5l-54 -342h-41l112 705h427l-7 -39h-386l-44 -279q35 20 86.5 31t105.5 11q137 0 192.5 -72t34.5 -209l-16 -105
q-12 -80 -43 -131.5t-78 -75.5t-110 -24z" />
    <glyph glyph-name="uni0495" unicode="&#x495;" horiz-adv-x="541" 
d="M240 -185l-2 37q61 12 96.5 37t53.5 64.5t27 96.5l13 84q14 87 -14.5 124t-103.5 37q-82 0 -135.5 -49t-66.5 -130l-18 -116h-42l79 500h325l-6 -39h-283l-40 -254l-15 -2q30 63 84.5 96t125.5 33q96 0 132 -52t21 -144l-14 -87q-11 -72 -34.5 -119.5t-67 -75
t-115.5 -41.5z" />
    <glyph glyph-name="uni0496" unicode="&#x496;" horiz-adv-x="959" 
d="M895 -150l24 150h-43l6 39h84l-30 -189h-41zM-25 0l157 239q41 63 90 97.5t113 39.5l-14 -17l-190 346h46l186 -342l-16 15h131l52 327h42l-52 -327h133l-28 -15l297 342h52l-300 -346l-11 17q49 -4 89.5 -39t62.5 -98l83 -239h-41l-72 210q-24 70 -63 99.5t-101 29.5
h-107l-54 -339h-42l54 339h-107q-64 0 -112.5 -30t-92.5 -99l-136 -210h-49z" />
    <glyph glyph-name="uni0497" unicode="&#x497;" horiz-adv-x="808" 
d="M696 -130l21 130h-37l6 37h76l-27 -167h-39zM-35 0l128 164q34 44 58 67t46.5 33t52.5 13l-16 -12l-158 235h46l148 -223h99l35 223h42l-35 -223h94l218 223h54l-232 -235l-17 12q27 -3 46 -13t36 -33t37 -67l75 -164h-42l-73 159q-15 33 -30.5 51t-37 25t-55.5 7h-79
l-38 -242h-42l38 242h-80q-34 0 -56.5 -7t-42.5 -24.5t-46 -51.5l-122 -159h-51z" />
    <glyph glyph-name="uni0498" unicode="&#x498;" horiz-adv-x="662" 
d="M243 -150l26 163h44l-26 -163h-44zM293 -8q-89 0 -157 26t-104 70l23 35q47 -46 105 -68t140 -22q107 0 165.5 39t70.5 113q12 79 -30.5 115.5t-138.5 36.5h-179l7 39h166q98 0 149.5 37.5t62.5 106.5q11 73 -35 112.5t-147 39.5q-71 0 -134.5 -21t-122.5 -65l-21 35
q59 46 131 69t148 23q81 0 134 -23.5t76.5 -67t13.5 -105.5q-10 -63 -55 -108t-123 -59l2 12q76 -8 114 -55t25 -125q-10 -61 -45 -103.5t-95 -64.5t-146 -22z" />
    <glyph glyph-name="uni0499" unicode="&#x499;" horiz-adv-x="489" 
d="M159 -130l25 154h40l-25 -154h-40zM203 -8q-61 0 -111.5 18.5t-76.5 51.5l22 35q31 -34 73.5 -50.5t93.5 -16.5q81 0 122 27.5t48 77.5q8 49 -21 74.5t-91 25.5h-107l6 38h99q55 0 92 26t44 72t-23 72.5t-98 26.5q-52 0 -98 -14t-91 -43l-21 33q47 32 100 47t113 15
q87 0 129 -37t31 -105q-7 -46 -45.5 -79.5t-92.5 -38.5l2 11q59 -1 91.5 -37t23.5 -92q-10 -61 -61.5 -99.5t-152.5 -38.5z" />
    <glyph glyph-name="uni049A" unicode="&#x49a;" horiz-adv-x="646" 
d="M562 -150l24 150h-43l6 39h84l-30 -189h-41zM57 0l112 705h41l-52 -327h164l-26 -15l296 342h52l-300 -346l-12 17q57 -6 94 -40t59 -97l83 -239h-41l-71 210q-23 70 -63 99.5t-102 29.5h-139l-54 -339h-41z" />
    <glyph glyph-name="uni049B" unicode="&#x49b;" horiz-adv-x="547" 
d="M434 -130l21 130h-37l6 37h76l-27 -167h-39zM48 0l79 500h42l-35 -223h110l217 223h53l-229 -235l-19 12q29 -3 47.5 -13t34.5 -33t36 -67l76 -164h-43l-73 159q-15 33 -30.5 51t-37 25t-55.5 7h-93l-38 -242h-42z" />
    <glyph glyph-name="uni049C" unicode="&#x49c;" horiz-adv-x="637" 
d="M57 0l112 705h42l-52 -327h85l27 171h36l-27 -171h37l283 327h52l-300 -346l-12 17q59 -7 96 -40t59 -97l83 -239h-41l-71 210q-23 70 -63.5 99.5t-102.5 29.5h-34l9 8l-28 -179h-36l27 171h-85l-54 -339h-42z" />
    <glyph glyph-name="uni049D" unicode="&#x49d;" horiz-adv-x="509" 
d="M48 0l79 500h42l-35 -223h60l19 119h36l-19 -119h14l217 223h53l-229 -235l-20 12q29 -3 47.5 -13t35 -33t36.5 -67l76 -164h-43l-73 159q-15 32 -30 50t-36.5 25.5t-56.5 7.5h-14l19 10l-22 -138h-36l20 128h-60l-38 -242h-42z" />
    <glyph glyph-name="uni049E" unicode="&#x49e;" horiz-adv-x="662" 
d="M92 0l88 552h-146l6 38h146l18 115h41l-18 -115h157l-6 -38h-157l-28 -174h164l-26 -15l296 342h52l-300 -346l-12 17q57 -4 94 -39t59 -98l83 -239h-41l-71 210q-23 70 -63 99.5t-102 29.5h-139l-54 -339h-41z" />
    <glyph glyph-name="uni049F" unicode="&#x49f;" horiz-adv-x="512" 
d="M51 0l94 594h-99l6 37h99l17 105h42l-17 -105h204l-6 -37h-204l-50 -317h110l217 223h53l-229 -235l-19 12q29 -3 47.5 -13t34.5 -33t36 -67l76 -164h-43l-73 159q-15 33 -30.5 51t-37 25t-55.5 7h-93l-38 -242h-42z" />
    <glyph glyph-name="uni04A0" unicode="&#x4a0;" horiz-adv-x="768" 
d="M75 667l6 38h270l-6 -38h-270zM198 0l112 705h41l-52 -327h164l-26 -15l296 342h52l-300 -346l-12 17q57 -6 94 -40t59 -97l83 -239h-41l-71 210q-23 70 -63 99.5t-102 29.5h-139l-54 -339h-41z" />
    <glyph glyph-name="uni04A1" unicode="&#x4a1;" horiz-adv-x="590" 
d="M129 0l73 464h-166l6 36h208l-35 -223h110l217 223h53l-229 -235l-20 12q29 -3 48 -13t35 -33t36 -67l76 -164h-43l-73 159q-15 33 -30.5 51t-37 25t-55.5 7h-93l-38 -242h-42z" />
    <glyph glyph-name="uni04A2" unicode="&#x4a2;" horiz-adv-x="796" 
d="M679 -150l24 150h-104l6 39h145l-30 -189h-41zM57 0l112 705h42l-52 -328h481l52 328h42l-112 -705h-42l54 338h-481l-54 -338h-42z" />
    <glyph glyph-name="uni04A3" unicode="&#x4a3;" horiz-adv-x="582" 
d="M470 -130l21 130h-80l6 37h118l-27 -167h-38zM48 0l79 500h42l-35 -222h320l35 222h42l-79 -500h-42l38 241h-320l-38 -241h-42z" />
    <glyph glyph-name="uni04A4" unicode="&#x4a4;" horiz-adv-x="953" 
d="M57 0l112 705h41l-52 -328h483l52 328h318l-7 -39h-277l-105 -666h-41l54 339h-483l-54 -339h-41z" />
    <glyph glyph-name="uni04A5" unicode="&#x4a5;" horiz-adv-x="741" 
d="M48 0l79 500h42l-35 -222h313l35 222h286l-6 -36h-244l-73 -464h-42l38 241h-313l-38 -241h-42z" />
    <glyph glyph-name="uni04A8" unicode="&#x4a8;" horiz-adv-x="805" 
d="M354 -8q-103 0 -169 44.5t-91.5 127.5t-7.5 198q18 112 67.5 190t124 119.5t165.5 41.5q25 0 43.5 -2t30.5 -5l-7 -42q-17 3 -35 4.5t-33 1.5q-122 0 -205.5 -82.5t-107.5 -234.5t35 -236t192 -84q82 0 152.5 36.5t118.5 104t62 159.5q14 88 -18 136t-100 48
q-66 0 -111.5 -48t-59.5 -136q-14 -94 12 -161t84.5 -103t139.5 -36q44 0 77 8t63 24l6 -42q-28 -16 -64.5 -23.5t-83.5 -7.5q-71 0 -127.5 24.5t-94 70.5t-52.5 111t-2 146q11 67 40 115.5t74 75t102 26.5q61 0 100.5 -28.5t55 -79.5t3.5 -121q-12 -76 -45.5 -138.5
t-84 -107.5t-114 -69.5t-135.5 -24.5z" />
    <glyph glyph-name="uni04A9" unicode="&#x4a9;" horiz-adv-x="609" 
d="M261 -8q-77 0 -126.5 34t-69.5 95t-7 143q13 78 48.5 132.5t89.5 83t120 28.5q36 0 65.5 -6t45.5 -17l-13 -36q-18 11 -45.5 16t-52.5 5q-87 0 -144 -58t-73 -158q-17 -108 27 -166t134 -58q93 0 154 51.5t74 139.5q9 58 -11.5 90.5t-62.5 32.5q-43 0 -73.5 -32
t-38.5 -88q-14 -97 32.5 -145.5t135.5 -48.5q24 0 51.5 7t52.5 20l11 -35q-28 -15 -58 -22.5t-62 -7.5q-54 0 -95.5 17t-68.5 48.5t-37 75.5t-2 97q7 45 28 79t53 53.5t72 19.5q42 0 70 -20t39.5 -57t3.5 -89q-8 -50 -32 -91.5t-60 -71t-81 -45.5t-94 -16z" />
    <glyph glyph-name="uni04AA" unicode="&#x4aa;" horiz-adv-x="684" 
d="M302 -150l26 163h44l-26 -163h-44zM363 -8q-111 0 -178.5 46t-92 129.5t-7.5 195.5q18 112 67 190t124.5 119t173.5 41q74 0 129 -22t95 -66l-23 -36q-44 46 -91.5 64.5t-112.5 18.5q-131 0 -212.5 -83.5t-105.5 -235.5q-15 -96 4.5 -168t76.5 -112t153 -40q61 0 118 21
t104 68l22 -34q-45 -47 -110.5 -71.5t-133.5 -24.5z" />
    <glyph glyph-name="uni04AB" unicode="&#x4ab;" horiz-adv-x="493" 
d="M200 -130l25 154h40l-25 -154h-40zM249 -8q-69 0 -117 31t-68 91t-6 146q20 120 88.5 184t168.5 64q48 0 89 -16t67 -48l-23 -30q-29 29 -63.5 42t-67.5 13q-85 0 -142.5 -56t-74.5 -160q-17 -108 24.5 -165t125.5 -57q39 0 80 14.5t76 48.5l21 -33q-32 -33 -82.5 -51
t-95.5 -18z" />
    <glyph glyph-name="uni04AC" unicode="&#x4ac;" horiz-adv-x="590" 
d="M312 -150l24 150h-104l105 666h-262l7 39h566l-7 -39h-262l-99 -627h103l-30 -189h-41z" />
    <glyph glyph-name="uni04AD" unicode="&#x4ad;" horiz-adv-x="432" 
d="M214 -130l21 130h-80l6 37h118l-27 -167h-38zM154 0l73 464h-191l6 36h424l-6 -36h-191l-73 -464h-42z" />
    <glyph glyph-name="uni04AE" unicode="&#x4ae;" horiz-adv-x="587" 
d="M232 0l52 326l5 -38l-216 417h46l192 -378h-15l312 378h50l-348 -417l16 38l-52 -326h-42z" />
    <glyph glyph-name="uni04AF" unicode="&#x4af;" horiz-adv-x="526" 
d="M168 -216l33 208l-135 508h45l125 -484h-24l277 484h49l-295 -507l-32 -209h-43z" />
    <glyph glyph-name="uni04B0" unicode="&#x4b0;" horiz-adv-x="587" 
d="M232 0l52 326l5 -38l-216 417h46l192 -378h-15l312 378h50l-348 -417l16 38l-52 -326h-42zM118 307l5 36h372l-5 -36h-372z" />
    <glyph glyph-name="uni04B1" unicode="&#x4b1;" horiz-adv-x="526" 
d="M174 -180l23 144h-122l6 36h126l-3 -17l-138 517h46l124 -484h-24l277 484h49l-300 -517l2 17h127l-6 -36h-122l-23 -144h-42z" />
    <glyph glyph-name="uni04B2" unicode="&#x4b2;" horiz-adv-x="655" 
d="M558 -150l24 150h-43l6 39h84l-30 -189h-41zM-18 0l332 367l2 -10l-204 348h48l185 -318h-12l283 318h55l-313 -348l-3 10l215 -367h-48l-199 342h22l-308 -342h-55z" />
    <glyph glyph-name="uni04B3" unicode="&#x4b3;" horiz-adv-x="535" 
d="M417 -130l21 130h-37l6 37h76l-27 -167h-39zM-9 0l259 271v-26l-165 255h49l140 -221h-15l209 221h55l-241 -252v19l171 -267h-50l-148 235h15l-224 -235h-55z" />
    <glyph glyph-name="uni04B4" unicode="&#x4b4;" horiz-adv-x="931" 
d="M803 -150l24 150h-627l105 666h-230l7 39h501l-7 -39h-230l-99 -627h482l106 666h42l-106 -666h103l-30 -189h-41z" />
    <glyph glyph-name="uni04B5" unicode="&#x4b5;" horiz-adv-x="676" 
d="M543 -130l21 130h-435l73 464h-166l6 36h385l-6 -36h-178l-67 -428h313l73 464h42l-73 -464h76l-26 -166h-38z" />
    <glyph glyph-name="uni04B6" unicode="&#x4b6;" horiz-adv-x="711" 
d="M575 -150l24 150h-104l6 39h145l-30 -189h-41zM495 0l50 318q-39 -21 -92 -31.5t-107 -10.5q-93 0 -150 31.5t-78.5 94t-7.5 155.5l24 148h42l-23 -142q-22 -133 28 -189.5t167 -56.5q54 0 105.5 11t99.5 36l54 341h42l-112 -705h-42z" />
    <glyph glyph-name="uni04B7" unicode="&#x4b7;" horiz-adv-x="546" 
d="M434 -130l21 130h-80l6 37h118l-27 -167h-38zM374 0l35 221q-33 -20 -72 -31t-83 -11q-63 0 -104.5 21t-57.5 63.5t-6 106.5l20 130h42l-20 -128q-13 -81 20 -117.5t113 -36.5q45 0 81 10t73 34l38 238h42l-79 -500h-42z" />
    <glyph glyph-name="uni04B8" unicode="&#x4b8;" horiz-adv-x="674" 
d="M496 0l50 318q-40 -20 -95 -31t-109 -11l12 10l-27 -170h-39l27 170l10 -10q-82 5 -135 36t-73.5 92t-6.5 153l24 148h42l-23 -142q-21 -130 26 -185.5t153 -60.5l-13 -10l30 191h39l-30 -191l-10 10q53 0 105.5 11t100.5 36l54 341h41l-112 -705h-41z" />
    <glyph glyph-name="uni04B9" unicode="&#x4b9;" horiz-adv-x="544" 
d="M374 0l35 220q-33 -19 -71 -29.5t-74 -11.5l10 11l-18 -117h-36l18 117l14 -11q-94 0 -138 47.5t-28 143.5l20 130h42l-20 -129q-13 -79 19.5 -116t108.5 -37l-15 -8l23 142h36l-23 -142l-10 8q40 1 75.5 11t72.5 32l38 239h42l-79 -500h-42z" />
    <glyph glyph-name="uni04BA" unicode="&#x4ba;" horiz-adv-x="674" 
d="M57 0l112 705h42l-51 -318q40 21 95 31.5t107 10.5q90 0 147 -31.5t79 -94t7 -155.5l-23 -148h-42l22 142q20 127 -29 187t-166 60q-53 0 -104.5 -10t-99.5 -36l-54 -343h-42z" />
    <glyph glyph-name="uni04BB" unicode="&#x4bb;" horiz-adv-x="576" 
d="M51 0l117 736h42l-57 -357h-14q30 63 84.5 96t125.5 33q93 0 128 -52t20 -146l-49 -310h-42l49 308q14 87 -14 124t-100 37q-82 0 -135.5 -49t-66.5 -130l-46 -290h-42z" />
    <glyph glyph-name="uni04BC" unicode="&#x4bc;" horiz-adv-x="876" 
d="M506 -8q-82 0 -140.5 24.5t-94.5 70.5t-48.5 109t-3.5 139l14 -7h-32q-91 0 -123 38.5t-19 116.5l10 59h41l-9 -56q-10 -62 12 -89.5t93 -27.5h26l-8 -4q19 113 67.5 190.5t121.5 117.5t167 40q108 0 168 -44t78 -124t-2 -188l-5 -28h-561l7 12q-14 -99 9 -167.5
t81.5 -104.5t150.5 -36q65 0 122.5 21t104.5 68l22 -34q-29 -31 -69 -52.5t-86 -32.5t-94 -11zM578 672q-128 0 -207.5 -84.5t-103.5 -236.5l-3 17h529l-14 -16q27 155 -18 237.5t-183 82.5z" />
    <glyph glyph-name="uni04BD" unicode="&#x4bd;" horiz-adv-x="640" 
d="M359 -8q-78 0 -128.5 32.5t-71 92.5t-8.5 141l3 -6h-14q-60 0 -84.5 32t-15.5 90l6 39h40l-7 -40q-7 -42 8 -62.5t59 -20.5h31l-23 -13q15 74 50 125.5t87.5 78.5t120.5 27q66 0 109 -28.5t61 -80t8 -120.5l-4 -27h-403l10 6q-16 -106 25.5 -166.5t141.5 -60.5
q47 0 93 15t83 51l22 -33q-39 -34 -91.5 -53t-107.5 -19zM408 470q-88 0 -143 -54.5t-69 -142.5l-7 17h381l-17 -13q13 92 -23 142.5t-122 50.5z" />
    <glyph glyph-name="uni04BE" unicode="&#x4be;" horiz-adv-x="876" 
d="M506 -8q-82 0 -140.5 24.5t-94.5 70.5t-48.5 109t-3.5 139l14 -7h-32q-91 0 -123 38.5t-19 116.5l10 59h41l-9 -56q-10 -62 12 -89.5t93 -27.5h26l-8 -4q19 113 67.5 190.5t121.5 117.5t167 40q108 0 168 -44t78 -124t-2 -188l-5 -28h-561l7 12q-14 -99 9 -167.5
t81.5 -104.5t150.5 -36q65 0 122.5 21t104.5 68l22 -34q-29 -31 -69 -52.5t-86 -32.5t-94 -11zM578 672q-128 0 -207.5 -84.5t-103.5 -236.5l-3 17h529l-14 -16q27 155 -18 237.5t-183 82.5zM501 -190q-43 0 -66 24.5t-23 62.5q0 44 28.5 79.5t72.5 54.5l18 -31
q-40 -16 -60 -43t-20 -56q0 -25 13.5 -40t41.5 -15q12 0 25.5 3t28.5 10l9 -34q-10 -5 -29 -10t-39 -5z" />
    <glyph glyph-name="uni04BF" unicode="&#x4bf;" horiz-adv-x="640" 
d="M359 -8q-78 0 -128.5 32.5t-71 92.5t-8.5 141l3 -6h-14q-60 0 -84.5 32t-15.5 90l6 39h40l-7 -40q-7 -42 8 -62.5t59 -20.5h31l-23 -13q15 74 50 125.5t87.5 78.5t120.5 27q66 0 109 -28.5t61 -80t8 -120.5l-4 -27h-403l10 6q-16 -106 25.5 -166.5t141.5 -60.5
q47 0 93 15t83 51l22 -33q-39 -34 -91.5 -53t-107.5 -19zM408 470q-88 0 -143 -54.5t-69 -142.5l-7 17h381l-17 -13q13 92 -23 142.5t-122 50.5zM378 -190q-43 0 -66 24.5t-23 62.5q0 44 28.5 79.5t72.5 54.5l18 -31q-40 -16 -60 -43t-20 -56q0 -25 13.5 -40t41.5 -15
q12 0 25.5 3t28.5 10l9 -34q-10 -5 -29 -10t-39 -5z" />
    <glyph glyph-name="uni04C0" unicode="&#x4c0;" horiz-adv-x="236" 
d="M57 0l112 705h42l-112 -705h-42z" />
    <glyph glyph-name="uni04C1" unicode="&#x4c1;" horiz-adv-x="957" 
d="M-25 0l157 239q41 63 90 97.5t113 39.5l-14 -17l-190 346h46l186 -342l-16 15h131l52 327h42l-52 -327h133l-28 -15l297 342h52l-300 -346l-11 17q49 -4 89.5 -39t62.5 -98l83 -239h-41l-72 210q-24 70 -63 99.5t-101 29.5h-107l-54 -339h-42l54 339h-107
q-64 0 -112.5 -30t-92.5 -99l-136 -210h-49zM555 760q-35 0 -69.5 12t-61.5 39.5t-41 72.5l34 14q17 -52 51.5 -77t86.5 -25q53 0 90.5 21.5t75.5 79.5l31 -13q-27 -49 -59.5 -76t-67.5 -37.5t-70 -10.5z" />
    <glyph glyph-name="uni04C2" unicode="&#x4c2;" horiz-adv-x="771" 
d="M-35 0l128 164q34 44 58 67t46.5 33t52.5 13l-16 -12l-158 235h46l148 -223h99l35 223h42l-35 -223h94l218 223h54l-232 -235l-17 12q27 -3 46 -13t36 -33t37 -67l75 -164h-42l-73 159q-15 33 -30.5 51t-37 25t-55.5 7h-79l-38 -242h-42l38 242h-80q-34 0 -56.5 -7
t-42.5 -24.5t-46 -51.5l-122 -159h-51zM435 547q-31 0 -62 12t-55.5 39.5t-36.5 72.5l33 14q14 -52 45.5 -77t76.5 -25q46 0 78 21.5t64 79.5l32 -13q-23 -49 -52 -76t-60 -37.5t-63 -10.5z" />
    <glyph glyph-name="uni04C3" unicode="&#x4c3;" horiz-adv-x="657" 
d="M331 -188q-27 0 -54 4t-43 11l7 42q18 -10 42 -14.5t54 -4.5q75 0 121.5 47.5t61.5 143.5l8 51q20 131 -30 189t-177 58h-169l-54 -339h-41l112 705h41l-52 -327h163l-28 -15l297 342h52l-300 -346l1 18q129 -1 189.5 -70t38.5 -209l-9 -57q-12 -79 -43 -130t-78 -75
t-110 -24z" />
    <glyph glyph-name="uni04C4" unicode="&#x4c4;" horiz-adv-x="525" 
d="M225 -185l-3 37q61 12 96 36t52.5 62t26.5 92l6 36q14 86 -19.5 125t-113.5 39h-142l-38 -242h-42l79 500h42l-35 -223h110l217 223h51l-227 -235l-13 13q64 0 106.5 -20.5t60.5 -64t7 -111.5l-6 -37q-10 -66 -33.5 -112t-67 -75t-114.5 -43z" />
    <glyph glyph-name="uni04C5" unicode="&#x4c5;" horiz-adv-x="766" 
d="M591 -150l76 150h-93l6 39h144l-95 -189h-38zM-2 -13l-16 36q45 21 84 51.5t71 82t58.5 133.5t45.5 205l33 210h454l-112 -705h-42l106 666h-373l-29 -182q-19 -118 -44.5 -202t-59.5 -140.5t-78 -93.5t-98 -61z" />
    <glyph glyph-name="uni04C6" unicode="&#x4c6;" horiz-adv-x="589" 
d="M396 -130l70 130h-67l6 37h119l-89 -167h-39zM6 -9l-16 35q41 20 69.5 46.5t48.5 66.5t35.5 100t29.5 146l19 115h327l-79 -500h-42l73 464h-244l-13 -80q-15 -93 -32.5 -158.5t-41.5 -110t-56.5 -74t-77.5 -50.5z" />
    <glyph glyph-name="uni04C7" unicode="&#x4c7;" horiz-adv-x="759" 
d="M460 -186q-16 0 -33.5 2t-35.5 6l6 39q18 -4 33.5 -6.5t29.5 -2.5q46 0 76 29t40 93l58 364h-481l-54 -338h-42l112 705h42l-52 -328h481l52 328h42l-116 -731q-9 -55 -29.5 -90.5t-52.5 -52.5t-76 -17z" />
    <glyph glyph-name="uni04C8" unicode="&#x4c8;" horiz-adv-x="580" 
d="M231 -193l3 38l44 3q53 4 86.5 37t43.5 93l41 263h-321l-38 -241h-42l79 500h42l-35 -222h321l35 222h41l-82 -521q-9 -56 -32 -92.5t-58.5 -55t-82.5 -21.5z" />
    <glyph glyph-name="uni04C9" unicode="&#x4c9;" horiz-adv-x="772" 
d="M616 -150l76 150h-93l6 39h144l-95 -189h-38zM57 0l112 705h42l-52 -328h481l52 328h42l-112 -705h-42l54 338h-481l-54 -338h-42z" />
    <glyph glyph-name="uni04CA" unicode="&#x4ca;" horiz-adv-x="597" 
d="M408 -130l70 130h-67l6 37h119l-89 -167h-39zM48 0l79 500h42l-35 -222h320l35 222h42l-79 -500h-42l38 241h-320l-38 -241h-42z" />
    <glyph glyph-name="uni04CB" unicode="&#x4cb;" horiz-adv-x="674" 
d="M418 -150h-42l30 189h106l-6 -39h-64zM495 0l50 318q-39 -21 -92 -31.5t-107 -10.5q-93 0 -150 31.5t-78.5 94t-7.5 155.5l24 148h42l-23 -142q-22 -133 28 -189.5t167 -56.5q54 0 105.5 11t99.5 36l54 341h42l-112 -705h-42z" />
    <glyph glyph-name="uni04CC" unicode="&#x4cc;" horiz-adv-x="559" 
d="M314 -130h-38l27 166h98l-6 -36h-60zM374 0l35 221q-33 -20 -72 -31t-83 -11q-63 0 -104.5 21t-57.5 63.5t-6 106.5l20 130h42l-20 -128q-13 -81 20 -117.5t113 -36.5q45 0 81 10t73 34l38 238h42l-79 -500h-42z" />
    <glyph glyph-name="uni04CD" unicode="&#x4cd;" horiz-adv-x="861" 
d="M709 -150l76 150h-93l6 39h144l-95 -189h-38zM57 0l112 705h37l195 -688h-28l414 688h36l-112 -705h-39l105 664h27l-402 -664h-32l-191 665h22l-105 -665h-39z" />
    <glyph glyph-name="uni04CE" unicode="&#x4ce;" horiz-adv-x="671" 
d="M481 -130l70 130h-67l6 37h119l-89 -167h-39zM48 0l79 500h36l143 -368l260 368h35l-79 -500h-38l72 454h22l-265 -374h-26l-147 375h18l-72 -455h-38z" />
    <glyph glyph-name="uni04CF" unicode="&#x4cf;" horiz-adv-x="224" 
d="M51 0l117 736h42l-117 -736h-42z" />
    <glyph glyph-name="uni04D0" unicode="&#x4d0;" horiz-adv-x="721" 
d="M-6 0l415 705h41l197 -705h-43l-57 204l22 -9h-437l29 9l-119 -204h-48zM422 649l-246 -421l-21 6h403l-17 -6l-117 421h-2zM433 760q-35 0 -69.5 12t-61.5 39.5t-41 72.5l34 14q17 -52 51.5 -77t86.5 -25q53 0 90.5 21.5t75.5 79.5l31 -13q-27 -49 -59.5 -76
t-67.5 -37.5t-70 -10.5z" />
    <glyph glyph-name="uni04D1" unicode="&#x4d1;" horiz-adv-x="589" 
d="M243 -8q-69 0 -115.5 31t-65 91t-4.5 146q20 120 89 184t167 64q70 0 115.5 -37t55.5 -102h-12l31 131h41q-7 -28 -14 -55t-11 -53l-62 -392h-42l21 131h14q-28 -65 -81 -102t-127 -37zM247 31q80 0 137.5 56.5t74.5 162.5t-24 162.5t-125 56.5q-80 0 -136.5 -56.5
t-73.5 -162.5t22.5 -162.5t124.5 -56.5zM338 547q-31 0 -62 12t-55.5 39.5t-36.5 72.5l33 14q14 -52 45.5 -77t76.5 -25q46 0 78 21.5t64 79.5l32 -13q-23 -49 -52 -76t-60 -37.5t-63 -10.5z" />
    <glyph glyph-name="uni04D2" unicode="&#x4d2;" horiz-adv-x="721" 
d="M-6 0l415 705h41l197 -705h-43l-57 204l22 -9h-437l29 9l-119 -204h-48zM422 649l-246 -421l-21 6h403l-17 -6l-117 421h-2zM497 820l10 60h61l-10 -60h-61zM336 820l10 60h61l-10 -60h-61z" />
    <glyph glyph-name="uni04D3" unicode="&#x4d3;" horiz-adv-x="589" 
d="M243 -8q-69 0 -115.5 31t-65 91t-4.5 146q20 120 89 184t167 64q70 0 115.5 -37t55.5 -102h-12l31 131h41q-7 -28 -14 -55t-11 -53l-62 -392h-42l21 131h14q-28 -65 -81 -102t-127 -37zM247 31q80 0 137.5 56.5t74.5 162.5t-24 162.5t-125 56.5q-80 0 -136.5 -56.5
t-73.5 -162.5t22.5 -162.5t124.5 -56.5zM397 620l9 60h61l-9 -60h-61zM236 620l9 60h61l-9 -60h-61z" />
    <glyph glyph-name="uni04D4" unicode="&#x4d4;" horiz-adv-x="996" 
d="M-26 0l535 705h502l-7 -39h-419l24 24l-20 -324l-16 11h365l-6 -39h-354l9 10l-20 -328l-4 19h342l-6 -39h-376l12 198l24 -3h-398l24 12l-158 -207h-53zM529 665l-332 -441l-10 10h359l-8 -9l27 440h-36z" />
    <glyph glyph-name="uni04D5" unicode="&#x4d5;" horiz-adv-x="896" 
d="M213 -8q-53 0 -90.5 20.5t-54.5 56.5t-9 82q10 56 51 85.5t109.5 40.5t158.5 11h52l-5 -37h-50q-80 0 -138 -8t-92 -31t-41 -68q-8 -51 22.5 -82.5t91.5 -31.5q76 0 127 50t64 129l19 119q12 75 -18.5 108t-87.5 33q-52 0 -95.5 -13t-90.5 -43l-19 34q29 20 61.5 33.5
t68 20.5t71.5 7q81 0 117.5 -37.5t34.5 -104.5h-18q32 67 91.5 104.5t130.5 37.5q64 0 106 -28.5t59.5 -80t7.5 -120.5l-4 -27h-399l6 38h377l-17 -13q13 92 -22 142.5t-118 50.5q-59 0 -103 -27t-71 -73.5t-35 -106.5l-2 -15q-14 -105 29 -161t134 -56q45 0 89.5 15
t81.5 51l22 -33q-36 -34 -89.5 -53t-104.5 -19q-90 0 -141.5 44.5t-61.5 126.5h17q-26 -80 -83.5 -125.5t-138.5 -45.5z" />
    <glyph glyph-name="uni04D6" unicode="&#x4d6;" horiz-adv-x="582" 
d="M57 0l112 705h428l-7 -39h-386l-45 -289h364l-6 -39h-364l-48 -299h386l-6 -39h-428zM406 760q-35 0 -69.5 12t-61.5 39.5t-41 72.5l34 14q17 -52 51.5 -77t86.5 -25q53 0 90.5 21.5t75.5 79.5l31 -13q-27 -49 -59.5 -76t-67.5 -37.5t-70 -10.5z" />
    <glyph glyph-name="uni04D7" unicode="&#x4d7;" horiz-adv-x="547" 
d="M266 -8q-78 0 -129 32.5t-71 93.5t-7 146q13 78 48 132.5t89 83t123 28.5q66 0 109 -28.5t61 -80t8 -120.5l-4 -27h-409l6 38h387l-17 -13q13 92 -23 142.5t-122 50.5q-62 0 -107 -27t-72 -73.5t-35 -106.5l-2 -15q-14 -105 29.5 -161t138.5 -56q47 0 93 15t83 51l22 -33
q-39 -34 -91.5 -53t-107.5 -19zM338 547q-31 0 -62 12t-55.5 39.5t-36.5 72.5l33 14q14 -52 45.5 -77t76.5 -25q46 0 78 21.5t64 79.5l32 -13q-23 -49 -52 -76t-60 -37.5t-63 -10.5z" />
    <glyph glyph-name="uni04D8" unicode="&#x4d8;" horiz-adv-x="736" 
d="M327 -8q-104 0 -163.5 44t-78.5 124t-2 188l5 28h560l-7 -39h-528l15 16q-15 -103 -2.5 -174.5t61.5 -108.5t142 -37q125 0 205 83t105 238q24 152 -34 235t-192 83q-77 0 -132 -19.5t-113 -66.5l-20 35q56 47 120.5 69.5t145.5 22.5q103 0 169.5 -43.5t92.5 -126
t7 -199.5q-17 -108 -64.5 -187t-121 -122t-170.5 -43z" />
    <glyph glyph-name="uni04D9" unicode="&#x4d9;" horiz-adv-x="547" 
d="M233 -8q-69 0 -113.5 28.5t-62.5 80.5t-8 120l4 27h409l-6 -38h-387l21 13q-16 -91 20 -142t127 -51q59 0 103 27t70.5 74t34.5 106l2 15q14 105 -29.5 161t-138.5 56q-46 0 -92 -15t-84 -51l-22 33q39 36 91.5 54t107.5 18q78 0 129 -32.5t71.5 -93.5t6.5 -146
q-12 -77 -47 -132t-87.5 -83.5t-119.5 -28.5z" />
    <glyph glyph-name="uni04DA" unicode="&#x4da;" horiz-adv-x="736" 
d="M327 -8q-104 0 -163.5 44t-78.5 124t-2 188l5 28h560l-7 -39h-528l15 16q-15 -103 -2.5 -174.5t61.5 -108.5t142 -37q125 0 205 83t105 238q24 152 -34 235t-192 83q-77 0 -132 -19.5t-113 -66.5l-20 35q56 47 120.5 69.5t145.5 22.5q103 0 169.5 -43.5t92.5 -126
t7 -199.5q-17 -108 -64.5 -187t-121 -122t-170.5 -43zM508 820l10 60h61l-10 -60h-61zM347 820l10 60h61l-10 -60h-61z" />
    <glyph glyph-name="uni04DB" unicode="&#x4db;" horiz-adv-x="547" 
d="M233 -8q-69 0 -113.5 28.5t-62.5 80.5t-8 120l4 27h409l-6 -38h-387l21 13q-16 -91 20 -142t127 -51q59 0 103 27t70.5 74t34.5 106l2 15q14 105 -29.5 161t-138.5 56q-46 0 -92 -15t-84 -51l-22 33q39 36 91.5 54t107.5 18q78 0 129 -32.5t71.5 -93.5t6.5 -146
q-12 -77 -47 -132t-87.5 -83.5t-119.5 -28.5zM372 620l9 60h61l-9 -60h-61zM211 620l9 60h61l-9 -60h-61z" />
    <glyph glyph-name="uni04DC" unicode="&#x4dc;" horiz-adv-x="957" 
d="M-25 0l157 239q41 63 90 97.5t113 39.5l-14 -17l-190 346h46l186 -342l-16 15h131l52 327h42l-52 -327h133l-28 -15l297 342h52l-300 -346l-11 17q49 -4 89.5 -39t62.5 -98l83 -239h-41l-72 210q-24 70 -63 99.5t-101 29.5h-107l-54 -339h-42l54 339h-107
q-64 0 -112.5 -30t-92.5 -99l-136 -210h-49zM619 820l10 60h61l-10 -60h-61zM458 820l10 60h61l-10 -60h-61z" />
    <glyph glyph-name="uni04DD" unicode="&#x4dd;" horiz-adv-x="771" 
d="M-35 0l128 164q34 44 58 67t46.5 33t52.5 13l-16 -12l-158 235h46l148 -223h99l35 223h42l-35 -223h94l218 223h54l-232 -235l-17 12q27 -3 46 -13t36 -33t37 -67l75 -164h-42l-73 159q-15 33 -30.5 51t-37 25t-55.5 7h-79l-38 -242h-42l38 242h-80q-34 0 -56.5 -7
t-42.5 -24.5t-46 -51.5l-122 -159h-51zM494 620l9 60h61l-9 -60h-61zM333 620l9 60h61l-9 -60h-61z" />
    <glyph glyph-name="uni04DE" unicode="&#x4de;" horiz-adv-x="662" 
d="M293 -8q-89 0 -157 26t-104 70l23 35q47 -46 105 -68t140 -22q107 0 165.5 39t70.5 113q12 79 -30.5 115.5t-138.5 36.5h-179l7 39h166q98 0 149.5 37.5t62.5 106.5q11 73 -35 112.5t-147 39.5q-71 0 -134.5 -21t-122.5 -65l-21 35q59 46 131 69t148 23q81 0 134 -23.5
t76.5 -67t13.5 -105.5q-10 -63 -55 -108t-123 -59l2 12q76 -8 114 -55t25 -125q-10 -61 -45 -103.5t-95 -64.5t-146 -22zM469 820l10 60h61l-10 -60h-61zM308 820l10 60h61l-10 -60h-61z" />
    <glyph glyph-name="uni04DF" unicode="&#x4df;" horiz-adv-x="489" 
d="M203 -8q-61 0 -111.5 18.5t-76.5 51.5l22 35q31 -34 73.5 -50.5t93.5 -16.5q81 0 122 27.5t48 77.5q8 49 -21 74.5t-91 25.5h-107l6 38h99q55 0 92 26t44 72t-23 72.5t-98 26.5q-52 0 -98 -14t-91 -43l-21 33q47 32 100 47t113 15q87 0 129 -37t31 -105
q-7 -46 -45.5 -79.5t-92.5 -38.5l2 11q59 -1 91.5 -37t23.5 -92q-10 -61 -61.5 -99.5t-152.5 -38.5zM352 620l9 60h61l-9 -60h-61zM191 620l9 60h61l-9 -60h-61z" />
    <glyph glyph-name="uni04E0" unicode="&#x4e0;" horiz-adv-x="662" 
d="M291 -8q-89 0 -157.5 26t-105.5 70l25 36q45 -46 103.5 -68.5t136.5 -22.5q116 0 173.5 40t69.5 115q12 77 -29.5 113t-135.5 36h-119l6 36l327 314l-4 -21h-453l7 39h500l-5 -31l-327 -313l4 15h72q104 0 160.5 -47t39.5 -149q-9 -59 -44.5 -101t-96 -64.5t-147.5 -22.5
z" />
    <glyph glyph-name="uni04E1" unicode="&#x4e1;" horiz-adv-x="489" 
d="M164 -188q-64 0 -115.5 17t-80.5 47l21 34q32 -31 75 -45.5t101 -14.5q91 0 143.5 43t64.5 119q13 81 -25 122.5t-121 41.5h-109l4 23l287 276l-2 -14h-336l6 39h385l-4 -29l-289 -278l2 21h57q71 0 116 -24t63.5 -69.5t8.5 -108.5q-9 -61 -40 -106t-84 -69.5t-128 -24.5
z" />
    <glyph glyph-name="uni04E2" unicode="&#x4e2;" horiz-adv-x="739" 
d="M57 0l112 705h39l-105 -665l-23 3l598 662h36l-112 -705h-39l105 665l20 -4l-597 -661h-34zM308 822l6 38h310l-6 -38h-310z" />
    <glyph glyph-name="uni04E3" unicode="&#x4e3;" horiz-adv-x="578" 
d="M48 0l79 500h39l-74 -468l-23 2l422 466h38l-79 -500h-39l74 468l24 -2l-423 -466h-38zM210 633l6 38h280l-6 -38h-280z" />
    <glyph glyph-name="uni04E4" unicode="&#x4e4;" horiz-adv-x="739" 
d="M57 0l112 705h39l-105 -665l-23 3l598 662h36l-112 -705h-39l105 665l20 -4l-597 -661h-34zM512 820l10 60h61l-10 -60h-61zM351 820l10 60h61l-10 -60h-61z" />
    <glyph glyph-name="uni04E5" unicode="&#x4e5;" horiz-adv-x="578" 
d="M48 0l79 500h39l-74 -468l-23 2l422 466h38l-79 -500h-39l74 468l24 -2l-423 -466h-38zM398 620l9 60h61l-9 -60h-61zM237 620l9 60h61l-9 -60h-61z" />
    <glyph glyph-name="uni04E6" unicode="&#x4e6;" horiz-adv-x="759" 
d="M86 363q18 112 66.5 190t123.5 119t171 41q100 0 163.5 -46.5t88 -130t6.5 -194.5q-17 -111 -66 -189.5t-124 -119.5t-172 -41q-99 0 -162.5 46t-87.5 129.5t-7 195.5zM129 353q-16 -99 4.5 -170.5t74.5 -110.5t138 -39q130 0 211 84t105 235q16 98 -5 170t-74.5 111
t-137.5 39q-130 0 -210.5 -83.5t-105.5 -235.5zM528 820l10 60h61l-10 -60h-61zM367 820l10 60h61l-10 -60h-61z" />
    <glyph glyph-name="uni04E7" unicode="&#x4e7;" horiz-adv-x="559" 
d="M243 -8q-69 0 -115.5 31t-64.5 91t-5 146q13 80 48.5 135.5t88.5 84t119 28.5q70 0 116 -31t65 -91t5 -146q-13 -80 -49 -135.5t-89 -84t-119 -28.5zM247 31q80 0 137.5 56.5t74.5 162.5t-24 162.5t-125 56.5q-80 0 -136.5 -56.5t-73.5 -162.5t22.5 -162.5t124.5 -56.5z
M389 620l9 60h61l-9 -60h-61zM228 620l9 60h61l-9 -60h-61z" />
    <glyph glyph-name="uni04E8" unicode="&#x4e8;" horiz-adv-x="759" 
d="M100 339l6 38h596l-6 -38h-596zM86 363q18 112 66.5 190t123.5 119t171 41q100 0 163.5 -46.5t88 -130t6.5 -194.5q-17 -111 -66 -189.5t-124 -119.5t-172 -41q-99 0 -162.5 46t-87.5 129.5t-7 195.5zM129 353q-16 -99 4.5 -170.5t74.5 -110.5t138 -39q130 0 211 84
t105 235q16 98 -5 170t-74.5 111t-137.5 39q-130 0 -210.5 -83.5t-105.5 -235.5z" />
    <glyph glyph-name="uni04E9" unicode="&#x4e9;" horiz-adv-x="559" 
d="M243 -8q-69 0 -115.5 31t-64.5 91t-5 146q13 80 48.5 135.5t88.5 84t119 28.5q70 0 116 -31t65 -91t5 -146q-13 -80 -49 -135.5t-89 -84t-119 -28.5zM247 31q80 0 137.5 56.5t74.5 162.5t-24 162.5t-125 56.5q-80 0 -136.5 -56.5t-73.5 -162.5t22.5 -162.5t124.5 -56.5z
M75 232l5 36h405l-5 -36h-405z" />
    <glyph glyph-name="uni04EA" unicode="&#x4ea;" horiz-adv-x="759" 
d="M100 339l6 38h596l-6 -38h-596zM86 363q18 112 66.5 190t123.5 119t171 41q100 0 163.5 -46.5t88 -130t6.5 -194.5q-17 -111 -66 -189.5t-124 -119.5t-172 -41q-99 0 -162.5 46t-87.5 129.5t-7 195.5zM129 353q-16 -99 4.5 -170.5t74.5 -110.5t138 -39q130 0 211 84
t105 235q16 98 -5 170t-74.5 111t-137.5 39q-130 0 -210.5 -83.5t-105.5 -235.5zM520 820l10 60h61l-10 -60h-61zM359 820l10 60h61l-10 -60h-61z" />
    <glyph glyph-name="uni04EB" unicode="&#x4eb;" horiz-adv-x="559" 
d="M243 -8q-69 0 -115.5 31t-64.5 91t-5 146q13 80 48.5 135.5t88.5 84t119 28.5q70 0 116 -31t65 -91t5 -146q-13 -80 -49 -135.5t-89 -84t-119 -28.5zM247 31q80 0 137.5 56.5t74.5 162.5t-24 162.5t-125 56.5q-80 0 -136.5 -56.5t-73.5 -162.5t22.5 -162.5t124.5 -56.5z
M75 232l5 36h405l-5 -36h-405zM389 620l9 60h61l-9 -60h-61zM228 620l9 60h61l-9 -60h-61z" />
    <glyph glyph-name="uni04EC" unicode="&#x4ec;" horiz-adv-x="684" 
d="M266 -8q-73 0 -128 22.5t-96 66.5l23 35q44 -46 89.5 -64.5t114.5 -18.5q134 0 213 83t105 227l17 -5h-417l6 40h416l-20 -20q22 148 -38 231t-194 83q-61 0 -118.5 -21.5t-107.5 -68.5l-22 35q48 47 114 71.5t134 24.5q82 0 140.5 -26.5t93 -75t45 -117t-3.5 -152.5
q-18 -111 -67 -189.5t-125 -119.5t-174 -41zM450 820l10 60h61l-10 -60h-61zM289 820l10 60h61l-10 -60h-61z" />
    <glyph glyph-name="uni04ED" unicode="&#x4ed;" horiz-adv-x="503" 
d="M182 -8q-52 0 -93.5 16.5t-67.5 47.5l23 30q29 -29 64 -42t72 -13q91 0 148 57t71 149l10 -1h-279l7 39h280l-14 -24q14 104 -26 161t-130 57q-42 0 -83.5 -14.5t-76.5 -48.5l-21 33q32 33 83.5 51t100.5 18q71 0 119.5 -31t68.5 -91t6 -146q-13 -80 -48.5 -135.5
t-89.5 -84t-124 -28.5zM340 620l9 60h61l-9 -60h-61zM179 620l9 60h61l-9 -60h-61z" />
    <glyph glyph-name="uni04EE" unicode="&#x4ee;" horiz-adv-x="648" 
d="M177 0l156 223v-25l-251 507h45l230 -466h-12l322 466h48l-489 -705h-49zM261 822l6 38h310l-6 -38h-310z" />
    <glyph glyph-name="uni04EF" unicode="&#x4ef;" horiz-adv-x="526" 
d="M-11 -227l-9 39q49 11 82.5 27.5t59 42.5t48.5 65l35 60l-2 -21l-137 514h46l125 -484h-23l274 484h50l-321 -554q-25 -43 -50.5 -72.5t-53 -49.5t-58 -32t-66.5 -19zM183 633l6 38h280l-6 -38h-280z" />
    <glyph glyph-name="uni04F0" unicode="&#x4f0;" horiz-adv-x="648" 
d="M177 0l156 223v-25l-251 507h45l230 -466h-12l322 466h48l-489 -705h-49zM465 820l10 60h61l-10 -60h-61zM304 820l10 60h61l-10 -60h-61z" />
    <glyph glyph-name="uni04F1" unicode="&#x4f1;" horiz-adv-x="526" 
d="M-11 -227l-9 39q49 11 82.5 27.5t59 42.5t48.5 65l35 60l-2 -21l-137 514h46l125 -484h-23l274 484h50l-321 -554q-25 -43 -50.5 -72.5t-53 -49.5t-58 -32t-66.5 -19zM371 620l9 60h61l-9 -60h-61zM210 620l9 60h61l-9 -60h-61z" />
    <glyph glyph-name="uni04F2" unicode="&#x4f2;" horiz-adv-x="648" 
d="M177 0l156 223v-25l-251 507h45l230 -466h-12l322 466h48l-489 -705h-49zM339 765l100 170h52l-125 -170h-27zM448 765l99 170h52l-124 -170h-27z" />
    <glyph glyph-name="uni04F3" unicode="&#x4f3;" horiz-adv-x="526" 
d="M-11 -227l-9 39q49 11 82.5 27.5t59 42.5t48.5 65l35 60l-2 -21l-137 514h46l125 -484h-23l274 484h50l-321 -554q-25 -43 -50.5 -72.5t-53 -49.5t-58 -32t-66.5 -19zM350 549l76 200h48l-97 -200h-27zM241 549l76 200h48l-97 -200h-27z" />
    <glyph glyph-name="uni04F4" unicode="&#x4f4;" horiz-adv-x="674" 
d="M495 0l50 318q-39 -21 -92 -31.5t-107 -10.5q-93 0 -150 31.5t-78.5 94t-7.5 155.5l24 148h42l-23 -142q-22 -133 28 -189.5t167 -56.5q54 0 105.5 11t99.5 36l54 341h42l-112 -705h-42zM454 820l10 60h61l-10 -60h-61zM293 820l10 60h61l-10 -60h-61z" />
    <glyph glyph-name="uni04F5" unicode="&#x4f5;" horiz-adv-x="544" 
d="M374 0l35 221q-33 -20 -72 -31t-83 -11q-63 0 -104.5 21t-57.5 63.5t-6 106.5l20 130h42l-20 -128q-13 -81 20 -117.5t113 -36.5q45 0 81 10t73 34l38 238h42l-79 -500h-42zM371 620l9 60h61l-9 -60h-61zM210 620l9 60h61l-9 -60h-61z" />
    <glyph glyph-name="uni04F6" unicode="&#x4f6;" horiz-adv-x="541" 
d="M139 -150l24 150h-104l6 39h145l-30 -189h-41zM57 0l112 705h431l-7 -39h-389l-105 -666h-42z" />
    <glyph glyph-name="uni04F7" unicode="&#x4f7;" horiz-adv-x="427" 
d="M108 -130l21 130h-80l6 37h118l-27 -167h-38zM48 0l79 500h325l-6 -36h-283l-73 -464h-42z" />
    <glyph glyph-name="uni04F8" unicode="&#x4f8;" horiz-adv-x="833" 
d="M57 0l112 705h42l-52 -326h204q114 0 168 -49.5t39 -148.5q-13 -88 -80 -134.5t-172 -46.5h-261zM105 39h208q96 0 149 35.5t65 113.5t-28 115t-136 37h-210zM654 0l112 705h42l-112 -705h-42zM557 820l10 60h61l-10 -60h-61zM396 820l10 60h61l-10 -60h-61z" />
    <glyph glyph-name="uni04F9" unicode="&#x4f9;" horiz-adv-x="704" 
d="M48 0l79 500h42l-30 -191h165q95 0 136.5 -42.5t29.5 -119.5q-12 -76 -64.5 -111.5t-144.5 -35.5h-213zM96 36h170q70 0 111 26.5t50 87.5q10 65 -22 94t-102 29h-170zM535 0l79 500h41l-79 -500h-41zM462 620l9 60h61l-9 -60h-61zM301 620l9 60h61l-9 -60h-61z" />
    <glyph glyph-name="uni04FA" unicode="&#x4fa;" horiz-adv-x="574" 
d="M27 -180l2 37l37 3q62 5 91 38.5t39 101.5h-106l54 338h-103l6 38h103l52 329h431l-7 -39h-389l-45 -290h196l-6 -38h-196l-48 -299h103l-6 -39q-13 -87 -56 -130t-117 -48z" />
    <glyph glyph-name="uni04FB" unicode="&#x4fb;" horiz-adv-x="445" 
d="M4 -180l4 37l35 4q47 5 73.5 38t36.5 101h-84l37 234h-104l6 36h104l36 230h324l-6 -36h-282l-30 -194h155l-6 -36h-155l-31 -198h80l-6 -36q-13 -87 -53 -129.5t-99 -47.5z" />
    <glyph glyph-name="uni04FC" unicode="&#x4fc;" horiz-adv-x="636" 
d="M357 -183l-5 36q71 8 108 33.5t44 68.5t-11.5 85.5t-46.5 90.5l-123 211h22l-308 -342h-55l332 367l2 -10l-204 348h48l185 -318h-12l283 318h55l-313 -348l-3 10l132 -226q29 -49 47 -93t10 -97t-54 -88t-133 -46z" />
    <glyph glyph-name="uni04FD" unicode="&#x4fd;" horiz-adv-x="528" 
d="M268 -183l-4 35q60 8 93.5 30.5t40.5 65.5q5 31 -9 63t-50 90l-84 134h15l-224 -235h-55l259 271v-26l-165 255h49l140 -221h-15l209 221h55l-241 -252v19l90 -141q27 -41 43 -70.5t22.5 -54.5t2.5 -53q-6 -38 -29 -66t-59.5 -44t-83.5 -21z" />
    <glyph glyph-name="uni04FE" unicode="&#x4fe;" horiz-adv-x="636" 
d="M-18 0l332 367l2 -10l-204 348h48l185 -318h-12l283 318h55l-313 -348l-3 10l215 -367h-48l-199 342h22l-308 -342h-55zM149 345l5 36h372l-5 -36h-372z" />
    <glyph glyph-name="uni04FF" unicode="&#x4ff;" horiz-adv-x="528" 
d="M-9 0l259 271v-26l-165 255h49l140 -221h-15l209 221h55l-241 -252v19l171 -267h-50l-148 235h15l-224 -235h-55zM77 237l5 36h372l-5 -36h-372z" />
    <glyph glyph-name="uni0510" unicode="&#x510;" horiz-adv-x="663" 
d="M302 -8q-90 0 -146 26.5t-78.5 74t-13.5 108.5q12 74 64 116t131 50l-2 -13q-67 13 -100.5 59t-22.5 121q13 80 83 129.5t185 49.5q81 0 143.5 -21.5t102.5 -59.5l-23 -35q-43 38 -99.5 56.5t-125.5 18.5q-97 0 -154.5 -39.5t-68.5 -110.5q-11 -70 31.5 -108t134.5 -38
h165l-7 -39h-179q-93 0 -147.5 -34.5t-64.5 -99.5q-13 -80 33 -125t161 -45q84 0 149 21.5t125 67.5l20 -36q-49 -42 -125 -68t-171 -26z" />
    <glyph glyph-name="uni0511" unicode="&#x511;" horiz-adv-x="489" 
d="M215 -8q-103 0 -146 41t-33 107q9 55 51 88.5t103 34.5l-3 -11q-50 4 -78 37t-19 86q10 64 64.5 98.5t137.5 34.5q49 0 94.5 -14t82.5 -43l-21 -32q-34 26 -76 38.5t-86 12.5q-64 0 -105.5 -27t-49.5 -74q-7 -46 21 -71t83 -25h99l-6 -38h-107q-61 0 -97 -24t-43 -68
q-9 -55 23.5 -83.5t112.5 -28.5q54 0 101 15.5t88 47.5l19 -32q-36 -33 -92 -51.5t-118 -18.5z" />
    <glyph glyph-name="uni0512" unicode="&#x512;" horiz-adv-x="753" 
d="M454 -186q-16 0 -33.5 2t-35.5 6l6 39q18 -4 33.5 -6.5t29.5 -2.5q46 0 76 28.5t40 92.5l109 693h-372l-29 -182q-19 -118 -44.5 -202t-59.5 -140.5t-78 -93.5t-98 -61l-16 36q45 21 84 51.5t71 82t58.5 133.5t45.5 205l33 210h454l-116 -731q-9 -55 -29.5 -90.5
t-52.5 -52.5t-76 -17z" />
    <glyph glyph-name="uni0513" unicode="&#x513;" horiz-adv-x="568" 
d="M219 -193l3 38l44 3q53 4 86 37t43 93l76 486h-244l-13 -80q-15 -93 -32.5 -158.5t-41.5 -110t-56.5 -74t-77.5 -50.5l-16 35q41 20 69.5 46.5t48.5 66.5t35.5 100t29.5 146l19 115h327l-82 -521q-8 -53 -31 -90t-59 -56.5t-83 -22.5z" />
    <glyph glyph-name="uni051A" unicode="&#x51a;" horiz-adv-x="759" 
d="M501 -191q-24 20 -49 51t-46 67.5t-35 73.5l48 11q19 -52 51 -95t66 -75zM86 363q18 112 66.5 190t123.5 119t171 41q100 0 163.5 -46.5t88 -130t6.5 -194.5q-17 -111 -66 -189.5t-124 -119.5t-172 -41q-99 0 -162.5 46t-87.5 129.5t-7 195.5zM129 353
q-16 -99 4.5 -170.5t74.5 -110.5t138 -39q130 0 211 84t105 235q16 98 -5 170t-74.5 111t-137.5 39q-130 0 -210.5 -83.5t-105.5 -235.5z" />
    </font>
</defs>
</svg>
