<?xml version="1.0" standalone="no"?>
<!DOCTYPE svg PUBLIC "-//W3C//DTD SVG 1.1//EN" "http://www.w3.org/Graphics/SVG/1.1/DTD/svg11.dtd" >
<svg xmlns="http://www.w3.org/2000/svg" xmlns:xlink="http://www.w3.org/1999/xlink" version="1.1">
<metadata>
Created by FontForge 20201107 at Thu Sep 30 21:20:51 2021
 By 
Copyright 2016 The Mulish Project Authors (https://github.com/googlefonts/mulish)
</metadata>
<defs>
<font id="Mulish-MediumItalic" horiz-adv-x="0" >
  <font-face 
    font-family="Mulish Medium"
    font-weight="500"
    font-style="italic"
    font-stretch="normal"
    units-per-em="1000"
    panose-1="0 0 0 0 0 0 0 0 0 0"
    ascent="800"
    descent="-200"
    x-height="503"
    cap-height="705"
    bbox="-296 -270 1359 1045"
    underline-thickness="44"
    underline-position="-107"
    slope="-9"
    unicode-range="U+000D-FB02"
  />
<missing-glyph horiz-adv-x="500" 
 />
    <glyph glyph-name="fi" unicode="fi" horiz-adv-x="586" 
d="M64 0l69 433h-98l11 70h123l-29 -23l15 89q14 84 63.5 127.5t131.5 43.5q20 0 42 -3t36 -10l-12 -74q-11 5 -28 8t-35 3q-45 0 -73 -26.5t-37 -82.5l-11 -71l-11 19h328l-79 -503h-91l68 433h-223l-69 -433h-91zM467 613l15 98h109l-15 -98h-109z" />
    <glyph glyph-name="fl" unicode="fl" horiz-adv-x="587" 
d="M64 0l69 433h-98l11 70h123l-29 -23l15 89q13 84 64 127.5t137 43.5q20 0 40.5 -3.5t34.5 -9.5l-12 -74q-11 5 -27 8t-33 3q-30 0 -54 -12t-40 -35.5t-22 -61.5l-11 -71l-11 19h152l-11 -70h-138l-69 -433h-91zM381 0l117 736h91l-117 -736h-91z" />
    <glyph glyph-name=".notdef" horiz-adv-x="500" 
 />
    <glyph glyph-name="uni0000" 
 />
    <glyph glyph-name="uni0000" 
 />
    <glyph glyph-name="nonmarkingreturn" horiz-adv-x="333" 
 />
    <glyph glyph-name="CR" unicode="&#xd;" horiz-adv-x="264" 
 />
    <glyph glyph-name="space" unicode=" " horiz-adv-x="264" 
 />
    <glyph glyph-name="exclam" unicode="!" horiz-adv-x="233" 
d="M79 190l53 515h113l-110 -515h-56zM21 0l17 111h111l-17 -111h-111z" />
    <glyph glyph-name="quotedbl" unicode="&#x22;" horiz-adv-x="405" 
d="M111 425l21 280h107l-67 -280h-61zM289 425l21 280h107l-67 -280h-61z" />
    <glyph glyph-name="numbersign" unicode="#" horiz-adv-x="600" 
d="M44 0l64 180h-89l11 63h101l82 227h-125l9 64h139l62 171h68l-61 -171h150l62 171h69l-62 -171h89l-10 -64h-102l-82 -227h127l-11 -63h-139l-64 -180h-70l65 180h-150l-63 -180h-70zM200 243h150l82 227h-150z" />
    <glyph glyph-name="dollar" unicode="$" horiz-adv-x="600" 
d="M214 -115l20 128l19 -18q-42 2 -86.5 10.5t-83 24.5t-65.5 39l40 72q41 -30 94 -48t128 -18q78 0 122 31t51 79q8 44 -17.5 71t-90.5 39l-93 17q-56 12 -93.5 38.5t-53 67.5t-7.5 93q10 60 45 103t90 67.5t125 27.5l-16 -14l20 125h76l-21 -125l-12 14q52 -2 102 -21.5
t83 -53.5l-38 -70q-33 32 -78.5 49t-103.5 17q-76 0 -124.5 -32.5t-58.5 -88.5q-7 -47 16 -75.5t83 -39.5l93 -18q96 -19 136.5 -67.5t28.5 -126.5q-13 -81 -81 -129.5t-173 -56.5l20 18l-20 -129h-76z" />
    <glyph glyph-name="percent" unicode="%" horiz-adv-x="940" 
d="M266 0h-85l525 705h86zM238 283q-83 0 -124.5 59.5t-24.5 166.5q15 96 68 150.5t131 54.5q85 0 125.5 -59t23.5 -166q-15 -96 -67 -151t-132 -55zM241 345q47 0 77.5 37.5t42.5 113.5q12 78 -9 116.5t-67 38.5t-76 -36.5t-42 -112.5q-13 -79 8 -118t66 -39zM684 -9
q-84 0 -125 59.5t-24 166.5q16 97 68 151t131 54q84 0 125 -59t24 -166q-16 -96 -67.5 -151t-131.5 -55zM688 54q46 0 76.5 37.5t41.5 112.5q13 78 -8.5 116.5t-67.5 38.5q-45 0 -75.5 -36.5t-42.5 -112.5q-12 -79 9 -117.5t67 -38.5z" />
    <glyph glyph-name="ampersand" unicode="&#x26;" horiz-adv-x="674" 
d="M612 -9q-44 20 -80 49.5t-61 58.5h27q-49 -51 -114 -79.5t-137 -28.5q-74 0 -124.5 24.5t-73 68t-13.5 100.5q10 62 55.5 106.5t119.5 85.5l47 27l-18 -16q-38 48 -53 90.5t-8 90.5q7 42 31 75t65.5 52t98.5 19q49 0 85.5 -18t55 -51.5t10.5 -81.5q-5 -33 -24.5 -65
t-57.5 -62.5t-101 -64.5l1 23l157 -204h-17q32 42 56.5 100.5t37.5 124.5h81q-16 -83 -48 -155t-75 -126l-5 25q21 -28 53 -55.5t71 -46.5zM259 64q58 0 105.5 23t88.5 67l-8 -25l-181 227l39 -3l-44 -25q-59 -35 -92 -65.5t-40 -75.5q-8 -56 25.5 -89.5t106.5 -33.5z
M371 648q-43 0 -71.5 -23.5t-34.5 -58.5q-3 -26 0 -46.5t15.5 -42t37.5 -54.5l-20 -3q75 41 110 73t41 71q7 38 -15 61t-63 23z" />
    <glyph glyph-name="quotesingle" unicode="'" horiz-adv-x="226" 
d="M111 425l21 280h107l-67 -280h-61z" />
    <glyph glyph-name="parenleft" unicode="(" horiz-adv-x="327" 
d="M149 -180q-28 75 -41.5 152t-13.5 152q0 110 25.5 215t70 198.5t100.5 167.5h80q-78 -131 -130 -283.5t-52 -322.5q0 -63 9.5 -134.5t25.5 -144.5h-74z" />
    <glyph glyph-name="parenright" unicode=")" horiz-adv-x="327" 
d="M39 -180h-79q78 131 129.5 283.5t51.5 322.5q0 64 -9 135t-26 144h75q27 -75 41 -152t14 -152q0 -109 -25.5 -214.5t-70 -198.5t-101.5 -168z" />
    <glyph glyph-name="asterisk" unicode="*" horiz-adv-x="455" 
d="M176 363l-53 38l108 125l-150 45l24 61l146 -54l7 158h65l-18 -158l154 54l17 -61l-157 -46l88 -124l-53 -38l-77 132z" />
    <glyph glyph-name="plus" unicode="+" horiz-adv-x="600" 
d="M232 40l33 213h-212l11 68h212l33 207h70l-33 -207h211l-11 -68h-211l-33 -213h-70z" />
    <glyph glyph-name="comma" unicode="," horiz-adv-x="233" 
d="M53 -119l-36 39q31 28 42.5 50t16.5 50l23 -20h-78l17 111h110l-13 -86q-4 -29 -13 -53t-25 -46t-44 -45z" />
    <glyph glyph-name="hyphen" unicode="-" horiz-adv-x="431" 
d="M68 237l12 74h289l-11 -74h-290z" />
    <glyph glyph-name="period" unicode="." horiz-adv-x="233" 
d="M21 0l18 111h110l-17 -111h-111z" />
    <glyph glyph-name="slash" unicode="/" horiz-adv-x="293" 
d="M9 -56h-81l392 805h81z" />
    <glyph glyph-name="zero" unicode="0" horiz-adv-x="600" 
d="M268 -9q-128 0 -178.5 97.5t-22.5 277.5q29 179 104 263.5t193 84.5q126 0 178 -95t23 -278q-28 -178 -105 -264t-192 -86zM273 70q79 0 129 66t73 215q16 101 8 163.5t-39 91.5t-85 29q-79 0 -128.5 -64.5t-72.5 -213.5q-16 -100 -8.5 -163.5t39 -93.5t84.5 -30z" />
    <glyph glyph-name="one" unicode="1" horiz-adv-x="600" 
d="M84 0l12 79h165l87 547l47 -2l-216 -122l14 93l194 110h67l-100 -626h155l-12 -79h-413z" />
    <glyph glyph-name="two" unicode="2" horiz-adv-x="600" 
d="M45 0l10 69l296 269q53 48 80.5 87t35.5 87q10 60 -22 91t-100 31q-56 0 -106 -18t-100 -57l-32 71q47 39 114.5 61.5t133.5 22.5q74 0 123.5 -24t71 -69t11.5 -109t-48.5 -117.5t-104.5 -111.5l-258 -230l-1 26h372l-13 -79h-463z" />
    <glyph glyph-name="three" unicode="3" horiz-adv-x="600" 
d="M264 -9q-71 0 -133.5 22t-100.5 62l38 72q42 -40 92 -58t107 -18q74 0 118.5 29t54.5 93q18 126 -137 126h-110l12 77h100q67 0 112 32t54 91q9 55 -23.5 85t-100.5 30q-58 0 -108.5 -18.5t-100.5 -58.5l-31 72q49 42 115 63.5t136 21.5q109 0 164 -50.5t41 -141.5
q-9 -59 -53 -104.5t-109 -61.5l1 11q70 -12 104.5 -61.5t22.5 -125.5q-15 -92 -85.5 -140.5t-179.5 -48.5z" />
    <glyph glyph-name="four" unicode="4" horiz-adv-x="600" 
d="M339 0l24 149h-333l12 67l423 489h77l-77 -482h106l-11 -74h-107l-23 -149h-91zM374 223l60 372h26l-341 -394l-1 22h256z" />
    <glyph glyph-name="five" unicode="5" horiz-adv-x="600" 
d="M280 -9q-46 0 -89 10t-79 28.5t-60 45.5l35 72q42 -39 91 -57.5t105 -18.5q72 0 120 36.5t58 105.5q11 68 -23 109.5t-104 41.5q-49 0 -91.5 -19.5t-78.5 -61.5h-66l67 422h423l-14 -79h-333l-42 -268h-25q34 42 82.5 63.5t103.5 21.5q66 0 113 -29t68.5 -81.5
t9.5 -126.5q-10 -67 -46 -115t-93.5 -74t-131.5 -26z" />
    <glyph glyph-name="six" unicode="6" horiz-adv-x="600" 
d="M291 -9q-85 0 -141 40t-77 121t-2 204q20 122 66.5 201t117 118t158.5 39q59 0 110 -19t83 -58l-39 -69q-34 35 -73.5 50.5t-85.5 15.5q-99 0 -161.5 -67.5t-87.5 -212.5l-14 -89h-10q23 83 80 131.5t143 48.5q66 0 112.5 -30t67.5 -83.5t9 -126.5q-10 -65 -44 -113
t-87.5 -74.5t-124.5 -26.5zM291 68q77 0 118 39t51 103q12 73 -23.5 115.5t-102.5 42.5q-69 0 -114 -41.5t-56 -106.5q-11 -68 24 -110t103 -42z" />
    <glyph glyph-name="seven" unicode="7" horiz-adv-x="600" 
d="M62 0l451 663l-2 -38h-389l13 80h475l-11 -69l-430 -636h-107z" />
    <glyph glyph-name="eight" unicode="8" horiz-adv-x="600" 
d="M268 -9q-127 0 -187 57t-46 152q12 74 64 117t127 53l-3 -16q-64 14 -95.5 65t-21.5 117q14 83 81 130.5t183 47.5q75 0 125.5 -24.5t73 -69.5t13.5 -104q-11 -66 -56 -110t-113 -56l3 16q47 -9 79 -33.5t45.5 -63.5t4.5 -90q-15 -91 -87 -139.5t-190 -48.5zM273 66
q83 0 129 31.5t56 95.5q11 63 -26 94.5t-122 31.5q-84 0 -130 -30t-56 -91t26.5 -96.5t122.5 -35.5zM323 395q73 0 116.5 29t52.5 89t-24 93t-107 33q-75 0 -117 -31t-51 -84q-8 -56 24.5 -92.5t105.5 -36.5z" />
    <glyph glyph-name="nine" unicode="9" horiz-adv-x="600" 
d="M219 -9q-58 0 -109 19.5t-83 57.5l39 69q33 -34 73 -50t86 -16q98 0 161.5 68t86.5 212l14 89h11q-22 -83 -79.5 -131.5t-143.5 -48.5q-65 0 -111.5 30t-68 84t-10.5 127q11 65 45 113t88.5 74t125.5 26q84 0 140 -40t76.5 -121t1.5 -204q-19 -121 -66.5 -200.5
t-118 -118.5t-158.5 -39zM298 337q70 0 115 41.5t56 107.5q11 67 -23.5 109.5t-103.5 42.5q-75 0 -117 -39t-52 -104q-11 -73 24 -115.5t101 -42.5z" />
    <glyph glyph-name="colon" unicode=":" horiz-adv-x="233" 
d="M83 393l18 110h110l-17 -110h-111zM21 0l17 111h110l-17 -111h-110z" />
    <glyph glyph-name="semicolon" unicode=";" horiz-adv-x="233" 
d="M51 -119l-36 32q33 29 46.5 54.5t17.5 52.5l17 -20h-73l18 111h110l-13 -84q-6 -43 -25.5 -78t-61.5 -68zM83 392l18 111h110l-17 -111h-111z" />
    <glyph glyph-name="less" unicode="&#x3c;" horiz-adv-x="600" 
d="M511 35l-458 217l11 71l527 217l-12 -79l-491 -201l8 45l427 -200z" />
    <glyph glyph-name="equal" unicode="=" horiz-adv-x="600" 
d="M69 353l11 68h492l-11 -68h-492zM38 154l11 67h492l-11 -67h-492z" />
    <glyph glyph-name="greater" unicode="&#x3e;" horiz-adv-x="600" 
d="M20 35l12 78l490 201l-7 -46l-427 201l12 71l458 -217l-12 -71z" />
    <glyph glyph-name="question" unicode="?" horiz-adv-x="451" 
d="M162 190l5 32q6 33 17.5 62t36 60t64.5 68q22 20 42.5 44t34 51t13.5 56q0 35 -26.5 53.5t-73.5 18.5q-40 0 -78 -10.5t-72 -29.5l13 83q35 18 78 27t82 9q52 0 90.5 -16.5t59.5 -46.5t21 -72q0 -43 -18 -80t-46.5 -68t-60.5 -57q-57 -50 -82.5 -86t-35.5 -73l-7 -25h-57
zM105 0l17 111h111l-17 -111h-111z" />
    <glyph glyph-name="at" unicode="@" horiz-adv-x="968" 
d="M504 -164q-95 0 -174.5 30.5t-137.5 88t-89.5 137.5t-31.5 180q0 99 33 180t93 140t142 90.5t180 31.5q87 0 159.5 -26.5t126 -75.5t83 -117t29.5 -151q0 -87 -26.5 -151t-72 -99t-102.5 -35q-60 0 -91.5 34.5t-28.5 93.5l22 -2q-26 -62 -71.5 -94t-97.5 -32
q-78 0 -121 49t-43 134q0 73 28 130.5t77 90.5t111 33q54 0 88.5 -27t45.5 -76h-13l17 94h72l-44 -255q-3 -14 -4 -26t-1 -23q0 -33 14.5 -49t43.5 -16q37 0 67.5 28t49 79t18.5 119q0 70 -24.5 127t-70 97.5t-107 62.5t-135.5 22q-84 0 -153 -27t-119.5 -77.5t-78.5 -120.5
t-28 -156q0 -117 46 -201t128 -128.5t191 -44.5q80 0 144.5 24t107.5 69l35 -52q-48 -49 -122 -76t-165 -27zM460 122q43 0 76.5 26t53 72t19.5 104q0 55 -24 82t-75 27q-42 0 -76 -24.5t-53.5 -67.5t-19.5 -99q0 -58 26 -89t73 -31z" />
    <glyph glyph-name="A" unicode="A" horiz-adv-x="738" 
d="M-26 0l424 705h81l205 -705h-92l-56 200l37 -24h-429l47 24l-118 -200h-99zM425 601l-215 -370l-21 21h363l-22 -21l-102 370h-3z" />
    <glyph glyph-name="B" unicode="B" horiz-adv-x="683" 
d="M46 0l112 705h292q110 0 162.5 -49t38.5 -141q-11 -66 -56.5 -107.5t-116.5 -56.5l2 15q76 -9 111.5 -58t24.5 -123q-15 -92 -83.5 -138.5t-183.5 -46.5h-303zM148 74h202q73 0 119.5 27.5t56.5 87.5q8 49 -7 77.5t-47 41t-78 12.5h-208zM199 394h184q79 0 122.5 29
t51.5 82q10 65 -21.5 96t-102.5 31h-197z" />
    <glyph glyph-name="C" unicode="C" horiz-adv-x="685" 
d="M375 -9q-117 0 -188.5 47.5t-98.5 132t-10 195.5q18 111 69 189t131 119t183 40q72 0 127 -20.5t94 -59.5l-36 -75q-43 39 -86.5 55t-103.5 16q-114 0 -187 -71t-94 -202q-13 -85 4.5 -148.5t68.5 -98.5t136 -35q54 0 106.5 18.5t99.5 59.5l31 -73q-47 -43 -112.5 -66
t-133.5 -23z" />
    <glyph glyph-name="D" unicode="D" horiz-adv-x="750" 
d="M46 0l112 705h229q125 0 201 -43.5t105 -125.5t11 -196q-28 -171 -134.5 -255.5t-281.5 -84.5h-242zM152 79h139q140 0 219 66.5t101 203.5q22 141 -36.5 209t-198.5 68h-138z" />
    <glyph glyph-name="E" unicode="E" horiz-adv-x="590" 
d="M46 0l112 705h456l-13 -76h-366l-36 -233h343l-12 -76h-343l-39 -244h365l-11 -76h-456z" />
    <glyph glyph-name="F" unicode="F" horiz-adv-x="565" 
d="M46 0l112 705h446l-13 -76h-353l-36 -236h330l-12 -76h-330l-51 -317h-93z" />
    <glyph glyph-name="G" unicode="G" horiz-adv-x="733" 
d="M383 -9q-122 0 -196 46t-100.5 130t-8.5 198q18 112 71 189.5t136 118.5t190 41q77 0 131 -19.5t91 -54.5l-37 -75q-41 35 -82.5 50.5t-106.5 15.5q-123 0 -199 -72.5t-97 -204.5q-21 -133 30 -207t185 -74q51 0 96 9t90 27l-30 -48l37 239h-176l12 72h256l-52 -327
q-31 -17 -71.5 -29t-84.5 -18.5t-84 -6.5z" />
    <glyph glyph-name="H" unicode="H" horiz-adv-x="768" 
d="M46 0l112 705h93l-49 -308h410l49 308h94l-112 -705h-94l51 318h-410l-51 -318h-93z" />
    <glyph glyph-name="I" unicode="I" horiz-adv-x="264" 
d="M46 0l112 705h93l-112 -705h-93z" />
    <glyph glyph-name="J" unicode="J" horiz-adv-x="337" 
d="M12 -187q-16 0 -37 2.5t-42 9.5l11 76q19 -7 35.5 -9t29.5 -2q46 0 73 28t37 89l110 698h94l-112 -704q-10 -63 -34.5 -105t-65 -62.5t-99.5 -20.5z" />
    <glyph glyph-name="K" unicode="K" horiz-adv-x="641" 
d="M46 0l112 705h93l-51 -319h2l378 319h121l-436 -365l-3 45l354 -385h-116l-306 331h-2l-53 -331h-93z" />
    <glyph glyph-name="L" unicode="L" horiz-adv-x="549" 
d="M46 0l112 705h93l-99 -625h350l-12 -80h-444z" />
    <glyph glyph-name="M" unicode="M" horiz-adv-x="861" 
d="M46 0l112 705h82l178 -626h-30l378 626h81l-112 -705h-85l92 581h32l-354 -581h-57l-170 581h30l-92 -581h-85z" />
    <glyph glyph-name="N" unicode="N" horiz-adv-x="748" 
d="M46 0l112 705h72l346 -588l-20 4l92 584h87l-112 -705h-71l-347 588l20 -4l-92 -584h-87z" />
    <glyph glyph-name="O" unicode="O" horiz-adv-x="776" 
d="M78 366q18 111 68 189t128 118.5t177 40.5q107 0 174.5 -47.5t94.5 -132t9 -194.5q-17 -111 -67.5 -189t-128 -119t-177.5 -41q-106 0 -174 47.5t-94.5 132t-9.5 195.5zM175 356q-14 -88 3.5 -151.5t64.5 -97.5t120 -34q112 0 180.5 73.5t88.5 203.5q15 88 -3 151t-65 97
t-121 34q-111 0 -178.5 -72.5t-89.5 -203.5z" />
    <glyph glyph-name="P" unicode="P" horiz-adv-x="655" 
d="M46 0l112 705h283q117 0 170.5 -57.5t36.5 -158.5q-9 -60 -42 -103t-87 -65.5t-127 -22.5h-206l-47 -298h-93zM198 374h190q74 0 116.5 30.5t52.5 91.5q11 66 -22 99.5t-108 33.5h-189z" />
    <glyph glyph-name="Q" unicode="Q" horiz-adv-x="776" 
d="M507 -192q-26 19 -53 49t-49 67t-36 75l85 30q18 -52 53 -94.5t72 -72.5zM78 366q18 111 68 189t128 118.5t177 40.5q107 0 174.5 -47.5t94.5 -132t9 -194.5q-17 -111 -67.5 -189t-128 -119t-177.5 -41q-106 0 -174 47.5t-94.5 132t-9.5 195.5zM175 356
q-14 -88 3.5 -151.5t64.5 -97.5t120 -34q112 0 180.5 73.5t88.5 203.5q15 88 -3 151t-65 97t-121 34q-111 0 -178.5 -72.5t-89.5 -203.5z" />
    <glyph glyph-name="R" unicode="R" horiz-adv-x="695" 
d="M46 0l112 705h283q119 0 173 -55.5t38 -155.5q-9 -59 -43.5 -101t-87.5 -64t-119 -22l6 14h22q41 0 69 -21t43 -66l73 -234h-98l-72 232q-12 43 -42 56t-78 13h-138l-48 -301h-93zM198 373h194q73 0 116 32.5t52 91.5q10 66 -24.5 99t-111.5 33h-186z" />
    <glyph glyph-name="S" unicode="S" horiz-adv-x="628" 
d="M286 -9q-83 0 -149.5 20t-110.5 52l37 74q48 -30 102 -48t127 -18q86 0 132 31.5t53 81.5q8 47 -16.5 74.5t-92.5 37.5l-96 15q-97 14 -140 67t-30 135q9 60 47.5 105t100.5 70.5t144 25.5q72 0 131 -20t96 -53l-36 -73q-39 32 -88 49t-113 17q-80 0 -130 -33t-60 -90
q-8 -49 17 -79.5t93 -40.5l98 -14q98 -14 140 -63t29 -132q-9 -55 -46 -98.5t-97.5 -68t-141.5 -24.5z" />
    <glyph glyph-name="T" unicode="T" horiz-adv-x="607" 
d="M215 0l100 626h-245l13 79h583l-13 -79h-245l-99 -626h-94z" />
    <glyph glyph-name="U" unicode="U" horiz-adv-x="733" 
d="M335 -9q-92 0 -153 32.5t-86 97.5t-10 163l67 421h94l-67 -422q-17 -105 20.5 -157.5t143.5 -52.5q93 0 148 49t73 162l67 421h92l-67 -427q-16 -99 -57 -162.5t-107 -94t-158 -30.5z" />
    <glyph glyph-name="V" unicode="V" horiz-adv-x="703" 
d="M269 0l-196 705h96l169 -628h-33l368 628h102l-423 -705h-83z" />
    <glyph glyph-name="W" unicode="W" horiz-adv-x="1114" 
d="M239 0l-135 705h93l111 -622h-36l321 622h72l110 -622h-33l316 622h96l-361 -705h-81l-109 595h21l-305 -595h-80z" />
    <glyph glyph-name="X" unicode="X" horiz-adv-x="657" 
d="M-37 0l343 378l-1 -36l-214 363h106l169 -296h-29l261 296h116l-329 -363v36l224 -378h-106l-181 314h36l-280 -314h-115z" />
    <glyph glyph-name="Y" unicode="Y" horiz-adv-x="612" 
d="M219 0l53 330l10 -61l-224 436h103l171 -344h-22l280 344h109l-364 -439l30 64l-53 -330h-93z" />
    <glyph glyph-name="Z" unicode="Z" horiz-adv-x="599" 
d="M4 0l11 69l507 590l-5 -33h-414l13 79h508l-11 -68l-508 -591l4 33h427l-12 -79h-520z" />
    <glyph glyph-name="bracketleft" unicode="[" horiz-adv-x="325" 
d="M36 -180l140 885h211l-11 -71h-121l-118 -743h121l-11 -71h-211z" />
    <glyph glyph-name="backslash" unicode="\" horiz-adv-x="293" 
d="M194 -56l-139 805h76l139 -805h-76z" />
    <glyph glyph-name="bracketright" unicode="]" horiz-adv-x="325" 
d="M-59 -180l11 71h121l117 743h-120l11 71h210l-140 -885h-210z" />
    <glyph glyph-name="asciicircum" unicode="^" horiz-adv-x="600" 
d="M27 140l297 488h70l143 -488h-71l-131 454h45l-275 -454h-78z" />
    <glyph glyph-name="underscore" unicode="_" horiz-adv-x="505" 
d="M-40 -58l9 58h487l-9 -58h-487z" />
    <glyph glyph-name="grave" unicode="`" horiz-adv-x="500" 
d="M305 552l-141 202h93l112 -202h-64z" />
    <glyph glyph-name="a" unicode="a" horiz-adv-x="605" 
d="M236 -9q-69 0 -116 32.5t-66 94t-6 147.5q20 121 90 184t168 63q66 0 110.5 -33t53.5 -91l-11 -1l30 116h87q-7 -30 -14.5 -60t-12.5 -59l-60 -384h-91l19 117h15q-26 -59 -76 -92.5t-120 -33.5zM262 63q67 0 115 47.5t63 138.5q15 95 -19.5 142.5t-105.5 47.5
q-67 0 -114 -47t-62 -137q-15 -96 18.5 -144t104.5 -48z" />
    <glyph glyph-name="b" unicode="b" horiz-adv-x="605" 
d="M300 -9q-66 0 -110.5 33.5t-54.5 90.5l10 2l-18 -117h-91l117 736h91l-55 -348l-16 -1q27 58 76.5 91.5t119.5 33.5t117 -32.5t66.5 -94t5.5 -146.5q-20 -121 -90 -184.5t-168 -63.5zM290 63q68 0 115 47.5t62 138.5q15 95 -18.5 142.5t-105.5 47.5q-66 0 -114.5 -47
t-63.5 -137q-14 -96 20.5 -144t104.5 -48z" />
    <glyph glyph-name="c" unicode="c" horiz-adv-x="497" 
d="M261 -9q-77 0 -129.5 33t-74.5 94.5t-9 146.5q20 121 94 184t182 63q47 0 90 -15t70 -44l-34 -62q-26 25 -59 36.5t-64 11.5q-73 0 -122.5 -46.5t-64.5 -135.5q-15 -91 21.5 -141.5t112.5 -50.5q33 0 70.5 12.5t69.5 41.5l29 -64q-31 -30 -81.5 -47t-100.5 -17z" />
    <glyph glyph-name="d" unicode="d" horiz-adv-x="605" 
d="M236 -9q-69 0 -116 32.5t-66 94t-6 147.5q20 121 90 184t168 63q66 0 110.5 -33t53.5 -91h-10l55 348h91l-117 -736h-90l18 117h15q-26 -59 -76 -92.5t-120 -33.5zM262 63q67 0 115 47.5t63 138.5q15 95 -19.5 142.5t-105.5 47.5q-67 0 -114 -47t-62 -137
q-15 -96 18.5 -144t104.5 -48z" />
    <glyph glyph-name="e" unicode="e" horiz-adv-x="545" 
d="M276 -9q-85 0 -140 34t-77.5 96.5t-9.5 146.5q12 77 48 131.5t92 83.5t127 29q70 0 115.5 -30.5t65 -84.5t8.5 -125l-5 -30h-384l8 54h323l-18 -14q12 79 -18 121.5t-100 42.5q-50 0 -86.5 -22.5t-58.5 -61t-28 -88.5l-4 -25q-12 -89 26 -137.5t126 -48.5q42 0 83 13
t77 43l30 -63q-40 -31 -92 -48t-108 -17z" />
    <glyph glyph-name="f" unicode="f" horiz-adv-x="345" 
d="M64 0l69 433h-98l11 70h123l-29 -23l15 89q13 84 64 127.5t137 43.5q20 0 40.5 -3.5t34.5 -9.5l-12 -74q-11 5 -27 8t-33 3q-30 0 -54 -12t-40 -35.5t-22 -61.5l-11 -71l-11 19h152l-11 -70h-138l-69 -433h-91z" />
    <glyph glyph-name="g" unicode="g" horiz-adv-x="608" 
d="M229 -224q-64 0 -117 16t-92 49l30 68q28 -21 55.5 -34.5t59 -19.5t67.5 -6q74 0 116.5 38t53.5 108l22 141h12q-24 -57 -76 -90.5t-119 -33.5q-69 0 -116.5 32.5t-67.5 92t-7 138.5q19 115 88.5 176t169.5 61q67 0 112 -33t53 -91l-7 9l26 106h88q-8 -30 -15 -60
t-12 -59l-60 -378q-17 -112 -84 -171t-180 -59zM265 84q70 0 117.5 47t60.5 130q14 86 -20 132t-104 46t-117.5 -46t-61.5 -130q-14 -85 20.5 -132t104.5 -47z" />
    <glyph glyph-name="h" unicode="h" horiz-adv-x="589" 
d="M36 0l117 736h91l-54 -342h-15q30 58 82 88t119 30q92 0 128 -53t20 -154l-48 -305h-91l48 304q12 72 -11.5 103t-81.5 31q-67 0 -111.5 -41t-55.5 -109l-46 -288h-91z" />
    <glyph glyph-name="i" unicode="i" horiz-adv-x="243" 
d="M36 0l80 503h91l-80 -503h-91zM125 613l16 98h108l-16 -98h-108z" />
    <glyph glyph-name="j" unicode="j" horiz-adv-x="243" 
d="M-61 -220q-16 0 -36 2.5t-34 9.5l12 75q12 -4 27 -7.5t29 -3.5q40 0 65 25.5t34 83.5l85 538h91l-87 -546q-14 -87 -60 -132t-126 -45zM129 613l16 98h108l-16 -98h-108z" />
    <glyph glyph-name="k" unicode="k" horiz-adv-x="523" 
d="M36 0l117 736h91l-72 -455h2l257 222h118l-308 -264v43l252 -282h-112l-215 234h-2l-37 -234h-91z" />
    <glyph glyph-name="l" unicode="l" horiz-adv-x="243" 
d="M36 0l117 736h91l-117 -736h-91z" />
    <glyph glyph-name="m" unicode="m" horiz-adv-x="883" 
d="M36 0l61 384q5 29 7.5 59t3.5 60h88l-8 -108h-13q29 58 76.5 87.5t108.5 29.5q62 0 98.5 -30.5t39.5 -91.5h-15q28 55 80 88.5t115 33.5q84 0 120.5 -50.5t19.5 -158.5l-48 -303h-91l49 308q10 68 -9.5 99t-72.5 31q-61 0 -101 -41.5t-52 -112.5l-45 -284h-91l49 308
q11 68 -8.5 99t-73.5 31q-61 0 -100.5 -41.5t-50.5 -112.5l-46 -284h-91z" />
    <glyph glyph-name="n" unicode="n" horiz-adv-x="589" 
d="M36 0l61 384q5 29 7.5 59t3.5 60h88l-8 -108l-13 -1q30 58 82 88t119 30q92 0 128 -53t20 -154l-48 -305h-91l48 304q12 72 -11.5 103t-81.5 31q-67 0 -111.5 -41t-55.5 -109l-46 -288h-91z" />
    <glyph glyph-name="o" unicode="o" horiz-adv-x="576" 
d="M255 -9q-76 0 -127.5 32t-72 93.5t-7.5 148.5q13 80 51 135.5t94.5 83.5t126.5 28q78 0 129 -32t72 -93.5t7 -147.5q-13 -81 -51 -136t-95 -83.5t-127 -28.5zM261 63q67 0 114.5 47.5t62.5 138.5q15 95 -19.5 142.5t-104.5 47.5q-67 0 -113.5 -47t-61.5 -137
q-15 -96 18 -144t104 -48z" />
    <glyph glyph-name="p" unicode="p" horiz-adv-x="605" 
d="M2 -216l95 600q5 29 7.5 59t3.5 60h88l-8 -116h-15q27 58 76.5 91.5t119.5 33.5t117 -32.5t66.5 -94t5.5 -146.5q-20 -121 -90 -184.5t-168 -63.5q-66 0 -110.5 33.5t-54.5 90.5h11l-53 -331h-91zM290 63q68 0 115 47.5t62 138.5q15 95 -18.5 142.5t-105.5 47.5
q-66 0 -114.5 -47t-63.5 -137q-14 -96 20.5 -144t104.5 -48z" />
    <glyph glyph-name="q" unicode="q" horiz-adv-x="605" 
d="M364 -216l52 331l16 2q-26 -59 -76 -92.5t-120 -33.5q-69 0 -116 32.5t-66 94t-6 147.5q20 121 90 184t168 63q66 0 110.5 -33t53.5 -91l-11 -1l30 116h87q-7 -30 -14.5 -60t-12.5 -59l-94 -600h-91zM262 63q67 0 115 47.5t63 138.5q15 95 -19.5 142.5t-105.5 47.5
q-67 0 -114 -47t-62 -137q-15 -96 18.5 -144t104.5 -48z" />
    <glyph glyph-name="r" unicode="r" horiz-adv-x="370" 
d="M35 0l60 380q5 30 8.5 61.5t4.5 61.5h88l-8 -126l-17 -1q17 46 46 76.5t65.5 45t75.5 14.5q13 0 25 -1t23 -4l-15 -81q-13 5 -26 6.5t-30 1.5q-44 0 -78 -19t-56 -51.5t-28 -73.5l-47 -290h-91z" />
    <glyph glyph-name="s" unicode="s" horiz-adv-x="497" 
d="M214 -9q-58 0 -108.5 15t-80.5 41l31 63q34 -23 75.5 -37t87.5 -14q56 0 88.5 20.5t37.5 53.5q5 31 -11.5 50t-56.5 25l-74 13q-74 12 -103 51.5t-20 98.5q7 45 36 76t74 48t99 17q55 0 100.5 -14.5t71.5 -38.5l-33 -62q-26 22 -62.5 34.5t-76.5 12.5q-56 0 -87.5 -22
t-36.5 -55q-5 -30 9 -50.5t51 -26.5l77 -13q76 -13 106.5 -49.5t20.5 -94.5q-7 -44 -35.5 -76t-74.5 -49t-105 -17z" />
    <glyph glyph-name="t" unicode="t" horiz-adv-x="356" 
d="M229 -9q-83 0 -117.5 44.5t-21.5 130.5l43 267h-98l11 70h98l22 135l95 25l-26 -160h142l-11 -70h-142l-41 -257q-8 -58 8 -83.5t56 -25.5q19 0 34 3.5t28 8.5l-12 -75q-16 -6 -32.5 -9.5t-35.5 -3.5z" />
    <glyph glyph-name="u" unicode="u" horiz-adv-x="582" 
d="M222 -9q-89 0 -131.5 50.5t-26.5 155.5l49 306h91l-48 -302q-11 -72 12 -104t81 -32q65 0 107 42t53 111l45 285h91l-80 -503h-88l17 111h15q-29 -57 -77.5 -88.5t-109.5 -31.5z" />
    <glyph glyph-name="v" unicode="v" horiz-adv-x="534" 
d="M184 0l-135 503h94l107 -432h-28l246 432h97l-296 -503h-85z" />
    <glyph glyph-name="w" unicode="w" horiz-adv-x="872" 
d="M172 0l-109 503h92l84 -431h-26l225 431h74l86 -431h-25l221 431h94l-268 -503h-86l-90 438h44l-229 -438h-87z" />
    <glyph glyph-name="x" unicode="x" horiz-adv-x="538" 
d="M-37 0l272 282l-1 -45l-173 266h103l125 -201h-32l189 201h113l-255 -264l3 41l181 -280h-106l-135 215h34l-204 -215h-114z" />
    <glyph glyph-name="y" unicode="y" horiz-adv-x="534" 
d="M-16 -227l-15 74q49 11 82.5 25.5t58.5 37.5t46 58l35 60l-5 -38l-138 513h95l108 -431h-27l243 431h98l-317 -542q-29 -49 -59 -82t-61.5 -54t-66.5 -33t-77 -19z" />
    <glyph glyph-name="z" unicode="z" horiz-adv-x="520" 
d="M9 0l10 61l391 395l-4 -23h-328l11 70h417l-9 -61l-393 -397l3 25h342l-11 -70h-429z" />
    <glyph glyph-name="braceleft" unicode="{" horiz-adv-x="363" 
d="M206 -180q-42 0 -69 13t-37.5 37.5t-5.5 56.5l35 219q6 40 -5 58.5t-52 21.5l-30 2l10 69l32 3q40 2 57.5 20.5t24.5 58.5l35 219q9 53 38.5 80t78.5 27h108l-11 -71h-74q-21 0 -34.5 -10.5t-17.5 -34.5l-35 -220q-5 -36 -23 -60t-41.5 -35.5t-44.5 -11.5v4
q21 0 40 -12.5t30 -36.5t5 -61l-34 -220q-4 -23 5 -34t31 -11h75l-11 -71h-80z" />
    <glyph glyph-name="bar" unicode="|" horiz-adv-x="268" 
d="M20 -180l140 885h91l-140 -885h-91z" />
    <glyph glyph-name="braceright" unicode="}" horiz-adv-x="363" 
d="M-60 -180l11 71h75q21 0 34.5 11t17.5 34l34 220q6 37 24 60.5t41.5 35.5t44.5 12v-4q-21 0 -40.5 12.5t-29.5 36.5t-5 60l34 220q4 24 -5 34.5t-30 10.5h-77l12 71h80q43 0 69.5 -13t37.5 -37t5 -57l-35 -219q-6 -40 5.5 -58.5t51.5 -21.5l30 -2l-11 -69l-31 -2
q-39 -3 -57 -21.5t-24 -58.5l-36 -219q-8 -53 -38 -80t-80 -27h-108z" />
    <glyph glyph-name="asciitilde" unicode="~" horiz-adv-x="600" 
d="M419 215q-34 0 -66 14t-60 29q-26 15 -49 25.5t-46 10.5q-31 0 -54 -18.5t-39 -46.5l-50 33q26 47 59 72t78 25q35 0 68 -14t61 -29q27 -14 48.5 -24.5t43.5 -10.5q33 0 55.5 18t38.5 47l50 -34q-26 -46 -59.5 -71.5t-78.5 -25.5z" />
    <glyph glyph-name="uni00A0" unicode="&#xa0;" horiz-adv-x="264" 
 />
    <glyph glyph-name="exclamdown" unicode="&#xa1;" horiz-adv-x="233" 
d="M-9 -180l107 494h56l-50 -494h-113zM83 393l18 110h110l-17 -110h-111z" />
    <glyph glyph-name="cent" unicode="&#xa2;" horiz-adv-x="600" 
d="M220 -115l21 133l15 -22q-91 13 -137.5 78t-28.5 178q19 108 82.5 168t161.5 70l-22 -27l23 144h75l-22 -140l-15 25q47 -1 87.5 -15.5t66.5 -41.5l-34 -62q-26 24 -59 35t-64 11q-73 0 -123 -44t-64 -128q-9 -57 4 -98t46.5 -62.5t83.5 -21.5q33 0 70.5 12.5t69.5 38.5
l30 -63q-34 -30 -87.5 -46.5t-107.5 -15.5l24 23l-20 -129h-76z" />
    <glyph glyph-name="sterling" unicode="&#xa3;" horiz-adv-x="600" 
d="M5 0l10 64q50 19 80 45t37 67l23 148h-99l10 60h99l19 123q17 103 80 155t166 52q61 0 110 -18t81 -53l-37 -67q-32 31 -66.5 46t-84.5 15q-68 0 -106.5 -32.5t-49.5 -101.5l-19 -119h181l-9 -60h-181l-20 -122q-8 -53 -35 -84t-66 -45l1 5h408l-13 -78h-519z" />
    <glyph glyph-name="currency" unicode="&#xa4;" horiz-adv-x="600" 
d="M113 -27l-44 46l73 75q-23 32 -36 70.5t-13 80.5q0 43 13 81.5t36 69.5l-73 76l44 45l74 -76q31 25 68.5 38.5t78.5 13.5t78.5 -13t67.5 -37l72 75l47 -47l-74 -74q24 -32 37 -70.5t13 -81.5t-13 -81.5t-37 -70.5l73 -74l-45 -45l-72 74q-31 -24 -68 -37.5t-79 -13.5
q-41 0 -79 14t-68 37zM334 74q44 0 80.5 23t58 62t21.5 86q0 48 -21.5 86.5t-58 62t-80.5 22.5q-44 0 -81 -23t-58.5 -61.5t-21.5 -86.5q0 -47 21.5 -86t58 -62t81.5 -23z" />
    <glyph glyph-name="yen" unicode="&#xa5;" horiz-adv-x="600" 
d="M214 0l27 175h-181l8 59h183l15 95h-182l9 58h156l-2 -11l-182 329h99l166 -308h-23l266 308h106l-286 -329l1 11h156l-9 -58h-182l-15 -95h182l-9 -59h-182l-29 -175h-92z" />
    <glyph glyph-name="brokenbar" unicode="&#xa6;" horiz-adv-x="268" 
d="M107 372l53 333h91l-53 -333h-91zM20 -180l53 334h91l-53 -334h-91z" />
    <glyph glyph-name="section" unicode="&#xa7;" horiz-adv-x="549" 
d="M206 -189q-67 0 -121.5 17t-95.5 49l35 62q22 -19 50 -32.5t61 -20.5t68 -7q66 0 103.5 33t37.5 82q0 38 -17.5 59.5t-57.5 44.5l-105 61q-57 34 -87 72.5t-30 84.5t23.5 84.5t67.5 66.5l-3 -11q-7 16 -11 33t-4 36q0 57 31 99.5t82.5 66t114.5 23.5q57 0 108 -15.5
t90 -49.5l-31 -61q-30 27 -75 42.5t-90 15.5q-66 0 -103.5 -33t-37.5 -83q0 -37 17 -60t58 -46l102 -59q60 -34 90 -72.5t30 -83.5q0 -46 -24 -85t-69 -68l3 16q9 -16 13 -33.5t4 -36.5q0 -59 -31 -102t-82 -66t-114 -23zM130 331q0 -32 22 -57.5t65 -51.5l93 -53
q26 -17 46.5 -32.5t32.5 -33.5l-12 1q23 20 34.5 44.5t11.5 45.5q0 32 -22.5 57t-67.5 52l-89 50q-26 17 -46.5 33t-33.5 35l13 2q-24 -21 -35.5 -45.5t-11.5 -46.5z" />
    <glyph glyph-name="dieresis" unicode="&#xa8;" horiz-adv-x="500" 
d="M349 606l13 93h93l-14 -93h-92zM171 606l14 93h93l-14 -93h-93z" />
    <glyph glyph-name="copyright" unicode="&#xa9;" horiz-adv-x="815" 
d="M429 -9q-76 0 -142.5 27.5t-115.5 76.5t-76.5 115.5t-27.5 142.5q0 77 27.5 143t76.5 114.5t115 76t143 27.5t143 -27.5t114.5 -76t76 -114.5t27.5 -143q0 -76 -27.5 -142.5t-76 -115.5t-114.5 -76.5t-143 -27.5zM443 137q-98 0 -154 59.5t-56 158.5t56 156t154 57
q40 0 79 -13.5t64 -38.5l-26 -57q-25 23 -54.5 33.5t-57.5 10.5q-63 0 -99 -39t-36 -110q0 -70 36 -111t99 -41q28 0 57.5 11t54.5 34l26 -58q-25 -23 -65 -37.5t-78 -14.5zM429 37q67 0 124 24t99.5 67t66 100.5t23.5 124.5t-23.5 124.5t-66 100t-99.5 66.5t-124 24
t-124.5 -24t-100 -66.5t-66 -100t-23.5 -124.5t23.5 -124.5t66 -100.5t100 -67t124.5 -24z" />
    <glyph glyph-name="ordfeminine" unicode="&#xaa;" horiz-adv-x="330" 
d="M160 410q-32 0 -55.5 12.5t-34.5 34.5t-7 50q5 31 25.5 48.5t54 24.5t75.5 7h74l-7 -37h-73q-79 0 -86 -45q-3 -22 9 -36t42 -14q37 0 65 24t35 66l9 57q5 31 -10.5 47t-52.5 16q-26 0 -54.5 -6.5t-53.5 -21.5l-15 46q26 15 62 23t69 8q66 0 95 -30.5t19 -93.5l-28 -174
h-59l9 54h-3q-19 -31 -44.5 -45.5t-59.5 -14.5z" />
    <glyph glyph-name="guillemotleft" unicode="&#xab;" horiz-adv-x="457" 
d="M130 87l-102 180l160 182h87l-163 -189l96 -173h-78zM318 87l-102 180l160 182h87l-163 -189l96 -173h-78z" />
    <glyph glyph-name="logicalnot" unicode="&#xac;" horiz-adv-x="600" 
d="M460 147l33 208h-423l11 68h493l-44 -276h-70z" />
    <glyph glyph-name="uni00AD" unicode="&#xad;" horiz-adv-x="431" 
d="M68 237l12 74h289l-11 -74h-290z" />
    <glyph glyph-name="registered" unicode="&#xae;" horiz-adv-x="815" 
d="M429 -9q-76 0 -142.5 27.5t-115.5 76.5t-76.5 115.5t-27.5 142.5q0 77 27.5 143t76.5 114.5t115 76t143 27.5t143 -27.5t114.5 -76t76 -114.5t27.5 -143q0 -76 -27.5 -142.5t-76 -115.5t-114.5 -76.5t-143 -27.5zM429 37q67 0 124 24t99.5 67t66 100.5t23.5 124.5
t-23.5 124.5t-66 100t-99.5 66.5t-124 24t-124.5 -24t-100 -66.5t-66 -100t-23.5 -124.5t23.5 -124.5t66 -100.5t100 -67t124.5 -24zM282 142v422h175q68 0 104.5 -33t36.5 -90t-36.5 -87.5t-102.5 -30.5l14 10q31 0 51.5 -14t32.5 -52l46 -125h-75l-47 129q-9 24 -26 32.5
t-42 8.5h-71l14 10v-180h-74zM355 369h91q41 0 61 17t20 52t-19.5 52t-61.5 17h-91v-138z" />
    <glyph glyph-name="macron" unicode="&#xaf;" horiz-adv-x="500" 
d="M158 623l9 59h301l-9 -59h-301z" />
    <glyph glyph-name="degree" unicode="&#xb0;" horiz-adv-x="373" 
d="M237 414q-43 0 -77 19.5t-53.5 53t-19.5 76.5q0 42 19.5 76t53.5 53.5t77 19.5t76.5 -19.5t53 -53t19.5 -77.5q0 -42 -19.5 -76t-53 -53t-76.5 -19zM237 472q39 0 63 25.5t24 65.5q0 39 -24 64.5t-63 25.5q-38 0 -62.5 -25.5t-24.5 -64.5q0 -40 24.5 -65.5t62.5 -25.5z
" />
    <glyph glyph-name="plusminus" unicode="&#xb1;" horiz-adv-x="600" 
d="M246 130l26 166h-212l11 68h213l26 166h70l-26 -166h208l-9 -68h-210l-26 -166h-71zM13 0l11 68h493l-11 -68h-493z" />
    <glyph glyph-name="uni00B2" unicode="&#xb2;" horiz-adv-x="380" 
d="M56 282l9 55l163 143q32 29 48 52t20 43q6 36 -11 53t-52 17q-28 0 -59.5 -11t-56.5 -32l-20 57q31 25 70 37.5t82 12.5q66 0 103 -33.5t27 -94.5q-5 -27 -24.5 -58.5t-60.5 -65.5l-138 -120l-3 10h206l-10 -65h-293z" />
    <glyph glyph-name="uni00B3" unicode="&#xb3;" horiz-adv-x="380" 
d="M200 278q-49 0 -87.5 12.5t-61.5 35.5l23 55q22 -20 53 -30.5t68 -10.5q38 0 63.5 16t30.5 49q5 32 -16 46.5t-60 14.5h-80l10 59h69q39 0 63.5 16.5t29.5 47.5q5 28 -12 43.5t-56 15.5q-32 0 -66 -12t-57 -32l-19 56q31 23 72 36t86 13q68 0 102.5 -31t26.5 -84
q-6 -38 -35.5 -65t-68.5 -36l2 9q44 -6 66.5 -34.5t14.5 -74.5q-8 -54 -54 -84.5t-107 -30.5z" />
    <glyph glyph-name="acute" unicode="&#xb4;" horiz-adv-x="500" 
d="M265 552l134 202h97l-166 -202h-65z" />
    <glyph glyph-name="uni00B5" unicode="&#xb5;" horiz-adv-x="573" 
d="M-2 -216l112 719h91l-46 -305q-11 -68 11.5 -100.5t76.5 -32.5q67 0 108.5 44.5t52.5 117.5l42 276h91l-78 -503h-89l18 110h6q-21 -55 -62 -87t-96 -32q-41 0 -71.5 16t-44.5 46l5 2l-35 -271h-92z" />
    <glyph glyph-name="paragraph" unicode="&#xb6;" horiz-adv-x="607" 
d="M183 -180l76 483q-55 0 -94.5 23t-61 62.5t-21.5 87.5q0 69 30 120.5t84 80t122 28.5h274l-140 -885h-71l129 816h-127l-130 -816h-70z" />
    <glyph glyph-name="periodcentered" unicode="&#xb7;" horiz-adv-x="236" 
d="M57 219l18 111h111l-17 -111h-112z" />
    <glyph glyph-name="cedilla" unicode="&#xb8;" horiz-adv-x="500" 
d="M183 -193q-26 0 -50 5.5t-40 14.5l18 47q18 -9 34.5 -13t38.5 -4q27 0 44 9.5t17 28.5q0 11 -9 17.5t-26 6.5q-10 0 -20.5 -1.5t-26.5 -5.5l-15 16l29 92h55l-25 -76l-26 8q13 3 24.5 5t21.5 2q35 0 56.5 -16t21.5 -47q0 -40 -34.5 -64.5t-87.5 -24.5z" />
    <glyph glyph-name="uni00B9" unicode="&#xb9;" horiz-adv-x="380" 
d="M82 282l11 65h97l46 292l33 -1l-133 -72l12 76l117 63h57l-57 -358h86l-10 -65h-259z" />
    <glyph glyph-name="ordmasculine" unicode="&#xba;" horiz-adv-x="345" 
d="M203 411q-67 0 -104 41.5t-26 116.5q11 69 56 107t110 38q68 0 105 -40.5t25 -117.5q-10 -68 -55 -106.5t-111 -38.5zM207 461q38 0 65 26t35 76t-11 76t-60 26q-38 0 -65 -26t-35 -76t11 -76t60 -26z" />
    <glyph glyph-name="guillemotright" unicode="&#xbb;" horiz-adv-x="457" 
d="M97 87h-87l162 189l-96 173h79l102 -180zM284 87h-87l162 189l-96 173h79l102 -180z" />
    <glyph glyph-name="onequarter" unicode="&#xbc;" horiz-adv-x="900" 
d="M82 282l11 65h97l46 292l33 -1l-133 -72l12 76l117 63h57l-57 -358h86l-10 -65h-259zM263 -9h-83l540 723h83zM710 0l13 83h-200l9 54l252 286h63l-44 -280h63l-9 -60h-63l-14 -83h-70zM735 143l31 199h14l-189 -214l-2 15h146z" />
    <glyph glyph-name="onehalf" unicode="&#xbd;" horiz-adv-x="945" 
d="M82 282l11 65h97l46 292l33 -1l-133 -72l12 76l117 63h57l-57 -358h86l-10 -65h-259zM263 -9h-83l540 723h83zM576 0l9 55l163 143q32 29 48 52t20 43q6 36 -11 53t-52 17q-28 0 -59.5 -11t-56.5 -32l-20 57q31 25 70 37.5t82 12.5q66 0 103 -33.5t27 -94.5
q-5 -27 -24.5 -58.5t-60.5 -65.5l-138 -120l-3 10h206l-10 -65h-293z" />
    <glyph glyph-name="threequarters" unicode="&#xbe;" horiz-adv-x="900" 
d="M200 278q-49 0 -87.5 12.5t-61.5 35.5l23 55q22 -20 53 -30.5t68 -10.5q38 0 63.5 16t30.5 49q5 32 -16 46.5t-60 14.5h-80l10 59h69q39 0 63.5 16.5t29.5 47.5q5 28 -12 43.5t-56 15.5q-32 0 -66 -12t-57 -32l-19 56q31 23 72 36t86 13q68 0 102.5 -31t26.5 -84
q-6 -38 -35.5 -65t-68.5 -36l2 9q44 -6 66.5 -34.5t14.5 -74.5q-8 -54 -54 -84.5t-107 -30.5zM263 -9h-83l540 723h83zM710 0l13 83h-200l9 54l252 286h63l-44 -280h63l-9 -60h-63l-14 -83h-70zM735 143l31 199h14l-189 -214l-2 15h146z" />
    <glyph glyph-name="questiondown" unicode="&#xbf;" horiz-adv-x="451" 
d="M153 -207q-51 0 -90 16.5t-60 47t-21 71.5q0 44 18.5 81t47 68t60.5 57q58 50 83 86t35 72l6 22h58l-5 -28q-5 -32 -17.5 -61.5t-36 -60.5t-64.5 -69q-22 -20 -42.5 -44t-34 -51t-13.5 -56q0 -34 26.5 -53t72.5 -19q41 0 78.5 11t72.5 29l-12 -82q-36 -18 -79 -27.5
t-83 -9.5zM347 503l-17 -110h-112l18 110h111z" />
    <glyph glyph-name="Agrave" unicode="&#xc0;" horiz-adv-x="738" 
d="M-26 0l424 705h81l205 -705h-92l-56 200l37 -24h-429l47 24l-118 -200h-99zM425 601l-215 -370l-21 21h363l-22 -21l-102 370h-3zM415 765l-136 172h99l105 -172h-68z" />
    <glyph glyph-name="Aacute" unicode="&#xc1;" horiz-adv-x="738" 
d="M-26 0l424 705h81l205 -705h-92l-56 200l37 -24h-429l47 24l-118 -200h-99zM425 601l-215 -370l-21 21h363l-22 -21l-102 370h-3zM415 765l131 172h102l-165 -172h-68z" />
    <glyph glyph-name="Acircumflex" unicode="&#xc2;" horiz-adv-x="738" 
d="M-26 0l424 705h81l205 -705h-92l-56 200l37 -24h-429l47 24l-118 -200h-99zM425 601l-215 -370l-21 21h363l-22 -21l-102 370h-3zM278 765l140 172h83l105 -172h-66l-84 115l-112 -115h-66z" />
    <glyph glyph-name="Atilde" unicode="&#xc3;" horiz-adv-x="738" 
d="M-26 0l424 705h81l205 -705h-92l-56 200l37 -24h-429l47 24l-118 -200h-99zM425 601l-215 -370l-21 21h363l-22 -21l-102 370h-3zM286 780l-50 3q11 66 45.5 101.5t84.5 35.5q30 0 55.5 -13t48.5 -28q20 -12 38 -22t37 -10q57 0 76 76l50 -3q-11 -65 -45 -101t-84 -36
q-30 0 -55.5 13.5t-48.5 27.5q-20 13 -38.5 23t-37.5 10q-57 0 -76 -77z" />
    <glyph glyph-name="Adieresis" unicode="&#xc4;" horiz-adv-x="738" 
d="M-26 0l424 705h81l205 -705h-92l-56 200l37 -24h-429l47 24l-118 -200h-99zM425 601l-215 -370l-21 21h363l-22 -21l-102 370h-3zM497 802l15 93h93l-16 -93h-92zM319 802l15 93h93l-15 -93h-93z" />
    <glyph glyph-name="Aring" unicode="&#xc5;" horiz-adv-x="738" 
d="M-26 0l424 705h81l205 -705h-92l-56 200l37 -24h-429l47 24l-118 -200h-99zM425 601l-215 -370l-21 21h363l-22 -21l-102 370h-3zM464 757q-34 0 -61.5 16t-43.5 43t-16 59q0 33 16 59.5t43.5 42t60.5 15.5q35 0 62 -15.5t43 -42t16 -59.5t-16 -59.5t-43 -42.5t-61 -16z
M464 804q31 0 50.5 20.5t19.5 50.5t-19.5 50t-50.5 20t-51 -20.5t-20 -49.5q0 -30 20 -50.5t51 -20.5z" />
    <glyph glyph-name="AE" unicode="&#xc6;" horiz-adv-x="1008" 
d="M-46 0l543 705h535l-13 -76h-394l26 23l-19 -281l-14 25h344l-12 -76h-338l16 10l-18 -278l-9 24h331l-12 -76h-401l13 196l24 -20h-381l38 25l-152 -201h-107zM535 628l-301 -398l-9 22h323l-12 -24l27 400h-28z" />
    <glyph glyph-name="Ccedilla" unicode="&#xc7;" horiz-adv-x="685" 
d="M375 -9q-117 0 -188.5 47.5t-98.5 132t-10 195.5q18 111 69 189t131 119t183 40q72 0 127 -20.5t94 -59.5l-36 -75q-43 39 -86.5 55t-103.5 16q-114 0 -187 -71t-94 -202q-13 -85 4.5 -148.5t68.5 -98.5t136 -35q54 0 106.5 18.5t99.5 59.5l31 -73q-47 -43 -112.5 -66
t-133.5 -23zM331 -193q-26 0 -50 5.5t-40 14.5l18 47q18 -9 34.5 -13t38.5 -4q27 0 44 9.5t17 28.5q0 11 -9 17.5t-26 6.5q-10 0 -20.5 -1.5t-26.5 -5.5l-15 16l29 92h55l-25 -76l-26 8q13 3 24.5 5t21.5 2q35 0 56.5 -16t21.5 -47q0 -40 -34.5 -64.5t-87.5 -24.5z" />
    <glyph glyph-name="Egrave" unicode="&#xc8;" horiz-adv-x="590" 
d="M46 0l112 705h456l-13 -76h-366l-36 -233h343l-12 -76h-343l-39 -244h365l-11 -76h-456zM377 765l-136 172h99l105 -172h-68z" />
    <glyph glyph-name="Eacute" unicode="&#xc9;" horiz-adv-x="590" 
d="M46 0l112 705h456l-13 -76h-366l-36 -233h343l-12 -76h-343l-39 -244h365l-11 -76h-456zM377 765l131 172h102l-165 -172h-68z" />
    <glyph glyph-name="Ecircumflex" unicode="&#xca;" horiz-adv-x="590" 
d="M46 0l112 705h456l-13 -76h-366l-36 -233h343l-12 -76h-343l-39 -244h365l-11 -76h-456zM239 765l140 172h83l105 -172h-66l-84 115l-112 -115h-66z" />
    <glyph glyph-name="Edieresis" unicode="&#xcb;" horiz-adv-x="590" 
d="M46 0l112 705h456l-13 -76h-366l-36 -233h343l-12 -76h-343l-39 -244h365l-11 -76h-456zM458 802l15 93h93l-16 -93h-92zM280 802l15 93h93l-15 -93h-93z" />
    <glyph glyph-name="Igrave" unicode="&#xcc;" horiz-adv-x="264" 
d="M46 0l112 705h93l-112 -705h-93zM180 765l-136 172h99l105 -172h-68z" />
    <glyph glyph-name="Iacute" unicode="&#xcd;" horiz-adv-x="264" 
d="M46 0l112 705h93l-112 -705h-93zM180 765l131 172h102l-165 -172h-68z" />
    <glyph glyph-name="Icircumflex" unicode="&#xce;" horiz-adv-x="264" 
d="M46 0l112 705h93l-112 -705h-93zM42 765l140 172h83l105 -172h-66l-84 115l-112 -115h-66z" />
    <glyph glyph-name="Idieresis" unicode="&#xcf;" horiz-adv-x="264" 
d="M46 0l112 705h93l-112 -705h-93zM262 802l15 93h93l-16 -93h-92zM84 802l15 93h93l-15 -93h-93z" />
    <glyph glyph-name="Eth" unicode="&#xd0;" horiz-adv-x="750" 
d="M46 0l112 705h229q125 0 201 -43.5t105 -125.5t11 -196q-28 -171 -134.5 -255.5t-281.5 -84.5h-242zM152 79h139q140 0 219 66.5t101 203.5q22 141 -36.5 209t-198.5 68h-138zM11 322l11 71h376l-11 -71h-376z" />
    <glyph glyph-name="Ntilde" unicode="&#xd1;" horiz-adv-x="748" 
d="M46 0l112 705h72l346 -588l-20 4l92 584h87l-112 -705h-71l-347 588l20 -4l-92 -584h-87zM294 780l-50 3q11 66 45.5 101.5t84.5 35.5q30 0 55.5 -13t48.5 -28q20 -12 38 -22t37 -10q57 0 76 76l50 -3q-11 -65 -45 -101t-84 -36q-30 0 -55.5 13.5t-48.5 27.5
q-20 13 -38.5 23t-37.5 10q-57 0 -76 -77z" />
    <glyph glyph-name="Ograve" unicode="&#xd2;" horiz-adv-x="776" 
d="M78 366q18 111 68 189t128 118.5t177 40.5q107 0 174.5 -47.5t94.5 -132t9 -194.5q-17 -111 -67.5 -189t-128 -119t-177.5 -41q-106 0 -174 47.5t-94.5 132t-9.5 195.5zM175 356q-14 -88 3.5 -151.5t64.5 -97.5t120 -34q112 0 180.5 73.5t88.5 203.5q15 88 -3 151t-65 97
t-121 34q-111 0 -178.5 -72.5t-89.5 -203.5zM435 765l-136 172h99l105 -172h-68z" />
    <glyph glyph-name="Oacute" unicode="&#xd3;" horiz-adv-x="776" 
d="M78 366q18 111 68 189t128 118.5t177 40.5q107 0 174.5 -47.5t94.5 -132t9 -194.5q-17 -111 -67.5 -189t-128 -119t-177.5 -41q-106 0 -174 47.5t-94.5 132t-9.5 195.5zM175 356q-14 -88 3.5 -151.5t64.5 -97.5t120 -34q112 0 180.5 73.5t88.5 203.5q15 88 -3 151t-65 97
t-121 34q-111 0 -178.5 -72.5t-89.5 -203.5zM435 765l131 172h102l-165 -172h-68z" />
    <glyph glyph-name="Ocircumflex" unicode="&#xd4;" horiz-adv-x="776" 
d="M78 366q18 111 68 189t128 118.5t177 40.5q107 0 174.5 -47.5t94.5 -132t9 -194.5q-17 -111 -67.5 -189t-128 -119t-177.5 -41q-106 0 -174 47.5t-94.5 132t-9.5 195.5zM175 356q-14 -88 3.5 -151.5t64.5 -97.5t120 -34q112 0 180.5 73.5t88.5 203.5q15 88 -3 151t-65 97
t-121 34q-111 0 -178.5 -72.5t-89.5 -203.5zM297 765l140 172h83l105 -172h-66l-84 115l-112 -115h-66z" />
    <glyph glyph-name="Otilde" unicode="&#xd5;" horiz-adv-x="776" 
d="M78 366q18 111 68 189t128 118.5t177 40.5q107 0 174.5 -47.5t94.5 -132t9 -194.5q-17 -111 -67.5 -189t-128 -119t-177.5 -41q-106 0 -174 47.5t-94.5 132t-9.5 195.5zM175 356q-14 -88 3.5 -151.5t64.5 -97.5t120 -34q112 0 180.5 73.5t88.5 203.5q15 88 -3 151t-65 97
t-121 34q-111 0 -178.5 -72.5t-89.5 -203.5zM305 780l-50 3q11 66 45.5 101.5t84.5 35.5q30 0 55.5 -13t48.5 -28q20 -12 38 -22t37 -10q57 0 76 76l50 -3q-11 -65 -45 -101t-84 -36q-30 0 -55.5 13.5t-48.5 27.5q-20 13 -38.5 23t-37.5 10q-57 0 -76 -77z" />
    <glyph glyph-name="Odieresis" unicode="&#xd6;" horiz-adv-x="776" 
d="M78 366q18 111 68 189t128 118.5t177 40.5q107 0 174.5 -47.5t94.5 -132t9 -194.5q-17 -111 -67.5 -189t-128 -119t-177.5 -41q-106 0 -174 47.5t-94.5 132t-9.5 195.5zM175 356q-14 -88 3.5 -151.5t64.5 -97.5t120 -34q112 0 180.5 73.5t88.5 203.5q15 88 -3 151t-65 97
t-121 34q-111 0 -178.5 -72.5t-89.5 -203.5zM517 802l15 93h93l-16 -93h-92zM339 802l15 93h93l-15 -93h-93z" />
    <glyph glyph-name="multiply" unicode="&#xd7;" horiz-adv-x="600" 
d="M112 50l-47 48l203 189l-168 184l49 48l170 -186l202 186l47 -48l-204 -187l169 -186l-49 -48l-170 186z" />
    <glyph glyph-name="Oslash" unicode="&#xd8;" horiz-adv-x="776" 
d="M78 366q18 111 68 189t128 118.5t177 40.5q107 0 174.5 -47.5t94.5 -132t9 -194.5q-17 -111 -67.5 -189t-128 -119t-177.5 -41q-106 0 -174 47.5t-94.5 132t-9.5 195.5zM175 356q-14 -88 3.5 -151.5t64.5 -97.5t120 -34q112 0 180.5 73.5t88.5 203.5q15 88 -3 151t-65 97
t-121 34q-111 0 -178.5 -72.5t-89.5 -203.5zM231 59l-71 -97l-58 41l71 97l36 40l349 467l23 40l72 96l59 -41l-72 -96l-36 -41l-348 -466z" />
    <glyph glyph-name="Ugrave" unicode="&#xd9;" horiz-adv-x="733" 
d="M335 -9q-92 0 -153 32.5t-86 97.5t-10 163l67 421h94l-67 -422q-17 -105 20.5 -157.5t143.5 -52.5q93 0 148 49t73 162l67 421h92l-67 -427q-16 -99 -57 -162.5t-107 -94t-158 -30.5zM415 765l-136 172h99l105 -172h-68z" />
    <glyph glyph-name="Uacute" unicode="&#xda;" horiz-adv-x="733" 
d="M335 -9q-92 0 -153 32.5t-86 97.5t-10 163l67 421h94l-67 -422q-17 -105 20.5 -157.5t143.5 -52.5q93 0 148 49t73 162l67 421h92l-67 -427q-16 -99 -57 -162.5t-107 -94t-158 -30.5zM415 765l131 172h102l-165 -172h-68z" />
    <glyph glyph-name="Ucircumflex" unicode="&#xdb;" horiz-adv-x="733" 
d="M335 -9q-92 0 -153 32.5t-86 97.5t-10 163l67 421h94l-67 -422q-17 -105 20.5 -157.5t143.5 -52.5q93 0 148 49t73 162l67 421h92l-67 -427q-16 -99 -57 -162.5t-107 -94t-158 -30.5zM278 765l140 172h83l105 -172h-66l-84 115l-112 -115h-66z" />
    <glyph glyph-name="Udieresis" unicode="&#xdc;" horiz-adv-x="733" 
d="M335 -9q-92 0 -153 32.5t-86 97.5t-10 163l67 421h94l-67 -422q-17 -105 20.5 -157.5t143.5 -52.5q93 0 148 49t73 162l67 421h92l-67 -427q-16 -99 -57 -162.5t-107 -94t-158 -30.5zM497 802l15 93h93l-16 -93h-92zM319 802l15 93h93l-15 -93h-93z" />
    <glyph glyph-name="Yacute" unicode="&#xdd;" horiz-adv-x="612" 
d="M219 0l53 330l10 -61l-224 436h103l171 -344h-22l280 344h109l-364 -439l30 64l-53 -330h-93zM354 765l131 172h102l-165 -172h-68z" />
    <glyph glyph-name="Thorn" unicode="&#xde;" horiz-adv-x="655" 
d="M46 0l112 705h93l-21 -132h190q117 0 170 -58t38 -158q-9 -61 -42.5 -104t-87.5 -65.5t-126 -22.5h-207l-26 -165h-93zM177 241h189q75 0 118 30.5t52 92.5q11 65 -22 99t-108 34h-188z" />
    <glyph glyph-name="germandbls" unicode="&#xdf;" horiz-adv-x="643" 
d="M36 0l78 489q20 127 88 190t188 63q64 0 108.5 -21t65 -61t11.5 -99q-6 -38 -27.5 -74t-63.5 -68t-112 -58l1 19q85 -24 137.5 -56.5t74 -75t12.5 -98.5q-8 -50 -37 -85.5t-74 -54.5t-102 -19q-59 0 -104 14.5t-75 38.5l30 64q34 -23 69.5 -35t77.5 -12q54 0 87 25t41 71
q5 35 -11.5 65t-65 56.5t-139.5 50.5l11 72q66 23 105 48t57 53t23 59q9 53 -18.5 82t-88.5 29q-75 0 -118.5 -41.5t-58.5 -131.5l-79 -499h-91z" />
    <glyph glyph-name="agrave" unicode="&#xe0;" horiz-adv-x="605" 
d="M236 -9q-69 0 -116 32.5t-66 94t-6 147.5q20 121 90 184t168 63q66 0 110.5 -33t53.5 -91l-11 -1l30 116h87q-7 -30 -14.5 -60t-12.5 -59l-60 -384h-91l19 117h15q-26 -59 -76 -92.5t-120 -33.5zM262 63q67 0 115 47.5t63 138.5q15 95 -19.5 142.5t-105.5 47.5
q-67 0 -114 -47t-62 -137q-15 -96 18.5 -144t104.5 -48zM311 552l-141 202h93l112 -202h-64z" />
    <glyph glyph-name="aacute" unicode="&#xe1;" horiz-adv-x="605" 
d="M236 -9q-69 0 -116 32.5t-66 94t-6 147.5q20 121 90 184t168 63q66 0 110.5 -33t53.5 -91l-11 -1l30 116h87q-7 -30 -14.5 -60t-12.5 -59l-60 -384h-91l19 117h15q-26 -59 -76 -92.5t-120 -33.5zM262 63q67 0 115 47.5t63 138.5q15 95 -19.5 142.5t-105.5 47.5
q-67 0 -114 -47t-62 -137q-15 -96 18.5 -144t104.5 -48zM312 552l134 202h97l-166 -202h-65z" />
    <glyph glyph-name="acircumflex" unicode="&#xe2;" horiz-adv-x="605" 
d="M236 -9q-69 0 -116 32.5t-66 94t-6 147.5q20 121 90 184t168 63q66 0 110.5 -33t53.5 -91l-11 -1l30 116h87q-7 -30 -14.5 -60t-12.5 -59l-60 -384h-91l19 117h15q-26 -59 -76 -92.5t-120 -33.5zM262 63q67 0 115 47.5t63 138.5q15 95 -19.5 142.5t-105.5 47.5
q-67 0 -114 -47t-62 -137q-15 -96 18.5 -144t104.5 -48zM189 552l132 202h84l88 -202h-60l-74 144l-108 -144h-62z" />
    <glyph glyph-name="atilde" unicode="&#xe3;" horiz-adv-x="605" 
d="M236 -9q-69 0 -116 32.5t-66 94t-6 147.5q20 121 90 184t168 63q66 0 110.5 -33t53.5 -91l-11 -1l30 116h87q-7 -30 -14.5 -60t-12.5 -59l-60 -384h-91l19 117h15q-26 -59 -76 -92.5t-120 -33.5zM262 63q67 0 115 47.5t63 138.5q15 95 -19.5 142.5t-105.5 47.5
q-67 0 -114 -47t-62 -137q-15 -96 18.5 -144t104.5 -48zM216 589l-50 3q10 65 41 101t78 36q26 0 44.5 -13t33.5 -28q14 -13 28 -23t31 -10q51 0 69 77l49 -3q-10 -66 -41 -101.5t-76 -35.5q-27 0 -46 13t-34 28q-14 12 -28 22t-31 10q-50 0 -68 -76z" />
    <glyph glyph-name="adieresis" unicode="&#xe4;" horiz-adv-x="605" 
d="M236 -9q-69 0 -116 32.5t-66 94t-6 147.5q20 121 90 184t168 63q66 0 110.5 -33t53.5 -91l-11 -1l30 116h87q-7 -30 -14.5 -60t-12.5 -59l-60 -384h-91l19 117h15q-26 -59 -76 -92.5t-120 -33.5zM262 63q67 0 115 47.5t63 138.5q15 95 -19.5 142.5t-105.5 47.5
q-67 0 -114 -47t-62 -137q-15 -96 18.5 -144t104.5 -48zM397 606l13 93h93l-14 -93h-92zM219 606l14 93h93l-14 -93h-93z" />
    <glyph glyph-name="aring" unicode="&#xe5;" horiz-adv-x="605" 
d="M236 -9q-69 0 -116 32.5t-66 94t-6 147.5q20 121 90 184t168 63q66 0 110.5 -33t53.5 -91l-11 -1l30 116h87q-7 -30 -14.5 -60t-12.5 -59l-60 -384h-91l19 117h15q-26 -59 -76 -92.5t-120 -33.5zM262 63q67 0 115 47.5t63 138.5q15 95 -19.5 142.5t-105.5 47.5
q-67 0 -114 -47t-62 -137q-15 -96 18.5 -144t104.5 -48zM362 546q-33 0 -60.5 16t-43.5 42.5t-16 59.5t16 59t43.5 42t60.5 16q35 0 62 -16t42.5 -42t15.5 -60q0 -32 -15.5 -58.5t-42.5 -42.5t-62 -16zM362 593q32 0 51.5 20.5t19.5 49.5q0 31 -19.5 51t-51.5 20
q-30 0 -50 -20t-20 -50q0 -31 19.5 -51t50.5 -20z" />
    <glyph glyph-name="ae" unicode="&#xe6;" horiz-adv-x="879" 
d="M209 -9q-61 0 -101 23t-57 61.5t-10 83.5q10 53 48 82.5t104.5 41.5t159.5 12h52l-8 -53h-54q-65 0 -112 -7.5t-73.5 -27t-32.5 -55.5q-7 -42 18.5 -68t77.5 -26q64 0 106.5 40.5t53.5 106.5l17 115q11 63 -16.5 91.5t-80.5 28.5q-48 0 -89 -11.5t-88 -38.5l-27 65
q29 18 64 31t72.5 19.5t73.5 6.5q81 0 120.5 -31t44.5 -90h-29q36 59 91 90t120 31q69 0 114 -30.5t63.5 -84.5t8.5 -125l-5 -30h-376l9 54h314l-18 -14q12 79 -17 121.5t-97 42.5q-48 0 -84.5 -22.5t-58 -61t-28.5 -88.5l-4 -25q-12 -89 26 -137.5t123 -48.5q41 0 81 13
t76 43l30 -63q-39 -31 -91.5 -48t-105.5 -17q-88 0 -142.5 40t-71.5 114h24q-27 -73 -82.5 -113.5t-132.5 -40.5z" />
    <glyph glyph-name="ccedilla" unicode="&#xe7;" horiz-adv-x="497" 
d="M261 -9q-77 0 -129.5 33t-74.5 94.5t-9 146.5q20 121 94 184t182 63q47 0 90 -15t70 -44l-34 -62q-26 25 -59 36.5t-64 11.5q-73 0 -122.5 -46.5t-64.5 -135.5q-15 -91 21.5 -141.5t112.5 -50.5q33 0 70.5 12.5t69.5 41.5l29 -64q-31 -30 -81.5 -47t-100.5 -17zM227 -193
q-26 0 -50 5.5t-40 14.5l18 47q18 -9 34.5 -13t38.5 -4q27 0 44 9.5t17 28.5q0 11 -9 17.5t-26 6.5q-10 0 -20.5 -1.5t-26.5 -5.5l-15 16l29 92h55l-25 -76l-26 8q13 3 24.5 5t21.5 2q35 0 56.5 -16t21.5 -47q0 -40 -34.5 -64.5t-87.5 -24.5z" />
    <glyph glyph-name="egrave" unicode="&#xe8;" horiz-adv-x="545" 
d="M276 -9q-85 0 -140 34t-77.5 96.5t-9.5 146.5q12 77 48 131.5t92 83.5t127 29q70 0 115.5 -30.5t65 -84.5t8.5 -125l-5 -30h-384l8 54h323l-18 -14q12 79 -18 121.5t-100 42.5q-50 0 -86.5 -22.5t-58.5 -61t-28 -88.5l-4 -25q-12 -89 26 -137.5t126 -48.5q42 0 83 13
t77 43l30 -63q-40 -31 -92 -48t-108 -17zM301 552l-141 202h93l112 -202h-64z" />
    <glyph glyph-name="eacute" unicode="&#xe9;" horiz-adv-x="545" 
d="M276 -9q-85 0 -140 34t-77.5 96.5t-9.5 146.5q12 77 48 131.5t92 83.5t127 29q70 0 115.5 -30.5t65 -84.5t8.5 -125l-5 -30h-384l8 54h323l-18 -14q12 79 -18 121.5t-100 42.5q-50 0 -86.5 -22.5t-58.5 -61t-28 -88.5l-4 -25q-12 -89 26 -137.5t126 -48.5q42 0 83 13
t77 43l30 -63q-40 -31 -92 -48t-108 -17zM302 552l134 202h97l-166 -202h-65z" />
    <glyph glyph-name="ecircumflex" unicode="&#xea;" horiz-adv-x="545" 
d="M276 -9q-85 0 -140 34t-77.5 96.5t-9.5 146.5q12 77 48 131.5t92 83.5t127 29q70 0 115.5 -30.5t65 -84.5t8.5 -125l-5 -30h-384l8 54h323l-18 -14q12 79 -18 121.5t-100 42.5q-50 0 -86.5 -22.5t-58.5 -61t-28 -88.5l-4 -25q-12 -89 26 -137.5t126 -48.5q42 0 83 13
t77 43l30 -63q-40 -31 -92 -48t-108 -17zM179 552l132 202h84l88 -202h-60l-74 144l-108 -144h-62z" />
    <glyph glyph-name="edieresis" unicode="&#xeb;" horiz-adv-x="545" 
d="M276 -9q-85 0 -140 34t-77.5 96.5t-9.5 146.5q12 77 48 131.5t92 83.5t127 29q70 0 115.5 -30.5t65 -84.5t8.5 -125l-5 -30h-384l8 54h323l-18 -14q12 79 -18 121.5t-100 42.5q-50 0 -86.5 -22.5t-58.5 -61t-28 -88.5l-4 -25q-12 -89 26 -137.5t126 -48.5q42 0 83 13
t77 43l30 -63q-40 -31 -92 -48t-108 -17zM387 606l13 93h93l-14 -93h-92zM209 606l14 93h93l-14 -93h-93z" />
    <glyph glyph-name="igrave" unicode="&#xec;" horiz-adv-x="243" 
d="M36 0l80 503h91l-80 -503h-91zM136 552l-141 202h93l112 -202h-64z" />
    <glyph glyph-name="iacute" unicode="&#xed;" horiz-adv-x="243" 
d="M36 0l80 503h91l-80 -503h-91zM137 552l134 202h97l-166 -202h-65z" />
    <glyph glyph-name="icircumflex" unicode="&#xee;" horiz-adv-x="243" 
d="M36 0l80 503h91l-80 -503h-91zM14 552l132 202h84l88 -202h-60l-74 144l-108 -144h-62z" />
    <glyph glyph-name="idieresis" unicode="&#xef;" horiz-adv-x="243" 
d="M36 0l80 503h91l-80 -503h-91zM222 606l13 93h93l-14 -93h-92zM44 606l14 93h93l-14 -93h-93z" />
    <glyph glyph-name="eth" unicode="&#xf0;" horiz-adv-x="581" 
d="M255 -9q-74 0 -126 30.5t-74.5 86t-10.5 130.5q11 67 46.5 116.5t90 76.5t123.5 27q73 0 121.5 -37t55.5 -113h-24q14 85 -8 162t-80 131h24l-211 -85l-19 45l181 72l-1 -13q-27 22 -60.5 37.5t-70.5 25.5l25 60q60 -12 107 -34.5t83 -52.5l-22 3l126 50l20 -44l-105 -43
l2 15q42 -46 66 -104.5t30 -124.5t-6 -137q-21 -136 -94.5 -208t-188.5 -72zM260 64q69 0 116 43t59 116q12 77 -21.5 119.5t-104.5 42.5q-69 0 -115.5 -41t-59.5 -118q-12 -77 22.5 -119.5t103.5 -42.5z" />
    <glyph glyph-name="ntilde" unicode="&#xf1;" horiz-adv-x="589" 
d="M36 0l61 384q5 29 7.5 59t3.5 60h88l-8 -108l-13 -1q30 58 82 88t119 30q92 0 128 -53t20 -154l-48 -305h-91l48 304q12 72 -11.5 103t-81.5 31q-67 0 -111.5 -41t-55.5 -109l-46 -288h-91zM214 589l-50 3q10 65 41 101t78 36q26 0 44.5 -13t33.5 -28q14 -13 28 -23
t31 -10q51 0 69 77l49 -3q-10 -66 -41 -101.5t-76 -35.5q-27 0 -46 13t-34 28q-14 12 -28 22t-31 10q-50 0 -68 -76z" />
    <glyph glyph-name="ograve" unicode="&#xf2;" horiz-adv-x="576" 
d="M255 -9q-76 0 -127.5 32t-72 93.5t-7.5 148.5q13 80 51 135.5t94.5 83.5t126.5 28q78 0 129 -32t72 -93.5t7 -147.5q-13 -81 -51 -136t-95 -83.5t-127 -28.5zM261 63q67 0 114.5 47.5t62.5 138.5q15 95 -19.5 142.5t-104.5 47.5q-67 0 -113.5 -47t-61.5 -137
q-15 -96 18 -144t104 -48zM303 552l-141 202h93l112 -202h-64z" />
    <glyph glyph-name="oacute" unicode="&#xf3;" horiz-adv-x="576" 
d="M255 -9q-76 0 -127.5 32t-72 93.5t-7.5 148.5q13 80 51 135.5t94.5 83.5t126.5 28q78 0 129 -32t72 -93.5t7 -147.5q-13 -81 -51 -136t-95 -83.5t-127 -28.5zM261 63q67 0 114.5 47.5t62.5 138.5q15 95 -19.5 142.5t-104.5 47.5q-67 0 -113.5 -47t-61.5 -137
q-15 -96 18 -144t104 -48zM304 552l134 202h97l-166 -202h-65z" />
    <glyph glyph-name="ocircumflex" unicode="&#xf4;" horiz-adv-x="576" 
d="M255 -9q-76 0 -127.5 32t-72 93.5t-7.5 148.5q13 80 51 135.5t94.5 83.5t126.5 28q78 0 129 -32t72 -93.5t7 -147.5q-13 -81 -51 -136t-95 -83.5t-127 -28.5zM261 63q67 0 114.5 47.5t62.5 138.5q15 95 -19.5 142.5t-104.5 47.5q-67 0 -113.5 -47t-61.5 -137
q-15 -96 18 -144t104 -48zM181 552l132 202h84l88 -202h-60l-74 144l-108 -144h-62z" />
    <glyph glyph-name="otilde" unicode="&#xf5;" horiz-adv-x="576" 
d="M255 -9q-76 0 -127.5 32t-72 93.5t-7.5 148.5q13 80 51 135.5t94.5 83.5t126.5 28q78 0 129 -32t72 -93.5t7 -147.5q-13 -81 -51 -136t-95 -83.5t-127 -28.5zM261 63q67 0 114.5 47.5t62.5 138.5q15 95 -19.5 142.5t-104.5 47.5q-67 0 -113.5 -47t-61.5 -137
q-15 -96 18 -144t104 -48zM208 589l-50 3q10 65 41 101t78 36q26 0 44.5 -13t33.5 -28q14 -13 28 -23t31 -10q51 0 69 77l49 -3q-10 -66 -41 -101.5t-76 -35.5q-27 0 -46 13t-34 28q-14 12 -28 22t-31 10q-50 0 -68 -76z" />
    <glyph glyph-name="odieresis" unicode="&#xf6;" horiz-adv-x="576" 
d="M255 -9q-76 0 -127.5 32t-72 93.5t-7.5 148.5q13 80 51 135.5t94.5 83.5t126.5 28q78 0 129 -32t72 -93.5t7 -147.5q-13 -81 -51 -136t-95 -83.5t-127 -28.5zM261 63q67 0 114.5 47.5t62.5 138.5q15 95 -19.5 142.5t-104.5 47.5q-67 0 -113.5 -47t-61.5 -137
q-15 -96 18 -144t104 -48zM389 606l13 93h93l-14 -93h-92zM211 606l14 93h93l-14 -93h-93z" />
    <glyph glyph-name="divide" unicode="&#xf7;" horiz-adv-x="600" 
d="M53 253l11 68h493l-11 -68h-493zM216 43l15 90h90l-15 -90h-90zM279 440l14 90h90l-14 -90h-90z" />
    <glyph glyph-name="oslash" unicode="&#xf8;" horiz-adv-x="576" 
d="M255 -9q-76 0 -127.5 32t-72 93.5t-7.5 148.5q13 80 51 135.5t94.5 83.5t126.5 28q78 0 129 -32t72 -93.5t7 -147.5q-13 -81 -51 -136t-95 -83.5t-127 -28.5zM261 63q71 0 119.5 47.5t63.5 138.5q15 93 -21 141.5t-109 48.5q-70 0 -118.5 -47t-62.5 -138
q-15 -92 18.5 -141.5t109.5 -49.5zM115 -35l-46 33l396 538l44 -32z" />
    <glyph glyph-name="ugrave" unicode="&#xf9;" horiz-adv-x="582" 
d="M222 -9q-89 0 -131.5 50.5t-26.5 155.5l49 306h91l-48 -302q-11 -72 12 -104t81 -32q65 0 107 42t53 111l45 285h91l-80 -503h-88l17 111h15q-29 -57 -77.5 -88.5t-109.5 -31.5zM305 553l-141 202h93l112 -202h-64z" />
    <glyph glyph-name="uacute" unicode="&#xfa;" horiz-adv-x="582" 
d="M222 -9q-89 0 -131.5 50.5t-26.5 155.5l49 306h91l-48 -302q-11 -72 12 -104t81 -32q65 0 107 42t53 111l45 285h91l-80 -503h-88l17 111h15q-29 -57 -77.5 -88.5t-109.5 -31.5zM306 553l134 202h97l-166 -202h-65z" />
    <glyph glyph-name="ucircumflex" unicode="&#xfb;" horiz-adv-x="582" 
d="M222 -9q-89 0 -131.5 50.5t-26.5 155.5l49 306h91l-48 -302q-11 -72 12 -104t81 -32q65 0 107 42t53 111l45 285h91l-80 -503h-88l17 111h15q-29 -57 -77.5 -88.5t-109.5 -31.5zM183 553l132 202h84l88 -202h-60l-74 144l-108 -144h-62z" />
    <glyph glyph-name="udieresis" unicode="&#xfc;" horiz-adv-x="582" 
d="M222 -9q-89 0 -131.5 50.5t-26.5 155.5l49 306h91l-48 -302q-11 -72 12 -104t81 -32q65 0 107 42t53 111l45 285h91l-80 -503h-88l17 111h15q-29 -57 -77.5 -88.5t-109.5 -31.5zM391 607l13 93h93l-14 -93h-92zM213 607l14 93h93l-14 -93h-93z" />
    <glyph glyph-name="yacute" unicode="&#xfd;" horiz-adv-x="534" 
d="M-16 -227l-15 74q49 11 82.5 25.5t58.5 37.5t46 58l35 60l-5 -38l-138 513h95l108 -431h-27l243 431h98l-317 -542q-29 -49 -59 -82t-61.5 -54t-66.5 -33t-77 -19zM281 552l134 202h97l-166 -202h-65z" />
    <glyph glyph-name="thorn" unicode="&#xfe;" horiz-adv-x="605" 
d="M2 -216l151 952h91l-55 -348l-16 -1q27 58 76.5 91.5t119.5 33.5t117 -32.5t66.5 -94t5.5 -146.5q-20 -121 -90 -184.5t-168 -63.5q-66 0 -110.5 33.5t-54.5 90.5h11l-53 -331h-91zM290 63q68 0 115 47.5t62 138.5q15 95 -18.5 142.5t-105.5 47.5q-66 0 -114.5 -47
t-63.5 -137q-14 -96 20.5 -144t104.5 -48z" />
    <glyph glyph-name="ydieresis" unicode="&#xff;" horiz-adv-x="534" 
d="M-16 -227l-15 74q49 11 82.5 25.5t58.5 37.5t46 58l35 60l-5 -38l-138 513h95l108 -431h-27l243 431h98l-317 -542q-29 -49 -59 -82t-61.5 -54t-66.5 -33t-77 -19zM366 606l13 93h93l-14 -93h-92zM188 606l14 93h93l-14 -93h-93z" />
    <glyph glyph-name="Amacron" unicode="&#x100;" horiz-adv-x="738" 
d="M-26 0l424 705h81l205 -705h-92l-56 200l37 -24h-429l47 24l-118 -200h-99zM425 601l-215 -370l-21 21h363l-22 -21l-102 370h-3zM291 813l9 59h331l-9 -59h-331z" />
    <glyph glyph-name="amacron" unicode="&#x101;" horiz-adv-x="605" 
d="M236 -9q-69 0 -116 32.5t-66 94t-6 147.5q20 121 90 184t168 63q66 0 110.5 -33t53.5 -91l-11 -1l30 116h87q-7 -30 -14.5 -60t-12.5 -59l-60 -384h-91l19 117h15q-26 -59 -76 -92.5t-120 -33.5zM262 63q67 0 115 47.5t63 138.5q15 95 -19.5 142.5t-105.5 47.5
q-67 0 -114 -47t-62 -137q-15 -96 18.5 -144t104.5 -48zM206 623l9 59h301l-9 -59h-301z" />
    <glyph glyph-name="Abreve" unicode="&#x102;" horiz-adv-x="738" 
d="M-26 0l424 705h81l205 -705h-92l-56 200l37 -24h-429l47 24l-118 -200h-99zM425 601l-215 -370l-21 21h363l-22 -21l-102 370h-3zM452 760q-48 0 -84 21t-55.5 59t-19.5 89l56 7q-2 -55 27.5 -86t79.5 -31t83.5 31t43.5 86l54 -7q-12 -78 -62.5 -123.5t-122.5 -45.5z" />
    <glyph glyph-name="abreve" unicode="&#x103;" horiz-adv-x="605" 
d="M236 -9q-69 0 -116 32.5t-66 94t-6 147.5q20 121 90 184t168 63q66 0 110.5 -33t53.5 -91l-11 -1l30 116h87q-7 -30 -14.5 -60t-12.5 -59l-60 -384h-91l19 117h15q-26 -59 -76 -92.5t-120 -33.5zM262 63q67 0 115 47.5t63 138.5q15 95 -19.5 142.5t-105.5 47.5
q-67 0 -114 -47t-62 -137q-15 -96 18.5 -144t104.5 -48zM353 549q-46 0 -79 23.5t-50 66t-14 101.5l56 6q-3 -66 21 -101.5t69 -35.5t74.5 35.5t38.5 101.5l55 -6q-7 -59 -30 -101.5t-59 -66t-82 -23.5z" />
    <glyph glyph-name="Aogonek" unicode="&#x104;" horiz-adv-x="738" 
d="M-26 0l424 705h81l205 -705h-92l-56 200l37 -24h-429l47 24l-118 -200h-99zM425 601l-215 -370l-21 21h363l-22 -21l-102 370h-3zM625 -193q-48 0 -74 25t-26 66q0 47 31 83.5t78 55.5l26 -37q-37 -15 -54.5 -39t-17.5 -49q0 -23 14 -37t39 -14q13 0 26 3t28 9l10 -50
q-18 -7 -38 -11.5t-42 -4.5z" />
    <glyph glyph-name="aogonek" unicode="&#x105;" horiz-adv-x="605" 
d="M236 -9q-69 0 -116 32.5t-66 94t-6 147.5q20 121 90 184t168 63q66 0 110.5 -33t53.5 -91l-11 -1l30 116h87q-7 -30 -14.5 -60t-12.5 -59l-60 -384h-91l19 117h15q-26 -59 -76 -92.5t-120 -33.5zM262 63q67 0 115 47.5t63 138.5q15 95 -19.5 142.5t-105.5 47.5
q-67 0 -114 -47t-62 -137q-15 -96 18.5 -144t104.5 -48zM441 -193q-48 0 -74 25t-26 66q0 47 31 83.5t78 55.5l26 -37q-37 -15 -54.5 -39t-17.5 -49q0 -23 14 -37t39 -14q13 0 26 3t28 9l10 -50q-18 -7 -38 -11.5t-42 -4.5z" />
    <glyph glyph-name="Cacute" unicode="&#x106;" horiz-adv-x="685" 
d="M375 -9q-117 0 -188.5 47.5t-98.5 132t-10 195.5q18 111 69 189t131 119t183 40q72 0 127 -20.5t94 -59.5l-36 -75q-43 39 -86.5 55t-103.5 16q-114 0 -187 -71t-94 -202q-13 -85 4.5 -148.5t68.5 -98.5t136 -35q54 0 106.5 18.5t99.5 59.5l31 -73q-47 -43 -112.5 -66
t-133.5 -23zM441 765l131 172h102l-165 -172h-68z" />
    <glyph glyph-name="cacute" unicode="&#x107;" horiz-adv-x="497" 
d="M261 -9q-77 0 -129.5 33t-74.5 94.5t-9 146.5q20 121 94 184t182 63q47 0 90 -15t70 -44l-34 -62q-26 25 -59 36.5t-64 11.5q-73 0 -122.5 -46.5t-64.5 -135.5q-15 -91 21.5 -141.5t112.5 -50.5q33 0 70.5 12.5t69.5 41.5l29 -64q-31 -30 -81.5 -47t-100.5 -17zM303 552
l134 202h97l-166 -202h-65z" />
    <glyph glyph-name="Ccircumflex" unicode="&#x108;" horiz-adv-x="685" 
d="M375 -9q-117 0 -188.5 47.5t-98.5 132t-10 195.5q18 111 69 189t131 119t183 40q72 0 127 -20.5t94 -59.5l-36 -75q-43 39 -86.5 55t-103.5 16q-114 0 -187 -71t-94 -202q-13 -85 4.5 -148.5t68.5 -98.5t136 -35q54 0 106.5 18.5t99.5 59.5l31 -73q-47 -43 -112.5 -66
t-133.5 -23zM303 765l140 172h83l105 -172h-66l-84 115l-112 -115h-66z" />
    <glyph glyph-name="ccircumflex" unicode="&#x109;" horiz-adv-x="497" 
d="M261 -9q-77 0 -129.5 33t-74.5 94.5t-9 146.5q20 121 94 184t182 63q47 0 90 -15t70 -44l-34 -62q-26 25 -59 36.5t-64 11.5q-73 0 -122.5 -46.5t-64.5 -135.5q-15 -91 21.5 -141.5t112.5 -50.5q33 0 70.5 12.5t69.5 41.5l29 -64q-31 -30 -81.5 -47t-100.5 -17zM180 552
l132 202h84l88 -202h-60l-74 144l-108 -144h-62z" />
    <glyph glyph-name="Cdotaccent" unicode="&#x10a;" horiz-adv-x="685" 
d="M375 -9q-117 0 -188.5 47.5t-98.5 132t-10 195.5q18 111 69 189t131 119t183 40q72 0 127 -20.5t94 -59.5l-36 -75q-43 39 -86.5 55t-103.5 16q-114 0 -187 -71t-94 -202q-13 -85 4.5 -148.5t68.5 -98.5t136 -35q54 0 106.5 18.5t99.5 59.5l31 -73q-47 -43 -112.5 -66
t-133.5 -23zM432 804l14 94h97l-15 -94h-96z" />
    <glyph glyph-name="cdotaccent" unicode="&#x10b;" horiz-adv-x="497" 
d="M261 -9q-77 0 -129.5 33t-74.5 94.5t-9 146.5q20 121 94 184t182 63q47 0 90 -15t70 -44l-34 -62q-26 25 -59 36.5t-64 11.5q-73 0 -122.5 -46.5t-64.5 -135.5q-15 -91 21.5 -141.5t112.5 -50.5q33 0 70.5 12.5t69.5 41.5l29 -64q-31 -30 -81.5 -47t-100.5 -17zM295 606
l15 94h98l-15 -94h-98z" />
    <glyph glyph-name="Ccaron" unicode="&#x10c;" horiz-adv-x="685" 
d="M375 -9q-117 0 -188.5 47.5t-98.5 132t-10 195.5q18 111 69 189t131 119t183 40q72 0 127 -20.5t94 -59.5l-36 -75q-43 39 -86.5 55t-103.5 16q-114 0 -187 -71t-94 -202q-13 -85 4.5 -148.5t68.5 -98.5t136 -35q54 0 106.5 18.5t99.5 59.5l31 -73q-47 -43 -112.5 -66
t-133.5 -23zM433 765l-105 172h64l85 -115l111 115h69l-141 -172h-83z" />
    <glyph glyph-name="ccaron" unicode="&#x10d;" horiz-adv-x="497" 
d="M261 -9q-77 0 -129.5 33t-74.5 94.5t-9 146.5q20 121 94 184t182 63q47 0 90 -15t70 -44l-34 -62q-26 25 -59 36.5t-64 11.5q-73 0 -122.5 -46.5t-64.5 -135.5q-15 -91 21.5 -141.5t112.5 -50.5q33 0 70.5 12.5t69.5 41.5l29 -64q-31 -30 -81.5 -47t-100.5 -17zM293 552
l-88 202h60l74 -144l108 144h61l-131 -202h-84z" />
    <glyph glyph-name="Dcaron" unicode="&#x10e;" horiz-adv-x="750" 
d="M46 0l112 705h229q125 0 201 -43.5t105 -125.5t11 -196q-28 -171 -134.5 -255.5t-281.5 -84.5h-242zM152 79h139q140 0 219 66.5t101 203.5q22 141 -36.5 209t-198.5 68h-138zM421 765l-105 172h64l85 -115l111 115h69l-141 -172h-83z" />
    <glyph glyph-name="dcaron" unicode="&#x10f;" horiz-adv-x="605" 
d="M236 -9q-69 0 -116 32.5t-66 94t-6 147.5q20 121 90 184t168 63q66 0 110.5 -33t53.5 -91h-10l55 348h91l-117 -736h-90l18 117h15q-26 -59 -76 -92.5t-120 -33.5zM262 63q67 0 115 47.5t63 138.5q15 95 -19.5 142.5t-105.5 47.5q-67 0 -114 -47t-62 -137
q-15 -96 18.5 -144t104.5 -48zM622 546l31 190h70l-55 -190h-46z" />
    <glyph glyph-name="Dcroat" unicode="&#x110;" horiz-adv-x="750" 
d="M46 0l112 705h229q125 0 201 -43.5t105 -125.5t11 -196q-28 -171 -134.5 -255.5t-281.5 -84.5h-242zM152 79h139q140 0 219 66.5t101 203.5q22 141 -36.5 209t-198.5 68h-138zM11 322l11 71h376l-11 -71h-376z" />
    <glyph glyph-name="dcroat" unicode="&#x111;" horiz-adv-x="605" 
d="M236 -9q-69 0 -116 32t-66 92.5t-6 143.5q20 120 90 182t168 62q66 0 110.5 -33t53.5 -90l-10 8l30 191h-194l10 67h195l14 90h91l-14 -90h92l-10 -67h-94l-91 -579h-90l18 117l15 -2q-26 -57 -76 -90.5t-120 -33.5zM262 63q67 0 115 46.5t63 134.5q15 93 -19.5 139.5
t-105.5 46.5q-67 0 -114 -46t-62 -135q-15 -91 18.5 -138.5t104.5 -47.5z" />
    <glyph glyph-name="Emacron" unicode="&#x112;" horiz-adv-x="590" 
d="M46 0l112 705h456l-13 -76h-366l-36 -233h343l-12 -76h-343l-39 -244h365l-11 -76h-456zM252 813l9 59h331l-9 -59h-331z" />
    <glyph glyph-name="emacron" unicode="&#x113;" horiz-adv-x="545" 
d="M276 -9q-85 0 -140 34t-77.5 96.5t-9.5 146.5q12 77 48 131.5t92 83.5t127 29q70 0 115.5 -30.5t65 -84.5t8.5 -125l-5 -30h-384l8 54h323l-18 -14q12 79 -18 121.5t-100 42.5q-50 0 -86.5 -22.5t-58.5 -61t-28 -88.5l-4 -25q-12 -89 26 -137.5t126 -48.5q42 0 83 13
t77 43l30 -63q-40 -31 -92 -48t-108 -17zM196 623l9 59h301l-9 -59h-301z" />
    <glyph glyph-name="Ebreve" unicode="&#x114;" horiz-adv-x="590" 
d="M46 0l112 705h456l-13 -76h-366l-36 -233h343l-12 -76h-343l-39 -244h365l-11 -76h-456zM414 760q-48 0 -84 21t-55.5 59t-19.5 89l56 7q-2 -55 27.5 -86t79.5 -31t83.5 31t43.5 86l54 -7q-12 -78 -62.5 -123.5t-122.5 -45.5z" />
    <glyph glyph-name="ebreve" unicode="&#x115;" horiz-adv-x="545" 
d="M276 -9q-85 0 -140 34t-77.5 96.5t-9.5 146.5q12 77 48 131.5t92 83.5t127 29q70 0 115.5 -30.5t65 -84.5t8.5 -125l-5 -30h-384l8 54h323l-18 -14q12 79 -18 121.5t-100 42.5q-50 0 -86.5 -22.5t-58.5 -61t-28 -88.5l-4 -25q-12 -89 26 -137.5t126 -48.5q42 0 83 13
t77 43l30 -63q-40 -31 -92 -48t-108 -17zM343 549q-46 0 -79 23.5t-50 66t-14 101.5l56 6q-3 -66 21 -101.5t69 -35.5t74.5 35.5t38.5 101.5l55 -6q-7 -59 -30 -101.5t-59 -66t-82 -23.5z" />
    <glyph glyph-name="Edotaccent" unicode="&#x116;" horiz-adv-x="590" 
d="M46 0l112 705h456l-13 -76h-366l-36 -233h343l-12 -76h-343l-39 -244h365l-11 -76h-456zM368 804l14 94h97l-15 -94h-96z" />
    <glyph glyph-name="edotaccent" unicode="&#x117;" horiz-adv-x="545" 
d="M276 -9q-85 0 -140 34t-77.5 96.5t-9.5 146.5q12 77 48 131.5t92 83.5t127 29q70 0 115.5 -30.5t65 -84.5t8.5 -125l-5 -30h-384l8 54h323l-18 -14q12 79 -18 121.5t-100 42.5q-50 0 -86.5 -22.5t-58.5 -61t-28 -88.5l-4 -25q-12 -89 26 -137.5t126 -48.5q42 0 83 13
t77 43l30 -63q-40 -31 -92 -48t-108 -17zM294 606l15 94h98l-15 -94h-98z" />
    <glyph glyph-name="Eogonek" unicode="&#x118;" horiz-adv-x="590" 
d="M46 0l112 705h456l-13 -76h-366l-36 -233h343l-12 -76h-343l-39 -244h365l-11 -76h-456zM431 -193q-48 0 -74 25t-26 66q0 47 31 83.5t78 55.5l26 -37q-37 -15 -54.5 -39t-17.5 -49q0 -23 14 -37t39 -14q13 0 26 3t28 9l10 -50q-18 -7 -38 -11.5t-42 -4.5z" />
    <glyph glyph-name="eogonek" unicode="&#x119;" horiz-adv-x="545" 
d="M276 -9q-85 0 -140 34t-77.5 96.5t-9.5 146.5q12 77 48 131.5t92 83.5t127 29q70 0 115.5 -30.5t65 -84.5t8.5 -125l-5 -30h-384l8 54h323l-18 -14q12 79 -18 121.5t-100 42.5q-50 0 -86.5 -22.5t-58.5 -61t-28 -88.5l-4 -25q-12 -89 26 -137.5t126 -48.5q42 0 83 13
t77 43l30 -63q-40 -31 -92 -48t-108 -17zM297 -193q-48 0 -74 25t-26 66q0 47 31 83.5t78 55.5l26 -37q-37 -15 -54.5 -39t-17.5 -49q0 -23 14 -37t39 -14q13 0 26 3t28 9l10 -50q-18 -7 -38 -11.5t-42 -4.5z" />
    <glyph glyph-name="Ecaron" unicode="&#x11a;" horiz-adv-x="590" 
d="M46 0l112 705h456l-13 -76h-366l-36 -233h343l-12 -76h-343l-39 -244h365l-11 -76h-456zM369 765l-105 172h64l85 -115l111 115h69l-141 -172h-83z" />
    <glyph glyph-name="ecaron" unicode="&#x11b;" horiz-adv-x="545" 
d="M276 -9q-85 0 -140 34t-77.5 96.5t-9.5 146.5q12 77 48 131.5t92 83.5t127 29q70 0 115.5 -30.5t65 -84.5t8.5 -125l-5 -30h-384l8 54h323l-18 -14q12 79 -18 121.5t-100 42.5q-50 0 -86.5 -22.5t-58.5 -61t-28 -88.5l-4 -25q-12 -89 26 -137.5t126 -48.5q42 0 83 13
t77 43l30 -63q-40 -31 -92 -48t-108 -17zM292 552l-88 202h60l74 -144l108 144h61l-131 -202h-84z" />
    <glyph glyph-name="Gcircumflex" unicode="&#x11c;" horiz-adv-x="733" 
d="M383 -9q-122 0 -196 46t-100.5 130t-8.5 198q18 112 71 189.5t136 118.5t190 41q77 0 131 -19.5t91 -54.5l-37 -75q-41 35 -82.5 50.5t-106.5 15.5q-123 0 -199 -72.5t-97 -204.5q-21 -133 30 -207t185 -74q51 0 96 9t90 27l-30 -48l37 239h-176l12 72h256l-52 -327
q-31 -17 -71.5 -29t-84.5 -18.5t-84 -6.5zM312 765l140 172h83l105 -172h-66l-84 115l-112 -115h-66z" />
    <glyph glyph-name="gcircumflex" unicode="&#x11d;" horiz-adv-x="608" 
d="M229 -224q-64 0 -117 16t-92 49l30 68q28 -21 55.5 -34.5t59 -19.5t67.5 -6q74 0 116.5 38t53.5 108l22 141h12q-24 -57 -76 -90.5t-119 -33.5q-69 0 -116.5 32.5t-67.5 92t-7 138.5q19 115 88.5 176t169.5 61q67 0 112 -33t53 -91l-7 9l26 106h88q-8 -30 -15 -60
t-12 -59l-60 -378q-17 -112 -84 -171t-180 -59zM265 84q70 0 117.5 47t60.5 130q14 86 -20 132t-104 46t-117.5 -46t-61.5 -130q-14 -85 20.5 -132t104.5 -47zM199 552l132 202h84l88 -202h-60l-74 144l-108 -144h-62z" />
    <glyph glyph-name="Gbreve" unicode="&#x11e;" horiz-adv-x="733" 
d="M383 -9q-122 0 -196 46t-100.5 130t-8.5 198q18 112 71 189.5t136 118.5t190 41q77 0 131 -19.5t91 -54.5l-37 -75q-41 35 -82.5 50.5t-106.5 15.5q-123 0 -199 -72.5t-97 -204.5q-21 -133 30 -207t185 -74q51 0 96 9t90 27l-30 -48l37 239h-176l12 72h256l-52 -327
q-31 -17 -71.5 -29t-84.5 -18.5t-84 -6.5zM487 760q-48 0 -84 21t-55.5 59t-19.5 89l56 7q-2 -55 27.5 -86t79.5 -31t83.5 31t43.5 86l54 -7q-12 -78 -62.5 -123.5t-122.5 -45.5z" />
    <glyph glyph-name="gbreve" unicode="&#x11f;" horiz-adv-x="608" 
d="M229 -224q-64 0 -117 16t-92 49l30 68q28 -21 55.5 -34.5t59 -19.5t67.5 -6q74 0 116.5 38t53.5 108l22 141h12q-24 -57 -76 -90.5t-119 -33.5q-69 0 -116.5 32.5t-67.5 92t-7 138.5q19 115 88.5 176t169.5 61q67 0 112 -33t53 -91l-7 9l26 106h88q-8 -30 -15 -60
t-12 -59l-60 -378q-17 -112 -84 -171t-180 -59zM265 84q70 0 117.5 47t60.5 130q14 86 -20 132t-104 46t-117.5 -46t-61.5 -130q-14 -85 20.5 -132t104.5 -47zM364 549q-46 0 -79 23.5t-50 66t-14 101.5l56 6q-3 -66 21 -101.5t69 -35.5t74.5 35.5t38.5 101.5l55 -6
q-7 -59 -30 -101.5t-59 -66t-82 -23.5z" />
    <glyph glyph-name="Gdotaccent" unicode="&#x120;" horiz-adv-x="733" 
d="M383 -9q-122 0 -196 46t-100.5 130t-8.5 198q18 112 71 189.5t136 118.5t190 41q77 0 131 -19.5t91 -54.5l-37 -75q-41 35 -82.5 50.5t-106.5 15.5q-123 0 -199 -72.5t-97 -204.5q-21 -133 30 -207t185 -74q51 0 96 9t90 27l-30 -48l37 239h-176l12 72h256l-52 -327
q-31 -17 -71.5 -29t-84.5 -18.5t-84 -6.5zM442 804l14 94h97l-15 -94h-96z" />
    <glyph glyph-name="gdotaccent" unicode="&#x121;" horiz-adv-x="608" 
d="M229 -224q-64 0 -117 16t-92 49l30 68q28 -21 55.5 -34.5t59 -19.5t67.5 -6q74 0 116.5 38t53.5 108l22 141h12q-24 -57 -76 -90.5t-119 -33.5q-69 0 -116.5 32.5t-67.5 92t-7 138.5q19 115 88.5 176t169.5 61q67 0 112 -33t53 -91l-7 9l26 106h88q-8 -30 -15 -60
t-12 -59l-60 -378q-17 -112 -84 -171t-180 -59zM265 84q70 0 117.5 47t60.5 130q14 86 -20 132t-104 46t-117.5 -46t-61.5 -130q-14 -85 20.5 -132t104.5 -47zM314 606l15 94h98l-15 -94h-98z" />
    <glyph glyph-name="uni0122" unicode="&#x122;" horiz-adv-x="733" 
d="M383 -9q-122 0 -196 46t-100.5 130t-8.5 198q18 112 71 189.5t136 118.5t190 41q77 0 131 -19.5t91 -54.5l-37 -75q-41 35 -82.5 50.5t-106.5 15.5q-123 0 -199 -72.5t-97 -204.5q-21 -133 30 -207t185 -74q51 0 96 9t90 27l-30 -48l37 239h-176l12 72h256l-52 -327
q-31 -17 -71.5 -29t-84.5 -18.5t-84 -6.5zM333 -270l-31 30q27 21 35.5 40.5t12.5 46.5l20 -12h-74l14 87h106l-12 -70q-6 -40 -21.5 -69.5t-49.5 -52.5z" />
    <glyph glyph-name="uni0123" unicode="&#x123;" horiz-adv-x="608" 
d="M229 -224q-64 0 -117 16t-92 49l30 68q28 -21 55.5 -34.5t59 -19.5t67.5 -6q74 0 116.5 38t53.5 108l22 141h12q-24 -57 -76 -90.5t-119 -33.5q-69 0 -116.5 32.5t-67.5 92t-7 138.5q19 115 88.5 176t169.5 61q67 0 112 -33t53 -91l-7 9l26 106h88q-8 -30 -15 -60
t-12 -59l-60 -378q-17 -112 -84 -171t-180 -59zM265 84q70 0 117.5 47t60.5 130q14 86 -20 132t-104 46t-117.5 -46t-61.5 -130q-14 -85 20.5 -132t104.5 -47zM304 566l11 70q7 40 22.5 69.5t49.5 52.5l31 -30q-26 -21 -34.5 -40.5t-13.5 -45.5l-20 11h75l-15 -87h-106z" />
    <glyph glyph-name="Hcircumflex" unicode="&#x124;" horiz-adv-x="768" 
d="M46 0l112 705h93l-49 -308h410l49 308h94l-112 -705h-94l51 318h-410l-51 -318h-93zM295 765l140 172h83l105 -172h-66l-84 115l-112 -115h-66z" />
    <glyph glyph-name="hcircumflex" unicode="&#x125;" horiz-adv-x="589" 
d="M36 0l117 736h91l-54 -342h-15q30 58 82 88t119 30q92 0 128 -53t20 -154l-48 -305h-91l48 304q12 72 -11.5 103t-81.5 31q-67 0 -111.5 -41t-55.5 -109l-46 -288h-91zM211 774l140 172h83l105 -172h-66l-84 115l-112 -115h-66z" />
    <glyph glyph-name="Hbar" unicode="&#x126;" horiz-adv-x="799" 
d="M62 0l81 518h-91l11 71h92l19 116h93l-19 -116h409l19 116h93l-19 -116h92l-12 -71h-91l-82 -518h-93l49 311h-408l-50 -311h-93zM217 391h409l19 127h-408z" />
    <glyph glyph-name="hbar" unicode="&#x127;" horiz-adv-x="589" 
d="M36 0l92 579h-94l10 67h95l14 90h91l-14 -90h198l-10 -67h-199l-31 -192h-14q30 59 82.5 89t118.5 30q92 0 128.5 -53t20.5 -155l-48 -298h-91l48 297q11 73 -12.5 104t-81.5 31q-68 0 -112 -41t-55 -109l-45 -282h-91z" />
    <glyph glyph-name="Itilde" unicode="&#x128;" horiz-adv-x="264" 
d="M46 0l112 705h93l-112 -705h-93zM50 780l-50 3q11 66 45.5 101.5t84.5 35.5q30 0 55.5 -13t48.5 -28q20 -12 38 -22t37 -10q57 0 76 76l50 -3q-11 -65 -45 -101t-84 -36q-30 0 -55.5 13.5t-48.5 27.5q-20 13 -38.5 23t-37.5 10q-57 0 -76 -77z" />
    <glyph glyph-name="itilde" unicode="&#x129;" horiz-adv-x="243" 
d="M36 0l80 503h91l-80 -503h-91zM42 589l-50 3q10 65 41 101t78 36q26 0 44.5 -13t33.5 -28q14 -13 28 -23t31 -10q51 0 69 77l49 -3q-10 -66 -41 -101.5t-76 -35.5q-27 0 -46 13t-34 28q-14 12 -28 22t-31 10q-50 0 -68 -76z" />
    <glyph glyph-name="Imacron" unicode="&#x12a;" horiz-adv-x="264" 
d="M46 0l112 705h93l-112 -705h-93zM56 813l9 59h331l-9 -59h-331z" />
    <glyph glyph-name="imacron" unicode="&#x12b;" horiz-adv-x="243" 
d="M36 0l80 503h91l-80 -503h-91zM31 623l9 59h301l-9 -59h-301z" />
    <glyph glyph-name="Ibreve" unicode="&#x12c;" horiz-adv-x="264" 
d="M46 0l112 705h93l-112 -705h-93zM217 760q-48 0 -84 21t-55.5 59t-19.5 89l56 7q-2 -55 27.5 -86t79.5 -31t83.5 31t43.5 86l54 -7q-12 -78 -62.5 -123.5t-122.5 -45.5z" />
    <glyph glyph-name="ibreve" unicode="&#x12d;" horiz-adv-x="243" 
d="M36 0l80 503h91l-80 -503h-91zM178 549q-46 0 -79 23.5t-50 66t-14 101.5l56 6q-3 -66 21 -101.5t69 -35.5t74.5 35.5t38.5 101.5l55 -6q-7 -59 -30 -101.5t-59 -66t-82 -23.5z" />
    <glyph glyph-name="Iogonek" unicode="&#x12e;" horiz-adv-x="264" 
d="M46 0l112 705h93l-112 -705h-93zM87 -193q-48 0 -74 25t-26 66q0 47 31 83.5t78 55.5l26 -37q-37 -15 -54.5 -39t-17.5 -49q0 -23 14 -37t39 -14q13 0 26 3t28 9l10 -50q-18 -7 -38 -11.5t-42 -4.5z" />
    <glyph glyph-name="iogonek" unicode="&#x12f;" horiz-adv-x="243" 
d="M36 0l80 503h91l-80 -503h-91zM124 613l16 98h108l-16 -98h-108zM77 -193q-48 0 -74 25t-26 66q0 47 31 83.5t78 55.5l26 -37q-37 -15 -54.5 -39t-17.5 -49q0 -23 14 -37t39 -14q13 0 26 3t28 9l10 -50q-18 -7 -38 -11.5t-42 -4.5z" />
    <glyph glyph-name="Idotaccent" unicode="&#x130;" horiz-adv-x="264" 
d="M46 0l112 705h93l-112 -705h-93zM172 804l14 94h97l-15 -94h-96z" />
    <glyph glyph-name="dotlessi" unicode="&#x131;" horiz-adv-x="243" 
d="M36 0l80 503h91l-80 -503h-91z" />
    <glyph glyph-name="IJ" unicode="&#x132;" horiz-adv-x="601" 
d="M46 0l112 705h93l-112 -705h-93zM276 -187q-16 0 -37 2.5t-42 9.5l11 76q19 -7 35.5 -9t29.5 -2q46 0 73 28t37 89l110 698h94l-112 -704q-10 -63 -34.5 -105t-65 -62.5t-99.5 -20.5z" />
    <glyph glyph-name="Jcircumflex" unicode="&#x134;" horiz-adv-x="337" 
d="M12 -187q-16 0 -37 2.5t-42 9.5l11 76q19 -7 35.5 -9t29.5 -2q46 0 73 28t37 89l110 698h94l-112 -704q-10 -63 -34.5 -105t-65 -62.5t-99.5 -20.5zM115 765l140 172h83l105 -172h-66l-84 115l-112 -115h-66z" />
    <glyph glyph-name="jcircumflex" unicode="&#x135;" horiz-adv-x="243" 
d="M-61 -220q-15 0 -35 3t-34 9l12 75q11 -4 26.5 -7.5t28.5 -3.5q41 0 65.5 25.5t33.5 83.5l85 538h91l-86 -546q-14 -87 -60.5 -132t-126.5 -45zM19 552l132 202h84l88 -202h-60l-74 144l-108 -144h-62z" />
    <glyph glyph-name="uni0136" unicode="&#x136;" horiz-adv-x="641" 
d="M46 0l112 705h93l-51 -319h2l378 319h121l-436 -365l-3 45l354 -385h-116l-306 331h-2l-53 -331h-93zM245 -270l-31 30q27 21 35.5 40.5t12.5 46.5l20 -12h-74l14 87h106l-12 -70q-6 -40 -21.5 -69.5t-49.5 -52.5z" />
    <glyph glyph-name="uni0137" unicode="&#x137;" horiz-adv-x="523" 
d="M36 0l117 736h91l-72 -455h2l257 222h118l-308 -264v43l252 -282h-112l-215 234h-2l-37 -234h-91zM179 -270l-31 30q27 21 35.5 40.5t12.5 46.5l20 -12h-74l14 87h106l-12 -70q-6 -40 -21.5 -69.5t-49.5 -52.5z" />
    <glyph glyph-name="kgreenlandic" unicode="&#x138;" horiz-adv-x="523" 
d="M36 0l80 503h91l-35 -222h2l257 222h118l-308 -264v43l252 -282h-112l-215 234h-2l-37 -234h-91z" />
    <glyph glyph-name="Lacute" unicode="&#x139;" horiz-adv-x="549" 
d="M46 0l112 705h93l-99 -625h350l-12 -80h-444zM180 765l131 172h102l-165 -172h-68z" />
    <glyph glyph-name="lacute" unicode="&#x13a;" horiz-adv-x="243" 
d="M36 0l117 736h91l-117 -736h-91zM171 774l131 172h102l-165 -172h-68z" />
    <glyph glyph-name="uni013B" unicode="&#x13b;" horiz-adv-x="549" 
d="M46 0l112 705h93l-99 -625h350l-12 -80h-444zM227 -270l-31 30q27 21 35.5 40.5t12.5 46.5l20 -12h-74l14 87h106l-12 -70q-6 -40 -21.5 -69.5t-49.5 -52.5z" />
    <glyph glyph-name="uni013C" unicode="&#x13c;" horiz-adv-x="243" 
d="M36 0l117 736h91l-117 -736h-91zM40 -270l-31 30q27 21 35.5 40.5t12.5 46.5l20 -12h-74l14 87h106l-12 -70q-6 -40 -21.5 -69.5t-49.5 -52.5z" />
    <glyph glyph-name="Lcaron" unicode="&#x13d;" horiz-adv-x="549" 
d="M46 0l112 705h93l-99 -625h350l-12 -80h-444zM324 477l37 228h77l-58 -228h-56z" />
    <glyph glyph-name="lcaron" unicode="&#x13e;" horiz-adv-x="243" 
d="M36 0l117 736h91l-117 -736h-91zM259 546l31 190h70l-55 -190h-46z" />
    <glyph glyph-name="Ldot" unicode="&#x13f;" horiz-adv-x="549" 
d="M46 0l112 705h93l-99 -625h350l-12 -80h-444zM368 340l17 100h111l-16 -100h-112z" />
    <glyph glyph-name="ldot" unicode="&#x140;" horiz-adv-x="243" 
d="M36 0l117 736h91l-117 -736h-91zM227 305l17 100h111l-16 -100h-112z" />
    <glyph glyph-name="Lslash" unicode="&#x141;" horiz-adv-x="549" 
d="M46 0l112 705h93l-99 -625h350l-12 -80h-444zM17 266l-31 66l386 179l31 -66z" />
    <glyph glyph-name="lslash" unicode="&#x142;" horiz-adv-x="243" 
d="M36 0l117 736h91l-117 -736h-91zM11 260l-31 67l293 140l32 -67z" />
    <glyph glyph-name="Nacute" unicode="&#x143;" horiz-adv-x="748" 
d="M46 0l112 705h72l346 -588l-20 4l92 584h87l-112 -705h-71l-347 588l20 -4l-92 -584h-87zM424 765l131 172h102l-165 -172h-68z" />
    <glyph glyph-name="nacute" unicode="&#x144;" horiz-adv-x="589" 
d="M36 0l61 384q5 29 7.5 59t3.5 60h88l-8 -108l-13 -1q30 58 82 88t119 30q92 0 128 -53t20 -154l-48 -305h-91l48 304q12 72 -11.5 103t-81.5 31q-67 0 -111.5 -41t-55.5 -109l-46 -288h-91zM310 552l134 202h97l-166 -202h-65z" />
    <glyph glyph-name="uni0145" unicode="&#x145;" horiz-adv-x="748" 
d="M46 0l112 705h72l346 -588l-20 4l92 584h87l-112 -705h-71l-347 588l20 -4l-92 -584h-87zM294 -270l-31 30q27 21 35.5 40.5t12.5 46.5l20 -12h-74l14 87h106l-12 -70q-6 -40 -21.5 -69.5t-49.5 -52.5z" />
    <glyph glyph-name="uni0146" unicode="&#x146;" horiz-adv-x="589" 
d="M36 0l61 384q5 29 7.5 59t3.5 60h88l-8 -108l-13 -1q30 58 82 88t119 30q92 0 128 -53t20 -154l-48 -305h-91l48 304q12 72 -11.5 103t-81.5 31q-67 0 -111.5 -41t-55.5 -109l-46 -288h-91zM212 -270l-31 30q27 21 35.5 40.5t12.5 46.5l20 -12h-74l14 87h106l-12 -70
q-6 -40 -21.5 -69.5t-49.5 -52.5z" />
    <glyph glyph-name="Ncaron" unicode="&#x147;" horiz-adv-x="748" 
d="M46 0l112 705h72l346 -588l-20 4l92 584h87l-112 -705h-71l-347 588l20 -4l-92 -584h-87zM416 765l-105 172h64l85 -115l111 115h69l-141 -172h-83z" />
    <glyph glyph-name="ncaron" unicode="&#x148;" horiz-adv-x="589" 
d="M36 0l61 384q5 29 7.5 59t3.5 60h88l-8 -108l-13 -1q30 58 82 88t119 30q92 0 128 -53t20 -154l-48 -305h-91l48 304q12 72 -11.5 103t-81.5 31q-67 0 -111.5 -41t-55.5 -109l-46 -288h-91zM300 552l-88 202h60l74 -144l108 144h61l-131 -202h-84z" />
    <glyph glyph-name="napostrophe" unicode="&#x149;" horiz-adv-x="678" 
d="M175 570l-35 27q24 22 33 42t12 40l23 -11h-75l14 90h105l-11 -66q-5 -37 -19.5 -65.5t-46.5 -56.5zM124 0l61 384q5 29 7.5 59t3.5 60h88l-8 -108l-13 -1q30 58 82 88t119 30q92 0 128 -53t20 -154l-48 -305h-91l48 304q12 72 -11.5 103t-81.5 31q-67 0 -111.5 -41
t-55.5 -109l-46 -288h-91z" />
    <glyph glyph-name="Eng" unicode="&#x14a;" horiz-adv-x="748" 
d="M370 -193l5 69l47 4q48 4 76 30.5t37 76.5l8 54l9 -41l-347 588l20 -4l-92 -584h-87l112 705h72l346 -588l-20 4l92 584h87l-112 -711q-10 -59 -35.5 -98.5t-67.5 -60.5t-104 -25z" />
    <glyph glyph-name="eng" unicode="&#x14b;" horiz-adv-x="589" 
d="M36 0l61 384q5 29 7.5 59t3.5 60h88l-8 -108l-13 -1q30 58 82 88t119 30q92 0 128 -53t20 -154l-54 -344q-15 -87 -64 -134t-133 -47q-20 0 -37.5 3t-32.5 9l12 75q13 -4 25.5 -7.5t29.5 -3.5q46 0 73.5 27.5t36.5 85.5l53 335q12 72 -11.5 103t-81.5 31
q-67 0 -111.5 -41t-55.5 -109l-46 -288h-91z" />
    <glyph glyph-name="Omacron" unicode="&#x14c;" horiz-adv-x="776" 
d="M78 366q18 111 68 189t128 118.5t177 40.5q107 0 174.5 -47.5t94.5 -132t9 -194.5q-17 -111 -67.5 -189t-128 -119t-177.5 -41q-106 0 -174 47.5t-94.5 132t-9.5 195.5zM175 356q-14 -88 3.5 -151.5t64.5 -97.5t120 -34q112 0 180.5 73.5t88.5 203.5q15 88 -3 151t-65 97
t-121 34q-111 0 -178.5 -72.5t-89.5 -203.5zM311 813l9 59h331l-9 -59h-331z" />
    <glyph glyph-name="omacron" unicode="&#x14d;" horiz-adv-x="576" 
d="M255 -9q-76 0 -127.5 32t-72 93.5t-7.5 148.5q13 80 51 135.5t94.5 83.5t126.5 28q78 0 129 -32t72 -93.5t7 -147.5q-13 -81 -51 -136t-95 -83.5t-127 -28.5zM261 63q67 0 114.5 47.5t62.5 138.5q15 95 -19.5 142.5t-104.5 47.5q-67 0 -113.5 -47t-61.5 -137
q-15 -96 18 -144t104 -48zM198 623l9 59h301l-9 -59h-301z" />
    <glyph glyph-name="Obreve" unicode="&#x14e;" horiz-adv-x="776" 
d="M78 366q18 111 68 189t128 118.5t177 40.5q107 0 174.5 -47.5t94.5 -132t9 -194.5q-17 -111 -67.5 -189t-128 -119t-177.5 -41q-106 0 -174 47.5t-94.5 132t-9.5 195.5zM175 356q-14 -88 3.5 -151.5t64.5 -97.5t120 -34q112 0 180.5 73.5t88.5 203.5q15 88 -3 151t-65 97
t-121 34q-111 0 -178.5 -72.5t-89.5 -203.5zM472 760q-48 0 -84 21t-55.5 59t-19.5 89l56 7q-2 -55 27.5 -86t79.5 -31t83.5 31t43.5 86l54 -7q-12 -78 -62.5 -123.5t-122.5 -45.5z" />
    <glyph glyph-name="obreve" unicode="&#x14f;" horiz-adv-x="576" 
d="M255 -9q-76 0 -127.5 32t-72 93.5t-7.5 148.5q13 80 51 135.5t94.5 83.5t126.5 28q78 0 129 -32t72 -93.5t7 -147.5q-13 -81 -51 -136t-95 -83.5t-127 -28.5zM261 63q67 0 114.5 47.5t62.5 138.5q15 95 -19.5 142.5t-104.5 47.5q-67 0 -113.5 -47t-61.5 -137
q-15 -96 18 -144t104 -48zM345 549q-46 0 -79 23.5t-50 66t-14 101.5l56 6q-3 -66 21 -101.5t69 -35.5t74.5 35.5t38.5 101.5l55 -6q-7 -59 -30 -101.5t-59 -66t-82 -23.5z" />
    <glyph glyph-name="Ohungarumlaut" unicode="&#x150;" horiz-adv-x="776" 
d="M78 366q18 111 68 189t128 118.5t177 40.5q107 0 174.5 -47.5t94.5 -132t9 -194.5q-17 -111 -67.5 -189t-128 -119t-177.5 -41q-106 0 -174 47.5t-94.5 132t-9.5 195.5zM175 356q-14 -88 3.5 -151.5t64.5 -97.5t120 -34q112 0 180.5 73.5t88.5 203.5q15 88 -3 151t-65 97
t-121 34q-111 0 -178.5 -72.5t-89.5 -203.5zM377 765l100 172h88l-135 -172h-53zM508 765l106 172h87l-140 -172h-53z" />
    <glyph glyph-name="ohungarumlaut" unicode="&#x151;" horiz-adv-x="576" 
d="M255 -9q-76 0 -127.5 32t-72 93.5t-7.5 148.5q13 80 51 135.5t94.5 83.5t126.5 28q78 0 129 -32t72 -93.5t7 -147.5q-13 -81 -51 -136t-95 -83.5t-127 -28.5zM261 63q67 0 114.5 47.5t62.5 138.5q15 95 -19.5 142.5t-104.5 47.5q-67 0 -113.5 -47t-61.5 -137
q-15 -96 18 -144t104 -48zM376 552l72 202h81l-103 -202h-50zM244 552l71 202h82l-103 -202h-50z" />
    <glyph glyph-name="OE" unicode="&#x152;" horiz-adv-x="1056" 
d="M516 0l112 705h452l-13 -76h-361l-37 -233h340l-11 -76h-340l-40 -244h362l-12 -76h-452zM344 -9q-104 0 -169 47.5t-89.5 132.5t-7.5 195q18 111 67.5 189t125 118.5t171.5 40.5q62 0 112 -19.5t81 -58.5l-17 -103q-24 48 -68 73.5t-107 25.5q-111 0 -179 -72.5
t-89 -203.5q-14 -87 2.5 -150.5t62 -98t119.5 -34.5q65 0 115 24.5t86 70.5l-16 -104q-41 -36 -90 -54.5t-110 -18.5z" />
    <glyph glyph-name="oe" unicode="&#x153;" horiz-adv-x="933" 
d="M255 -9q-76 0 -127.5 32t-72.5 93.5t-7 148.5q13 80 51 135.5t94.5 83.5t126.5 28q80 0 128.5 -38.5t62.5 -110.5h-29q23 52 58 84.5t78 48.5t88 16q69 0 113.5 -30t63.5 -83t10 -123l-5 -34h-379l8 54h319l-20 -14q12 79 -17.5 121.5t-96.5 42.5q-48 0 -84 -22.5
t-58 -61t-28 -88.5l-4 -25q-12 -89 25.5 -137.5t123.5 -48.5q40 0 80 13t76 43l30 -63q-38 -31 -91 -48t-105 -17q-87 0 -140.5 38.5t-69.5 108.5l29 3q-34 -73 -92.5 -111.5t-138.5 -38.5zM261 63q67 0 114.5 47.5t62.5 138.5q15 95 -19.5 142.5t-104.5 47.5
q-67 0 -113.5 -47t-61.5 -137q-15 -96 18 -144t104 -48z" />
    <glyph glyph-name="Racute" unicode="&#x154;" horiz-adv-x="695" 
d="M46 0l112 705h283q119 0 173 -55.5t38 -155.5q-9 -59 -43.5 -101t-87.5 -64t-119 -22l6 14h22q41 0 69 -21t43 -66l73 -234h-98l-72 232q-12 43 -42 56t-78 13h-138l-48 -301h-93zM198 373h194q73 0 116 32.5t52 91.5q10 66 -24.5 99t-111.5 33h-186zM395 765l131 172
h102l-165 -172h-68z" />
    <glyph glyph-name="racute" unicode="&#x155;" horiz-adv-x="370" 
d="M35 0l60 380q5 30 8.5 61.5t4.5 61.5h88l-8 -126l-17 -1q17 46 46 76.5t65.5 45t75.5 14.5q13 0 25 -1t23 -4l-15 -81q-13 5 -26 6.5t-30 1.5q-44 0 -78 -19t-56 -51.5t-28 -73.5l-47 -290h-91zM241 552l134 202h97l-166 -202h-65z" />
    <glyph glyph-name="uni0156" unicode="&#x156;" horiz-adv-x="695" 
d="M46 0l112 705h283q119 0 173 -55.5t38 -155.5q-9 -59 -43.5 -101t-87.5 -64t-119 -22l6 14h22q41 0 69 -21t43 -66l73 -234h-98l-72 232q-12 43 -42 56t-78 13h-138l-48 -301h-93zM198 373h194q73 0 116 32.5t52 91.5q10 66 -24.5 99t-111.5 33h-186zM266 -270l-31 30
q27 21 35.5 40.5t12.5 46.5l20 -12h-74l14 87h106l-12 -70q-6 -40 -21.5 -69.5t-49.5 -52.5z" />
    <glyph glyph-name="uni0157" unicode="&#x157;" horiz-adv-x="370" 
d="M35 0l60 380q5 30 8.5 61.5t4.5 61.5h88l-8 -126l-17 -1q17 46 46 76.5t65.5 45t75.5 14.5q13 0 25 -1t23 -4l-15 -81q-13 5 -26 6.5t-30 1.5q-44 0 -78 -19t-56 -51.5t-28 -73.5l-47 -290h-91zM38 -270l-31 30q27 21 35.5 40.5t12.5 46.5l20 -12h-74l14 87h106l-12 -70
q-6 -40 -21.5 -69.5t-49.5 -52.5z" />
    <glyph glyph-name="Rcaron" unicode="&#x158;" horiz-adv-x="695" 
d="M46 0l112 705h283q119 0 173 -55.5t38 -155.5q-9 -59 -43.5 -101t-87.5 -64t-119 -22l6 14h22q41 0 69 -21t43 -66l73 -234h-98l-72 232q-12 43 -42 56t-78 13h-138l-48 -301h-93zM198 373h194q73 0 116 32.5t52 91.5q10 66 -24.5 99t-111.5 33h-186zM387 765l-105 172
h64l85 -115l111 115h69l-141 -172h-83z" />
    <glyph glyph-name="rcaron" unicode="&#x159;" horiz-adv-x="370" 
d="M35 0l60 380q5 30 8.5 61.5t4.5 61.5h88l-8 -126l-17 -1q17 46 46 76.5t65.5 45t75.5 14.5q13 0 25 -1t23 -4l-15 -81q-13 5 -26 6.5t-30 1.5q-44 0 -78 -19t-56 -51.5t-28 -73.5l-47 -290h-91zM232 552l-88 202h60l74 -144l108 144h61l-131 -202h-84z" />
    <glyph glyph-name="Sacute" unicode="&#x15a;" horiz-adv-x="628" 
d="M286 -9q-83 0 -149.5 20t-110.5 52l37 74q48 -30 102 -48t127 -18q86 0 132 31.5t53 81.5q8 47 -16.5 74.5t-92.5 37.5l-96 15q-97 14 -140 67t-30 135q9 60 47.5 105t100.5 70.5t144 25.5q72 0 131 -20t96 -53l-36 -73q-39 32 -88 49t-113 17q-80 0 -130 -33t-60 -90
q-8 -49 17 -79.5t93 -40.5l98 -14q98 -14 140 -63t29 -132q-9 -55 -46 -98.5t-97.5 -68t-141.5 -24.5zM372 765l131 172h102l-165 -172h-68z" />
    <glyph glyph-name="sacute" unicode="&#x15b;" horiz-adv-x="497" 
d="M214 -9q-58 0 -108.5 15t-80.5 41l31 63q34 -23 75.5 -37t87.5 -14q56 0 88.5 20.5t37.5 53.5q5 31 -11.5 50t-56.5 25l-74 13q-74 12 -103 51.5t-20 98.5q7 45 36 76t74 48t99 17q55 0 100.5 -14.5t71.5 -38.5l-33 -62q-26 22 -62.5 34.5t-76.5 12.5q-56 0 -87.5 -22
t-36.5 -55q-5 -30 9 -50.5t51 -26.5l77 -13q76 -13 106.5 -49.5t20.5 -94.5q-7 -44 -35.5 -76t-74.5 -49t-105 -17zM269 552l134 202h97l-166 -202h-65z" />
    <glyph glyph-name="Scircumflex" unicode="&#x15c;" horiz-adv-x="628" 
d="M286 -9q-83 0 -149.5 20t-110.5 52l37 74q48 -30 102 -48t127 -18q86 0 132 31.5t53 81.5q8 47 -16.5 74.5t-92.5 37.5l-96 15q-97 14 -140 67t-30 135q9 60 47.5 105t100.5 70.5t144 25.5q72 0 131 -20t96 -53l-36 -73q-39 32 -88 49t-113 17q-80 0 -130 -33t-60 -90
q-8 -49 17 -79.5t93 -40.5l98 -14q98 -14 140 -63t29 -132q-9 -55 -46 -98.5t-97.5 -68t-141.5 -24.5zM234 765l140 172h83l105 -172h-66l-84 115l-112 -115h-66z" />
    <glyph glyph-name="scircumflex" unicode="&#x15d;" horiz-adv-x="497" 
d="M214 -9q-58 0 -108.5 15t-80.5 41l31 63q34 -23 75.5 -37t87.5 -14q56 0 88.5 20.5t37.5 53.5q5 31 -11.5 50t-56.5 25l-74 13q-74 12 -103 51.5t-20 98.5q7 45 36 76t74 48t99 17q55 0 100.5 -14.5t71.5 -38.5l-33 -62q-26 22 -62.5 34.5t-76.5 12.5q-56 0 -87.5 -22
t-36.5 -55q-5 -30 9 -50.5t51 -26.5l77 -13q76 -13 106.5 -49.5t20.5 -94.5q-7 -44 -35.5 -76t-74.5 -49t-105 -17zM147 552l132 202h84l88 -202h-60l-74 144l-108 -144h-62z" />
    <glyph glyph-name="Scedilla" unicode="&#x15e;" horiz-adv-x="628" 
d="M286 -9q-83 0 -149.5 20t-110.5 52l37 74q48 -30 102 -48t127 -18q86 0 132 31.5t53 81.5q8 47 -16.5 74.5t-92.5 37.5l-96 15q-97 14 -140 67t-30 135q9 60 47.5 105t100.5 70.5t144 25.5q72 0 131 -20t96 -53l-36 -73q-39 32 -88 49t-113 17q-80 0 -130 -33t-60 -90
q-8 -49 17 -79.5t93 -40.5l98 -14q98 -14 140 -63t29 -132q-9 -55 -46 -98.5t-97.5 -68t-141.5 -24.5zM265 -193q-26 0 -50 5.5t-40 14.5l18 47q18 -9 34.5 -13t38.5 -4q27 0 44 9.5t17 28.5q0 11 -9 17.5t-26 6.5q-10 0 -20.5 -1.5t-26.5 -5.5l-15 16l29 92h55l-25 -76
l-26 8q13 3 24.5 5t21.5 2q35 0 56.5 -16t21.5 -47q0 -40 -34.5 -64.5t-87.5 -24.5z" />
    <glyph glyph-name="scedilla" unicode="&#x15f;" horiz-adv-x="497" 
d="M214 -9q-58 0 -108.5 15t-80.5 41l31 63q34 -23 75.5 -37t87.5 -14q56 0 88.5 20.5t37.5 53.5q5 31 -11.5 50t-56.5 25l-74 13q-74 12 -103 51.5t-20 98.5q7 45 36 76t74 48t99 17q55 0 100.5 -14.5t71.5 -38.5l-33 -62q-26 22 -62.5 34.5t-76.5 12.5q-56 0 -87.5 -22
t-36.5 -55q-5 -30 9 -50.5t51 -26.5l77 -13q76 -13 106.5 -49.5t20.5 -94.5q-7 -44 -35.5 -76t-74.5 -49t-105 -17zM186 -193q-26 0 -50 5.5t-40 14.5l18 47q18 -9 34.5 -13t38.5 -4q27 0 44 9.5t17 28.5q0 11 -9 17.5t-26 6.5q-10 0 -20.5 -1.5t-26.5 -5.5l-15 16l29 92h55
l-25 -76l-26 8q13 3 24.5 5t21.5 2q35 0 56.5 -16t21.5 -47q0 -40 -34.5 -64.5t-87.5 -24.5z" />
    <glyph glyph-name="Scaron" unicode="&#x160;" horiz-adv-x="628" 
d="M286 -9q-83 0 -149.5 20t-110.5 52l37 74q48 -30 102 -48t127 -18q86 0 132 31.5t53 81.5q8 47 -16.5 74.5t-92.5 37.5l-96 15q-97 14 -140 67t-30 135q9 60 47.5 105t100.5 70.5t144 25.5q72 0 131 -20t96 -53l-36 -73q-39 32 -88 49t-113 17q-80 0 -130 -33t-60 -90
q-8 -49 17 -79.5t93 -40.5l98 -14q98 -14 140 -63t29 -132q-9 -55 -46 -98.5t-97.5 -68t-141.5 -24.5zM363 765l-105 172h64l85 -115l111 115h69l-141 -172h-83z" />
    <glyph glyph-name="scaron" unicode="&#x161;" horiz-adv-x="497" 
d="M214 -9q-58 0 -108.5 15t-80.5 41l31 63q34 -23 75.5 -37t87.5 -14q56 0 88.5 20.5t37.5 53.5q5 31 -11.5 50t-56.5 25l-74 13q-74 12 -103 51.5t-20 98.5q7 45 36 76t74 48t99 17q55 0 100.5 -14.5t71.5 -38.5l-33 -62q-26 22 -62.5 34.5t-76.5 12.5q-56 0 -87.5 -22
t-36.5 -55q-5 -30 9 -50.5t51 -26.5l77 -13q76 -13 106.5 -49.5t20.5 -94.5q-7 -44 -35.5 -76t-74.5 -49t-105 -17zM260 552l-88 202h60l74 -144l108 144h61l-131 -202h-84z" />
    <glyph glyph-name="uni0162" unicode="&#x162;" horiz-adv-x="607" 
d="M215 0l100 626h-245l13 79h583l-13 -79h-245l-99 -626h-94zM243 -193q-26 0 -50 5.5t-40 14.5l18 47q18 -9 34.5 -13t38.5 -4q27 0 44 9.5t17 28.5q0 11 -9 17.5t-26 6.5q-10 0 -20.5 -1.5t-26.5 -5.5l-15 16l29 92h55l-25 -76l-26 8q13 3 24.5 5t21.5 2q35 0 56.5 -16
t21.5 -47q0 -40 -34.5 -64.5t-87.5 -24.5z" />
    <glyph glyph-name="uni0163" unicode="&#x163;" horiz-adv-x="356" 
d="M229 -9q-83 0 -117.5 44.5t-21.5 130.5l43 267h-98l11 70h98l22 135l95 25l-26 -160h142l-11 -70h-142l-41 -257q-8 -58 8 -83.5t56 -25.5q19 0 34 3.5t28 8.5l-12 -75q-16 -6 -32.5 -9.5t-35.5 -3.5zM167 -193q-26 0 -50 5.5t-40 14.5l18 47q18 -9 34.5 -13t38.5 -4
q27 0 44 9.5t17 28.5q0 11 -9 17.5t-26 6.5q-10 0 -20.5 -1.5t-26.5 -5.5l-15 16l29 92h55l-25 -76l-26 8q13 3 24.5 5t21.5 2q35 0 56.5 -16t21.5 -47q0 -40 -34.5 -64.5t-87.5 -24.5z" />
    <glyph glyph-name="Tcaron" unicode="&#x164;" horiz-adv-x="607" 
d="M215 0l100 626h-245l13 79h583l-13 -79h-245l-99 -626h-94zM344 765l-105 172h64l85 -115l111 115h69l-141 -172h-83z" />
    <glyph glyph-name="tcaron" unicode="&#x165;" horiz-adv-x="356" 
d="M229 -9q-83 0 -117.5 44.5t-21.5 130.5l43 267h-98l11 70h98l22 135l95 25l-26 -160h142l-11 -70h-142l-41 -257q-8 -58 8 -83.5t56 -25.5q19 0 34 3.5t28 8.5l-12 -75q-16 -6 -32.5 -9.5t-35.5 -3.5zM308 529l29 185h70l-55 -185h-44z" />
    <glyph glyph-name="Tbar" unicode="&#x166;" horiz-adv-x="607" 
d="M215 0l100 626h-245l13 79h583l-13 -79h-245l-99 -626h-94zM127 322l11 71h376l-11 -71h-376z" />
    <glyph glyph-name="tbar" unicode="&#x167;" horiz-adv-x="356" 
d="M229 -9q-83 0 -117.5 44.5t-21.5 130.5l43 267h-98l11 70h98l22 135l95 25l-26 -160h142l-11 -70h-142l-41 -257q-8 -58 8 -83.5t56 -25.5q19 0 34 3.5t28 8.5l-12 -75q-16 -6 -32.5 -9.5t-35.5 -3.5zM34 244l9 60h282l-10 -60h-281z" />
    <glyph glyph-name="Utilde" unicode="&#x168;" horiz-adv-x="733" 
d="M335 -9q-92 0 -153 32.5t-86 97.5t-10 163l67 421h94l-67 -422q-17 -105 20.5 -157.5t143.5 -52.5q93 0 148 49t73 162l67 421h92l-67 -427q-16 -99 -57 -162.5t-107 -94t-158 -30.5zM286 780l-50 3q11 66 45.5 101.5t84.5 35.5q30 0 55.5 -13t48.5 -28q20 -12 38 -22
t37 -10q57 0 76 76l50 -3q-11 -65 -45 -101t-84 -36q-30 0 -55.5 13.5t-48.5 27.5q-20 13 -38.5 23t-37.5 10q-57 0 -76 -77z" />
    <glyph glyph-name="utilde" unicode="&#x169;" horiz-adv-x="582" 
d="M222 -9q-89 0 -131.5 50.5t-26.5 155.5l49 306h91l-48 -302q-11 -72 12 -104t81 -32q65 0 107 42t53 111l45 285h91l-80 -503h-88l17 111h15q-29 -57 -77.5 -88.5t-109.5 -31.5zM211 590l-50 3q10 65 41 101t78 36q26 0 44.5 -13t33.5 -28q14 -13 28 -23t31 -10
q51 0 69 77l49 -3q-10 -66 -41 -101.5t-76 -35.5q-27 0 -46 13t-34 28q-14 12 -28 22t-31 10q-50 0 -68 -76z" />
    <glyph glyph-name="Umacron" unicode="&#x16a;" horiz-adv-x="733" 
d="M335 -9q-92 0 -153 32.5t-86 97.5t-10 163l67 421h94l-67 -422q-17 -105 20.5 -157.5t143.5 -52.5q93 0 148 49t73 162l67 421h92l-67 -427q-16 -99 -57 -162.5t-107 -94t-158 -30.5zM291 813l9 59h331l-9 -59h-331z" />
    <glyph glyph-name="umacron" unicode="&#x16b;" horiz-adv-x="582" 
d="M222 -9q-89 0 -131.5 50.5t-26.5 155.5l49 306h91l-48 -302q-11 -72 12 -104t81 -32q65 0 107 42t53 111l45 285h91l-80 -503h-88l17 111h15q-29 -57 -77.5 -88.5t-109.5 -31.5zM200 624l9 59h301l-9 -59h-301z" />
    <glyph glyph-name="Ubreve" unicode="&#x16c;" horiz-adv-x="733" 
d="M335 -9q-92 0 -153 32.5t-86 97.5t-10 163l67 421h94l-67 -422q-17 -105 20.5 -157.5t143.5 -52.5q93 0 148 49t73 162l67 421h92l-67 -427q-16 -99 -57 -162.5t-107 -94t-158 -30.5zM452 760q-48 0 -84 21t-55.5 59t-19.5 89l56 7q-2 -55 27.5 -86t79.5 -31t83.5 31
t43.5 86l54 -7q-12 -78 -62.5 -123.5t-122.5 -45.5z" />
    <glyph glyph-name="ubreve" unicode="&#x16d;" horiz-adv-x="582" 
d="M222 -9q-89 0 -131.5 50.5t-26.5 155.5l49 306h91l-48 -302q-11 -72 12 -104t81 -32q65 0 107 42t53 111l45 285h91l-80 -503h-88l17 111h15q-29 -57 -77.5 -88.5t-109.5 -31.5zM347 550q-46 0 -79 23.5t-50 66t-14 101.5l56 6q-3 -66 21 -101.5t69 -35.5t74.5 35.5
t38.5 101.5l55 -6q-7 -59 -30 -101.5t-59 -66t-82 -23.5z" />
    <glyph glyph-name="Uring" unicode="&#x16e;" horiz-adv-x="733" 
d="M335 -9q-92 0 -153 32.5t-86 97.5t-10 163l67 421h94l-67 -422q-17 -105 20.5 -157.5t143.5 -52.5q93 0 148 49t73 162l67 421h92l-67 -427q-16 -99 -57 -162.5t-107 -94t-158 -30.5zM465 757q-34 0 -61.5 16t-43.5 43t-16 59q0 33 16 59.5t43.5 42t60.5 15.5
q35 0 62 -15.5t43 -42t16 -59.5t-16 -59.5t-43 -42.5t-61 -16zM465 804q31 0 50.5 20.5t19.5 50.5t-19.5 50t-50.5 20t-51 -20.5t-20 -49.5q0 -30 20 -50.5t51 -20.5z" />
    <glyph glyph-name="uring" unicode="&#x16f;" horiz-adv-x="582" 
d="M222 -9q-89 0 -131.5 50.5t-26.5 155.5l49 306h91l-48 -302q-11 -72 12 -104t81 -32q65 0 107 42t53 111l45 285h91l-80 -503h-88l17 111h15q-29 -57 -77.5 -88.5t-109.5 -31.5zM356 547q-33 0 -60.5 16t-43.5 42.5t-16 59.5t16 59t43.5 42t60.5 16q35 0 62 -16t42.5 -42
t15.5 -60q0 -32 -15.5 -58.5t-42.5 -42.5t-62 -16zM356 594q32 0 51.5 20.5t19.5 49.5q0 31 -19.5 51t-51.5 20q-30 0 -50 -20t-20 -50q0 -31 19.5 -51t50.5 -20z" />
    <glyph glyph-name="Uhungarumlaut" unicode="&#x170;" horiz-adv-x="733" 
d="M335 -9q-92 0 -153 32.5t-86 97.5t-10 163l67 421h94l-67 -422q-17 -105 20.5 -157.5t143.5 -52.5q93 0 148 49t73 162l67 421h92l-67 -427q-16 -99 -57 -162.5t-107 -94t-158 -30.5zM357 765l100 172h88l-135 -172h-53zM488 765l106 172h87l-140 -172h-53z" />
    <glyph glyph-name="uhungarumlaut" unicode="&#x171;" horiz-adv-x="582" 
d="M222 -9q-89 0 -131.5 50.5t-26.5 155.5l49 306h91l-48 -302q-11 -72 12 -104t81 -32q65 0 107 42t53 111l45 285h91l-80 -503h-88l17 111h15q-29 -57 -77.5 -88.5t-109.5 -31.5zM378 553l72 202h81l-103 -202h-50zM246 553l71 202h82l-103 -202h-50z" />
    <glyph glyph-name="Uogonek" unicode="&#x172;" horiz-adv-x="733" 
d="M335 -9q-92 0 -153 32.5t-86 97.5t-10 163l67 421h94l-67 -422q-17 -105 20.5 -157.5t143.5 -52.5q93 0 148 49t73 162l67 421h92l-67 -427q-16 -99 -57 -162.5t-107 -94t-158 -30.5zM372 -193q-48 0 -74 25t-26 66q0 47 31 83.5t78 55.5l26 -37q-37 -15 -54.5 -39
t-17.5 -49q0 -23 14 -37t39 -14q13 0 26 3t28 9l10 -50q-18 -7 -38 -11.5t-42 -4.5z" />
    <glyph glyph-name="uogonek" unicode="&#x173;" horiz-adv-x="582" 
d="M222 -9q-89 0 -131.5 50.5t-26.5 155.5l49 306h91l-48 -302q-11 -72 12 -104t81 -32q65 0 107 42t53 111l45 285h91l-80 -503h-88l17 111h15q-29 -57 -77.5 -88.5t-109.5 -31.5zM412 -193q-48 0 -74 25t-26 66q0 47 31 83.5t78 55.5l26 -37q-37 -15 -54.5 -39t-17.5 -49
q0 -23 14 -37t39 -14q13 0 26 3t28 9l10 -50q-18 -7 -38 -11.5t-42 -4.5z" />
    <glyph glyph-name="Wcircumflex" unicode="&#x174;" horiz-adv-x="1114" 
d="M239 0l-135 705h93l111 -622h-36l321 622h72l110 -622h-33l316 622h96l-361 -705h-81l-109 595h21l-305 -595h-80zM467 765l140 172h83l105 -172h-66l-84 115l-112 -115h-66z" />
    <glyph glyph-name="wcircumflex" unicode="&#x175;" horiz-adv-x="872" 
d="M172 0l-109 503h92l84 -431h-26l225 431h74l86 -431h-25l221 431h94l-268 -503h-86l-90 438h44l-229 -438h-87zM328 552l132 202h84l88 -202h-60l-74 144l-108 -144h-62z" />
    <glyph glyph-name="Ycircumflex" unicode="&#x176;" horiz-adv-x="612" 
d="M219 0l53 330l10 -61l-224 436h103l171 -344h-22l280 344h109l-364 -439l30 64l-53 -330h-93zM217 765l140 172h83l105 -172h-66l-84 115l-112 -115h-66z" />
    <glyph glyph-name="ycircumflex" unicode="&#x177;" horiz-adv-x="534" 
d="M-16 -227l-15 74q49 11 82.5 25.5t58.5 37.5t46 58l35 60l-5 -38l-138 513h95l108 -431h-27l243 431h98l-317 -542q-29 -49 -59 -82t-61.5 -54t-66.5 -33t-77 -19zM158 552l132 202h84l88 -202h-60l-74 144l-108 -144h-62z" />
    <glyph glyph-name="Ydieresis" unicode="&#x178;" horiz-adv-x="612" 
d="M219 0l53 330l10 -61l-224 436h103l171 -344h-22l280 344h109l-364 -439l30 64l-53 -330h-93zM436 802l15 93h93l-16 -93h-92zM258 802l15 93h93l-15 -93h-93z" />
    <glyph glyph-name="Zacute" unicode="&#x179;" horiz-adv-x="599" 
d="M4 0l11 69l507 590l-5 -33h-414l13 79h508l-11 -68l-508 -591l4 33h427l-12 -79h-520zM352 765l131 172h102l-165 -172h-68z" />
    <glyph glyph-name="zacute" unicode="&#x17a;" horiz-adv-x="520" 
d="M9 0l10 61l391 395l-4 -23h-328l11 70h417l-9 -61l-393 -397l3 25h342l-11 -70h-429zM275 552l134 202h97l-166 -202h-65z" />
    <glyph glyph-name="Zdotaccent" unicode="&#x17b;" horiz-adv-x="599" 
d="M4 0l11 69l507 590l-5 -33h-414l13 79h508l-11 -68l-508 -591l4 33h427l-12 -79h-520zM343 804l14 94h97l-15 -94h-96z" />
    <glyph glyph-name="zdotaccent" unicode="&#x17c;" horiz-adv-x="520" 
d="M9 0l10 61l391 395l-4 -23h-328l11 70h417l-9 -61l-393 -397l3 25h342l-11 -70h-429zM267 606l15 94h98l-15 -94h-98z" />
    <glyph glyph-name="Zcaron" unicode="&#x17d;" horiz-adv-x="599" 
d="M4 0l11 69l507 590l-5 -33h-414l13 79h508l-11 -68l-508 -591l4 33h427l-12 -79h-520zM344 765l-105 172h64l85 -115l111 115h69l-141 -172h-83z" />
    <glyph glyph-name="zcaron" unicode="&#x17e;" horiz-adv-x="520" 
d="M9 0l10 61l391 395l-4 -23h-328l11 70h417l-9 -61l-393 -397l3 25h342l-11 -70h-429zM266 552l-88 202h60l74 -144l108 144h61l-131 -202h-84z" />
    <glyph glyph-name="uni0181" unicode="&#x181;" horiz-adv-x="818" 
d="M180 0l100 635h-32q-56 0 -86.5 -25.5t-39.5 -79.5l-8 -46h-78l8 49q14 87 68.5 129.5t156.5 42.5h315q110 0 163 -49t39 -141q-11 -66 -57 -107.5t-116 -56.5l2 15q75 -9 111 -58t24 -123q-14 -92 -83 -138.5t-184 -46.5h-303zM282 74h202q73 0 119.5 27.5t56.5 87.5
q8 49 -6.5 77.5t-47 41t-78.5 12.5h-207zM333 394h185q78 0 122 29t52 82q10 65 -22 96t-103 31h-197z" />
    <glyph glyph-name="uni018A" unicode="&#x18a;" horiz-adv-x="885" 
d="M180 0l100 635h-32q-56 0 -86.5 -25.5t-39.5 -79.5l-8 -46h-78l8 49q14 87 68.5 129.5t150.5 42.5h259q125 0 201 -43.5t105 -125.5t11 -196q-28 -171 -134.5 -255.5t-282.5 -84.5h-242zM286 79h139q140 0 219.5 66.5t101.5 203.5q22 141 -36.5 209t-199.5 68h-137z" />
    <glyph glyph-name="uni018F" unicode="&#x18f;" horiz-adv-x="754" 
d="M344 -9q-110 0 -174.5 46t-87 127.5t-5.5 189.5l6 39h555l-12 -75h-485l30 35q-14 -92 -2.5 -155t54.5 -95.5t124 -32.5q108 0 176 70.5t89 207.5q22 137 -29 210.5t-176 73.5q-69 0 -124 -17t-111 -59l-32 73q58 43 126 64t152 21q111 0 182 -45.5t98.5 -129t9.5 -198.5
q-17 -108 -66.5 -186.5t-125 -121t-172.5 -42.5z" />
    <glyph glyph-name="florin" unicode="&#x192;" horiz-adv-x="600" 
d="M-31 -189l11 73h50q42 0 72.5 23t51.5 79l163 441l16 -10h-137l11 70h148l-21 -15l30 83q26 73 81.5 116t136.5 43h51l-12 -75h-44q-46 0 -76 -22t-52 -79l-24 -66l-12 15h139l-12 -70h-152l21 11l-171 -459q-28 -72 -81.5 -115t-132.5 -43h-55z" />
    <glyph glyph-name="Ohorn" unicode="&#x1a0;" horiz-adv-x="776" 
d="M78 366q18 111 68 189t128 118.5t177 40.5q107 0 174.5 -47.5t94.5 -132t9 -194.5q-17 -111 -67.5 -189t-128 -119t-177.5 -41q-106 0 -174 47.5t-94.5 132t-9.5 195.5zM175 356q-14 -88 3.5 -151.5t64.5 -97.5t120 -34q112 0 180.5 73.5t88.5 203.5q15 88 -3 151t-65 97
t-121 34q-111 0 -178.5 -72.5t-89.5 -203.5zM554 652l-40 57q25 -1 43 -2.5t37 -1.5q41 0 65.5 11t37.5 36t20 65l2 17h82l-5 -30q-7 -46 -28 -80.5t-55 -53t-82 -18.5h-77z" />
    <glyph glyph-name="ohorn" unicode="&#x1a1;" horiz-adv-x="576" 
d="M255 -9q-76 0 -127.5 32t-72 93.5t-7.5 148.5q13 80 51 135.5t94.5 83.5t126.5 28q78 0 129 -32t72 -93.5t7 -147.5q-13 -81 -51 -136t-95 -83.5t-127 -28.5zM261 63q67 0 114.5 47.5t62.5 138.5q15 95 -19.5 142.5t-104.5 47.5q-67 0 -113.5 -47t-61.5 -137
q-15 -96 18 -144t104 -48zM423 450l-46 31l4 22q41 1 65.5 12.5t37.5 36t20 63.5l2 17h82l-6 -35q-10 -66 -51 -104.5t-108 -42.5z" />
    <glyph glyph-name="Uhorn" unicode="&#x1af;" horiz-adv-x="733" 
d="M335 -9q-92 0 -153 32.5t-86 97.5t-10 163l67 421h94l-67 -422q-17 -105 20.5 -157.5t143.5 -52.5q93 0 148 49t73 162l67 421h92l-67 -427q-16 -99 -57 -162.5t-107 -94t-158 -30.5zM703 652l-44 32l3 21q41 1 65.5 12t38 35t19.5 64l3 18h81l-5 -31q-10 -67 -52 -107
t-109 -44z" />
    <glyph glyph-name="uhorn" unicode="&#x1b0;" horiz-adv-x="582" 
d="M222 -9q-89 0 -131.5 50.5t-26.5 155.5l49 306h91l-48 -302q-11 -72 12 -104t81 -32q65 0 107 42t53 111l45 285h91l-80 -503h-88l17 111h15q-29 -57 -77.5 -88.5t-109.5 -31.5zM515 450l-46 31l4 22q41 1 65.5 12.5t37.5 36t20 63.5l2 17h82l-6 -35q-10 -66 -51 -104.5
t-108 -42.5z" />
    <glyph glyph-name="uni01B3" unicode="&#x1b3;" horiz-adv-x="612" 
d="M219 0l53 330l10 -61l-224 436h103l171 -344h-22l220 270q26 31 51 49t53.5 26t62.5 8q21 0 36 -2.5t28 -8.5l-11 -67q-10 4 -22 5.5t-26 1.5q-26 0 -49.5 -11t-46.5 -39l-271 -327l30 64l-53 -330h-93z" />
    <glyph glyph-name="uni01B4" unicode="&#x1b4;" horiz-adv-x="575" 
d="M-17 -227l-14 74q50 11 83.5 25.5t58 37.5t45.5 58l35 60l-5 -38l-138 513h95l108 -431h-27l183 326q23 41 48 66t56 36.5t73 11.5q18 0 33.5 -2.5t27.5 -6.5l-20 -70q-9 3 -19 4.5t-19 1.5q-33 0 -56.5 -17t-52.5 -65l-230 -396q-29 -49 -59 -82t-61.5 -54t-67.5 -33
t-77 -19z" />
    <glyph glyph-name="uni01C4" unicode="&#x1c4;" horiz-adv-x="1334" 
d="M46 0l112 705h229q125 0 201 -43.5t105 -125.5t11 -196q-28 -171 -134.5 -255.5t-281.5 -84.5h-242zM152 79h139q140 0 219 66.5t101 203.5q22 141 -36.5 209t-198.5 68h-138zM739 0l11 69l507 590l-5 -33h-414l13 79h508l-11 -68l-508 -591l4 33h427l-12 -79h-520z
M1079 765l-105 172h64l85 -115l111 115h69l-141 -172h-83z" />
    <glyph glyph-name="uni01C5" unicode="&#x1c5;" horiz-adv-x="1270" 
d="M46 0l112 705h229q125 0 201 -43.5t105 -125.5t11 -196q-28 -171 -134.5 -255.5t-281.5 -84.5h-242zM152 79h139q140 0 219 66.5t101 203.5q22 141 -36.5 209t-198.5 68h-138zM759 0l10 61l391 395l-4 -23h-328l11 70h417l-9 -61l-393 -397l3 25h342l-11 -70h-429z
M1016 552l-88 202h60l74 -144l108 144h61l-131 -202h-84z" />
    <glyph glyph-name="uni01C6" unicode="&#x1c6;" horiz-adv-x="1125" 
d="M236 -9q-69 0 -116 32.5t-66 94t-6 147.5q20 121 90 184t168 63q66 0 110.5 -33t53.5 -91h-10l55 348h91l-117 -736h-90l18 117h15q-26 -59 -76 -92.5t-120 -33.5zM262 63q67 0 115 47.5t63 138.5q15 95 -19.5 142.5t-105.5 47.5q-67 0 -114 -47t-62 -137
q-15 -96 18.5 -144t104.5 -48zM614 0l10 61l391 395l-4 -23h-328l11 70h417l-9 -61l-393 -397l3 25h342l-11 -70h-429zM871 552l-88 202h60l74 -144l108 144h61l-131 -202h-84z" />
    <glyph glyph-name="uni01C7" unicode="&#x1c7;" horiz-adv-x="925" 
d="M46 0l112 705h93l-99 -625h350l-12 -80h-444zM601 -187q-16 0 -37 2.5t-42 9.5l11 76q19 -7 35.5 -9t29.5 -2q46 0 73 28t37 89l110 698h94l-112 -704q-10 -63 -34.5 -105t-65 -62.5t-99.5 -20.5z" />
    <glyph glyph-name="uni01C8" unicode="&#x1c8;" horiz-adv-x="792" 
d="M46 0l112 705h93l-99 -625h350l-12 -80h-444zM488 -220q-16 0 -36 2.5t-34 9.5l12 75q12 -4 27 -7.5t29 -3.5q40 0 65 25.5t34 83.5l85 538h91l-87 -546q-14 -87 -60 -132t-126 -45zM678 613l16 98h108l-16 -98h-108z" />
    <glyph glyph-name="uni01C9" unicode="&#x1c9;" horiz-adv-x="486" 
d="M36 0l117 736h91l-117 -736h-91zM182 -220q-16 0 -36 2.5t-34 9.5l12 75q12 -4 27 -7.5t29 -3.5q40 0 65 25.5t34 83.5l85 538h91l-87 -546q-14 -87 -60 -132t-126 -45zM372 613l16 98h108l-16 -98h-108z" />
    <glyph glyph-name="uni01CA" unicode="&#x1ca;" horiz-adv-x="1085" 
d="M46 0l112 705h72l346 -588l-20 4l92 584h87l-112 -705h-71l-347 588l20 -4l-92 -584h-87zM760 -187q-16 0 -37 2.5t-42 9.5l11 76q19 -7 35.5 -9t29.5 -2q46 0 73 28t37 89l110 698h94l-112 -704q-10 -63 -34.5 -105t-65 -62.5t-99.5 -20.5z" />
    <glyph glyph-name="uni01CB" unicode="&#x1cb;" horiz-adv-x="992" 
d="M46 0l112 705h72l346 -588l-20 4l92 584h87l-112 -705h-71l-347 588l20 -4l-92 -584h-87zM687 -220q-16 0 -36 2.5t-34 9.5l12 75q12 -4 27 -7.5t29 -3.5q40 0 65 25.5t34 83.5l85 538h91l-87 -546q-14 -87 -60 -132t-126 -45zM877 613l16 98h108l-16 -98h-108z" />
    <glyph glyph-name="uni01CC" unicode="&#x1cc;" horiz-adv-x="832" 
d="M36 0l61 384q5 29 7.5 59t3.5 60h88l-8 -108l-13 -1q30 58 82 88t119 30q92 0 128 -53t20 -154l-48 -305h-91l48 304q12 72 -11.5 103t-81.5 31q-67 0 -111.5 -41t-55.5 -109l-46 -288h-91zM528 -220q-16 0 -36 2.5t-34 9.5l12 75q12 -4 27 -7.5t29 -3.5q40 0 65 25.5
t34 83.5l85 538h91l-87 -546q-14 -87 -60 -132t-126 -45zM718 613l16 98h108l-16 -98h-108z" />
    <glyph glyph-name="uni01CD" unicode="&#x1cd;" horiz-adv-x="738" 
d="M-26 0l424 705h81l205 -705h-92l-56 200l37 -24h-429l47 24l-118 -200h-99zM425 601l-215 -370l-21 21h363l-22 -21l-102 370h-3zM407 765l-105 172h64l85 -115l111 115h69l-141 -172h-83z" />
    <glyph glyph-name="uni01CE" unicode="&#x1ce;" horiz-adv-x="605" 
d="M236 -9q-69 0 -116 32.5t-66 94t-6 147.5q20 121 90 184t168 63q66 0 110.5 -33t53.5 -91l-11 -1l30 116h87q-7 -30 -14.5 -60t-12.5 -59l-60 -384h-91l19 117h15q-26 -59 -76 -92.5t-120 -33.5zM262 63q67 0 115 47.5t63 138.5q15 95 -19.5 142.5t-105.5 47.5
q-67 0 -114 -47t-62 -137q-15 -96 18.5 -144t104.5 -48zM302 552l-88 202h60l74 -144l108 144h61l-131 -202h-84z" />
    <glyph glyph-name="uni01D4" unicode="&#x1d4;" horiz-adv-x="582" 
d="M222 -9q-89 0 -131.5 50.5t-26.5 155.5l49 306h91l-48 -302q-11 -72 12 -104t81 -32q65 0 107 42t53 111l45 285h91l-80 -503h-88l17 111h15q-29 -57 -77.5 -88.5t-109.5 -31.5zM296 553l-88 202h60l74 -144l108 144h61l-131 -202h-84z" />
    <glyph glyph-name="uni01E5" unicode="&#x1e5;" horiz-adv-x="608" 
d="M228 -223q-67 0 -118.5 15.5t-89.5 48.5l29 65q27 -20 55 -33.5t60 -20t67 -6.5q115 0 153 90l7 -10h-131l8 48h142l-15 -15q2 8 3.5 15.5t2.5 15.5l25 158h12q-25 -57 -78 -89.5t-119 -32.5q-68 0 -115 32.5t-67 90t-8 133.5q12 75 47.5 126t89 77.5t118.5 26.5
q68 0 113 -32.5t55 -90.5l-8 8l26 106h88q-8 -30 -15 -60t-12 -59l-60 -377q-1 -11 -3.5 -22t-4.5 -21l-9 10h80l-8 -48h-87l14 11q-29 -79 -90.5 -119.5t-156.5 -40.5zM267 97q69 0 116.5 45t60.5 125q13 83 -21 127.5t-105 44.5q-70 0 -117 -44t-60 -125
q-13 -83 21.5 -128t104.5 -45z" />
    <glyph glyph-name="Gcaron" unicode="&#x1e6;" horiz-adv-x="733" 
d="M383 -9q-122 0 -196 46t-100.5 130t-8.5 198q18 112 71 189.5t136 118.5t190 41q77 0 131 -19.5t91 -54.5l-37 -75q-41 35 -82.5 50.5t-106.5 15.5q-123 0 -199 -72.5t-97 -204.5q-21 -133 30 -207t185 -74q51 0 96 9t90 27l-30 -48l37 239h-176l12 72h256l-52 -327
q-31 -17 -71.5 -29t-84.5 -18.5t-84 -6.5zM442 765l-105 172h64l85 -115l111 115h69l-141 -172h-83z" />
    <glyph glyph-name="gcaron" unicode="&#x1e7;" horiz-adv-x="608" 
d="M229 -224q-64 0 -117 16t-92 49l30 68q28 -21 55.5 -34.5t59 -19.5t67.5 -6q74 0 116.5 38t53.5 108l22 141h12q-24 -57 -76 -90.5t-119 -33.5q-69 0 -116.5 32.5t-67.5 92t-7 138.5q19 115 88.5 176t169.5 61q67 0 112 -33t53 -91l-7 9l26 106h88q-8 -30 -15 -60
t-12 -59l-60 -378q-17 -112 -84 -171t-180 -59zM265 84q70 0 117.5 47t60.5 130q14 86 -20 132t-104 46t-117.5 -46t-61.5 -130q-14 -85 20.5 -132t104.5 -47zM313 552l-88 202h60l74 -144l108 144h61l-131 -202h-84z" />
    <glyph glyph-name="uni01E9" unicode="&#x1e9;" horiz-adv-x="523" 
d="M36 0l117 736h91l-72 -455h2l257 222h118l-308 -264v43l252 -282h-112l-215 234h-2l-37 -234h-91zM308 774l-105 172h64l85 -115l111 115h69l-141 -172h-83z" />
    <glyph glyph-name="uni01EA" unicode="&#x1ea;" horiz-adv-x="776" 
d="M78 366q18 111 68 189t128 118.5t177 40.5q107 0 174.5 -47.5t94.5 -132t9 -194.5q-17 -111 -67.5 -189t-128 -119t-177.5 -41q-106 0 -174 47.5t-94.5 132t-9.5 195.5zM175 356q-14 -88 3.5 -151.5t64.5 -97.5t120 -34q112 0 180.5 73.5t88.5 203.5q15 88 -3 151t-65 97
t-121 34q-111 0 -178.5 -72.5t-89.5 -203.5zM375 -193q-48 0 -74 25t-26 66q0 47 31 83.5t78 55.5l26 -37q-37 -15 -54.5 -39t-17.5 -49q0 -23 14 -37t39 -14q13 0 26 3t28 9l10 -50q-18 -7 -38 -11.5t-42 -4.5z" />
    <glyph glyph-name="uni01EB" unicode="&#x1eb;" horiz-adv-x="576" 
d="M255 -9q-76 0 -127.5 32t-72 93.5t-7.5 148.5q13 80 51 135.5t94.5 83.5t126.5 28q78 0 129 -32t72 -93.5t7 -147.5q-13 -81 -51 -136t-95 -83.5t-127 -28.5zM261 63q67 0 114.5 47.5t62.5 138.5q15 95 -19.5 142.5t-104.5 47.5q-67 0 -113.5 -47t-61.5 -137
q-15 -96 18 -144t104 -48zM269 -193q-48 0 -74 25t-26 66q0 47 31 83.5t78 55.5l26 -37q-37 -15 -54.5 -39t-17.5 -49q0 -23 14 -37t39 -14q13 0 26 3t28 9l10 -50q-18 -7 -38 -11.5t-42 -4.5z" />
    <glyph glyph-name="Aringacute" unicode="&#x1fa;" horiz-adv-x="738" 
d="M-26 0l424 705h81l205 -705h-92l-56 200l37 -24h-429l47 24l-118 -200h-99zM425 601l-215 -370l-21 21h363l-22 -21l-102 370h-3zM450 757q-33 0 -60 15.5t-42.5 41.5t-15.5 58t15.5 57.5t42.5 41t60 15.5q18 0 34.5 -5t30.5 -14l69 64h84l-118 -101q17 -25 17 -58
q0 -32 -15.5 -58t-42 -41.5t-59.5 -15.5zM450 801q30 0 50 20.5t20 50.5t-20 50t-51 20q-30 0 -50 -20t-20 -50t20 -50.5t51 -20.5z" />
    <glyph glyph-name="aringacute" unicode="&#x1fb;" horiz-adv-x="605" 
d="M236 -9q-69 0 -116 32.5t-66 94t-6 147.5q20 121 90 184t168 63q66 0 110.5 -33t53.5 -91l-11 -1l30 116h87q-7 -30 -14.5 -60t-12.5 -59l-60 -384h-91l19 117h15q-26 -59 -76 -92.5t-120 -33.5zM262 63q67 0 115 47.5t63 138.5q15 95 -19.5 142.5t-105.5 47.5
q-67 0 -114 -47t-62 -137q-15 -96 18.5 -144t104.5 -48zM360 543q-33 0 -59.5 15.5t-42 41.5t-15.5 58t15.5 58t42 41t59.5 15q19 0 35.5 -5t30.5 -14l69 64h84l-118 -100q16 -27 16 -59t-15.5 -58t-42 -41.5t-59.5 -15.5zM360 587q31 0 50.5 20.5t19.5 50.5t-19.5 50
t-50.5 20q-30 0 -50 -20t-20 -50t20 -50.5t50 -20.5z" />
    <glyph glyph-name="AEacute" unicode="&#x1fc;" horiz-adv-x="1008" 
d="M-46 0l543 705h535l-13 -76h-394l26 23l-19 -281l-14 25h344l-12 -76h-338l16 10l-18 -278l-9 24h331l-12 -76h-401l13 196l24 -20h-381l38 25l-152 -201h-107zM535 628l-301 -398l-9 22h323l-12 -24l27 400h-28zM565 765l131 172h102l-165 -172h-68z" />
    <glyph glyph-name="aeacute" unicode="&#x1fd;" horiz-adv-x="879" 
d="M209 -9q-61 0 -101 23t-57 61.5t-10 83.5q10 53 48 82.5t104.5 41.5t159.5 12h52l-8 -53h-54q-65 0 -112 -7.5t-73.5 -27t-32.5 -55.5q-7 -42 18.5 -68t77.5 -26q64 0 106.5 40.5t53.5 106.5l17 115q11 63 -16.5 91.5t-80.5 28.5q-48 0 -89 -11.5t-88 -38.5l-27 65
q29 18 64 31t72.5 19.5t73.5 6.5q81 0 120.5 -31t44.5 -90h-29q36 59 91 90t120 31q69 0 114 -30.5t63.5 -84.5t8.5 -125l-5 -30h-376l9 54h314l-18 -14q12 79 -17 121.5t-97 42.5q-48 0 -84.5 -22.5t-58 -61t-28.5 -88.5l-4 -25q-12 -89 26 -137.5t123 -48.5q41 0 81 13
t76 43l30 -63q-39 -31 -91.5 -48t-105.5 -17q-88 0 -142.5 40t-71.5 114h24q-27 -73 -82.5 -113.5t-132.5 -40.5zM450 552l134 202h97l-166 -202h-65z" />
    <glyph glyph-name="Oslashacute" unicode="&#x1fe;" horiz-adv-x="776" 
d="M78 366q18 111 68 189t128 118.5t177 40.5q107 0 174.5 -47.5t94.5 -132t9 -194.5q-17 -111 -67.5 -189t-128 -119t-177.5 -41q-106 0 -174 47.5t-94.5 132t-9.5 195.5zM175 356q-14 -88 3.5 -151.5t64.5 -97.5t120 -34q112 0 180.5 73.5t88.5 203.5q15 88 -3 151t-65 97
t-121 34q-111 0 -178.5 -72.5t-89.5 -203.5zM231 59l-71 -97l-58 41l71 97l36 40l349 467l23 40l72 96l59 -41l-72 -96l-36 -41l-348 -466zM435 765l131 172h102l-165 -172h-68z" />
    <glyph glyph-name="oslashacute" unicode="&#x1ff;" horiz-adv-x="576" 
d="M255 -9q-76 0 -127.5 32t-72 93.5t-7.5 148.5q13 80 51 135.5t94.5 83.5t126.5 28q78 0 129 -32t72 -93.5t7 -147.5q-13 -81 -51 -136t-95 -83.5t-127 -28.5zM261 63q71 0 119.5 47.5t63.5 138.5q15 93 -21 141.5t-109 48.5q-70 0 -118.5 -47t-62.5 -138
q-15 -92 18.5 -141.5t109.5 -49.5zM115 -35l-46 33l396 538l44 -32zM303 552l134 202h97l-166 -202h-65z" />
    <glyph glyph-name="uni0200" unicode="&#x200;" horiz-adv-x="738" 
d="M-26 0l424 705h81l205 -705h-92l-56 200l37 -24h-429l47 24l-118 -200h-99zM425 601l-215 -370l-21 21h363l-22 -21l-102 370h-3zM488 765l-106 172h87l72 -172h-53zM357 765l-111 172h86l78 -172h-53z" />
    <glyph glyph-name="uni0201" unicode="&#x201;" horiz-adv-x="605" 
d="M236 -9q-69 0 -116 32.5t-66 94t-6 147.5q20 121 90 184t168 63q66 0 110.5 -33t53.5 -91l-11 -1l30 116h87q-7 -30 -14.5 -60t-12.5 -59l-60 -384h-91l19 117h15q-26 -59 -76 -92.5t-120 -33.5zM262 63q67 0 115 47.5t63 138.5q15 95 -19.5 142.5t-105.5 47.5
q-67 0 -114 -47t-62 -137q-15 -96 18.5 -144t104.5 -48zM387 552l-67 202h81l36 -202h-50zM254 552l-66 202h80l37 -202h-51z" />
    <glyph glyph-name="uni0202" unicode="&#x202;" horiz-adv-x="738" 
d="M-26 0l424 705h81l205 -705h-92l-56 200l37 -24h-429l47 24l-118 -200h-99zM425 601l-215 -370l-21 21h363l-22 -21l-102 370h-3zM328 760l-56 7q13 79 63.5 124t123.5 45q47 0 83 -20.5t56 -59t19 -89.5l-56 -7q2 56 -27.5 86.5t-79.5 30.5t-84 -30.5t-42 -86.5z" />
    <glyph glyph-name="uni0203" unicode="&#x203;" horiz-adv-x="605" 
d="M236 -9q-69 0 -116 32.5t-66 94t-6 147.5q20 121 90 184t168 63q66 0 110.5 -33t53.5 -91l-11 -1l30 116h87q-7 -30 -14.5 -60t-12.5 -59l-60 -384h-91l19 117h15q-26 -59 -76 -92.5t-120 -33.5zM262 63q67 0 115 47.5t63 138.5q15 95 -19.5 142.5t-105.5 47.5
q-67 0 -114 -47t-62 -137q-15 -96 18.5 -144t104.5 -48zM236 549l-55 6q7 59 30.5 101.5t59 66t81.5 23.5t79 -23.5t50 -66t14 -101.5l-56 -6q3 66 -20.5 101.5t-69.5 35.5q-44 0 -74 -35.5t-39 -101.5z" />
    <glyph glyph-name="uni0204" unicode="&#x204;" horiz-adv-x="590" 
d="M46 0l112 705h456l-13 -76h-366l-36 -233h343l-12 -76h-343l-39 -244h365l-11 -76h-456zM450 765l-106 172h87l72 -172h-53zM319 765l-111 172h86l78 -172h-53z" />
    <glyph glyph-name="uni0205" unicode="&#x205;" horiz-adv-x="545" 
d="M276 -9q-85 0 -140 34t-77.5 96.5t-9.5 146.5q12 77 48 131.5t92 83.5t127 29q70 0 115.5 -30.5t65 -84.5t8.5 -125l-5 -30h-384l8 54h323l-18 -14q12 79 -18 121.5t-100 42.5q-50 0 -86.5 -22.5t-58.5 -61t-28 -88.5l-4 -25q-12 -89 26 -137.5t126 -48.5q42 0 83 13
t77 43l30 -63q-40 -31 -92 -48t-108 -17zM377 552l-67 202h81l36 -202h-50zM244 552l-66 202h80l37 -202h-51z" />
    <glyph glyph-name="uni0206" unicode="&#x206;" horiz-adv-x="590" 
d="M46 0l112 705h456l-13 -76h-366l-36 -233h343l-12 -76h-343l-39 -244h365l-11 -76h-456zM290 760l-56 7q13 79 63.5 124t123.5 45q47 0 83 -20.5t56 -59t19 -89.5l-56 -7q2 56 -27.5 86.5t-79.5 30.5t-84 -30.5t-42 -86.5z" />
    <glyph glyph-name="uni0207" unicode="&#x207;" horiz-adv-x="545" 
d="M276 -9q-85 0 -140 34t-77.5 96.5t-9.5 146.5q12 77 48 131.5t92 83.5t127 29q70 0 115.5 -30.5t65 -84.5t8.5 -125l-5 -30h-384l8 54h323l-18 -14q12 79 -18 121.5t-100 42.5q-50 0 -86.5 -22.5t-58.5 -61t-28 -88.5l-4 -25q-12 -89 26 -137.5t126 -48.5q42 0 83 13
t77 43l30 -63q-40 -31 -92 -48t-108 -17zM226 549l-55 6q7 59 30.5 101.5t59 66t81.5 23.5t79 -23.5t50 -66t14 -101.5l-56 -6q3 66 -20.5 101.5t-69.5 35.5q-44 0 -74 -35.5t-39 -101.5z" />
    <glyph glyph-name="uni0208" unicode="&#x208;" horiz-adv-x="264" 
d="M46 0l112 705h93l-112 -705h-93zM253 765l-106 172h87l72 -172h-53zM122 765l-111 172h86l78 -172h-53z" />
    <glyph glyph-name="uni0209" unicode="&#x209;" horiz-adv-x="243" 
d="M36 0l80 503h91l-80 -503h-91zM212 552l-67 202h81l36 -202h-50zM79 552l-66 202h80l37 -202h-51z" />
    <glyph glyph-name="uni020A" unicode="&#x20a;" horiz-adv-x="264" 
d="M46 0l112 705h93l-112 -705h-93zM93 760l-56 7q13 79 63.5 124t123.5 45q47 0 83 -20.5t56 -59t19 -89.5l-56 -7q2 56 -27.5 86.5t-79.5 30.5t-84 -30.5t-42 -86.5z" />
    <glyph glyph-name="uni020B" unicode="&#x20b;" horiz-adv-x="243" 
d="M36 0l80 503h91l-80 -503h-91zM62 549l-55 6q7 59 30.5 101.5t59 66t81.5 23.5t79 -23.5t50 -66t14 -101.5l-56 -6q3 66 -20.5 101.5t-69.5 35.5q-44 0 -74 -35.5t-39 -101.5z" />
    <glyph glyph-name="uni020C" unicode="&#x20c;" horiz-adv-x="776" 
d="M78 366q18 111 68 189t128 118.5t177 40.5q107 0 174.5 -47.5t94.5 -132t9 -194.5q-17 -111 -67.5 -189t-128 -119t-177.5 -41q-106 0 -174 47.5t-94.5 132t-9.5 195.5zM175 356q-14 -88 3.5 -151.5t64.5 -97.5t120 -34q112 0 180.5 73.5t88.5 203.5q15 88 -3 151t-65 97
t-121 34q-111 0 -178.5 -72.5t-89.5 -203.5zM508 765l-106 172h87l72 -172h-53zM377 765l-111 172h86l78 -172h-53z" />
    <glyph glyph-name="uni020D" unicode="&#x20d;" horiz-adv-x="576" 
d="M255 -9q-76 0 -127.5 32t-72 93.5t-7.5 148.5q13 80 51 135.5t94.5 83.5t126.5 28q78 0 129 -32t72 -93.5t7 -147.5q-13 -81 -51 -136t-95 -83.5t-127 -28.5zM261 63q67 0 114.5 47.5t62.5 138.5q15 95 -19.5 142.5t-104.5 47.5q-67 0 -113.5 -47t-61.5 -137
q-15 -96 18 -144t104 -48zM379 552l-67 202h81l36 -202h-50zM246 552l-66 202h80l37 -202h-51z" />
    <glyph glyph-name="uni020E" unicode="&#x20e;" horiz-adv-x="776" 
d="M78 366q18 111 68 189t128 118.5t177 40.5q107 0 174.5 -47.5t94.5 -132t9 -194.5q-17 -111 -67.5 -189t-128 -119t-177.5 -41q-106 0 -174 47.5t-94.5 132t-9.5 195.5zM175 356q-14 -88 3.5 -151.5t64.5 -97.5t120 -34q112 0 180.5 73.5t88.5 203.5q15 88 -3 151t-65 97
t-121 34q-111 0 -178.5 -72.5t-89.5 -203.5zM348 760l-56 7q13 79 63.5 124t123.5 45q47 0 83 -20.5t56 -59t19 -89.5l-56 -7q2 56 -27.5 86.5t-79.5 30.5t-84 -30.5t-42 -86.5z" />
    <glyph glyph-name="uni020F" unicode="&#x20f;" horiz-adv-x="576" 
d="M255 -9q-76 0 -127.5 32t-72 93.5t-7.5 148.5q13 80 51 135.5t94.5 83.5t126.5 28q78 0 129 -32t72 -93.5t7 -147.5q-13 -81 -51 -136t-95 -83.5t-127 -28.5zM261 63q67 0 114.5 47.5t62.5 138.5q15 95 -19.5 142.5t-104.5 47.5q-67 0 -113.5 -47t-61.5 -137
q-15 -96 18 -144t104 -48zM228 549l-55 6q7 59 30.5 101.5t59 66t81.5 23.5t79 -23.5t50 -66t14 -101.5l-56 -6q3 66 -20.5 101.5t-69.5 35.5q-44 0 -74 -35.5t-39 -101.5z" />
    <glyph glyph-name="uni0210" unicode="&#x210;" horiz-adv-x="695" 
d="M46 0l112 705h283q119 0 173 -55.5t38 -155.5q-9 -59 -43.5 -101t-87.5 -64t-119 -22l6 14h22q41 0 69 -21t43 -66l73 -234h-98l-72 232q-12 43 -42 56t-78 13h-138l-48 -301h-93zM198 373h194q73 0 116 32.5t52 91.5q10 66 -24.5 99t-111.5 33h-186zM468 765l-106 172
h87l72 -172h-53zM337 765l-111 172h86l78 -172h-53z" />
    <glyph glyph-name="uni0211" unicode="&#x211;" horiz-adv-x="370" 
d="M35 0l60 380q5 30 8.5 61.5t4.5 61.5h88l-8 -126l-17 -1q17 46 46 76.5t65.5 45t75.5 14.5q13 0 25 -1t23 -4l-15 -81q-13 5 -26 6.5t-30 1.5q-44 0 -78 -19t-56 -51.5t-28 -73.5l-47 -290h-91zM316 552l-67 202h81l36 -202h-50zM183 552l-66 202h80l37 -202h-51z" />
    <glyph glyph-name="uni0212" unicode="&#x212;" horiz-adv-x="695" 
d="M46 0l112 705h283q119 0 173 -55.5t38 -155.5q-9 -59 -43.5 -101t-87.5 -64t-119 -22l6 14h22q41 0 69 -21t43 -66l73 -234h-98l-72 232q-12 43 -42 56t-78 13h-138l-48 -301h-93zM198 373h194q73 0 116 32.5t52 91.5q10 66 -24.5 99t-111.5 33h-186zM308 760l-56 7
q13 79 63.5 124t123.5 45q47 0 83 -20.5t56 -59t19 -89.5l-56 -7q2 56 -27.5 86.5t-79.5 30.5t-84 -30.5t-42 -86.5z" />
    <glyph glyph-name="uni0213" unicode="&#x213;" horiz-adv-x="370" 
d="M35 0l60 380q5 30 8.5 61.5t4.5 61.5h88l-8 -126l-17 -1q17 46 46 76.5t65.5 45t75.5 14.5q13 0 25 -1t23 -4l-15 -81q-13 5 -26 6.5t-30 1.5q-44 0 -78 -19t-56 -51.5t-28 -73.5l-47 -290h-91zM166 549l-55 6q7 59 30.5 101.5t59 66t81.5 23.5t79 -23.5t50 -66
t14 -101.5l-56 -6q3 66 -20.5 101.5t-69.5 35.5q-44 0 -74 -35.5t-39 -101.5z" />
    <glyph glyph-name="uni0214" unicode="&#x214;" horiz-adv-x="733" 
d="M335 -9q-92 0 -153 32.5t-86 97.5t-10 163l67 421h94l-67 -422q-17 -105 20.5 -157.5t143.5 -52.5q93 0 148 49t73 162l67 421h92l-67 -427q-16 -99 -57 -162.5t-107 -94t-158 -30.5zM488 765l-106 172h87l72 -172h-53zM357 765l-111 172h86l78 -172h-53z" />
    <glyph glyph-name="uni0215" unicode="&#x215;" horiz-adv-x="582" 
d="M222 -9q-89 0 -131.5 50.5t-26.5 155.5l49 306h91l-48 -302q-11 -72 12 -104t81 -32q65 0 107 42t53 111l45 285h91l-80 -503h-88l17 111h15q-29 -57 -77.5 -88.5t-109.5 -31.5zM381 553l-67 202h81l36 -202h-50zM248 553l-66 202h80l37 -202h-51z" />
    <glyph glyph-name="uni0216" unicode="&#x216;" horiz-adv-x="733" 
d="M335 -9q-92 0 -153 32.5t-86 97.5t-10 163l67 421h94l-67 -422q-17 -105 20.5 -157.5t143.5 -52.5q93 0 148 49t73 162l67 421h92l-67 -427q-16 -99 -57 -162.5t-107 -94t-158 -30.5zM328 760l-56 7q13 79 63.5 124t123.5 45q47 0 83 -20.5t56 -59t19 -89.5l-56 -7
q2 56 -27.5 86.5t-79.5 30.5t-84 -30.5t-42 -86.5z" />
    <glyph glyph-name="uni0217" unicode="&#x217;" horiz-adv-x="582" 
d="M222 -9q-89 0 -131.5 50.5t-26.5 155.5l49 306h91l-48 -302q-11 -72 12 -104t81 -32q65 0 107 42t53 111l45 285h91l-80 -503h-88l17 111h15q-29 -57 -77.5 -88.5t-109.5 -31.5zM231 550l-55 6q7 59 30.5 101.5t59 66t81.5 23.5t79 -23.5t50 -66t14 -101.5l-56 -6
q3 66 -20.5 101.5t-69.5 35.5q-44 0 -74 -35.5t-39 -101.5z" />
    <glyph glyph-name="uni0218" unicode="&#x218;" horiz-adv-x="628" 
d="M286 -9q-83 0 -149.5 20t-110.5 52l37 74q48 -30 102 -48t127 -18q86 0 132 31.5t53 81.5q8 47 -16.5 74.5t-92.5 37.5l-96 15q-97 14 -140 67t-30 135q9 60 47.5 105t100.5 70.5t144 25.5q72 0 131 -20t96 -53l-36 -73q-39 32 -88 49t-113 17q-80 0 -130 -33t-60 -90
q-8 -49 17 -79.5t93 -40.5l98 -14q98 -14 140 -63t29 -132q-9 -55 -46 -98.5t-97.5 -68t-141.5 -24.5zM243 -270l-31 30q27 21 35.5 40.5t12.5 46.5l20 -12h-74l14 87h106l-12 -70q-6 -40 -21.5 -69.5t-49.5 -52.5z" />
    <glyph glyph-name="uni0219" unicode="&#x219;" horiz-adv-x="497" 
d="M214 -9q-58 0 -108.5 15t-80.5 41l31 63q34 -23 75.5 -37t87.5 -14q56 0 88.5 20.5t37.5 53.5q5 31 -11.5 50t-56.5 25l-74 13q-74 12 -103 51.5t-20 98.5q7 45 36 76t74 48t99 17q55 0 100.5 -14.5t71.5 -38.5l-33 -62q-26 22 -62.5 34.5t-76.5 12.5q-56 0 -87.5 -22
t-36.5 -55q-5 -30 9 -50.5t51 -26.5l77 -13q76 -13 106.5 -49.5t20.5 -94.5q-7 -44 -35.5 -76t-74.5 -49t-105 -17zM164 -270l-31 30q27 21 35.5 40.5t12.5 46.5l20 -12h-74l14 87h106l-12 -70q-6 -40 -21.5 -69.5t-49.5 -52.5z" />
    <glyph glyph-name="uni021A" unicode="&#x21a;" horiz-adv-x="607" 
d="M215 0l100 626h-245l13 79h583l-13 -79h-245l-99 -626h-94zM222 -270l-31 30q27 21 35.5 40.5t12.5 46.5l20 -12h-74l14 87h106l-12 -70q-6 -40 -21.5 -69.5t-49.5 -52.5z" />
    <glyph glyph-name="uni021B" unicode="&#x21b;" horiz-adv-x="356" 
d="M229 -9q-83 0 -117.5 44.5t-21.5 130.5l43 267h-98l11 70h98l22 135l95 25l-26 -160h142l-11 -70h-142l-41 -257q-8 -58 8 -83.5t56 -25.5q19 0 34 3.5t28 8.5l-12 -75q-16 -6 -32.5 -9.5t-35.5 -3.5zM146 -270l-31 30q27 21 35.5 40.5t12.5 46.5l20 -12h-74l14 87h106
l-12 -70q-6 -40 -21.5 -69.5t-49.5 -52.5z" />
    <glyph glyph-name="uni021F" unicode="&#x21f;" horiz-adv-x="589" 
d="M36 0l117 736h91l-54 -342h-15q30 58 82 88t119 30q92 0 128 -53t20 -154l-48 -305h-91l48 304q12 72 -11.5 103t-81.5 31q-67 0 -111.5 -41t-55.5 -109l-46 -288h-91zM340 774l-105 172h64l85 -115l111 115h69l-141 -172h-83z" />
    <glyph glyph-name="uni0226" unicode="&#x226;" horiz-adv-x="738" 
d="M-26 0l424 705h81l205 -705h-92l-56 200l37 -24h-429l47 24l-118 -200h-99zM425 601l-215 -370l-21 21h363l-22 -21l-102 370h-3zM407 804l14 94h97l-15 -94h-96z" />
    <glyph glyph-name="uni0227" unicode="&#x227;" horiz-adv-x="605" 
d="M236 -9q-69 0 -116 32.5t-66 94t-6 147.5q20 121 90 184t168 63q66 0 110.5 -33t53.5 -91l-11 -1l30 116h87q-7 -30 -14.5 -60t-12.5 -59l-60 -384h-91l19 117h15q-26 -59 -76 -92.5t-120 -33.5zM262 63q67 0 115 47.5t63 138.5q15 95 -19.5 142.5t-105.5 47.5
q-67 0 -114 -47t-62 -137q-15 -96 18.5 -144t104.5 -48zM304 606l15 94h98l-15 -94h-98z" />
    <glyph glyph-name="uni0228" unicode="&#x228;" horiz-adv-x="590" 
d="M46 0l112 705h456l-13 -76h-366l-36 -233h343l-12 -76h-343l-39 -244h365l-11 -76h-456zM268 -193q-26 0 -50 5.5t-40 14.5l18 47q18 -9 34.5 -13t38.5 -4q27 0 44 9.5t17 28.5q0 11 -9 17.5t-26 6.5q-10 0 -20.5 -1.5t-26.5 -5.5l-15 16l29 92h55l-25 -76l-26 8
q13 3 24.5 5t21.5 2q35 0 56.5 -16t21.5 -47q0 -40 -34.5 -64.5t-87.5 -24.5z" />
    <glyph glyph-name="uni022A" unicode="&#x22a;" horiz-adv-x="776" 
d="M78 366q18 111 68 189t128 118.5t177 40.5q107 0 174.5 -47.5t94.5 -132t9 -194.5q-17 -111 -67.5 -189t-128 -119t-177.5 -41q-106 0 -174 47.5t-94.5 132t-9.5 195.5zM175 356q-14 -88 3.5 -151.5t64.5 -97.5t120 -34q112 0 180.5 73.5t88.5 203.5q15 88 -3 151t-65 97
t-121 34q-111 0 -178.5 -72.5t-89.5 -203.5zM343 925l9 59h302l-10 -59h-301zM338 795l12 76h93l-12 -76h-93zM516 795l12 76h93l-13 -76h-92z" />
    <glyph glyph-name="uni022B" unicode="&#x22b;" horiz-adv-x="576" 
d="M255 -9q-76 0 -127.5 32t-72 93.5t-7.5 148.5q13 80 51 135.5t94.5 83.5t126.5 28q78 0 129 -32t72 -93.5t7 -147.5q-13 -81 -51 -136t-95 -83.5t-127 -28.5zM261 63q67 0 114.5 47.5t62.5 138.5q15 95 -19.5 142.5t-104.5 47.5q-67 0 -113.5 -47t-61.5 -137
q-15 -96 18 -144t104 -48zM210 707l10 59h301l-9 -59h-302zM206 577l11 76h93l-12 -76h-92zM383 577l12 76h92l-12 -76h-92z" />
    <glyph glyph-name="uni022C" unicode="&#x22c;" horiz-adv-x="776" 
d="M78 366q18 111 68 189t128 118.5t177 40.5q107 0 174.5 -47.5t94.5 -132t9 -194.5q-17 -111 -67.5 -189t-128 -119t-177.5 -41q-106 0 -174 47.5t-94.5 132t-9.5 195.5zM175 356q-14 -88 3.5 -151.5t64.5 -97.5t120 -34q112 0 180.5 73.5t88.5 203.5q15 88 -3 151t-65 97
t-121 34q-111 0 -178.5 -72.5t-89.5 -203.5zM344 925l10 59h300l-9 -59h-301zM543 767q-21 0 -39.5 9t-35.5 19q-14 9 -27.5 16t-28.5 7q-22 0 -35 -12.5t-20 -39.5l-47 3q8 51 35.5 77t68.5 26q21 0 39 -8.5t36 -19.5q14 -8 27.5 -15.5t27.5 -7.5q23 0 35.5 12.5t19.5 39.5
l48 -3q-8 -51 -36 -77t-68 -26z" />
    <glyph glyph-name="uni022D" unicode="&#x22d;" horiz-adv-x="576" 
d="M255 -9q-76 0 -127.5 32t-72 93.5t-7.5 148.5q13 80 51 135.5t94.5 83.5t126.5 28q78 0 129 -32t72 -93.5t7 -147.5q-13 -81 -51 -136t-95 -83.5t-127 -28.5zM261 63q67 0 114.5 47.5t62.5 138.5q15 95 -19.5 142.5t-104.5 47.5q-67 0 -113.5 -47t-61.5 -137
q-15 -96 18 -144t104 -48zM210 707l9 59h301l-10 -59h-300zM223 548l-48 3q8 51 34.5 77t66.5 26q23 0 42 -9t36 -19q15 -9 28.5 -16t27.5 -7q23 0 35.5 12.5t19.5 39.5l47 -3q-8 -51 -34.5 -77t-65.5 -26q-22 0 -41.5 9t-37.5 20q-14 9 -28 15.5t-27 6.5q-23 0 -35.5 -12.5
t-19.5 -39.5z" />
    <glyph glyph-name="uni0230" unicode="&#x230;" horiz-adv-x="776" 
d="M78 366q18 111 68 189t128 118.5t177 40.5q107 0 174.5 -47.5t94.5 -132t9 -194.5q-17 -111 -67.5 -189t-128 -119t-177.5 -41q-106 0 -174 47.5t-94.5 132t-9.5 195.5zM175 356q-14 -88 3.5 -151.5t64.5 -97.5t120 -34q112 0 180.5 73.5t88.5 203.5q15 88 -3 151t-65 97
t-121 34q-111 0 -178.5 -72.5t-89.5 -203.5zM343 925l9 59h302l-10 -59h-301zM427 795l13 76h93l-13 -76h-93z" />
    <glyph glyph-name="uni0231" unicode="&#x231;" horiz-adv-x="576" 
d="M255 -9q-76 0 -127.5 32t-72 93.5t-7.5 148.5q13 80 51 135.5t94.5 83.5t126.5 28q78 0 129 -32t72 -93.5t7 -147.5q-13 -81 -51 -136t-95 -83.5t-127 -28.5zM261 63q67 0 114.5 47.5t62.5 138.5q15 95 -19.5 142.5t-104.5 47.5q-67 0 -113.5 -47t-61.5 -137
q-15 -96 18 -144t104 -48zM207 707l10 59h301l-9 -59h-302zM291 577l12 76h93l-12 -76h-93z" />
    <glyph glyph-name="uni0232" unicode="&#x232;" horiz-adv-x="612" 
d="M219 0l53 330l10 -61l-224 436h103l171 -344h-22l280 344h109l-364 -439l30 64l-53 -330h-93zM230 813l9 59h331l-9 -59h-331z" />
    <glyph glyph-name="uni0233" unicode="&#x233;" horiz-adv-x="534" 
d="M-16 -227l-15 74q49 11 82.5 25.5t58.5 37.5t46 58l35 60l-5 -38l-138 513h95l108 -431h-27l243 431h98l-317 -542q-29 -49 -59 -82t-61.5 -54t-66.5 -33t-77 -19zM175 623l9 59h301l-9 -59h-301z" />
    <glyph glyph-name="uni0237" unicode="&#x237;" horiz-adv-x="243" 
d="M-61 -220q-15 0 -35 3t-34 9l12 75q11 -4 26.5 -7.5t28.5 -3.5q41 0 65.5 25.5t33.5 83.5l85 538h91l-86 -546q-14 -87 -60.5 -132t-126.5 -45z" />
    <glyph glyph-name="uni0253" unicode="&#x253;" horiz-adv-x="605" 
d="M300 -9q-66 0 -110.5 33.5t-54.5 90.5l10 2l-18 -117h-91l91 570q14 88 64 131.5t138 43.5q16 0 31 -2t27 -7l-19 -70q-13 4 -20.5 5t-18.5 1q-95 0 -111 -102l-29 -182l-16 -1q27 58 76.5 91.5t119.5 33.5t117 -32.5t66.5 -94t5.5 -146.5q-20 -121 -90 -184.5
t-168 -63.5zM290 63q68 0 115 47.5t62 138.5q15 95 -18.5 142.5t-105.5 47.5q-66 0 -114.5 -47t-63.5 -137q-14 -96 20.5 -144t104.5 -48z" />
    <glyph glyph-name="uni0257" unicode="&#x257;" horiz-adv-x="604" 
d="M236 -9q-69 0 -116 32.5t-66 94t-6 147.5q20 121 90 184t168 63q66 0 110.5 -33t53.5 -91h-10l29 184q14 89 65 131t137 42q15 0 30 -2t28 -7l-20 -70q-12 4 -20 5t-19 1q-47 0 -75 -26.5t-36 -77.5l-90 -568h-90l18 117h15q-26 -59 -76 -92.5t-120 -33.5zM262 63
q67 0 115 47.5t63 138.5q15 95 -19.5 142.5t-105.5 47.5q-67 0 -114 -47t-62 -137q-15 -96 18.5 -144t104.5 -48z" />
    <glyph glyph-name="uni0259" unicode="&#x259;" horiz-adv-x="545" 
d="M236 -9q-73 0 -120.5 30.5t-66.5 85t-9 124.5l5 30h384l-8 -55h-323l20 15q-14 -78 16 -120.5t104 -42.5q48 0 83.5 22t57.5 61t29 88l4 25q12 90 -26.5 137.5t-126.5 47.5q-41 0 -82 -12t-78 -42l-29 63q41 32 93.5 48t109.5 16q83 0 137.5 -34t77 -96t8.5 -147
q-12 -75 -47 -130t-89 -84.5t-124 -29.5z" />
    <glyph glyph-name="uni02B9" unicode="&#x2b9;" horiz-adv-x="226" 
d="M111 425l21 280h107l-67 -280h-61z" />
    <glyph glyph-name="uni02BA" unicode="&#x2ba;" horiz-adv-x="405" 
d="M111 425l21 280h107l-67 -280h-61zM289 425l21 280h107l-67 -280h-61z" />
    <glyph glyph-name="uni02BB" unicode="&#x2bb;" horiz-adv-x="500" 
d="M247 566l9 65q6 39 23.5 70.5t51.5 56.5l32 -29q-26 -23 -36.5 -43.5t-14.5 -43.5l-21 11h75l-14 -87h-105z" />
    <glyph glyph-name="uni02BC" unicode="&#x2bc;" horiz-adv-x="330" 
d="M220 570l-35 27q24 22 33 42t12 40l23 -11h-75l14 90h105l-11 -66q-5 -37 -19.5 -65.5t-46.5 -56.5z" />
    <glyph glyph-name="uni02BE" unicode="&#x2be;" horiz-adv-x="500" 
d="M297 554l8 46q26 -1 43.5 17t17.5 43q0 21 -11.5 34t-32.5 14l8 46q40 -3 63.5 -28.5t23.5 -62.5q0 -32 -16.5 -57.5t-44 -39.5t-59.5 -12z" />
    <glyph glyph-name="uni02BF" unicode="&#x2bf;" horiz-adv-x="500" 
d="M299 554q-40 2 -64 28.5t-24 62.5q0 32 17 57.5t44.5 39.5t59.5 12l-8 -46q-26 1 -44 -16.5t-18 -44.5q0 -20 12 -33t33 -15z" />
    <glyph glyph-name="circumflex" unicode="&#x2c6;" horiz-adv-x="500" 
d="M145 552l132 202h84l88 -202h-60l-74 144l-108 -144h-62z" />
    <glyph glyph-name="caron" unicode="&#x2c7;" horiz-adv-x="500" 
d="M266 552l-88 202h60l74 -144l108 144h61l-131 -202h-84z" />
    <glyph glyph-name="uni02C8" unicode="&#x2c8;" horiz-adv-x="500" 
d="M272 595l31 201h65l-31 -201h-65z" />
    <glyph glyph-name="uni02C9" unicode="&#x2c9;" horiz-adv-x="500" 
d="M158 623l10 59h300l-9 -59h-301z" />
    <glyph glyph-name="uni02CA" unicode="&#x2ca;" horiz-adv-x="500" 
d="M265 552l125 202h96l-156 -202h-65z" />
    <glyph glyph-name="uni02CB" unicode="&#x2cb;" horiz-adv-x="500" 
d="M305 552l-141 202h94l111 -202h-64z" />
    <glyph glyph-name="uni02CC" unicode="&#x2cc;" horiz-adv-x="500" 
d="M135 -270l31 201h65l-31 -201h-65z" />
    <glyph glyph-name="breve" unicode="&#x2d8;" horiz-adv-x="500" 
d="M313 549q-46 0 -79 23.5t-50 66t-14 101.5l56 6q-3 -66 21 -101.5t69 -35.5t74.5 35.5t38.5 101.5l55 -6q-7 -59 -30 -101.5t-59 -66t-82 -23.5z" />
    <glyph glyph-name="dotaccent" unicode="&#x2d9;" horiz-adv-x="500" 
d="M257 606l15 94h98l-15 -94h-98z" />
    <glyph glyph-name="ring" unicode="&#x2da;" horiz-adv-x="500" 
d="M317 546q-33 0 -60.5 16t-43.5 42.5t-16 59.5t16 59t43.5 42t60.5 16q35 0 62 -16t42.5 -42t15.5 -60q0 -32 -15.5 -58.5t-42.5 -42.5t-62 -16zM317 593q32 0 51.5 20.5t19.5 49.5q0 31 -19.5 51t-51.5 20q-30 0 -50 -20t-20 -50q0 -31 19.5 -51t50.5 -20z" />
    <glyph glyph-name="ogonek" unicode="&#x2db;" horiz-adv-x="500" 
d="M167 -193q-48 0 -74 25t-26 66q0 47 31 83.5t78 55.5l26 -37q-37 -15 -54.5 -39t-17.5 -49q0 -23 14 -37t39 -14q13 0 26 3t28 9l10 -50q-18 -7 -38 -11.5t-42 -4.5z" />
    <glyph glyph-name="tilde" unicode="&#x2dc;" horiz-adv-x="500" 
d="M171 589l-50 3q10 65 41 101t78 36q26 0 44.5 -13t33.5 -28q14 -13 28 -23t31 -10q51 0 69 77l49 -3q-10 -66 -41 -101.5t-76 -35.5q-27 0 -46 13t-34 28q-14 12 -28 22t-31 10q-50 0 -68 -76z" />
    <glyph glyph-name="hungarumlaut" unicode="&#x2dd;" horiz-adv-x="500" 
d="M337 552l72 202h81l-103 -202h-50zM205 552l71 202h82l-103 -202h-50z" />
    <glyph glyph-name="gravecomb" unicode="&#x300;" 
d="M55 552l-141 202h93l112 -202h-64z" />
    <glyph glyph-name="acutecomb" unicode="&#x301;" 
d="M15 552l134 202h97l-166 -202h-65z" />
    <glyph glyph-name="uni0302" unicode="&#x302;" 
d="M-105 552l132 202h84l88 -202h-60l-74 144l-108 -144h-62z" />
    <glyph glyph-name="tildecomb" unicode="&#x303;" 
d="M-79 589l-50 3q10 65 41 101t78 36q26 0 44.5 -13t33.5 -28q14 -13 28 -23t31 -10q51 0 69 77l49 -3q-10 -66 -41 -101.5t-76 -35.5q-27 0 -46 13t-34 28q-14 12 -28 22t-31 10q-50 0 -68 -76z" />
    <glyph glyph-name="uni0304" unicode="&#x304;" 
d="M-92 623l9 59h301l-9 -59h-301z" />
    <glyph glyph-name="uni0306" unicode="&#x306;" 
d="M63 549q-46 0 -79 23.5t-50 66t-14 101.5l56 6q-3 -66 21 -101.5t69 -35.5t74.5 35.5t38.5 101.5l55 -6q-7 -59 -30 -101.5t-59 -66t-82 -23.5z" />
    <glyph glyph-name="uni0307" unicode="&#x307;" 
d="M7 606l15 94h98l-15 -94h-98z" />
    <glyph glyph-name="uni0308" unicode="&#x308;" 
d="M99 606l13 93h93l-14 -93h-92zM-79 606l14 93h93l-14 -93h-93z" />
    <glyph glyph-name="hookabovecomb" unicode="&#x309;" 
d="M30 552l3 21q3 22 14 36.5t24 26.5t23 22.5t10 25.5q0 12 -11 18.5t-32 6.5q-16 0 -31.5 -3.5t-33.5 -12.5l-11 45q21 12 45.5 17t52.5 5q45 0 69.5 -16.5t24.5 -46.5q0 -27 -11.5 -43t-27 -27t-28.5 -24t-18 -35l-3 -16h-59z" />
    <glyph glyph-name="uni030A" unicode="&#x30a;" 
d="M67 546q-33 0 -60.5 16t-43.5 42.5t-16 59.5t16 59t43.5 42t60.5 16q35 0 62 -16t42.5 -42t15.5 -60q0 -32 -15.5 -58.5t-42.5 -42.5t-62 -16zM67 593q32 0 51.5 20.5t19.5 49.5q0 31 -19.5 51t-51.5 20q-30 0 -50 -20t-20 -50q0 -31 19.5 -51t50.5 -20z" />
    <glyph glyph-name="uni030B" unicode="&#x30b;" 
d="M87 552l72 202h81l-103 -202h-50zM-45 552l71 202h82l-103 -202h-50z" />
    <glyph glyph-name="uni030C" unicode="&#x30c;" 
d="M16 552l-88 202h60l74 -144l108 144h61l-131 -202h-84z" />
    <glyph glyph-name="uni030F" unicode="&#x30f;" 
d="M104 552l-67 202h81l36 -202h-50zM-29 552l-66 202h80l37 -202h-51z" />
    <glyph glyph-name="uni0311" unicode="&#x311;" 
d="M-54 549l-55 6q7 59 30.5 101.5t59 66t81.5 23.5t79 -23.5t50 -66t14 -101.5l-56 -6q3 66 -20.5 101.5t-69.5 35.5q-44 0 -74 -35.5t-39 -101.5z" />
    <glyph glyph-name="uni0312" unicode="&#x312;" 
d="M-4 566l11 70q7 40 22.5 69.5t49.5 52.5l31 -30q-26 -21 -34.5 -40.5t-13.5 -45.5l-20 11h75l-15 -87h-106z" />
    <glyph glyph-name="uni031B" unicode="&#x31b;" 
d="M79 434l-46 31l4 22q41 1 65.5 12.5t37.5 36t20 63.5l2 17h82l-6 -35q-10 -66 -51 -104.5t-108 -42.5z" />
    <glyph glyph-name="dotbelowcomb" unicode="&#x323;" 
d="M-120 -191l16 94h98l-15 -94h-99z" />
    <glyph glyph-name="uni0324" unicode="&#x324;" 
d="M-27 -183l14 91h93l-15 -91h-92zM-205 -183l15 91h93l-15 -91h-93z" />
    <glyph glyph-name="uni0326" unicode="&#x326;" 
d="M-85 -270l-31 30q27 21 35.5 40.5t12.5 46.5l20 -12h-74l14 87h106l-12 -70q-6 -40 -21.5 -69.5t-49.5 -52.5z" />
    <glyph glyph-name="uni0327" unicode="&#x327;" 
d="M-67 -193q-26 0 -50 5.5t-40 14.5l18 47q18 -9 34.5 -13t38.5 -4q27 0 44 9.5t17 28.5q0 11 -9 17.5t-26 6.5q-10 0 -20.5 -1.5t-26.5 -5.5l-15 16l29 92h55l-25 -76l-26 8q13 3 24.5 5t21.5 2q35 0 56.5 -16t21.5 -47q0 -40 -34.5 -64.5t-87.5 -24.5z" />
    <glyph glyph-name="uni0328" unicode="&#x328;" 
d="M-83 -193q-48 0 -74 25t-26 66q0 47 31 83.5t78 55.5l26 -37q-37 -15 -54.5 -39t-17.5 -49q0 -23 14 -37t39 -14q13 0 26 3t28 9l10 -50q-18 -7 -38 -11.5t-42 -4.5z" />
    <glyph glyph-name="uni032E" unicode="&#x32e;" 
d="M-61 -215q-69 0 -110 40.5t-36 110.5l55 5q-2 -46 23 -72t70 -26t73.5 26t36.5 72l56 -5q-9 -70 -54 -110.5t-114 -40.5z" />
    <glyph glyph-name="uni0331" unicode="&#x331;" 
d="M-215 -158l9 59h301l-9 -59h-301z" />
    <glyph glyph-name="uni0335" unicode="&#x335;" 
d="M-144 527l11 67h374l-11 -67h-374z" />
    <glyph glyph-name="uni0337" unicode="&#x337;" 
d="M-113 254l-31 67l293 140l32 -67z" />
    <glyph glyph-name="uni0338" unicode="&#x338;" 
d="M115 -40l-45 33l395 538l44 -32z" />
    <glyph glyph-name="uni0394" unicode="&#x394;" horiz-adv-x="732" 
d="M-6 0l9 54l388 651h77l182 -651l-7 -54h-649zM416 599l-328 -558l6 35h479l-6 -35l-149 558h-2z" />
    <glyph glyph-name="Sigma" unicode="&#x3a3;" horiz-adv-x="609" 
d="M-19 -180l11 66l339 393l7 -32l-226 392l10 66h513l-12 -79h-414l-4 23l208 -359l-9 -55l-311 -359l1 23h413l-12 -79h-514z" />
    <glyph glyph-name="uni03A9" unicode="&#x3a9;" horiz-adv-x="791" 
d="M-2 0l12 77h239l-1 -25q-90 65 -134 143.5t-44 164.5q0 107 45 186.5t127.5 123.5t194.5 44q70 0 127.5 -20.5t100 -57.5t65.5 -87.5t23 -111.5q0 -93 -35 -167t-98.5 -128.5t-149.5 -89.5l1 25h242l-12 -77h-295l12 74q108 60 173 145.5t65 201.5q0 63 -26.5 110.5
t-76.5 74t-120 26.5q-85 0 -144.5 -35.5t-90.5 -98t-31 -143.5q0 -74 34.5 -144.5t103.5 -136.5l-12 -74h-295z" />
    <glyph glyph-name="uni03BC" unicode="&#x3bc;" horiz-adv-x="582" 
d="M1 -216l112 719h91l-46 -303q-11 -68 12 -101.5t77 -33.5q69 0 111.5 45t53.5 119l41 274h92l-78 -503h-91l17 110h7q-22 -55 -63.5 -87t-98.5 -32q-42 0 -70 15.5t-40 46.5l4 1l-37 -270h-94z" />
    <glyph glyph-name="pi" unicode="&#x3c0;" horiz-adv-x="599" 
d="M-4 0q34 66 60.5 134.5t46 142.5t31.5 156h-101l12 70h557l-12 -70h-115l-37 -241q-7 -40 0 -67t30.5 -42t65.5 -18l28 -2l-11 -70l-36 2q-68 4 -108.5 26.5t-54.5 66t-4 111.5l36 234h-159q-14 -91 -33.5 -167.5t-44 -142t-55.5 -123.5h-96z" />
    <glyph glyph-name="uni0400" unicode="&#x400;" horiz-adv-x="590" 
d="M46 0l112 705h456l-13 -76h-366l-36 -233h343l-12 -76h-343l-39 -244h365l-11 -76h-456zM383 765l-136 172h99l105 -172h-68z" />
    <glyph glyph-name="uni0401" unicode="&#x401;" horiz-adv-x="590" 
d="M46 0l112 705h456l-13 -76h-366l-36 -233h343l-12 -76h-343l-39 -244h365l-11 -76h-456zM464 802l15 93h93l-16 -93h-92zM286 802l15 93h93l-15 -93h-93z" />
    <glyph glyph-name="uni0402" unicode="&#x402;" horiz-adv-x="862" 
d="M524 -189q-35 0 -65.5 5.5t-51.5 15.5l22 70q19 -8 42 -12t50 -4q64 0 105 41t53 122l15 93q18 110 -24.5 162t-146.5 52q-46 0 -87 -9.5t-77 -27.5l-50 -319h-94l100 626h-245l13 79h583l-14 -79h-244l-36 -224q32 16 78.5 25.5t93.5 9.5q140 0 203.5 -72t40.5 -217
l-15 -96q-13 -83 -45.5 -136.5t-84 -79t-119.5 -25.5z" />
    <glyph glyph-name="uni0403" unicode="&#x403;" horiz-adv-x="559" 
d="M46 0l112 705h459l-13 -78h-367l-98 -627h-93zM332 765l131 172h102l-165 -172h-68z" />
    <glyph glyph-name="uni0404" unicode="&#x404;" horiz-adv-x="692" 
d="M384 -9q-91 0 -155 27.5t-102 78t-50 119t1 150.5q18 111 69.5 189t132.5 119t188 40q71 0 127 -20.5t94 -58.5l-36 -75q-44 39 -86.5 55t-107.5 16q-116 0 -187 -69.5t-95 -191.5l-24 26h389l-12 -76h-390l33 22q-16 -125 37 -196.5t177 -71.5q58 0 110.5 19t98.5 61
l32 -74q-47 -43 -111.5 -66t-132.5 -23z" />
    <glyph glyph-name="uni0405" unicode="&#x405;" horiz-adv-x="628" 
d="M286 -9q-83 0 -149.5 20t-110.5 52l37 74q48 -30 102 -48t127 -18q86 0 132 31.5t53 81.5q8 47 -16.5 74.5t-92.5 37.5l-96 15q-97 14 -140 67t-30 135q9 60 47.5 105t100.5 70.5t144 25.5q72 0 131 -20t96 -53l-36 -73q-39 32 -88 49t-113 17q-80 0 -130 -33t-60 -90
q-8 -49 17 -79.5t93 -40.5l98 -14q98 -14 140 -63t29 -132q-9 -55 -46 -98.5t-97.5 -68t-141.5 -24.5z" />
    <glyph glyph-name="uni0406" unicode="&#x406;" horiz-adv-x="264" 
d="M46 0l112 705h93l-112 -705h-93z" />
    <glyph glyph-name="uni0407" unicode="&#x407;" horiz-adv-x="264" 
d="M46 0l112 705h93l-112 -705h-93zM262 802l15 93h93l-16 -93h-92zM84 802l15 93h93l-15 -93h-93z" />
    <glyph glyph-name="uni0408" unicode="&#x408;" horiz-adv-x="337" 
d="M12 -187q-16 0 -37 2.5t-42 9.5l11 76q19 -7 35.5 -9t29.5 -2q46 0 73 28t37 89l110 698h94l-112 -704q-10 -63 -34.5 -105t-65 -62.5t-99.5 -20.5z" />
    <glyph glyph-name="uni0409" unicode="&#x409;" horiz-adv-x="1165" 
d="M23 -15l-42 70q47 22 85 52t68 77.5t53.5 120t40.5 178.5l35 222h473l-49 -308h207q118 0 175 -52.5t41 -158.5q-14 -92 -83.5 -139t-179.5 -47h-316l99 627h-294l-26 -164q-17 -109 -43.5 -189t-61.5 -135t-80.5 -92t-101.5 -62zM635 74h207q81 0 125 30t54 93
q10 65 -23.5 95.5t-114.5 30.5h-208z" />
    <glyph glyph-name="uni040A" unicode="&#x40a;" horiz-adv-x="1182" 
d="M46 0l112 705h92l-49 -308h410l49 308h92l-49 -308h207q119 0 176 -52.5t41 -158.5q-14 -92 -84 -139t-179 -47h-316l51 319h-410l-51 -319h-92zM652 74h207q81 0 125 30t54 93q9 65 -24 95.5t-114 30.5h-208z" />
    <glyph glyph-name="uni040B" unicode="&#x40b;" horiz-adv-x="867" 
d="M215 0l100 626h-245l13 79h583l-13 -79h-245l-36 -224q35 17 83.5 26t93.5 9q141 0 204 -73.5t40 -215.5l-23 -148h-93l22 142q18 112 -25 163.5t-144 51.5q-43 0 -86.5 -8.5t-84.5 -29.5l-50 -319h-94z" />
    <glyph glyph-name="uni040C" unicode="&#x40c;" horiz-adv-x="664" 
d="M46 0l112 705h92l-50 -311h138l-29 -16l274 327h108l-292 -343l-32 28q62 -8 100.5 -43.5t60.5 -100.5l84 -246h-94l-68 206q-19 60 -55 85t-92 25h-115l-50 -316h-92zM385 765l131 172h102l-165 -172h-68z" />
    <glyph glyph-name="uni040D" unicode="&#x40d;" horiz-adv-x="748" 
d="M46 0l112 705h86l-93 -586h-24l536 586h72l-112 -705h-87l93 586l22 -1l-535 -585h-70zM424 765l-136 172h99l105 -172h-68z" />
    <glyph glyph-name="uni040E" unicode="&#x40e;" horiz-adv-x="666" 
d="M156 0l159 230v-34l-247 509h97l204 -426h-19l293 426h101l-486 -705h-102zM412 760q-45 0 -82.5 15t-63 45t-36.5 73l52 19q16 -50 48.5 -73t83.5 -23q52 0 87.5 22t66.5 73l48 -18q-22 -47 -53.5 -76.5t-70 -43t-80.5 -13.5z" />
    <glyph glyph-name="uni040F" unicode="&#x40f;" horiz-adv-x="767" 
d="M276 -159l26 159h-256l112 705h93l-101 -626h411l100 626h92l-112 -705h-256l-25 -159h-84z" />
    <glyph glyph-name="uni0410" unicode="&#x410;" horiz-adv-x="738" 
d="M-26 0l424 705h81l205 -705h-92l-56 200l37 -24h-429l47 24l-118 -200h-99zM425 601l-215 -370l-21 21h363l-22 -21l-102 370h-3z" />
    <glyph glyph-name="uni0411" unicode="&#x411;" horiz-adv-x="680" 
d="M46 0l112 705h481l-13 -75h-391l-36 -233h209q118 0 175.5 -52.5t41.5 -158.5q-14 -92 -84 -139t-179 -47h-316zM148 74h209q81 0 124.5 30t53.5 93q10 65 -23 95.5t-114 30.5h-211z" />
    <glyph glyph-name="uni0412" unicode="&#x412;" horiz-adv-x="683" 
d="M46 0l112 705h292q110 0 162.5 -49t38.5 -141q-11 -66 -56.5 -107.5t-116.5 -56.5l2 15q76 -9 111.5 -58t24.5 -123q-15 -92 -83.5 -138.5t-183.5 -46.5h-303zM148 74h202q73 0 119.5 27.5t56.5 87.5q8 49 -7 77.5t-47 41t-78 12.5h-208zM199 394h184q79 0 122.5 29
t51.5 82q10 65 -21.5 96t-102.5 31h-197z" />
    <glyph glyph-name="uni0413" unicode="&#x413;" horiz-adv-x="559" 
d="M46 0l112 705h459l-13 -78h-367l-98 -627h-93z" />
    <glyph glyph-name="uni0414" unicode="&#x414;" horiz-adv-x="807" 
d="M-49 -159l37 235h72q64 64 107 173.5t68 271.5l30 184h487l-100 -629h104l-37 -235h-83l25 159h-601l-26 -159h-83zM161 76h399l87 554h-309l-18 -114q-24 -159 -63 -264.5t-96 -175.5z" />
    <glyph glyph-name="uni0415" unicode="&#x415;" horiz-adv-x="590" 
d="M46 0l112 705h456l-13 -76h-366l-36 -233h343l-12 -76h-343l-39 -244h365l-11 -76h-456z" />
    <glyph glyph-name="uni0416" unicode="&#x416;" horiz-adv-x="1006" 
d="M-33 0l161 246q43 65 94 100.5t119 43.5l-36 -28l-182 343h98l170 -327l-18 16h108l50 311h89l-49 -311h109l-30 -16l275 327h107l-291 -343l-31 28q56 -7 96.5 -43t62.5 -101l85 -246h-95l-68 206q-20 59 -55 84.5t-91 25.5h-86l-51 -316h-89l49 316h-85
q-58 0 -99.5 -25.5t-79.5 -84.5l-132 -206h-105z" />
    <glyph glyph-name="uni0417" unicode="&#x417;" horiz-adv-x="651" 
d="M288 -9q-89 0 -156.5 24t-107.5 65l35 70q43 -39 99 -59t133 -20q92 0 143 32t61 93q9 64 -25.5 93.5t-113.5 29.5h-181l12 76h166q81 0 123 30t51 85q9 59 -29.5 91.5t-126.5 32.5q-65 0 -125.5 -19t-113.5 -57l-32 70q57 42 130.5 64t152.5 22q88 0 143.5 -24.5t79 -69
t14.5 -104.5q-10 -60 -53 -104t-120 -60l2 14q73 -10 110.5 -57t24.5 -124q-9 -60 -45 -103.5t-99 -67t-152 -23.5z" />
    <glyph glyph-name="uni0418" unicode="&#x418;" horiz-adv-x="748" 
d="M46 0l112 705h86l-93 -586h-24l536 586h72l-112 -705h-87l93 586l22 -1l-535 -585h-70z" />
    <glyph glyph-name="uni0419" unicode="&#x419;" horiz-adv-x="748" 
d="M46 0l112 705h86l-93 -586h-24l536 586h72l-112 -705h-87l93 586l22 -1l-535 -585h-70zM453 760q-45 0 -82.5 15t-63 45t-36.5 73l52 19q16 -50 48.5 -73t83.5 -23q52 0 87.5 22t66.5 73l48 -18q-22 -47 -53.5 -76.5t-70 -43t-80.5 -13.5z" />
    <glyph glyph-name="uni041A" unicode="&#x41a;" horiz-adv-x="664" 
d="M46 0l112 705h92l-50 -311h138l-29 -16l274 327h108l-292 -343l-32 28q62 -8 100.5 -43.5t60.5 -100.5l84 -246h-94l-68 206q-19 60 -55 85t-92 25h-115l-50 -316h-92z" />
    <glyph glyph-name="uni041B" unicode="&#x41b;" horiz-adv-x="764" 
d="M23 -15l-42 70q47 22 85 52t68 77.5t53.5 120t40.5 178.5l35 222h488l-112 -705h-93l100 627h-310l-26 -164q-17 -109 -43.5 -189t-61.5 -135t-80.5 -92t-101.5 -62z" />
    <glyph glyph-name="uni041C" unicode="&#x41c;" horiz-adv-x="861" 
d="M46 0l112 705h82l178 -626h-30l378 626h81l-112 -705h-85l92 581h32l-354 -581h-57l-170 581h30l-92 -581h-85z" />
    <glyph glyph-name="uni041D" unicode="&#x41d;" horiz-adv-x="768" 
d="M46 0l112 705h93l-49 -308h410l49 308h94l-112 -705h-94l51 318h-410l-51 -318h-93z" />
    <glyph glyph-name="uni041E" unicode="&#x41e;" horiz-adv-x="776" 
d="M78 366q18 111 68 189t128 118.5t177 40.5q107 0 174.5 -47.5t94.5 -132t9 -194.5q-17 -111 -67.5 -189t-128 -119t-177.5 -41q-106 0 -174 47.5t-94.5 132t-9.5 195.5zM175 356q-14 -88 3.5 -151.5t64.5 -97.5t120 -34q112 0 180.5 73.5t88.5 203.5q15 88 -3 151t-65 97
t-121 34q-111 0 -178.5 -72.5t-89.5 -203.5z" />
    <glyph glyph-name="uni041F" unicode="&#x41f;" horiz-adv-x="767" 
d="M46 0l112 705h595l-112 -705h-92l98 627h-410l-99 -627h-92z" />
    <glyph glyph-name="uni0420" unicode="&#x420;" horiz-adv-x="655" 
d="M46 0l112 705h283q117 0 170.5 -57.5t36.5 -158.5q-9 -60 -42 -103t-87 -65.5t-127 -22.5h-206l-47 -298h-93zM198 374h190q74 0 116.5 30.5t52.5 91.5q11 66 -22 99.5t-108 33.5h-189z" />
    <glyph glyph-name="uni0421" unicode="&#x421;" horiz-adv-x="685" 
d="M375 -9q-117 0 -188.5 47.5t-98.5 132t-10 195.5q18 111 69 189t131 119t183 40q72 0 127 -20.5t94 -59.5l-36 -75q-43 39 -86.5 55t-103.5 16q-114 0 -187 -71t-94 -202q-13 -85 4.5 -148.5t68.5 -98.5t136 -35q54 0 106.5 18.5t99.5 59.5l31 -73q-47 -43 -112.5 -66
t-133.5 -23z" />
    <glyph glyph-name="uni0422" unicode="&#x422;" horiz-adv-x="607" 
d="M215 0l100 626h-245l13 79h583l-13 -79h-245l-99 -626h-94z" />
    <glyph glyph-name="uni0423" unicode="&#x423;" horiz-adv-x="666" 
d="M156 0l159 230v-34l-247 509h97l204 -426h-19l293 426h101l-486 -705h-102z" />
    <glyph glyph-name="uni0424" unicode="&#x424;" horiz-adv-x="877" 
d="M349 -23l15 99l22 -20h-24q-104 0 -172.5 39t-96.5 110t-14 166q23 141 119 215t246 74h37l-27 -20l15 93h93l-16 -93l-21 20h24q106 0 174 -38.5t96 -109t13 -167.5q-15 -92 -64 -157t-126 -98.5t-175 -33.5h-38l28 20l-16 -99h-92zM371 110l78 495l18 -18h-37
q-102 0 -170 -55.5t-86 -166.5q-12 -76 7.5 -129t64.5 -80t112 -27h37zM462 110l-19 19h38q67 0 121 25.5t89.5 75t45.5 120.5q13 79 -6 131t-64.5 79t-113.5 27h-38l25 18z" />
    <glyph glyph-name="uni0425" unicode="&#x425;" horiz-adv-x="657" 
d="M-37 0l343 378l-1 -36l-214 363h106l169 -296h-29l261 296h116l-329 -363v36l224 -378h-106l-181 314h36l-280 -314h-115z" />
    <glyph glyph-name="uni0426" unicode="&#x426;" horiz-adv-x="807" 
d="M636 -159l25 159h-615l112 705h92l-100 -626h411l100 626h92l-100 -626h104l-38 -238h-83z" />
    <glyph glyph-name="uni0427" unicode="&#x427;" horiz-adv-x="696" 
d="M478 0l46 293q-34 -16 -81.5 -25t-95.5 -9q-92 0 -151.5 32t-83.5 96.5t-9 160.5l26 157h92l-24 -151q-19 -116 24 -165t146 -49q45 0 87.5 8.5t83.5 28.5l52 328h93l-112 -705h-93z" />
    <glyph glyph-name="uni0428" unicode="&#x428;" horiz-adv-x="1086" 
d="M46 0l112 705h91l-99 -626h320l99 626h92l-100 -626h320l99 626h92l-112 -705h-914z" />
    <glyph glyph-name="uni0429" unicode="&#x429;" horiz-adv-x="1126" 
d="M955 -159l25 159h-934l112 705h91l-99 -626h320l99 626h92l-100 -626h320l99 626h92l-100 -626h103l-37 -238h-83z" />
    <glyph glyph-name="uni042A" unicode="&#x42a;" horiz-adv-x="825" 
d="M191 0l99 627h-220l13 78h313l-49 -308h207q118 0 175 -52.5t41 -158.5q-14 -92 -83.5 -139t-179.5 -47h-316zM295 74h207q81 0 125 30t54 93q10 65 -23.5 95.5t-114.5 30.5h-208z" />
    <glyph glyph-name="uni042B" unicode="&#x42b;" horiz-adv-x="884" 
d="M46 0l112 705h93l-49 -308h176q118 0 175.5 -52.5t41.5 -158.5q-14 -92 -84 -139t-179 -47h-286zM150 74h177q81 0 125 30t53 93q10 65 -23 95.5t-114 30.5h-178zM666 0l112 705h93l-112 -705h-93z" />
    <glyph glyph-name="uni042C" unicode="&#x42c;" horiz-adv-x="680" 
d="M46 0l112 705h93l-49 -308h206q118 0 175.5 -52.5t41.5 -158.5q-14 -92 -84 -139t-179 -47h-316zM150 74h207q81 0 124.5 30t53.5 93q10 65 -23 95.5t-114 30.5h-208z" />
    <glyph glyph-name="uni042D" unicode="&#x42d;" horiz-adv-x="692" 
d="M255 -9q-71 0 -126.5 20.5t-95.5 59.5l37 75q43 -39 86 -55.5t107 -16.5q117 0 188.5 69.5t94.5 191.5l27 -15h-390l12 76h389l-34 -33q16 125 -36.5 196.5t-174.5 71.5q-57 0 -110.5 -19t-101.5 -61l-32 75q51 44 118.5 66t134.5 22q87 0 149.5 -27.5t99.5 -77.5
t49.5 -119t-0.5 -151q-18 -110 -70 -188.5t-133 -119.5t-188 -40z" />
    <glyph glyph-name="uni042E" unicode="&#x42e;" horiz-adv-x="1048" 
d="M628 -9q-96 0 -162 40t-96 113.5t-23 174.5h-158l-50 -319h-93l112 705h93l-49 -309h155q32 155 129 236.5t237 81.5q107 0 175 -47t95 -131.5t9 -194.5q-18 -111 -69.5 -189.5t-129.5 -119.5t-175 -41zM634 73q108 0 179 73.5t92 203.5q14 88 -4 151t-65 97t-121 34
q-111 0 -179 -72.5t-89 -203.5q-14 -87 2.5 -150.5t63 -98t121.5 -34.5z" />
    <glyph glyph-name="uni042F" unicode="&#x42f;" horiz-adv-x="692" 
d="M-6 0l164 227q31 44 66 65t77 21h27l-19 -14q-70 0 -118 25t-69.5 73t-11.5 114q16 95 84 144.5t183 49.5h302l-112 -705h-93l47 294h-120q-32 0 -56 -5.5t-43 -20.5t-38 -43l-162 -225h-108zM337 366h195l42 264h-188q-87 0 -131.5 -32.5t-54.5 -95.5
q-11 -67 24.5 -101.5t112.5 -34.5z" />
    <glyph glyph-name="uni0430" unicode="&#x430;" horiz-adv-x="616" 
d="M241 -9q-69 0 -116 32.5t-66 94t-6 147.5q20 121 90 184t168 63q66 0 110.5 -33t53.5 -91l-11 -1l30 116h87q-7 -30 -14.5 -60t-12.5 -59l-60 -384h-91l19 117h15q-26 -59 -76 -92.5t-120 -33.5zM267 63q67 0 115 47.5t63 138.5q15 95 -19.5 142.5t-105.5 47.5
q-67 0 -114 -47t-62 -137q-15 -96 18.5 -144t104.5 -48z" />
    <glyph glyph-name="uni0431" unicode="&#x431;" horiz-adv-x="588" 
d="M264 -9q-119 0 -175 74t-34 211l17 103q19 123 91.5 206.5t201.5 113.5l191 46l15 -76l-191 -44q-99 -24 -151 -81.5t-67 -146.5l-7 -43h-16q19 45 50 78t71.5 50.5t88.5 17.5q68 0 114 -31t65.5 -90t5.5 -143q-13 -80 -51 -134.5t-94 -82.5t-125 -28zM267 63
q67 0 115.5 46.5t61.5 135.5q15 90 -19.5 137t-106.5 47q-68 0 -115 -47t-61 -135q-15 -90 19 -137t106 -47z" />
    <glyph glyph-name="uni0432" unicode="&#x432;" horiz-adv-x="563" 
d="M38 0l80 503h242q62 0 100 -15.5t53 -45.5t8 -75q-7 -46 -45 -78t-92 -39v13q62 -2 93.5 -36.5t22.5 -90.5q-11 -67 -63.5 -101.5t-135.5 -34.5h-263zM133 60h165q51 0 81.5 20t37.5 62q6 42 -18 63t-75 21h-165zM169 286h156q47 0 75.5 21t34.5 57q6 39 -16 59t-71 20
h-155z" />
    <glyph glyph-name="uni0433" unicode="&#x433;" horiz-adv-x="450" 
d="M38 0l80 503h356l-11 -73h-266l-68 -430h-91z" />
    <glyph glyph-name="uni0434" unicode="&#x434;" horiz-adv-x="614" 
d="M-35 -130l32 201h55q43 51 69.5 120t41.5 164l23 148h361l-68 -432h79l-32 -201h-78l21 130h-404l-21 -130h-79zM141 70h252l57 363h-196l-14 -94q-12 -76 -37 -147.5t-62 -121.5z" />
    <glyph glyph-name="uni0435" unicode="&#x435;" horiz-adv-x="556" 
d="M281 -9q-85 0 -140 34t-77.5 96.5t-9.5 146.5q12 77 48 131.5t92 83.5t127 29q70 0 115.5 -30.5t65 -84.5t8.5 -125l-5 -30h-384l8 54h323l-18 -14q12 79 -18 121.5t-100 42.5q-50 0 -86.5 -22.5t-58.5 -61t-28 -88.5l-4 -25q-12 -89 26 -137.5t126 -48.5q42 0 83 13
t77 43l30 -63q-40 -31 -92 -48t-108 -17z" />
    <glyph glyph-name="uni0436" unicode="&#x436;" horiz-adv-x="814" 
d="M-43 0l134 179q28 37 51.5 59t47.5 33.5t52 14.5l-23 -28l-153 245h96l129 -208h79l33 208h91l-33 -208h74l195 208h104l-229 -245l-20 28q27 -3 46 -14.5t35 -33.5t33 -59l76 -179h-93l-67 155q-11 27 -24 42t-31.5 21t-45.5 6h-65l-35 -224h-90l35 224h-65
q-28 0 -46.5 -6t-35 -21t-37.5 -42l-115 -155h-103z" />
    <glyph glyph-name="uni0437" unicode="&#x437;" horiz-adv-x="513" 
d="M215 -9q-64 0 -118.5 17t-85.5 48l32 63q32 -30 78 -45t98 -15q70 0 106 21.5t41 62.5q7 39 -17 59t-76 20h-121l10 66h112q46 0 76 20.5t35 56.5q6 37 -20.5 58.5t-90.5 21.5q-52 0 -97.5 -13t-88.5 -38l-26 59q47 30 104.5 44.5t123.5 14.5q97 0 144 -38t36 -106
q-7 -46 -44.5 -78.5t-91.5 -39.5l2 13q61 -3 92 -38.5t22 -90.5q-10 -64 -68.5 -103.5t-166.5 -39.5z" />
    <glyph glyph-name="uni0438" unicode="&#x438;" horiz-adv-x="600" 
d="M38 0l80 503h82l-65 -417l-29 1l379 416h76l-79 -503h-83l67 418l29 -2l-381 -416h-76z" />
    <glyph glyph-name="uni0439" unicode="&#x439;" horiz-adv-x="600" 
d="M38 0l80 503h82l-65 -417l-29 1l379 416h76l-79 -503h-83l67 418l29 -2l-381 -416h-76zM351 549q-41 0 -75.5 15.5t-57.5 45.5t-32 72l50 19q14 -50 43.5 -73t74.5 -23q46 0 76.5 22t56.5 73l49 -18q-19 -47 -47.5 -76.5t-63 -43t-74.5 -13.5z" />
    <glyph glyph-name="uni043A" unicode="&#x43a;" horiz-adv-x="545" 
d="M38 0l80 503h90l-33 -208h88l195 208h104l-227 -245l-22 28q29 -3 47.5 -14.5t34 -33.5t32.5 -59l76 -179h-94l-66 155q-12 27 -25 42t-31 21t-45 6h-78l-36 -224h-90z" />
    <glyph glyph-name="uni043B" unicode="&#x43b;" horiz-adv-x="592" 
d="M14 -12l-23 73q38 15 64.5 37t45.5 56.5t33 85t25 121.5l24 142h371l-80 -503h-90l68 432h-197l-13 -79q-13 -85 -32.5 -146.5t-46.5 -104.5t-63.5 -70t-85.5 -44z" />
    <glyph glyph-name="uni043C" unicode="&#x43c;" horiz-adv-x="678" 
d="M38 0l80 503h76l133 -329l237 329h76l-80 -503h-80l64 401h24l-231 -320h-45l-129 321h19l-64 -402h-80z" />
    <glyph glyph-name="uni043D" unicode="&#x43d;" horiz-adv-x="602" 
d="M38 0l80 503h90l-33 -208h266l33 208h90l-80 -503h-90l36 223h-266l-36 -223h-90z" />
    <glyph glyph-name="uni043E" unicode="&#x43e;" horiz-adv-x="587" 
d="M260 -9q-76 0 -127.5 32t-72 93.5t-7.5 148.5q13 80 51 135.5t94.5 83.5t126.5 28q78 0 129 -32t72 -93.5t7 -147.5q-13 -81 -51 -136t-95 -83.5t-127 -28.5zM266 63q67 0 114.5 47.5t62.5 138.5q15 95 -19.5 142.5t-104.5 47.5q-67 0 -113.5 -47t-61.5 -137
q-15 -96 18 -144t104 -48z" />
    <glyph glyph-name="uni043F" unicode="&#x43f;" horiz-adv-x="599" 
d="M38 0l80 503h443l-80 -503h-90l68 432h-262l-69 -432h-90z" />
    <glyph glyph-name="uni0440" unicode="&#x440;" horiz-adv-x="616" 
d="M7 -216l95 600q5 29 7.5 59t3.5 60h88l-8 -116h-15q27 58 76.5 91.5t119.5 33.5t117 -32.5t66.5 -94t5.5 -146.5q-20 -121 -90 -184.5t-168 -63.5q-66 0 -110.5 33.5t-54.5 90.5h11l-53 -331h-91zM295 63q68 0 115 47.5t62 138.5q15 95 -18.5 142.5t-105.5 47.5
q-66 0 -114.5 -47t-63.5 -137q-14 -96 20.5 -144t104.5 -48z" />
    <glyph glyph-name="uni0441" unicode="&#x441;" horiz-adv-x="508" 
d="M266 -9q-77 0 -129.5 33t-74.5 94.5t-9 146.5q20 121 94 184t182 63q47 0 90 -15t70 -44l-34 -62q-26 25 -59 36.5t-64 11.5q-73 0 -122.5 -46.5t-64.5 -135.5q-15 -91 21.5 -141.5t112.5 -50.5q33 0 70.5 12.5t69.5 41.5l29 -64q-31 -30 -81.5 -47t-100.5 -17z" />
    <glyph glyph-name="uni0442" unicode="&#x442;" horiz-adv-x="462" 
d="M146 0l67 430h-180l12 73h452l-12 -73h-181l-68 -430h-90z" />
    <glyph glyph-name="uni0443" unicode="&#x443;" horiz-adv-x="544" 
d="M-11 -227l-15 74q49 11 82.5 25.5t58.5 37.5t46 58l35 60l-5 -38l-138 513h95l108 -431h-27l243 431h98l-317 -542q-29 -49 -59 -82t-61.5 -54t-66.5 -33t-77 -19z" />
    <glyph glyph-name="uni0444" unicode="&#x444;" horiz-adv-x="826" 
d="M294 -216l51 325h13q-25 -57 -65 -87.5t-93 -30.5q-58 0 -95.5 34t-51 95t-0.5 142q20 122 78 186t139 64q55 0 89 -30.5t42 -86.5h-10l54 341h90l-54 -341h-13q26 56 66 86.5t91 30.5q60 0 97.5 -33.5t51 -94.5t0.5 -142q-20 -122 -78.5 -186.5t-140.5 -64.5
q-53 0 -87.5 31t-42.5 87h10l-51 -325h-90zM227 62q54 0 91 48t52 142q14 92 -9.5 141t-76.5 49q-52 0 -90 -49t-52 -141q-15 -94 8 -142t77 -48zM541 62q53 0 91 48t53 141q15 92 -9 141.5t-77 49.5q-54 0 -91 -49.5t-51 -141.5q-15 -93 8 -141t76 -48z" />
    <glyph glyph-name="uni0445" unicode="&#x445;" horiz-adv-x="549" 
d="M-32 0l272 282l-1 -45l-173 266h103l125 -201h-32l189 201h113l-255 -264l3 41l181 -280h-106l-135 215h34l-204 -215h-114z" />
    <glyph glyph-name="uni0446" unicode="&#x446;" horiz-adv-x="616" 
d="M452 -130l21 130h-435l80 503h90l-68 -432h252l68 432h89l-67 -432h79l-32 -201h-77z" />
    <glyph glyph-name="uni0447" unicode="&#x447;" horiz-adv-x="568" 
d="M361 0l31 199q-30 -16 -65 -24.5t-72 -8.5q-65 0 -109 22.5t-62.5 67.5t-7.5 113l21 134h91l-20 -127q-12 -71 15.5 -102.5t96.5 -31.5q36 0 65 7.5t58 24.5l36 229h90l-79 -503h-89z" />
    <glyph glyph-name="uni0448" unicode="&#x448;" horiz-adv-x="824" 
d="M38 0l80 503h86l-68 -432h204l68 432h86l-68 -432h205l68 432h86l-79 -503h-668z" />
    <glyph glyph-name="uni0449" unicode="&#x449;" horiz-adv-x="852" 
d="M687 -130l21 130h-670l80 503h86l-68 -432h204l68 432h86l-68 -432h205l68 432h86l-67 -432h78l-32 -201h-77z" />
    <glyph glyph-name="uni044A" unicode="&#x44a;" horiz-adv-x="636" 
d="M122 0l68 430h-157l12 73h247l-29 -178h142q102 0 145.5 -44.5t30.5 -125.5q-13 -79 -69.5 -117t-150.5 -38h-239zM222 63h139q59 0 93 22.5t42 72.5q9 55 -18.5 79.5t-86.5 24.5h-138z" />
    <glyph glyph-name="uni044B" unicode="&#x44b;" horiz-adv-x="754" 
d="M38 0l80 503h90l-28 -178h142q101 0 144.5 -44.5t31.5 -125.5q-13 -79 -69.5 -117t-150.5 -38h-240zM139 63h138q59 0 93 22.5t42 72.5q9 55 -18 79.5t-86 24.5h-138zM546 0l80 503h90l-80 -503h-90z" />
    <glyph glyph-name="uni044C" unicode="&#x44c;" horiz-adv-x="552" 
d="M38 0l80 503h90l-28 -178h142q101 0 144.5 -44.5t31.5 -125.5q-13 -79 -69.5 -117t-150.5 -38h-240zM139 63h138q59 0 93 22.5t42 72.5q9 55 -18 79.5t-86 24.5h-138z" />
    <glyph glyph-name="uni044D" unicode="&#x44d;" horiz-adv-x="524" 
d="M187 -9q-54 0 -97.5 15t-70.5 44l32 59q27 -25 61.5 -37t71.5 -12q81 0 132 46.5t66 126.5l11 -10h-264l11 66h265l-20 -29q11 89 -27 136t-117 47q-40 0 -79 -12.5t-74 -42.5l-25 60q32 30 84 47t107 17q78 0 131.5 -33t76.5 -94t9 -146q-13 -81 -52 -136.5t-98 -83.5
t-134 -28z" />
    <glyph glyph-name="uni044E" unicode="&#x44e;" horiz-adv-x="798" 
d="M472 -9q-104 0 -161 61t-49 171h-100l-35 -223h-89l80 503h88l-33 -208h99q27 106 97 161.5t168 55.5q78 0 129 -32t71.5 -93.5t6.5 -147.5q-13 -81 -50.5 -136t-94.5 -83.5t-127 -28.5zM478 63q67 0 114.5 47.5t61.5 138.5q15 95 -19.5 142.5t-103.5 47.5
q-67 0 -113.5 -47t-61.5 -137q-15 -96 18 -144t104 -48z" />
    <glyph glyph-name="uni044F" unicode="&#x44f;" horiz-adv-x="554" 
d="M-5 0l104 141q25 35 56 54t57 19h23l-9 -10q-80 0 -120 43t-29 116q10 64 61 102t143 38h235l-80 -503h-84l30 190h-77q-35 0 -63 -16.5t-47 -44.5l-94 -129h-106zM255 253h137l29 188h-128q-60 0 -92 -24t-38 -63q-8 -50 18 -75.5t74 -25.5z" />
    <glyph glyph-name="uni0450" unicode="&#x450;" horiz-adv-x="556" 
d="M281 -9q-85 0 -140 34t-77.5 96.5t-9.5 146.5q12 77 48 131.5t92 83.5t127 29q70 0 115.5 -30.5t65 -84.5t8.5 -125l-5 -30h-384l8 54h323l-18 -14q12 79 -18 121.5t-100 42.5q-50 0 -86.5 -22.5t-58.5 -61t-28 -88.5l-4 -25q-12 -89 26 -137.5t126 -48.5q42 0 83 13
t77 43l30 -63q-40 -31 -92 -48t-108 -17zM306 552l-141 202h93l112 -202h-64z" />
    <glyph glyph-name="uni0451" unicode="&#x451;" horiz-adv-x="556" 
d="M281 -9q-85 0 -140 34t-77.5 96.5t-9.5 146.5q12 77 48 131.5t92 83.5t127 29q70 0 115.5 -30.5t65 -84.5t8.5 -125l-5 -30h-384l8 54h323l-18 -14q12 79 -18 121.5t-100 42.5q-50 0 -86.5 -22.5t-58.5 -61t-28 -88.5l-4 -25q-12 -89 26 -137.5t126 -48.5q42 0 83 13
t77 43l30 -63q-40 -31 -92 -48t-108 -17zM392 606l13 93h93l-14 -93h-92zM214 606l14 93h93l-14 -93h-93z" />
    <glyph glyph-name="uni0452" unicode="&#x452;" horiz-adv-x="597" 
d="M259 -186l-17 69q55 12 86 33t47 55t24 84l38 239q11 73 -12.5 103.5t-80.5 30.5q-67 0 -112 -40.5t-55 -108.5l-44 -279h-91l91 579h-94l11 67h94l15 90h91l-15 -90h199l-11 -67h-199l-31 -195h-14q30 59 82 89t118 30q93 0 129 -53.5t20 -154.5l-38 -237
q-11 -74 -36.5 -122t-72 -76.5t-122.5 -45.5z" />
    <glyph glyph-name="uni0453" unicode="&#x453;" horiz-adv-x="450" 
d="M38 0l80 503h356l-11 -73h-266l-68 -430h-91zM256 552l134 202h97l-166 -202h-65z" />
    <glyph glyph-name="uni0454" unicode="&#x454;" horiz-adv-x="530" 
d="M278 -9q-82 0 -137 33t-78 94.5t-10 146.5q13 81 52 136t98.5 83t133.5 28q54 0 98 -15t70 -44l-32 -59q-27 26 -61.5 38t-71.5 12q-81 0 -131.5 -47t-65.5 -127l-9 19h264l-11 -66h-265l17 20q-10 -89 27 -136t117 -47q41 0 80 13t74 42l28 -60q-31 -30 -82.5 -47
t-104.5 -17z" />
    <glyph glyph-name="uni0455" unicode="&#x455;" horiz-adv-x="508" 
d="M219 -9q-58 0 -108.5 15t-80.5 41l31 63q34 -23 75.5 -37t87.5 -14q56 0 88.5 20.5t37.5 53.5q5 31 -11.5 50t-56.5 25l-74 13q-74 12 -103 51.5t-20 98.5q7 45 36 76t74 48t99 17q55 0 100.5 -14.5t71.5 -38.5l-33 -62q-26 22 -62.5 34.5t-76.5 12.5q-56 0 -87.5 -22
t-36.5 -55q-5 -30 9 -50.5t51 -26.5l77 -13q76 -13 106.5 -49.5t20.5 -94.5q-7 -44 -35.5 -76t-74.5 -49t-105 -17z" />
    <glyph glyph-name="uni0456" unicode="&#x456;" horiz-adv-x="254" 
d="M41 0l80 503h91l-80 -503h-91zM130 613l16 98h108l-16 -98h-108z" />
    <glyph glyph-name="uni0457" unicode="&#x457;" horiz-adv-x="254" 
d="M41 0l80 503h91l-80 -503h-91zM227 606l13 93h93l-14 -93h-92zM49 606l14 93h93l-14 -93h-93z" />
    <glyph glyph-name="uni0458" unicode="&#x458;" horiz-adv-x="254" 
d="M-56 -220q-16 0 -36 2.5t-34 9.5l12 75q12 -4 27 -7.5t29 -3.5q40 0 65 25.5t34 83.5l85 538h91l-87 -546q-14 -87 -60 -132t-126 -45zM134 613l16 98h108l-16 -98h-108z" />
    <glyph glyph-name="uni0459" unicode="&#x459;" horiz-adv-x="897" 
d="M14 -12l-23 73q38 15 64.5 37t45.5 56.5t33 85t25 121.5l24 142h370l-29 -178h142q102 0 145.5 -44.5t30.5 -125.5q-13 -79 -69.5 -117t-150.5 -38h-238l69 432h-198l-13 -79q-13 -85 -32 -146.5t-46.5 -104.5t-64 -70t-85.5 -44zM483 63h139q59 0 93 22.5t42 72.5
q9 55 -18.5 79.5t-86.5 24.5h-138z" />
    <glyph glyph-name="uni045A" unicode="&#x45a;" horiz-adv-x="908" 
d="M38 0l80 503h90l-33 -208h266l34 208h89l-28 -178h142q101 0 144.5 -44.5t31.5 -125.5q-13 -79 -69.5 -117t-150.5 -38h-239l35 223h-266l-36 -223h-90zM495 63h138q59 0 93.5 22.5t41.5 72.5q9 55 -18 79.5t-86 24.5h-138z" />
    <glyph glyph-name="uni045B" unicode="&#x45b;" horiz-adv-x="600" 
d="M41 0l92 579h-94l10 67h95l14 90h91l-14 -90h198l-10 -67h-199l-31 -192h-14q30 59 82.5 89t118.5 30q92 0 128.5 -53t20.5 -155l-48 -298h-91l48 297q11 73 -12.5 104t-81.5 31q-68 0 -112 -41t-55 -109l-45 -282h-91z" />
    <glyph glyph-name="uni045C" unicode="&#x45c;" horiz-adv-x="545" 
d="M38 0l80 503h90l-33 -208h88l195 208h104l-227 -245l-22 28q29 -3 47.5 -14.5t34 -33.5t32.5 -59l76 -179h-94l-66 155q-12 27 -25 42t-31 21t-45 6h-78l-36 -224h-90zM314 552l134 202h97l-166 -202h-65z" />
    <glyph glyph-name="uni045D" unicode="&#x45d;" horiz-adv-x="600" 
d="M38 0l80 503h82l-65 -417l-29 1l379 416h76l-79 -503h-83l67 418l29 -2l-381 -416h-76zM314 552l-141 202h93l112 -202h-64z" />
    <glyph glyph-name="uni045E" unicode="&#x45e;" horiz-adv-x="544" 
d="M-11 -227l-15 74q49 11 82.5 25.5t58.5 37.5t46 58l35 60l-5 -38l-138 513h95l108 -431h-27l243 431h98l-317 -542q-29 -49 -59 -82t-61.5 -54t-66.5 -33t-77 -19zM321 549q-41 0 -75.5 15.5t-57.5 45.5t-32 72l50 19q14 -50 43.5 -73t74.5 -23q46 0 76.5 22t56.5 73
l49 -18q-19 -47 -47.5 -76.5t-63 -43t-74.5 -13.5z" />
    <glyph glyph-name="uni045F" unicode="&#x45f;" horiz-adv-x="599" 
d="M199 -130l21 130h-182l80 503h90l-68 -432h263l68 432h90l-80 -503h-183l-21 -130h-78z" />
    <glyph glyph-name="uni0462" unicode="&#x462;" horiz-adv-x="750" 
d="M119 0l84 533h-178l11 71h179l16 101h90l-16 -101h245l-11 -71h-246l-21 -136h206q119 0 176 -52.5t41 -158.5q-14 -92 -84 -139t-179 -47h-313zM221 74h206q81 0 125 30t54 93q9 65 -23.5 95.5t-114.5 30.5h-208z" />
    <glyph glyph-name="uni0463" unicode="&#x463;" horiz-adv-x="637" 
d="M123 0l69 438h-157l10 65h157l38 233h90l-37 -233h168l-10 -65h-169l-19 -124h149q95 0 138.5 -43t30.5 -122q-12 -77 -67 -113t-148 -36h-243zM222 59h142q57 0 91 22.5t41 72.5q8 53 -18.5 77t-83.5 24h-141z" />
    <glyph glyph-name="uni046A" unicode="&#x46a;" horiz-adv-x="991" 
d="M-33 0l163 248q46 71 107 108t150 37h64l-10 -22l-243 334h740l-350 -334l-3 22h58q62 0 103 -17t67 -50t41 -78l85 -248h-94l-69 206q-14 42 -33 66t-46 34t-66 10h-79l-50 -316h-92l50 316h-78q-60 0 -100.5 -26t-77.5 -84l-132 -206h-105zM515 394h2l285 275l-4 -32
h-486l5 32z" />
    <glyph glyph-name="uni046B" unicode="&#x46b;" horiz-adv-x="816" 
d="M-43 0l132 172q33 44 60.5 69t58.5 36t76 11h72l-16 -23l-168 238h551l-243 -238l-9 23h72q45 0 72 -11t45.5 -36.5t37.5 -68.5l77 -172h-93l-67 147q-13 28 -26.5 43t-31 21t-44.5 6h-65l-35 -217h-90l34 217h-65q-27 0 -45.5 -6t-35 -21t-38.5 -43l-113 -147h-103z
M410 284h2l184 184l-5 -27h-311l5 27z" />
    <glyph glyph-name="uni0472" unicode="&#x472;" horiz-adv-x="776" 
d="M120 322l11 72h570l-11 -72h-570zM78 366q18 111 68 189t128 118.5t177 40.5q107 0 174.5 -47.5t94.5 -132t9 -194.5q-17 -111 -67.5 -189t-128 -119t-177.5 -41q-106 0 -174 47.5t-94.5 132t-9.5 195.5zM175 356q-14 -88 3.5 -151.5t64.5 -97.5t120 -34
q112 0 180.5 73.5t88.5 203.5q15 88 -3 151t-65 97t-121 34q-111 0 -178.5 -72.5t-89.5 -203.5z" />
    <glyph glyph-name="uni0473" unicode="&#x473;" horiz-adv-x="587" 
d="M261 -9q-77 0 -128 32t-72 93.5t-8 148.5q13 80 51 135.5t95 83.5t127 28q77 0 128 -32t72 -93.5t7 -147.5q-13 -81 -51 -136t-94.5 -83.5t-126.5 -28.5zM266 63q71 0 119.5 47.5t63.5 138.5q15 93 -20.5 141.5t-109.5 48.5q-70 0 -118.5 -47t-62.5 -138
q-14 -92 19 -141.5t109 -49.5zM102 221l9 62h376l-9 -62h-376z" />
    <glyph glyph-name="uni0474" unicode="&#x474;" horiz-adv-x="772" 
d="M266 0l-193 705h96l166 -628h-33l265 446q33 56 63 92.5t63 58.5t72.5 31t92.5 9l-3 -76q-49 0 -82 -13t-62 -44.5t-63 -87.5l-298 -493h-84z" />
    <glyph glyph-name="uni0475" unicode="&#x475;" horiz-adv-x="572" 
d="M189 0l-135 503h94l107 -432h-28l182 319q27 48 55.5 74.5t65 37t88.5 10.5l-3 -73q-33 0 -56 -8.5t-41.5 -27.5t-38.5 -53l-205 -350h-85z" />
    <glyph glyph-name="uni048A" unicode="&#x48a;" horiz-adv-x="770" 
d="M545 -159l80 159h-89l12 76h195l-119 -235h-79zM46 0l112 705h86l-93 -586h-24l536 586h72l-112 -705h-87l93 586l22 -1l-535 -585h-70zM453 760q-45 0 -82.5 15t-63 45t-36.5 73l53 19q15 -50 47.5 -73t83.5 -23q52 0 87.5 22t66.5 73l48 -18q-22 -47 -53.5 -76.5
t-70 -43t-80.5 -13.5z" />
    <glyph glyph-name="uni048B" unicode="&#x48b;" horiz-adv-x="627" 
d="M400 -130l68 130h-68l11 71h170l-104 -201h-77zM38 0l80 503h82l-65 -417l-29 1l379 416h76l-79 -503h-83l67 418l29 -2l-381 -416h-76zM351 549q-41 0 -75.5 15.5t-57.5 45.5t-32 72l50 19q14 -50 43.5 -73t74.5 -23q46 0 76.5 22t56.5 73l49 -18q-19 -47 -47.5 -76.5
t-63.5 -43t-74 -13.5z" />
    <glyph glyph-name="uni048C" unicode="&#x48c;" horiz-adv-x="738" 
d="M108 0l84 534h-147l11 70h147l17 101h90l-17 -101h147l-11 -70h-147l-21 -137h206q119 0 175.5 -52.5t40.5 -158.5q-14 -92 -83.5 -139t-178.5 -47h-313zM209 74h207q81 0 125 30t53 93q10 65 -23 95.5t-114 30.5h-208z" />
    <glyph glyph-name="uni048D" unicode="&#x48d;" horiz-adv-x="637" 
d="M123 0l69 438h-157l10 65h157l38 233h90l-37 -233h168l-10 -65h-169l-19 -124h149q95 0 138.5 -43t30.5 -122q-12 -77 -67 -113t-148 -36h-243zM222 59h142q57 0 91 22.5t41 72.5q8 53 -18.5 77t-83.5 24h-141z" />
    <glyph glyph-name="uni048E" unicode="&#x48e;" horiz-adv-x="655" 
d="M46 0l112 705h274q126 0 179.5 -56.5t36.5 -166.5q-10 -65 -51 -114.5t-106 -73.5l5 16l45 -84l-48 -29l-54 101l15 -14q-17 -2 -36 -4t-42 -2h-194l-44 -278h-92zM194 353h183q12 0 27.5 1t25.5 4l-16 -12l-42 81l47 28l53 -98l-17 9q45 14 70 45t33 77q11 72 -21 107
t-117 35h-182z" />
    <glyph glyph-name="uni048F" unicode="&#x48f;" horiz-adv-x="616" 
d="M7 -216l94 600q5 29 7.5 59t3.5 60h88l-8 -116h-14q26 58 75.5 91.5t119.5 33.5t117 -32.5t66.5 -94t5.5 -146.5q-12 -74 -42 -124.5t-77 -82.5l1 14l40 -63l-43 -30l-42 67l13 -3q-25 -14 -51.5 -20t-56.5 -6q-65 0 -109.5 33.5t-54.5 90.5h10l-52 -331h-91zM347 439
q-66 0 -114.5 -47t-62.5 -137q-14 -96 20 -144t103 -48q45 0 78 21l-4 -12l-47 73l43 29l48 -77l-12 7q28 22 46 58t26 87q15 95 -18.5 142.5t-105.5 47.5z" />
    <glyph glyph-name="uni0490" unicode="&#x490;" horiz-adv-x="560" 
d="M46 0l112 705h376l25 156h83l-37 -234h-368l-98 -627h-93z" />
    <glyph glyph-name="uni0491" unicode="&#x491;" horiz-adv-x="450" 
d="M38 0l80 503h278l18 115h78l-29 -188h-267l-68 -430h-90z" />
    <glyph glyph-name="uni0492" unicode="&#x492;" horiz-adv-x="599" 
d="M85 0l51 317h-100l10 70h100l51 318h459l-13 -78h-366l-38 -240h190l-11 -70h-189l-51 -317h-93z" />
    <glyph glyph-name="uni0493" unicode="&#x493;" horiz-adv-x="473" 
d="M63 0l32 208h-98l12 66h97l36 229h357l-12 -72h-266l-25 -157h150l-11 -66h-150l-32 -208h-90z" />
    <glyph glyph-name="uni0494" unicode="&#x494;" horiz-adv-x="691" 
d="M353 -189q-29 0 -56.5 4t-45.5 11l9 75q18 -8 41 -12t50 -4q64 0 105 42t54 123l14 92q18 111 -25 162.5t-146 51.5q-46 0 -87.5 -9.5t-77.5 -27.5l-50 -319h-92l112 705h460l-14 -78h-367l-36 -225q31 16 78 25.5t94 9.5q144 0 205.5 -73.5t39.5 -215.5l-15 -95
q-12 -85 -46.5 -138.5t-86.5 -78.5t-117 -25z" />
    <glyph glyph-name="uni0495" unicode="&#x495;" horiz-adv-x="568" 
d="M260 -186l-14 69q54 12 85 33.5t47 55t24 83.5l11 70q11 72 -11.5 103t-86.5 31q-69 0 -114 -40.5t-55 -108.5l-18 -110h-90l80 503h356l-10 -68h-267l-34 -222l-17 -1q30 59 82.5 90t121.5 31q95 0 132.5 -52.5t21.5 -150.5l-12 -74q-10 -68 -35 -116t-72 -78.5
t-125 -47.5z" />
    <glyph glyph-name="uni0496" unicode="&#x496;" horiz-adv-x="1017" 
d="M903 -159l25 159h-49l12 76h133l-37 -235h-84zM-33 0l161 246q43 65 94 100.5t119 43.5l-36 -28l-182 343h98l170 -327l-18 16h108l50 311h89l-49 -311h109l-30 -16l275 327h107l-291 -343l-31 28q56 -7 96.5 -43t62.5 -101l85 -246h-95l-68 206q-20 59 -55 84.5
t-91 25.5h-86l-51 -316h-89l49 316h-85q-58 0 -99.5 -25.5t-79.5 -84.5l-132 -206h-105z" />
    <glyph glyph-name="uni0497" unicode="&#x497;" horiz-adv-x="858" 
d="M704 -130l21 130h-38l11 71h118l-32 -201h-80zM-43 0l134 179q28 37 51.5 59t47.5 33.5t52 14.5l-23 -28l-153 245h96l129 -208h79l33 208h91l-33 -208h74l195 208h104l-229 -245l-20 28q27 -3 46 -14.5t35 -33.5t33 -59l76 -179h-93l-67 155q-11 27 -24 42t-31.5 21
t-45.5 6h-65l-35 -224h-90l35 224h-65q-28 0 -46.5 -6t-35 -21t-37.5 -42l-115 -155h-103z" />
    <glyph glyph-name="uni0498" unicode="&#x498;" horiz-adv-x="651" 
d="M219 -159l31 200h82l-31 -200h-82zM288 -9q-89 0 -156.5 24t-107.5 65l35 70q43 -39 99 -59t133 -20q92 0 143 32t61 93q9 64 -25.5 93.5t-113.5 29.5h-181l12 76h166q81 0 123 30t51 85q9 59 -29.5 91.5t-126.5 32.5q-65 0 -125.5 -19t-113.5 -57l-32 70q57 42 130.5 64
t152.5 22q88 0 143.5 -24.5t79 -69t14.5 -104.5q-10 -60 -53 -104t-120 -60l2 14q73 -10 110.5 -57t24.5 -124q-9 -60 -45 -103.5t-99 -67t-152 -23.5z" />
    <glyph glyph-name="uni0499" unicode="&#x499;" horiz-adv-x="513" 
d="M157 -130l28 172h74l-27 -172h-75zM215 -9q-64 0 -118.5 17t-85.5 48l32 63q32 -30 78 -45t98 -15q70 0 106 21.5t41 62.5q7 39 -17 59t-76 20h-121l10 66h112q46 0 76 20.5t35 56.5q6 37 -20.5 58.5t-90.5 21.5q-52 0 -97.5 -13t-88.5 -38l-26 59q47 30 104.5 44.5
t123.5 14.5q97 0 144 -38t36 -106q-7 -46 -44.5 -78.5t-91.5 -39.5l2 13q61 -3 92 -38.5t22 -90.5q-10 -64 -68.5 -103.5t-166.5 -39.5z" />
    <glyph glyph-name="uni049A" unicode="&#x49a;" horiz-adv-x="694" 
d="M559 -159l25 159h-49l12 76h133l-37 -235h-84zM46 0l112 705h92l-50 -311h138l-29 -16l274 327h108l-292 -343l-32 28q62 -8 100.5 -43.5t60.5 -100.5l84 -246h-94l-68 206q-19 60 -55 85t-92 25h-115l-50 -316h-92z" />
    <glyph glyph-name="uni049B" unicode="&#x49b;" horiz-adv-x="590" 
d="M432 -130l21 130h-38l11 71h118l-32 -201h-80zM38 0l80 503h90l-33 -208h88l195 208h104l-227 -245l-22 28q29 -3 47.5 -14.5t34 -33.5t32.5 -59l76 -179h-94l-66 155q-12 27 -25 42t-31 21t-45 6h-78l-36 -224h-90z" />
    <glyph glyph-name="uni049C" unicode="&#x49c;" horiz-adv-x="699" 
d="M46 0l112 705h93l-50 -311h72l26 167h59l-27 -167h24l262 311h108l-292 -343l-33 28q64 -9 102 -43.5t60 -100.5l85 -246h-95l-67 206q-20 60 -55.5 85.5t-92.5 25.5h-30l14 9l-27 -175h-59l26 166h-72l-50 -317h-93z" />
    <glyph glyph-name="uni049D" unicode="&#x49d;" horiz-adv-x="583" 
d="M38 0l80 503h90l-33 -208h55l18 115h59l-18 -115h12l195 208h104l-227 -245l-22 28q27 -3 46.5 -14.5t35 -33.5t31.5 -59l77 -179h-93l-67 155q-12 27 -24.5 41.5t-30.5 21t-47 6.5h-15l16 12l-22 -138h-59l20 126h-55l-36 -224h-90z" />
    <glyph glyph-name="uni049E" unicode="&#x49e;" horiz-adv-x="715" 
d="M93 0l86 538h-146l11 67h146l15 100h92l-16 -100h142l-11 -67h-141l-24 -144h150l-35 -23l283 334h107l-299 -350l-23 30q51 -7 86.5 -40.5t58.5 -98.5l85 -246h-96l-67 206q-19 60 -55 85t-92 25h-115l-50 -316h-92z" />
    <glyph glyph-name="uni049F" unicode="&#x49f;" horiz-adv-x="548" 
d="M42 0l91 579h-94l11 67h94l15 90h91l-15 -90h199l-11 -67h-199l-45 -287h89l191 202h103l-226 -241l-17 28q27 -3 45.5 -13.5t33 -32.5t31.5 -60l77 -175h-93l-67 153q-12 27 -25.5 42t-31 21t-45.5 6h-77l-34 -222h-91z" />
    <glyph glyph-name="uni04A0" unicode="&#x4a0;" horiz-adv-x="808" 
d="M70 627l12 78h312l-13 -78h-311zM190 0l112 705h92l-50 -311h138l-28 -16l274 327h108l-292 -343l-33 28q63 -8 101 -43.5t60 -100.5l85 -246h-95l-67 206q-20 60 -55.5 85t-92.5 25h-114l-51 -316h-92z" />
    <glyph glyph-name="uni04A1" unicode="&#x4a1;" horiz-adv-x="629" 
d="M122 0l68 430h-157l12 73h247l-33 -208h88l195 208h104l-227 -245l-22 28q28 -3 47 -14.5t34.5 -33.5t31.5 -59l77 -179h-94l-66 155q-12 27 -25 42t-31 21t-46 6h-77l-36 -224h-90z" />
    <glyph glyph-name="uni04A2" unicode="&#x4a2;" horiz-adv-x="811" 
d="M654 -159l25 159h-108l12 76h191l-37 -235h-83zM46 0l112 705h93l-49 -308h410l49 308h94l-112 -705h-94l51 318h-410l-51 -318h-93z" />
    <glyph glyph-name="uni04A3" unicode="&#x4a3;" horiz-adv-x="604" 
d="M466 -130l21 130h-88l12 71h165l-32 -201h-78zM38 0l80 503h90l-33 -208h266l33 208h90l-80 -503h-90l36 223h-266l-36 -223h-90z" />
    <glyph glyph-name="uni04A4" unicode="&#x4a4;" horiz-adv-x="955" 
d="M46 0l112 705h92l-49 -308h411l49 308h353l-13 -78h-261l-99 -627h-92l51 319h-411l-51 -319h-92z" />
    <glyph glyph-name="uni04A5" unicode="&#x4a5;" horiz-adv-x="762" 
d="M38 0l80 503h90l-33 -208h261l33 208h318l-12 -73h-227l-68 -430h-91l35 223h-260l-36 -223h-90z" />
    <glyph glyph-name="uni04A8" unicode="&#x4a8;" horiz-adv-x="840" 
d="M366 -9q-110 0 -180.5 46t-98 130t-9.5 199q18 113 70 190.5t130.5 117.5t174.5 40q24 0 42 -1.5t31 -4.5l-14 -78q-15 3 -30.5 4.5t-29.5 1.5q-110 0 -183.5 -73t-95.5 -207q-21 -137 30.5 -214.5t172.5 -77.5q80 0 143.5 30.5t104.5 89t54 141.5q11 74 -14 114t-80 40
q-53 0 -89.5 -40t-48.5 -114q-13 -83 9.5 -141.5t75.5 -89t133 -30.5q41 0 75.5 8.5t68.5 24.5l15 -71q-32 -18 -73.5 -26.5t-91.5 -8.5q-74 0 -134 25t-100.5 71t-57.5 110t-4 142q11 67 42 115.5t78.5 74.5t106.5 26q66 0 109 -28.5t60.5 -80t5.5 -122.5
q-11 -72 -46.5 -133t-89.5 -106t-121 -69.5t-141 -24.5z" />
    <glyph glyph-name="uni04A9" unicode="&#x4a9;" horiz-adv-x="672" 
d="M284 -9q-87 0 -142.5 35t-78 97.5t-9.5 144.5q13 79 51 133.5t95.5 82.5t127.5 28q31 0 57 -4.5t42 -13.5l-17 -66q-15 8 -36.5 11.5t-41.5 3.5q-76 0 -127 -50t-65 -138q-15 -95 26.5 -146.5t127.5 -51.5q93 0 148 42.5t67 120.5q8 48 -9.5 75.5t-53.5 27.5t-61 -27
t-32 -73q-12 -83 30 -124.5t133 -41.5q29 0 61 7.5t60 21.5l12 -65q-31 -15 -64 -22.5t-69 -7.5q-60 0 -107 18t-79 50.5t-45 77.5t-5 98q7 44 30 78t59 54t81 20q47 0 80 -20.5t47 -58.5t6 -91q-8 -49 -35 -90.5t-68 -71.5t-91.5 -47t-104.5 -17z" />
    <glyph glyph-name="uni04AA" unicode="&#x4aa;" horiz-adv-x="685" 
d="M293 -159l31 200h82l-32 -200h-81zM375 -9q-117 0 -188.5 47.5t-98.5 132t-10 195.5q18 111 69 189t131 119t183 40q72 0 127 -20.5t94 -59.5l-36 -75q-43 39 -86.5 55t-103.5 16q-114 0 -187 -71t-94 -202q-13 -85 4.5 -148.5t68.5 -98.5t136 -35q54 0 106.5 18.5
t99.5 59.5l31 -73q-47 -43 -112.5 -66t-133.5 -23z" />
    <glyph glyph-name="uni04AB" unicode="&#x4ab;" horiz-adv-x="508" 
d="M193 -130l28 172h75l-28 -172h-75zM267 -9q-78 0 -130.5 33t-74.5 94.5t-9 146.5q20 121 94 184t182 63q48 0 91 -15t69 -44l-33 -62q-26 25 -59 36.5t-65 11.5q-72 0 -122 -46.5t-65 -135.5q-14 -91 22 -141.5t112 -50.5q34 0 71 12.5t69 41.5l30 -64q-32 -30 -82.5 -47
t-99.5 -17z" />
    <glyph glyph-name="uni04AC" unicode="&#x4ac;" horiz-adv-x="607" 
d="M303 -159l25 159h-113l100 626h-245l13 79h583l-13 -79h-245l-87 -549h102l-37 -236h-83z" />
    <glyph glyph-name="uni04AD" unicode="&#x4ad;" horiz-adv-x="463" 
d="M217 -130l21 130h-88l12 71h165l-32 -201h-78zM146 0l67 430h-180l12 73h452l-12 -73h-181l-68 -430h-90z" />
    <glyph glyph-name="uni04AE" unicode="&#x4ae;" horiz-adv-x="612" 
d="M219 0l53 330l10 -61l-224 436h103l171 -344h-22l280 344h109l-364 -439l30 64l-53 -330h-93z" />
    <glyph glyph-name="uni04AF" unicode="&#x4af;" horiz-adv-x="540" 
d="M149 -216l35 221l-134 498h94l108 -432h-28l246 432h96l-291 -495l-35 -224h-91z" />
    <glyph glyph-name="uni04B0" unicode="&#x4b0;" horiz-adv-x="612" 
d="M219 0l53 330l10 -61l-224 436h103l171 -344h-22l280 344h109l-364 -439l30 64l-53 -330h-93zM101 287l9 58h421l-8 -58h-422z" />
    <glyph glyph-name="uni04B1" unicode="&#x4b1;" horiz-adv-x="540" 
d="M153 -191l23 146h-126l10 66h130l-4 -23l-136 505h94l108 -432h-28l246 432h96l-295 -502l3 20h130l-11 -66h-126l-23 -146h-91z" />
    <glyph glyph-name="uni04B2" unicode="&#x4b2;" horiz-adv-x="686" 
d="M550 -159l26 159h-50l12 76h133l-37 -235h-84zM-37 0l343 378l-1 -36l-214 363h106l169 -296h-29l261 296h116l-329 -363v36l224 -378h-106l-181 314h36l-280 -314h-115z" />
    <glyph glyph-name="uni04B3" unicode="&#x4b3;" horiz-adv-x="576" 
d="M429 -130l21 130h-38l11 71h118l-32 -201h-80zM-31 0l272 282l-2 -45l-173 266h103l126 -201h-32l188 201h113l-254 -264l2 41l181 -280h-106l-134 215h33l-204 -215h-113z" />
    <glyph glyph-name="uni04B4" unicode="&#x4b4;" horiz-adv-x="952" 
d="M781 -159l26 159h-616l99 627h-220l13 78h521l-14 -78h-208l-87 -548h411l100 626h93l-100 -626h103l-37 -238h-84z" />
    <glyph glyph-name="uni04B5" unicode="&#x4b5;" horiz-adv-x="719" 
d="M553 -130l21 130h-452l68 430h-157l12 73h401l-11 -73h-155l-57 -359h270l68 432h91l-68 -432h78l-31 -201h-78z" />
    <glyph glyph-name="uni04B6" unicode="&#x4b6;" horiz-adv-x="739" 
d="M565 -159l25 159h-109l12 76h192l-37 -235h-83zM478 0l46 293q-34 -16 -81.5 -25t-95.5 -9q-92 0 -151.5 32t-83.5 96.5t-9 160.5l26 157h92l-24 -151q-19 -116 24 -165t146 -49q45 0 87.5 8.5t83.5 28.5l52 328h93l-112 -705h-93z" />
    <glyph glyph-name="uni04B7" unicode="&#x4b7;" horiz-adv-x="569" 
d="M431 -130l21 130h-88l12 71h166l-33 -201h-78zM361 0l31 199q-30 -16 -65 -24.5t-72 -8.5q-65 0 -109 22.5t-62.5 67.5t-7.5 113l21 134h91l-20 -127q-12 -71 15.5 -102.5t96.5 -31.5q36 0 65 7.5t58 24.5l36 229h90l-79 -503h-89z" />
    <glyph glyph-name="uni04B8" unicode="&#x4b8;" horiz-adv-x="696" 
d="M479 0l46 293q-34 -16 -79.5 -25t-88.5 -9l18 15l-26 -164h-60l25 164l12 -15q-82 4 -137 36t-78 94.5t-8 158.5l26 157h92l-24 -151q-18 -109 20 -158.5t127 -54.5l-20 -11l29 182h60l-28 -182l-19 10q43 0 88.5 9t84.5 28l52 328h92l-112 -705h-92z" />
    <glyph glyph-name="uni04B9" unicode="&#x4b9;" horiz-adv-x="587" 
d="M379 0l32 200q-29 -15 -61.5 -23t-62.5 -9l20 16l-18 -116h-59l18 116l18 -17q-106 0 -156 51t-34 151l21 134h91l-20 -128q-12 -70 16 -101.5t94 -32.5l-23 -12l23 140h59l-23 -140l-15 11q32 1 62.5 8.5t60.5 24.5l36 230h91l-80 -503h-90z" />
    <glyph glyph-name="uni04BA" unicode="&#x4ba;" horiz-adv-x="696" 
d="M46 0l112 705h93l-47 -293q34 17 83.5 26t95.5 9q91 0 150.5 -32t83.5 -96.5t8 -161.5l-25 -157h-92l23 151q18 112 -24.5 163.5t-143.5 51.5q-44 0 -88 -8t-85 -29l-51 -329h-93z" />
    <glyph glyph-name="uni04BB" unicode="&#x4bb;" horiz-adv-x="600" 
d="M41 0l117 736h91l-54 -342h-15q30 58 82 88t119 30q92 0 128 -53t20 -154l-48 -305h-91l48 304q12 72 -11.5 103t-81.5 31q-67 0 -111.5 -41t-55.5 -109l-46 -288h-91z" />
    <glyph glyph-name="uni04BC" unicode="&#x4bc;" horiz-adv-x="917" 
d="M544 -9q-86 0 -147.5 26t-99.5 72.5t-53 108.5t-8 134l18 -20h-43q-98 0 -134.5 44.5t-22.5 130.5l9 56h91l-9 -54q-9 -54 9 -77.5t76 -23.5h29l-17 -18q18 110 68.5 187t126.5 117t172 40q111 0 175.5 -45.5t86 -127.5t1.5 -193l-6 -36h-556l23 33q-12 -84 7.5 -145
t72 -94t138.5 -33q63 0 117.5 18.5t101.5 60.5l32 -72q-33 -28 -73 -48t-86 -30.5t-99 -10.5zM604 635q-108 0 -177.5 -71t-91.5 -205l-13 28h486l-28 -35q23 139 -16.5 211t-159.5 72z" />
    <glyph glyph-name="uni04BD" unicode="&#x4bd;" horiz-adv-x="661" 
d="M392 -9q-84 0 -139 33.5t-77.5 93.5t-12.5 136l4 -13h-19q-70 0 -96 33.5t-17 96.5l6 37h75l-7 -37q-7 -39 6 -57.5t51 -18.5h27l-27 -19q14 75 50 127.5t91 80.5t125 28t116 -30.5t65 -84.5t8 -125l-5 -30h-380l14 14q-13 -90 24 -141.5t128 -51.5q42 0 83 13t77 43
l30 -63q-40 -31 -92 -48t-108 -17zM427 446q-72 0 -116 -46t-56 -119l-11 15h320l-19 -14q12 79 -17.5 121.5t-100.5 42.5z" />
    <glyph glyph-name="uni04BE" unicode="&#x4be;" horiz-adv-x="917" 
d="M544 -9q-86 0 -147.5 26t-99.5 72.5t-53 108.5t-8 134l18 -20h-43q-98 0 -134.5 44.5t-22.5 130.5l9 56h91l-9 -54q-9 -54 9 -77.5t76 -23.5h29l-17 -18q18 110 68.5 187t126.5 117t172 40q111 0 175.5 -45.5t86 -127.5t1.5 -193l-6 -36h-556l23 33q-12 -84 7.5 -145
t72 -94t138.5 -33q63 0 117.5 18.5t101.5 60.5l32 -72q-33 -28 -73 -48t-86 -30.5t-99 -10.5zM604 635q-108 0 -177.5 -71t-91.5 -205l-13 28h486l-28 -35q23 139 -16.5 211t-159.5 72zM553 -193q-48 0 -74 25t-26 66q0 47 31 83.5t78 55.5l26 -37q-37 -15 -54.5 -39
t-17.5 -49q0 -23 14 -37t39 -14q13 0 26 3t28 9l10 -50q-18 -7 -38 -11.5t-42 -4.5z" />
    <glyph glyph-name="uni04BF" unicode="&#x4bf;" horiz-adv-x="661" 
d="M392 -9q-84 0 -139 33.5t-77.5 93.5t-12.5 136l4 -13h-19q-70 0 -96 33.5t-17 96.5l6 37h75l-7 -37q-7 -39 6 -57.5t51 -18.5h27l-27 -19q14 75 50 127.5t91 80.5t125 28t116 -30.5t65 -84.5t8 -125l-5 -30h-380l14 14q-13 -90 24 -141.5t128 -51.5q42 0 83 13t77 43
l30 -63q-40 -31 -92 -48t-108 -17zM427 446q-72 0 -116 -46t-56 -119l-11 15h320l-19 -14q12 79 -17.5 121.5t-100.5 42.5zM412 -193q-48 0 -74 25t-26 66q0 47 31 83.5t78 55.5l26 -37q-37 -15 -54.5 -39t-17.5 -49q0 -23 14 -37t39 -14q13 0 26 3t28 9l10 -50
q-18 -7 -38 -11.5t-42 -4.5z" />
    <glyph glyph-name="uni04C0" unicode="&#x4c0;" horiz-adv-x="264" 
d="M46 0l112 705h93l-112 -705h-93z" />
    <glyph glyph-name="uni04C1" unicode="&#x4c1;" horiz-adv-x="1006" 
d="M-33 0l161 246q43 65 94 100.5t119 43.5l-36 -28l-182 343h98l170 -327l-18 16h108l50 311h89l-49 -311h109l-30 -16l275 327h107l-291 -343l-31 28q56 -7 96.5 -43t62.5 -101l85 -246h-95l-68 206q-20 59 -55 84.5t-91 25.5h-86l-51 -316h-89l49 316h-85
q-58 0 -99.5 -25.5t-79.5 -84.5l-132 -206h-105zM580 760q-45 0 -82.5 15t-63 45t-36.5 73l52 19q16 -50 48.5 -73t83.5 -23q52 0 87.5 22t66.5 73l48 -18q-22 -47 -53.5 -76.5t-70 -43t-80.5 -13.5z" />
    <glyph glyph-name="uni04C2" unicode="&#x4c2;" horiz-adv-x="814" 
d="M-43 0l134 179q28 37 51.5 59t47.5 33.5t52 14.5l-23 -28l-153 245h96l129 -208h79l33 208h91l-33 -208h74l195 208h104l-229 -245l-20 28q27 -3 46 -14.5t35 -33.5t33 -59l76 -179h-93l-67 155q-11 27 -24 42t-31.5 21t-45.5 6h-65l-35 -224h-90l35 224h-65
q-28 0 -46.5 -6t-35 -21t-37.5 -42l-115 -155h-103zM459 549q-41 0 -75.5 15.5t-57.5 45.5t-32 72l50 19q14 -50 43.5 -73t74.5 -23q46 0 76.5 22t56.5 73l49 -18q-19 -47 -47.5 -76.5t-63 -43t-74.5 -13.5z" />
    <glyph glyph-name="uni04C3" unicode="&#x4c3;" horiz-adv-x="691" 
d="M353 -189q-29 0 -56.5 3.5t-45.5 10.5l9 77q18 -8 41 -12.5t50 -4.5q65 0 106.5 41.5t53.5 122.5l8 54q17 114 -28.5 165.5t-154.5 51.5h-147l-51 -320h-92l112 705h92l-49 -308h145l-35 -19l275 327h108l-292 -343l-8 32q123 -6 181.5 -76.5t36.5 -208.5l-9 -57
q-12 -84 -46.5 -137.5t-86.5 -78.5t-117 -25z" />
    <glyph glyph-name="uni04C4" unicode="&#x4c4;" horiz-adv-x="558" 
d="M249 -186l-15 69q54 12 85 32.5t46.5 53.5t23.5 81l5 32q12 74 -17.5 108t-98.5 34h-114l-36 -224h-90l80 503h90l-33 -208h88l195 208h102l-225 -245l-35 35q69 0 114 -23.5t64 -69t8 -113.5l-6 -35q-10 -64 -34.5 -111t-71.5 -78.5t-125 -48.5z" />
    <glyph glyph-name="uni04C5" unicode="&#x4c5;" horiz-adv-x="786" 
d="M558 -159l80 159h-88l12 76h194l-118 -235h-80zM23 -15l-42 70q47 22 85 52t68 77.5t53.5 120t40.5 178.5l35 222h488l-112 -705h-93l100 627h-310l-26 -164q-17 -109 -43.5 -189t-61.5 -135t-80.5 -92t-101.5 -62z" />
    <glyph glyph-name="uni04C6" unicode="&#x4c6;" horiz-adv-x="619" 
d="M389 -130l68 130h-68l11 71h171l-105 -201h-77zM14 -12l-23 73q38 15 64.5 37t45.5 56.5t33 85t25 121.5l24 142h371l-80 -503h-90l68 432h-197l-13 -79q-13 -85 -32.5 -146.5t-46.5 -104.5t-63.5 -70t-85.5 -44z" />
    <glyph glyph-name="uni04C7" unicode="&#x4c7;" horiz-adv-x="768" 
d="M444 -187q-17 0 -38 2t-42 7l12 76q19 -4 35.5 -6t29.5 -2q46 0 73 27.5t36 88.5l50 312h-410l-51 -318h-93l112 705h93l-49 -308h410l49 308h94l-112 -699q-10 -66 -34.5 -109t-65 -63.5t-99.5 -20.5z" />
    <glyph glyph-name="uni04C8" unicode="&#x4c8;" horiz-adv-x="603" 
d="M232 -193l5 69l47 4q46 4 73.5 30.5t35.5 76.5l37 236h-266l-36 -223h-90l80 503h90l-33 -208h266l34 208h89l-80 -506q-10 -63 -35 -103t-67 -60t-104 -24z" />
    <glyph glyph-name="uni04C9" unicode="&#x4c9;" horiz-adv-x="790" 
d="M579 -159l80 159h-88l12 76h194l-118 -235h-80zM46 0l112 705h93l-49 -308h410l49 308h94l-112 -705h-94l51 318h-410l-51 -318h-93z" />
    <glyph glyph-name="uni04CA" unicode="&#x4ca;" horiz-adv-x="625" 
d="M399 -130l68 130h-68l12 71h170l-104 -201h-78zM38 0l80 503h90l-33 -208h266l33 208h90l-80 -503h-90l36 223h-266l-36 -223h-90z" />
    <glyph glyph-name="uni04CB" unicode="&#x4cb;" horiz-adv-x="696" 
d="M442 -159h-85l37 235h146l-12 -76h-61zM478 0l46 293q-34 -16 -81.5 -25t-95.5 -9q-92 0 -151.5 32t-83.5 96.5t-9 160.5l26 157h92l-24 -151q-19 -116 24 -165t146 -49q45 0 87.5 8.5t83.5 28.5l52 328h93l-112 -705h-93z" />
    <glyph glyph-name="uni04CC" unicode="&#x4cc;" horiz-adv-x="591" 
d="M339 -130h-78l30 186h149l-9 -56h-71zM361 0l31 199q-30 -16 -65 -24.5t-72 -8.5q-65 0 -109 22.5t-62.5 67.5t-7.5 113l21 134h91l-20 -127q-12 -71 15.5 -102.5t96.5 -31.5q36 0 65 7.5t58 24.5l36 229h90l-79 -503h-89z" />
    <glyph glyph-name="uni04CD" unicode="&#x4cd;" horiz-adv-x="883" 
d="M680 -159l80 159h-88l12 76h194l-118 -235h-80zM46 0l112 705h82l178 -626h-30l378 626h81l-112 -705h-85l92 581h32l-354 -581h-57l-170 581h30l-92 -581h-85z" />
    <glyph glyph-name="uni04CE" unicode="&#x4ce;" horiz-adv-x="705" 
d="M480 -130l68 130h-68l11 71h171l-105 -201h-77zM38 0l80 503h76l133 -329l237 329h76l-80 -503h-80l64 401h24l-231 -320h-45l-129 321h19l-64 -402h-80z" />
    <glyph glyph-name="uni04CF" unicode="&#x4cf;" horiz-adv-x="254" 
d="M41 0l117 736h91l-117 -736h-91z" />
    <glyph glyph-name="uni04D0" unicode="&#x4d0;" horiz-adv-x="738" 
d="M-26 0l424 705h81l205 -705h-92l-56 200l37 -24h-429l47 24l-118 -200h-99zM425 601l-215 -370l-21 21h363l-22 -21l-102 370h-3zM446 760q-45 0 -82.5 15t-63 45t-36.5 73l52 19q16 -50 48.5 -73t83.5 -23q52 0 87.5 22t66.5 73l48 -18q-22 -47 -53.5 -76.5t-70 -43
t-80.5 -13.5z" />
    <glyph glyph-name="uni04D1" unicode="&#x4d1;" horiz-adv-x="616" 
d="M241 -9q-69 0 -116 32.5t-66 94t-6 147.5q20 121 90 184t168 63q66 0 110.5 -33t53.5 -91l-11 -1l30 116h87q-7 -30 -14.5 -60t-12.5 -59l-60 -384h-91l19 117h15q-26 -59 -76 -92.5t-120 -33.5zM267 63q67 0 115 47.5t63 138.5q15 95 -19.5 142.5t-105.5 47.5
q-67 0 -114 -47t-62 -137q-15 -96 18.5 -144t104.5 -48zM352 549q-41 0 -75.5 15.5t-57.5 45.5t-32 72l50 19q14 -50 43.5 -73t74.5 -23q46 0 76.5 22t56.5 73l49 -18q-19 -47 -47.5 -76.5t-63 -43t-74.5 -13.5z" />
    <glyph glyph-name="uni04D2" unicode="&#x4d2;" horiz-adv-x="738" 
d="M-26 0l424 705h81l205 -705h-92l-56 200l37 -24h-429l47 24l-118 -200h-99zM425 601l-215 -370l-21 21h363l-22 -21l-102 370h-3zM498 802l15 93h93l-16 -93h-92zM320 802l15 93h93l-15 -93h-93z" />
    <glyph glyph-name="uni04D3" unicode="&#x4d3;" horiz-adv-x="616" 
d="M241 -9q-69 0 -116 32.5t-66 94t-6 147.5q20 121 90 184t168 63q66 0 110.5 -33t53.5 -91l-11 -1l30 116h87q-7 -30 -14.5 -60t-12.5 -59l-60 -384h-91l19 117h15q-26 -59 -76 -92.5t-120 -33.5zM267 63q67 0 115 47.5t63 138.5q15 95 -19.5 142.5t-105.5 47.5
q-67 0 -114 -47t-62 -137q-15 -96 18.5 -144t104.5 -48zM402 606l13 93h93l-14 -93h-92zM224 606l14 93h93l-14 -93h-93z" />
    <glyph glyph-name="uni04D4" unicode="&#x4d4;" horiz-adv-x="1008" 
d="M-46 0l543 705h535l-13 -76h-394l26 23l-19 -281l-14 25h344l-12 -76h-338l16 10l-18 -278l-9 24h331l-12 -76h-401l13 196l24 -20h-381l38 25l-152 -201h-107zM535 628l-301 -398l-9 22h323l-12 -24l27 400h-28z" />
    <glyph glyph-name="uni04D5" unicode="&#x4d5;" horiz-adv-x="890" 
d="M214 -9q-61 0 -101 23t-57 61.5t-10 83.5q10 53 48 82.5t104.5 41.5t159.5 12h52l-8 -53h-54q-65 0 -112 -7.5t-73.5 -27t-32.5 -55.5q-7 -42 18.5 -68t77.5 -26q64 0 106.5 40.5t53.5 106.5l17 115q11 63 -16.5 91.5t-80.5 28.5q-48 0 -89 -11.5t-88 -38.5l-27 65
q29 18 64 31t72.5 19.5t73.5 6.5q81 0 120.5 -31t44.5 -90h-29q36 59 91 90t120 31q69 0 114 -30.5t63.5 -84.5t8.5 -125l-5 -30h-376l9 54h314l-18 -14q12 79 -17 121.5t-97 42.5q-48 0 -84.5 -22.5t-58 -61t-28.5 -88.5l-4 -25q-12 -89 26 -137.5t123 -48.5q41 0 81 13
t76 43l30 -63q-39 -31 -91.5 -48t-105.5 -17q-88 0 -142.5 40t-71.5 114h24q-27 -73 -82.5 -113.5t-132.5 -40.5z" />
    <glyph glyph-name="uni04D6" unicode="&#x4d6;" horiz-adv-x="590" 
d="M46 0l112 705h456l-13 -76h-366l-36 -233h343l-12 -76h-343l-39 -244h365l-11 -76h-456zM412 760q-45 0 -82.5 15t-63 45t-36.5 73l52 19q16 -50 48.5 -73t83.5 -23q52 0 87.5 22t66.5 73l48 -18q-22 -47 -53.5 -76.5t-70 -43t-80.5 -13.5z" />
    <glyph glyph-name="uni04D7" unicode="&#x4d7;" horiz-adv-x="556" 
d="M281 -9q-85 0 -140 34t-77.5 96.5t-9.5 146.5q12 77 48 131.5t92 83.5t127 29q70 0 115.5 -30.5t65 -84.5t8.5 -125l-5 -30h-384l8 54h323l-18 -14q12 79 -18 121.5t-100 42.5q-50 0 -86.5 -22.5t-58.5 -61t-28 -88.5l-4 -25q-12 -89 26 -137.5t126 -48.5q42 0 83 13
t77 43l30 -63q-40 -31 -92 -48t-108 -17zM343 549q-41 0 -75.5 15.5t-57.5 45.5t-32 72l50 19q14 -50 43.5 -73t74.5 -23q46 0 76.5 22t56.5 73l49 -18q-19 -47 -47.5 -76.5t-63 -43t-74.5 -13.5z" />
    <glyph glyph-name="uni04D8" unicode="&#x4d8;" horiz-adv-x="754" 
d="M344 -9q-110 0 -174.5 46t-87 127.5t-5.5 189.5l6 39h555l-12 -75h-485l30 35q-14 -92 -2.5 -155t54.5 -95.5t124 -32.5q108 0 176 70.5t89 207.5q22 137 -29 210.5t-176 73.5q-69 0 -124 -17t-111 -59l-32 73q58 43 126 64t152 21q111 0 182 -45.5t98.5 -129t9.5 -198.5
q-17 -108 -66.5 -186.5t-125 -121t-172.5 -42.5z" />
    <glyph glyph-name="uni04D9" unicode="&#x4d9;" horiz-adv-x="556" 
d="M241 -9q-73 0 -120.5 30.5t-66.5 85t-9 124.5l5 30h384l-8 -55h-323l20 15q-14 -78 16 -120.5t104 -42.5q48 0 83.5 22t57.5 61t29 88l4 25q12 90 -26.5 137.5t-126.5 47.5q-41 0 -82 -12t-78 -42l-29 63q41 32 93.5 48t109.5 16q83 0 137.5 -34t77 -96t8.5 -147
q-12 -75 -47 -130t-89 -84.5t-124 -29.5z" />
    <glyph glyph-name="uni04DA" unicode="&#x4da;" horiz-adv-x="754" 
d="M344 -9q-110 0 -174.5 46t-87 127.5t-5.5 189.5l6 39h555l-12 -75h-485l30 35q-14 -92 -2.5 -155t54.5 -95.5t124 -32.5q108 0 176 70.5t89 207.5q22 137 -29 210.5t-176 73.5q-69 0 -124 -17t-111 -59l-32 73q58 43 126 64t152 21q111 0 182 -45.5t98.5 -129t9.5 -198.5
q-17 -108 -66.5 -186.5t-125 -121t-172.5 -42.5zM507 802l15 93h93l-16 -93h-92zM329 802l15 93h93l-15 -93h-93z" />
    <glyph glyph-name="uni04DB" unicode="&#x4db;" horiz-adv-x="556" 
d="M241 -9q-73 0 -120.5 30.5t-66.5 85t-9 124.5l5 30h384l-8 -55h-323l20 15q-14 -78 16 -120.5t104 -42.5q48 0 83.5 22t57.5 61t29 88l4 25q12 90 -26.5 137.5t-126.5 47.5q-41 0 -82 -12t-78 -42l-29 63q41 32 93.5 48t109.5 16q83 0 137.5 -34t77 -96t8.5 -147
q-12 -75 -47 -130t-89 -84.5t-124 -29.5zM371 606l13 93h93l-14 -93h-92zM193 606l14 93h93l-14 -93h-93z" />
    <glyph glyph-name="uni04DC" unicode="&#x4dc;" horiz-adv-x="1006" 
d="M-33 0l161 246q43 65 94 100.5t119 43.5l-36 -28l-182 343h98l170 -327l-18 16h108l50 311h89l-49 -311h109l-30 -16l275 327h107l-291 -343l-31 28q56 -7 96.5 -43t62.5 -101l85 -246h-95l-68 206q-20 59 -55 84.5t-91 25.5h-86l-51 -316h-89l49 316h-85
q-58 0 -99.5 -25.5t-79.5 -84.5l-132 -206h-105zM633 802l15 93h93l-16 -93h-92zM455 802l15 93h93l-15 -93h-93z" />
    <glyph glyph-name="uni04DD" unicode="&#x4dd;" horiz-adv-x="814" 
d="M-43 0l134 179q28 37 51.5 59t47.5 33.5t52 14.5l-23 -28l-153 245h96l129 -208h79l33 208h91l-33 -208h74l195 208h104l-229 -245l-20 28q27 -3 46 -14.5t35 -33.5t33 -59l76 -179h-93l-67 155q-11 27 -24 42t-31.5 21t-45.5 6h-65l-35 -224h-90l35 224h-65
q-28 0 -46.5 -6t-35 -21t-37.5 -42l-115 -155h-103zM508 606l13 93h93l-14 -93h-92zM330 606l14 93h93l-14 -93h-93z" />
    <glyph glyph-name="uni04DE" unicode="&#x4de;" horiz-adv-x="651" 
d="M288 -9q-89 0 -156.5 24t-107.5 65l35 70q43 -39 99 -59t133 -20q92 0 143 32t61 93q9 64 -25.5 93.5t-113.5 29.5h-181l12 76h166q81 0 123 30t51 85q9 59 -29.5 91.5t-126.5 32.5q-65 0 -125.5 -19t-113.5 -57l-32 70q57 42 130.5 64t152.5 22q88 0 143.5 -24.5t79 -69
t14.5 -104.5q-10 -60 -53 -104t-120 -60l2 14q73 -10 110.5 -57t24.5 -124q-9 -60 -45 -103.5t-99 -67t-152 -23.5zM451 802l15 93h93l-16 -93h-92zM273 802l15 93h93l-15 -93h-93z" />
    <glyph glyph-name="uni04DF" unicode="&#x4df;" horiz-adv-x="513" 
d="M215 -9q-64 0 -118.5 17t-85.5 48l32 63q32 -30 78 -45t98 -15q70 0 106 21.5t41 62.5q7 39 -17 59t-76 20h-121l10 66h112q46 0 76 20.5t35 56.5q6 37 -20.5 58.5t-90.5 21.5q-52 0 -97.5 -13t-88.5 -38l-26 59q47 30 104.5 44.5t123.5 14.5q97 0 144 -38t36 -106
q-7 -46 -44.5 -78.5t-91.5 -39.5l2 13q61 -3 92 -38.5t22 -90.5q-10 -64 -68.5 -103.5t-166.5 -39.5zM354 609l13 93h93l-14 -93h-92zM176 609l14 93h93l-14 -93h-93z" />
    <glyph glyph-name="uni04E0" unicode="&#x4e0;" horiz-adv-x="652" 
d="M287 -9q-89 0 -157 24t-109 65l37 71q41 -40 97 -60t130 -20q100 0 150 33t60 94q9 63 -25 92t-112 29h-133l10 62l299 274l-4 -28h-417l13 78h511l-10 -65l-300 -273l-11 26h67q108 0 163.5 -51.5t38.5 -154.5q-10 -60 -46.5 -104t-99.5 -68t-152 -24z" />
    <glyph glyph-name="uni04E1" unicode="&#x4e1;" horiz-adv-x="512" 
d="M173 -189q-68 0 -122 16.5t-87 46.5l31 65q32 -28 75 -42t100 -14q80 0 126.5 35.5t56.5 98.5q11 70 -22 104.5t-109 34.5h-109l7 44l272 253l-2 -22h-327l11 72h415l-10 -60l-265 -246l-20 24h57q72 0 118 -25t65 -70.5t10 -105.5q-10 -67 -45 -114t-92 -71t-134 -24z
" />
    <glyph glyph-name="uni04E2" unicode="&#x4e2;" horiz-adv-x="748" 
d="M46 0l112 705h86l-93 -586h-24l536 586h72l-112 -705h-87l93 586l22 -1l-535 -585h-70zM300 813l9 59h331l-9 -59h-331z" />
    <glyph glyph-name="uni04E3" unicode="&#x4e3;" horiz-adv-x="600" 
d="M38 0l80 503h82l-65 -417l-29 1l379 416h76l-79 -503h-83l67 418l29 -2l-381 -416h-76zM209 623l9 59h301l-9 -59h-301z" />
    <glyph glyph-name="uni04E4" unicode="&#x4e4;" horiz-adv-x="748" 
d="M46 0l112 705h86l-93 -586h-24l536 586h72l-112 -705h-87l93 586l22 -1l-535 -585h-70zM506 802l15 93h93l-16 -93h-92zM328 802l15 93h93l-15 -93h-93z" />
    <glyph glyph-name="uni04E5" unicode="&#x4e5;" horiz-adv-x="600" 
d="M38 0l80 503h82l-65 -417l-29 1l379 416h76l-79 -503h-83l67 418l29 -2l-381 -416h-76zM400 606l13 93h93l-14 -93h-92zM222 606l14 93h93l-14 -93h-93z" />
    <glyph glyph-name="uni04E6" unicode="&#x4e6;" horiz-adv-x="776" 
d="M78 366q18 111 68 189t128 118.5t177 40.5q107 0 174.5 -47.5t94.5 -132t9 -194.5q-17 -111 -67.5 -189t-128 -119t-177.5 -41q-106 0 -174 47.5t-94.5 132t-9.5 195.5zM175 356q-14 -88 3.5 -151.5t64.5 -97.5t120 -34q112 0 180.5 73.5t88.5 203.5q15 88 -3 151t-65 97
t-121 34q-111 0 -178.5 -72.5t-89.5 -203.5zM526 802l15 93h93l-16 -93h-92zM348 802l15 93h93l-15 -93h-93z" />
    <glyph glyph-name="uni04E7" unicode="&#x4e7;" horiz-adv-x="587" 
d="M260 -9q-76 0 -127.5 32t-72 93.5t-7.5 148.5q13 80 51 135.5t94.5 83.5t126.5 28q78 0 129 -32t72 -93.5t7 -147.5q-13 -81 -51 -136t-95 -83.5t-127 -28.5zM266 63q67 0 114.5 47.5t62.5 138.5q15 95 -19.5 142.5t-104.5 47.5q-67 0 -113.5 -47t-61.5 -137
q-15 -96 18 -144t104 -48zM394 606l13 93h93l-14 -93h-92zM216 606l14 93h93l-14 -93h-93z" />
    <glyph glyph-name="uni04E8" unicode="&#x4e8;" horiz-adv-x="776" 
d="M120 322l11 72h570l-11 -72h-570zM78 366q18 111 68 189t128 118.5t177 40.5q107 0 174.5 -47.5t94.5 -132t9 -194.5q-17 -111 -67.5 -189t-128 -119t-177.5 -41q-106 0 -174 47.5t-94.5 132t-9.5 195.5zM175 356q-14 -88 3.5 -151.5t64.5 -97.5t120 -34
q112 0 180.5 73.5t88.5 203.5q15 88 -3 151t-65 97t-121 34q-111 0 -178.5 -72.5t-89.5 -203.5z" />
    <glyph glyph-name="uni04E9" unicode="&#x4e9;" horiz-adv-x="587" 
d="M261 -9q-77 0 -128 32t-72 93.5t-8 148.5q13 80 51 135.5t95 83.5t127 28q77 0 128 -32t72 -93.5t7 -147.5q-13 -81 -51 -136t-94.5 -83.5t-126.5 -28.5zM266 63q71 0 119.5 47.5t63.5 138.5q15 93 -20.5 141.5t-109.5 48.5q-70 0 -118.5 -47t-62.5 -138
q-14 -92 19 -141.5t109 -49.5zM102 221l9 62h376l-9 -62h-376z" />
    <glyph glyph-name="uni04EA" unicode="&#x4ea;" horiz-adv-x="776" 
d="M120 322l11 72h570l-11 -72h-570zM78 366q18 111 68 189t128 118.5t177 40.5q107 0 174.5 -47.5t94.5 -132t9 -194.5q-17 -111 -67.5 -189t-128 -119t-177.5 -41q-106 0 -174 47.5t-94.5 132t-9.5 195.5zM175 356q-14 -88 3.5 -151.5t64.5 -97.5t120 -34
q112 0 180.5 73.5t88.5 203.5q15 88 -3 151t-65 97t-121 34q-111 0 -178.5 -72.5t-89.5 -203.5zM520 802l15 93h93l-16 -93h-92zM342 802l15 93h93l-15 -93h-93z" />
    <glyph glyph-name="uni04EB" unicode="&#x4eb;" horiz-adv-x="587" 
d="M261 -9q-77 0 -128 32t-72 93.5t-8 148.5q13 80 51 135.5t95 83.5t127 28q77 0 128 -32t72 -93.5t7 -147.5q-13 -81 -51 -136t-94.5 -83.5t-126.5 -28.5zM266 63q71 0 119.5 47.5t63.5 138.5q15 93 -20.5 141.5t-109.5 48.5q-70 0 -118.5 -47t-62.5 -138
q-14 -92 19 -141.5t109 -49.5zM102 221l9 62h376l-9 -62h-376zM394 606l13 93h93l-14 -93h-92zM216 606l14 93h93l-14 -93h-93z" />
    <glyph glyph-name="uni04EC" unicode="&#x4ec;" horiz-adv-x="692" 
d="M255 -9q-71 0 -126.5 20.5t-95.5 59.5l37 75q43 -39 86 -55.5t107 -16.5q117 0 188.5 69.5t94.5 191.5l27 -15h-390l12 76h389l-34 -33q16 125 -36.5 196.5t-174.5 71.5q-57 0 -110.5 -19t-101.5 -61l-32 75q51 44 118.5 66t134.5 22q87 0 149.5 -27.5t99.5 -77.5
t49.5 -119t-0.5 -151q-18 -110 -70 -188.5t-133 -119.5t-188 -40zM444 802l15 93h93l-16 -93h-92zM266 802l15 93h93l-15 -93h-93z" />
    <glyph glyph-name="uni04ED" unicode="&#x4ed;" horiz-adv-x="524" 
d="M187 -9q-54 0 -97.5 15t-70.5 44l32 59q27 -25 61.5 -37t71.5 -12q81 0 132 46.5t66 126.5l11 -10h-264l11 66h265l-20 -29q11 89 -27 136t-117 47q-40 0 -79 -12.5t-74 -42.5l-25 60q32 30 84 47t107 17q78 0 131.5 -33t76.5 -94t9 -146q-13 -81 -52 -136.5t-98 -83.5
t-134 -28zM339 606l13 93h93l-14 -93h-92zM161 606l14 93h93l-14 -93h-93z" />
    <glyph glyph-name="uni04EE" unicode="&#x4ee;" horiz-adv-x="666" 
d="M156 0l159 230v-34l-247 509h97l204 -426h-19l293 426h101l-486 -705h-102zM258 813l9 59h331l-9 -59h-331z" />
    <glyph glyph-name="uni04EF" unicode="&#x4ef;" horiz-adv-x="543" 
d="M-11 -227l-15 74q49 11 82.5 25.5t58.5 37.5t46 58l35 60l-5 -38l-138 513h95l108 -431h-27l243 431h98l-317 -542q-29 -49 -59 -82t-61.5 -54t-66.5 -33t-77 -19zM171 623l9 59h301l-9 -59h-301z" />
    <glyph glyph-name="uni04F0" unicode="&#x4f0;" horiz-adv-x="666" 
d="M156 0l159 230v-34l-247 509h97l204 -426h-19l293 426h101l-486 -705h-102zM464 802l15 93h93l-16 -93h-92zM286 802l15 93h93l-15 -93h-93z" />
    <glyph glyph-name="uni04F1" unicode="&#x4f1;" horiz-adv-x="543" 
d="M-11 -227l-15 74q49 11 82.5 25.5t58.5 37.5t46 58l35 60l-5 -38l-138 513h95l108 -431h-27l243 431h98l-317 -542q-29 -49 -59 -82t-61.5 -54t-66.5 -33t-77 -19zM362 606l13 93h93l-14 -93h-92zM184 606l14 93h93l-14 -93h-93z" />
    <glyph glyph-name="uni04F2" unicode="&#x4f2;" horiz-adv-x="666" 
d="M156 0l159 230v-34l-247 509h97l204 -426h-19l293 426h101l-486 -705h-102zM325 765l100 172h88l-135 -172h-53zM456 765l106 172h87l-140 -172h-53z" />
    <glyph glyph-name="uni04F3" unicode="&#x4f3;" horiz-adv-x="543" 
d="M-11 -227l-15 74q49 11 82.5 25.5t58.5 37.5t46 58l35 60l-5 -38l-138 513h95l108 -431h-27l243 431h98l-317 -542q-29 -49 -59 -82t-61.5 -54t-66.5 -33t-77 -19zM349 552l72 202h81l-103 -202h-50zM217 552l71 202h82l-103 -202h-50z" />
    <glyph glyph-name="uni04F4" unicode="&#x4f4;" horiz-adv-x="696" 
d="M478 0l46 293q-34 -16 -81.5 -25t-95.5 -9q-92 0 -151.5 32t-83.5 96.5t-9 160.5l26 157h92l-24 -151q-19 -116 24 -165t146 -49q45 0 87.5 8.5t83.5 28.5l52 328h93l-112 -705h-93zM458 802l15 93h93l-16 -93h-92zM280 802l15 93h93l-15 -93h-93z" />
    <glyph glyph-name="uni04F5" unicode="&#x4f5;" horiz-adv-x="568" 
d="M361 0l31 199q-30 -16 -65 -24.5t-72 -8.5q-65 0 -109 22.5t-62.5 67.5t-7.5 113l21 134h91l-20 -127q-12 -71 15.5 -102.5t96.5 -31.5q36 0 65 7.5t58 24.5l36 229h90l-79 -503h-89zM374 606l13 93h93l-14 -93h-92zM196 606l14 93h93l-14 -93h-93z" />
    <glyph glyph-name="uni04F6" unicode="&#x4f6;" horiz-adv-x="559" 
d="M135 -159l26 159h-109l12 76h191l-37 -235h-83zM46 0l112 705h459l-13 -78h-367l-98 -627h-93z" />
    <glyph glyph-name="uni04F7" unicode="&#x4f7;" horiz-adv-x="451" 
d="M110 -130l21 130h-88l11 71h166l-32 -201h-78zM38 0l80 503h356l-11 -73h-266l-68 -430h-91z" />
    <glyph glyph-name="uni04F8" unicode="&#x4f8;" horiz-adv-x="884" 
d="M46 0l112 705h93l-49 -308h176q118 0 175.5 -52.5t41.5 -158.5q-14 -92 -84 -139t-179 -47h-286zM150 74h177q81 0 125 30t53 93q10 65 -23 95.5t-114 30.5h-178zM666 0l112 705h93l-112 -705h-93zM572 802l15 93h93l-16 -93h-92zM394 802l15 93h93l-15 -93h-93z" />
    <glyph glyph-name="uni04F9" unicode="&#x4f9;" horiz-adv-x="754" 
d="M38 0l80 503h90l-28 -178h142q101 0 144.5 -44.5t31.5 -125.5q-13 -79 -69.5 -117t-150.5 -38h-240zM139 63h138q59 0 93 22.5t42 72.5q9 55 -18 79.5t-86 24.5h-138zM546 0l80 503h90l-80 -503h-90zM478 606l13 93h93l-14 -93h-92zM300 606l14 93h93l-14 -93h-93z" />
    <glyph glyph-name="uni04FA" unicode="&#x4fa;" horiz-adv-x="599" 
d="M24 -183l4 65l47 5q57 5 85 32.5t36 80.5h-111l51 317h-100l10 70h100l51 318h459l-13 -78h-366l-38 -240h190l-11 -70h-189l-39 -241h102l-9 -63q-15 -93 -65 -140t-141 -53z" />
    <glyph glyph-name="uni04FB" unicode="&#x4fb;" horiz-adv-x="473" 
d="M6 -183l5 66l49 5q41 3 63 31t31 81h-91l34 214h-99l11 64h98l35 225h357l-12 -72h-266l-23 -153h149l-11 -64h-149l-25 -157h82l-7 -44q-15 -93 -62 -140t-117 -52z" />
    <glyph glyph-name="uni04FC" unicode="&#x4fc;" horiz-adv-x="657" 
d="M358 -185l-4 74q60 7 91.5 28t37.5 57q6 35 -9 69.5t-39 74.5l-113 196h36l-280 -314h-115l343 378l-1 -36l-214 363h106l169 -296h-29l261 296h116l-329 -363v36l136 -230q30 -51 46 -94t8 -92q-9 -60 -62 -98t-155 -49z" />
    <glyph glyph-name="uni04FD" unicode="&#x4fd;" horiz-adv-x="549" 
d="M267 -185l-5 66q56 6 85 24.5t34 54.5q4 25 -7 51.5t-40 73.5l-82 130h33l-203 -215h-113l271 282l-1 -45l-173 266h104l125 -201h-33l189 201h113l-254 -264l2 40l99 -153q25 -38 40 -66t20 -51.5t1 -50.5q-6 -40 -31 -70.5t-68.5 -49t-105.5 -23.5z" />
    <glyph glyph-name="uni04FE" unicode="&#x4fe;" horiz-adv-x="657" 
d="M-37 0l343 378l-1 -36l-214 363h106l169 -296h-29l261 296h116l-329 -363v36l224 -378h-106l-181 314h36l-280 -314h-115zM130 334l9 58h421l-8 -58h-422z" />
    <glyph glyph-name="uni04FF" unicode="&#x4ff;" horiz-adv-x="549" 
d="M-32 0l272 282l-1 -45l-173 266h103l125 -201h-32l189 201h113l-255 -264l3 41l181 -280h-106l-135 215h34l-204 -215h-114zM58 227l9 58h421l-8 -58h-422z" />
    <glyph glyph-name="uni0510" unicode="&#x510;" horiz-adv-x="652" 
d="M303 -9q-97 0 -156.5 27.5t-83 76.5t-14.5 110q12 70 62 113t128 53l-2 -15q-65 14 -96.5 60.5t-21.5 117.5q14 81 86.5 130.5t190.5 49.5q82 0 145.5 -21t104.5 -57l-35 -70q-40 34 -95 51t-119 17q-84 0 -131.5 -32.5t-57.5 -88.5q-8 -58 26.5 -88t107.5 -30h168
l-12 -76h-181q-76 0 -121 -28t-53 -81q-11 -66 29.5 -102.5t139.5 -36.5q75 0 138.5 19.5t118.5 59.5l30 -71q-52 -40 -127.5 -64t-168.5 -24z" />
    <glyph glyph-name="uni0511" unicode="&#x511;" horiz-adv-x="514" 
d="M230 -9q-112 0 -162 42t-40 112q9 54 50 87t103 36l-2 -13q-50 6 -77.5 38t-18.5 84q11 66 70.5 100.5t149.5 34.5q55 0 105.5 -14t87.5 -42l-30 -59q-34 23 -76 35t-88 12q-61 0 -96 -21.5t-41 -59.5q-6 -35 17 -55t69 -20h111l-10 -66h-122q-51 0 -80.5 -19t-34.5 -54
q-8 -44 21.5 -67t98.5 -23q54 0 104.5 15t90.5 42l25 -60q-41 -31 -100.5 -48t-124.5 -17z" />
    </font>
</defs>
</svg>
