<?xml version="1.0" encoding="utf-8"?>
<svg viewBox="23.011598587036133 176.38101196289062 76.86479759216309 79.23809814453125" width="76.86479759216309" height="79.23809814453125" xmlns="http://www.w3.org/2000/svg">
  <path id="path2" style="fill:#071159;fill-rule:evenodd" d="m 60.4089,220.1395 -0.609,-15.6219 13.481,-8.4941 13.6126,7.2951 0.692,16.0431 -13.481,8.4935 z" transform="matrix(1, 0, 0, 1, 3.552713678800501e-15, 0)"/>
  <path id="path4" style="fill:#071159;fill-rule:evenodd" d="m 33.6628,217.112 -0.0823,-22.4502 29.2906,-18.2808 14.0091,8.3629 c -10.1028,6.5645 -14.7455,9.3309 -24.9875,15.6991 l -0.1926,5.9751 z" transform="matrix(1, 0, 0, 1, 3.552713678800501e-15, 0)"/>
  <path id="path6" style="fill:#071159;fill-rule:evenodd" d="m 35.0548,248.4071 -12.0432,-19.0814 28.7863,-16.8447 1.1557,12.3346 10.7928,5.589 z" transform="matrix(1, 0, 0, 1, 3.552713678800501e-15, 0)"/>
  <path id="path8" style="fill:#071159;fill-rule:evenodd" d="m 50.128,245.2642 19.919,10.3549 29.8294,-18.2487 -1.8935,-15.6419 c -10.3375,6.1835 -14.3477,8.7856 -24.6876,14.9664 l -5.3995,-2.5663 z" transform="matrix(1, 0, 0, 1, 3.552713678800501e-15, 0)"/>
</svg>