<svg width="147" height="50" viewBox="0 0 147 50" fill="none" xmlns="http://www.w3.org/2000/svg">
<path d="M0 0.331023V15.6725H6.42682V0.331023H0ZM12.6463 0.331023V19.8188H19.0731V0.331023H12.6463ZM25.0853 0.331023V23.9651H31.5121V0.331023H25.0853ZM37.7316 0.331023V28.3188H44.1585V0.331023H37.7316ZM50.1706 0.331023V32.4651H56.5975V0.331023H50.1706ZM62.817 0.331023V36.6114H69.2438V0.331023H62.817ZM75.4633 0.331023V40.7578H81.8901V0.331023H75.4633ZM87.9023 0.331023V44.9041H94.3291V0.331023H87.9023ZM100.549 0.331023V49.2578H119.414C125.62 49.2578 131.562 49.3237 137.036 45.927C141.948 42.8797 145.517 37.7337 146.613 32.0505C147.078 29.6448 146.988 27.2324 146.988 24.7944C146.988 22.2942 147.106 19.7964 146.613 17.331C145.368 11.1092 141.226 5.58215 135.585 2.66499C130.596 0.0849378 125.483 0.331023 120.036 0.331023H100.549Z" fill="#383838"/>
<path d="M106.975 6.75782V42.6236H121.28C125.224 42.6236 128.866 42.8119 132.475 40.9425C136.258 38.9836 139.117 35.3835 140.097 31.2212C140.616 29.0187 140.561 26.8329 140.561 24.5871C140.561 18.3504 139.201 12.5884 133.512 9.05199C129.597 6.6183 125.501 6.75782 121.073 6.75782H106.975Z" fill="white"/>
<path d="M113.195 12.9773V36.6114H121.902C123.718 36.6114 125.709 36.838 127.5 36.515C130.601 35.9561 133.132 33.5479 134.115 30.5992C134.454 29.5842 134.546 28.5516 134.549 27.4895H128.122C127.221 31.2347 122.587 30.1846 119.622 30.1846V19.4041C121.576 19.4041 124.178 18.952 126.049 19.5395C127.302 19.9332 127.42 21.2822 128.416 21.7669C128.967 22.0352 129.807 21.8919 130.402 21.8919H134.549C134.515 17.8406 131.948 14.1433 127.914 13.1639C126.267 12.7638 124.417 12.9773 122.732 12.9773H113.195Z" fill="#383838"/>
</svg>
