<svg version="1.1" id="Layer_1" xmlns="http://www.w3.org/2000/svg" x="0" y="0" viewBox="0 0 147 50" style="enable-background:new 0 0 147 50" xml:space="preserve"><style>.st0{fill:#383838}</style><path class="st0" d="M0 .3h6.4v15.3H0zM12.6.3H19v19.5h-6.4zM25.1.3h6.4v23.6h-6.4zM37.7.3h6.4v28h-6.4zM50.2.3h6.4v32.1h-6.4zM62.8.3h6.4v36.3h-6.4zM75.5.3h6.4v40.4h-6.4zM87.9.3h6.4v44.6h-6.4zM146.6 17.3c-1.2-6.2-5.4-11.8-11-14.7C130.6 0 125.5.3 120 .3h-19.5v48.9h18.9c6.2 0 12.2.1 17.6-3.3 4.9-3 8.5-8.2 9.6-13.9.5-2.4.4-4.8.4-7.3 0-2.4.1-4.9-.4-7.4zm-6.5 13.9c-1 4.2-3.8 7.8-7.6 9.7-3.6 1.9-7.3 1.7-11.2 1.7H107V6.8h14.1c4.4 0 8.5-.1 12.4 2.3 5.7 3.5 7 9.3 7 15.5.1 2.2.1 4.4-.4 6.6z"/><path class="st0" d="M113.2 13v23.6h8.7c1.8 0 3.8.2 5.6-.1 3.1-.6 5.6-3 6.6-5.9.3-1 .4-2 .4-3.1h-6.4c-.9 3.7-5.5 2.7-8.5 2.7V19.4c2 0 4.6-.5 6.4.1 1.3.4 1.4 1.7 2.4 2.2.6.3 1.4.1 2 .1h4.1c0-4.1-2.6-7.7-6.6-8.7-1.6-.4-3.5-.2-5.2-.2l-9.5.1z"/></svg>