<?xml version="1.0" encoding="UTF-8"?>
<svg xmlns="http://www.w3.org/2000/svg" xmlns:xlink="http://www.w3.org/1999/xlink" width="60px" height="60px" viewBox="0 0 60 60" version="1.1">
<g id="surface1">
<path style="fill-rule:nonzero;fill:rgb(2.745098%,6.666667%,34.901962%);fill-opacity:1;stroke-width:41.574802;stroke-linecap:butt;stroke-linejoin:miter;stroke:rgb(2.745098%,6.666667%,34.901962%);stroke-opacity:1;stroke-miterlimit:4;" d="M 1061.945191 40.299812 C 1023.511884 40.18644 985.872185 51.296953 950.61331 65.922017 C 869.325164 101.067519 801.641729 160.588128 743.821709 226.004112 C 648.021872 335.181914 577.164004 464.199919 525.919594 599.113299 C 482.044403 715.66032 453.02102 837.989342 443.611095 962.132327 C 441.457016 1009.522068 442.023879 1057.251928 442.704115 1104.755042 C 445.311684 1163.935533 454.041374 1223.229397 469.2333 1280.709299 C 490.66072 1362.337563 527.280065 1441.358257 583.172751 1505.867259 C 637.478221 1569.582654 708.562834 1617.992749 786.903292 1648.376603 C 871.819361 1681.708144 963.424412 1696.786698 1054.4626 1699.50764 C 1103.779676 1700.414621 1153.210125 1700.187875 1201.846965 1692.251794 C 1299.800881 1677.966848 1394.80711 1641.120757 1474.054549 1582.053639 C 1539.697278 1533.983661 1593.66263 1471.28862 1633.343036 1400.77087 C 1676.537992 1324.357746 1703.747413 1239.441677 1713.157338 1152.598275 C 1715.991652 1107.135867 1714.517809 1061.560086 1714.631181 1016.097678 C 1714.971299 972.78935 1710.436396 929.821139 1703.974158 887.079673 C 1679.825797 723.823146 1627.447661 564.421287 1547.633359 419.304374 C 1493.327889 321.577203 1426.097944 229.518662 1340.841758 155.599734 C 1281.547895 104.241952 1211.25689 62.294094 1133.369922 45.741696 C 1110.128541 40.413185 1085.866807 40.526557 1061.945191 40.299812 Z M 1071.355116 53.110915 C 1142.779847 52.657424 1211.370262 80.547081 1269.983891 118.980388 C 1353.312743 173.852721 1420.542688 249.472237 1476.662119 330.64701 C 1561.124697 454.563249 1621.212169 593.89816 1659.418731 738.221465 C 1687.195015 844.224835 1702.613687 953.51601 1703.63404 1063.03393 C 1704.881139 1184.002482 1675.290893 1306.218132 1611.915616 1410.294168 C 1554.095596 1506.434122 1466.571958 1585.001326 1363.402903 1631.484087 C 1274.632167 1671.731356 1175.998015 1688.737244 1078.610962 1686.583165 C 974.534926 1685.562812 868.985046 1669.804022 773.185209 1628.196282 C 729.083272 1608.582824 686.681924 1583.980973 649.949206 1552.690138 C 620.585706 1526.387698 592.015813 1498.838159 569.454668 1466.413599 C 514.695708 1391.020828 483.631619 1301.229738 468.439692 1210.418295 C 460.163493 1161.668082 455.62859 1112.237633 455.741962 1062.807185 C 455.175099 1018.138385 455.288472 973.469585 460.957101 929.140903 C 480.683932 744.343585 540.884776 564.194542 634.303789 402.978722 C 688.836004 310.126572 754.932223 222.376189 838.261075 152.538674 C 891.092701 108.776855 952.087153 71.477274 1020.564197 57.985936 C 1037.34334 54.811504 1054.349228 53.110915 1071.355116 53.110915 Z M 1071.355116 53.110915 " transform="matrix(0.034455,0,0,0.034455,-7.15961,0.0216271)"/>
<path style=" stroke:none;fill-rule:evenodd;fill:rgb(2.745098%,6.666667%,34.901962%);fill-opacity:1;" d="M 29.632812 35.40625 L 29.417969 29.859375 L 34.203125 26.84375 L 39.035156 29.433594 L 39.28125 35.128906 L 34.496094 38.144531 Z M 29.632812 35.40625 "/>
<path style=" stroke:none;fill-rule:evenodd;fill:rgb(2.745098%,6.666667%,34.901962%);fill-opacity:1;" d="M 20.136719 34.332031 L 20.109375 26.359375 L 30.507812 19.871094 L 35.480469 22.839844 C 31.894531 25.171875 30.246094 26.152344 26.609375 28.414062 L 26.539062 30.535156 Z M 20.136719 34.332031 "/>
<path style=" stroke:none;fill-rule:evenodd;fill:rgb(2.745098%,6.666667%,34.901962%);fill-opacity:1;" d="M 20.632812 45.441406 L 16.355469 38.667969 L 26.574219 32.6875 L 26.984375 37.066406 L 30.816406 39.050781 Z M 20.632812 45.441406 "/>
<path style=" stroke:none;fill-rule:evenodd;fill:rgb(2.745098%,6.666667%,34.901962%);fill-opacity:1;" d="M 25.984375 44.324219 L 33.054688 48.003906 L 43.644531 41.523438 L 42.972656 35.96875 C 39.300781 38.164062 37.878906 39.089844 34.207031 41.285156 L 32.289062 40.371094 Z M 25.984375 44.324219 "/>
</g>
</svg>
