<?xml version="1.0" encoding="UTF-8"?>
<svg xmlns="http://www.w3.org/2000/svg" xmlns:xlink="http://www.w3.org/1999/xlink" width="30px" height="30px" viewBox="0 0 30 30" version="1.1">
<g id="surface1">
<path style="fill-rule:nonzero;fill:rgb(2.745098%,6.666667%,34.901962%);fill-opacity:1;stroke-width:41.574802;stroke-linecap:butt;stroke-linejoin:miter;stroke:rgb(2.745098%,6.666667%,34.901962%);stroke-opacity:1;stroke-miterlimit:4;" d="M 1061.945191 40.18644 C 1023.398511 40.18644 985.758812 51.296953 950.61331 66.03539 C 869.211791 100.954147 801.641729 160.588128 743.821709 225.890739 C 647.908499 335.181914 577.164004 464.199919 525.919594 599.113299 C 482.157775 715.66032 452.907648 838.102715 443.611095 962.132327 C 441.343644 1009.522068 442.023879 1057.138555 442.704115 1104.755042 C 445.425057 1163.935533 454.041374 1223.116024 469.2333 1280.709299 C 490.774092 1362.337563 527.280065 1441.244884 583.286124 1505.867259 C 637.478221 1569.582654 708.449461 1618.106122 786.903292 1648.489975 C 871.705988 1681.594771 963.537785 1696.786698 1054.4626 1699.50764 C 1103.893049 1700.414621 1153.096752 1700.187875 1201.846965 1692.251794 C 1299.800881 1677.966848 1394.80711 1641.23413 1473.941177 1582.053639 C 1539.697278 1533.983661 1593.66263 1471.175247 1633.343036 1400.884243 C 1676.424619 1324.471118 1703.63404 1239.441677 1713.157338 1152.598275 C 1715.87828 1107.249239 1714.517809 1061.673459 1714.744554 1016.097678 C 1714.971299 972.78935 1710.436396 929.934511 1704.087531 887.079673 C 1679.825797 723.823146 1627.447661 564.421287 1547.633359 419.304374 C 1493.441262 321.577203 1426.097944 229.518662 1340.841758 155.599734 C 1281.434522 104.128579 1211.370262 62.407467 1133.369922 45.855069 C 1110.015169 40.413185 1085.98018 40.413185 1061.945191 40.18644 Z M 1071.468489 53.110915 C 1142.666474 52.657424 1211.370262 80.547081 1270.097263 119.093761 C 1353.312743 173.739348 1420.65606 249.472237 1476.662119 330.64701 C 1561.238069 454.676622 1621.098796 593.89816 1659.418731 738.108092 C 1687.081642 844.224835 1702.72706 953.51601 1703.63404 1063.03393 C 1704.994511 1183.889109 1675.290893 1306.331504 1612.028989 1410.40754 C 1553.982224 1506.32075 1466.458586 1585.001326 1363.516276 1631.484087 C 1274.632167 1671.844728 1175.998015 1688.850617 1078.497589 1686.583165 C 974.421553 1685.449439 868.985046 1669.804022 773.298582 1628.082909 C 729.083272 1608.582824 686.681924 1584.094345 649.949206 1552.803511 C 620.699078 1526.50107 591.902441 1498.838159 569.454668 1466.413599 C 514.809081 1391.1342 483.518246 1301.34311 468.553065 1210.418295 C 460.163493 1161.668082 455.62859 1112.237633 455.62859 1062.807185 C 455.175099 1018.138385 455.401845 973.469585 460.843729 929.027531 C 480.570559 744.456957 540.884776 564.194542 634.303789 402.978722 C 688.949376 310.013199 754.932223 222.262816 838.147702 152.425302 C 890.979328 108.890228 952.200526 71.477274 1020.450824 58.099309 C 1037.229967 54.924876 1054.235855 53.110915 1071.468489 53.110915 Z M 1071.468489 53.110915 " transform="matrix(0.0172275,0,0,0.0172275,-3.579805,0.0108136)"/>
<path style=" stroke:none;fill-rule:evenodd;fill:rgb(2.745098%,6.666667%,34.901962%);fill-opacity:1;" d="M 14.816406 17.703125 L 14.707031 14.929688 L 17.101562 13.421875 L 19.515625 14.71875 L 19.640625 17.566406 L 17.246094 19.074219 Z M 14.816406 17.703125 "/>
<path style=" stroke:none;fill-rule:evenodd;fill:rgb(2.745098%,6.666667%,34.901962%);fill-opacity:1;" d="M 10.070312 17.164062 L 10.054688 13.179688 L 15.253906 9.9375 L 17.738281 11.421875 C 15.945312 12.585938 15.121094 13.078125 13.304688 14.207031 L 13.269531 15.265625 Z M 10.070312 17.164062 "/>
<path style=" stroke:none;fill-rule:evenodd;fill:rgb(2.745098%,6.666667%,34.901962%);fill-opacity:1;" d="M 10.316406 22.722656 L 8.179688 19.332031 L 13.289062 16.34375 L 13.492188 18.53125 L 15.410156 19.523438 Z M 10.316406 22.722656 "/>
<path style=" stroke:none;fill-rule:evenodd;fill:rgb(2.745098%,6.666667%,34.901962%);fill-opacity:1;" d="M 12.992188 22.164062 L 16.527344 24 L 21.820312 20.761719 L 21.484375 17.984375 C 19.652344 19.082031 18.9375 19.542969 17.105469 20.640625 L 16.144531 20.1875 Z M 12.992188 22.164062 "/>
</g>
</svg>
