<svg width="56" height="34" viewBox="0 0 56 34" fill="none" xmlns="http://www.w3.org/2000/svg">
<path d="M20.6503 22.3224C21.3624 22.3224 21.7916 22.0005 22.1819 21.6493V20.4981C21.1673 20.5078 19.821 20.5078 19.821 21.5224C19.821 22.0395 20.1039 22.3224 20.6503 22.3224ZM22.1819 19.7957V19.3372C22.1819 18.8982 21.9185 18.5175 21.1087 18.5175C20.2209 18.5175 19.6843 18.9274 19.5868 18.9274C19.4502 18.9274 19.2454 18.5469 19.2454 18.4396C19.2454 18.1858 20.1039 17.8152 21.0795 17.8152C22.2892 17.8152 23.0014 18.381 23.0014 19.3468V21.5322C23.0014 22.3322 23.1185 22.7127 23.1185 22.7614C23.1185 22.9468 22.7185 22.9859 22.5917 22.9859C22.3575 22.9859 22.3088 22.5761 22.2502 22.303C21.8794 22.7127 21.3429 23.0347 20.6111 23.0347C19.6649 23.0347 18.9429 22.5761 18.9429 21.5713C18.9429 19.9225 20.6892 19.8152 22.1819 19.7957Z" fill="#383838"/>
<path d="M24.6597 19.3564C24.6597 18.5564 24.5425 18.176 24.5425 18.1272C24.5425 17.9418 24.9426 17.9028 25.0694 17.9028C25.3036 17.9028 25.3524 18.293 25.4109 18.5467C25.7426 18.0784 26.1328 17.815 26.5425 17.815C26.9231 17.815 27.1084 17.9809 27.1084 18.1954C27.1084 18.3808 27.0304 18.7223 26.9133 18.7223C26.7865 18.7223 26.7083 18.615 26.3767 18.615C25.8695 18.615 25.4792 19.2101 25.4792 19.2101V22.7807C25.4792 22.9174 25.3621 22.9954 25.089 22.9954H25.0499C24.7768 22.9954 24.6597 22.9174 24.6597 22.7807V19.3564Z" fill="#383838"/>
<path d="M30.1911 22.3125H30.2497C31.0886 22.293 31.5276 21.6588 31.5276 20.4978C31.5276 19.2394 31.0984 18.5271 30.3277 18.5271C29.8985 18.5271 29.4107 18.7613 29.0106 19.2003V21.8734C29.3618 22.1661 29.7716 22.3125 30.1911 22.3125ZM29.0106 24.7905C29.0106 24.927 28.8936 25.0051 28.6203 25.0051H28.5814C28.3082 25.0051 28.1912 24.927 28.1912 24.7905V19.3563C28.1912 18.5565 28.0741 18.1759 28.0741 18.1272C28.0741 17.9418 28.4741 17.9029 28.6009 17.9029C28.8351 17.9029 28.8838 18.293 28.9423 18.5466C29.4204 18.0491 29.9375 17.815 30.4935 17.815C31.6643 17.815 32.3862 18.9076 32.3862 20.3906V20.4784C32.3862 22.1173 31.5667 23.0344 30.4057 23.0344C29.8008 23.0344 29.3911 22.8296 29.0106 22.5369V24.7905Z" fill="#383838"/>
<path d="M36.8931 20.0592C36.8931 19.0347 36.5028 18.5176 35.7223 18.5176C34.8736 18.5176 34.4248 19.0347 34.3566 20.0592H36.8931ZM35.7517 17.8153C37.0882 17.8153 37.7614 18.7031 37.7614 20.3615C37.7614 20.4786 37.5564 20.7615 37.4394 20.7615H34.3566C34.4347 21.8444 34.8931 22.3323 35.8591 22.3323C36.7077 22.3323 37.1858 21.9225 37.2834 21.9225C37.4199 21.9225 37.6248 22.303 37.6248 22.4103C37.6248 22.6445 36.8541 23.0347 35.8687 23.0347C34.2492 23.0347 33.4785 22.2054 33.4785 20.4591C33.4785 18.7323 34.259 17.8153 35.7517 17.8153Z" fill="#383838"/>
<path d="M39.0391 19.3564C39.0391 18.5564 38.922 18.176 38.922 18.1272C38.922 17.9418 39.3221 17.9028 39.4488 17.9028C39.683 17.9028 39.7318 18.293 39.7902 18.5467C40.2001 18.0882 40.7659 17.815 41.3123 17.815C42.3073 17.815 42.9025 18.4101 42.9025 19.3955V22.7807C42.9025 22.9174 42.7853 22.9954 42.5122 22.9954H42.4732C42.2 22.9954 42.083 22.9174 42.083 22.7807V19.4735C42.083 18.8784 41.722 18.5272 41.0878 18.5272C40.6489 18.5272 40.1805 18.7906 39.8585 19.2101V22.7807C39.8585 22.9174 39.7415 22.9954 39.4684 22.9954H39.4294C39.1562 22.9954 39.0391 22.9174 39.0391 22.7807V19.3564Z" fill="#383838"/>
<path d="M44.6778 18.5761H44.1899C44.0534 18.5761 43.9949 18.4884 43.9949 18.2835V18.1664C43.9949 17.9615 44.0534 17.8738 44.1899 17.8738H44.6778L44.7948 16.8493C44.8046 16.7128 44.9022 16.6347 45.107 16.6347H45.2046C45.4095 16.6347 45.4972 16.7128 45.4972 16.8493V17.8738H46.3168C46.4533 17.8738 46.5119 17.9615 46.5119 18.1664V18.2835C46.5119 18.4884 46.4533 18.5761 46.3168 18.5761H45.4972V21.6103C45.4972 22.1956 45.7412 22.3322 46.024 22.3322C46.307 22.3322 46.3557 22.2834 46.4435 22.2834C46.5802 22.2834 46.6485 22.664 46.6485 22.7419C46.6485 23.0054 46.1996 23.0347 45.9362 23.0347C45.4484 23.0347 44.6778 22.82 44.6778 21.6883V18.5761Z" fill="#383838"/>
<path d="M47.8482 19.3564C47.8482 18.5564 47.7311 18.176 47.7311 18.1272C47.7311 17.9418 48.1312 17.9028 48.2579 17.9028C48.4922 17.9028 48.5409 18.293 48.5994 18.5467C48.9312 18.0784 49.3214 17.815 49.7311 17.815C50.1117 17.815 50.297 17.9809 50.297 18.1954C50.297 18.3808 50.219 18.7223 50.1018 18.7223C49.9751 18.7223 49.8969 18.615 49.5653 18.615C49.0581 18.615 48.6677 19.2101 48.6677 19.2101V22.7807C48.6677 22.9174 48.5507 22.9954 48.2775 22.9954H48.2385C47.9654 22.9954 47.8482 22.9174 47.8482 22.7807V19.3564Z" fill="#383838"/>
<path d="M50.7455 18.1469C50.7358 18.1176 50.7163 18.0591 50.7163 18.02C50.7163 17.9224 50.843 17.8542 51.1358 17.8542H51.2138C51.4089 17.8542 51.5553 17.8933 51.6041 18.0103L52.9309 21.5322L54.2284 18.0103C54.2675 17.8933 54.4235 17.8542 54.6284 17.8542C54.9211 17.8542 55.048 17.9127 55.048 18.02C55.048 18.0591 55.0383 18.098 55.0187 18.1567L52.5113 24.8005C52.4529 24.9468 52.287 25.0054 52.0529 25.0054H51.9065C51.6919 25.0054 51.5845 24.9468 51.5845 24.8492C51.5845 24.7907 51.6041 24.7712 52.4529 22.7029L50.7455 18.1469Z" fill="#383838"/>
<path d="M8.66394 5.25901C8.66394 5.12251 8.78109 5.04447 9.05433 5.04447H9.09326C9.36642 5.04447 9.48348 5.12251 9.48348 5.25901V9.97117C9.48348 10.1077 9.36642 10.1858 9.09326 10.1858H9.05433C8.78109 10.1858 8.66394 10.1077 8.66394 9.97117V5.25901ZM8.625 3.62008V3.04451C8.625 2.90784 8.74207 2.8298 9.01522 2.8298H9.13229C9.40544 2.8298 9.52251 2.90784 9.52251 3.04451V3.62008C9.52251 3.75657 9.40544 3.83462 9.13229 3.83462H9.01522C8.74207 3.83462 8.625 3.75657 8.625 3.62008Z" fill="#383838"/>
<path d="M13.3273 9.51262C14.0979 9.51262 14.5273 8.80046 14.5273 7.542C14.5273 6.38101 14.0883 5.74674 13.2492 5.72731H13.1907C12.7711 5.72731 12.3614 5.87373 12.0102 6.16631V8.8394C12.4102 9.27848 12.898 9.51262 13.3273 9.51262ZM11.1906 3.04446C11.1906 2.90788 11.3078 2.82984 11.5809 2.82984H11.6199C11.8932 2.82984 12.0102 2.90788 12.0102 3.04446V5.50285C12.3907 5.21027 12.8004 5.00532 13.4054 5.00532C14.5663 5.00532 15.3858 5.92242 15.3858 7.56143V7.64923C15.3858 9.13224 14.6638 10.2249 13.4932 10.2249C12.9369 10.2249 12.42 9.99064 11.9419 9.49311C11.8736 9.83455 11.7858 10.0688 11.7858 10.0688C11.7468 10.1565 11.659 10.1858 11.5224 10.1858H11.4834C11.2785 10.1858 11.1906 10.1078 11.1906 9.97113V3.04446Z" fill="#383838"/>
<path d="M16.7902 6.5469C16.7902 5.74678 16.6732 5.3664 16.6732 5.31762C16.6732 5.13227 17.0731 5.09316 17.2 5.09316C17.4342 5.09316 17.4829 5.48347 17.5414 5.73711C17.8732 5.26885 18.2634 5.00536 18.6731 5.00536C19.0536 5.00536 19.2389 5.17121 19.2389 5.38591C19.2389 5.57127 19.1609 5.91262 19.0438 5.91262C18.917 5.91262 18.839 5.80548 18.5073 5.80548C18 5.80548 17.6097 6.40048 17.6097 6.40048V9.97117C17.6097 10.1078 17.4926 10.1858 17.2195 10.1858H17.1805C16.9073 10.1858 16.7902 10.1078 16.7902 9.97117V6.5469Z" fill="#383838"/>
<path d="M21.668 9.51262C22.3802 9.51262 22.8094 9.19068 23.1996 8.8394V7.68825C22.1851 7.69801 20.8388 7.69801 20.8388 8.71266C20.8388 9.22971 21.1216 9.51262 21.668 9.51262ZM23.1996 6.98586V6.52735C23.1996 6.08826 22.9362 5.7078 22.1264 5.7078C21.2387 5.7078 20.7021 6.11762 20.6046 6.11762C20.468 6.11762 20.2631 5.73707 20.2631 5.62984C20.2631 5.37611 21.1216 5.00532 22.0973 5.00532C23.3069 5.00532 24.0192 5.57122 24.0192 6.5371V8.72242C24.0192 9.52237 24.1362 9.90292 24.1362 9.9517C24.1362 10.137 23.7363 10.176 23.6094 10.176C23.3752 10.176 23.3265 9.76626 23.2679 9.49311C22.8972 9.90292 22.3607 10.2249 21.6289 10.2249C20.6826 10.2249 19.9606 9.76626 19.9606 8.76144C19.9606 7.11268 21.707 7.00528 23.1996 6.98586Z" fill="#383838"/>
<path d="M25.6775 6.5469C25.6775 5.74678 25.5603 5.3664 25.5603 5.31762C25.5603 5.13227 25.9604 5.09316 26.0872 5.09316C26.3213 5.09316 26.3702 5.48347 26.4286 5.73711C26.7604 5.26885 27.1505 5.00536 27.5603 5.00536C27.9409 5.00536 28.1262 5.17121 28.1262 5.38591C28.1262 5.57127 28.0481 5.91262 27.9311 5.91262C27.8042 5.91262 27.7261 5.80548 27.3944 5.80548C26.8872 5.80548 26.4969 6.40048 26.4969 6.40048V9.97117C26.4969 10.1078 26.3799 10.1858 26.1068 10.1858H26.0677C25.7945 10.1858 25.6775 10.1078 25.6775 9.97117V6.5469Z" fill="#383838"/>
<path d="M28.5747 5.33701C28.565 5.30774 28.5455 5.24921 28.5455 5.21027C28.5455 5.11263 28.6723 5.04443 28.965 5.04443H29.0431C29.2381 5.04443 29.3844 5.08337 29.4333 5.20052L30.7601 8.72234L32.0576 5.20052C32.0967 5.08337 32.2527 5.04443 32.4576 5.04443C32.7503 5.04443 32.8771 5.10288 32.8771 5.21027C32.8771 5.24921 32.8674 5.28832 32.8479 5.34677L30.3406 11.9906C30.282 12.1369 30.1162 12.1956 29.882 12.1956H29.7357C29.5211 12.1956 29.4138 12.1369 29.4138 12.0395C29.4138 11.9809 29.4333 11.9614 30.282 9.89309L28.5747 5.33701Z" fill="#383838"/>
<path d="M16.6775 17.3464H12.7099V19.3674L14.424 19.3054C14.424 19.3054 15.9715 19.5229 16.6775 17.3464Z" fill="#383838"/>
<path d="M9.73236 17.3462H6.10773V19.5493C6.92159 19.8446 7.23945 20.449 8.27871 20.449C9.08587 20.449 9.41951 20.236 9.73236 20.0012V17.3462Z" fill="#383838"/>
<path d="M11.7307 24.4942C11.7307 24.8635 11.4967 25.1628 11.2085 25.1628C10.92 25.1628 10.6862 24.8635 10.6862 24.4942V16.9622C10.6862 16.5926 10.92 16.2933 11.2085 16.2933C11.4967 16.2933 11.7307 16.5926 11.7307 16.9622V24.4942ZM19.9826 14.7178H19.7785V14.217C19.7889 14.1959 19.7954 14.1722 19.7954 14.1468V12.0568C19.7954 11.9719 19.7293 11.9031 19.6475 11.9031H13.4848C13.4425 11.8986 13.4008 11.9101 13.371 11.9398L10.0228 15.2501C9.99014 15.2824 9.97902 15.3287 9.98683 15.3751V25.7588C9.98683 25.8254 10.018 25.8818 10.0614 25.9034L13.2722 29.0737C13.2822 29.0836 13.2939 29.0906 13.3063 29.0963C13.3275 29.1084 13.3515 29.1158 13.3776 29.1158H18.0148V29.2841C18.0148 29.3698 18.0825 29.4392 18.166 29.4392H19.5971C19.6807 29.4392 19.7484 29.3698 19.7484 29.2841V26.4994C19.7484 26.4136 19.6807 26.3443 19.5971 26.3443H18.166C18.0825 26.3443 18.0148 26.4136 18.0148 26.4994V26.7188H14.3236L12.4354 24.8541V16.1813L14.3377 14.3004H17.3642V14.7178H17.143C17.0548 14.7178 16.9834 14.7839 16.9834 14.8658V15.3146C16.9834 15.3965 17.0548 15.4625 17.143 15.4625H19.9826C20.0706 15.4625 20.1423 15.3965 20.1423 15.3146V14.8658C20.1423 14.7839 20.0706 14.7178 19.9826 14.7178Z" fill="#383838"/>
<path d="M5.00079 18.4544C5.00079 18.7103 4.80865 18.9178 4.57172 18.9178C4.33479 18.9178 4.14282 18.7103 4.14282 18.4544C4.14282 18.1985 4.33479 17.9911 4.57172 17.9911C4.80865 17.9911 5.00079 18.1985 5.00079 18.4544ZM5.85996 0.718697V0.000181198H3.28357V20.6545H5.85996V15.211H5.20388V14.7293H5.85996V13.2096H4.78422V12.7278H5.85996V11.2081H5.20388V10.7262H5.85996V9.2065H4.78422V8.72474H5.85996V7.20509H5.20388V6.72325H5.85996V5.2036H4.78422V4.72176H5.85996V3.20211H5.20388V2.72019H5.85996V1.20036H4.78422V0.718697H5.85996Z" fill="#383838"/>
<path d="M3.07052 17.3463H0C0.809453 19.603 2.32224 19.3053 2.32224 19.3053L3.07052 19.3337V17.3463Z" fill="#383838"/>
<path d="M22.0396 31.8276H20.6248C20.5436 31.8276 20.4779 31.893 20.4779 31.974V32.0609H19.4894V31.6122C19.4894 31.5219 19.4165 31.4487 19.3267 31.4487H19.209V29.6851H18.4983V31.4487H18.3807C18.2908 31.4487 18.218 31.5219 18.218 31.6122V32.0609H15.0773L15.0782 32.001C15.0782 31.9425 15.0227 31.8228 14.97 31.8228H14.8856V31.8212L14.3416 31.8213V32.9943L14.6507 32.9942C14.6603 32.9978 14.6702 33.001 14.681 33.001H14.97C15.0227 33.001 15.0652 32.9535 15.0652 32.8949L15.0682 32.6945H18.218V33.186C18.218 33.2762 18.2908 33.3494 18.3807 33.3494H19.3267C19.4165 33.3494 19.4894 33.2762 19.4894 33.186V32.6945H20.4779V32.8242C20.4779 32.9051 20.5436 32.9706 20.6248 32.9706H22.0396C22.1207 32.9706 22.1865 32.9051 22.1865 32.8242V31.974C22.1865 31.893 22.1207 31.8276 22.0396 31.8276Z" fill="#383838"/>
<path d="M18.177 24.211H18.5162V26.032H19.2728V24.211H19.612C19.6988 24.211 19.7694 24.1448 19.7694 24.063V23.6141C19.7694 23.6066 19.7682 23.5993 19.7671 23.5922V23.3976H18.0219V23.5922C18.0208 23.5993 18.0197 23.6066 18.0197 23.6141V24.063C18.0197 24.1448 18.0901 24.211 18.177 24.211Z" fill="#383838"/>
</svg>
