<svg width="95" height="58" viewBox="0 0 95 58" fill="none" xmlns="http://www.w3.org/2000/svg">
<path d="M35.6375 38.5226C36.8665 38.5226 37.6072 37.967 38.2807 37.3609V35.3741C36.5298 35.391 34.2064 35.391 34.2064 37.1419C34.2064 38.0343 34.6945 38.5226 35.6375 38.5226ZM38.2807 34.162V33.3707C38.2807 32.6131 37.8261 31.9562 36.4286 31.9562C34.8965 31.9562 33.9704 32.6636 33.8022 32.6636C33.5665 32.6636 33.213 32.0068 33.213 31.8216C33.213 31.3838 34.6945 30.7442 36.3782 30.7442C38.4659 30.7442 39.695 31.7206 39.695 33.3874V37.1589C39.695 38.5394 39.897 39.1961 39.897 39.2802C39.897 39.6 39.2068 39.6675 38.9879 39.6675C38.5837 39.6675 38.4997 38.9603 38.3985 38.489C37.7588 39.1961 36.8328 39.7517 35.57 39.7517C33.9369 39.7517 32.6909 38.9603 32.6909 37.2262C32.6909 34.3808 35.7047 34.1956 38.2807 34.162Z" fill="#383838"/>
<path d="M42.5568 33.4042C42.5568 32.0237 42.3546 31.3671 42.3546 31.2829C42.3546 30.9629 43.045 30.8957 43.2639 30.8957C43.6679 30.8957 43.7523 31.5691 43.8531 32.0068C44.4257 31.1987 45.099 30.7441 45.8061 30.7441C46.463 30.7441 46.7827 31.0304 46.7827 31.4006C46.7827 31.7206 46.648 32.3099 46.446 32.3099C46.2271 32.3099 46.0923 32.1247 45.5199 32.1247C44.6446 32.1247 43.971 33.1517 43.971 33.1517V39.3138C43.971 39.5497 43.769 39.6842 43.2977 39.6842H43.2302C42.7588 39.6842 42.5568 39.5497 42.5568 39.3138V33.4042Z" fill="#383838"/>
<path d="M52.1028 38.5059H52.2038C53.6517 38.4722 54.4093 37.3778 54.4093 35.3742C54.4093 33.2024 53.6685 31.9732 52.3385 31.9732C51.5977 31.9732 50.7559 32.3774 50.0655 33.1349V37.7482C50.6716 38.2532 51.3788 38.5059 52.1028 38.5059ZM50.0655 42.7823C50.0655 43.0179 49.8635 43.1527 49.3919 43.1527H49.3247C48.8533 43.1527 48.6513 43.0179 48.6513 42.7823V33.4042C48.6513 32.0239 48.4493 31.3671 48.4493 31.2829C48.4493 30.9631 49.1395 30.8959 49.3584 30.8959C49.7626 30.8959 49.8466 31.5691 49.9477 32.0069C50.7728 31.1483 51.665 30.7442 52.6247 30.7442C54.6451 30.7442 55.891 32.6298 55.891 35.1891V35.3406C55.891 38.169 54.4768 39.7517 52.4732 39.7517C51.4292 39.7517 50.7221 39.3982 50.0655 38.8931V42.7823Z" fill="#383838"/>
<path d="M63.6689 34.6167C63.6689 32.8488 62.9954 31.9563 61.6484 31.9563C60.1837 31.9563 59.4093 32.8488 59.2916 34.6167H63.6689ZM61.6991 30.7443C64.0057 30.7443 65.1674 32.2764 65.1674 35.1384C65.1674 35.3406 64.8137 35.8287 64.6118 35.8287H59.2916C59.4263 37.6976 60.2174 38.5395 61.8844 38.5395C63.349 38.5395 64.1741 37.8324 64.3424 37.8324C64.5781 37.8324 64.9317 38.489 64.9317 38.6742C64.9317 39.0784 63.6017 39.7517 61.9011 39.7517C59.1062 39.7517 57.7761 38.3207 57.7761 35.3069C57.7761 32.3269 59.1231 30.7443 61.6991 30.7443Z" fill="#383838"/>
<path d="M67.3723 33.4042C67.3723 32.0237 67.1703 31.3671 67.1703 31.2829C67.1703 30.9629 67.8607 30.8957 68.0794 30.8957C68.4836 30.8957 68.5678 31.5691 68.6687 32.0068C69.3759 31.2155 70.3524 30.7441 71.2953 30.7441C73.0126 30.7441 74.0397 31.7711 74.0397 33.4717V39.3138C74.0397 39.5497 73.8375 39.6842 73.3661 39.6842H73.2988C72.8274 39.6842 72.6254 39.5497 72.6254 39.3138V33.6064C72.6254 32.5792 72.0024 31.9732 70.908 31.9732C70.1505 31.9732 69.3422 32.4277 68.7865 33.1517V39.3138C68.7865 39.5497 68.5846 39.6842 68.1132 39.6842H68.0459C67.5745 39.6842 67.3723 39.5497 67.3723 39.3138V33.4042Z" fill="#383838"/>
<path d="M77.1033 32.0573H76.2614C76.0258 32.0573 75.9248 31.906 75.9248 31.5523V31.3502C75.9248 30.9967 76.0258 30.8452 76.2614 30.8452H77.1033L77.3053 29.0773C77.3222 28.8416 77.4907 28.7069 77.8441 28.7069H78.0124C78.3661 28.7069 78.5175 28.8416 78.5175 29.0773V30.8452H79.9319C80.1676 30.8452 80.2686 30.9967 80.2686 31.3502V31.5523C80.2686 31.906 80.1676 32.0573 79.9319 32.0573H78.5175V37.2935C78.5175 38.3037 78.9385 38.5394 79.4266 38.5394C79.915 38.5394 79.999 38.4552 80.1506 38.4552C80.3864 38.4552 80.5043 39.112 80.5043 39.2465C80.5043 39.7012 79.7297 39.7517 79.2751 39.7517C78.4333 39.7517 77.1033 39.3812 77.1033 37.4282V32.0573Z" fill="#383838"/>
<path d="M82.5748 33.4042C82.5748 32.0237 82.3727 31.3671 82.3727 31.2829C82.3727 30.9629 83.0632 30.8957 83.2819 30.8957C83.6861 30.8957 83.7703 31.5691 83.8711 32.0068C84.4437 31.1987 85.1171 30.7441 85.8242 30.7441C86.4809 30.7441 86.8008 31.0304 86.8008 31.4006C86.8008 31.7206 86.6661 32.3099 86.464 32.3099C86.2452 32.3099 86.1104 32.1247 85.538 32.1247C84.6627 32.1247 83.989 33.1517 83.989 33.1517V39.3138C83.989 39.5497 83.7871 39.6842 83.3157 39.6842H83.2483C82.7769 39.6842 82.5748 39.5497 82.5748 39.3138V33.4042Z" fill="#383838"/>
<path d="M87.5748 31.3166C87.5581 31.266 87.5245 31.1651 87.5245 31.0976C87.5245 30.9292 87.7432 30.8114 88.2484 30.8114H88.3831C88.7197 30.8114 88.9723 30.8789 89.0565 31.0809L91.3463 37.1588L93.5855 31.0809C93.653 30.8789 93.9222 30.8114 94.2759 30.8114C94.781 30.8114 95 30.9124 95 31.0976C95 31.1651 94.9831 31.2323 94.9493 31.3334L90.6222 42.7992C90.5214 43.0515 90.2352 43.1527 89.8311 43.1527H89.5784C89.208 43.1527 89.0229 43.0515 89.0229 42.8832C89.0229 42.7822 89.0565 42.7485 90.5214 39.1792L87.5748 31.3166Z" fill="#383838"/>
<path d="M14.952 9.0754C14.952 8.83985 15.1541 8.70516 15.6257 8.70516H15.6929C16.1643 8.70516 16.3663 8.83985 16.3663 9.0754V17.2075C16.3663 17.4432 16.1643 17.5779 15.6929 17.5779H15.6257C15.1541 17.5779 14.952 17.4432 14.952 17.2075V9.0754ZM14.8848 6.247V5.25369C14.8848 5.01785 15.0868 4.88316 15.5582 4.88316H15.7602C16.2316 4.88316 16.4337 5.01785 16.4337 5.25369V6.247C16.4337 6.48256 16.2316 6.61724 15.7602 6.61724H15.5582C15.0868 6.61724 14.8848 6.48256 14.8848 6.247Z" fill="#383838"/>
<path d="M22.9998 16.4161C24.3297 16.4161 25.0706 15.1871 25.0706 13.0153C25.0706 11.0117 24.313 9.91708 22.865 9.88356H22.764C22.0399 9.88356 21.3328 10.1362 20.7269 10.6412V15.2543C21.4171 16.0121 22.2589 16.4161 22.9998 16.4161ZM19.3124 5.25359C19.3124 5.01789 19.5146 4.8832 19.986 4.8832H20.0533C20.5248 4.8832 20.7269 5.01789 20.7269 5.25359V9.49619C21.3835 8.99126 22.0906 8.63757 23.1345 8.63757C25.138 8.63757 26.5523 10.2203 26.5523 13.0488V13.2003C26.5523 15.7597 25.3063 17.6453 23.286 17.6453C22.3261 17.6453 21.434 17.2411 20.6089 16.3824C20.491 16.9717 20.3395 17.3759 20.3395 17.3759C20.2722 17.5273 20.1208 17.5779 19.8849 17.5779H19.8177C19.464 17.5779 19.3124 17.4432 19.3124 17.2074V5.25359Z" fill="#383838"/>
<path d="M28.976 11.2979C28.976 9.91707 28.7739 9.26062 28.7739 9.17644C28.7739 8.85656 29.4642 8.78907 29.6831 8.78907C30.0873 8.78907 30.1713 9.46265 30.2723 9.90038C30.8449 9.09226 31.5183 8.63755 32.2254 8.63755C32.882 8.63755 33.2019 8.92376 33.2019 9.29429C33.2019 9.61417 33.0672 10.2033 32.8652 10.2033C32.6463 10.2033 32.5116 10.0184 31.9392 10.0184C31.0637 10.0184 30.3902 11.0452 30.3902 11.0452V17.2074C30.3902 17.4432 30.1881 17.5778 29.7167 17.5778H29.6495C29.178 17.5778 28.976 17.4432 28.976 17.2074V11.2979Z" fill="#383838"/>
<path d="M37.3939 16.4161C38.6229 16.4161 39.3637 15.8605 40.0371 15.2543V13.2677C38.2862 13.2845 35.9629 13.2845 35.9629 15.0356C35.9629 15.9279 36.451 16.4161 37.3939 16.4161ZM40.0371 12.0555V11.2642C40.0371 10.5065 39.5826 9.84989 38.1851 9.84989C36.653 9.84989 35.7269 10.5571 35.5587 10.5571C35.323 10.5571 34.9694 9.90039 34.9694 9.71535C34.9694 9.27747 36.451 8.63757 38.1347 8.63757C40.2223 8.63757 41.4515 9.61419 41.4515 11.2811V15.0524C41.4515 16.4329 41.6535 17.0897 41.6535 17.1739C41.6535 17.4936 40.9632 17.5609 40.7444 17.5609C40.3402 17.5609 40.2561 16.8538 40.155 16.3824C39.5152 17.0897 38.5893 17.6453 37.3264 17.6453C35.6934 17.6453 34.4474 16.8538 34.4474 15.1198C34.4474 12.2744 37.4611 12.089 40.0371 12.0555Z" fill="#383838"/>
<path d="M44.3133 11.2979C44.3133 9.91707 44.1111 9.26062 44.1111 9.17644C44.1111 8.85656 44.8015 8.78907 45.0204 8.78907C45.4244 8.78907 45.5087 9.46265 45.6096 9.90038C46.1822 9.09226 46.8555 8.63755 47.5626 8.63755C48.2194 8.63755 48.5392 8.92376 48.5392 9.29429C48.5392 9.61417 48.4045 10.2033 48.2025 10.2033C47.9836 10.2033 47.8488 10.0184 47.2763 10.0184C46.401 10.0184 45.7275 11.0452 45.7275 11.0452V17.2074C45.7275 17.4432 45.5254 17.5778 45.0542 17.5778H44.9867C44.5153 17.5778 44.3133 17.4432 44.3133 17.2074V11.2979Z" fill="#383838"/>
<path d="M49.3133 9.21002C49.2965 9.15951 49.2628 9.0585 49.2628 8.9913C49.2628 8.8228 49.4817 8.7051 49.9868 8.7051H50.1216C50.4582 8.7051 50.7107 8.77229 50.795 8.97447L53.0848 15.0523L55.324 8.97447C55.3915 8.77229 55.6607 8.7051 56.0142 8.7051C56.5195 8.7051 56.7382 8.80596 56.7382 8.9913C56.7382 9.0585 56.7215 9.12599 56.6878 9.22686L52.3607 20.6926C52.2597 20.9451 51.9735 21.0463 51.5693 21.0463H51.3169C50.9465 21.0463 50.7613 20.9451 50.7613 20.7769C50.7613 20.6757 50.795 20.6422 52.2597 17.0727L49.3133 9.21002Z" fill="#383838"/>
<path d="M28.7815 29.9353H21.9343V33.4231L24.8924 33.3161C24.8924 33.3161 27.563 33.6914 28.7815 29.9353Z" fill="#383838"/>
<path d="M16.7958 29.9353H10.5405V33.7374C11.9451 34.2468 12.4936 35.2899 14.2871 35.2899C15.6801 35.2899 16.2559 34.9223 16.7958 34.5171V29.9353Z" fill="#383838"/>
<path d="M20.2445 42.2707C20.2445 42.908 19.8407 43.4246 19.3432 43.4246C18.8455 43.4246 18.4419 42.908 18.4419 42.2707V29.2722C18.4419 28.6344 18.8455 28.1179 19.3432 28.1179C19.8407 28.1179 20.2445 28.6344 20.2445 29.2722V42.2707ZM34.4853 25.399H34.1331V24.5347C34.1511 24.4984 34.1623 24.4574 34.1623 24.4136V20.8067C34.1623 20.6603 34.0481 20.5415 33.907 20.5415H23.2717C23.1986 20.5336 23.1267 20.5535 23.0752 20.6048L17.297 26.3176C17.2407 26.3734 17.2215 26.4532 17.235 26.5333V44.4531C17.235 44.5682 17.2888 44.6655 17.3636 44.7027L22.9048 50.1739C22.9221 50.191 22.9423 50.2031 22.9636 50.2129C23.0002 50.2337 23.0417 50.2466 23.0866 50.2466H31.0893V50.5371C31.0893 50.6849 31.2061 50.8047 31.3503 50.8047H33.8201C33.9644 50.8047 34.0812 50.6849 34.0812 50.5371V45.7313C34.0812 45.5833 33.9644 45.4637 33.8201 45.4637H31.3503C31.2061 45.4637 31.0893 45.5833 31.0893 45.7313V46.1099H24.7192L21.4606 42.8919V27.9246L24.7435 24.6787H29.9666V25.399H29.5848C29.4327 25.399 29.3094 25.513 29.3094 25.6543V26.4289C29.3094 26.5702 29.4327 26.6842 29.5848 26.6842H34.4853C34.6372 26.6842 34.7609 26.5702 34.7609 26.4289V25.6543C34.7609 25.513 34.6372 25.399 34.4853 25.399Z" fill="#383838"/>
<path d="M8.63009 31.8477C8.63009 32.2894 8.2985 32.6475 7.88961 32.6475C7.48072 32.6475 7.14943 32.2894 7.14943 31.8477C7.14943 31.4062 7.48072 31.0482 7.88961 31.0482C8.2985 31.0482 8.63009 31.4062 8.63009 31.8477ZM10.1128 1.24006V6.86646e-05H5.66656V35.6447H10.1128V26.2503H8.98057V25.4191H10.1128V22.7964H8.25634V21.965H10.1128V19.3423H8.98057V18.5106H10.1128V15.888H8.25634V15.0566H10.1128V12.4341H8.98057V11.6025H10.1128V8.97995H8.25634V8.14841H10.1128V5.52585H8.98057V4.69416H10.1128V2.0713H8.25634V1.24006H10.1128Z" fill="#383838"/>
<path d="M5.29901 29.9353H0C1.39693 33.8298 4.00763 33.3161 4.00763 33.3161L5.29901 33.3651V29.9353Z" fill="#383838"/>
<path d="M38.0353 54.9265H35.5935C35.4534 54.9265 35.3401 55.0394 35.3401 55.1792V55.3291H33.6341V54.5548C33.6341 54.3989 33.5084 54.2727 33.3534 54.2727H33.1503V51.2291H31.9238V54.2727H31.7209C31.5657 54.2727 31.4401 54.3989 31.4401 54.5548V55.3291H26.02L26.0215 55.2257C26.0215 55.1247 25.9257 54.9183 25.8347 54.9183H25.6892V54.9155L24.7503 54.9157V56.9399L25.2836 56.9398C25.3003 56.9461 25.3174 56.9515 25.336 56.9515H25.8347C25.9257 56.9515 25.9991 56.8695 25.9991 56.7685L26.0042 56.4225H31.4401V57.2708C31.4401 57.4265 31.5657 57.5527 31.7209 57.5527H33.3534C33.5084 57.5527 33.6341 57.4265 33.6341 57.2708V56.4225H35.3401V56.6464C35.3401 56.7861 35.4534 56.8991 35.5935 56.8991H38.0353C38.1753 56.8991 38.2887 56.7861 38.2887 56.6464V55.1792C38.2887 55.0394 38.1753 54.9265 38.0353 54.9265Z" fill="#383838"/>
<path d="M31.3692 41.7822H31.9545V44.9248H33.2602V41.7822H33.8457C33.9954 41.7822 34.1173 41.6679 34.1173 41.5268V40.752C34.1173 40.7392 34.1152 40.7266 34.1133 40.7143V40.3784H31.1016V40.7143C31.0996 40.7266 31.0977 40.7392 31.0977 40.752V41.5268C31.0977 41.6679 31.2192 41.7822 31.3692 41.7822Z" fill="#383838"/>
</svg>
