<svg width="225" height="46" viewBox="0 0 225 46" fill="none" xmlns="http://www.w3.org/2000/svg">
<path fill-rule="evenodd" clip-rule="evenodd" d="M65.5056 10.008C64.7858 9.2326 61.2047 9.32277 60.215 9.30474C54.7804 9.26867 44.631 9.57523 39.5564 9.57523C39.3584 9.57523 38.6566 9.91786 38.7646 10.2064C35.1655 10.2064 33.258 10.2244 28.9031 10.1703C26.5458 10.1523 20.9312 10.4408 20.7873 6.27519C20.7153 4.18335 22.6228 2.34398 24.8722 0.107885C23.4326 -0.324908 21.9929 0.630843 20.5353 1.44233C19.8335 2.14562 19.3476 2.61448 18.7538 3.20957C16.5584 6.41945 15.6946 9.6654 16.2164 12.9113C18.1959 12.5327 19.6715 15.2556 18.2859 16.536L17.0442 16.554C16.4504 16.554 15.9825 17.1671 16.0005 17.8885L16.0365 20.7738C16.0545 21.5131 16.5404 22 17.1162 22H23.3786C23.9544 21.982 24.4223 21.3869 24.4043 20.6475L24.3683 17.7622C24.3683 17.0409 23.8824 16.4458 23.2886 16.4639H22.5148C21.1292 12.5868 25.574 13.0917 28.0934 13.1277C32.8081 13.1638 34.3917 13.1458 38.5486 13.1458C38.7826 13.4343 38.6746 13.9753 39.3224 14.2458C39.7363 14.4081 64.7318 14.354 65.1817 14.2458C65.6316 14.1376 65.5056 13.9212 65.6676 13.7589C65.8835 12.8933 66.3694 10.9638 65.5056 10.008ZM23.3426 17.0048V20.0705C23.3426 20.0705 23.2526 18.0688 22.4428 17.9426C21.615 17.8163 22.0829 17.0048 22.0829 17.0048H23.3426ZM65.2357 11.3785C65.2357 11.3785 64.4979 11.1261 63.904 10.7474C62.6264 9.91786 39.9523 10.6572 39.9523 10.6572L40.6001 10.1162C40.6001 10.1162 63.7061 9.7195 64.4979 10.1162C65.2897 10.5129 65.2357 11.3785 65.2357 11.3785Z" fill="#383838"/>
<path fill-rule="evenodd" clip-rule="evenodd" d="M10.3519 38.1005C10.7898 37.4732 11 36.7239 11 35.8525C11 35.2775 10.8424 34.7547 10.5271 34.319C10.1943 33.866 9.72134 33.4651 9.09076 33.134C8.46019 32.8029 7.63694 32.5067 6.63854 32.2627C5.76274 32.0536 5.11465 31.8794 4.6242 31.7399C4.13376 31.6005 3.74841 31.4088 3.45064 31.1823C3.13535 30.9558 2.99522 30.6595 2.99522 30.2936C2.99522 29.8928 3.1879 29.5442 3.60828 29.2828C4.01115 29.0389 4.51911 28.8995 5.11465 28.8995C5.71019 28.8995 6.16561 29.004 6.51592 29.1957C6.86624 29.3874 7.16401 29.6488 7.40924 29.9799C7.70701 30.3458 7.96975 30.6421 8.19745 30.8164C8.42516 30.9906 8.6879 31.0777 9.00319 31.0777C9.44108 31.0777 9.77389 30.9732 10.0191 30.7466C10.2468 30.5201 10.3694 30.2413 10.3694 29.8928C10.3694 29.5791 10.2468 29.2306 10.0366 28.8995C9.80892 28.5509 9.4586 28.2373 9.0207 27.941C8.5828 27.6622 8.02229 27.4357 7.3742 27.2614C6.7086 27.0871 5.95541 27 5.11465 27C4.06369 27 3.15287 27.1743 2.39968 27.5054C1.66401 27.8365 1.08599 28.307 0.718153 28.8646C0.332803 29.4223 0.140127 30.0322 0.140127 30.6595C0.140127 31.3566 0.350318 31.9665 0.753185 32.437C1.17357 32.9249 1.71656 33.3257 2.4172 33.622C3.11783 33.9182 4.02866 34.2145 5.13217 34.4933C6.13057 34.7373 6.86624 34.9812 7.30414 35.2426C7.75955 35.5214 7.98726 35.9571 7.98726 36.567C7.98726 36.9678 7.75955 37.3164 7.32166 37.6126C6.90127 37.9088 6.34076 38.0657 5.67516 38.0657C4.86943 38.0657 4.20382 37.9088 3.73089 37.63C3.25796 37.3338 2.8551 36.8981 2.50478 36.3056C2.34713 36.0094 2.17197 35.7828 1.99682 35.626C1.83917 35.4692 1.59395 35.3995 1.26115 35.3995C0.893312 35.3995 0.595541 35.5214 0.350318 35.748C0.122611 35.992 0 36.2708 0 36.6019C0 37.1247 0.192675 37.6475 0.578025 38.1702C0.963376 38.693 1.57643 39.1287 2.39968 39.4772C3.22293 39.8257 4.22134 40 5.35987 40C6.56847 40 7.61943 39.8432 8.46019 39.5121C9.28344 39.1984 9.93153 38.7279 10.3519 38.1005Z" fill="#383838"/>
<path fill-rule="evenodd" clip-rule="evenodd" d="M35.0356 22C33.8912 22 32.9906 22.1408 32.3527 22.4047C31.7148 22.6686 31.2458 23.1085 30.9831 23.6891C30.7205 24.2698 30.5704 25.0792 30.5704 26.0821V27.1554H29.6698C28.5441 27.1554 28 27.5073 28 28.2463C28 28.5806 28.1313 28.827 28.394 29.0381C28.6567 29.2493 29.0319 29.3548 29.5385 29.3548H30.5704V38.0821C30.5704 38.7155 30.7392 39.1906 31.0394 39.5073C31.3583 39.8416 31.7523 40 32.2214 40C32.7092 40 33.122 39.824 33.4221 39.5073C33.7411 39.1906 33.8912 38.7155 33.8912 38.0821V29.3548H34.8293C35.4484 29.3548 35.9174 29.2845 36.2552 29.1437C36.5929 29.0029 36.743 28.7038 36.743 28.1935C36.743 27.4897 36.1238 27.1554 34.8293 27.1554H33.8912V26.2933C33.8912 25.6422 33.985 25.1144 34.1726 24.7625C34.3602 24.393 34.7917 24.1994 35.4672 24.1994C35.6923 24.1994 35.9737 24.217 36.3114 24.2698C36.6492 24.3226 36.8743 24.3402 37.0056 24.3402C37.2683 24.3402 37.4934 24.2522 37.6998 24.0411C37.8874 23.8475 38 23.6012 38 23.3196C38 22.4399 36.9869 22 35.0356 22Z" fill="#383838"/>
<path fill-rule="evenodd" clip-rule="evenodd" d="M46 39.4144C46 39.1261 45.9085 38.8739 45.7073 38.6757C45.5061 38.4595 45.2683 38.3694 45.0122 38.3694C44.8293 38.3694 44.5732 38.4054 44.2439 38.4775C43.8963 38.5496 43.622 38.5856 43.4207 38.5856C43.0183 38.5856 42.7439 38.4775 42.561 38.2793C42.3963 38.0991 42.2866 37.8468 42.25 37.5586C42.2134 37.2703 42.1768 36.8559 42.1768 36.3333V30.0991H42.9085C43.5671 30.0991 44.0793 30.009 44.4085 29.8288C44.7561 29.6667 44.9207 29.3784 44.9207 28.964C44.9207 28.6396 44.7927 28.3694 44.5549 28.1712C44.3171 27.955 43.9695 27.8468 43.5122 27.8468H42.1768V25.4865C42.1768 24.9279 42.1585 24.4955 42.0854 24.1892C42.0305 23.9009 41.9024 23.6667 41.6829 23.4505C41.3537 23.1622 40.9695 23 40.5671 23C40.2744 23 40 23.0721 39.7622 23.1982C39.5427 23.3423 39.3598 23.5225 39.2317 23.7387C39.1037 23.9369 39.0305 24.1892 38.9939 24.4955C38.9756 24.8018 38.9573 25.2162 38.9573 25.7568V27.8468H38.5C38.0061 27.8468 37.622 27.955 37.3659 28.1712C37.128 28.3694 37 28.6396 37 28.964C37 29.2883 37.1098 29.5586 37.3659 29.7748C37.6037 29.991 37.9512 30.0991 38.4268 30.0991H38.9573V36.6036C38.9573 37.6306 39.0305 38.4595 39.2134 39.0721C39.378 39.6667 39.7256 40.1532 40.2561 40.4775C40.7866 40.8198 41.5732 41 42.6159 41C43.7134 41 44.5732 40.8559 45.1585 40.5856C45.7256 40.2973 46 39.9189 46 39.4144Z" fill="#383838"/>
<path fill-rule="evenodd" clip-rule="evenodd" d="M61.8991 37.508L64.6236 29.7534C64.8745 29.0912 65 28.6032 65 28.2721C65 27.941 64.8566 27.6273 64.5877 27.3834C64.3189 27.122 63.9783 27 63.6019 27C63.2255 27 62.9387 27.0871 62.7415 27.244C62.5443 27.4182 62.4009 27.6099 62.3113 27.8365C62.2217 28.063 62.1142 28.4464 61.9708 28.9517L59.6943 36.4625L57.633 29.4745C57.4358 28.7949 57.2745 28.3244 57.167 28.063C57.0594 27.8016 56.8623 27.5576 56.5934 27.3311C56.3245 27.1046 55.9481 27 55.4821 27C55.016 27 54.6396 27.1046 54.3887 27.3311C54.1198 27.5576 53.9226 27.7842 53.833 28.0282C53.7255 28.2895 53.5821 28.7775 53.367 29.4745L51.3057 36.4625L49.0651 28.9517C48.85 28.2373 48.6349 27.7145 48.4377 27.4182C48.2764 27.1394 47.9179 27 47.3981 27C47.0038 27 46.6632 27.1394 46.3943 27.4008C46.1255 27.6622 46 27.941 46 28.2721C46 28.5335 46.1255 29.0389 46.3943 29.7534L49.1009 37.508C49.1726 37.7172 49.2623 37.996 49.4057 38.3445C49.5311 38.693 49.6745 38.9893 49.8358 39.2332C49.9972 39.4946 50.2123 39.6689 50.4453 39.8083C50.6962 39.9303 51.0009 40 51.3415 40C52.0226 40 52.5066 39.7909 52.7755 39.3727C53.0623 38.937 53.3132 38.2748 53.5642 37.4035L55.4821 30.8338L57.4717 37.4035C57.633 37.9786 57.7764 38.4316 57.9198 38.7802C58.0453 39.1287 58.2604 39.4249 58.5292 39.6515C58.7981 39.8954 59.1925 40 59.6585 40C60.1245 40 60.5009 39.8954 60.7698 39.6863C61.0387 39.4598 61.2358 39.2158 61.3613 38.9196C61.4868 38.6407 61.666 38.1702 61.8991 37.508Z" fill="#383838"/>
<path fill-rule="evenodd" clip-rule="evenodd" d="M79.6861 37.5147C79.4645 36.8543 79.3537 36.1939 79.3537 35.5856C79.3722 34.9425 79.3722 34.3516 79.3722 33.8302C79.3906 33.3088 79.3906 32.6484 79.3906 31.9011C79.3906 30.7193 79.206 29.7634 78.8551 29.0508C78.5043 28.3382 77.9134 27.8168 77.0824 27.4866C76.233 27.1738 75.0327 27 73.5554 27C72.2259 27 71.081 27.1738 70.1946 27.5214C69.3082 27.8516 68.6619 28.2861 68.2372 28.8075C67.831 29.3289 67.6094 29.8676 67.6094 30.4238C67.6094 30.754 67.7386 31.0321 68.0156 31.258C68.2741 31.4666 68.5881 31.5882 68.9574 31.5882C69.3452 31.5882 69.6037 31.5187 69.7145 31.3971C69.8437 31.2406 70.0653 30.9452 70.3793 30.4933C70.6932 30.0241 71.0994 29.6765 71.5426 29.4332C71.9858 29.2072 72.669 29.0856 73.5554 29.0856C74.5895 29.0856 75.2912 29.2941 75.6236 29.7112C75.956 30.1283 76.1406 30.7714 76.1776 31.6404L76.196 31.6925L76.1222 31.7099C75.4205 31.9011 74.7557 32.0749 74.1094 32.2139C73.5 32.3529 72.7614 32.5094 71.8935 32.6832C70.9886 32.857 70.4901 32.9439 70.2685 32.996C69.2528 33.2045 68.4588 33.6217 67.8679 34.2299C67.2955 34.8382 67 35.5682 67 36.4372C67 37.0628 67.1847 37.6711 67.5355 38.2099C67.8864 38.766 68.3849 39.2005 69.0312 39.5134C69.6776 39.8262 70.4531 40 71.321 40C72.2628 40 73.1307 39.8436 73.8878 39.5481C74.6634 39.2353 75.4574 38.7834 76.2699 38.1925L76.3438 38.1404L76.3991 38.2099C76.7869 38.8008 77.1378 39.2353 77.4886 39.5481C77.8026 39.8436 78.1349 40 78.4673 40C78.8551 40 79.2244 39.861 79.5384 39.6003C79.8523 39.3396 80 39.0789 80 38.766C80 38.5749 79.8892 38.1578 79.6861 37.5147ZM76.1776 34.0388C76.1776 35.1684 76.0298 36.0027 75.7159 36.4893C75.4389 36.9412 74.9957 37.3235 74.4048 37.6016C73.8324 37.8971 73.1861 38.0361 72.5028 38.0361C71.8381 38.0361 71.3026 37.8623 70.8963 37.4973C70.4901 37.1324 70.2685 36.6979 70.2685 36.1939C70.2685 35.6898 70.4531 35.3075 70.804 35.0294C71.1548 34.7513 71.5241 34.5775 71.8935 34.4733C72.2628 34.3864 72.9276 34.2473 73.8878 34.0561C74.848 33.865 75.5866 33.6738 76.0668 33.5L76.196 33.4652V34.0388H76.1776Z" fill="#383838"/>
<path fill-rule="evenodd" clip-rule="evenodd" d="M89.0659 27.5054C88.4192 27.1743 87.7365 27 87.0539 27C86.3713 27 85.8323 27.1743 85.4371 27.4879C85.024 27.819 84.6108 28.3244 84.2156 28.9692L84.0719 29.2131L84.0539 28.9343C84.0359 28.2895 83.9102 27.8016 83.6766 27.4705C83.4431 27.1568 83.0659 27 82.5449 27C81.503 27 81 27.6796 81 29.1086V38.118C81 38.7453 81.1437 39.2158 81.4491 39.5295C81.7365 39.8432 82.1138 40 82.5629 40C83.0299 40 83.4251 39.8432 83.7126 39.5295C84.018 39.2332 84.1796 38.7453 84.1796 38.118V35.4169C84.1796 34.441 84.1976 33.6046 84.2695 32.9424C84.3413 32.2627 84.4491 31.6702 84.6287 31.1649C84.8084 30.6595 85.0599 30.2761 85.3832 30.0147C85.9401 29.5791 86.7485 29.492 87.8982 29.8579C88.4731 30.0322 88.6707 30.067 88.7605 30.067C89.0659 30.067 89.3533 29.945 89.6048 29.7011C89.8743 29.4571 90 29.1609 90 28.7775C90 28.2547 89.6946 27.8365 89.0659 27.5054Z" fill="#383838"/>
<path fill-rule="evenodd" clip-rule="evenodd" d="M101.484 37.6537C101.707 37.2888 101.811 36.9586 101.811 36.6805C101.811 36.3676 101.725 36.1417 101.535 35.9679C101.346 35.8115 101.105 35.7246 100.795 35.7246C100.502 35.7246 100.296 35.7767 100.141 35.9158C99.7446 36.2981 99.4175 36.5936 99.1765 36.8021C98.9182 37.0281 98.6428 37.2366 98.3501 37.4452C98.0402 37.6364 97.7303 37.7754 97.4032 37.8797C97.076 37.9666 96.7145 38.0187 96.3357 38.0187C95.7504 38.0187 95.1994 37.8623 94.7174 37.5668C94.2353 37.2888 93.8565 36.8543 93.5638 36.2807C93.2712 35.7072 93.1162 35.0468 93.1162 34.2995V34.2299H99.4519C100.261 34.2299 100.915 34.1083 101.363 33.865C101.793 33.639 102 33.135 102 32.3703C102 31.5013 101.776 30.6497 101.346 29.8155C100.915 28.9987 100.244 28.3035 99.3659 27.7821C98.4878 27.2607 97.4204 27 96.198 27C95.2511 27 94.373 27.1564 93.5983 27.4693C92.8235 27.7647 92.1521 28.2166 91.6356 28.7901C91.1019 29.3636 90.6887 30.0588 90.4132 30.8583C90.1377 31.6578 90 32.5441 90 33.4826C90 35.4813 90.5681 37.0802 91.6872 38.2447C92.8063 39.4091 94.4075 40 96.4218 40C97.3171 40 98.109 39.8783 98.7805 39.635C99.4692 39.4091 100.037 39.1136 100.485 38.766C100.933 38.4184 101.277 38.0361 101.484 37.6537ZM93.1162 32.4572C93.2195 31.3623 93.5466 30.5107 94.0631 29.9545C94.5796 29.381 95.2683 29.0856 96.0775 29.0856C96.9383 29.0856 97.6442 29.381 98.1607 29.9372C98.6772 30.4933 98.9871 31.3449 99.0732 32.4572V32.5441H93.099L93.1162 32.4572Z" fill="#383838"/>
<path fill-rule="evenodd" clip-rule="evenodd" d="M122.654 37.3512C122.879 36.9155 123 36.4799 123 36.0965C123 35.7828 122.879 35.4692 122.636 35.1903C122.394 34.9115 122.082 34.7721 121.719 34.7721C121.407 34.7721 121.147 34.8592 120.939 35.0509C120.714 35.2601 120.506 35.5389 120.316 35.8874C119.952 36.5147 119.537 36.9853 119.069 37.2989C118.602 37.5952 118.03 37.752 117.372 37.752C116.87 37.752 116.42 37.6649 116.022 37.4732C115.606 37.2815 115.242 37.0027 114.965 36.6193C114.671 36.2708 114.446 35.8177 114.29 35.2949C114.152 34.7895 114.065 34.2145 114.065 33.6046C114.065 32.2802 114.377 31.2346 114.965 30.4853C115.554 29.7185 116.351 29.3351 117.32 29.3351C117.996 29.3351 118.55 29.492 119 29.7882C119.433 30.1019 119.848 30.555 120.247 31.1649C120.455 31.4611 120.662 31.6877 120.835 31.8097C120.991 31.9491 121.199 32.0013 121.442 32.0013C121.823 32.0013 122.169 31.8794 122.429 31.6354C122.706 31.374 122.844 31.0777 122.844 30.6944C122.844 30.3458 122.706 29.945 122.463 29.5094C122.221 29.0912 121.857 28.6729 121.372 28.2895C120.905 27.9236 120.316 27.6099 119.641 27.366C118.948 27.122 118.186 27 117.372 27C116.039 27 114.896 27.2788 113.944 27.819C112.991 28.3767 112.264 29.1609 111.762 30.1542C111.26 31.1649 111 32.3324 111 33.6394C111 35.5737 111.554 37.1247 112.645 38.2748C113.753 39.4249 115.294 40 117.251 40C118.169 40 119.017 39.878 119.745 39.634C120.472 39.3727 121.095 39.0416 121.58 38.6407C122.065 38.2399 122.429 37.8043 122.654 37.3512Z" fill="#383838"/>
<path fill-rule="evenodd" clip-rule="evenodd" d="M138.686 37.5147C138.464 36.8543 138.354 36.1939 138.354 35.5856C138.372 34.9425 138.372 34.3516 138.372 33.8302C138.391 33.3088 138.391 32.6484 138.391 31.9011C138.391 30.7193 138.206 29.7634 137.855 29.0508C137.504 28.3382 136.913 27.8168 136.082 27.4866C135.233 27.1738 134.051 27 132.555 27C131.226 27 130.099 27.1738 129.195 27.5214C128.308 27.8516 127.662 28.2861 127.237 28.8075C126.831 29.3289 126.609 29.8676 126.609 30.4238C126.609 30.754 126.739 31.0321 127.016 31.258C127.274 31.484 127.588 31.5882 127.957 31.5882C128.345 31.5882 128.604 31.5187 128.714 31.3971C128.844 31.2406 129.065 30.9452 129.379 30.4933C129.712 30.0241 130.099 29.6765 130.543 29.4332C130.986 29.2072 131.669 29.0856 132.555 29.0856C133.589 29.0856 134.291 29.2941 134.624 29.7112C134.956 30.1283 135.141 30.7714 135.196 31.6404V31.6925L135.122 31.7099C134.42 31.9184 133.737 32.0749 133.109 32.2139C132.5 32.3529 131.761 32.5094 130.893 32.6832C129.989 32.857 129.49 32.9439 129.287 32.996C128.253 33.2045 127.459 33.6217 126.868 34.2299C126.295 34.8382 126 35.5682 126 36.4372C126 37.0628 126.185 37.6711 126.536 38.2099C126.886 38.7487 127.385 39.2005 128.031 39.5134C128.678 39.8262 129.453 40 130.321 40C131.263 40 132.131 39.8436 132.888 39.5481C133.663 39.2353 134.457 38.7834 135.27 38.1925L135.344 38.1404L135.399 38.2099C135.787 38.8008 136.138 39.2353 136.489 39.5481C136.803 39.8436 137.135 40 137.467 40C137.855 40 138.224 39.861 138.538 39.6003C138.852 39.3396 139 39.0789 139 38.766C139 38.5749 138.889 38.1578 138.686 37.5147ZM135.196 34.0388C135.196 35.1684 135.03 36.0027 134.716 36.4893C134.439 36.9412 133.996 37.3235 133.405 37.6016C132.832 37.8971 132.186 38.0361 131.503 38.0361C130.838 38.0361 130.303 37.8623 129.896 37.4973C129.49 37.1497 129.268 36.6979 129.268 36.1939C129.268 35.6898 129.453 35.3075 129.804 35.0294C130.155 34.7513 130.524 34.5775 130.893 34.4733C131.263 34.3864 131.928 34.2473 132.888 34.0561C133.848 33.865 134.587 33.6738 135.067 33.5L135.196 33.4652V34.0388Z" fill="#383838"/>
<path fill-rule="evenodd" clip-rule="evenodd" d="M148.066 27.5054C147.419 27.1743 146.737 27 146.054 27C145.371 27 144.832 27.1743 144.419 27.4879C144.024 27.819 143.611 28.3244 143.216 28.9692L143.072 29.2131V28.9343C143.036 28.2895 142.91 27.8016 142.677 27.4705C142.443 27.1568 142.066 27 141.545 27C140.503 27 140 27.6796 140 29.1086V38.118C140 38.7453 140.144 39.2158 140.449 39.5295C140.737 39.8432 141.114 40 141.563 40C142.03 40 142.425 39.8432 142.713 39.5295C143.018 39.2332 143.18 38.7453 143.18 38.118V35.4169C143.18 34.441 143.216 33.6046 143.269 32.9424C143.341 32.2627 143.449 31.6702 143.629 31.1649C143.808 30.6595 144.06 30.2761 144.383 30.0147C144.94 29.5791 145.749 29.492 146.898 29.8579C147.473 30.0322 147.671 30.067 147.76 30.067C148.048 30.067 148.353 29.945 148.605 29.7011C148.874 29.4571 149 29.1609 149 28.7775C149 28.2547 148.695 27.8365 148.066 27.5054Z" fill="#383838"/>
<path fill-rule="evenodd" clip-rule="evenodd" d="M162.386 38.3953C162.876 37.8317 163.275 37.1272 163.565 36.2994C163.855 35.4716 164 34.5382 164 33.5519C164 32.1957 163.746 31.0157 163.257 30.0294C162.749 29.0607 162.06 28.3033 161.208 27.7926C160.356 27.2818 159.413 27.0176 158.397 27.0176C157.545 27.0176 156.784 27.1937 156.113 27.546C155.442 27.8982 154.789 28.4618 154.173 29.2016L154.01 29.3777V28.7613C154.01 28.18 153.865 27.7397 153.593 27.4403C153.303 27.1585 152.94 27 152.487 27C152.015 27 151.653 27.1409 151.399 27.4403C151.127 27.7221 151 28.18 151 28.7789V42.9041C151 43.591 151.091 44.1194 151.29 44.4892C151.49 44.8239 151.87 45 152.487 45C153.52 45 154.01 44.3131 154.01 42.9217V37.7789L154.173 37.955C154.753 38.6771 155.37 39.2231 156.004 39.593C156.657 39.9628 157.455 40.1389 158.397 40.1389C159.177 40.1389 159.921 39.998 160.591 39.681C161.28 39.3816 161.879 38.9589 162.386 38.3953ZM160.338 35.8415C160.047 36.4755 159.649 36.9687 159.177 37.2857C158.688 37.6204 158.144 37.7789 157.563 37.7789C156.603 37.7789 155.787 37.409 155.152 36.6693C154.499 35.9296 154.173 34.8904 154.173 33.5695C154.173 32.1781 154.499 31.1037 155.152 30.3816C155.805 29.6595 156.621 29.2896 157.563 29.2896C158.162 29.2896 158.724 29.4481 159.213 29.8004C159.703 30.135 160.102 30.6282 160.374 31.2622C160.646 31.8787 160.791 32.636 160.791 33.5166C160.791 34.4149 160.628 35.1898 160.338 35.8415Z" fill="#383838"/>
<path fill-rule="evenodd" clip-rule="evenodd" d="M176.484 37.6537C176.707 37.2888 176.811 36.9586 176.811 36.6805C176.811 36.3676 176.725 36.1417 176.535 35.9679C176.346 35.7941 176.105 35.7246 175.795 35.7246C175.502 35.7246 175.296 35.7767 175.141 35.9158C174.745 36.2981 174.418 36.5936 174.176 36.8021C173.918 37.0281 173.643 37.2366 173.35 37.4452C173.04 37.6364 172.73 37.7754 172.403 37.8797C172.076 37.9666 171.714 38.0187 171.336 38.0187C170.75 38.0187 170.199 37.8623 169.717 37.5668C169.235 37.2888 168.857 36.8543 168.564 36.2807C168.271 35.7072 168.116 35.0468 168.116 34.2995V34.2299H174.452C175.261 34.2299 175.915 34.1083 176.363 33.865C176.793 33.639 177 33.135 177 32.3703C177 31.5013 176.776 30.6497 176.346 29.8155C175.915 28.9987 175.244 28.3035 174.366 27.7821C173.488 27.2607 172.42 27 171.198 27C170.234 27 169.373 27.1564 168.598 27.4693C167.824 27.7647 167.169 28.2166 166.636 28.7901C166.102 29.3636 165.689 30.0588 165.413 30.8583C165.138 31.6578 165 32.5441 165 33.4826C165 35.4813 165.568 37.0802 166.687 38.2447C167.806 39.4091 169.407 40 171.422 40C172.317 40 173.109 39.8783 173.78 39.635C174.469 39.4091 175.037 39.1136 175.485 38.766C175.933 38.4184 176.26 38.0361 176.484 37.6537ZM168.116 32.4572C168.22 31.3623 168.547 30.5107 169.063 29.9545C169.58 29.381 170.268 29.0856 171.077 29.0856C171.938 29.0856 172.644 29.381 173.161 29.9372C173.677 30.4933 173.987 31.3449 174.073 32.4572V32.5441H168.099L168.116 32.4572Z" fill="#383838"/>
<path fill-rule="evenodd" clip-rule="evenodd" d="M191 32.0885C191 31.3914 190.963 30.7989 190.908 30.3458C190.835 29.8928 190.688 29.4745 190.467 29.0912C190.136 28.429 189.603 27.9062 188.923 27.5402C188.225 27.1917 187.435 27 186.553 27C185.634 27 184.825 27.1743 184.127 27.5228C183.429 27.8713 182.767 28.4115 182.179 29.1434L182.032 29.3351V28.7078C182.032 28.3418 181.959 28.0282 181.83 27.7668C181.683 27.5054 181.499 27.3137 181.279 27.1917C181.04 27.0697 180.783 27 180.507 27C180.047 27 179.662 27.1394 179.404 27.4357C179.129 27.7145 179 28.1676 179 28.7601V38.118C179 38.7279 179.147 39.1984 179.459 39.5295C179.753 39.8432 180.139 40 180.599 40C181.095 40 181.481 39.8432 181.793 39.5295C182.087 39.2332 182.253 38.7453 182.253 38.118V34.0576C182.253 32.7158 182.326 31.8271 182.492 31.3391C182.73 30.7118 183.116 30.2239 183.631 29.8753C184.145 29.5268 184.715 29.3525 185.34 29.3525C186.314 29.3525 186.957 29.6488 187.288 30.2413C187.6 30.8164 187.766 31.6528 187.766 32.7158V38.118C187.766 38.7279 187.913 39.1984 188.225 39.5295C188.519 39.8432 188.923 40 189.401 40C189.879 40 190.247 39.8432 190.559 39.5295C190.853 39.2158 191 38.7453 191 38.118V32.0885Z" fill="#383838"/>
<path fill-rule="evenodd" clip-rule="evenodd" d="M202 39.4144C202 39.1081 201.909 38.8739 201.707 38.6757C201.506 38.4595 201.268 38.3694 201.03 38.3694C200.829 38.3694 200.573 38.4054 200.244 38.4775C199.896 38.5496 199.622 38.5856 199.421 38.5856C199.018 38.5856 198.744 38.4775 198.561 38.2793C198.396 38.0991 198.287 37.8468 198.25 37.5586C198.213 37.2703 198.177 36.8559 198.177 36.3333V30.0991H198.909C199.567 30.0991 200.079 30.009 200.427 29.8288C200.756 29.6667 200.921 29.3784 200.921 28.964C200.921 28.6396 200.793 28.3694 200.555 28.1712C200.317 27.955 199.97 27.8468 199.512 27.8468H198.177V25.4865C198.177 24.9279 198.159 24.4955 198.085 24.1892C198.03 23.9009 197.902 23.6667 197.683 23.4505C197.354 23.1622 196.97 23 196.567 23C196.274 23 196 23.0721 195.78 23.1982C195.543 23.3423 195.36 23.5225 195.232 23.7387C195.104 23.9369 195.03 24.1892 194.994 24.4955C194.976 24.8018 194.957 25.2162 194.957 25.7568V27.8468H194.5C194.006 27.8468 193.622 27.955 193.366 28.1712C193.128 28.3694 193 28.6396 193 28.964C193 29.2883 193.11 29.5586 193.366 29.7748C193.604 29.991 193.951 30.0991 194.427 30.0991H194.957V36.6036C194.957 37.6306 195.03 38.4595 195.213 39.0721C195.378 39.6667 195.726 40.1532 196.256 40.4775C196.787 40.8198 197.573 41 198.616 41C199.713 41 200.573 40.8559 201.159 40.5856C201.726 40.2973 202 39.9189 202 39.4144Z" fill="#383838"/>
<path fill-rule="evenodd" clip-rule="evenodd" d="M211.066 27.5054C210.419 27.1743 209.737 27 209.054 27C208.371 27 207.832 27.1743 207.419 27.4879C207.024 27.819 206.611 28.3244 206.216 28.9692L206.072 29.2131L206.054 28.9343C206.036 28.2895 205.91 27.8016 205.677 27.4705C205.443 27.1568 205.066 27 204.545 27C203.503 27 203 27.6796 203 29.1086V38.118C203 38.7453 203.144 39.2158 203.449 39.5295C203.737 39.8432 204.114 40 204.563 40C205.03 40 205.425 39.8432 205.713 39.5295C206.018 39.2332 206.18 38.7453 206.18 38.118V35.4169C206.18 34.441 206.198 33.6046 206.269 32.9424C206.341 32.2627 206.449 31.6702 206.629 31.1649C206.808 30.6595 207.06 30.2761 207.383 30.0147C207.94 29.5791 208.749 29.492 209.898 29.8579C210.473 30.0322 210.671 30.067 210.76 30.067C211.048 30.067 211.353 29.945 211.605 29.7011C211.874 29.4571 212 29.1609 212 28.7775C212 28.2547 211.695 27.8365 211.066 27.5054Z" fill="#383838"/>
<path fill-rule="evenodd" clip-rule="evenodd" d="M218.346 43.2916C218.692 42.7456 219.037 41.9706 219.401 41.002L223.585 29.8356C223.689 29.5362 223.775 29.2544 223.844 28.9902C223.914 28.7084 223.965 28.4971 224 28.3386C224 28.1272 223.948 27.8982 223.827 27.6869C223.706 27.4755 223.55 27.317 223.343 27.1937C223.135 27.0705 222.911 27 222.669 27C222.357 27 222.098 27.0528 221.942 27.1761C221.769 27.2818 221.597 27.4932 221.441 27.8278C221.285 28.1624 221.095 28.6556 220.888 29.2544L218.242 36.9687L215.441 28.6908C215.268 28.1272 215.061 27.7045 214.836 27.4227C214.611 27.1409 214.3 27 213.85 27C213.591 27 213.349 27.0705 213.124 27.2114C212.882 27.3346 212.692 27.5284 212.571 27.7573C212.432 27.9863 212.363 28.2329 212.363 28.4971C212.363 28.7436 212.484 29.1663 212.726 29.7299L216.686 39.91L216.392 40.6673C216.167 41.1957 215.96 41.6184 215.787 41.9002C215.614 42.182 215.424 42.3933 215.199 42.499C214.974 42.6223 214.663 42.6751 214.282 42.6751C214.127 42.6751 213.954 42.6575 213.746 42.6047C213.573 42.5519 213.418 42.5342 213.245 42.5342C212.83 42.5342 212.519 42.6399 212.311 42.816C212.104 43.0098 212 43.274 212 43.6262C212 44.1546 212.207 44.5068 212.657 44.7006C213.124 44.8943 213.816 45 214.749 45C215.7 45 216.461 44.8591 217.014 44.5597C217.568 44.2603 218.017 43.8376 218.346 43.2916Z" fill="#383838"/>
<path fill-rule="evenodd" clip-rule="evenodd" d="M18.0725 24C18.0725 24 17.9094 24.4783 18.0725 24.632C18.2174 24.7857 18.9964 24.837 18.9964 24.837V33.9581L20.5362 35L21.8406 33.8385V24.9224L22.2391 24.837C22.8551 24.9907 23 24.4783 23 24.4783V24H18.0725ZM21.2971 33.736L20.8623 33.9068V24.9736L21.2971 24.837V33.736ZM22.4565 24.4441C22.0036 24.4783 19.0688 24.1537 19.0688 24.1537H22.4565C22.4565 24.1537 22.9275 24.427 22.4565 24.4441Z" fill="#383838"/>
<path fill-rule="evenodd" clip-rule="evenodd" d="M24.6259 28.4124L24.591 28.3945C24.3466 28.1434 24.015 28 23.6658 28C22.9152 28 22.3217 28.6276 22.3217 29.3807C22.3217 29.7393 22.4439 30.08 22.7057 30.349L22.7232 30.3669C22.7581 30.4207 22.8105 30.4566 22.8628 30.4924C23.788 31.3352 24.3292 32.5545 24.3292 33.8097C24.3292 36.2662 22.3915 38.2386 20 38.2386C17.6259 38.2386 15.6883 36.2662 15.6883 33.8097C15.6883 32.5724 16.1945 31.371 17.1022 30.5462C17.4863 30.2772 17.6958 29.8469 17.6958 29.3807C17.6958 28.6276 17.1022 28 16.3516 28C16.0025 28 15.6708 28.1434 15.409 28.3945L15.3915 28.4303L15.3741 28.4124C13.8554 29.7752 13 31.7476 13 33.8097C13 37.7724 16.1421 41 20 41C23.8579 41 27 37.7724 27 33.8097C27 31.7476 26.1446 29.7752 24.6259 28.4124Z" fill="#383838"/>
</svg>
