<?xml version="1.0" encoding="UTF-8" standalone="no"?>
<svg
   xmlns:dc="http://purl.org/dc/elements/1.1/"
   xmlns:cc="http://creativecommons.org/ns#"
   xmlns:rdf="http://www.w3.org/1999/02/22-rdf-syntax-ns#"
   xmlns:svg="http://www.w3.org/2000/svg"
   xmlns="http://www.w3.org/2000/svg"
   xmlns:sodipodi="http://sodipodi.sourceforge.net/DTD/sodipodi-0.dtd"
   xmlns:inkscape="http://www.inkscape.org/namespaces/inkscape"
   width="225"
   height="46"
   viewBox="0 0 225 46"
   fill="none"
   version="1.1"
   id="svg1125"
   sodipodi:docname="software-logo.svg"
   inkscape:version="1.0.2 (e86c8708, 2021-01-15)">
  <metadata
     id="metadata1131">
    <rdf:RDF>
      <cc:Work
         rdf:about="">
        <dc:format>image/svg+xml</dc:format>
        <dc:type
           rdf:resource="http://purl.org/dc/dcmitype/StillImage" />
      </cc:Work>
    </rdf:RDF>
  </metadata>
  <defs
     id="defs1129" />
  <sodipodi:namedview
     pagecolor="#ffffff"
     bordercolor="#666666"
     borderopacity="1"
     objecttolerance="10"
     gridtolerance="10"
     guidetolerance="10"
     inkscape:pageopacity="0"
     inkscape:pageshadow="2"
     inkscape:window-width="1920"
     inkscape:window-height="1147"
     id="namedview1127"
     showgrid="false"
     inkscape:zoom="5.5663137"
     inkscape:cx="108.3487"
     inkscape:cy="6.9651033"
     inkscape:window-x="0"
     inkscape:window-y="25"
     inkscape:window-maximized="1"
     inkscape:current-layer="svg1125" />
  <g
     id="g2313"
     transform="matrix(0.99145526,0,0,0.99145526,0.19999778,0.1937756)"
     style="stroke-width:1.00862">
    <path
       fill-rule="evenodd"
       clip-rule="evenodd"
       d="M 65.5056,10.008 C 64.7858,9.2326 61.2047,9.32277 60.215,9.30474 54.7804,9.26867 44.631,9.57523 39.5564,9.57523 c -0.198,0 -0.8998,0.34263 -0.7918,0.63117 -3.5991,0 -5.5066,0.018 -9.8615,-0.0361 -2.3573,-0.018 -7.9719,0.2705 -8.1158,-3.89511 -0.072,-2.09184 1.8355,-3.93121 4.0849,-6.167305 -1.4396,-0.432793 -2.8793,0.522958 -4.3369,1.334445 -0.7018,0.70329 -1.1877,1.17215 -1.7815,1.76724 -2.1954,3.20988 -3.0592,6.45583 -2.5374,9.70173 1.9795,-0.3786 3.4551,2.3443 2.0695,3.6247 l -1.2417,0.018 c -0.5938,0 -1.0617,0.6131 -1.0437,1.3345 l 0.036,2.8853 C 16.0545,21.5131 16.5404,22 17.1162,22 h 6.2624 c 0.5758,-0.018 1.0437,-0.6131 1.0257,-1.3525 l -0.036,-2.8853 c 0,-0.7213 -0.4859,-1.3164 -1.0797,-1.2983 h -0.7738 c -1.3856,-3.8771 3.0592,-3.3722 5.5786,-3.3362 4.7147,0.0361 6.2983,0.0181 10.4552,0.0181 0.234,0.2885 0.126,0.8295 0.7738,1.1 0.4139,0.1623 25.4094,0.1082 25.8593,0 0.4499,-0.1082 0.3239,-0.3246 0.4859,-0.4869 0.2159,-0.8656 0.7018,-2.7951 -0.162,-3.7509 z m -42.163,6.9968 v 3.0657 c 0,0 -0.09,-2.0017 -0.8998,-2.1279 -0.8278,-0.1263 -0.3599,-0.9378 -0.3599,-0.9378 z m 41.8931,-5.6263 c 0,0 -0.7378,-0.2524 -1.3317,-0.6311 C 62.6264,9.91786 39.9523,10.6572 39.9523,10.6572 l 0.6478,-0.541 c 0,0 23.106,-0.3967 23.8978,0 0.7918,0.3967 0.7378,1.2623 0.7378,1.2623 z"
       fill="#383838"
       id="path1087"
       style="stroke-width:1.01731" />
    <g
       id="g2289"
       style="stroke-width:1.00862">
      <g
         id="g2141"
         style="stroke-width:1.00862">
        <path
           fill-rule="evenodd"
           clip-rule="evenodd"
           d="m 10.450866,38.585069 c 0.441489,-0.632441 0.653414,-1.387883 0.653414,-2.266422 0,-0.579713 -0.158903,-1.106798 -0.476778,-1.546069 C 10.291987,34.315867 9.8151403,33.911679 9.1793945,33.577867 8.5436532,33.244069 7.7136576,32.945428 6.707074,32.699424 5.8240993,32.488627 5.1706961,32.312982 4.6762268,32.172341 4.1817677,32.031809 3.79326,31.838542 3.4930496,31.610171 3.1751785,31.381807 3.0338952,31.083086 3.0338952,30.714189 c 0,-0.404085 0.1942521,-0.755542 0.6180872,-1.019084 0.4061685,-0.245893 0.918293,-0.38644 1.5187137,-0.38644 0.6004207,0 1.059574,0.105361 1.4127543,0.298628 0.3531963,0.193272 0.6534021,0.456816 0.9006379,0.790627 0.3001933,0.368894 0.5651059,0.667625 0.794674,0.84336 0.2295829,0.17563 0.4944705,0.263457 0.8123416,0.263457 0.44148,0 0.7770177,-0.105361 1.0242351,-0.333799 0.229584,-0.228363 0.353158,-0.509442 0.353158,-0.860797 0,-0.316271 -0.123622,-0.667625 -0.335515,-1.001437 C 9.9034365,28.95726 9.550247,28.641072 9.1087591,28.342345 8.66727,28.061244 8.1021641,27.832905 7.4487621,27.657178 6.7777094,27.481433 6.0183469,27.393645 5.1706961,27.393645 c -1.0595752,0 -1.9778568,0.175745 -2.7372193,0.509543 -0.7416995,0.333802 -1.3244548,0.80817 -1.69530847,1.370341 -0.3885077,0.56227 -0.58276441,1.177166 -0.58276441,1.809608 0,0.702812 0.21189247,1.317714 0.61808267,1.792067 0.42383171,0.491898 0.97127211,0.895982 1.67765331,1.19471 0.706372,0.298629 1.624665,0.597359 2.7372182,0.878443 1.0065824,0.246005 1.7482795,0.491898 2.1897686,0.75544 0.4591431,0.2811 0.6887226,0.720357 0.6887226,1.335253 0,0.404085 -0.2295818,0.755542 -0.6710572,1.054172 -0.4238339,0.298629 -0.9889409,0.456811 -1.6599947,0.456811 -0.8123303,0 -1.4833989,-0.158173 -1.9602028,-0.439274 C 3.2987907,37.812131 2.892629,37.372864 2.5394361,36.775509 2.3805113,36.476879 2.2038858,36.248422 2.027315,36.090336 1.8683891,35.932232 1.6211408,35.861973 1.2856156,35.861973 c -0.37084001,0 -0.67106403,0.122892 -0.91829869,0.351367 -0.22958067,0.246006 -0.35319401,0.527083 -0.35319401,0.860895 0,0.527084 0.19425329,1.054173 0.58276327,1.581153 0.38850657,0.527089 1.00658463,0.966358 1.83658143,1.317714 0.8300002,0.351366 1.8365906,0.527083 2.9844495,0.527083 1.2185079,0 2.2780785,-0.158104 3.1257293,-0.491898 0.8299979,-0.316272 1.4833966,-0.790626 1.9072126,-1.42317 z"
           fill="#383838"
           id="path1089-7"
           style="stroke-width:1.00862" />
        <path
           fill-rule="evenodd"
           clip-rule="evenodd"
           d="m 34.189906,22.413 c -1.153778,0 -2.061758,0.141947 -2.704885,0.408017 -0.643128,0.26605 -1.115973,0.709565 -1.380825,1.294925 -0.264755,0.58546 -0.416082,1.401493 -0.416082,2.41261 v 1.082099 h -0.90798 c -1.134924,0 -1.683484,0.354795 -1.683484,1.099841 0,0.337039 0.132385,0.585457 0.397229,0.798288 0.264867,0.212921 0.643126,0.319282 1.153877,0.319282 h 1.040358 v 8.798825 c 0,0.638591 0.170176,1.117583 0.472843,1.436881 0.32153,0.337039 0.718743,0.496735 1.191689,0.496735 0.491798,0 0.90798,-0.177456 1.210538,-0.496735 0.321606,-0.319284 0.472944,-0.79829 0.472944,-1.436881 v -8.798825 h 0.94579 c 0.62417,0 1.097018,-0.07088 1.437584,-0.212806 0.340468,-0.141946 0.491799,-0.443503 0.491799,-0.957985 0,-0.70957 -0.624274,-1.046609 -1.929383,-1.046609 h -0.94579 v -0.869166 c 0,-0.656436 0.09457,-1.188563 0.283691,-1.543346 0.189165,-0.372513 0.624173,-0.567716 1.305209,-0.567716 0.226955,0 0.510652,0.0178 0.851121,0.071 0.340584,0.05324 0.567513,0.071 0.699889,0.071 0.264871,0 0.491796,-0.08871 0.699887,-0.301561 0.189163,-0.195165 0.302669,-0.443504 0.302669,-0.727414 0,-0.886909 -1.021402,-1.330413 -2.988694,-1.330413 z"
           fill="#383838"
           id="path1091-9"
           style="stroke-width:1.00862" />
        <path
           fill-rule="evenodd"
           clip-rule="evenodd"
           d="m 45.726891,39.366477 c 0,-0.290664 -0.09224,-0.544927 -0.295085,-0.744755 -0.202834,-0.217963 -0.442598,-0.308802 -0.700793,-0.308802 -0.184393,0 -0.442603,0.03619 -0.7746,0.108974 -0.350451,0.07271 -0.626994,0.108997 -0.829946,0.108997 -0.405696,0 -0.682346,-0.108997 -0.866745,-0.308805 -0.166069,-0.181685 -0.276641,-0.436049 -0.313565,-0.726614 -0.03697,-0.290663 -0.0738,-0.708457 -0.0738,-1.23534 v -6.285289 h 0.737698 c 0.663996,0 1.180395,-0.09085 1.512293,-0.272526 0.350453,-0.163444 0.516397,-0.454095 0.516397,-0.87189 0,-0.327054 -0.129054,-0.599471 -0.368781,-0.799299 -0.239758,-0.217964 -0.590198,-0.327055 -1.051247,-0.327055 h -1.346344 v -2.379642 c 0,-0.563182 -0.01826,-0.999125 -0.09213,-1.307933 -0.05536,-0.290663 -0.184508,-0.526782 -0.405799,-0.744755 -0.331895,-0.290665 -0.719248,-0.454192 -1.124945,-0.454192 -0.295085,0 -0.571746,0.07271 -0.811496,0.19982 -0.22132,0.145301 -0.405697,0.32698 -0.534846,0.544932 -0.129053,0.199821 -0.202878,0.454193 -0.239758,0.763001 -0.01826,0.308803 -0.03697,0.726607 -0.03697,1.271635 v 2.107131 h -0.461048 c -0.497949,0 -0.885194,0.109111 -1.143393,0.327056 -0.239833,0.19982 -0.368895,0.47224 -0.368895,0.799299 0,0.32698 0.110706,0.599472 0.368895,0.817444 0.239756,0.217964 0.590097,0.326978 1.069592,0.326978 h 0.534849 v 6.557807 c 0,1.035415 0.0738,1.871108 0.2582,2.488729 0.165954,0.599471 0.516397,1.089959 1.051246,1.416921 0.534845,0.345118 1.327891,0.526778 2.379135,0.526778 1.106498,0 1.973341,-0.145301 2.563441,-0.417795 0.571746,-0.290663 0.848396,-0.672165 0.848396,-1.180798 z"
           fill="#383838"
           id="path1093-0"
           style="stroke-width:1.00862" />
        <path
           fill-rule="evenodd"
           clip-rule="evenodd"
           d="m 61.937634,37.987711 2.746827,-7.81815 c 0.252942,-0.667627 0.379489,-1.159628 0.379489,-1.493438 0,-0.333801 -0.144571,-0.650084 -0.415681,-0.895983 -0.271004,-0.263534 -0.614394,-0.386545 -0.993878,-0.386545 -0.379489,0 -0.668636,0.08784 -0.867453,0.246006 -0.198839,0.175631 -0.343404,0.368896 -0.433727,0.597351 -0.09035,0.228366 -0.198726,0.614902 -0.343288,1.124345 l -2.295156,7.57235 -2.078195,-7.045266 c -0.198838,-0.685172 -0.361427,-1.159525 -0.46982,-1.423068 -0.108495,-0.263534 -0.307203,-0.509542 -0.5783,-0.737899 -0.271116,-0.228363 -0.650587,-0.333801 -1.120406,-0.333801 -0.469923,0 -0.849407,0.105475 -1.102363,0.333801 -0.271118,0.228363 -0.469919,0.456813 -0.560253,0.702813 -0.108382,0.263457 -0.252942,0.75544 -0.469817,1.458154 l -2.078195,7.045266 -2.258964,-7.57235 c -0.216846,-0.720258 -0.433723,-1.247342 -0.632539,-1.54607 -0.162624,-0.2811 -0.524063,-0.421627 -1.048121,-0.421627 -0.39753,0 -0.740923,0.140532 -1.012027,0.404082 -0.271004,0.263535 -0.397531,0.544629 -0.397531,0.878443 0,0.263535 0.126497,0.773084 0.397531,1.493441 l 2.728783,7.81815 c 0.07227,0.210912 0.162715,0.492 0.307317,0.843356 0.126428,0.351366 0.271005,0.650085 0.433624,0.895982 0.162715,0.263532 0.379603,0.439271 0.614494,0.579814 0.25294,0.123005 0.560155,0.193271 0.903545,0.193271 0.686683,0 1.174649,-0.210797 1.445751,-0.632439 0.28914,-0.43927 0.542109,-1.106898 0.795164,-1.985339 l 1.933619,-6.623541 2.005907,6.623541 c 0.162622,0.579813 0.307203,1.036523 0.451772,1.387983 0.12652,0.351366 0.343403,0.649984 0.614394,0.878441 0.271117,0.245892 0.668736,0.351366 1.138555,0.351366 0.469821,0 0.849305,-0.10543 1.120405,-0.31627 0.271119,-0.228363 0.469821,-0.474356 0.596348,-0.772984 0.126496,-0.281176 0.307202,-0.755543 0.542209,-1.42317 z"
           fill="#383838"
           id="path1095-2"
           style="stroke-width:1.00862" />
        <path
           fill-rule="evenodd"
           clip-rule="evenodd"
           d="m 78.360894,37.994667 c -0.223417,-0.665813 -0.335133,-1.331625 -0.335133,-1.94491 0.01872,-0.648369 0.01872,-1.244114 0.01872,-1.769785 0.01872,-0.525673 0.01872,-1.191486 0.01872,-1.94491 0,-1.191486 -0.186106,-2.15522 -0.539892,-2.87366 -0.353701,-0.718438 -0.949425,-1.244114 -1.787233,-1.577018 -0.856366,-0.315357 -2.066502,-0.490586 -3.555908,-0.490586 -1.340396,0 -2.494679,0.175243 -3.388343,0.525673 -0.893663,0.332922 -1.545262,0.770963 -1.973439,1.296638 -0.409531,0.525673 -0.632948,1.068788 -0.632948,1.629549 0,0.332887 0.130284,0.613287 0.40953,0.84103 0.2606,0.210297 0.577192,0.332926 0.949519,0.332926 0.390977,0 0.651597,-0.07008 0.763304,-0.192656 0.130239,-0.157785 0.353691,-0.455601 0.670249,-0.911209 0.316461,-0.473044 0.726,-0.82349 1.172834,-1.068783 0.446831,-0.227869 1.135629,-0.350452 2.029294,-0.350452 1.042576,0 1.750028,0.210227 2.085149,0.630727 0.335134,0.420521 0.521237,1.06889 0.558543,1.945011 l 0.01872,0.05251 -0.07442,0.01758 c -0.707453,0.192769 -1.377702,0.36798 -2.029298,0.508128 -0.614394,0.140145 -1.359047,0.297907 -2.234059,0.473151 -0.91232,0.175198 -1.4149,0.262849 -1.638317,0.315357 -1.024023,0.210227 -1.82453,0.630831 -2.420275,1.244016 -0.57709,0.613284 -0.875013,1.349268 -0.875013,2.225385 0,0.63073 0.186219,1.244016 0.539891,1.787229 0.353767,0.560657 0.856361,0.998716 1.507956,1.314185 0.6517,0.315357 1.433554,0.490584 2.308566,0.490584 0.949522,0 1.824529,-0.157671 2.587838,-0.455604 0.781953,-0.315357 1.582462,-0.770962 2.401621,-1.366708 l 0.07448,-0.05255 0.05575,0.07008 c 0.390976,0.595748 0.744749,1.033806 1.098425,1.34917 0.316576,0.297905 0.651595,0.455606 0.986722,0.455606 0.390977,0 0.763304,-0.140143 1.079878,-0.402976 0.316461,-0.262848 0.465384,-0.525673 0.465384,-0.841137 0,-0.192655 -0.111733,-0.61318 -0.316462,-1.261558 z m -3.537251,-3.504386 c 0,1.138857 -0.149022,1.979994 -0.465488,2.470582 -0.27927,0.455601 -0.726101,0.841037 -1.321844,1.121413 -0.577088,0.297946 -1.228689,0.438064 -1.917584,0.438064 -0.670149,0 -1.210038,-0.175243 -1.619671,-0.543218 -0.409525,-0.367902 -0.632943,-0.80595 -0.632943,-1.31408 0,-0.508231 0.186105,-0.893662 0.539888,-1.174044 0.35369,-0.280377 0.726004,-0.4556 1.098432,-0.560658 0.372322,-0.0876 1.042575,-0.227868 2.010643,-0.420619 0.968066,-0.192655 1.712723,-0.385431 2.196857,-0.560657 l 0.13024,-0.03505 v 0.578301 z"
           fill="#383838"
           id="path1097-3"
           style="stroke-width:1.00862" />
        <path
           fill-rule="evenodd"
           clip-rule="evenodd"
           d="m 88.964514,27.903139 c -0.652003,-0.333799 -1.340299,-0.509544 -2.028494,-0.509544 -0.688188,0 -1.231614,0.175745 -1.630047,0.4919 -0.416488,0.333801 -0.833072,0.843357 -1.231512,1.493441 L 83.92959,29.624828 83.91135,29.343725 C 83.89311,28.693643 83.766479,28.20174 83.530947,27.86793 83.295535,27.551658 82.915239,27.393572 82.38997,27.393572 c -1.050436,0 -1.557561,0.68517 -1.557561,2.125882 v 9.083235 c 0,0.632444 0.144866,1.106802 0.452783,1.423074 0.289754,0.316272 0.670147,0.474349 1.122929,0.474349 0.470823,0 0.869263,-0.158104 1.159121,-0.474349 0.307886,-0.298742 0.470823,-0.79063 0.470823,-1.423074 v -2.723236 c 0,-0.983898 0.01824,-1.82715 0.09065,-2.494777 0.07241,-0.68527 0.181057,-1.282625 0.362144,-1.792069 0.181154,-0.509543 0.434735,-0.896084 0.760681,-1.159625 0.561468,-0.439173 1.376492,-0.526986 2.535613,-0.158104 0.579611,0.175744 0.778832,0.210842 0.869367,0.210842 0.307892,0 0.597659,-0.123004 0.851221,-0.368894 0.271689,-0.246006 0.39844,-0.544629 0.39844,-0.931174 0,-0.527083 -0.307887,-0.948711 -0.941756,-1.282522 z"
           fill="#383838"
           id="path1099-9"
           style="stroke-width:1.00862" />
        <path
           fill-rule="evenodd"
           clip-rule="evenodd"
           d="m 101.60529,38.134608 c 0.22481,-0.367905 0.32968,-0.700797 0.32968,-0.981175 0,-0.31547 -0.0867,-0.543217 -0.27828,-0.718444 -0.19055,-0.157671 -0.43352,-0.24528 -0.74606,-0.24528 -0.29539,0 -0.50309,0.05253 -0.65936,0.192769 -0.399652,0.385433 -0.729432,0.683352 -0.972404,0.893564 -0.26041,0.227868 -0.538076,0.438059 -0.833174,0.648368 -0.312458,0.19277 -0.624879,0.332922 -0.954661,0.438063 -0.329877,0.08761 -0.694346,0.140144 -1.076247,0.140144 -0.5901,0 -1.145615,-0.15767 -1.631563,-0.455601 C 94.297169,37.76676 93.915267,37.328681 93.620169,36.75038 93.32516,36.172181 93.168901,35.50637 93.168901,34.752947 v -0.0702 h 6.387619 c 0.81573,0 1.47509,-0.122572 1.92677,-0.367903 0.43352,-0.227868 0.64221,-0.735985 0.64221,-1.506953 0,-0.876121 -0.22583,-1.734699 -0.65936,-2.575733 -0.43453,-0.823497 -1.11103,-1.524392 -1.996321,-2.050065 -0.885299,-0.525675 -1.961446,-0.788512 -3.193862,-0.788512 -0.954661,0 -1.839961,0.157669 -2.621009,0.473146 -0.781151,0.29783 -1.458054,0.753429 -1.978783,1.33163 -0.538076,0.578198 -0.954659,1.279092 -1.232416,2.085146 -0.277751,0.806053 -0.416591,1.699615 -0.416591,2.645809 0,2.015081 0.572758,3.627088 1.701031,4.801129 1.128273,1.173943 2.742597,1.769681 4.773403,1.769681 0.902636,0 1.701026,-0.122708 2.378032,-0.367979 0.69434,-0.227754 1.266786,-0.525676 1.718466,-0.87612 0.45167,-0.350452 0.79849,-0.735882 1.00719,-1.121418 z m -8.436382,-5.239087 c 0.10413,-1.103876 0.433931,-1.962453 0.954666,-2.523211 0.520728,-0.5782 1.215076,-0.876022 2.030909,-0.876022 0.867851,0 1.579533,0.297828 2.100267,0.858581 0.520735,0.560654 0.833175,1.419236 0.919978,2.540652 v 0.08761 h -6.023162 z"
           fill="#383838"
           id="path1101-9"
           style="stroke-width:1.00862" />
        <path
           fill-rule="evenodd"
           clip-rule="evenodd"
           d="m 17.208131,24.248002 c 0,0 -0.164427,0.482224 0,0.637182 0.1461,0.154976 0.931471,0.206689 0.931471,0.206689 v 9.195852 l 1.552419,1.050435 1.315092,-1.171014 v -8.989173 l 0.401764,-0.08612 c 0.621051,0.154978 0.767137,-0.361653 0.767137,-0.361653 v -0.48223 z m 3.251028,9.815793 -0.438365,0.172185 v -9.006412 l 0.438365,-0.137702 z m 1.168902,-9.368051 c -0.456612,0.03431 -3.415463,-0.292799 -3.415463,-0.292799 h 3.415463 c 0,0 0.47486,0.275537 0,0.292799 z"
           fill="#383838"
           id="path1121-7"
           style="stroke-width:1.00862" />
        <path
           fill-rule="evenodd"
           clip-rule="evenodd"
           d="m 24.298583,28.394662 -0.03506,-0.0178 c -0.246391,-0.253279 -0.580724,-0.397842 -0.932784,-0.397842 -0.756755,0 -1.355117,0.632741 -1.355117,1.392014 0,0.36154 0.123188,0.705031 0.387147,0.976236 l 0.01758,0.0178 c 0.03506,0.05422 0.08802,0.09042 0.14076,0.126543 0.932786,0.849709 1.478419,2.079003 1.478419,3.34449 0,2.476631 -1.953579,4.465194 -4.364678,4.465194 -2.393556,0 -4.347036,-1.988563 -4.347036,-4.465194 0,-1.247441 0.51035,-2.45869 1.425486,-3.290247 0.38725,-0.271193 0.598466,-0.70503 0.598466,-1.175051 0,-0.759275 -0.598466,-1.392015 -1.355215,-1.392015 -0.351978,0 -0.68638,0.144571 -0.950326,0.397733 l -0.01758,0.03619 -0.01758,-0.0178 c -1.531147,1.373967 -2.393559,3.362532 -2.393559,5.441535 0,3.995171 3.167853,7.249225 7.057371,7.249225 3.889515,0 7.057365,-3.254054 7.057365,-7.249225 0,-2.079003 -0.862409,-4.067568 -2.393555,-5.441535 z"
           fill="#383838"
           id="path1123-0"
           style="stroke-width:1.00862" />
      </g>
      <g
         id="g2267"
         transform="matrix(0.61847968,0,0,0.61847968,71.738506,-16.294101)"
         style="stroke-width:1.6308">
        <path
           fill-rule="evenodd"
           clip-rule="evenodd"
           d="m 82.38362,87.032989 c 0.372018,-0.720374 0.572092,-1.440585 0.572092,-2.074488 0,-0.518664 -0.200013,-1.037163 -0.601837,-1.498291 -0.400124,-0.460986 -0.915969,-0.691435 -1.516146,-0.691435 -0.515853,0 -0.945733,0.144038 -1.289632,0.460986 -0.371981,0.345864 -0.71591,0.806842 -1.03005,1.383046 -0.601836,1.037166 -1.287979,1.815239 -2.061758,2.333737 -0.772124,0.489917 -1.717856,0.749144 -2.805778,0.749144 -0.829995,0 -1.57401,-0.144038 -2.232049,-0.460985 -0.687806,-0.316951 -1.289631,-0.777918 -1.747619,-1.41182 -0.486108,-0.576215 -0.858104,-1.325344 -1.11603,-2.189726 -0.22817,-0.835619 -0.371981,-1.786307 -0.371981,-2.794696 0,-2.189733 0.515852,-3.918501 1.488033,-5.157373 0.973841,-1.267808 2.291581,-1.901711 3.8937,-1.901711 1.117678,0 2.033646,0.259389 2.777669,0.749144 0.715907,0.518669 1.402061,1.267805 2.061751,2.276202 0.343899,0.489732 0.686151,0.864385 0.972185,1.066095 0.257877,0.230475 0.601841,0.316762 1.003597,0.316762 0.629941,0 1.202003,-0.201524 1.631883,-0.604963 0.457988,-0.432177 0.68615,-0.922083 0.68615,-1.555823 0,-0.576344 -0.228132,-1.239043 -0.629933,-1.959247 -0.400124,-0.691441 -1.001949,-1.38305 -1.803829,-2.016948 -0.772131,-0.604966 -1.745964,-1.123635 -2.861994,-1.526895 -1.145787,-0.403435 -2.405658,-0.605152 -3.751506,-0.605152 -2.203945,0 -4.093754,0.460989 -5.667768,1.354118 -1.575666,0.922084 -2.777669,2.218666 -3.607657,3.860957 -0.829996,1.671069 -1.259872,3.601383 -1.259872,5.76234 0,3.198122 0.915965,5.762501 2.719801,7.66405 1.831937,1.901544 4.379784,2.852401 7.615442,2.852401 1.517794,0 2.919855,-0.201713 4.123509,-0.605151 1.202007,-0.432053 2.232057,-0.979457 3.033944,-1.642292 0.801887,-0.662672 1.403713,-1.382883 1.77572,-2.132023 z"
           fill="#383838"
           id="path1103-9"
           style="stroke-width:1.6308" />
        <path
           fill-rule="evenodd"
           clip-rule="evenodd"
           d="m 107.28988,87.403413 c -0.36707,-1.09189 -0.54891,-2.18378 -0.54891,-3.189528 0.0299,-1.063279 0.0299,-2.040264 0.0299,-2.902325 0.0314,-0.862073 0.0314,-1.953963 0.0314,-3.189528 0,-1.953959 -0.30588,-3.534418 -0.88621,-4.71261 -0.58034,-1.178196 -1.55748,-2.040264 -2.93143,-2.586206 -1.40372,-0.517168 -3.358003,-0.804536 -5.831454,-0.804536 -2.197331,0 -4.060687,0.287395 -5.555335,0.862068 -1.46654,0.545976 -2.534623,1.264335 -3.237305,2.126408 -0.671271,0.862072 -1.038316,1.752744 -1.038316,2.672348 0,0.545908 0.214904,1.005752 0.672919,1.379241 0.426553,0.373682 0.945732,0.545971 1.555827,0.545971 0.641507,0 1.069727,-0.114935 1.251606,-0.31593 0.214904,-0.258785 0.580342,-0.747152 1.099487,-1.494323 0.550598,-0.775756 1.19043,-1.350471 1.924528,-1.752737 0.732446,-0.373682 1.8617,-0.574719 3.326589,-0.574719 1.709589,0 2.870264,0.344768 3.420834,1.034355 0.54891,0.689623 0.85479,1.752907 0.94573,3.189686 v 0.0861 l -0.12234,0.02872 c -1.16067,0.344769 -2.289929,0.603466 -3.328252,0.833303 -1.0069,0.229833 -2.228746,0.488545 -3.66387,0.775929 -1.494656,0.28732 -2.319689,0.431052 -2.655319,0.517164 -1.709589,0.344769 -3.022374,1.03451 -3.999511,2.040102 -0.947387,1.00574 -1.435135,2.212706 -1.435135,3.649482 0,1.034358 0.305877,2.040102 0.886212,2.930936 0.578653,0.890846 1.403713,1.637836 2.471792,2.155178 1.069739,0.517164 2.3511,0.804529 3.786229,0.804529 1.557475,0 2.992607,-0.258595 4.244208,-0.74716 1.28137,-0.517164 2.594146,-1.264327 3.938336,-2.241313 l 0.12235,-0.0861 0.0909,0.114935 c 0.64152,0.976985 1.22185,1.695372 1.80218,2.212551 0.51917,0.488545 1.06808,0.747163 1.61701,0.747163 0.6415,0 1.25159,-0.229833 1.77075,-0.660858 0.51917,-0.431055 0.76387,-0.862065 0.76387,-1.379414 0,-0.315931 -0.18354,-1.00557 -0.51917,-2.068864 z m -5.77028,-5.74696 c 0,1.867646 -0.27446,3.247056 -0.79361,4.051589 -0.45799,0.747156 -1.190433,1.379248 -2.167577,1.839046 -0.947384,0.488606 -2.015463,0.718394 -3.144722,0.718394 -1.099487,0 -1.984047,-0.287395 -2.656969,-0.890838 -0.671271,-0.574719 -1.038316,-1.321709 -1.038316,-2.155011 0,-0.833462 0.305877,-1.465546 0.886205,-1.925352 0.580342,-0.459799 1.190426,-0.747156 1.800529,-0.919442 0.611773,-0.14366 1.711237,-0.373682 3.298473,-0.689786 1.587239,-0.315969 2.809087,-0.632085 3.602707,-0.919442 l 0.21328,-0.05749 z"
           fill="#383838"
           id="path1105-9"
           style="stroke-width:1.6308" />
        <path
           fill-rule="evenodd"
           clip-rule="evenodd"
           d="m 123.9987,70.854212 c -1.06974,-0.547412 -2.19734,-0.835619 -3.32659,-0.835619 -1.12926,0 -2.02043,0.288189 -2.70327,0.806683 -0.65308,0.547412 -1.33592,1.38305 -1.98901,2.449141 l -0.23807,0.403246 v -0.460986 c -0.0594,-1.066091 -0.26782,-1.872778 -0.65308,-2.420209 -0.38688,-0.518664 -1.01022,-0.777913 -1.87163,-0.777913 -1.72281,0 -2.55446,1.123634 -2.55446,3.486308 v 14.895903 c 0,1.037163 0.23807,1.815077 0.74237,2.333741 0.47617,0.518665 1.09949,0.77791 1.84186,0.77791 0.77212,0 1.42521,-0.259275 1.90138,-0.77791 0.50429,-0.489917 0.77212,-1.296578 0.77212,-2.333741 v -4.465927 c 0,-1.613529 0.0594,-2.996406 0.14718,-4.09127 0.11905,-1.123801 0.29764,-2.103417 0.59521,-2.938874 0.29594,-0.83562 0.71261,-1.469518 1.24665,-1.901711 0.92093,-0.720211 2.2585,-0.864219 4.15823,-0.259275 0.95069,0.288189 1.27806,0.345751 1.42521,0.345751 0.47617,0 0.98045,-0.201714 1.3971,-0.604963 0.44474,-0.403434 0.65308,-0.893155 0.65308,-1.527061 0,-0.864386 -0.50429,-1.555827 -1.54425,-2.103254 z"
           fill="#383838"
           id="path1107-1"
           style="stroke-width:1.6308" />
        <path
           fill-rule="evenodd"
           clip-rule="evenodd"
           d="m 146.97458,88.759247 c 0.81015,-0.931843 1.46985,-2.096644 1.94933,-3.465305 0.47948,-1.368665 0.71922,-2.911922 0.71922,-4.542648 0,-2.242307 -0.42,-4.193284 -1.22846,-5.82401 -0.83992,-1.601624 -1.97909,-2.853887 -3.38776,-3.698268 -1.40868,-0.844542 -2.96781,-1.281365 -4.64764,-1.281365 -1.40868,0 -2.66689,0.291137 -3.7763,0.873645 -1.10942,0.582342 -2.18908,1.514158 -3.20755,2.737327 l -0.26952,0.291137 v -1.01912 c 0,-0.961103 -0.23977,-1.689086 -0.68945,-2.184109 -0.47949,-0.465921 -1.07966,-0.727979 -1.82864,-0.727979 -0.78039,0 -1.37891,0.23297 -1.79887,0.727979 -0.44974,0.465925 -0.6597,1.223006 -0.6597,2.213212 v 23.35424 c 0,1.135699 0.15047,2.009344 0.47949,2.620762 0.3307,0.55341 0.95896,0.844543 1.97909,0.844543 1.70793,0 2.51809,-1.13571 2.51809,-3.43621 v -8.502973 l 0.26951,0.291137 c 0.95896,1.193903 1.97909,2.096644 3.02733,2.708232 1.07966,0.611399 2.39905,0.902573 3.95653,0.902573 1.28963,0 2.51974,-0.23297 3.6275,-0.75708 1.13917,-0.495043 2.12954,-1.193904 2.9678,-2.125743 z m -3.38611,-4.22239 c -0.48111,1.048241 -1.13918,1.863681 -1.91957,2.387804 -0.8085,0.553409 -1.70793,0.815444 -2.66854,0.815444 -1.58724,0 -2.93639,-0.611584 -3.98629,-1.834583 -1.07965,-1.222998 -1.61865,-2.941186 -1.61865,-5.125126 0,-2.300511 0.53897,-4.076893 1.61865,-5.270789 1.07965,-1.193903 2.42881,-1.805491 3.98629,-1.805491 0.99037,0 1.91956,0.262072 2.72806,0.84455 0.81016,0.553221 1.46986,1.368661 1.91957,2.416902 0.44974,1.019301 0.68946,2.271402 0.68946,3.727362 0,1.48523 -0.26952,2.766425 -0.74898,3.843927 z"
           fill="#383838"
           id="path1109-7"
           style="stroke-width:1.6308" />
        <path
           fill-rule="evenodd"
           clip-rule="evenodd"
           d="m 170.98428,87.633008 c 0.36869,-0.603337 0.54066,-1.14926 0.54066,-1.609062 0,-0.517353 -0.14215,-0.890838 -0.45637,-1.178199 -0.31252,-0.28732 -0.71095,-0.402244 -1.22349,-0.402244 -0.48442,0 -0.82504,0.0861 -1.08131,0.31612 -0.65473,0.63208 -1.19539,1.120652 -1.59551,1.465383 -0.42655,0.373682 -0.88124,0.718386 -1.36568,1.063279 -0.51254,0.31612 -1.0251,0.545975 -1.56575,0.718398 -0.54066,0.143659 -1.13917,0.229833 -1.76415,0.229833 -0.96888,0 -1.87988,-0.258596 -2.67681,-0.74716 -0.79693,-0.459613 -1.4219,-1.17803 -1.90634,-2.126408 -0.48442,-0.948204 -0.74071,-2.040094 -0.74071,-3.275659 V 81.97224 h 10.47578 c 1.33758,0 2.41888,-0.201033 3.1596,-0.603337 0.71094,-0.373682 1.05319,-1.206962 1.05319,-2.471301 0,-1.43678 -0.37035,-2.844794 -1.0813,-4.224034 -0.71261,-1.350478 -1.82202,-2.499904 -3.27368,-3.361973 -1.45167,-0.862072 -3.21747,-1.293104 -5.23789,-1.293104 -1.59386,0 -3.01741,0.258595 -4.29877,0.775925 -1.27972,0.488421 -2.36268,1.235573 -3.24393,2.183781 -0.8829,0.948211 -1.56574,2.097634 -2.02207,3.419505 -0.45467,1.321878 -0.68284,2.787261 -0.68284,4.33895 0,3.3046 0.93911,5.948182 2.78924,7.873534 1.85013,1.925189 4.49718,2.902167 7.82872,2.902167 1.47977,0 2.78924,-0.201222 3.89866,-0.603462 1.13918,-0.373493 2.07829,-0.862072 2.819,-1.436784 0.74071,-0.574718 1.28136,-1.206795 1.65172,-1.839046 z M 157.14885,79.04125 c 0.17197,-1.81028 0.7126,-3.218294 1.56574,-4.137898 0.8548,-0.948212 1.99232,-1.436621 3.32989,-1.436621 1.42356,0 2.59084,0.488421 3.44564,1.408018 0.85314,0.919438 1.36568,2.327455 1.50787,4.166501 v 0.14366 h -9.87725 z"
           fill="#383838"
           id="path1111-2"
           style="stroke-width:1.6308" />
        <path
           fill-rule="evenodd"
           clip-rule="evenodd"
           d="m 195.0847,78.33175 c 0,-1.152567 -0.0612,-2.132194 -0.15209,-2.881342 -0.12068,-0.748973 -0.36374,-1.440582 -0.72913,-2.074318 -0.54729,-1.094864 -1.42852,-1.959246 -2.55282,-2.564386 -1.15405,-0.576216 -2.46022,-0.893152 -3.91849,-0.893152 -1.51945,0 -2.85703,0.288189 -4.01108,0.86439 -1.15406,0.576215 -2.2486,1.469351 -3.22078,2.67945 l -0.24302,0.316951 v -1.037159 c 0,-0.605151 -0.12068,-1.123634 -0.334,-1.555823 -0.24302,-0.432182 -0.54729,-0.749148 -0.91101,-0.950858 -0.39513,-0.201713 -0.82007,-0.316951 -1.27641,-0.316951 -0.76055,0 -1.3971,0.230476 -1.82366,0.720382 -0.45468,0.460985 -0.66797,1.210099 -0.66797,2.189726 v 15.472104 c 0,1.008397 0.24303,1.786306 0.7589,2.333741 0.48611,0.518664 1.12429,0.77791 1.88485,0.77791 0.82007,0 1.45827,-0.259276 1.97412,-0.77791 0.48611,-0.489918 0.76055,-1.296578 0.76055,-2.333741 v -6.713359 c 0,-2.218496 0.12068,-3.687848 0.39519,-4.494697 0.3935,-1.037159 1.0317,-1.843839 1.88319,-2.420209 0.84983,-0.576216 1.79226,-0.864375 2.82561,-0.864375 1.61039,0 2.67351,0.489918 3.22078,1.469507 0.51585,0.950857 0.79031,2.333741 0.79031,4.091278 v 8.931855 c 0,1.008397 0.24302,1.786306 0.7589,2.333741 0.48611,0.518664 1.15405,0.77791 1.94436,0.77791 0.79032,0 1.39876,-0.259276 1.91461,-0.77791 0.48611,-0.518665 0.72914,-1.296578 0.72914,-2.333741 z"
           fill="#383838"
           id="path1113-3"
           style="stroke-width:1.6308" />
        <path
           fill-rule="evenodd"
           clip-rule="evenodd"
           d="m 212.37165,89.443685 c 0,-0.506415 -0.15047,-0.893646 -0.48442,-1.221346 -0.33234,-0.35743 -0.72583,-0.506419 -1.11933,-0.506419 -0.33234,0 -0.7556,0.05938 -1.29955,0.178734 -0.57541,0.119244 -1.02841,0.178733 -1.36074,0.178733 -0.66631,0 -1.11933,-0.178733 -1.4219,-0.506415 -0.27284,-0.29794 -0.45304,-0.715082 -0.51422,-1.191586 -0.0612,-0.476671 -0.12068,-1.161827 -0.12068,-2.02588 V 74.042039 h 1.21027 c 1.08792,0 1.93444,-0.148989 2.50982,-0.446925 0.54397,-0.268006 0.81676,-0.744684 0.81676,-1.429841 0,-0.536349 -0.21165,-0.983092 -0.60515,-1.310796 -0.39349,-0.35743 -0.96722,-0.536349 -1.72446,-0.536349 h -2.20725 v -3.902457 c 0,-0.92358 -0.0299,-1.638501 -0.15209,-2.144923 -0.0909,-0.47667 -0.30259,-0.863891 -0.66465,-1.221351 -0.54397,-0.47667 -1.17885,-0.744843 -1.84517,-0.744843 -0.48442,0 -0.93746,0.119245 -1.30121,0.327686 -0.39187,0.238261 -0.69442,0.536224 -0.90604,0.89365 -0.21166,0.327685 -0.334,0.744846 -0.3935,1.251269 -0.0299,0.506419 -0.0612,1.191591 -0.0612,2.0854 v 3.455557 h -0.75559 c -0.81676,0 -1.45166,0.178923 -1.87493,0.536349 -0.39349,0.327685 -0.60515,0.774444 -0.60515,1.310797 0,0.536224 0.18184,0.983097 0.60515,1.340557 0.3935,0.35743 0.96723,0.53616 1.75423,0.53616 h 0.87629 v 10.754369 c 0,1.698013 0.12072,3.068496 0.42324,4.081353 0.27285,0.983093 0.84818,1.787463 1.72447,2.323654 0.87794,0.565972 2.17749,0.863886 3.90197,0.863886 1.81375,0 3.23565,-0.238261 4.20452,-0.685156 0.93747,-0.476674 1.39049,-1.102307 1.39049,-1.936434 z"
           fill="#383838"
           id="path1115-6"
           style="stroke-width:1.6308" />
        <path
           fill-rule="evenodd"
           clip-rule="evenodd"
           d="m 228.16126,70.854076 c -1.06974,-0.547412 -2.19734,-0.835619 -3.32659,-0.835619 -1.12926,0 -2.02043,0.288188 -2.70327,0.806683 -0.65308,0.547412 -1.33592,1.38305 -1.98901,2.449141 l -0.23807,0.403246 -0.0299,-0.460986 c -0.0299,-1.066091 -0.23807,-1.872778 -0.62334,-2.420209 -0.38687,-0.518664 -1.01021,-0.777913 -1.87161,-0.777913 -1.72282,0 -2.55447,1.123634 -2.55447,3.486308 V 88.40063 c 0,1.037163 0.23807,1.815077 0.74236,2.333741 0.47618,0.518665 1.0995,0.77791 1.84187,0.77791 0.77212,0 1.4252,-0.259275 1.90138,-0.77791 0.50429,-0.489917 0.77212,-1.296578 0.77212,-2.333741 v -4.465927 c 0,-1.61353 0.0299,-2.996406 0.14717,-4.091271 0.11906,-1.1238 0.29764,-2.103416 0.59522,-2.938873 0.29593,-0.83562 0.7126,-1.469518 1.24664,-1.901711 0.92093,-0.720212 2.25851,-0.864219 4.15824,-0.259275 0.95069,0.288189 1.27805,0.345751 1.42521,0.345751 0.47617,0 0.98045,-0.201714 1.3971,-0.604963 0.44474,-0.403434 0.65308,-0.893155 0.65308,-1.527061 0,-0.864386 -0.50429,-1.555827 -1.54425,-2.103254 z"
           fill="#383838"
           id="path1117-5"
           style="stroke-width:1.6308" />
        <path
           fill-rule="evenodd"
           clip-rule="evenodd"
           d="m 240.59758,96.754709 c 0.57209,-0.902744 1.14248,-2.18411 1.74431,-3.785564 l 6.91772,-18.462239 c 0.17197,-0.495042 0.31411,-0.960941 0.42824,-1.397764 0.11573,-0.465921 0.20005,-0.815278 0.25795,-1.077335 0,-0.349493 -0.086,-0.728149 -0.28603,-1.077502 -0.20009,-0.349493 -0.45799,-0.611588 -0.80024,-0.815448 -0.3439,-0.203716 -0.71426,-0.320277 -1.11438,-0.320277 -0.51585,0 -0.94407,0.08731 -1.202,0.291137 -0.28603,0.174765 -0.5704,0.524288 -0.82834,1.077505 -0.25788,0.553221 -0.57209,1.368662 -0.91432,2.358701 l -4.37482,12.75462 -4.6311,-13.686462 c -0.28604,-0.931839 -0.62828,-1.630726 -1.00029,-2.096644 -0.37198,-0.465921 -0.88621,-0.698883 -1.63023,-0.698883 -0.42824,0 -0.82834,0.11656 -1.20035,0.349492 -0.40012,0.203717 -0.71426,0.524104 -0.91432,0.902578 -0.22983,0.378626 -0.3439,0.786346 -0.3439,1.223168 0,0.407558 0.20009,1.106434 0.60016,2.038284 l 6.54735,16.831506 -0.4861,1.252101 c -0.37198,0.873641 -0.71426,1.572529 -1.00029,2.038442 -0.28603,0.465925 -0.60015,0.815282 -0.97218,0.990044 -0.37202,0.20383 -0.88621,0.291137 -1.51615,0.291137 -0.25625,0 -0.54228,-0.02948 -0.88621,-0.11641 -0.28599,-0.08731 -0.54228,-0.11656 -0.82834,-0.11656 -0.68615,0 -1.20035,0.174765 -1.54425,0.465925 -0.34224,0.320428 -0.51423,0.757243 -0.51423,1.339559 0,0.873645 0.34228,1.455961 1.08628,1.776385 0.77212,0.320277 1.91625,0.495043 3.45885,0.495043 1.57236,0 2.83058,-0.23297 3.74489,-0.727979 0.91597,-0.495046 1.65833,-1.193903 2.20229,-2.096644 z"
           fill="#383838"
           id="path1119-5"
           style="stroke-width:1.6308" />
      </g>
    </g>
  </g>
</svg>
