<svg width="53" height="23" viewBox="0 0 53 23" fill="none" xmlns="http://www.w3.org/2000/svg">
<path fill-rule="evenodd" clip-rule="evenodd" d="M52.4759 10.4629C51.7129 9.65227 47.917 9.74653 46.8679 9.72768C41.1072 9.68997 30.3489 10.0105 24.9697 10.0105C24.7599 10.0105 24.016 10.3687 24.1304 10.6703C20.3154 10.6703 18.2935 10.6892 13.6773 10.6326C11.1785 10.6138 5.22709 10.9154 5.07449 6.56042C4.99819 4.37351 7.02014 2.45053 9.40452 0.112789C7.87852 -0.339677 6.35252 0.659518 4.80744 1.50789C4.06351 2.24315 3.54849 2.73332 2.91901 3.35546C0.591858 6.71124 -0.323743 10.1047 0.229433 13.4982C2.32769 13.1023 3.89184 15.9491 2.42306 17.2876L1.10688 17.3065C0.477408 17.3065 -0.0185427 17.9475 0.00053231 18.7016L0.0386824 21.718C0.0577574 22.491 0.572783 23 1.18318 23H7.82129C8.4317 22.9811 8.92765 22.359 8.90857 21.586L8.87042 18.5696C8.87042 17.8155 8.3554 17.1934 7.72592 17.2122H6.90569C5.43692 13.1589 10.1484 13.6868 12.819 13.7245C17.8166 13.7622 19.4952 13.7433 23.9015 13.7433C24.1495 14.045 24.0351 14.6105 24.7218 14.8933C25.1605 15.063 51.6557 15.0064 52.1326 14.8933C52.6095 14.7802 52.4759 14.554 52.6476 14.3843C52.8765 13.4794 53.3915 11.4621 52.4759 10.4629ZM7.78314 17.7778V20.9828C7.78314 20.9828 7.68777 18.8901 6.82939 18.7581C5.95194 18.6262 6.44789 17.7778 6.44789 17.7778H7.78314ZM52.1898 11.8957C52.1898 11.8957 51.4077 11.6318 50.7783 11.2359C49.4239 10.3687 25.3894 11.1416 25.3894 11.1416L26.0761 10.5761C26.0761 10.5761 50.5684 10.1613 51.4077 10.5761C52.247 10.9908 52.1898 11.8957 52.1898 11.8957Z" fill="#383838"/>
</svg>
