<?xml version="1.0" encoding="UTF-8" standalone="no"?>
<svg
   xmlns:dc="http://purl.org/dc/elements/1.1/"
   xmlns:cc="http://creativecommons.org/ns#"
   xmlns:rdf="http://www.w3.org/1999/02/22-rdf-syntax-ns#"
   xmlns:svg="http://www.w3.org/2000/svg"
   xmlns="http://www.w3.org/2000/svg"
   xmlns:sodipodi="http://sodipodi.sourceforge.net/DTD/sodipodi-0.dtd"
   xmlns:inkscape="http://www.inkscape.org/namespaces/inkscape"
   version="1.1"
   id="Layer_1_2_"
   width="177.26501"
   height="59.007732"
   inkscape:version="0.91 r13725"
   sodipodi:docname="dc.svg">
  <metadata
     id="metadata3608">
    <rdf:RDF>
      <cc:Work
         rdf:about="">
        <dc:format>image/svg+xml</dc:format>
        <dc:type
           rdf:resource="http://purl.org/dc/dcmitype/StillImage" />
        <dc:title></dc:title>
      </cc:Work>
    </rdf:RDF>
  </metadata>
  <defs
     id="defs3606" />
  <sodipodi:namedview
     pagecolor="#ffffff"
     bordercolor="#666666"
     borderopacity="1"
     objecttolerance="10"
     gridtolerance="10"
     guidetolerance="10"
     inkscape:pageopacity="0"
     inkscape:pageshadow="2"
     inkscape:window-width="1088"
     inkscape:window-height="692"
     id="namedview3604"
     showgrid="false"
     inkscape:zoom="1.2228904"
     inkscape:cx="53.730618"
     inkscape:cy="118.68094"
     inkscape:window-x="0"
     inkscape:window-y="0"
     inkscape:window-maximized="0"
     inkscape:current-layer="Layer_1_2_"
     fit-margin-top="0"
     fit-margin-left="0"
     fit-margin-right="0"
     fit-margin-bottom="0" />
  <path
     inkscape:connector-curvature="0"
     style="fill:#ffffff;stroke:none"
     d="m 377.18496,-71.886104 0,2 45,0 c 16.6071,0 33.5691,0.30551 49,7.312499 9.35004,4.2457 17.36004,10.6668 22.47504,19.687501 12.397,21.8653 4.995,51.7467998 -16.475,64.5471 -11.73124,6.9939 -24.67714,8.6249 -38.00004,9.5429 -20.5979,1.418 -41.3244,0.91 -62,0.91 l 0,47.000004 c 3.33725,-3.967 5.80744,-8.339 10.0008,-11.606 8.2497,-6.428 20.1709,-6.498 29.9992,-5.343 4.7185,0.554 19.3015,3.864 17.2485,10.953 -0.8017,2.768 -4.2276,6.772 -7.2524,7.035 -2.7517,0.238 -5.4904,-2.322 -7.9961,-3.189 -8.0047,-2.769 -23.6558,-3.279 -26.4128,7.154 -1.8285,6.919 3.1413,11.863 9.4128,13.315 9.0819,2.103 19.2695,0.393 25,-7.319 2.5834,2.638 9.0984,7.685 7.8079,11.96 -1.7806,5.898 -11.6335,8.206 -16.8079,9.116 -14.7799,2.601 -35.06049,-0.446 -40,-17.076 -1.98057,4.72 -1,10.92 -1,16 l 0,32 31,0 0,74 -31,0 0,162 485.00004,0 0,-236 89,0 c 14.402,0 29.704,-1.469 44,0.286 23.229,2.853 46.807,14.301 62.575,31.753 15.726,17.408 26.01,38.469 28.255,61.961 0.723,7.564 0.17,15.404 0.17,23 0,13.504 0.423,26.787 -2.895,40 -8.066,32.114 -31.7,58.372 -62.105,70.988 -10.518,4.365 -21.596,7.004 -33,7.012 3.699,1.552 8.017,1 12,1 l 20,0 74,0 0,-450.000004 -78,0 c 14.746,26.487099 34.719,50.8526 51.67,75.9999998 6.071,9.0075002 14.11,17.9675002 18.33,28.0000002 l -23,0 c -3.419,0 -7.788,0.668 -10.907,-1.028 -6.115,-3.3261 -7.365,-13.6847 -14.277,-15.6541 -5.282,-1.5047 -12.346,-0.3179 -17.816,-0.3179 -11.293,0 -22.704,-0.4819 -33.985,0.0193 -9.728,0.4322 -9.363,13.0897 -17.199,16.3777 -3.129,1.312 -7.496,0.603 -10.816,0.603 l -22,0 c 3.153,-8.1975 9.791,-15.6861 14.667,-23.0000002 10.665,-15.9976 21.04,-32.2397998 32.053,-47.9999998 7.161,-10.248501 16.837,-21.276901 21.28,-33 l -358,0 c 4.985,13.153199 16.243,25.497499 24.28,37 15.481,22.1552 30.605,44.5937998 45.72,67 l -24,0 c -3.359,0 -7.775,0.7 -10.816,-1.028 -7.209,-4.0961 -7.694,-15.5368 -17.188,-15.9527 -10.954,-0.4799 -22.031,-0.0193 -32.996,-0.0193 -5.585,0 -12.539,-1.1105 -17.96,0.3179 -7.241,1.9083 -8.377,12.0616 -14.366,15.6541 -2.937,1.763 -7.397,1.028 -10.674,1.028 l -23,0 c 4.568,-9.6555 11.751,-18.1422 17.667,-27.0000002 l 34,-51.0000008 c 5.767,-8.6466 12.272,-16.90872 17.333,-25.999999 l -257.00004,0 z"
     id="path3588" />
  <path
     inkscape:connector-curvature="0"
     style="fill:#231f20;stroke:none"
     d="m 0,0.00761578 0,18.50000022 7.75,0 0,-18.50000022 -7.75,0 m 15.25,0 0,23.50000022 7.75,0 0,-23.50000022 -7.75,0 m 15,0 0,28.50000022 7.75,0 0,-28.50000022 -7.75,0 m 15.25,0 0,33.75000022 7.75,0 0,-33.75000022 -7.75,0 m 15,0 0,38.75000022 7.75,0 0,-38.75000022 -7.75,0 m 15.25,0 0,43.75000022 7.75,0 0,-43.75000022 -7.75,0 m 15.25,0 0,48.75000422 7.75,0 0,-48.75000422 -7.75,0 m 15,0 0,53.75000422 7.75,0 0,-53.75000422 -7.75,0 m 15.25,0 0,59.00000422 22.75,0 c 7.48325,0 14.64825,0.0795 21.25,-4.0165 5.92275,-3.67475 10.22625,-9.880254 11.54875,-16.733504 0.56,-2.901 0.45125,-5.81 0.45125,-8.75 0,-3.015 0.14275,-6.027 -0.452,-9 C 175.29725,13.004866 170.30275,6.3398658 163.5,2.8221158 157.48325,-0.28913422 151.318,0.00761578 144.75,0.00761578 l -23.5,0 z"
     id="path3598" />
  <path
     inkscape:connector-curvature="0"
     style="fill:#ffffff;stroke:none"
     d="m 129,7.7576158 0,43.2500042 17.25,0 c 4.75575,0 9.147,0.227 13.5,-2.02725 4.562,-2.36225 8.00875,-6.703504 9.191,-11.722754 0.6255,-2.656 0.559,-5.29175 0.559,-8 0,-7.52075 -1.64,-14.469 -8.5,-18.7335 -4.72075,-2.9347502 -9.6605,-2.7665002 -15,-2.7665002 l -17,0 z"
     id="path3600" />
  <path
     inkscape:connector-curvature="0"
     style="fill:#231f20;stroke:none"
     d="m 136.5,15.257616 0,28.5 10.5,0 c 2.19,0 4.59025,0.27325 6.75,-0.11625 3.7395,-0.674 6.79175,-3.578 7.9775,-7.13375 0.408,-1.224 0.519,-2.46925 0.5225,-3.75 l -7.75,0 c -1.08575,4.51625 -6.67475,3.25 -10.25,3.25 l 0,-13 c 2.356,0 5.49425,-0.54525 7.75,0.16325 1.51175,0.47475 1.6535,2.1015 2.8545,2.686 0.66525,0.3235 1.6775,0.15075 2.3955,0.15075 l 5,0 c -0.0405,-4.8855 -3.1365,-9.344 -8,-10.525 -1.98675,-0.4825 -4.21775,-0.225 -6.25,-0.225 l -11.5,0 z"
     id="path3602" />
</svg>
