<?xml version="1.0" encoding="UTF-8" standalone="no"?>
<!-- Created with Inkscape (http://www.inkscape.org/) -->

<svg
   xmlns:dc="http://purl.org/dc/elements/1.1/"
   xmlns:cc="http://creativecommons.org/ns#"
   xmlns:rdf="http://www.w3.org/1999/02/22-rdf-syntax-ns#"
   xmlns:svg="http://www.w3.org/2000/svg"
   xmlns="http://www.w3.org/2000/svg"
   xmlns:sodipodi="http://sodipodi.sourceforge.net/DTD/sodipodi-0.dtd"
   xmlns:inkscape="http://www.inkscape.org/namespaces/inkscape"
   version="1.1"
   id="svg2"
   xml:space="preserve"
   width="1056"
   height="816"
   viewBox="0 0 1056 816"
   sodipodi:docname="lc-icon-black.svg"
   inkscape:version="0.92.1 r"><metadata
     id="metadata8"><rdf:RDF><cc:Work
         rdf:about=""><dc:format>image/svg+xml</dc:format><dc:type
           rdf:resource="http://purl.org/dc/dcmitype/StillImage" /><dc:title></dc:title></cc:Work></rdf:RDF></metadata><defs
     id="defs6"><clipPath
       clipPathUnits="userSpaceOnUse"
       id="clipPath18"><path
         d="M 0,612 H 792 V 0 H 0 Z"
         id="path16"
         inkscape:connector-curvature="0" /></clipPath></defs><sodipodi:namedview
     pagecolor="#ffffff"
     bordercolor="#666666"
     borderopacity="1"
     objecttolerance="10"
     gridtolerance="10"
     guidetolerance="10"
     inkscape:pageopacity="0"
     inkscape:pageshadow="2"
     inkscape:window-width="923"
     inkscape:window-height="480"
     id="namedview4"
     showgrid="false"
     inkscape:zoom="0.28921569"
     inkscape:cx="528"
     inkscape:cy="408"
     inkscape:window-x="0"
     inkscape:window-y="0"
     inkscape:window-maximized="0"
     inkscape:current-layer="g10" /><g
     id="g10"
     inkscape:groupmode="layer"
     inkscape:label="LibraryCarpentryLogo_Draft_04"
     transform="matrix(1.3333333,0,0,-1.3333333,0,816)"><g
       id="g12"><g
         id="g14"
         clip-path="url(#clipPath18)"><g
           id="g20"
           transform="translate(314.9707,239.4268)"><path
             d="M 0,0 C 8.395,0 13.455,3.795 18.055,7.935 V 21.506 C 6.095,21.391 -9.775,21.391 -9.775,9.431 -9.775,3.335 -6.441,0 0,0 m 18.055,29.786 v 5.405 c 0,5.175 -3.105,9.662 -12.651,9.662 -10.465,0 -16.791,-4.832 -17.94,-4.832 -1.61,0 -4.025,4.486 -4.025,5.751 0,2.991 10.12,7.36 21.621,7.36 14.26,0 22.656,-6.67 22.656,-18.055 V 9.315 c 0,-9.43 1.38,-13.916 1.38,-14.49 0,-2.185 -4.715,-2.646 -6.21,-2.646 -2.761,0 -3.335,4.831 -4.026,8.05 -4.37,-4.83 -10.695,-8.625 -19.321,-8.625 -11.155,0 -19.666,5.406 -19.666,17.251 0,19.436 20.586,20.701 38.182,20.931"
             style="fill:#7b7979;fill-opacity:1;fill-rule:nonzero;stroke:none"
             id="path22"
             inkscape:connector-curvature="0" /></g><g
           id="g24"
           transform="translate(362.2344,274.3887)"><path
             d="m 0,0 c 0,9.43 -1.381,13.915 -1.381,14.49 0,2.186 4.716,2.645 6.211,2.645 2.76,0 3.336,-4.6 4.025,-7.59 3.911,5.52 8.51,8.625 13.34,8.625 4.487,0 6.671,-1.955 6.671,-4.484 0,-2.186 -0.92,-6.211 -2.3,-6.211 C 25.071,7.475 24.15,8.74 20.24,8.74 14.261,8.74 9.66,1.725 9.66,1.725 v -42.092 c 0,-1.611 -1.38,-2.53 -4.599,-2.53 H 4.6 c -3.22,0 -4.6,0.919 -4.6,2.53 z"
             style="fill:#7b7979;fill-opacity:1;fill-rule:nonzero;stroke:none"
             id="path26"
             inkscape:connector-curvature="0" /></g><g
           id="g28"
           transform="translate(427.4404,239.541)"><path
             d="m 0,0 h 0.69 c 9.89,0.23 15.065,7.706 15.065,21.392 0,14.835 -5.06,23.231 -14.145,23.231 -5.06,0 -10.81,-2.761 -15.526,-7.935 V 5.176 C -9.776,1.726 -4.945,0 0,0 m -13.916,-29.211 c 0,-1.609 -1.38,-2.53 -4.601,-2.53 h -0.459 c -3.22,0 -4.6,0.921 -4.6,2.53 v 64.059 c 0,9.429 -1.38,13.915 -1.38,14.49 0,2.185 4.715,2.644 6.21,2.644 2.761,0 3.335,-4.599 4.025,-7.589 5.636,5.865 11.731,8.625 18.286,8.625 13.801,0 22.311,-12.88 22.311,-30.362 v -1.035 c 0,-19.32 -9.66,-30.131 -23.346,-30.131 -7.131,0 -11.961,2.415 -16.446,5.865 z"
             style="fill:#7b7979;fill-opacity:1;fill-rule:nonzero;stroke:none"
             id="path30"
             inkscape:connector-curvature="0" /></g><g
           id="g32"
           transform="translate(506.4453,266.1074)"><path
             d="M 0,0 C 0,12.076 -4.6,18.172 -13.801,18.172 -23.806,18.172 -29.096,12.076 -29.9,0 Z m -13.455,26.451 c 15.756,0 23.691,-10.465 23.691,-30.015 0,-1.381 -2.416,-4.715 -3.795,-4.715 H -29.9 c 0.92,-12.766 6.324,-18.517 17.711,-18.517 10.004,0 15.64,4.83 16.79,4.83 1.61,0 4.025,-4.485 4.025,-5.75 0,-2.761 -9.085,-7.36 -20.701,-7.36 -19.091,0 -28.177,9.775 -28.177,30.361 0,20.356 9.201,31.166 26.797,31.166"
             style="fill:#7b7979;fill-opacity:1;fill-rule:nonzero;stroke:none"
             id="path34"
             inkscape:connector-curvature="0" /></g><g
           id="g36"
           transform="translate(531.7422,274.3887)"><path
             d="m 0,0 c 0,9.43 -1.38,13.915 -1.38,14.49 0,2.186 4.716,2.645 6.21,2.645 2.761,0 3.336,-4.6 4.025,-7.59 4.831,5.405 11.501,8.625 17.942,8.625 11.73,0 18.746,-7.015 18.746,-18.631 v -39.906 c 0,-1.611 -1.381,-2.53 -4.601,-2.53 h -0.46 c -3.22,0 -4.6,0.919 -4.6,2.53 v 38.986 c 0,7.016 -4.255,11.156 -11.731,11.156 -5.174,0 -10.695,-3.105 -14.491,-8.05 v -42.092 c 0,-1.611 -1.379,-2.53 -4.599,-2.53 h -0.46 c -3.22,0 -4.601,0.919 -4.601,2.53 z"
             style="fill:#7b7979;fill-opacity:1;fill-rule:nonzero;stroke:none"
             id="path38"
             inkscape:connector-curvature="0" /></g><g
           id="g40"
           transform="translate(598.2119,283.5889)"><path
             d="M 0,0 H -5.751 C -7.36,0 -8.05,1.034 -8.05,3.45 v 1.38 c 0,2.415 0.69,3.45 2.299,3.45 L 0,8.28 1.38,20.356 c 0.115,1.61 1.266,2.53 3.68,2.53 h 1.15 c 2.416,0 3.45,-0.92 3.45,-2.53 V 8.28 h 9.661 c 1.61,0 2.3,-1.035 2.3,-3.45 V 3.45 C 21.621,1.034 20.931,0 19.321,0 H 9.66 v -35.767 c 0,-6.9 2.876,-8.51 6.21,-8.51 3.336,0 3.91,0.575 4.945,0.575 1.611,0 2.416,-4.486 2.416,-5.405 0,-3.106 -5.291,-3.451 -8.396,-3.451 C 9.085,-52.558 0,-50.027 0,-36.687 Z"
             style="fill:#7b7979;fill-opacity:1;fill-rule:nonzero;stroke:none"
             id="path42"
             inkscape:connector-curvature="0" /></g><g
           id="g44"
           transform="translate(635.5859,274.3887)"><path
             d="m 0,0 c 0,9.43 -1.38,13.915 -1.38,14.49 0,2.186 4.716,2.645 6.21,2.645 2.761,0 3.336,-4.6 4.025,-7.59 3.911,5.52 8.511,8.625 13.341,8.625 4.486,0 6.671,-1.955 6.671,-4.484 0,-2.186 -0.92,-6.211 -2.301,-6.211 -1.494,0 -2.415,1.265 -6.325,1.265 C 14.262,8.74 9.66,1.725 9.66,1.725 v -42.092 c 0,-1.611 -1.379,-2.53 -4.599,-2.53 h -0.46 c -3.22,0 -4.601,0.919 -4.601,2.53 z"
             style="fill:#7b7979;fill-opacity:1;fill-rule:nonzero;stroke:none"
             id="path46"
             inkscape:connector-curvature="0" /></g><g
           id="g48"
           transform="translate(669.7402,288.6484)"><path
             d="m 0,0 c -0.114,0.346 -0.344,1.035 -0.344,1.496 0,1.15 1.494,1.955 4.945,1.955 h 0.92 c 2.299,0 4.025,-0.461 4.6,-1.841 L 25.762,-39.906 41.057,1.61 c 0.461,1.38 2.3,1.841 4.716,1.841 3.45,0 4.946,-0.69 4.946,-1.955 0,-0.461 -0.115,-0.92 -0.346,-1.611 L 20.816,-78.434 c -0.689,-1.724 -2.644,-2.415 -5.404,-2.415 h -1.726 c -2.53,0 -3.795,0.691 -3.795,1.841 0,0.69 0.23,0.92 10.236,25.301 z"
             style="fill:#7b7979;fill-opacity:1;fill-rule:nonzero;stroke:none"
             id="path50"
             inkscape:connector-curvature="0" /></g><g
           id="g52"
           transform="translate(173.6738,440.5723)"><path
             d="m 0,0 c 0,1.609 1.381,2.529 4.602,2.529 h 0.459 c 3.22,0 4.6,-0.92 4.6,-2.529 v -55.548 c 0,-1.61 -1.38,-2.53 -4.6,-2.53 H 4.602 c -3.221,0 -4.602,0.92 -4.602,2.53 z m -0.459,19.32 v 6.785 c 0,1.611 1.38,2.531 4.6,2.531 h 1.38 c 3.22,0 4.6,-0.92 4.6,-2.531 V 19.32 c 0,-1.609 -1.38,-2.529 -4.6,-2.529 h -1.38 c -3.22,0 -4.6,0.92 -4.6,2.529"
             style="fill:#7b7979;fill-opacity:1;fill-rule:nonzero;stroke:none"
             id="path54"
             inkscape:connector-curvature="0" /></g><g
           id="g56"
           transform="translate(228.6465,390.4297)"><path
             d="m 0,0 c 9.084,0 14.145,8.395 14.145,23.23 0,13.686 -5.175,21.163 -15.066,21.392 h -0.69 c -4.946,0 -9.776,-1.726 -13.915,-5.175 V 7.936 C -10.811,2.76 -5.061,0 0,0 m -25.188,76.248 c 0,1.61 1.381,2.53 4.601,2.53 h 0.46 c 3.221,0 4.601,-0.92 4.601,-2.53 v -28.98 c 4.485,3.449 9.315,5.865 16.446,5.865 13.685,0 23.346,-10.811 23.346,-30.132 v -1.035 c 0,-17.482 -8.511,-30.362 -22.311,-30.362 -6.557,0 -12.651,2.761 -18.287,8.626 -0.805,-4.025 -1.84,-6.786 -1.84,-6.786 -0.46,-1.034 -1.494,-1.38 -3.105,-1.38 h -0.459 c -2.416,0 -3.452,0.92 -3.452,2.531 z"
             style="fill:#7b7979;fill-opacity:1;fill-rule:nonzero;stroke:none"
             id="path58"
             inkscape:connector-curvature="0" /></g><g
           id="g60"
           transform="translate(269.4678,425.3906)"><path
             d="m 0,0 c 0,9.432 -1.38,13.916 -1.38,14.491 0,2.185 4.715,2.646 6.21,2.646 2.761,0 3.335,-4.601 4.025,-7.591 3.911,5.52 8.511,8.626 13.341,8.626 4.485,0 6.67,-1.955 6.67,-4.486 0,-2.185 -0.92,-6.209 -2.3,-6.209 -1.495,0 -2.415,1.263 -6.325,1.263 C 14.261,8.74 9.66,1.726 9.66,1.726 v -42.092 c 0,-1.611 -1.38,-2.53 -4.6,-2.53 H 4.601 C 1.38,-42.896 0,-41.977 0,-40.366 Z"
             style="fill:#7b7979;fill-opacity:1;fill-rule:nonzero;stroke:none"
             id="path62"
             inkscape:connector-curvature="0" /></g><g
           id="g64"
           transform="translate(326.9688,390.4297)"><path
             d="m 0,0 c 8.395,0 13.455,3.795 18.055,7.936 v 13.57 C 6.095,21.391 -9.775,21.391 -9.775,9.43 -9.775,3.335 -6.441,0 0,0 m 18.055,29.786 v 5.405 c 0,5.176 -3.105,9.661 -12.651,9.661 -10.465,0 -16.791,-4.831 -17.94,-4.831 -1.61,0 -4.025,4.486 -4.025,5.75 0,2.991 10.12,7.362 21.621,7.362 14.26,0 22.656,-6.671 22.656,-18.057 V 9.315 c 0,-9.43 1.38,-13.916 1.38,-14.491 0,-2.184 -4.715,-2.644 -6.21,-2.644 -2.761,0 -3.335,4.83 -4.026,8.05 -4.37,-4.831 -10.695,-8.626 -19.321,-8.626 -11.155,0 -19.666,5.406 -19.666,17.251 0,19.436 20.586,20.702 38.182,20.931"
             style="fill:#7b7979;fill-opacity:1;fill-rule:nonzero;stroke:none"
             id="path66"
             inkscape:connector-curvature="0" /></g><g
           id="g68"
           transform="translate(374.2324,425.3906)"><path
             d="m 0,0 c 0,9.432 -1.381,13.916 -1.381,14.491 0,2.185 4.716,2.646 6.211,2.646 2.76,0 3.336,-4.601 4.025,-7.591 3.911,5.52 8.51,8.626 13.34,8.626 4.487,0 6.671,-1.955 6.671,-4.486 0,-2.185 -0.92,-6.209 -2.3,-6.209 C 25.071,7.477 24.15,8.74 20.24,8.74 14.261,8.74 9.66,1.726 9.66,1.726 v -42.092 c 0,-1.611 -1.38,-2.53 -4.599,-2.53 H 4.6 c -3.22,0 -4.6,0.919 -4.6,2.53 z"
             style="fill:#7b7979;fill-opacity:1;fill-rule:nonzero;stroke:none"
             id="path70"
             inkscape:connector-curvature="0" /></g><g
           id="g72"
           transform="translate(408.3867,439.6523)"><path
             d="m 0,0 c -0.115,0.345 -0.345,1.035 -0.345,1.494 0,1.151 1.495,1.955 4.945,1.955 h 0.921 c 2.299,0 4.024,-0.459 4.6,-1.84 L 25.762,-39.907 41.057,1.609 c 0.461,1.381 2.3,1.84 4.715,1.84 3.451,0 4.945,-0.689 4.945,-1.955 0,-0.459 -0.114,-0.92 -0.344,-1.609 L 20.816,-78.434 c -0.69,-1.725 -2.645,-2.416 -5.406,-2.416 h -1.724 c -2.53,0 -3.795,0.691 -3.795,1.84 0,0.691 0.23,0.92 10.235,25.302 z"
             style="fill:#7b7979;fill-opacity:1;fill-rule:nonzero;stroke:none"
             id="path74"
             inkscape:connector-curvature="0" /></g><g
           id="g76"
           transform="translate(268.1396,298.084)"><path
             d="m 0,0 h -46.771 v -23.824 l 20.206,0.731 c 0,0 18.242,-2.564 26.565,23.093"
             style="fill:#7b7979;fill-opacity:1;fill-rule:nonzero;stroke:none"
             id="path78"
             inkscape:connector-curvature="0" /></g><g
           id="g80"
           transform="translate(186.2686,298.084)"><path
             d="m 0,0 h -42.728 v -25.971 c 9.594,-3.48 13.341,-10.605 25.592,-10.605 9.515,0 13.448,2.511 17.136,5.279 z"
             style="fill:#7b7979;fill-opacity:1;fill-rule:nonzero;stroke:none"
             id="path82"
             inkscape:connector-curvature="0" /></g><g
           id="g84"
           transform="translate(209.8252,213.8242)"><path
             d="m 0,0 c 0,-4.353 -2.758,-7.882 -6.156,-7.882 -3.4,0 -6.157,3.529 -6.157,7.882 v 88.789 c 0,4.357 2.757,7.885 6.157,7.885 3.398,0 6.156,-3.528 6.156,-7.885 z m 97.275,115.246 h -2.406 v 5.904 c 0.123,0.248 0.2,0.528 0.2,0.827 v 24.638 c 0,1 -0.78,1.811 -1.744,1.811 H 20.678 c -0.499,0.054 -0.99,-0.082 -1.342,-0.432 l -39.469,-39.023 c -0.385,-0.381 -0.516,-0.926 -0.424,-1.473 V -14.907 c 0,-0.786 0.368,-1.451 0.879,-1.705 l 37.85,-37.372 c 0.118,-0.117 0.256,-0.2 0.402,-0.267 0.25,-0.142 0.533,-0.23 0.84,-0.23 h 54.664 v -1.984 c 0,-1.01 0.798,-1.828 1.783,-1.828 h 16.87 c 0.986,0 1.784,0.818 1.784,1.828 v 32.827 c 0,1.011 -0.798,1.828 -1.784,1.828 h -16.87 c -0.985,0 -1.783,-0.817 -1.783,-1.828 v -2.586 H 30.566 L 8.307,-4.243 V 97.994 l 22.425,22.172 h 35.677 v -4.92 h -2.608 c -1.039,0 -1.881,-0.779 -1.881,-1.744 v -5.291 c 0,-0.965 0.842,-1.744 1.881,-1.744 h 33.474 c 1.038,0 1.883,0.779 1.883,1.744 v 5.291 c 0,0.965 -0.845,1.744 -1.883,1.744"
             style="fill:#7b7979;fill-opacity:1;fill-rule:nonzero;stroke:none"
             id="path86"
             inkscape:connector-curvature="0" /></g><g
           id="g88"
           transform="translate(130.4912,285.0215)"><path
             d="m 0,0 c 0,-3.017 -2.265,-5.463 -5.058,-5.463 -2.793,0 -5.056,2.446 -5.056,5.463 0,3.016 2.263,5.461 5.056,5.461 C -2.265,5.461 0,3.016 0,0 m 10.128,209.072 v 8.47 H -20.243 V -25.936 h 30.371 v 64.17 H 2.394 v 5.678 h 7.734 V 61.827 H -2.553 v 5.679 H 10.128 V 85.421 H 2.394 v 5.681 h 7.734 v 17.914 H -2.553 v 5.679 h 12.681 v 17.914 H 2.394 v 5.68 h 7.734 v 17.914 H -2.553 v 5.68 h 12.681 v 17.914 H 2.394 v 5.681 h 7.734 v 17.916 H -2.553 v 5.678 z"
             style="fill:#7b7979;fill-opacity:1;fill-rule:nonzero;stroke:none"
             id="path90"
             inkscape:connector-curvature="0" /></g><g
           id="g92"
           transform="translate(107.7373,298.084)"><path
             d="m 0,0 h -36.196 c 9.542,-26.602 27.375,-23.093 27.375,-23.093 L 0,-23.428 Z"
             style="fill:#7b7979;fill-opacity:1;fill-rule:nonzero;stroke:none"
             id="path94"
             inkscape:connector-curvature="0" /></g><g
           id="g96"
           transform="translate(331.3496,127.376)"><path
             d="m 0,0 h -16.679 c -0.957,0 -1.731,-0.771 -1.731,-1.726 V -2.75 h -11.653 v 5.289 c 0,1.065 -0.859,1.927 -1.918,1.927 h -1.387 v 20.79 h -8.378 V 4.466 h -1.386 c -1.06,0 -1.918,-0.862 -1.918,-1.927 V -2.75 h -37.023 l 0.01,0.706 c 0,0.69 -0.654,2.1 -1.276,2.1 h -0.994 v 0.019 l -6.413,-0.001 v -13.827 l 3.643,10e-4 c 0.114,-0.043 0.231,-0.08 0.358,-0.08 h 3.406 c 0.622,0 1.123,0.56 1.123,1.25 l 0.035,2.363 h 37.131 v -5.794 c 0,-1.064 0.858,-1.926 1.918,-1.926 h 11.151 c 1.059,0 1.918,0.862 1.918,1.926 v 5.794 h 11.653 v -1.529 c 0,-0.954 0.774,-1.726 1.731,-1.726 H 0 c 0.956,0 1.731,0.772 1.731,1.726 V -1.726 C 1.731,-0.771 0.956,0 0,0"
             style="fill:#7b7979;fill-opacity:1;fill-rule:nonzero;stroke:none"
             id="path98"
             inkscape:connector-curvature="0" /></g><g
           id="g100"
           transform="translate(285.8154,217.1611)"><path
             d="m 0,0 h 3.998 v -21.466 h 8.919 V 0 h 3.999 c 1.023,0 1.855,0.781 1.855,1.745 v 5.292 c 0,0.088 -0.014,0.174 -0.027,0.258 V 9.589 H -1.828 V 7.295 C -1.842,7.211 -1.855,7.125 -1.855,7.037 V 1.745 C -1.855,0.781 -1.025,0 0,0"
             style="fill:#7b7979;fill-opacity:1;fill-rule:nonzero;stroke:none"
             id="path102"
             inkscape:connector-curvature="0" /></g></g></g></g></svg>