<?xml version="1.0" encoding="UTF-8"?>
<svg xmlns="http://www.w3.org/2000/svg" xmlns:ooo="http://xml.openoffice.org/svg/export" xmlns:xlink="http://www.w3.org/1999/xlink" version="1.2" baseProfile="tiny" width="30.48mm" height="23.11mm" viewBox="0 0 3048 2311" preserveAspectRatio="xMidYMid" fill-rule="evenodd" stroke-width="28.222" stroke-linejoin="round" xml:space="preserve">
 <defs class="ClipPathGroup">
  <clipPath id="presentation_clip_path" clipPathUnits="userSpaceOnUse">
   <rect x="0" y="0" width="3048" height="2311"/>
  </clipPath>
 </defs>
 <defs class="TextShapeIndex">
  <g ooo:slide="id1" ooo:id-list="id3 id4 id5"/>
 </defs>
 <defs class="EmbeddedBulletChars">
  <g id="bullet-char-template(57356)" transform="scale(0.00048828125,-0.00048828125)">
   <path d="M 580,1141 L 1163,571 580,0 -4,571 580,1141 Z"/>
  </g>
  <g id="bullet-char-template(57354)" transform="scale(0.00048828125,-0.00048828125)">
   <path d="M 8,1128 L 1137,1128 1137,0 8,0 8,1128 Z"/>
  </g>
  <g id="bullet-char-template(10146)" transform="scale(0.00048828125,-0.00048828125)">
   <path d="M 174,0 L 602,739 174,1481 1456,739 174,0 Z M 1358,739 L 309,1346 659,739 1358,739 Z"/>
  </g>
  <g id="bullet-char-template(10132)" transform="scale(0.00048828125,-0.00048828125)">
   <path d="M 2015,739 L 1276,0 717,0 1260,543 174,543 174,936 1260,936 717,1481 1274,1481 2015,739 Z"/>
  </g>
  <g id="bullet-char-template(10007)" transform="scale(0.00048828125,-0.00048828125)">
   <path d="M 0,-2 C -7,14 -16,27 -25,37 L 356,567 C 262,823 215,952 215,954 215,979 228,992 255,992 264,992 276,990 289,987 310,991 331,999 354,1012 L 381,999 492,748 772,1049 836,1024 860,1049 C 881,1039 901,1025 922,1006 886,937 835,863 770,784 769,783 710,716 594,584 L 774,223 C 774,196 753,168 711,139 L 727,119 C 717,90 699,76 672,76 641,76 570,178 457,381 L 164,-76 C 142,-110 111,-127 72,-127 30,-127 9,-110 8,-76 1,-67 -2,-52 -2,-32 -2,-23 -1,-13 0,-2 Z"/>
  </g>
  <g id="bullet-char-template(10004)" transform="scale(0.00048828125,-0.00048828125)">
   <path d="M 285,-33 C 182,-33 111,30 74,156 52,228 41,333 41,471 41,549 55,616 82,672 116,743 169,778 240,778 293,778 328,747 346,684 L 369,508 C 377,444 397,411 428,410 L 1163,1116 C 1174,1127 1196,1133 1229,1133 1271,1133 1292,1118 1292,1087 L 1292,965 C 1292,929 1282,901 1262,881 L 442,47 C 390,-6 338,-33 285,-33 Z"/>
  </g>
  <g id="bullet-char-template(9679)" transform="scale(0.00048828125,-0.00048828125)">
   <path d="M 813,0 C 632,0 489,54 383,161 276,268 223,411 223,592 223,773 276,916 383,1023 489,1130 632,1184 813,1184 992,1184 1136,1130 1245,1023 1353,916 1407,772 1407,592 1407,412 1353,268 1245,161 1136,54 992,0 813,0 Z"/>
  </g>
  <g id="bullet-char-template(8226)" transform="scale(0.00048828125,-0.00048828125)">
   <path d="M 346,457 C 273,457 209,483 155,535 101,586 74,649 74,723 74,796 101,859 155,911 209,963 273,989 346,989 419,989 480,963 531,910 582,859 608,796 608,723 608,648 583,586 532,535 482,483 420,457 346,457 Z"/>
  </g>
  <g id="bullet-char-template(8211)" transform="scale(0.00048828125,-0.00048828125)">
   <path d="M -4,459 L 1135,459 1135,606 -4,606 -4,459 Z"/>
  </g>
 </defs>
 <defs class="TextEmbeddedBitmaps"/>
 <g>
  <g id="id2" class="Master_Slide">
   <g id="bg-id2" class="Background"/>
   <g id="bo-id2" class="BackgroundObjects"/>
  </g>
 </g>
 <g class="SlideGroup">
  <g>
   <g id="id1" class="Slide" clip-path="url(#presentation_clip_path)">
    <g class="Page">
     <g class="com.sun.star.drawing.ClosedBezierShape">
      <g id="id3">
       <path fill="rgb(43,57,144)" stroke="none" d="M 2920,575 C 2880,532 2681,537 2626,536 2324,534 1760,551 1477,551 1466,551 1427,570 1433,586 1233,586 1127,587 885,584 754,583 442,599 434,368 430,252 536,150 661,26 581,2 501,55 420,100 381,139 354,165 321,198 199,376 151,556 180,737 290,716 372,867 295,938 L 226,939 C 193,939 167,973 168,1013 L 170,1173 C 171,1214 198,1241 230,1241 L 578,1241 C 610,1240 636,1207 635,1166 L 633,1006 C 633,966 606,933 573,934 L 530,934 C 453,719 700,747 840,749 1102,751 1190,750 1421,750 1434,766 1428,796 1464,811 1487,820 2877,817 2902,811 2927,805 2920,793 2929,784 2941,736 2968,628 2920,575 Z M 576,964 L 576,1134 C 576,1134 571,1023 526,1016 480,1009 506,964 506,964 L 576,964 Z M 2905,651 C 2905,651 2864,637 2831,616 2760,570 1499,611 1499,611 L 1535,581 C 1535,581 2820,559 2864,581 2908,603 2905,651 2905,651 Z"/>
      </g>
     </g>
     <g class="com.sun.star.drawing.ClosedBezierShape">
      <g id="id4">
       <path fill="rgb(43,57,144)" stroke="none" d="M 293,1357 C 293,1357 284,1385 293,1394 301,1403 344,1406 344,1406 L 344,1941 429,2002 502,1934 502,1411 524,1406 C 558,1415 566,1385 566,1385 L 566,1357 293,1357 Z M 472,1928 L 448,1938 448,1414 472,1406 472,1928 Z M 536,1383 C 511,1385 348,1366 348,1366 L 536,1366 C 536,1366 562,1382 536,1383 Z"/>
      </g>
     </g>
     <g class="com.sun.star.drawing.ClosedBezierShape">
      <g id="id5">
       <path fill="rgb(43,57,144)" stroke="none" d="M 693,1589 L 691,1588 C 677,1574 658,1566 638,1566 595,1566 561,1601 561,1643 561,1663 568,1682 583,1697 L 584,1698 C 586,1701 589,1703 592,1705 645,1752 676,1820 676,1890 676,2028 565,2138 427,2138 291,2138 180,2028 180,1890 180,1821 209,1754 261,1708 283,1693 295,1669 295,1643 295,1601 261,1566 218,1566 198,1566 179,1574 164,1588 L 163,1590 162,1589 C 75,1665 26,1775 26,1890 26,2112 206,2292 427,2292 649,2292 829,2112 829,1890 829,1775 780,1665 693,1589 Z"/>
      </g>
     </g>
    </g>
   </g>
  </g>
 </g>
</svg>
