<?xml version="1.0" encoding="utf-8"?>
<!-- Generator: Adobe Illustrator 15.0.0, SVG Export Plug-In . SVG Version: 6.00 Build 0)  -->
<!DOCTYPE svg PUBLIC "-//W3C//DTD SVG 1.1//EN" "http://www.w3.org/Graphics/SVG/1.1/DTD/svg11.dtd">
<svg version="1.1" id="Layer_1" xmlns="http://www.w3.org/2000/svg" xmlns:xlink="http://www.w3.org/1999/xlink" x="0px" y="0px"
	 width="792px" height="300px" viewBox="0 0 792 300" enable-background="new 0 0 792 300" xml:space="preserve">
<path fill="#ACCC9B" stroke="#020202" stroke-width="2" stroke-miterlimit="10" d="M270.26,71.927
	c0,7.136-5.573,12.923-12.449,12.923H93.898c-6.875,0-12.449-5.787-12.449-12.923V21.314c0-7.136,5.573-12.922,12.449-12.922
	h163.914c6.875,0,12.449,5.786,12.449,12.922V71.927z"/>
<path fill="#FCF6B8" stroke="#020202" stroke-width="2" stroke-miterlimit="10" d="M482.539,71.927
	c0,7.136-5.574,12.923-12.448,12.923H306.177c-6.875,0-12.449-5.787-12.449-12.923V21.314c0-7.136,5.573-12.922,12.449-12.922
	h163.914c6.874,0,12.448,5.786,12.448,12.922V71.927L482.539,71.927z"/>
<path fill="#9DCDC9" stroke="#020202" stroke-width="2" stroke-miterlimit="10" d="M694.553,71.927
	c0,7.136-5.573,12.923-12.448,12.923H518.191c-6.877,0-12.45-5.787-12.45-12.923V21.314c0-7.136,5.573-12.922,12.45-12.922h163.913
	c6.875,0,12.448,5.786,12.448,12.922V71.927z"/>
<rect x="91.583" y="84.85" fill="#E7E7E7" stroke="#020202" stroke-width="2" stroke-miterlimit="10" width="168.543" height="206.758"/>
<rect x="303.729" y="84.85" fill="#E7E7E7" stroke="#020202" stroke-width="2" stroke-miterlimit="10" width="168.544" height="206.758"/>
<rect x="515.876" y="84.85" fill="#E7E7E7" stroke="#020202" stroke-width="2" stroke-miterlimit="10" width="168.543" height="206.758"/>
<text transform="matrix(0.9906 0 0 1 130.5522 38.5425)" fill="#020202" font-family="'MyriadPro-Regular'" font-size="25.8449">Working</text>
<text transform="matrix(0.9906 0 0 1 126.5205 69.5566)" fill="#020202" font-family="'MyriadPro-Regular'" font-size="25.8449">Directory</text>
<text transform="matrix(0.9906 0 0 1 360.7812 38.5425)" fill="#020202" font-family="'MyriadPro-Regular'" font-size="25.8449">Stage</text>
<text transform="matrix(0.9906 0 0 1 354.0723 69.5566)" fill="#020202" font-family="'MyriadPro-Regular'" font-size="25.8449">(Index)</text>
<text transform="matrix(0.9906 0 0 1 133.0371 163.459)" fill="#020202" font-family="'MyriadPro-It'" font-size="22.6143">files that</text>
<text transform="matrix(0.9906 0 0 1 109.7407 190.5977)" fill="#020202" font-family="'MyriadPro-It'" font-size="22.6143">that you “see”</text>
<text transform="matrix(0.9906 0 0 1 346.3833 156.998)" fill="#020202" font-family="'MyriadPro-It'" font-size="22.6143">files to go</text>
<text transform="matrix(0.9906 0 0 1 356.8101 184.1367)" fill="#020202" font-family="'MyriadPro-It'" font-size="22.6143">in next </text>
<text transform="matrix(0.9906 0 0 1 354.1782 211.2734)" fill="#020202" font-family="'MyriadPro-It'" font-size="22.6143">commit</text>
<text transform="matrix(0.9906 0 0 1 542.0947 156.998)" fill="#020202" font-family="'MyriadPro-It'" font-size="22.6143">files that have</text>
<text transform="matrix(0.9906 0 0 1 580.3652 184.1367)" fill="#020202" font-family="'MyriadPro-It'" font-size="22.6143">been </text>
<text transform="matrix(0.9906 0 0 1 555.1973 211.2734)" fill="#020202" font-family="'MyriadPro-It'" font-size="22.6143">committed</text>
<text transform="matrix(0.9906 0 0 1 578.7686 38.5425)" enable-background="new    "><tspan x="0" y="0" fill="#020202" font-family="'MyriadPro-Regular'" font-size="25.8449">Local</tspan><tspan x="-29.437" y="31.014" fill="#020202" font-family="'MyriadPro-Regular'" font-size="25.8449">Repository</tspan></text>
</svg>
