<svg xmlns:dc="http://purl.org/dc/elements/1.1/" xmlns:cc="http://creativecommons.org/ns#" xmlns:rdf="http://www.w3.org/1999/02/22-rdf-syntax-ns#"  xmlns="http://www.w3.org/2000/svg" version="1.1" id="svg4694" viewBox="0 0 196.25 114.148" height="32.21500015258789mm" width="55.38610076904297mm" xmlns:xlink="http://www.w3.org/1999/xlink"><rect id="svgEditorBackground" x="0" y="0" width="196.25" height="114.14800262451172" style="fill:none;stroke:none;"/>
  <defs id="defs4696"/>
  <metadata id="metadata4699">
    <rdf:RDF>
      <cc:Work rdf:about="">
        <dc:format>image/svg+xml</dc:format>
        <dc:type rdf:resource="http://purl.org/dc/dcmitype/StillImage"/>
        <dc:title/>
      </cc:Work>
    </rdf:RDF>
  </metadata>
  <g transform="translate(-73.303557,-889.57408)" id="layer1">
    <path id="rect4188-1" transform="translate(0,857.48031)" d="m 169.4668,62.294922 0,26 -20,0 -28.33789,0 -26.000004,0 -1.326172,0 c -1.294138,0 -2.335937,1.041799 -2.335937,2.335937 l 0,1.328125 0,25.999996 c 0,1.29414 1.041799,2.33594 2.335937,2.33594 l 1.326172,0 c 1.294139,0 2.337891,-1.0418 2.337891,-2.33594 l 0,-23.664058 23.662113,0 22.33789,0 0,25.999998 6,0 0,-25.999998 20,0 6,0 20,0 0,25.999998 6,0 0,-25.999998 26,0 20,0 0,23.664058 c 0,1.29414 1.0418,2.33594 2.33593,2.33594 l 1.32618,0 c 1.29413,0 2.33789,-1.0418 2.33789,-2.33594 l 0,-25.999996 0,-1.328125 c 0,-1.294138 -1.04376,-2.335937 -2.33789,-2.335937 l -23.66211,0 -26,0 -26,0 0,-26 -6,0 z" style="fill:#337ab7;fill-opacity:1"/>
    <g transform="translate(148.46582,881.57408)" id="g4148">
      <path style="fill:#ffa000" d="M 40,12 22,12 18,8 8,8 C 5.8,8 4,9.8 4,12 l 0,8 40,0 0,-4 c 0,-2.2 -1.8,-4 -4,-4 z" id="path4138"/>
      <path style="fill:#ffca28" d="M 40,12 8,12 c -2.2,0 -4,1.8 -4,4 l 0,20 c 0,2.2 1.8,4 4,4 l 32,0 c 2.2,0 4,-1.8 4,-4 l 0,-20 c 0,-2.2 -1.8,-4 -4,-4 z" id="path4140"/>
    </g>
    <g transform="translate(173.47025,963.72175)" id="g4148-4-1">
      <path style="fill:#ffa000" d="M 40,12 22,12 18,8 8,8 C 5.8,8 4,9.8 4,12 l 0,8 40,0 0,-4 c 0,-2.2 -1.8,-4 -4,-4 z" id="path4138-2-8"/>
      <path style="fill:#ffca28" d="M 40,12 8,12 c -2.2,0 -4,1.8 -4,4 l 0,20 c 0,2.2 1.8,4 4,4 l 32,0 c 2.2,0 4,-1.8 4,-4 l 0,-20 c 0,-2.2 -1.8,-4 -4,-4 z" id="path4140-6-7"/>
    </g>
    <g transform="translate(121.3869,963.72175)" id="g4148-4-0">
      <path style="fill:#ffa000" d="M 40,12 22,12 18,8 8,8 C 5.8,8 4,9.8 4,12 l 0,8 40,0 0,-4 c 0,-2.2 -1.8,-4 -4,-4 z" id="path4138-2-0"/>
      <path style="fill:#ffca28" d="M 40,12 8,12 c -2.2,0 -4,1.8 -4,4 l 0,20 c 0,2.2 1.8,4 4,4 l 32,0 c 2.2,0 4,-1.8 4,-4 l 0,-20 c 0,-2.2 -1.8,-4 -4,-4 z" id="path4140-6-8"/>
    </g>
    <text id="text4525" y="993.37195" x="180.43045" style="font-style:normal;font-variant:normal;font-weight:normal;font-stretch:semi-condensed;font-size:25px;line-height:125%;font-family:'Lucida Console';-inkscape-font-specification:'Lucida Console, Semi-Condensed';text-align:start;letter-spacing:0px;word-spacing:0px;writing-mode:lr-tb;text-anchor:start;fill:#000000;fill-opacity:1;stroke:none;stroke-width:1px;stroke-linecap:butt;stroke-linejoin:miter;stroke-opacity:1" xml:space="preserve"><tspan style="font-style:normal;font-variant:normal;font-weight:normal;font-stretch:normal;font-size:11.25px;font-family:'OCR A Extended';-inkscape-font-specification:'OCR A Extended'" y="993.37195" x="180.43045" id="tspan4527">Users</tspan></text>
    <g transform="translate(69.303557,963.72175)" id="g4148-4-1-6">
      <path style="fill:#ffa000" d="M 40,12 22,12 18,8 8,8 C 5.8,8 4,9.8 4,12 l 0,8 40,0 0,-4 c 0,-2.2 -1.8,-4 -4,-4 z" id="path4138-2-8-2"/>
      <path style="fill:#ffca28" d="M 40,12 8,12 c -2.2,0 -4,1.8 -4,4 l 0,20 c 0,2.2 1.8,4 4,4 l 32,0 c 2.2,0 4,-1.8 4,-4 l 0,-20 c 0,-2.2 -1.8,-4 -4,-4 z" id="path4140-6-7-6"/>
    </g>
    <g transform="translate(225.55359,963.72175)" id="g4148-4-1-3">
      <path style="fill:#ffa000" d="M 40,12 22,12 18,8 8,8 C 5.8,8 4,9.8 4,12 l 0,8 40,0 0,-4 c 0,-2.2 -1.8,-4 -4,-4 z" id="path4138-2-8-3"/>
      <path style="fill:#ffca28" d="M 40,12 8,12 c -2.2,0 -4,1.8 -4,4 l 0,20 c 0,2.2 1.8,4 4,4 l 32,0 c 2.2,0 4,-1.8 4,-4 l 0,-20 c 0,-2.2 -1.8,-4 -4,-4 z" id="path4140-6-7-2"/>
    </g>
    <text id="text4525-1" y="993.37195" x="131.75836" style="font-style:normal;font-variant:normal;font-weight:normal;font-stretch:semi-condensed;font-size:25px;line-height:125%;font-family:'Lucida Console';-inkscape-font-specification:'Lucida Console, Semi-Condensed';text-align:start;letter-spacing:0px;word-spacing:0px;writing-mode:lr-tb;text-anchor:start;fill:#000000;fill-opacity:1;stroke:none;stroke-width:1px;stroke-linecap:butt;stroke-linejoin:miter;stroke-opacity:1" xml:space="preserve"><tspan style="font-style:normal;font-variant:normal;font-weight:normal;font-stretch:normal;font-size:11.25px;font-family:'OCR A Extended';-inkscape-font-specification:'OCR A Extended'" y="993.37195" x="131.75836" id="tspan4527-3">data</tspan></text>
    <text id="text4525-2" y="993.5752" x="83.042221" style="font-style:normal;font-variant:normal;font-weight:normal;font-stretch:semi-condensed;font-size:25px;line-height:125%;font-family:'Lucida Console';-inkscape-font-specification:'Lucida Console, Semi-Condensed';text-align:start;letter-spacing:0px;word-spacing:0px;writing-mode:lr-tb;text-anchor:start;fill:#000000;fill-opacity:1;stroke:none;stroke-width:1px;stroke-linecap:butt;stroke-linejoin:miter;stroke-opacity:1" xml:space="preserve"><tspan style="font-style:normal;font-variant:normal;font-weight:normal;font-stretch:normal;font-size:11.25px;font-family:'OCR A Extended';-inkscape-font-specification:'OCR A Extended'" y="993.5752" x="83.042221" id="tspan4527-2">bin</tspan></text>
    <text id="text4525-27" y="992.17444" x="239.30884" style="font-style:normal;font-variant:normal;font-weight:normal;font-stretch:semi-condensed;font-size:25px;line-height:125%;font-family:'Lucida Console';-inkscape-font-specification:'Lucida Console, Semi-Condensed';text-align:start;letter-spacing:0px;word-spacing:0px;writing-mode:lr-tb;text-anchor:start;fill:#000000;fill-opacity:1;stroke:none;stroke-width:1px;stroke-linecap:butt;stroke-linejoin:miter;stroke-opacity:1" xml:space="preserve"><tspan style="font-style:normal;font-variant:normal;font-weight:normal;font-stretch:normal;font-size:11.25px;font-family:'OCR A Extended';-inkscape-font-specification:'OCR A Extended'" y="992.17444" x="239.30884" id="tspan4527-25">tmp</tspan></text>
    <text id="text4525-3" y="910.739" x="172.405" style="font-style:normal;font-variant:normal;font-weight:normal;font-stretch:semi-condensed;font-size:25px;line-height:125%;font-family:'Lucida Console';-inkscape-font-specification:'Lucida Console, Semi-Condensed';text-align:center;letter-spacing:0px;word-spacing:0px;writing-mode:lr-tb;text-anchor:middle;fill:#000000;fill-opacity:1;stroke:none;stroke-width:1px;stroke-linecap:butt;stroke-linejoin:miter;stroke-opacity:1" xml:space="preserve" ><tspan style="font-style:normal;font-variant:normal;font-weight:normal;font-stretch:normal;font-size:11.25px;font-family:'OCR A Extended';-inkscape-font-specification:'OCR A Extended';text-align:center;text-anchor:middle" y="910.739" x="172.405" id="tspan4527-36" dy="">/</tspan></text>
  </g>
</svg>