<?xml version="1.0" encoding="UTF-8" standalone="no"?>
<svg
   xmlns:dc="http://purl.org/dc/elements/1.1/"
   xmlns:cc="http://creativecommons.org/ns#"
   xmlns:rdf="http://www.w3.org/1999/02/22-rdf-syntax-ns#"
   xmlns:svg="http://www.w3.org/2000/svg"
   xmlns="http://www.w3.org/2000/svg"
   version="1.1"
   id="svg5258"
   viewBox="0 0 196.25003 192.82018"
   height="54.41814mm"
   width="55.38612mm">
  <defs
     id="defs5260" />
  <metadata
     id="metadata5263">
    <rdf:RDF>
      <cc:Work
         rdf:about="">
        <dc:format>image/svg+xml</dc:format>
        <dc:type
           rdf:resource="http://purl.org/dc/dcmitype/StillImage" />
        <dc:title></dc:title>
      </cc:Work>
    </rdf:RDF>
  </metadata>
  <g
     transform="translate(-264.73213,-421.6664)"
     id="layer1">
    <path
       id="rect4188-1-4"
       d="m 360.89453,451.86719 0,26 -20,0 -28.33594,0 -26,0 -1.32812,0 c -1.29414,0 -2.33594,1.0418 -2.33594,2.33593 l 0,1.32813 0,26 c 0,1.29414 1.0418,2.33594 2.33594,2.33594 l 1.32812,0 c 1.29414,0 2.33594,-1.0418 2.33594,-2.33594 l 0,-23.66406 23.66406,0 22.33594,0 0,26 6,0 0,-26 20,0 6,0 20,0 0,26 6,0 0,-26 26,0 20,0 0,23.66406 c 0,1.29414 1.0418,2.33594 2.33594,2.33594 l 1.32812,0 c 1.29414,0 2.33594,-1.0418 2.33594,-2.33594 l 0,-26 0,-1.32813 c 0,-1.29413 -1.0418,-2.33593 -2.33594,-2.33593 l -23.66406,0 -26,0 -26,0 0,-26 -6,0 z"
       style="fill:#c0c0c0;fill-opacity:1" />
    <path
       id="path4138-8"
       d="m 379.89439,425.6664 -18,0 -4,-4 -10,0 c -2.2,0 -4,1.8 -4,4 l 0,8 40,0 0,-4 c 0,-2.2 -1.8,-4 -4,-4 z"
       style="fill:#c0c0c0;fill-opacity:1" />
    <path
       id="path4140-5"
       d="m 379.89439,425.6664 -32,0 c -2.2,0 -4,1.8 -4,4 l 0,20 c 0,2.2 1.8,4 4,4 l 32,0 c 2.2,0 4,-1.8 4,-4 l 0,-20 c 0,-2.2 -1.8,-4 -4,-4 z"
       style="fill:#e6e6e6" />
    <path
       id="rect4188-1-9-4-6-2"
       d="m 386.54102,533.26953 0,23.27149 -22.33594,0 -27.32813,0 c -1.29414,0 -2.33593,1.04179 -2.33593,2.33593 l 0,1.32813 0,26 c 0,1.29414 1.04179,2.33594 2.33593,2.33594 l 1.32813,0 c 1.29414,0 2.33594,-1.0418 2.33594,-2.33594 l 0,-23.66406 23.66406,0 22.33594,0 0,2.72851 0,23.27149 6,0 0,-23.27149 0,-2.72851 26,0 20,0 0,23.66406 c 0,1.29414 1.04179,2.33594 2.33593,2.33594 l 1.32813,0 c 1.29414,0 2.33594,-1.0418 2.33594,-2.33594 l 0,-26 0,-1.32813 c 0,-1.29414 -1.0418,-2.33593 -2.33594,-2.33593 l -23.66406,0 -26,0 0,-23.27149 -6,0 z"
       style="fill:#337ab7;fill-opacity:1" />
    <g
       transform="translate(364.89882,495.81407)"
       id="g4148-4-1-8">
      <path
         style="fill:#ffa000"
         d="M 40,12 22,12 18,8 8,8 C 5.8,8 4,9.8 4,12 l 0,8 40,0 0,-4 c 0,-2.2 -1.8,-4 -4,-4 z"
         id="path4138-2-8-5" />
      <path
         style="fill:#ffca28"
         d="M 40,12 8,12 c -2.2,0 -4,1.8 -4,4 l 0,20 c 0,2.2 1.8,4 4,4 l 32,0 c 2.2,0 4,-1.8 4,-4 l 0,-20 c 0,-2.2 -1.8,-4 -4,-4 z"
         id="path4140-6-7-5" />
    </g>
    <path
       id="path4138-2-0-1"
       d="m 352.81547,507.81407 -18,0 -4,-4 -10,0 c -2.2,0 -4,1.8 -4,4 l 0,8 40,0 0,-4 c 0,-2.2 -1.8,-4 -4,-4 z"
       style="fill:#c0c0c0;fill-opacity:1" />
    <path
       id="path4140-6-8-8"
       d="m 352.81547,507.81407 -32,0 c -2.2,0 -4,1.8 -4,4 l 0,20 c 0,2.2 1.8,4 4,4 l 32,0 c 2.2,0 4,-1.8 4,-4 l 0,-20 c 0,-2.2 -1.8,-4 -4,-4 z"
       style="fill:#e6e6e6;fill-opacity:1" />
    <text
       id="text4525-6"
       y="524.7583"
       x="372.68539"
       style="font-style:normal;font-variant:normal;font-weight:normal;font-stretch:semi-condensed;font-size:25px;line-height:125%;font-family:'Lucida Console';-inkscape-font-specification:'Lucida Console, Semi-Condensed';text-align:start;letter-spacing:0px;word-spacing:0px;writing-mode:lr-tb;text-anchor:start;fill:#000000;fill-opacity:1;stroke:none;stroke-width:1px;stroke-linecap:butt;stroke-linejoin:miter;stroke-opacity:1"
       xml:space="preserve"><tspan
         style="font-style:normal;font-variant:normal;font-weight:normal;font-stretch:normal;font-size:11.25px;font-family:'OCR A Extended';-inkscape-font-specification:'OCR A Extended'"
         y="524.7583"
         x="372.68539"
         id="tspan4527-7">Users</tspan></text>
    <path
       id="path4138-2-8-2-0"
       d="m 300.73213,507.81407 -18,0 -4,-4 -10,0 c -2.2,0 -4,1.8 -4,4 l 0,8 40,0 0,-4 c 0,-2.2 -1.8,-4 -4,-4 z"
       style="fill:#c0c0c0;fill-opacity:1" />
    <path
       id="path4140-6-7-6-5"
       d="m 300.73213,507.81407 -32,0 c -2.2,0 -4,1.8 -4,4 l 0,20 c 0,2.2 1.8,4 4,4 l 32,0 c 2.2,0 4,-1.8 4,-4 l 0,-20 c 0,-2.2 -1.8,-4 -4,-4 z"
       style="fill:#e6e6e6;fill-opacity:1" />
    <path
       id="path4138-2-8-3-7"
       d="m 456.98216,507.81407 -18,0 -4,-4 -10,0 c -2.2,0 -4,1.8 -4,4 l 0,8 40,0 0,-4 c 0,-2.2 -1.8,-4 -4,-4 z"
       style="fill:#c0c0c0;fill-opacity:1" />
    <path
       id="path4140-6-7-2-6"
       d="m 456.98216,507.81407 -32,0 c -2.2,0 -4,1.8 -4,4 l 0,20 c 0,2.2 1.8,4 4,4 l 32,0 c 2.2,0 4,-1.8 4,-4 l 0,-20 c 0,-2.2 -1.8,-4 -4,-4 z"
       style="fill:#e6e6e6;fill-opacity:1" />
    <text
       id="text4525-1-7"
       y="524.7583"
       x="323.36249"
       style="font-style:normal;font-variant:normal;font-weight:normal;font-stretch:semi-condensed;font-size:25px;line-height:125%;font-family:'Lucida Console';-inkscape-font-specification:'Lucida Console, Semi-Condensed';text-align:start;letter-spacing:0px;word-spacing:0px;writing-mode:lr-tb;text-anchor:start;fill:#999999;fill-opacity:1;stroke:none;stroke-width:1px;stroke-linecap:butt;stroke-linejoin:miter;stroke-opacity:1"
       xml:space="preserve"><tspan
         style="font-style:normal;font-variant:normal;font-weight:normal;font-stretch:normal;font-size:11.25px;font-family:'OCR A Extended';-inkscape-font-specification:'OCR A Extended';fill:#999999"
         y="524.7583"
         x="323.36249"
         id="tspan4527-3-6">data</tspan></text>
    <text
       id="text4525-2-6"
       y="524.84668"
       x="275.37689"
       style="font-style:normal;font-variant:normal;font-weight:normal;font-stretch:semi-condensed;font-size:25px;line-height:125%;font-family:'Lucida Console';-inkscape-font-specification:'Lucida Console, Semi-Condensed';text-align:start;letter-spacing:0px;word-spacing:0px;writing-mode:lr-tb;text-anchor:start;fill:#999999;fill-opacity:1;stroke:none;stroke-width:1px;stroke-linecap:butt;stroke-linejoin:miter;stroke-opacity:1"
       xml:space="preserve"><tspan
         style="font-style:normal;font-variant:normal;font-weight:normal;font-stretch:normal;font-size:11.25px;font-family:'OCR A Extended';-inkscape-font-specification:'OCR A Extended';fill:#999999"
         y="524.84668"
         x="275.37689"
         id="tspan4527-2-7">bin</tspan></text>
    <text
       id="text4525-27-1"
       y="524.80267"
       x="431.92975"
       style="font-style:normal;font-variant:normal;font-weight:normal;font-stretch:semi-condensed;font-size:25px;line-height:125%;font-family:'Lucida Console';-inkscape-font-specification:'Lucida Console, Semi-Condensed';text-align:start;letter-spacing:0px;word-spacing:0px;writing-mode:lr-tb;text-anchor:start;fill:#999999;fill-opacity:1;stroke:none;stroke-width:1px;stroke-linecap:butt;stroke-linejoin:miter;stroke-opacity:1"
       xml:space="preserve"><tspan
         style="font-style:normal;font-variant:normal;font-weight:normal;font-stretch:normal;font-size:11.25px;font-family:'OCR A Extended';-inkscape-font-specification:'OCR A Extended';fill:#999999"
         y="524.80267"
         x="431.92975"
         id="tspan4527-25-6">tmp</tspan></text>
    <text
       id="text4525-3-7"
       y="436.24466"
       x="363.69476"
       style="font-style:normal;font-variant:normal;font-weight:normal;font-stretch:semi-condensed;font-size:25px;line-height:125%;font-family:'Lucida Console';-inkscape-font-specification:'Lucida Console, Semi-Condensed';text-align:center;letter-spacing:0px;word-spacing:0px;writing-mode:lr-tb;text-anchor:middle;fill:#999999;fill-opacity:1;stroke:none;stroke-width:1px;stroke-linecap:butt;stroke-linejoin:miter;stroke-opacity:1"
       xml:space="preserve"><tspan
         style="font-style:normal;font-variant:normal;font-weight:normal;font-stretch:normal;font-size:11.25px;font-family:'OCR A Extended';-inkscape-font-specification:'OCR A Extended';text-align:center;text-anchor:middle;fill:#999999"
         y="436.24466"
         x="363.69476"
         id="tspan4527-36-5">/</tspan><tspan
         id="tspan4645-5"
         style="font-style:normal;font-variant:normal;font-weight:normal;font-stretch:normal;font-size:11.25px;font-family:'OCR A Extended';-inkscape-font-specification:'OCR A Extended';text-align:center;text-anchor:middle;fill:#999999"
         y="450.30716"
         x="363.69476">root</tspan></text>
    <g
       transform="translate(364.54522,574.48658)"
       id="g4148-4-1-67">
      <path
         style="fill:#ffa000"
         d="M 40,12 22,12 18,8 8,8 C 5.8,8 4,9.8 4,12 l 0,8 40,0 0,-4 c 0,-2.2 -1.8,-4 -4,-4 z"
         id="path4138-2-8-0" />
      <path
         style="fill:#ffca28"
         d="M 40,12 8,12 c -2.2,0 -4,1.8 -4,4 l 0,20 c 0,2.2 1.8,4 4,4 l 32,0 c 2.2,0 4,-1.8 4,-4 l 0,-20 c 0,-2.2 -1.8,-4 -4,-4 z"
         id="path4140-6-7-7" />
    </g>
    <g
       transform="translate(312.46187,574.48658)"
       id="g4148-4-0-2">
      <path
         style="fill:#ffa000"
         d="M 40,12 22,12 18,8 8,8 C 5.8,8 4,9.8 4,12 l 0,8 40,0 0,-4 c 0,-2.2 -1.8,-4 -4,-4 z"
         id="path4138-2-0-0" />
      <path
         style="fill:#ffca28"
         d="M 40,12 8,12 c -2.2,0 -4,1.8 -4,4 l 0,20 c 0,2.2 1.8,4 4,4 l 32,0 c 2.2,0 4,-1.8 4,-4 l 0,-20 c 0,-2.2 -1.8,-4 -4,-4 z"
         id="path4140-6-8-6" />
    </g>
    <text
       id="text4525-9"
       y="602.55579"
       x="388.37048"
       style="font-style:normal;font-variant:normal;font-weight:normal;font-stretch:semi-condensed;font-size:25px;line-height:125%;font-family:'Lucida Console';-inkscape-font-specification:'Lucida Console, Semi-Condensed';text-align:center;letter-spacing:0px;word-spacing:0px;writing-mode:lr-tb;text-anchor:middle;fill:#000000;fill-opacity:1;stroke:none;stroke-width:1px;stroke-linecap:butt;stroke-linejoin:miter;stroke-opacity:1"
       xml:space="preserve"><tspan
         style="font-style:normal;font-variant:normal;font-weight:normal;font-stretch:normal;font-size:9px;font-family:'OCR A Extended';-inkscape-font-specification:'OCR A Extended';text-align:center;text-anchor:middle"
         y="602.55579"
         x="388.37048"
         id="tspan4527-0">larry</tspan></text>
    <g
       transform="translate(416.62856,574.48658)"
       id="g4148-4-1-3-2">
      <path
         style="fill:#ffa000"
         d="M 40,12 22,12 18,8 8,8 C 5.8,8 4,9.8 4,12 l 0,8 40,0 0,-4 c 0,-2.2 -1.8,-4 -4,-4 z"
         id="path4138-2-8-3-4" />
      <path
         style="fill:#ffca28"
         d="M 40,12 8,12 c -2.2,0 -4,1.8 -4,4 l 0,20 c 0,2.2 1.8,4 4,4 l 32,0 c 2.2,0 4,-1.8 4,-4 l 0,-20 c 0,-2.2 -1.8,-4 -4,-4 z"
         id="path4140-6-7-2-7" />
    </g>
    <text
       id="text4525-1-4"
       y="602.43079"
       x="336.15829"
       style="font-style:normal;font-variant:normal;font-weight:normal;font-stretch:semi-condensed;font-size:25px;line-height:125%;font-family:'Lucida Console';-inkscape-font-specification:'Lucida Console, Semi-Condensed';text-align:center;letter-spacing:0px;word-spacing:0px;writing-mode:lr-tb;text-anchor:middle;fill:#000000;fill-opacity:1;stroke:none;stroke-width:1px;stroke-linecap:butt;stroke-linejoin:miter;stroke-opacity:1"
       xml:space="preserve"><tspan
         style="font-style:normal;font-variant:normal;font-weight:normal;font-stretch:normal;font-size:9px;font-family:'OCR A Extended';-inkscape-font-specification:'OCR A Extended';text-align:center;text-anchor:middle"
         y="602.43079"
         x="336.15829"
         id="tspan4527-3-7">imhotep</tspan></text>
    <text
       id="text4525-27-4"
       y="602.35022"
       x="440.96185"
       style="font-style:normal;font-variant:normal;font-weight:normal;font-stretch:semi-condensed;font-size:25px;line-height:125%;font-family:'Lucida Console';-inkscape-font-specification:'Lucida Console, Semi-Condensed';text-align:center;letter-spacing:0px;word-spacing:0px;writing-mode:lr-tb;text-anchor:middle;fill:#000000;fill-opacity:1;stroke:none;stroke-width:1px;stroke-linecap:butt;stroke-linejoin:miter;stroke-opacity:1"
       xml:space="preserve"><tspan
         style="font-style:normal;font-variant:normal;font-weight:normal;font-stretch:normal;font-size:9px;font-family:'OCR A Extended';-inkscape-font-specification:'OCR A Extended';text-align:center;text-anchor:middle"
         y="602.35022"
         x="440.96185"
         id="tspan4527-25-4">nelle</tspan></text>
  </g>
</svg>
