<?xml version="1.0" encoding="utf-8"?>
<!-- Generator: Adobe Illustrator 27.1.1, SVG Export Plug-In . SVG Version: 6.00 Build 0)  -->
<svg version="1.1" id="Layer_1" xmlns="http://www.w3.org/2000/svg" xmlns:xlink="http://www.w3.org/1999/xlink" x="0px" y="0px"
	 viewBox="0 0 800 560" style="enable-background:new 0 0 800 560;" xml:space="preserve">
<style type="text/css">
	.st0{fill:#FFFFFF;}
	.st1{display:none;}
	.st2{display:inline;fill:none;}
	.st3{fill:#9B59B6;}
	.st4{fill:#F39C12;}
	.st5{fill:#333333;}
	.st6{fill:#E74C3C;}
	.st7{font-family:'CourierNewPS-BoldMT';}
	.st8{font-size:18px;}
	.st9{fill-opacity:0;stroke:#FFFFFF;stroke-width:2;}
	.st10{font-size:16px;}
	.st11{font-family:'ArialMT';}
	.st12{font-size:10px;}
	.st13{fill:#3498DB;}
	.st14{enable-background:new    ;}
	.st15{fill:url(#SVGID_1_);}
	.st16{fill:url(#SVGID_00000025437304653726636530000012108884350588500385_);}
	.st17{fill:url(#SVGID_00000049212095844030625890000006820223366937290117_);}
	.st18{fill:url(#SVGID_00000142134310114792972050000001570348651770363822_);}
	.st19{fill:url(#SVGID_00000120547770942072678220000009817767160179060865_);}
	.st20{fill:url(#SVGID_00000078741237249350213200000006808036173288912317_);}
	.st21{font-family:'CourierNewPSMT';}
	.st22{font-size:14px;}
</style>
<g>
	<rect id="canvas_background" x="-1" y="-1" class="st0" width="802" height="562"/>
	<g id="canvasGrid" class="st1">
		<rect y="0" class="st2" width="800" height="560"/>
	</g>
</g>
<g>
	<rect id="svg_44" x="386" y="460.4" class="st3" width="117" height="26"/>
	<rect id="svg_40" x="196" y="460.4" class="st4" width="117" height="26"/>
	<rect id="svg_11" x="206" y="80.3" class="st5" width="117" height="26"/>
	<text id="svg_1" transform="matrix(1 0 0 1 31.5066 47.0073)" class="st6 st7 st8">wc -l *.txt</text>
	<path id="svg_2" class="st6" d="M27.5,71h156c3.3,0,6,2.7,6,6v32c0,3.3-2.7,6-6,6h-156c-3.3,0-6-2.7-6-6V77
		C21.5,73.7,24.2,71,27.5,71z"/>
	<text id="svg_3" transform="matrix(1 0 0 1 44.5 97.0066)" class="st0 st7 st8">wc -l *.txt</text>
	<path id="svg_5" class="st5" d="M257.5,34h140c3.3,0,6,2.7,6,6v113c0,3.3-2.7,6-6,6h-140c-3.3,0-6-2.7-6-6V40
		C251.5,36.7,254.2,34,257.5,34z"/>
	<path id="svg_6" class="st9" d="M293.5,52h63c3.3,0,6,2.7,6,6v41c0,3.3-2.7,6-6,6h-63c-3.3,0-6-2.7-6-6V58
		C287.5,54.7,290.2,52,293.5,52z"/>
	<text id="svg_7" transform="matrix(1 0 0 1 294.4701 71.0066)" class="st0 st7 st10">$</text>
	<text id="svg_8" transform="matrix(1 0 0 1 273.4701 138.0066)" class="st0 st11 st10">Output in Shell</text>
	<path id="svg_9" class="st6" d="M188.7,80.2h24l20,13l-20,13h-24V80.2z"/>
	<text id="svg_12" transform="matrix(1 0 0 1 190.2367 96.7563)" class="st0 st11 st12">OUT</text>
	<rect id="svg_13" x="206" y="278.3" class="st13" width="117" height="26"/>
	<path id="svg_15" class="st6" d="M27.5,269.1h156c3.3,0,6,2.7,6,6v32c0,3.3-2.7,6-6,6h-156c-3.3,0-6-2.7-6-6v-32
		C21.5,271.8,24.2,269.1,27.5,269.1z"/>
	<text id="svg_16" transform="matrix(1 0 0 1 44.5 295.0724)" class="st0 st7 st8">wc -l *.txt</text>
	<path id="svg_17" class="st13" d="M257.5,232.1h140c3.3,0,6,2.7,6,6v122c0,3.3-2.7,6-6,6h-140c-3.3,0-6-2.7-6-6v-122
		C251.5,234.8,254.2,232.1,257.5,232.1z"/>
	<text id="svg_20" transform="matrix(1 0 0 1 278.4718 346.0757)" class="st0 st11 st10">Output in File</text>
	<path id="svg_21" class="st6" d="M188.7,278.3h24l20,13l-20,13h-24V278.3z"/>
	<text id="svg_22" transform="matrix(1 0 0 1 190.2367 294.822)" class="st0 st11 st12">OUT</text>
	<text id="svg_24" transform="matrix(1 0 0 1 31.5066 425.1328)" class="st6 st7 st8">wc -l *.txt</text>
	<path id="svg_25" class="st6" d="M27.5,451.1h156c3.3,0,6,2.7,6,6v32c0,3.3-2.7,6-6,6h-156c-3.3,0-6-2.7-6-6v-32
		C21.5,453.8,24.2,451.1,27.5,451.1z"/>
	<text id="svg_26" transform="matrix(1 0 0 1 44.5 477.1328)" class="st0 st7 st8">wc -l *.txt</text>
	<path id="svg_31" class="st6" d="M188.7,460.4h24l20,13l-20,13h-24V460.4z"/>
	<text id="svg_32" transform="matrix(1 0 0 1 190.2367 476.8824)" class="st0 st11 st12">OUT</text>
	<rect id="svg_33" x="586.1" y="460.4" class="st5" width="117" height="26"/>
	<path id="svg_34" class="st5" d="M637.6,414.1h140c3.3,0,6,2.7,6,6v113c0,3.3-2.7,6-6,6h-140c-3.3,0-6-2.7-6-6v-113
		C631.6,416.8,634.3,414.1,637.6,414.1z"/>
	<path id="svg_35" class="st9" d="M673.6,432.1h63c3.3,0,6,2.7,6,6v41c0,3.3-2.7,6-6,6h-63c-3.3,0-6-2.7-6-6v-41
		C667.6,434.8,670.3,432.1,673.6,432.1z"/>
	<text id="svg_36" transform="matrix(1 0 0 1 674.5963 451.1328)" class="st0 st7 st10">$</text>
	<text id="svg_37" transform="matrix(1 0 0 1 653.5963 518.1328)" class="st0 st11 st10">Output in Shell</text>
	<path id="svg_38" class="st4" d="M267.6,451.1h114c3.3,0,6,2.7,6,6v32c0,3.3-2.7,6-6,6h-114c-3.3,0-6-2.7-6-6v-32
		C261.6,453.8,264.3,451.1,267.6,451.1z"/>
	<g id="svg_39" class="st14">
		<g>
			
				<linearGradient id="SVGID_1_" gradientUnits="userSpaceOnUse" x1="284.5796" y1="755.25" x2="370.9937" y2="755.25" gradientTransform="matrix(1 0 0 1 0 -282)">
				<stop  offset="0" style="stop-color:#FFFFFF"/>
				<stop  offset="1" style="stop-color:#000000"/>
			</linearGradient>
			<path class="st15" d="M291.9,471.3c-0.3-0.2-0.6-0.3-0.9-0.4s-0.7-0.1-1-0.1c-0.7,0-1.3,0.1-1.7,0.3c-0.2,0.1-0.3,0.2-0.3,0.3
				c0,0.1,0.1,0.3,0.4,0.4c0.2,0.1,0.6,0.2,1.3,0.3c1.2,0.2,2,0.3,2.5,0.5c0.6,0.2,1.1,0.5,1.4,1s0.5,0.9,0.5,1.4
				c0,0.6-0.3,1.2-0.9,1.6c-0.8,0.6-1.9,0.9-3.2,0.9c-0.5,0-1,0-1.4-0.1s-0.8-0.2-1.2-0.4c-0.1,0.1-0.2,0.1-0.3,0.2
				s-0.2,0.1-0.3,0.1c-0.3,0-0.5-0.1-0.7-0.3c-0.2-0.2-0.3-0.5-0.3-0.9v-0.6c0-0.4,0.1-0.7,0.3-0.9c0.2-0.2,0.4-0.3,0.7-0.3
				c0.2,0,0.4,0.1,0.5,0.2s0.3,0.3,0.3,0.6c0.3,0.2,0.6,0.4,1,0.5s0.8,0.2,1.3,0.2c0.8,0,1.5-0.1,1.9-0.4c0.2-0.1,0.3-0.3,0.3-0.4
				c0-0.2-0.2-0.4-0.5-0.6s-1-0.3-1.9-0.4c-1.4-0.2-2.4-0.4-2.9-0.9c-0.5-0.4-0.7-1-0.7-1.6s0.3-1.2,0.8-1.6
				c0.7-0.6,1.7-0.9,2.9-0.9c0.4,0,0.8,0,1.2,0.1c0.4,0.1,0.8,0.2,1.1,0.4c0.1-0.1,0.2-0.1,0.3-0.2s0.2-0.1,0.3-0.1
				c0.2,0,0.5,0.1,0.6,0.3c0.2,0.2,0.2,0.5,0.2,0.9v0.4c0,0.4,0,0.7-0.1,0.8c-0.2,0.3-0.4,0.4-0.8,0.4c-0.2,0-0.4-0.1-0.6-0.2
				S292,471.5,291.9,471.3z"/>
			
				<linearGradient id="SVGID_00000141441739090805302790000015008490122726082238_" gradientUnits="userSpaceOnUse" x1="284.5796" y1="755.2" x2="370.9937" y2="755.2" gradientTransform="matrix(1 0 0 1 0 -282)">
				<stop  offset="0" style="stop-color:#FFFFFF"/>
				<stop  offset="1" style="stop-color:#000000"/>
			</linearGradient>
			<path style="fill:url(#SVGID_00000141441739090805302790000015008490122726082238_);" d="M305.5,473.3c0,0.7-0.2,1.4-0.6,2
				s-1,1.2-1.7,1.5c-0.8,0.4-1.6,0.6-2.4,0.6s-1.6-0.2-2.4-0.6s-1.3-0.9-1.7-1.5s-0.6-1.3-0.6-2s0.2-1.4,0.6-2.1s1-1.2,1.7-1.6
				s1.5-0.6,2.3-0.6s1.6,0.2,2.4,0.6s1.3,1,1.7,1.6S305.5,472.6,305.5,473.3z M303.7,473.3c0-0.6-0.2-1.1-0.6-1.6
				c-0.6-0.7-1.3-1-2.2-1c-0.8,0-1.5,0.3-2,0.8s-0.8,1.1-0.8,1.8c0,0.6,0.3,1.1,0.8,1.6c0.6,0.5,1.2,0.7,2,0.7s1.5-0.2,2-0.7
				C303.4,474.4,303.7,473.9,303.7,473.3z"/>
			
				<linearGradient id="SVGID_00000064313282672756819420000012866812434551466663_" gradientUnits="userSpaceOnUse" x1="284.5796" y1="755.1" x2="370.9937" y2="755.1" gradientTransform="matrix(1 0 0 1 0 -282)">
				<stop  offset="0" style="stop-color:#FFFFFF"/>
				<stop  offset="1" style="stop-color:#000000"/>
			</linearGradient>
			<path style="fill:url(#SVGID_00000064313282672756819420000012866812434551466663_);" d="M311.2,469.2v1.1
				c0.8-0.5,1.4-0.9,1.8-1.1s0.8-0.3,1.2-0.3c0.6,0,1.2,0.2,1.7,0.7c0.4,0.3,0.6,0.6,0.6,0.9s-0.1,0.5-0.3,0.7s-0.4,0.3-0.6,0.3
				s-0.5-0.1-0.7-0.3s-0.5-0.3-0.7-0.3c-0.3,0-0.6,0.2-1.1,0.5s-1.1,0.8-1.9,1.4v2.7h2.6c0.4,0,0.7,0.1,0.9,0.3
				c0.2,0.2,0.3,0.4,0.3,0.7c0,0.3-0.1,0.5-0.3,0.6c-0.2,0.2-0.5,0.2-0.9,0.2h-5.4c-0.4,0-0.7-0.1-0.9-0.2c-0.2-0.2-0.3-0.4-0.3-0.7
				c0-0.3,0.1-0.5,0.3-0.6c0.2-0.2,0.5-0.3,0.9-0.3h1.1V471h-0.7c-0.4,0-0.7-0.1-0.9-0.3c-0.2-0.2-0.3-0.4-0.3-0.7
				c0-0.3,0.1-0.5,0.3-0.6c0.2-0.2,0.5-0.2,0.9-0.2L311.2,469.2L311.2,469.2z"/>
			
				<linearGradient id="SVGID_00000025424642067715498800000003984186626102778022_" gradientUnits="userSpaceOnUse" x1="284.5796" y1="753.95" x2="370.9937" y2="753.95" gradientTransform="matrix(1 0 0 1 0 -282)">
				<stop  offset="0" style="stop-color:#FFFFFF"/>
				<stop  offset="1" style="stop-color:#000000"/>
			</linearGradient>
			<path style="fill:url(#SVGID_00000025424642067715498800000003984186626102778022_);" d="M321.9,471v3.6c0,0.4,0.1,0.6,0.2,0.8
				c0.2,0.2,0.7,0.3,1.3,0.3c0.9,0,1.8-0.2,2.5-0.6c0.3-0.2,0.5-0.2,0.7-0.2s0.4,0.1,0.6,0.3s0.3,0.4,0.3,0.6s-0.1,0.4-0.3,0.6
				c-0.3,0.3-0.9,0.5-1.7,0.8c-0.8,0.2-1.6,0.3-2.1,0.3c-1.1,0-2-0.2-2.5-0.7c-0.6-0.5-0.8-1.1-0.8-1.8v-4h-0.7
				c-0.4,0-0.7-0.1-0.9-0.3c-0.2-0.2-0.3-0.4-0.3-0.7c0-0.3,0.1-0.5,0.3-0.6c0.2-0.2,0.5-0.2,0.9-0.2h0.7v-1.6
				c0-0.4,0.1-0.7,0.3-0.9c0.2-0.2,0.4-0.3,0.7-0.3c0.3,0,0.5,0.1,0.6,0.3c0.2,0.2,0.3,0.5,0.3,0.9v1.6h3.3c0.4,0,0.7,0.1,0.9,0.2
				c0.2,0.2,0.3,0.4,0.3,0.7c0,0.3-0.1,0.5-0.3,0.6c-0.2,0.2-0.5,0.3-0.9,0.3L321.9,471L321.9,471z"/>
			
				<linearGradient id="SVGID_00000126308157999205376590000006746731358370176152_" gradientUnits="userSpaceOnUse" x1="284.5796" y1="754" x2="370.9937" y2="754" gradientTransform="matrix(1 0 0 1 0 -282)">
				<stop  offset="0" style="stop-color:#FFFFFF"/>
				<stop  offset="1" style="stop-color:#000000"/>
			</linearGradient>
			<path style="fill:url(#SVGID_00000126308157999205376590000006746731358370176152_);" d="M347.8,472.8h-7.5v-1.6h7.5V472.8z"/>
			
				<linearGradient id="SVGID_00000135688163057052100400000005394398243053678981_" gradientUnits="userSpaceOnUse" x1="284.5796" y1="757.1" x2="370.9937" y2="757.1" gradientTransform="matrix(1 0 0 1 0 -282)">
				<stop  offset="0" style="stop-color:#FFFFFF"/>
				<stop  offset="1" style="stop-color:#000000"/>
			</linearGradient>
			<path style="fill:url(#SVGID_00000135688163057052100400000005394398243053678981_);" d="M356.8,469.7v-0.5h2.1
				c0.4,0,0.7,0.1,0.9,0.2c0.2,0.2,0.3,0.4,0.3,0.7c0,0.3-0.1,0.5-0.3,0.6c-0.2,0.2-0.5,0.3-0.9,0.3h-0.3v6.6c0,0.6-0.1,1.2-0.4,1.7
				s-0.7,0.9-1.2,1.2s-1.2,0.5-1.9,0.5h-2c-0.4,0-0.7-0.1-0.9-0.2c-0.2-0.2-0.3-0.4-0.3-0.6c0-0.3,0.1-0.5,0.3-0.7
				c0.2-0.2,0.5-0.3,0.9-0.3h2c0.6,0,1-0.1,1.3-0.4s0.5-0.7,0.5-1.1v-0.9c-0.4,0.3-0.8,0.5-1.2,0.6s-0.8,0.2-1.3,0.2
				c-1.2,0-2.2-0.4-3.1-1.2c-0.8-0.8-1.2-1.8-1.2-3s0.4-2.2,1.2-3c0.8-0.8,1.9-1.2,3.1-1.2c0.5,0,0.9,0.1,1.3,0.2
				C356,469.2,356.4,469.4,356.8,469.7z M356.8,473.1c0-0.7-0.2-1.2-0.7-1.7s-1.1-0.7-1.8-0.7s-1.3,0.2-1.8,0.7s-0.7,1.1-0.7,1.7
				c0,0.7,0.2,1.2,0.7,1.7s1.1,0.7,1.8,0.7s1.3-0.2,1.8-0.7C356.5,474.4,356.8,473.8,356.8,473.1z"/>
		</g>
		<text transform="matrix(1 0 0 1 284.5797 477.1328)" class="st0 st7 st8">sort -g</text>
	</g>
	<text id="svg_41" transform="matrix(1 0 0 1 242.254 476.8824)" class="st0 st11 st12">IN</text>
	<path id="svg_42" class="st4" d="M386.8,460.4h24l20,13l-20,13h-24V460.4z"/>
	<text id="svg_43" transform="matrix(1 0 0 1 388.3025 476.8824)" class="st0 st11 st12">OUT</text>
	<path id="svg_45" class="st3" d="M457.6,451.1h114c3.3,0,6,2.7,6,6v32c0,3.3-2.7,6-6,6h-114c-3.3,0-6-2.7-6-6v-32
		C451.6,453.8,454.3,451.1,457.6,451.1z"/>
	<text id="svg_46" transform="matrix(1 0 0 1 436.3184 476.8824)" class="st0 st11 st12">IN</text>
	<path id="svg_47" class="st3" d="M576.9,460.4h24l20,13l-20,13h-24V460.4z"/>
	<text id="svg_48" transform="matrix(1 0 0 1 579.3658 476.8824)" class="st0 st11 st12">OUT</text>
	<text id="svg_49" transform="matrix(1 0 0 1 466.5 477.1328)" class="st0 st7 st8">head -n 1</text>
	<path id="svg_50" class="st0" d="M341.4,252.6c-3.9-3.5-8.1-6.3-11.6-6.7c-0.2,0-0.4,0-0.6,0h-22.8c-0.4,0-0.7,0.1-1,0.4
		c-0.2,0.2-0.4,0.6-0.4,0.9v53.5c0,0.3,0.1,0.7,0.4,0.9c0.3,0.2,0.6,0.4,1,0.4h41.2c0.4,0,0.7-0.1,1-0.4c0.3-0.2,0.4-0.6,0.4-0.9
		V265C349,260.9,345.5,256.4,341.4,252.6z M339.5,254.4c1.8,1.6,3.4,3.5,4.6,5.3c-1-0.4-2.2-0.7-3.2-0.9c-2.3-0.5-4.5-0.7-5.9-0.7
		c0-0.3,0-0.6,0-0.9c0-1.8-0.1-4.4-0.8-6.6c0,0,0,0,0-0.1C335.9,251.4,337.8,252.8,339.5,254.4z M346.3,299.3h-38.5v-50.9h21.4l0,0
		c0.9-0.1,1.7,0.8,2.4,2.8c0.6,1.9,0.7,4.3,0.7,6c0,1.2-0.1,2.1-0.1,2.1l-0.1,1.4h1.5c0,0,3.4,0,6.7,0.7c3.2,0.6,5.7,1.9,6,3.4
		c0,0.1,0,0.3,0,0.4V299.3L346.3,299.3z"/>
	<text id="svg_51" transform="matrix(1 0 0 1 297.466 318.006)" class="st0 st21 st22">lengths</text>
	<text id="svg_52" transform="matrix(1 0 0 1 11.5 47.0073)" class="st7 st8">$</text>
	<text id="svg_53" transform="matrix(1 0 0 1 11.5 425.1328)" class="st7 st8">$</text>
	<text id="svg_54" transform="matrix(1 0 0 1 161.5498 425.1328)" class="st7 st8">|</text>
	<text id="svg_55" transform="matrix(1 0 0 1 181.5564 425.1328)" class="st4 st7 st8">sort -g</text>
	<text id="svg_56" transform="matrix(1 0 0 1 271.5863 425.1328)" class="st7 st8">|</text>
	<text id="svg_57" transform="matrix(1 0 0 1 291.5929 425.1328)" class="st3 st7 st8">head -n 1</text>
	<text id="svg_58" transform="matrix(1 0 0 1 31.5066 425.1328)" class="st6 st7 st8">wc -l *.</text>
	<text id="svg_59" transform="matrix(1 0 0 1 11.5 425.1328)" class="st7 st8">$</text>
	<text id="svg_60" transform="matrix(1 0 0 1 161.5498 425.1328)" class="st7 st8">|</text>
	<text id="svg_61" transform="matrix(1 0 0 1 181.5564 425.1328)" class="st4 st7 st8">sort -</text>
	<text id="svg_62" transform="matrix(1 0 0 1 271.5863 425.1328)" class="st7 st8">|</text>
	<text id="svg_63" transform="matrix(1 0 0 1 291.5929 425.1328)" class="st3 st7 st8">head -n 1</text>
	<text id="svg_64" transform="matrix(1 0 0 1 31.5066 223.0657)" class="st6 st7 st8">wc -l *.txt</text>
	<text id="svg_65" transform="matrix(1 0 0 1 11.5 223.0657)" class="st7 st8">$</text>
	<text id="svg_66" transform="matrix(1 0 0 1 161.5498 223.0657)" class="st7 st8">&gt;</text>
	<text id="svg_67" transform="matrix(1 0 0 1 181.5564 223.0657)" class="st13 st7 st8">lengths</text>
</g>
</svg>
