<?xml version="1.0" encoding="UTF-8"?>
<!DOCTYPE svg PUBLIC "-//W3C//DTD SVG 1.1//EN" "http://www.w3.org/Graphics/SVG/1.1/DTD/svg11.dtd">
<svg version="1.2" width="215.9mm" height="279.4mm" viewBox="0 0 21590 27940" preserveAspectRatio="xMidYMid" fill-rule="evenodd" clip-path="url(#presentation_clip_path)" stroke-width="28.222" stroke-linejoin="round" xmlns="http://www.w3.org/2000/svg" xmlns:ooo="http://xml.openoffice.org/svg/export" xmlns:xlink="http://www.w3.org/1999/xlink" xml:space="preserve">
 <defs class="ClipPathGroup">
  <clipPath id="presentation_clip_path" clipPathUnits="userSpaceOnUse">
   <rect x="0" y="0" width="21590" height="27940"/>
  </clipPath>
 </defs>
 <defs class="TextShapeIndex">
  <g ooo:slide="id1" ooo:id-list="id3 id4 id5 id6 id7 id8 id9 id10 id11 id12 id13 id14 id15 id16 id17 id18 id19 id20 id21 id22 id23 id24 id25 id26 id27 id28 id29 id30 id31"/>
 </defs>
 <defs class="EmbeddedBulletChars">
  <g id="bullet-char-template(57356)" transform="scale(0.00048828125,-0.00048828125)">
   <path d="M 580,1141 L 1163,571 580,0 -4,571 580,1141 Z"/>
  </g>
  <g id="bullet-char-template(57354)" transform="scale(0.00048828125,-0.00048828125)">
   <path d="M 8,1128 L 1137,1128 1137,0 8,0 8,1128 Z"/>
  </g>
  <g id="bullet-char-template(10146)" transform="scale(0.00048828125,-0.00048828125)">
   <path d="M 174,0 L 602,739 174,1481 1456,739 174,0 Z M 1358,739 L 309,1346 659,739 1358,739 Z"/>
  </g>
  <g id="bullet-char-template(10132)" transform="scale(0.00048828125,-0.00048828125)">
   <path d="M 2015,739 L 1276,0 717,0 1260,543 174,543 174,936 1260,936 717,1481 1274,1481 2015,739 Z"/>
  </g>
  <g id="bullet-char-template(10007)" transform="scale(0.00048828125,-0.00048828125)">
   <path d="M 0,-2 C -7,14 -16,27 -25,37 L 356,567 C 262,823 215,952 215,954 215,979 228,992 255,992 264,992 276,990 289,987 310,991 331,999 354,1012 L 381,999 492,748 772,1049 836,1024 860,1049 C 881,1039 901,1025 922,1006 886,937 835,863 770,784 769,783 710,716 594,584 L 774,223 C 774,196 753,168 711,139 L 727,119 C 717,90 699,76 672,76 641,76 570,178 457,381 L 164,-76 C 142,-110 111,-127 72,-127 30,-127 9,-110 8,-76 1,-67 -2,-52 -2,-32 -2,-23 -1,-13 0,-2 Z"/>
  </g>
  <g id="bullet-char-template(10004)" transform="scale(0.00048828125,-0.00048828125)">
   <path d="M 285,-33 C 182,-33 111,30 74,156 52,228 41,333 41,471 41,549 55,616 82,672 116,743 169,778 240,778 293,778 328,747 346,684 L 369,508 C 377,444 397,411 428,410 L 1163,1116 C 1174,1127 1196,1133 1229,1133 1271,1133 1292,1118 1292,1087 L 1292,965 C 1292,929 1282,901 1262,881 L 442,47 C 390,-6 338,-33 285,-33 Z"/>
  </g>
  <g id="bullet-char-template(9679)" transform="scale(0.00048828125,-0.00048828125)">
   <path d="M 813,0 C 632,0 489,54 383,161 276,268 223,411 223,592 223,773 276,916 383,1023 489,1130 632,1184 813,1184 992,1184 1136,1130 1245,1023 1353,916 1407,772 1407,592 1407,412 1353,268 1245,161 1136,54 992,0 813,0 Z"/>
  </g>
  <g id="bullet-char-template(8226)" transform="scale(0.00048828125,-0.00048828125)">
   <path d="M 346,457 C 273,457 209,483 155,535 101,586 74,649 74,723 74,796 101,859 155,911 209,963 273,989 346,989 419,989 480,963 531,910 582,859 608,796 608,723 608,648 583,586 532,535 482,483 420,457 346,457 Z"/>
  </g>
  <g id="bullet-char-template(8211)" transform="scale(0.00048828125,-0.00048828125)">
   <path d="M -4,459 L 1135,459 1135,606 -4,606 -4,459 Z"/>
  </g>
 </defs>
 <defs class="TextEmbeddedBitmaps"/>
 <g>
  <g id="id2" class="Master_Slide">
   <g id="bg-id2" class="Background"/>
   <g id="bo-id2" class="BackgroundObjects"/>
  </g>
 </g>
 <g class="SlideGroup">
  <g>
   <g id="id1" class="Slide" clip-path="url(#presentation_clip_path)">
    <g class="Page">
     <g class="Group">
      <g class="com.sun.star.drawing.CustomShape">
       <g id="id3">
        <path fill="none" stroke="rgb(0,0,0)" stroke-width="50" d="M 8550,2600 L 7400,2600 7400,1500 9700,1500 9700,2600 8550,2600 Z"/>
        <text class="TextShape"><tspan class="TextParagraph" font-family="Arial, sans-serif" font-size="388px" font-weight="400"><tspan class="TextPosition" x="8076" y="2185"><tspan fill="rgb(0,0,0)" stroke="none">users</tspan></tspan></tspan></text>
       </g>
      </g>
      <g class="com.sun.star.drawing.CustomShape">
       <g id="id4">
        <path fill="none" stroke="rgb(0,0,0)" stroke-width="50" d="M 7400,1500 L 8401,1500 8150,1300 7650,1300 7400,1500 Z"/>
       </g>
      </g>
     </g>
     <g class="Group">
      <g class="com.sun.star.drawing.CustomShape">
       <g id="id5">
        <path fill="none" stroke="rgb(0,0,0)" stroke-width="50" d="M 5050,5000 L 3900,5000 3900,3900 6200,3900 6200,5000 5050,5000 Z"/>
        <text class="TextShape"><tspan class="TextParagraph" font-family="Arial, sans-serif" font-size="388px" font-weight="400"><tspan class="TextPosition" x="4629" y="4585"><tspan fill="rgb(0,0,0)" stroke="none">thing</tspan></tspan></tspan></text>
       </g>
      </g>
      <g class="com.sun.star.drawing.CustomShape">
       <g id="id6">
        <path fill="none" stroke="rgb(0,0,0)" stroke-width="50" d="M 3900,3900 L 4901,3900 4650,3700 4150,3700 3900,3900 Z"/>
       </g>
      </g>
     </g>
     <g class="Group">
      <g class="com.sun.star.drawing.CustomShape">
       <g id="id7">
        <path fill="none" stroke="rgb(0,0,0)" stroke-width="50" d="M 5050,7800 L 3900,7800 3900,6700 6200,6700 6200,7800 5050,7800 Z"/>
        <text class="TextShape"><tspan class="TextParagraph" font-family="Arial, sans-serif" font-size="388px" font-weight="400"><tspan class="TextPosition" x="4424" y="7385"><tspan fill="rgb(0,0,0)" stroke="none">backup</tspan></tspan></tspan></text>
       </g>
      </g>
      <g class="com.sun.star.drawing.CustomShape">
       <g id="id8">
        <path fill="none" stroke="rgb(0,0,0)" stroke-width="50" d="M 3900,6700 L 4901,6700 4650,6500 4150,6500 3900,6700 Z"/>
       </g>
      </g>
     </g>
     <g class="Group">
      <g class="com.sun.star.drawing.CustomShape">
       <g id="id9">
        <path fill="none" stroke="rgb(0,0,0)" stroke-width="50" d="M 2350,10600 L 1200,10600 1200,9500 3500,9500 3500,10600 2350,10600 Z"/>
        <text class="TextShape"><tspan class="TextParagraph" font-family="Arial, sans-serif" font-size="388px" font-weight="400"><tspan class="TextPosition" x="1357" y="10185"><tspan fill="rgb(0,0,0)" stroke="none">2012-12-01</tspan></tspan></tspan></text>
       </g>
      </g>
      <g class="com.sun.star.drawing.CustomShape">
       <g id="id10">
        <path fill="none" stroke="rgb(0,0,0)" stroke-width="50" d="M 1200,9500 L 2201,9500 1950,9300 1450,9300 1200,9500 Z"/>
       </g>
      </g>
     </g>
     <g class="Group">
      <g class="com.sun.star.drawing.CustomShape">
       <g id="id11">
        <path fill="none" stroke="rgb(0,0,0)" stroke-width="50" d="M 5050,10600 L 3900,10600 3900,9500 6200,9500 6200,10600 5050,10600 Z"/>
        <text class="TextShape"><tspan class="TextParagraph" font-family="Arial, sans-serif" font-size="388px" font-weight="400"><tspan class="TextPosition" x="4057" y="10185"><tspan fill="rgb(0,0,0)" stroke="none">2013-01-08</tspan></tspan></tspan></text>
       </g>
      </g>
      <g class="com.sun.star.drawing.CustomShape">
       <g id="id12">
        <path fill="none" stroke="rgb(0,0,0)" stroke-width="50" d="M 3900,9500 L 4901,9500 4650,9300 4150,9300 3900,9500 Z"/>
       </g>
      </g>
     </g>
     <g class="Group">
      <g class="com.sun.star.drawing.CustomShape">
       <g id="id13">
        <path fill="none" stroke="rgb(0,0,0)" stroke-width="50" d="M 7750,10600 L 6600,10600 6600,9500 8900,9500 8900,10600 7750,10600 Z"/>
        <text class="TextShape"><tspan class="TextParagraph" font-family="Arial, sans-serif" font-size="388px" font-weight="400"><tspan class="TextPosition" x="6757" y="10185"><tspan fill="rgb(0,0,0)" stroke="none">2013-01-27</tspan></tspan></tspan></text>
       </g>
      </g>
      <g class="com.sun.star.drawing.CustomShape">
       <g id="id14">
        <path fill="none" stroke="rgb(0,0,0)" stroke-width="50" d="M 6600,9500 L 7601,9500 7350,9300 6850,9300 6600,9500 Z"/>
       </g>
      </g>
     </g>
     <g class="Group">
      <g class="com.sun.star.drawing.CustomShape">
       <g id="id15">
        <path fill="none" stroke="rgb(0,0,0)" stroke-width="50" d="M 12050,5100 L 10900,5100 10900,4000 13200,4000 13200,5100 12050,5100 Z"/>
        <text class="TextShape"><tspan class="TextParagraph" font-family="Arial, sans-serif" font-size="388px" font-weight="400"><tspan class="TextPosition" x="11424" y="4685"><tspan fill="rgb(0,0,0)" stroke="none">backup</tspan></tspan></tspan></text>
       </g>
      </g>
      <g class="com.sun.star.drawing.CustomShape">
       <g id="id16">
        <path fill="none" stroke="rgb(0,0,0)" stroke-width="50" d="M 10900,4000 L 11901,4000 11650,3800 11150,3800 10900,4000 Z"/>
       </g>
      </g>
     </g>
     <g class="Group">
      <g class="com.sun.star.drawing.CustomShape">
       <g id="id17">
        <path fill="none" stroke="rgb(0,0,0)" stroke-width="50" d="M 9350,7800 L 8200,7800 8200,6700 10500,6700 10500,7800 9350,7800 Z"/>
        <text class="TextShape"><tspan class="TextParagraph" font-family="Arial, sans-serif" font-size="388px" font-weight="400"><tspan class="TextPosition" x="8724" y="7385"><tspan fill="rgb(0,0,0)" stroke="none">original</tspan></tspan></tspan></text>
       </g>
      </g>
      <g class="com.sun.star.drawing.CustomShape">
       <g id="id18">
        <path fill="none" stroke="rgb(0,0,0)" stroke-width="50" d="M 8200,6700 L 9201,6700 8950,6500 8450,6500 8200,6700 Z"/>
       </g>
      </g>
     </g>
     <g class="Group">
      <g class="com.sun.star.drawing.CustomShape">
       <g id="id19">
        <path fill="none" stroke="rgb(0,0,0)" stroke-width="50" d="M 12050,7800 L 10900,7800 10900,6700 13200,6700 13200,7800 12050,7800 Z"/>
        <text class="TextShape"><tspan class="TextParagraph" font-family="Arial, sans-serif" font-size="388px" font-weight="400"><tspan class="TextPosition" x="11165" y="7385"><tspan fill="rgb(0,0,0)" stroke="none">pnas_final</tspan></tspan></tspan></text>
       </g>
      </g>
      <g class="com.sun.star.drawing.CustomShape">
       <g id="id20">
        <path fill="none" stroke="rgb(0,0,0)" stroke-width="50" d="M 10900,6700 L 11901,6700 11650,6500 11150,6500 10900,6700 Z"/>
       </g>
      </g>
     </g>
     <g class="Group">
      <g class="com.sun.star.drawing.CustomShape">
       <g id="id21">
        <path fill="none" stroke="rgb(0,0,0)" stroke-width="50" d="M 14750,7800 L 13600,7800 13600,6700 15900,6700 15900,7800 14750,7800 Z"/>
        <text class="TextShape"><tspan class="TextParagraph" font-family="Arial, sans-serif" font-size="388px" font-weight="400"><tspan class="TextPosition" x="13910" y="7385"><tspan fill="rgb(0,0,0)" stroke="none">pnas_sub</tspan></tspan></tspan></text>
       </g>
      </g>
      <g class="com.sun.star.drawing.CustomShape">
       <g id="id22">
        <path fill="none" stroke="rgb(0,0,0)" stroke-width="50" d="M 13600,6700 L 14601,6700 14350,6500 13850,6500 13600,6700 Z"/>
       </g>
      </g>
     </g>
     <g class="com.sun.star.drawing.LineShape">
      <g id="id23">
       <path fill="none" stroke="rgb(0,0,0)" d="M 8300,2700 L 6491,3522"/>
       <path fill="rgb(0,0,0)" stroke="none" d="M 6100,3700 L 6572,3650 6448,3377 6100,3700 Z"/>
      </g>
     </g>
     <g class="com.sun.star.drawing.LineShape">
      <g id="id24">
       <path fill="none" stroke="rgb(0,0,0)" d="M 8900,2700 L 10709,3522"/>
       <path fill="rgb(0,0,0)" stroke="none" d="M 11100,3700 L 10752,3377 10628,3650 11100,3700 Z"/>
      </g>
     </g>
     <g class="com.sun.star.drawing.LineShape">
      <g id="id25">
       <path fill="none" stroke="rgb(0,0,0)" d="M 4700,8000 L 2891,8822"/>
       <path fill="rgb(0,0,0)" stroke="none" d="M 2500,9000 L 2972,8950 2848,8677 2500,9000 Z"/>
      </g>
     </g>
     <g class="com.sun.star.drawing.LineShape">
      <g id="id26">
       <path fill="none" stroke="rgb(0,0,0)" d="M 5300,8000 L 7109,8822"/>
       <path fill="rgb(0,0,0)" stroke="none" d="M 7500,9000 L 7152,8677 7028,8950 7500,9000 Z"/>
      </g>
     </g>
     <g class="com.sun.star.drawing.LineShape">
      <g id="id27">
       <path fill="none" stroke="rgb(0,0,0)" d="M 5000,8000 L 5000,8770"/>
       <path fill="rgb(0,0,0)" stroke="none" d="M 5000,9200 L 5150,8750 4850,8750 5000,9200 Z"/>
      </g>
     </g>
     <g class="com.sun.star.drawing.LineShape">
      <g id="id28">
       <path fill="none" stroke="rgb(0,0,0)" d="M 11800,5300 L 9991,6122"/>
       <path fill="rgb(0,0,0)" stroke="none" d="M 9600,6300 L 10072,6250 9948,5977 9600,6300 Z"/>
      </g>
     </g>
     <g class="com.sun.star.drawing.LineShape">
      <g id="id29">
       <path fill="none" stroke="rgb(0,0,0)" d="M 12400,5300 L 14209,6122"/>
       <path fill="rgb(0,0,0)" stroke="none" d="M 14600,6300 L 14252,5977 14128,6250 14600,6300 Z"/>
      </g>
     </g>
     <g class="com.sun.star.drawing.LineShape">
      <g id="id30">
       <path fill="none" stroke="rgb(0,0,0)" d="M 12100,5300 L 12100,6070"/>
       <path fill="rgb(0,0,0)" stroke="none" d="M 12100,6500 L 12250,6050 11950,6050 12100,6500 Z"/>
      </g>
     </g>
     <g class="com.sun.star.drawing.LineShape">
      <g id="id31">
       <path fill="none" stroke="rgb(0,0,0)" d="M 5000,5200 L 5000,5970"/>
       <path fill="rgb(0,0,0)" stroke="none" d="M 5000,6400 L 5150,5950 4850,5950 5000,6400 Z"/>
      </g>
     </g>
    </g>
   </g>
  </g>
 </g>
</svg>