<?xml version="1.0" encoding="UTF-8" standalone="no"?>
<svg
   xmlns:ooo="http://xml.openoffice.org/svg/export"
   xmlns:dc="http://purl.org/dc/elements/1.1/"
   xmlns:cc="http://creativecommons.org/ns#"
   xmlns:rdf="http://www.w3.org/1999/02/22-rdf-syntax-ns#"
   xmlns:svg="http://www.w3.org/2000/svg"
   xmlns="http://www.w3.org/2000/svg"
   xmlns:sodipodi="http://sodipodi.sourceforge.net/DTD/sodipodi-0.dtd"
   xmlns:inkscape="http://www.inkscape.org/namespaces/inkscape"
   version="1.2"
   width="387.99213"
   height="324.21259"
   viewBox="0 0 10950 9149.9996"
   preserveAspectRatio="xMidYMid"
   clip-path="url(#presentation_clip_path)"
   xml:space="preserve"
   id="svg5011"
   inkscape:version="0.48.2 r9819"
   sodipodi:docname="home-directories.svg"
   style="fill-rule:evenodd;stroke-width:28.22200012;stroke-linejoin:round"><metadata
   id="metadata5276"><rdf:RDF><cc:Work
       rdf:about=""><dc:format>image/svg+xml</dc:format><dc:type
         rdf:resource="http://purl.org/dc/dcmitype/StillImage" /></cc:Work></rdf:RDF></metadata><sodipodi:namedview
   pagecolor="#ffffff"
   bordercolor="#666666"
   borderopacity="1"
   objecttolerance="10"
   gridtolerance="10"
   guidetolerance="10"
   inkscape:pageopacity="0"
   inkscape:pageshadow="2"
   inkscape:window-width="640"
   inkscape:window-height="480"
   id="namedview5274"
   showgrid="false"
   fit-margin-top="0"
   fit-margin-left="0"
   fit-margin-right="0"
   fit-margin-bottom="0"
   inkscape:zoom="0.23838384"
   inkscape:cx="337.32283"
   inkscape:cy="-125.61024"
   inkscape:window-x="0"
   inkscape:window-y="0"
   inkscape:window-maximized="0"
   inkscape:current-layer="svg5011" />
 <defs
   class="ClipPathGroup"
   id="defs5013">
  <clipPath
   id="presentation_clip_path"
   clipPathUnits="userSpaceOnUse">
   <rect
   x="0"
   y="0"
   width="21590"
   height="27940"
   id="rect5016" />
  </clipPath>
 </defs>
 <defs
   class="TextShapeIndex"
   id="defs5018">
  <g
   ooo:slide="id1"
   ooo:id-list="id3 id4 id5 id6 id7 id8 id9 id10 id11 id12 id13 id14 id15 id16 id17 id18 id19 id20 id21 id22 id23 id24 id25"
   id="g5020" />
 </defs>
 <defs
   class="EmbeddedBulletChars"
   id="defs5022">
  <g
   id="bullet-char-template(57356)"
   transform="scale(4.8828125e-4,-4.8828125e-4)">
   <path
   d="M 580,1141 1163,571 580,0 -4,571 580,1141 z"
   id="path5025"
   inkscape:connector-curvature="0" />
  </g>
  <g
   id="bullet-char-template(57354)"
   transform="scale(4.8828125e-4,-4.8828125e-4)">
   <path
   d="m 8,1128 1129,0 L 1137,0 8,0 8,1128 z"
   id="path5028"
   inkscape:connector-curvature="0" />
  </g>
  <g
   id="bullet-char-template(10146)"
   transform="scale(4.8828125e-4,-4.8828125e-4)">
   <path
   d="M 174,0 602,739 174,1481 1456,739 174,0 z m 1184,739 -1049,607 350,-607 699,0 z"
   id="path5031"
   inkscape:connector-curvature="0" />
  </g>
  <g
   id="bullet-char-template(10132)"
   transform="scale(4.8828125e-4,-4.8828125e-4)">
   <path
   d="M 2015,739 1276,0 717,0 l 543,543 -1086,0 0,393 1086,0 -543,545 557,0 741,-742 z"
   id="path5034"
   inkscape:connector-curvature="0" />
  </g>
  <g
   id="bullet-char-template(10007)"
   transform="scale(4.8828125e-4,-4.8828125e-4)">
   <path
   d="m 0,-2 c -7,16 -16,29 -25,39 l 381,530 c -94,256 -141,385 -141,387 0,25 13,38 40,38 9,0 21,-2 34,-5 21,4 42,12 65,25 l 27,-13 111,-251 280,301 64,-25 24,25 c 21,-10 41,-24 62,-43 C 886,937 835,863 770,784 769,783 710,716 594,584 L 774,223 c 0,-27 -21,-55 -63,-84 l 16,-20 C 717,90 699,76 672,76 641,76 570,178 457,381 L 164,-76 c -22,-34 -53,-51 -92,-51 -42,0 -63,17 -64,51 -7,9 -10,24 -10,44 0,9 1,19 2,30 z"
   id="path5037"
   inkscape:connector-curvature="0" />
  </g>
  <g
   id="bullet-char-template(10004)"
   transform="scale(4.8828125e-4,-4.8828125e-4)">
   <path
   d="M 285,-33 C 182,-33 111,30 74,156 52,228 41,333 41,471 c 0,78 14,145 41,201 34,71 87,106 158,106 53,0 88,-31 106,-94 l 23,-176 c 8,-64 28,-97 59,-98 l 735,706 c 11,11 33,17 66,17 42,0 63,-15 63,-46 l 0,-122 c 0,-36 -10,-64 -30,-84 L 442,47 C 390,-6 338,-33 285,-33 z"
   id="path5040"
   inkscape:connector-curvature="0" />
  </g>
  <g
   id="bullet-char-template(9679)"
   transform="scale(4.8828125e-4,-4.8828125e-4)">
   <path
   d="M 813,0 C 632,0 489,54 383,161 276,268 223,411 223,592 c 0,181 53,324 160,431 106,107 249,161 430,161 179,0 323,-54 432,-161 108,-107 162,-251 162,-431 0,-180 -54,-324 -162,-431 C 1136,54 992,0 813,0 z"
   id="path5043"
   inkscape:connector-curvature="0" />
  </g>
  <g
   id="bullet-char-template(8226)"
   transform="scale(4.8828125e-4,-4.8828125e-4)">
   <path
   d="m 346,457 c -73,0 -137,26 -191,78 -54,51 -81,114 -81,188 0,73 27,136 81,188 54,52 118,78 191,78 73,0 134,-26 185,-79 51,-51 77,-114 77,-187 0,-75 -25,-137 -76,-188 -50,-52 -112,-78 -186,-78 z"
   id="path5046"
   inkscape:connector-curvature="0" />
  </g>
  <g
   id="bullet-char-template(8211)"
   transform="scale(4.8828125e-4,-4.8828125e-4)">
   <path
   d="m -4,459 1139,0 0,147 -1139,0 0,-147 z"
   id="path5049"
   inkscape:connector-curvature="0" />
  </g>
 </defs>
 <defs
   class="TextEmbeddedBitmaps"
   id="defs5051" />
 <g
   id="g5053"
   transform="translate(-1275,-1275)">
  <g
   id="id2"
   class="Master_Slide">
   <g
   id="bg-id2"
   class="Background" />
   <g
   id="bo-id2"
   class="BackgroundObjects" />
  </g>
 </g>
 <g
   class="SlideGroup"
   id="g5058"
   transform="translate(-1275,-1275)">
  <g
   id="g5060">
   <g
   id="id1"
   class="Slide"
   clip-path="url(#presentation_clip_path)">
    <g
   class="Page"
   id="g5063">
     <g
   class="Group"
   id="g5065">
      <g
   class="com.sun.star.drawing.CustomShape"
   id="g5067">
       <g
   id="id3">
        <path
   d="m 5950,2600 -1150,0 0,-1100 2300,0 0,1100 -1150,0 z"
   id="path5070"
   inkscape:connector-curvature="0"
   style="fill:none;stroke:#c0c0c0;stroke-width:50" />
        <text
   class="TextShape"
   id="text5072"><tspan
     class="TextParagraph"
     font-size="388px"
     font-weight="400"
     id="tspan5074"
     style="font-size:388px;font-weight:400;font-family:'Arial, sans-serif'"><tspan
       class="TextPosition"
       x="5897"
       y="2185"
       id="tspan5076"><tspan
         id="tspan5078"
         style="fill:#c0c0c0;stroke:none">/</tspan></tspan></tspan></text>

       </g>
      </g>
      <g
   class="com.sun.star.drawing.CustomShape"
   id="g5080">
       <g
   id="id4">
        <path
   d="m 4800,1500 1001,0 -251,-200 -500,0 -250,200 z"
   id="path5083"
   inkscape:connector-curvature="0"
   style="fill:none;stroke:#c0c0c0;stroke-width:50" />
       </g>
      </g>
     </g>
     <g
   class="Group"
   id="g5085">
      <g
   class="com.sun.star.drawing.CustomShape"
   id="g5087">
       <g
   id="id5">
        <path
   d="m 2450,5000 -1150,0 0,-1100 2300,0 0,1100 -1150,0 z"
   id="path5090"
   inkscape:connector-curvature="0"
   style="fill:none;stroke:#c0c0c0;stroke-width:50" />
        <text
   class="TextShape"
   id="text5092"><tspan
     class="TextParagraph"
     font-size="388px"
     font-weight="400"
     id="tspan5094"
     style="font-size:388px;font-weight:400;font-family:'Arial, sans-serif'"><tspan
       class="TextPosition"
       x="2192"
       y="4585"
       id="tspan5096"><tspan
         id="tspan5098"
         style="fill:#c0c0c0;stroke:none">bin</tspan></tspan></tspan></text>

       </g>
      </g>
      <g
   class="com.sun.star.drawing.CustomShape"
   id="g5100">
       <g
   id="id6">
        <path
   d="m 1300,3900 1001,0 -251,-200 -500,0 -250,200 z"
   id="path5103"
   inkscape:connector-curvature="0"
   style="fill:none;stroke:#c0c0c0;stroke-width:50" />
       </g>
      </g>
     </g>
     <g
   class="Group"
   id="g5105">
      <g
   class="com.sun.star.drawing.CustomShape"
   id="g5107">
       <g
   id="id7">
        <path
   d="m 9450,5100 -1150,0 0,-1100 2300,0 0,1100 -1150,0 z"
   id="path5110"
   inkscape:connector-curvature="0"
   style="fill:none;stroke:#c0c0c0;stroke-width:50" />
        <text
   class="TextShape"
   id="text5112"><tspan
     class="TextParagraph"
     font-size="388px"
     font-weight="400"
     id="tspan5114"
     style="font-size:388px;font-weight:400;font-family:'Arial, sans-serif'"><tspan
       class="TextPosition"
       x="9126"
       y="4685"
       id="tspan5116"><tspan
         id="tspan5118"
         style="fill:#c0c0c0;stroke:none">tmp</tspan></tspan></tspan></text>

       </g>
      </g>
      <g
   class="com.sun.star.drawing.CustomShape"
   id="g5120">
       <g
   id="id8">
        <path
   d="m 8300,4000 1001,0 -251,-200 -500,0 -250,200 z"
   id="path5123"
   inkscape:connector-curvature="0"
   style="fill:none;stroke:#c0c0c0;stroke-width:50" />
       </g>
      </g>
     </g>
     <g
   class="com.sun.star.drawing.LineShape"
   id="g5125">
      <g
   id="id9">
       <path
   d="M 5700,2700 3891,3522"
   id="path5128"
   inkscape:connector-curvature="0"
   style="fill:none;stroke:#c0c0c0" />
       <path
   d="m 3500,3700 472,-50 -124,-273 -348,323 z"
   id="path5130"
   inkscape:connector-curvature="0"
   style="fill:#c0c0c0;stroke:none" />
      </g>
     </g>
     <g
   class="com.sun.star.drawing.LineShape"
   id="g5132">
      <g
   id="id10">
       <path
   d="m 6300,2700 1809,822"
   id="path5135"
   inkscape:connector-curvature="0"
   style="fill:none;stroke:#c0c0c0" />
       <path
   d="m 8500,3700 -348,-323 -124,273 472,50 z"
   id="path5137"
   inkscape:connector-curvature="0"
   style="fill:#c0c0c0;stroke:none" />
      </g>
     </g>
     <g
   class="Group"
   id="g5139">
      <g
   class="com.sun.star.drawing.CustomShape"
   id="g5141">
       <g
   id="id11">
        <path
   d="m 4350,7000 -1150,0 0,-1100 2300,0 0,1100 -1150,0 z"
   id="path5144"
   inkscape:connector-curvature="0"
   style="fill:none;stroke:#c0c0c0;stroke-width:50" />
        <text
   class="TextShape"
   id="text5146"><tspan
     class="TextParagraph"
     font-size="388px"
     font-weight="400"
     id="tspan5148"
     style="font-size:388px;font-weight:400;font-family:'Arial, sans-serif'"><tspan
       class="TextPosition"
       x="3973"
       y="6585"
       id="tspan5150"><tspan
         id="tspan5152"
         style="fill:#c0c0c0;stroke:none">data</tspan></tspan></tspan></text>

       </g>
      </g>
      <g
   class="com.sun.star.drawing.CustomShape"
   id="g5154">
       <g
   id="id12">
        <path
   d="m 3200,5900 1001,0 -251,-200 -500,0 -250,200 z"
   id="path5157"
   inkscape:connector-curvature="0"
   style="fill:none;stroke:#c0c0c0;stroke-width:50" />
       </g>
      </g>
     </g>
     <g
   class="Group"
   id="g5159">
      <g
   class="com.sun.star.drawing.CustomShape"
   id="g5161">
       <g
   id="id13">
        <path
   d="m 7450,7000 -1150,0 0,-1100 2300,0 0,1100 -1150,0 z"
   id="path5164"
   inkscape:connector-curvature="0"
   style="fill:none;stroke:#000000;stroke-width:50" />
        <text
   class="TextShape"
   id="text5166"><tspan
     class="TextParagraph"
     font-size="388px"
     font-weight="400"
     id="tspan5168"
     style="font-size:388px;font-weight:400;font-family:'Arial, sans-serif'"><tspan
       class="TextPosition"
       x="6976"
       y="6585"
       id="tspan5170"><tspan
         id="tspan5172"
         style="fill:#000000;stroke:none">users</tspan></tspan></tspan></text>

       </g>
      </g>
      <g
   class="com.sun.star.drawing.CustomShape"
   id="g5174">
       <g
   id="id14">
        <path
   d="m 6300,5900 1001,0 -251,-200 -500,0 -250,200 z"
   id="path5177"
   inkscape:connector-curvature="0"
   style="fill:none;stroke:#000000;stroke-width:50" />
       </g>
      </g>
     </g>
     <g
   class="com.sun.star.drawing.LineShape"
   id="g5179">
      <g
   id="id15">
       <path
   d="M 5900,2700 4864,5203"
   id="path5182"
   inkscape:connector-curvature="0"
   style="fill:none;stroke:#c0c0c0" />
       <path
   d="m 4700,5600 311,-358 -278,-115 -33,473 z"
   id="path5184"
   inkscape:connector-curvature="0"
   style="fill:#c0c0c0;stroke:none" />
      </g>
     </g>
     <g
   class="com.sun.star.drawing.LineShape"
   id="g5186">
      <g
   id="id16">
       <path
   d="M 6100,2700 7136,5203"
   id="path5189"
   inkscape:connector-curvature="0"
   style="fill:none;stroke:#c0c0c0" />
       <path
   d="m 7300,5600 -33,-473 -278,115 311,358 z"
   id="path5191"
   inkscape:connector-curvature="0"
   style="fill:#c0c0c0;stroke:none" />
      </g>
     </g>
     <g
   class="Group"
   id="g5193">
      <g
   class="com.sun.star.drawing.CustomShape"
   id="g5195">
       <g
   id="id17">
        <path
   d="m 11050,9700 -1150,0 0,-1100 2300,0 0,1100 -1150,0 z"
   id="path5198"
   inkscape:connector-curvature="0"
   style="fill:none;stroke:#000000;stroke-width:50" />
        <text
   class="TextShape"
   id="text5200"><tspan
     class="TextParagraph"
     font-size="388px"
     font-weight="400"
     id="tspan5202"
     style="font-size:388px;font-weight:400;font-family:'Arial, sans-serif'"><tspan
       class="TextPosition"
       x="10695"
       y="9285"
       id="tspan5204"><tspan
         id="tspan5206"
         style="fill:#000000;stroke:none">vlad</tspan></tspan></tspan></text>

       </g>
      </g>
      <g
   class="com.sun.star.drawing.CustomShape"
   id="g5208">
       <g
   id="id18">
        <path
   d="m 9900,8600 1001,0 -251,-200 -500,0 -250,200 z"
   id="path5211"
   inkscape:connector-curvature="0"
   style="fill:none;stroke:#000000;stroke-width:50" />
       </g>
      </g>
     </g>
     <g
   class="com.sun.star.drawing.LineShape"
   id="g5213">
      <g
   id="id19">
       <path
   d="m 7900,7300 1809,822"
   id="path5216"
   inkscape:connector-curvature="0"
   style="fill:none;stroke:#000000" />
       <path
   d="m 10100,8300 -348,-323 -124,273 472,50 z"
   id="path5218"
   inkscape:connector-curvature="0"
   style="fill:#000000;stroke:none" />
      </g>
     </g>
     <g
   class="Group"
   id="g5220">
      <g
   class="com.sun.star.drawing.CustomShape"
   id="g5222">
       <g
   id="id20">
        <path
   d="m 3850,9600 -1150,0 0,-1100 2300,0 0,1100 -1150,0 z"
   id="path5225"
   inkscape:connector-curvature="0"
   style="fill:none;stroke:#000000;stroke-width:50" />
        <text
   class="TextShape"
   id="text5227"><tspan
     class="TextParagraph"
     font-size="388px"
     font-weight="400"
     id="tspan5229"
     style="font-size:388px;font-weight:400;font-family:'Arial, sans-serif'"><tspan
       class="TextPosition"
       x="3160"
       y="9185"
       id="tspan5231"><tspan
         id="tspan5233"
         style="fill:#000000;stroke:none">imhotep</tspan></tspan></tspan></text>

       </g>
      </g>
      <g
   class="com.sun.star.drawing.CustomShape"
   id="g5235">
       <g
   id="id21">
        <path
   d="m 2700,8500 1001,0 -251,-200 -500,0 -250,200 z"
   id="path5238"
   inkscape:connector-curvature="0"
   style="fill:none;stroke:#000000;stroke-width:50" />
       </g>
      </g>
     </g>
     <g
   class="Group"
   id="g5240">
      <g
   class="com.sun.star.drawing.CustomShape"
   id="g5242">
       <g
   id="id22">
        <path
   d="m 7250,10400 -1150,0 0,-1100 2300,0 0,1100 -1150,0 z"
   id="path5245"
   inkscape:connector-curvature="0"
   style="fill:none;stroke:#000000;stroke-width:50" />
        <text
   class="TextShape"
   id="text5247"><tspan
     class="TextParagraph"
     font-size="388px"
     font-weight="400"
     id="tspan5249"
     style="font-size:388px;font-weight:400;font-family:'Arial, sans-serif'"><tspan
       class="TextPosition"
       x="6873"
       y="9985"
       id="tspan5251"><tspan
         id="tspan5253"
         style="fill:#000000;stroke:none">larry</tspan></tspan></tspan></text>

       </g>
      </g>
      <g
   class="com.sun.star.drawing.CustomShape"
   id="g5255">
       <g
   id="id23">
        <path
   d="m 6100,9300 1001,0 -251,-200 -500,0 -250,200 z"
   id="path5258"
   inkscape:connector-curvature="0"
   style="fill:none;stroke:#000000;stroke-width:50" />
       </g>
      </g>
     </g>
     <g
   class="com.sun.star.drawing.LineShape"
   id="g5260">
      <g
   id="id24">
       <path
   d="M 7000,7300 5191,8122"
   id="path5263"
   inkscape:connector-curvature="0"
   style="fill:none;stroke:#000000" />
       <path
   d="m 4800,8300 472,-50 -124,-273 -348,323 z"
   id="path5265"
   inkscape:connector-curvature="0"
   style="fill:#000000;stroke:none" />
      </g>
     </g>
     <g
   class="com.sun.star.drawing.LineShape"
   id="g5267">
      <g
   id="id25">
       <path
   d="m 7400,7300 0,1270"
   id="path5270"
   inkscape:connector-curvature="0"
   style="fill:none;stroke:#000000" />
       <path
   d="m 7400,9000 150,-450 -300,0 150,450 z"
   id="path5272"
   inkscape:connector-curvature="0"
   style="fill:#000000;stroke:none" />
      </g>
     </g>
    </g>
   </g>
  </g>
 </g>
</svg>