<?xml version="1.0" encoding="UTF-8"?>
<!DOCTYPE svg PUBLIC "-//W3C//DTD SVG 1.1//EN" "http://www.w3.org/Graphics/SVG/1.1/DTD/svg11.dtd">
<svg version="1.2" width="215.9mm" height="279.4mm" viewBox="0 0 21590 27940" preserveAspectRatio="xMidYMid" fill-rule="evenodd" clip-path="url(#presentation_clip_path)" stroke-width="28.222" stroke-linejoin="round" xmlns="http://www.w3.org/2000/svg" xmlns:ooo="http://xml.openoffice.org/svg/export" xmlns:xlink="http://www.w3.org/1999/xlink" xml:space="preserve">
 <defs class="ClipPathGroup">
  <clipPath id="presentation_clip_path" clipPathUnits="userSpaceOnUse">
   <rect x="0" y="0" width="21590" height="27940"/>
  </clipPath>
 </defs>
 <defs class="TextShapeIndex">
  <g ooo:slide="id1" ooo:id-list="id3 id4 id5 id6 id7 id8 id9 id10 id11 id12 id13 id14 id15 id16 id17 id18 id19 id20 id21 id22 id23 id24 id25"/>
 </defs>
 <defs class="EmbeddedBulletChars">
  <g id="bullet-char-template(57356)" transform="scale(0.00048828125,-0.00048828125)">
   <path d="M 580,1141 L 1163,571 580,0 -4,571 580,1141 Z"/>
  </g>
  <g id="bullet-char-template(57354)" transform="scale(0.00048828125,-0.00048828125)">
   <path d="M 8,1128 L 1137,1128 1137,0 8,0 8,1128 Z"/>
  </g>
  <g id="bullet-char-template(10146)" transform="scale(0.00048828125,-0.00048828125)">
   <path d="M 174,0 L 602,739 174,1481 1456,739 174,0 Z M 1358,739 L 309,1346 659,739 1358,739 Z"/>
  </g>
  <g id="bullet-char-template(10132)" transform="scale(0.00048828125,-0.00048828125)">
   <path d="M 2015,739 L 1276,0 717,0 1260,543 174,543 174,936 1260,936 717,1481 1274,1481 2015,739 Z"/>
  </g>
  <g id="bullet-char-template(10007)" transform="scale(0.00048828125,-0.00048828125)">
   <path d="M 0,-2 C -7,14 -16,27 -25,37 L 356,567 C 262,823 215,952 215,954 215,979 228,992 255,992 264,992 276,990 289,987 310,991 331,999 354,1012 L 381,999 492,748 772,1049 836,1024 860,1049 C 881,1039 901,1025 922,1006 886,937 835,863 770,784 769,783 710,716 594,584 L 774,223 C 774,196 753,168 711,139 L 727,119 C 717,90 699,76 672,76 641,76 570,178 457,381 L 164,-76 C 142,-110 111,-127 72,-127 30,-127 9,-110 8,-76 1,-67 -2,-52 -2,-32 -2,-23 -1,-13 0,-2 Z"/>
  </g>
  <g id="bullet-char-template(10004)" transform="scale(0.00048828125,-0.00048828125)">
   <path d="M 285,-33 C 182,-33 111,30 74,156 52,228 41,333 41,471 41,549 55,616 82,672 116,743 169,778 240,778 293,778 328,747 346,684 L 369,508 C 377,444 397,411 428,410 L 1163,1116 C 1174,1127 1196,1133 1229,1133 1271,1133 1292,1118 1292,1087 L 1292,965 C 1292,929 1282,901 1262,881 L 442,47 C 390,-6 338,-33 285,-33 Z"/>
  </g>
  <g id="bullet-char-template(9679)" transform="scale(0.00048828125,-0.00048828125)">
   <path d="M 813,0 C 632,0 489,54 383,161 276,268 223,411 223,592 223,773 276,916 383,1023 489,1130 632,1184 813,1184 992,1184 1136,1130 1245,1023 1353,916 1407,772 1407,592 1407,412 1353,268 1245,161 1136,54 992,0 813,0 Z"/>
  </g>
  <g id="bullet-char-template(8226)" transform="scale(0.00048828125,-0.00048828125)">
   <path d="M 346,457 C 273,457 209,483 155,535 101,586 74,649 74,723 74,796 101,859 155,911 209,963 273,989 346,989 419,989 480,963 531,910 582,859 608,796 608,723 608,648 583,586 532,535 482,483 420,457 346,457 Z"/>
  </g>
  <g id="bullet-char-template(8211)" transform="scale(0.00048828125,-0.00048828125)">
   <path d="M -4,459 L 1135,459 1135,606 -4,606 -4,459 Z"/>
  </g>
 </defs>
 <defs class="TextEmbeddedBitmaps"/>
 <g>
  <g id="id2" class="Master_Slide">
   <g id="bg-id2" class="Background"/>
   <g id="bo-id2" class="BackgroundObjects"/>
  </g>
 </g>
 <g class="SlideGroup">
  <g>
   <g id="id1" class="Slide" clip-path="url(#presentation_clip_path)">
    <g class="Page">
     <g class="Group">
      <g class="com.sun.star.drawing.CustomShape">
       <g id="id3">
        <path fill="none" stroke="rgb(192,192,192)" stroke-width="50" d="M 5950,2600 L 4800,2600 4800,1500 7100,1500 7100,2600 5950,2600 Z"/>
        <text class="TextShape"><tspan class="TextParagraph" font-family="Arial, sans-serif" font-size="388px" font-weight="400"><tspan class="TextPosition" x="5897" y="2185"><tspan fill="rgb(192,192,192)" stroke="none">/</tspan></tspan></tspan></text>
       </g>
      </g>
      <g class="com.sun.star.drawing.CustomShape">
       <g id="id4">
        <path fill="none" stroke="rgb(192,192,192)" stroke-width="50" d="M 4800,1500 L 5801,1500 5550,1300 5050,1300 4800,1500 Z"/>
       </g>
      </g>
     </g>
     <g class="Group">
      <g class="com.sun.star.drawing.CustomShape">
       <g id="id5">
        <path fill="none" stroke="rgb(192,192,192)" stroke-width="50" d="M 2450,5000 L 1300,5000 1300,3900 3600,3900 3600,5000 2450,5000 Z"/>
        <text class="TextShape"><tspan class="TextParagraph" font-family="Arial, sans-serif" font-size="388px" font-weight="400"><tspan class="TextPosition" x="2192" y="4585"><tspan fill="rgb(192,192,192)" stroke="none">bin</tspan></tspan></tspan></text>
       </g>
      </g>
      <g class="com.sun.star.drawing.CustomShape">
       <g id="id6">
        <path fill="none" stroke="rgb(192,192,192)" stroke-width="50" d="M 1300,3900 L 2301,3900 2050,3700 1550,3700 1300,3900 Z"/>
       </g>
      </g>
     </g>
     <g class="Group">
      <g class="com.sun.star.drawing.CustomShape">
       <g id="id7">
        <path fill="none" stroke="rgb(192,192,192)" stroke-width="50" d="M 9450,5100 L 8300,5100 8300,4000 10600,4000 10600,5100 9450,5100 Z"/>
        <text class="TextShape"><tspan class="TextParagraph" font-family="Arial, sans-serif" font-size="388px" font-weight="400"><tspan class="TextPosition" x="9126" y="4685"><tspan fill="rgb(192,192,192)" stroke="none">tmp</tspan></tspan></tspan></text>
       </g>
      </g>
      <g class="com.sun.star.drawing.CustomShape">
       <g id="id8">
        <path fill="none" stroke="rgb(192,192,192)" stroke-width="50" d="M 8300,4000 L 9301,4000 9050,3800 8550,3800 8300,4000 Z"/>
       </g>
      </g>
     </g>
     <g class="com.sun.star.drawing.LineShape">
      <g id="id9">
       <path fill="none" stroke="rgb(192,192,192)" d="M 5700,2700 L 3891,3522"/>
       <path fill="rgb(192,192,192)" stroke="none" d="M 3500,3700 L 3972,3650 3848,3377 3500,3700 Z"/>
      </g>
     </g>
     <g class="com.sun.star.drawing.LineShape">
      <g id="id10">
       <path fill="none" stroke="rgb(192,192,192)" d="M 6300,2700 L 8109,3522"/>
       <path fill="rgb(192,192,192)" stroke="none" d="M 8500,3700 L 8152,3377 8028,3650 8500,3700 Z"/>
      </g>
     </g>
     <g class="Group">
      <g class="com.sun.star.drawing.CustomShape">
       <g id="id11">
        <path fill="none" stroke="rgb(192,192,192)" stroke-width="50" d="M 4350,7000 L 3200,7000 3200,5900 5500,5900 5500,7000 4350,7000 Z"/>
        <text class="TextShape"><tspan class="TextParagraph" font-family="Arial, sans-serif" font-size="388px" font-weight="400"><tspan class="TextPosition" x="3973" y="6585"><tspan fill="rgb(192,192,192)" stroke="none">data</tspan></tspan></tspan></text>
       </g>
      </g>
      <g class="com.sun.star.drawing.CustomShape">
       <g id="id12">
        <path fill="none" stroke="rgb(192,192,192)" stroke-width="50" d="M 3200,5900 L 4201,5900 3950,5700 3450,5700 3200,5900 Z"/>
       </g>
      </g>
     </g>
     <g class="Group">
      <g class="com.sun.star.drawing.CustomShape">
       <g id="id13">
        <path fill="none" stroke="rgb(0,0,0)" stroke-width="50" d="M 7450,7000 L 6300,7000 6300,5900 8600,5900 8600,7000 7450,7000 Z"/>
        <text class="TextShape"><tspan class="TextParagraph" font-family="Arial, sans-serif" font-size="388px" font-weight="400"><tspan class="TextPosition" x="6976" y="6585"><tspan fill="rgb(0,0,0)" stroke="none">users</tspan></tspan></tspan></text>
       </g>
      </g>
      <g class="com.sun.star.drawing.CustomShape">
       <g id="id14">
        <path fill="none" stroke="rgb(0,0,0)" stroke-width="50" d="M 6300,5900 L 7301,5900 7050,5700 6550,5700 6300,5900 Z"/>
       </g>
      </g>
     </g>
     <g class="com.sun.star.drawing.LineShape">
      <g id="id15">
       <path fill="none" stroke="rgb(192,192,192)" d="M 5900,2700 L 4864,5203"/>
       <path fill="rgb(192,192,192)" stroke="none" d="M 4700,5600 L 5011,5242 4733,5127 4700,5600 Z"/>
      </g>
     </g>
     <g class="com.sun.star.drawing.LineShape">
      <g id="id16">
       <path fill="none" stroke="rgb(192,192,192)" d="M 6100,2700 L 7136,5203"/>
       <path fill="rgb(192,192,192)" stroke="none" d="M 7300,5600 L 7267,5127 6989,5242 7300,5600 Z"/>
      </g>
     </g>
     <g class="Group">
      <g class="com.sun.star.drawing.CustomShape">
       <g id="id17">
        <path fill="none" stroke="rgb(0,0,0)" stroke-width="50" d="M 11050,9700 L 9900,9700 9900,8600 12200,8600 12200,9700 11050,9700 Z"/>
        <text class="TextShape"><tspan class="TextParagraph" font-family="Arial, sans-serif" font-size="388px" font-weight="400"><tspan class="TextPosition" x="10695" y="9285"><tspan fill="rgb(0,0,0)" stroke="none">vlad</tspan></tspan></tspan></text>
       </g>
      </g>
      <g class="com.sun.star.drawing.CustomShape">
       <g id="id18">
        <path fill="none" stroke="rgb(0,0,0)" stroke-width="50" d="M 9900,8600 L 10901,8600 10650,8400 10150,8400 9900,8600 Z"/>
       </g>
      </g>
     </g>
     <g class="com.sun.star.drawing.LineShape">
      <g id="id19">
       <path fill="none" stroke="rgb(0,0,0)" d="M 7900,7300 L 9709,8122"/>
       <path fill="rgb(0,0,0)" stroke="none" d="M 10100,8300 L 9752,7977 9628,8250 10100,8300 Z"/>
      </g>
     </g>
     <g class="Group">
      <g class="com.sun.star.drawing.CustomShape">
       <g id="id20">
        <path fill="none" stroke="rgb(0,0,0)" stroke-width="50" d="M 3850,9600 L 2700,9600 2700,8500 5000,8500 5000,9600 3850,9600 Z"/>
        <text class="TextShape"><tspan class="TextParagraph" font-family="Arial, sans-serif" font-size="388px" font-weight="400"><tspan class="TextPosition" x="3160" y="9185"><tspan fill="rgb(0,0,0)" stroke="none">imhotep</tspan></tspan></tspan></text>
       </g>
      </g>
      <g class="com.sun.star.drawing.CustomShape">
       <g id="id21">
        <path fill="none" stroke="rgb(0,0,0)" stroke-width="50" d="M 2700,8500 L 3701,8500 3450,8300 2950,8300 2700,8500 Z"/>
       </g>
      </g>
     </g>
     <g class="Group">
      <g class="com.sun.star.drawing.CustomShape">
       <g id="id22">
        <path fill="none" stroke="rgb(0,0,0)" stroke-width="50" d="M 7250,10400 L 6100,10400 6100,9300 8400,9300 8400,10400 7250,10400 Z"/>
        <text class="TextShape"><tspan class="TextParagraph" font-family="Arial, sans-serif" font-size="388px" font-weight="400"><tspan class="TextPosition" x="6873" y="9985"><tspan fill="rgb(0,0,0)" stroke="none">larry</tspan></tspan></tspan></text>
       </g>
      </g>
      <g class="com.sun.star.drawing.CustomShape">
       <g id="id23">
        <path fill="none" stroke="rgb(0,0,0)" stroke-width="50" d="M 6100,9300 L 7101,9300 6850,9100 6350,9100 6100,9300 Z"/>
       </g>
      </g>
     </g>
     <g class="com.sun.star.drawing.LineShape">
      <g id="id24">
       <path fill="none" stroke="rgb(0,0,0)" d="M 7000,7300 L 5191,8122"/>
       <path fill="rgb(0,0,0)" stroke="none" d="M 4800,8300 L 5272,8250 5148,7977 4800,8300 Z"/>
      </g>
     </g>
     <g class="com.sun.star.drawing.LineShape">
      <g id="id25">
       <path fill="none" stroke="rgb(0,0,0)" d="M 7400,7300 L 7400,8570"/>
       <path fill="rgb(0,0,0)" stroke="none" d="M 7400,9000 L 7550,8550 7250,8550 7400,9000 Z"/>
      </g>
     </g>
    </g>
   </g>
  </g>
 </g>
</svg>