<?xml version="1.0" encoding="UTF-8" standalone="no"?>
<svg
   xmlns:ooo="http://xml.openoffice.org/svg/export"
   xmlns:dc="http://purl.org/dc/elements/1.1/"
   xmlns:cc="http://creativecommons.org/ns#"
   xmlns:rdf="http://www.w3.org/1999/02/22-rdf-syntax-ns#"
   xmlns:svg="http://www.w3.org/2000/svg"
   xmlns="http://www.w3.org/2000/svg"
   xmlns:sodipodi="http://sodipodi.sourceforge.net/DTD/sodipodi-0.dtd"
   xmlns:inkscape="http://www.inkscape.org/namespaces/inkscape"
   version="1.2"
   width="621.8504"
   height="260.43307"
   viewBox="0 0 17550 7350.0001"
   preserveAspectRatio="xMidYMid"
   clip-path="url(#presentation_clip_path)"
   xml:space="preserve"
   id="svg2"
   inkscape:version="0.48.2 r9819"
   sodipodi:docname="nelle-homedir.svg"
   style="fill-rule:evenodd;stroke-width:28.22200012;stroke-linejoin:round"><metadata
   id="metadata417"><rdf:RDF><cc:Work
       rdf:about=""><dc:format>image/svg+xml</dc:format><dc:type
         rdf:resource="http://purl.org/dc/dcmitype/StillImage" /></cc:Work></rdf:RDF></metadata><sodipodi:namedview
   pagecolor="#ffffff"
   bordercolor="#666666"
   borderopacity="1"
   objecttolerance="10"
   gridtolerance="10"
   guidetolerance="10"
   inkscape:pageopacity="0"
   inkscape:pageshadow="2"
   inkscape:window-width="640"
   inkscape:window-height="480"
   id="namedview415"
   showgrid="false"
   fit-margin-top="0"
   fit-margin-left="0"
   fit-margin-right="0"
   fit-margin-bottom="0"
   inkscape:zoom="0.67425131"
   inkscape:cx="340.86614"
   inkscape:cy="103.69223"
   inkscape:window-x="0"
   inkscape:window-y="0"
   inkscape:window-maximized="0"
   inkscape:current-layer="svg2" />
 <defs
   class="ClipPathGroup"
   id="defs4">
  <clipPath
   id="presentation_clip_path"
   clipPathUnits="userSpaceOnUse">
   <rect
   x="0"
   y="0"
   width="21590"
   height="27940"
   id="rect7" />
  </clipPath>
 </defs>
 <defs
   class="TextShapeIndex"
   id="defs9">
  <g
   ooo:slide="id1"
   ooo:id-list="id3 id4 id5 id6 id7 id8 id9 id10 id11 id12 id13 id14 id15 id16 id17 id18 id19 id20 id21 id22 id23 id24 id25 id26 id27 id28 id29 id30 id31 id32 id33 id34 id35 id36 id37 id38 id39 id40 id41 id42 id43 id44 id45 id46 id47 id48 id49"
   id="g11" />
 </defs>
 <defs
   class="EmbeddedBulletChars"
   id="defs13">
  <g
   id="bullet-char-template(57356)"
   transform="scale(4.8828125e-4,-4.8828125e-4)">
   <path
   d="M 580,1141 1163,571 580,0 -4,571 580,1141 z"
   id="path16"
   inkscape:connector-curvature="0" />
  </g>
  <g
   id="bullet-char-template(57354)"
   transform="scale(4.8828125e-4,-4.8828125e-4)">
   <path
   d="m 8,1128 1129,0 L 1137,0 8,0 8,1128 z"
   id="path19"
   inkscape:connector-curvature="0" />
  </g>
  <g
   id="bullet-char-template(10146)"
   transform="scale(4.8828125e-4,-4.8828125e-4)">
   <path
   d="M 174,0 602,739 174,1481 1456,739 174,0 z m 1184,739 -1049,607 350,-607 699,0 z"
   id="path22"
   inkscape:connector-curvature="0" />
  </g>
  <g
   id="bullet-char-template(10132)"
   transform="scale(4.8828125e-4,-4.8828125e-4)">
   <path
   d="M 2015,739 1276,0 717,0 l 543,543 -1086,0 0,393 1086,0 -543,545 557,0 741,-742 z"
   id="path25"
   inkscape:connector-curvature="0" />
  </g>
  <g
   id="bullet-char-template(10007)"
   transform="scale(4.8828125e-4,-4.8828125e-4)">
   <path
   d="m 0,-2 c -7,16 -16,29 -25,39 l 381,530 c -94,256 -141,385 -141,387 0,25 13,38 40,38 9,0 21,-2 34,-5 21,4 42,12 65,25 l 27,-13 111,-251 280,301 64,-25 24,25 c 21,-10 41,-24 62,-43 C 886,937 835,863 770,784 769,783 710,716 594,584 L 774,223 c 0,-27 -21,-55 -63,-84 l 16,-20 C 717,90 699,76 672,76 641,76 570,178 457,381 L 164,-76 c -22,-34 -53,-51 -92,-51 -42,0 -63,17 -64,51 -7,9 -10,24 -10,44 0,9 1,19 2,30 z"
   id="path28"
   inkscape:connector-curvature="0" />
  </g>
  <g
   id="bullet-char-template(10004)"
   transform="scale(4.8828125e-4,-4.8828125e-4)">
   <path
   d="M 285,-33 C 182,-33 111,30 74,156 52,228 41,333 41,471 c 0,78 14,145 41,201 34,71 87,106 158,106 53,0 88,-31 106,-94 l 23,-176 c 8,-64 28,-97 59,-98 l 735,706 c 11,11 33,17 66,17 42,0 63,-15 63,-46 l 0,-122 c 0,-36 -10,-64 -30,-84 L 442,47 C 390,-6 338,-33 285,-33 z"
   id="path31"
   inkscape:connector-curvature="0" />
  </g>
  <g
   id="bullet-char-template(9679)"
   transform="scale(4.8828125e-4,-4.8828125e-4)">
   <path
   d="M 813,0 C 632,0 489,54 383,161 276,268 223,411 223,592 c 0,181 53,324 160,431 106,107 249,161 430,161 179,0 323,-54 432,-161 108,-107 162,-251 162,-431 0,-180 -54,-324 -162,-431 C 1136,54 992,0 813,0 z"
   id="path34"
   inkscape:connector-curvature="0" />
  </g>
  <g
   id="bullet-char-template(8226)"
   transform="scale(4.8828125e-4,-4.8828125e-4)">
   <path
   d="m 346,457 c -73,0 -137,26 -191,78 -54,51 -81,114 -81,188 0,73 27,136 81,188 54,52 118,78 191,78 73,0 134,-26 185,-79 51,-51 77,-114 77,-187 0,-75 -25,-137 -76,-188 -50,-52 -112,-78 -186,-78 z"
   id="path37"
   inkscape:connector-curvature="0" />
  </g>
  <g
   id="bullet-char-template(8211)"
   transform="scale(4.8828125e-4,-4.8828125e-4)">
   <path
   d="m -4,459 1139,0 0,147 -1139,0 0,-147 z"
   id="path40"
   inkscape:connector-curvature="0" />
  </g>
 </defs>
 <defs
   class="TextEmbeddedBitmaps"
   id="defs42" />
 <g
   id="g44"
   transform="translate(-1175,-1175)">
  <g
   id="id2"
   class="Master_Slide">
   <g
   id="bg-id2"
   class="Background" />
   <g
   id="bo-id2"
   class="BackgroundObjects" />
  </g>
 </g>
 <g
   class="SlideGroup"
   id="g49"
   transform="translate(-1175,-1175)">
  <g
   id="g51">
   <g
   id="id1"
   class="Slide"
   clip-path="url(#presentation_clip_path)">
    <g
   class="Page"
   id="g54">
     <g
   class="Group"
   id="g56">
      <g
   class="com.sun.star.drawing.CustomShape"
   id="g58">
       <g
   id="id3">
        <path
   d="m 10150,2500 -1150,0 0,-1100 2300,0 0,1100 -1150,0 z"
   id="path61"
   inkscape:connector-curvature="0"
   style="fill:none;stroke:#000000;stroke-width:50" />
        <text
   class="TextShape"
   id="text63"><tspan
     class="TextParagraph"
     font-size="388px"
     font-weight="400"
     id="tspan65"
     style="font-size:388px;font-weight:400;font-family:'Arial, sans-serif'"><tspan
       class="TextPosition"
       x="9740"
       y="2085"
       id="tspan67"><tspan
         id="tspan69"
         style="fill:#000000;stroke:none">nelle</tspan></tspan></tspan></text>

       </g>
      </g>
      <g
   class="com.sun.star.drawing.CustomShape"
   id="g71">
       <g
   id="id4">
        <path
   d="m 9000,1400 1001,0 -251,-200 -500,0 -250,200 z"
   id="path74"
   inkscape:connector-curvature="0"
   style="fill:none;stroke:#000000;stroke-width:50" />
       </g>
      </g>
     </g>
     <g
   class="Group"
   id="g76">
      <g
   class="com.sun.star.drawing.CustomShape"
   id="g78">
       <g
   id="id5">
        <path
   d="m 8350,5300 -1150,0 0,-1100 2300,0 0,1100 -1150,0 z"
   id="path81"
   inkscape:connector-curvature="0"
   style="fill:none;stroke:#000000;stroke-width:50" />
        <text
   class="TextShape"
   id="text83"><tspan
     class="TextParagraph"
     font-size="388px"
     font-weight="400"
     id="tspan85"
     style="font-size:388px;font-weight:400;font-family:'Arial, sans-serif'"><tspan
       class="TextPosition"
       x="7995"
       y="4885"
       id="tspan87"><tspan
         id="tspan89"
         style="fill:#000000;stroke:none">mail</tspan></tspan></tspan></text>

       </g>
      </g>
      <g
   class="com.sun.star.drawing.CustomShape"
   id="g91">
       <g
   id="id6">
        <path
   d="m 7200,4200 1001,0 -251,-200 -500,0 -250,200 z"
   id="path94"
   inkscape:connector-curvature="0"
   style="fill:none;stroke:#000000;stroke-width:50" />
       </g>
      </g>
     </g>
     <g
   class="Group"
   id="g96">
      <g
   class="com.sun.star.drawing.CustomShape"
   id="g98">
       <g
   id="id7">
        <path
   d="m 2350,5300 -1150,0 0,-1100 2300,0 0,1100 -1150,0 z"
   id="path101"
   inkscape:connector-curvature="0"
   style="fill:none;stroke:#000000;stroke-width:50" />
        <text
   class="TextShape"
   id="text103"><tspan
     class="TextParagraph"
     font-size="388px"
     font-weight="400"
     id="tspan105"
     style="font-size:388px;font-weight:400;font-family:'Arial, sans-serif'"><tspan
       class="TextPosition"
       x="2092"
       y="4885"
       id="tspan107"><tspan
         id="tspan109"
         style="fill:#000000;stroke:none">bin</tspan></tspan></tspan></text>

       </g>
      </g>
      <g
   class="com.sun.star.drawing.CustomShape"
   id="g111">
       <g
   id="id8">
        <path
   d="m 1200,4200 1001,0 -251,-200 -500,0 -250,200 z"
   id="path114"
   inkscape:connector-curvature="0"
   style="fill:none;stroke:#000000;stroke-width:50" />
       </g>
      </g>
     </g>
     <g
   class="Group"
   id="g116">
      <g
   class="com.sun.star.drawing.CustomShape"
   id="g118">
       <g
   id="id9">
        <path
   d="m 5350,5300 -1150,0 0,-1100 2300,0 0,1100 -1150,0 z"
   id="path121"
   inkscape:connector-curvature="0"
   style="fill:none;stroke:#000000;stroke-width:50" />
        <text
   class="TextShape"
   id="text123"><tspan
     class="TextParagraph"
     font-size="388px"
     font-weight="400"
     id="tspan125"
     style="font-size:388px;font-weight:400;font-family:'Arial, sans-serif'"><tspan
       class="TextPosition"
       x="4973"
       y="4885"
       id="tspan127"><tspan
         id="tspan129"
         style="fill:#000000;stroke:none">data</tspan></tspan></tspan></text>

       </g>
      </g>
      <g
   class="com.sun.star.drawing.CustomShape"
   id="g131">
       <g
   id="id10">
        <path
   d="m 4200,4200 1001,0 -251,-200 -500,0 -250,200 z"
   id="path134"
   inkscape:connector-curvature="0"
   style="fill:none;stroke:#000000;stroke-width:50" />
       </g>
      </g>
     </g>
     <g
   class="Group"
   id="g136">
      <g
   class="com.sun.star.drawing.CustomShape"
   id="g138">
       <g
   id="id11">
        <path
   d="m 14550,5400 -1150,0 0,-1100 2300,0 0,1100 -1150,0 z"
   id="path141"
   inkscape:connector-curvature="0"
   style="fill:none;stroke:#000000;stroke-width:50" />
        <text
   class="TextShape"
   id="text143"><tspan
     class="TextParagraph"
     font-size="388px"
     font-weight="400"
     id="tspan145"
     style="font-size:388px;font-weight:400;font-family:'Arial, sans-serif'"><tspan
       class="TextPosition"
       x="14044"
       y="4985"
       id="tspan147"><tspan
         id="tspan149"
         style="fill:#000000;stroke:none">music</tspan></tspan></tspan></text>

       </g>
      </g>
      <g
   class="com.sun.star.drawing.CustomShape"
   id="g151">
       <g
   id="id12">
        <path
   d="m 13400,4300 1001,0 -251,-200 -500,0 -250,200 z"
   id="path154"
   inkscape:connector-curvature="0"
   style="fill:none;stroke:#000000;stroke-width:50" />
       </g>
      </g>
     </g>
     <g
   class="Group"
   id="g156">
      <g
   class="com.sun.star.drawing.CustomShape"
   id="g158">
       <g
   id="id13">
        <path
   d="m 17550,5400 -1150,0 0,-1100 2300,0 0,1100 -1150,0 z"
   id="path161"
   inkscape:connector-curvature="0"
   style="fill:none;stroke:#000000;stroke-width:50" />
        <text
   class="TextShape"
   id="text163"><tspan
     class="TextParagraph"
     font-size="388px"
     font-weight="400"
     id="tspan165"
     style="font-size:388px;font-weight:400;font-family:'Arial, sans-serif'"><tspan
       class="TextPosition"
       x="16958"
       y="4985"
       id="tspan167"><tspan
         id="tspan169"
         style="fill:#000000;stroke:none">papers</tspan></tspan></tspan></text>

       </g>
      </g>
      <g
   class="com.sun.star.drawing.CustomShape"
   id="g171">
       <g
   id="id14">
        <path
   d="m 16400,4300 1001,0 -251,-200 -500,0 -250,200 z"
   id="path174"
   inkscape:connector-curvature="0"
   style="fill:none;stroke:#000000;stroke-width:50" />
       </g>
      </g>
     </g>
     <g
   class="Group"
   id="g176">
      <g
   class="com.sun.star.drawing.LineShape"
   id="g178">
       <g
   id="id15">
        <path
   d="m 10892,4300 0,1100"
   id="path181"
   inkscape:connector-curvature="0"
   style="fill:none;stroke:#000000;stroke-width:50" />
       </g>
      </g>
      <g
   class="com.sun.star.drawing.LineShape"
   id="g183">
       <g
   id="id16">
        <path
   d="m 12667,4532 0,868"
   id="path186"
   inkscape:connector-curvature="0"
   style="fill:none;stroke:#000000;stroke-width:50" />
       </g>
      </g>
      <g
   class="com.sun.star.drawing.LineShape"
   id="g188">
       <g
   id="id17">
        <path
   d="m 10892,5400 1775,0"
   id="path191"
   inkscape:connector-curvature="0"
   style="fill:none;stroke:#000000;stroke-width:50" />
       </g>
      </g>
      <g
   class="com.sun.star.drawing.LineShape"
   id="g193">
       <g
   id="id18">
        <path
   d="m 10892,4300 1383,0"
   id="path196"
   inkscape:connector-curvature="0"
   style="fill:none;stroke:#000000;stroke-width:50" />
       </g>
      </g>
      <g
   class="com.sun.star.drawing.LineShape"
   id="g198">
       <g
   id="id19">
        <path
   d="m 12275,4300 392,232"
   id="path201"
   inkscape:connector-curvature="0"
   style="fill:none;stroke:#000000;stroke-width:50" />
       </g>
      </g>
      <g
   class="com.sun.star.drawing.TextShape"
   id="g203">
       <g
   id="id20">
        <text
   class="TextShape"
   id="text206"><tspan
     class="TextParagraph"
     font-size="388px"
     font-weight="400"
     id="tspan208"
     style="font-size:388px;font-weight:400;font-family:'Arial, sans-serif'"><tspan
       class="TextPosition"
       x="11050"
       y="5023"
       id="tspan210"><tspan
         id="tspan212"
         style="fill:#000000;stroke:none">notes.txt</tspan></tspan></tspan></text>

       </g>
      </g>
     </g>
     <g
   class="Group"
   id="g214">
      <g
   class="com.sun.star.drawing.CustomShape"
   id="g216">
       <g
   id="id21">
        <path
   d="m 14150,8500 -1150,0 0,-1100 2300,0 0,1100 -1150,0 z"
   id="path219"
   inkscape:connector-curvature="0"
   style="fill:none;stroke:#000000;stroke-width:50" />
        <text
   class="TextShape"
   id="text221"><tspan
     class="TextParagraph"
     font-size="388px"
     font-weight="400"
     id="tspan223"
     style="font-size:388px;font-weight:400;font-family:'Arial, sans-serif'"><tspan
       class="TextPosition"
       x="13816"
       y="8085"
       id="tspan225"><tspan
         id="tspan227"
         style="fill:#000000;stroke:none">swc</tspan></tspan></tspan></text>

       </g>
      </g>
      <g
   class="com.sun.star.drawing.CustomShape"
   id="g229">
       <g
   id="id22">
        <path
   d="m 13000,7400 1001,0 -251,-200 -500,0 -250,200 z"
   id="path232"
   inkscape:connector-curvature="0"
   style="fill:none;stroke:#000000;stroke-width:50" />
       </g>
      </g>
     </g>
     <g
   class="Group"
   id="g234">
      <g
   class="com.sun.star.drawing.LineShape"
   id="g236">
       <g
   id="id23">
        <path
   d="m 10492,7400 0,1100"
   id="path239"
   inkscape:connector-curvature="0"
   style="fill:none;stroke:#000000;stroke-width:50" />
       </g>
      </g>
      <g
   class="com.sun.star.drawing.LineShape"
   id="g241">
       <g
   id="id24">
        <path
   d="m 12267,7632 0,868"
   id="path244"
   inkscape:connector-curvature="0"
   style="fill:none;stroke:#000000;stroke-width:50" />
       </g>
      </g>
      <g
   class="com.sun.star.drawing.LineShape"
   id="g246">
       <g
   id="id25">
        <path
   d="m 10492,8500 1775,0"
   id="path249"
   inkscape:connector-curvature="0"
   style="fill:none;stroke:#000000;stroke-width:50" />
       </g>
      </g>
      <g
   class="com.sun.star.drawing.LineShape"
   id="g251">
       <g
   id="id26">
        <path
   d="m 10492,7400 1383,0"
   id="path254"
   inkscape:connector-curvature="0"
   style="fill:none;stroke:#000000;stroke-width:50" />
       </g>
      </g>
      <g
   class="com.sun.star.drawing.LineShape"
   id="g256">
       <g
   id="id27">
        <path
   d="m 11875,7400 392,232"
   id="path259"
   inkscape:connector-curvature="0"
   style="fill:none;stroke:#000000;stroke-width:50" />
       </g>
      </g>
      <g
   class="com.sun.star.drawing.TextShape"
   id="g261">
       <g
   id="id28">
        <text
   class="TextShape"
   id="text264"><tspan
     class="TextParagraph"
     font-size="388px"
     font-weight="400"
     id="tspan266"
     style="font-size:388px;font-weight:400;font-family:'Arial, sans-serif'"><tspan
       class="TextPosition"
       x="10650"
       y="8123"
       id="tspan268"><tspan
         id="tspan270"
         style="fill:#000000;stroke:none">solar.pdf</tspan></tspan></tspan></text>

       </g>
      </g>
     </g>
     <g
   class="Group"
   id="g272">
      <g
   class="com.sun.star.drawing.CustomShape"
   id="g274">
       <g
   id="id29">
        <path
   d="m 8650,8500 -1150,0 0,-1100 2300,0 0,1100 -1150,0 z"
   id="path277"
   inkscape:connector-curvature="0"
   style="fill:none;stroke:#000000;stroke-width:50" />
        <text
   class="TextShape"
   id="text279"><tspan
     class="TextParagraph"
     font-size="388px"
     font-weight="400"
     id="tspan281"
     style="font-size:388px;font-weight:400;font-family:'Arial, sans-serif'"><tspan
       class="TextPosition"
       x="8229"
       y="8085"
       id="tspan283"><tspan
         id="tspan285"
         style="fill:#000000;stroke:none">solar</tspan></tspan></tspan></text>

       </g>
      </g>
      <g
   class="com.sun.star.drawing.CustomShape"
   id="g287">
       <g
   id="id30">
        <path
   d="m 7500,7400 1001,0 -251,-200 -500,0 -250,200 z"
   id="path290"
   inkscape:connector-curvature="0"
   style="fill:none;stroke:#000000;stroke-width:50" />
       </g>
      </g>
     </g>
     <g
   class="Group"
   id="g292">
      <g
   class="com.sun.star.drawing.LineShape"
   id="g294">
       <g
   id="id31">
        <path
   d="m 4992,7400 0,1100"
   id="path297"
   inkscape:connector-curvature="0"
   style="fill:none;stroke:#000000;stroke-width:50" />
       </g>
      </g>
      <g
   class="com.sun.star.drawing.LineShape"
   id="g299">
       <g
   id="id32">
        <path
   d="m 6767,7632 0,868"
   id="path302"
   inkscape:connector-curvature="0"
   style="fill:none;stroke:#000000;stroke-width:50" />
       </g>
      </g>
      <g
   class="com.sun.star.drawing.LineShape"
   id="g304">
       <g
   id="id33">
        <path
   d="m 4992,8500 1775,0"
   id="path307"
   inkscape:connector-curvature="0"
   style="fill:none;stroke:#000000;stroke-width:50" />
       </g>
      </g>
      <g
   class="com.sun.star.drawing.LineShape"
   id="g309">
       <g
   id="id34">
        <path
   d="m 4992,7400 1383,0"
   id="path312"
   inkscape:connector-curvature="0"
   style="fill:none;stroke:#000000;stroke-width:50" />
       </g>
      </g>
      <g
   class="com.sun.star.drawing.LineShape"
   id="g314">
       <g
   id="id35">
        <path
   d="m 6375,7400 392,232"
   id="path317"
   inkscape:connector-curvature="0"
   style="fill:none;stroke:#000000;stroke-width:50" />
       </g>
      </g>
     </g>
     <g
   class="com.sun.star.drawing.TextShape"
   id="g319">
      <g
   id="id36">
       <text
   class="TextShape"
   id="text322"><tspan
     class="TextParagraph"
     font-size="388px"
     font-weight="400"
     id="tspan324"
     style="font-size:388px;font-weight:400;font-family:'Arial, sans-serif'"><tspan
       class="TextPosition"
       x="5150"
       y="8123"
       id="tspan326"><tspan
         id="tspan328"
         style="fill:#000000;stroke:none">pizza.cfg</tspan></tspan></tspan></text>

      </g>
     </g>
     <g
   class="com.sun.star.drawing.LineShape"
   id="g330">
      <g
   id="id37">
       <path
   d="m 2500,3100 15200,0"
   id="path333"
   inkscape:connector-curvature="0"
   style="fill:none;stroke:#000000" />
      </g>
     </g>
     <g
   class="com.sun.star.drawing.LineShape"
   id="g335">
      <g
   id="id38">
       <path
   d="m 2500,3100 0,470"
   id="path338"
   inkscape:connector-curvature="0"
   style="fill:none;stroke:#000000" />
       <path
   d="m 2500,4000 150,-450 -300,0 150,450 z"
   id="path340"
   inkscape:connector-curvature="0"
   style="fill:#000000;stroke:none" />
      </g>
     </g>
     <g
   class="com.sun.star.drawing.LineShape"
   id="g342">
      <g
   id="id39">
       <path
   d="m 5500,3100 0,470"
   id="path345"
   inkscape:connector-curvature="0"
   style="fill:none;stroke:#000000" />
       <path
   d="m 5500,4000 150,-450 -300,0 150,450 z"
   id="path347"
   inkscape:connector-curvature="0"
   style="fill:#000000;stroke:none" />
      </g>
     </g>
     <g
   class="com.sun.star.drawing.LineShape"
   id="g349">
      <g
   id="id40">
       <path
   d="m 8500,3100 0,470"
   id="path352"
   inkscape:connector-curvature="0"
   style="fill:none;stroke:#000000" />
       <path
   d="m 8500,4000 150,-450 -300,0 150,450 z"
   id="path354"
   inkscape:connector-curvature="0"
   style="fill:#000000;stroke:none" />
      </g>
     </g>
     <g
   class="com.sun.star.drawing.LineShape"
   id="g356">
      <g
   id="id41">
       <path
   d="m 11700,3100 0,470"
   id="path359"
   inkscape:connector-curvature="0"
   style="fill:none;stroke:#000000" />
       <path
   d="m 11700,4000 150,-450 -300,0 150,450 z"
   id="path361"
   inkscape:connector-curvature="0"
   style="fill:#000000;stroke:none" />
      </g>
     </g>
     <g
   class="com.sun.star.drawing.LineShape"
   id="g363">
      <g
   id="id42">
       <path
   d="m 14800,3100 0,470"
   id="path366"
   inkscape:connector-curvature="0"
   style="fill:none;stroke:#000000" />
       <path
   d="m 14800,4000 150,-450 -300,0 150,450 z"
   id="path368"
   inkscape:connector-curvature="0"
   style="fill:#000000;stroke:none" />
      </g>
     </g>
     <g
   class="com.sun.star.drawing.LineShape"
   id="g370">
      <g
   id="id43">
       <path
   d="m 17700,3100 0,470"
   id="path373"
   inkscape:connector-curvature="0"
   style="fill:none;stroke:#000000" />
       <path
   d="m 17700,4000 150,-450 -300,0 150,450 z"
   id="path375"
   inkscape:connector-curvature="0"
   style="fill:#000000;stroke:none" />
      </g>
     </g>
     <g
   class="com.sun.star.drawing.LineShape"
   id="g377">
      <g
   id="id44">
       <path
   d="m 10200,2500 0,3900"
   id="path380"
   inkscape:connector-curvature="0"
   style="fill:none;stroke:#000000" />
      </g>
     </g>
     <g
   class="com.sun.star.drawing.LineShape"
   id="g382">
      <g
   id="id45">
       <path
   d="m 5900,6400 8400,0"
   id="path385"
   inkscape:connector-curvature="0"
   style="fill:none;stroke:#000000" />
      </g>
     </g>
     <g
   class="com.sun.star.drawing.LineShape"
   id="g387">
      <g
   id="id46">
       <path
   d="m 5900,6400 0,470"
   id="path390"
   inkscape:connector-curvature="0"
   style="fill:none;stroke:#000000" />
       <path
   d="m 5900,7300 150,-450 -300,0 150,450 z"
   id="path392"
   inkscape:connector-curvature="0"
   style="fill:#000000;stroke:none" />
      </g>
     </g>
     <g
   class="com.sun.star.drawing.LineShape"
   id="g394">
      <g
   id="id47">
       <path
   d="m 8800,6400 0,470"
   id="path397"
   inkscape:connector-curvature="0"
   style="fill:none;stroke:#000000" />
       <path
   d="m 8800,7300 150,-450 -300,0 150,450 z"
   id="path399"
   inkscape:connector-curvature="0"
   style="fill:#000000;stroke:none" />
      </g>
     </g>
     <g
   class="com.sun.star.drawing.LineShape"
   id="g401">
      <g
   id="id48">
       <path
   d="m 11300,6400 0,470"
   id="path404"
   inkscape:connector-curvature="0"
   style="fill:none;stroke:#000000" />
       <path
   d="m 11300,7300 150,-450 -300,0 150,450 z"
   id="path406"
   inkscape:connector-curvature="0"
   style="fill:#000000;stroke:none" />
      </g>
     </g>
     <g
   class="com.sun.star.drawing.LineShape"
   id="g408">
      <g
   id="id49">
       <path
   d="m 14300,6400 0,470"
   id="path411"
   inkscape:connector-curvature="0"
   style="fill:none;stroke:#000000" />
       <path
   d="m 14300,7300 150,-450 -300,0 150,450 z"
   id="path413"
   inkscape:connector-curvature="0"
   style="fill:#000000;stroke:none" />
      </g>
     </g>
    </g>
   </g>
  </g>
 </g>
</svg>